999
dxflib 3.26.4.0
  0
SECTION
  2
HEADER
  9
$ACADVER
  1
AC1015
  9
$HANDSEED
  5
FFFF
  9
$DIMADEC
 70
0
  9
$DIMASZ
 40
6.0
  9
$DIMATFIT
 70
0
  9
$DIMAUNIT
 70
0
  9
$DIMAZIN
 70
2
  9
$DIMBLK
  1
0
  9
$DIMBLK1
  1
0
  9
$DIMBLK2
  1
0
  9
$DIMDEC
 70
4
  9
$DIMDLI
 40
12.0
  9
$DIMDSEP
 70
46
  9
$DIMEXE
 40
3.0
  9
$DIMEXO
 40
1.5
  9
$DIMGAP
 40
1.5
  9
$DIMLFAC
 40
1.0
  9
$DIMLUNIT
 70
2
  9
$DIMSCALE
 40
1.0
  9
$DIMTAD
 70
1
  9
$DIMTIH
 70
0
  9
$DIMTSZ
 40
0.0
  9
$DIMTXT
 40
6.0
  9
$DIMZIN
 70
8
  9
$DWGCODEPAGE
  3
ANSI_1252
  9
$INSUNITS
 70
4
  9
$LTSCALE
 40
1.0
  9
$MAXACTVP
 70
64
  9
$MEASUREMENT
 70
1
  9
$MIRRTEXT
 70
0
  9
$PDMODE
 70
0
  9
$PDSIZE
 40
0.0
  0
ENDSEC
  0
SECTION
  2
TABLES
  0
TABLE
  2
VPORT
  5
8
100
AcDbSymbolTable
 70
1
  0
VPORT
  5
30
100
AcDbSymbolTableRecord
100
AcDbViewportTableRecord
  2
*Active
 70
0
 10
0.0
 20
0.0
 11
1.0
 21
1.0
 12
286.3055555555554861
 22
148.5
 13
0.0
 23
0.0
 14
10.0
 24
10.0
 15
10.0
 25
10.0
 16
0.0
 26
0.0
 36
1.0
 17
0.0
 27
0.0
 37
0.0
 40
297.0
 41
1.92798353909465
 42
50.0
 43
0.0
 44
0.0
 50
0.0
 51
0.0
 71
0
 72
100
 73
1
 74
3
 75
1
 76
1
 77
0
 78
0
281
0
 65
1
110
0.0
120
0.0
130
0.0
111
1.0
121
0.0
131
0.0
112
0.0
122
1.0
132
0.0
 79
0
146
0.0
  0
ENDTAB
  0
TABLE
  2
LTYPE
  5
5
100
AcDbSymbolTable
 70
41
  0
LTYPE
  5
16
100
AcDbSymbolTableRecord
100
AcDbLinetypeTableRecord
  2
Continuous
 70
0
  3
Solid line
 72
65
 73
0
 40
0.0
  0
LTYPE
  5
31
100
AcDbSymbolTableRecord
100
AcDbLinetypeTableRecord
  2
DOT
 70
0
  3
Dot . . . . . . . . . . . . . . . . . . . . . . . .
 72
65
 73
2
 40
6.3499999999999996
 49
0.1
 74
0
 49
-6.25
 74
0
  0
LTYPE
  5
32
100
AcDbSymbolTableRecord
100
AcDbLinetypeTableRecord
  2
PHANTOMX2
 70
0
  3
Phantom (2x) ____________    ____    ____   _
 72
65
 73
6
 40
127.0000000000000142
 49
63.5
 74
0
 49
-12.6999999999999993
 74
0
 49
12.6999999999999993
 74
0
 49
-12.6999999999999993
 74
0
 49
12.6999999999999993
 74
0
 49
-12.6999999999999993
 74
0
  0
LTYPE
  5
33
100
AcDbSymbolTableRecord
100
AcDbLinetypeTableRecord
  2
HIDDEN2
 70
0
  3
Hidden (.5x) _ _ _ _ _ _ _ _ _ _ _ _ _ _ _ _ _ 
 72
65
 73
2
 40
4.7624999999999993
 49
3.1749999999999998
 74
0
 49
-1.5874999999999999
 74
0
  0
LTYPE
  5
34
100
AcDbSymbolTableRecord
100
AcDbLinetypeTableRecord
  2
CENTERX2
 70
0
  3
Center (2x) ________  __  ________  __  _____
 72
65
 73
4
 40
101.6000000000000085
 49
63.5
 74
0
 49
-12.6999999999999993
 74
0
 49
12.6999999999999993
 74
0
 49
-12.6999999999999993
 74
0
  0
LTYPE
  5
35
100
AcDbSymbolTableRecord
100
AcDbLinetypeTableRecord
  2
CENTER
 70
0
  3
Center ____ _ ____ _ ____ _ ____ _ ____ _ ____
 72
65
 73
4
 40
50.8000000000000043
 49
31.75
 74
0
 49
-6.3499999999999996
 74
0
 49
6.3499999999999996
 74
0
 49
-6.3499999999999996
 74
0
  0
LTYPE
  5
36
100
AcDbSymbolTableRecord
100
AcDbLinetypeTableRecord
  2
ACAD_ISO05W100
 70
0
  3
ISO long-dash double-dot ____ .. ____ .. ____ . 
 72
65
 73
6
 40
33.0000000000000071
 49
24.0
 74
0
 49
-2.9500000000000002
 74
0
 49
0.1
 74
0
 49
-2.9000000000000004
 74
0
 49
0.1
 74
0
 49
-2.9500000000000002
 74
0
  0
LTYPE
  5
37
100
AcDbSymbolTableRecord
100
AcDbLinetypeTableRecord
  2
ACAD_ISO08W100
 70
0
  3
ISO long-dash short-dash ____ __ ____ __ ____ _
 72
65
 73
4
 40
36.0
 49
24.0
 74
0
 49
-3.0
 74
0
 49
6.0
 74
0
 49
-3.0
 74
0
  0
LTYPE
  5
38
100
AcDbSymbolTableRecord
100
AcDbLinetypeTableRecord
  2
DIVIDEX2
 70
0
  3
Divide (2x) ________  .  .  ________  .  .  _
 72
65
 73
6
 40
63.5
 49
25.3999999999999986
 74
0
 49
-12.6499999999999986
 74
0
 49
0.1
 74
0
 49
-12.5999999999999979
 74
0
 49
0.1
 74
0
 49
-12.6499999999999986
 74
0
  0
LTYPE
  5
39
100
AcDbSymbolTableRecord
100
AcDbLinetypeTableRecord
  2
DIVIDE2
 70
0
  3
Divide (.5x) __..__..__..__..__..__..__..__.._
 72
65
 73
6
 40
15.8749999999999982
 49
6.3499999999999996
 74
0
 49
-3.125
 74
0
 49
0.1
 74
0
 49
-3.0750000000000002
 74
0
 49
0.1
 74
0
 49
-3.125
 74
0
  0
LTYPE
  5
3A
100
AcDbSymbolTableRecord
100
AcDbLinetypeTableRecord
  2
ACAD_ISO04W100
 70
0
  3
ISO long-dash dot ____ . ____ . ____ . ____ . _
 72
65
 73
4
 40
30.0
 49
24.0
 74
0
 49
-2.9500000000000002
 74
0
 49
0.1
 74
0
 49
-2.9500000000000002
 74
0
  0
LTYPE
  5
3B
100
AcDbSymbolTableRecord
100
AcDbLinetypeTableRecord
  2
DASHED2
 70
0
  3
Dashed (.5x) _ _ _ _ _ _ _ _ _ _ _ _ _ _ _ _ _ 
 72
65
 73
2
 40
9.5249999999999986
 49
6.3499999999999996
 74
0
 49
-3.1749999999999998
 74
0
  0
LTYPE
  5
14
100
AcDbSymbolTableRecord
100
AcDbLinetypeTableRecord
  2
BYBLOCK
 70
0
  3

 72
65
 73
0
 40
0.0
  0
LTYPE
  5
15
100
AcDbSymbolTableRecord
100
AcDbLinetypeTableRecord
  2
BYLAYER
 70
0
  3

 72
65
 73
0
 40
0.0
  0
LTYPE
  5
3C
100
AcDbSymbolTableRecord
100
AcDbLinetypeTableRecord
  2
CENTER2
 70
0
  3
Center (.5x) ___ _ ___ _ ___ _ ___ _ ___ _ ___
 72
65
 73
4
 40
28.5750000000000028
 49
19.0500000000000007
 74
0
 49
-3.1749999999999998
 74
0
 49
3.1749999999999998
 74
0
 49
-3.1749999999999998
 74
0
  0
LTYPE
  5
3D
100
AcDbSymbolTableRecord
100
AcDbLinetypeTableRecord
  2
DASHEDX2
 70
0
  3
Dashed (2x) ____  ____  ____  ____  ____  ___
 72
65
 73
2
 40
38.0999999999999943
 49
25.3999999999999986
 74
0
 49
-12.6999999999999993
 74
0
  0
LTYPE
  5
3E
100
AcDbSymbolTableRecord
100
AcDbLinetypeTableRecord
  2
ACAD_ISO10W100
 70
0
  3
ISO dash dot __ . __ . __ . __ . __ . __ . __ . 
 72
65
 73
4
 40
18.0
 49
12.0
 74
0
 49
-2.9500000000000002
 74
0
 49
0.1
 74
0
 49
-2.9500000000000002
 74
0
  0
LTYPE
  5
3F
100
AcDbSymbolTableRecord
100
AcDbLinetypeTableRecord
  2
DIVIDE
 70
0
  3
Divide ____ . . ____ . . ____ . . ____ . . ____
 72
65
 73
6
 40
31.7500000000000036
 49
12.6999999999999993
 74
0
 49
-6.2999999999999998
 74
0
 49
0.1
 74
0
 49
-6.25
 74
0
 49
0.1
 74
0
 49
-6.2999999999999998
 74
0
  0
LTYPE
  5
40
100
AcDbSymbolTableRecord
100
AcDbLinetypeTableRecord
  2
ACAD_ISO13W100
 70
0
  3
ISO double-dash double-dot __ __ . . __ __ . . _
 72
65
 73
8
 40
36.0000000000000071
 49
12.0
 74
0
 49
-3.0
 74
0
 49
12.0
 74
0
 49
-2.9500000000000002
 74
0
 49
0.1
 74
0
 49
-2.9000000000000004
 74
0
 49
0.1
 74
0
 49
-2.9500000000000002
 74
0
  0
LTYPE
  5
41
100
AcDbSymbolTableRecord
100
AcDbLinetypeTableRecord
  2
DASHDOT2
 70
0
  3
Dash dot (.5x) _._._._._._._._._._._._._._._.
 72
65
 73
4
 40
12.6999999999999993
 49
6.3499999999999996
 74
0
 49
-3.125
 74
0
 49
0.1
 74
0
 49
-3.125
 74
0
  0
LTYPE
  5
42
100
AcDbSymbolTableRecord
100
AcDbLinetypeTableRecord
  2
BORDER2
 70
0
  3
Border (.5x) __.__.__.__.__.__.__.__.__.__.__.
 72
65
 73
6
 40
22.2250000000000014
 49
6.3499999999999996
 74
0
 49
-3.1749999999999998
 74
0
 49
6.3499999999999996
 74
0
 49
-3.125
 74
0
 49
0.1
 74
0
 49
-3.125
 74
0
  0
LTYPE
  5
43
100
AcDbSymbolTableRecord
100
AcDbLinetypeTableRecord
  2
DASHDOT
 70
0
  3
Dash dot __ . __ . __ . __ . __ . __ . __ . __
 72
65
 73
4
 40
25.4000000000000021
 49
12.6999999999999993
 74
0
 49
-6.2999999999999998
 74
0
 49
0.1
 74
0
 49
-6.2999999999999998
 74
0
  0
LTYPE
  5
44
100
AcDbSymbolTableRecord
100
AcDbLinetypeTableRecord
  2
DOTX2
 70
0
  3
Dot (2x) .  .  .  .  .  .  .  .  .  .  .  .  .  .
 72
65
 73
2
 40
12.6999999999999993
 49
0.1
 74
0
 49
-12.5999999999999996
 74
0
  0
LTYPE
  5
45
100
AcDbSymbolTableRecord
100
AcDbLinetypeTableRecord
  2
DASHED
 70
0
  3
Dashed __ __ __ __ __ __ __ __ __ __ __ __ __ _
 72
65
 73
2
 40
19.0499999999999972
 49
12.6999999999999993
 74
0
 49
-6.3499999999999996
 74
0
  0
LTYPE
  5
46
100
AcDbSymbolTableRecord
100
AcDbLinetypeTableRecord
  2
ACAD_ISO11W100
 70
0
  3
ISO double-dash dot __ __ . __ __ . __ __ . __ _
 72
65
 73
6
 40
33.0
 49
12.0
 74
0
 49
-3.0
 74
0
 49
12.0
 74
0
 49
-2.9500000000000002
 74
0
 49
0.1
 74
0
 49
-2.9500000000000002
 74
0
  0
LTYPE
  5
47
100
AcDbSymbolTableRecord
100
AcDbLinetypeTableRecord
  2
ACAD_ISO07W100
 70
0
  3
ISO dot . . . . . . . . . . . . . . . . . . . . 
 72
65
 73
2
 40
3.0
 49
0.1
 74
0
 49
-2.8999999999999999
 74
0
  0
LTYPE
  5
48
100
AcDbSymbolTableRecord
100
AcDbLinetypeTableRecord
  2
PHANTOM
 70
0
  3
Phantom ______  __  __  ______  __  __  ______ 
 72
65
 73
6
 40
63.5000000000000071
 49
31.75
 74
0
 49
-6.3499999999999996
 74
0
 49
6.3499999999999996
 74
0
 49
-6.3499999999999996
 74
0
 49
6.3499999999999996
 74
0
 49
-6.3499999999999996
 74
0
  0
LTYPE
  5
49
100
AcDbSymbolTableRecord
100
AcDbLinetypeTableRecord
  2
ACAD_ISO12W100
 70
0
  3
ISO dash double-dot __ . . __ . . __ . . __ . . 
 72
65
 73
6
 40
21.0
 49
12.0
 74
0
 49
-2.9500000000000002
 74
0
 49
0.1
 74
0
 49
-2.9000000000000004
 74
0
 49
0.1
 74
0
 49
-2.9500000000000002
 74
0
  0
LTYPE
  5
4A
100
AcDbSymbolTableRecord
100
AcDbLinetypeTableRecord
  2
ACAD_ISO02W100
 70
0
  3
ISO dash __ __ __ __ __ __ __ __ __ __ __ __ __
 72
65
 73
2
 40
15.0
 49
12.0
 74
0
 49
-3.0
 74
0
  0
LTYPE
  5
4B
100
AcDbSymbolTableRecord
100
AcDbLinetypeTableRecord
  2
ACAD_ISO14W100
 70
0
  3
ISO dash triple-dot __ . . . __ . . . __ . . . _
 72
65
 73
8
 40
24.0000000000000036
 49
12.0
 74
0
 49
-2.9500000000000002
 74
0
 49
0.1
 74
0
 49
-2.9000000000000004
 74
0
 49
0.1
 74
0
 49
-2.9000000000000004
 74
0
 49
0.1
 74
0
 49
-2.9500000000000002
 74
0
  0
LTYPE
  5
4C
100
AcDbSymbolTableRecord
100
AcDbLinetypeTableRecord
  2
HIDDENX2
 70
0
  3
Hidden (2x) ____ ____ ____ ____ ____ ____ ____ 
 72
65
 73
2
 40
19.0499999999999972
 49
12.6999999999999993
 74
0
 49
-6.3499999999999996
 74
0
  0
LTYPE
  5
4D
100
AcDbSymbolTableRecord
100
AcDbLinetypeTableRecord
  2
ACAD_ISO03W100
 70
0
  3
ISO dash space __    __    __    __    __    __
 72
65
 73
2
 40
30.0
 49
12.0
 74
0
 49
-18.0
 74
0
  0
LTYPE
  5
4E
100
AcDbSymbolTableRecord
100
AcDbLinetypeTableRecord
  2
BORDER
 70
0
  3
Border __ __ . __ __ . __ __ . __ __ . __ __ .
 72
65
 73
6
 40
44.4499999999999957
 49
12.6999999999999993
 74
0
 49
-6.3499999999999996
 74
0
 49
12.6999999999999993
 74
0
 49
-6.2999999999999998
 74
0
 49
0.1
 74
0
 49
-6.2999999999999998
 74
0
  0
LTYPE
  5
4F
100
AcDbSymbolTableRecord
100
AcDbLinetypeTableRecord
  2
PHANTOM2
 70
0
  3
Phantom (.5x) ___ _ _ ___ _ _ ___ _ _ ___ _ _
 72
65
 73
6
 40
31.7500000000000036
 49
15.875
 74
0
 49
-3.1749999999999998
 74
0
 49
3.1749999999999998
 74
0
 49
-3.1749999999999998
 74
0
 49
3.1749999999999998
 74
0
 49
-3.1749999999999998
 74
0
  0
LTYPE
  5
50
100
AcDbSymbolTableRecord
100
AcDbLinetypeTableRecord
  2
DASHDOTX2
 70
0
  3
Dash dot (2x) ____  .  ____  .  ____  .  ___
 72
65
 73
4
 40
50.7999999999999972
 49
25.3999999999999986
 74
0
 49
-12.6499999999999986
 74
0
 49
0.1
 74
0
 49
-12.6499999999999986
 74
0
  0
LTYPE
  5
51
100
AcDbSymbolTableRecord
100
AcDbLinetypeTableRecord
  2
ACAD_ISO09W100
 70
0
  3
ISO long-dash double-short-dash ____ __ __ ____
 72
65
 73
6
 40
45.0
 49
24.0
 74
0
 49
-3.0
 74
0
 49
6.0
 74
0
 49
-3.0
 74
0
 49
6.0
 74
0
 49
-3.0
 74
0
  0
LTYPE
  5
52
100
AcDbSymbolTableRecord
100
AcDbLinetypeTableRecord
  2
HIDDEN
 70
0
  3
Hidden __ __ __ __ __ __ __ __ __ __ __ __ __ __
 72
65
 73
2
 40
9.5249999999999986
 49
6.3499999999999996
 74
0
 49
-3.1749999999999998
 74
0
  0
LTYPE
  5
53
100
AcDbSymbolTableRecord
100
AcDbLinetypeTableRecord
  2
BORDERX2
 70
0
  3
Border (2x) ____  ____  .  ____  ____  .  ___
 72
65
 73
6
 40
88.8999999999999773
 49
25.3999999999999986
 74
0
 49
-12.6999999999999993
 74
0
 49
25.3999999999999986
 74
0
 49
-12.6499999999999986
 74
0
 49
0.1
 74
0
 49
-12.6499999999999986
 74
0
  0
LTYPE
  5
54
100
AcDbSymbolTableRecord
100
AcDbLinetypeTableRecord
  2
DOT2
 70
0
  3
Dot (.5x) ........................................
 72
65
 73
2
 40
3.1749999999999998
 49
0.1
 74
0
 49
-3.0749999999999997
 74
0
  0
LTYPE
  5
55
100
AcDbSymbolTableRecord
100
AcDbLinetypeTableRecord
  2
ACAD_ISO15W100
 70
0
  3
ISO double-dash triple-dot __ __ . . . __ __ . .
 72
65
 73
10
 40
39.0000000000000071
 49
12.0
 74
0
 49
-3.0
 74
0
 49
12.0
 74
0
 49
-2.9500000000000002
 74
0
 49
0.1
 74
0
 49
-2.9000000000000004
 74
0
 49
0.1
 74
0
 49
-2.9000000000000004
 74
0
 49
0.1
 74
0
 49
-2.9500000000000002
 74
0
  0
LTYPE
  5
56
100
AcDbSymbolTableRecord
100
AcDbLinetypeTableRecord
  2
ACAD_ISO06W100
 70
0
  3
ISO long-dash triple-dot ____ ... ____ ... ____
 72
65
 73
8
 40
36.0000000000000071
 49
24.0
 74
0
 49
-2.9500000000000002
 74
0
 49
0.1
 74
0
 49
-2.9000000000000004
 74
0
 49
0.1
 74
0
 49
-2.9000000000000004
 74
0
 49
0.1
 74
0
 49
-2.9500000000000002
 74
0
  0
ENDTAB
  0
TABLE
  2
LAYER
  5
2
100
AcDbSymbolTable
 70
3
  0
LAYER
  5
10
100
AcDbSymbolTableRecord
100
AcDbLayerTableRecord
  2
0
 70
0
 62
7
420
0
  6
Continuous
370
25
390
F
  0
LAYER
  5
57
100
AcDbSymbolTableRecord
100
AcDbLayerTableRecord
  2
Edges
 70
0
 62
7
420
0
  6
Continuous
370
100
390
F
  0
LAYER
  5
58
100
AcDbSymbolTableRecord
100
AcDbLayerTableRecord
  2
Annotations
 70
0
 62
1
420
16711680
  6
Continuous
370
25
390
F
  0
ENDTAB
  0
TABLE
  2
STYLE
  5
3
100
AcDbSymbolTable
 70
25
  0
STYLE
  5
59
100
AcDbSymbolTableRecord
100
AcDbTextStyleTableRecord
  2
Standard
 70
0
 40
0.0
 41
1.0
 50
0.0
 71
0
 42
2.5
  3

  4

1001
ACAD
1000
txt
1071
0
  0
STYLE
  5
5A
100
AcDbSymbolTableRecord
100
AcDbTextStyleTableRecord
  2
textstyle0
 70
0
 40
0.0
 41
1.0
 50
0.0
 71
0
 42
5.0
  3

  4

1001
ACAD
1000
SimHei
1071
0
  0
STYLE
  5
5B
100
AcDbSymbolTableRecord
100
AcDbTextStyleTableRecord
  2
textstyle1
 70
0
 40
0.0
 41
1.0
 50
0.0
 71
0
 42
5.0
  3

  4

1001
ACAD
1000
SimHei
1071
0
  0
STYLE
  5
5C
100
AcDbSymbolTableRecord
100
AcDbTextStyleTableRecord
  2
textstyle2
 70
0
 40
0.0
 41
1.0
 50
0.0
 71
0
 42
5.0
  3

  4

1001
ACAD
1000
SimHei
1071
0
  0
STYLE
  5
5D
100
AcDbSymbolTableRecord
100
AcDbTextStyleTableRecord
  2
textstyle3
 70
0
 40
0.0
 41
1.0
 50
0.0
 71
0
 42
5.0
  3

  4

1001
ACAD
1000
SimHei
1071
0
  0
STYLE
  5
5E
100
AcDbSymbolTableRecord
100
AcDbTextStyleTableRecord
  2
textstyle4
 70
0
 40
0.0
 41
1.0
 50
0.0
 71
0
 42
5.0
  3

  4

1001
ACAD
1000
SimHei
1071
0
  0
STYLE
  5
5F
100
AcDbSymbolTableRecord
100
AcDbTextStyleTableRecord
  2
textstyle5
 70
0
 40
0.0
 41
1.0
 50
0.0
 71
0
 42
5.0
  3

  4

1001
ACAD
1000
SimHei
1071
0
  0
STYLE
  5
60
100
AcDbSymbolTableRecord
100
AcDbTextStyleTableRecord
  2
textstyle6
 70
0
 40
0.0
 41
1.0
 50
0.0
 71
0
 42
5.0
  3

  4

1001
ACAD
1000
SimHei
1071
0
  0
STYLE
  5
61
100
AcDbSymbolTableRecord
100
AcDbTextStyleTableRecord
  2
textstyle7
 70
0
 40
0.0
 41
1.0
 50
0.0
 71
0
 42
5.0
  3

  4

1001
ACAD
1000
SimHei
1071
0
  0
STYLE
  5
62
100
AcDbSymbolTableRecord
100
AcDbTextStyleTableRecord
  2
textstyle8
 70
0
 40
0.0
 41
1.0
 50
0.0
 71
0
 42
5.0
  3

  4

1001
ACAD
1000
SimHei
1071
0
  0
STYLE
  5
63
100
AcDbSymbolTableRecord
100
AcDbTextStyleTableRecord
  2
textstyle9
 70
0
 40
0.0
 41
1.0
 50
0.0
 71
0
 42
5.0
  3

  4

1001
ACAD
1000
SimHei
1071
0
  0
STYLE
  5
64
100
AcDbSymbolTableRecord
100
AcDbTextStyleTableRecord
  2
textstyle10
 70
0
 40
0.0
 41
1.0
 50
0.0
 71
0
 42
5.0
  3

  4

1001
ACAD
1000
SimHei
1071
0
  0
STYLE
  5
65
100
AcDbSymbolTableRecord
100
AcDbTextStyleTableRecord
  2
textstyle11
 70
0
 40
0.0
 41
1.0
 50
0.0
 71
0
 42
5.0
  3

  4

1001
ACAD
1000
SimHei
1071
0
  0
STYLE
  5
66
100
AcDbSymbolTableRecord
100
AcDbTextStyleTableRecord
  2
textstyle12
 70
0
 40
0.0
 41
1.0
 50
0.0
 71
0
 42
5.0
  3

  4

1001
ACAD
1000
SimHei
1071
0
  0
STYLE
  5
67
100
AcDbSymbolTableRecord
100
AcDbTextStyleTableRecord
  2
textstyle13
 70
0
 40
0.0
 41
1.0
 50
0.0
 71
0
 42
5.0
  3

  4

1001
ACAD
1000
SimHei
1071
0
  0
STYLE
  5
68
100
AcDbSymbolTableRecord
100
AcDbTextStyleTableRecord
  2
textstyle14
 70
0
 40
0.0
 41
1.0
 50
0.0
 71
0
 42
5.0
  3

  4

1001
ACAD
1000
SimHei
1071
0
  0
STYLE
  5
69
100
AcDbSymbolTableRecord
100
AcDbTextStyleTableRecord
  2
textstyle15
 70
0
 40
0.0
 41
1.0
 50
0.0
 71
0
 42
5.0
  3

  4

1001
ACAD
1000
SimHei
1071
0
  0
STYLE
  5
6A
100
AcDbSymbolTableRecord
100
AcDbTextStyleTableRecord
  2
textstyle16
 70
0
 40
0.0
 41
1.0
 50
0.0
 71
0
 42
5.0
  3

  4

1001
ACAD
1000
SimHei
1071
0
  0
STYLE
  5
6B
100
AcDbSymbolTableRecord
100
AcDbTextStyleTableRecord
  2
textstyle17
 70
0
 40
0.0
 41
1.0
 50
0.0
 71
0
 42
5.0
  3

  4

1001
ACAD
1000
SimHei
1071
0
  0
STYLE
  5
6C
100
AcDbSymbolTableRecord
100
AcDbTextStyleTableRecord
  2
textstyle18
 70
0
 40
0.0
 41
1.0
 50
0.0
 71
0
 42
5.0
  3

  4

1001
ACAD
1000
SimHei
1071
0
  0
STYLE
  5
6D
100
AcDbSymbolTableRecord
100
AcDbTextStyleTableRecord
  2
textstyle19
 70
0
 40
0.0
 41
1.0
 50
0.0
 71
0
 42
5.0
  3

  4

1001
ACAD
1000
SimHei
1071
0
  0
STYLE
  5
6E
100
AcDbSymbolTableRecord
100
AcDbTextStyleTableRecord
  2
textstyle20
 70
0
 40
0.0
 41
1.0
 50
0.0
 71
0
 42
5.0
  3

  4

1001
ACAD
1000
SimHei
1071
0
  0
STYLE
  5
6F
100
AcDbSymbolTableRecord
100
AcDbTextStyleTableRecord
  2
textstyle21
 70
0
 40
0.0
 41
1.0
 50
0.0
 71
0
 42
5.0
  3

  4

1001
ACAD
1000
SimHei
1071
0
  0
STYLE
  5
70
100
AcDbSymbolTableRecord
100
AcDbTextStyleTableRecord
  2
textstyle22
 70
0
 40
0.0
 41
1.0
 50
0.0
 71
0
 42
5.0
  3

  4

1001
ACAD
1000
SimHei
1071
0
  0
STYLE
  5
71
100
AcDbSymbolTableRecord
100
AcDbTextStyleTableRecord
  2
textstyle23
 70
0
 40
0.0
 41
1.0
 50
0.0
 71
0
 42
5.0
  3

  4

1001
ACAD
1000
SimHei
1071
0
  0
ENDTAB
  0
TABLE
  2
VIEW
  5
6
100
AcDbSymbolTable
 70
0
  0
ENDTAB
  0
TABLE
  2
UCS
  5
7
100
AcDbSymbolTable
 70
0
  0
ENDTAB
  0
TABLE
  2
APPID
  5
9
100
AcDbSymbolTable
 70
1
  0
APPID
  5
12
100
AcDbSymbolTableRecord
100
AcDbRegAppTableRecord
  2
ACAD
 70
0
  0
APPID
  5
72
100
AcDbSymbolTableRecord
100
AcDbRegAppTableRecord
  2
QCAD
 70
0
  0
ENDTAB
  0
TABLE
  2
DIMSTYLE
  5
A
100
AcDbSymbolTable
 70
1
100
AcDbDimStyleTable
 71
0
  0
DIMSTYLE
105
27
100
AcDbSymbolTableRecord
100
AcDbDimStyleTableRecord
  2
Standard
 41
6.0
 42
1.5
 43
3.75
 44
3.0
 70
0
 73
0
 74
0
 77
1
 78
8
140
6.0
141
2.5
143
0.03937007874016
147
1.5
171
3
172
1
271
2
272
2
274
3
278
44
283
0
284
8
340
59
  0
ENDTAB
  0
TABLE
  2
BLOCK_RECORD
  5
1
100
AcDbSymbolTable
 70
1
  0
BLOCK_RECORD
  5
1F
100
AcDbSymbolTableRecord
100
AcDbBlockTableRecord
  2
*Model_Space
340
22
  0
BLOCK_RECORD
  5
1B
100
AcDbSymbolTableRecord
100
AcDbBlockTableRecord
  2
*Paper_Space
340
1E
  0
BLOCK_RECORD
  5
23
100
AcDbSymbolTableRecord
100
AcDbBlockTableRecord
  2
*Paper_Space0
340
26
  0
ENDTAB
  0
ENDSEC
  0
SECTION
  2
BLOCKS
  0
BLOCK
  5
20
100
AcDbEntity
  8
0
100
AcDbBlockBegin
  2
*Model_Space
 70
0
 10
0.0
 20
0.0
 30
0.0
  3
*Model_Space
  1

  0
ENDBLK
  5
21
100
AcDbEntity
  8
0
100
AcDbBlockEnd
  0
BLOCK
  5
1C
100
AcDbEntity
 67
1
  8
0
100
AcDbBlockBegin
  2
*Paper_Space
 70
0
 10
0.0
 20
0.0
 30
0.0
  3
*Paper_Space
  1

  0
ENDBLK
  5
1D
100
AcDbEntity
 67
1
  8
0
100
AcDbBlockEnd
  0
BLOCK
  5
24
100
AcDbEntity
  8
0
100
AcDbBlockBegin
  2
*Paper_Space0
 70
0
 10
0.0
 20
0.0
 30
0.0
  3
*Paper_Space0
  1

  0
ENDBLK
  5
25
100
AcDbEntity
  8
0
100
AcDbBlockEnd
  0
ENDSEC
  0
SECTION
  2
ENTITIES
  0
HATCH
  5
73
100
AcDbEntity
  8
0
 62
256
370
-1
 48
1.0
  6
BYLAYER
100
AcDbHatch
 10
0.0
 20
0.0
 30
0.0
210
0.0
220
0.0
230
1.0
  2
SOLID
 70
1
 71
0
 91
5
 92
1
 93
4
 72
1
 10
150.0
 20
-460.0
 11
150.0
 21
-520.0
 72
1
 10
150.0
 20
-520.0
 11
342.0
 21
-520.0
 72
1
 10
342.0
 20
-520.0
 11
342.0
 21
-460.0
 72
1
 10
342.0
 20
-460.0
 11
150.0
 21
-460.0
 97
0
 92
1
 93
1
 72
2
 10
165.0
 20
-475.0
 40
4.25
 50
0.0
 51
360.0
 73
1
 97
0
 92
1
 93
1
 72
2
 10
327.0
 20
-475.0
 40
4.25
 50
0.0
 51
360.0
 73
1
 97
0
 92
1
 93
1
 72
2
 10
165.0
 20
-505.0
 40
4.25
 50
0.0
 51
360.0
 73
1
 97
0
 92
1
 93
1
 72
2
 10
327.0
 20
-505.0
 40
4.25
 50
0.0
 51
360.0
 73
1
 97
0
 75
0
 76
1
 98
0
1001
ACAD
1010
0.0
1020
0.0
1030
0
  0
LINE
  5
74
100
AcDbEntity
  8
0
 62
256
370
-1
 48
1.0
  6
BYLAYER
100
AcDbLine
 10
150.0
 20
-520.0
 30
0.0
 11
342.0
 21
-520.0
 31
0.0
  0
LINE
  5
75
100
AcDbEntity
  8
0
 62
256
370
-1
 48
1.0
  6
BYLAYER
100
AcDbLine
 10
342.0
 20
-520.0
 30
0.0
 11
342.0
 21
-460.0
 31
0.0
  0
LINE
  5
76
100
AcDbEntity
  8
0
 62
256
370
-1
 48
1.0
  6
BYLAYER
100
AcDbLine
 10
342.0
 20
-460.0
 30
0.0
 11
150.0
 21
-460.0
 31
0.0
  0
LINE
  5
77
100
AcDbEntity
  8
0
 62
256
370
-1
 48
1.0
  6
BYLAYER
100
AcDbLine
 10
150.0
 20
-460.0
 30
0.0
 11
150.0
 21
-520.0
 31
0.0
  0
CIRCLE
  5
78
100
AcDbEntity
  8
0
 62
256
370
-1
 48
1.0
  6
BYLAYER
100
AcDbCircle
 10
165.0
 20
-475.0
 30
0.0
 40
4.25
  0
CIRCLE
  5
79
100
AcDbEntity
  8
0
 62
256
370
-1
 48
1.0
  6
BYLAYER
100
AcDbCircle
 10
165.0
 20
-505.0
 30
0.0
 40
4.25
  0
CIRCLE
  5
7A
100
AcDbEntity
  8
0
 62
256
370
-1
 48
1.0
  6
BYLAYER
100
AcDbCircle
 10
327.0
 20
-505.0
 30
0.0
 40
4.25
  0
CIRCLE
  5
7B
100
AcDbEntity
  8
0
 62
256
370
-1
 48
1.0
  6
BYLAYER
100
AcDbCircle
 10
327.0
 20
-475.0
 30
0.0
 40
4.25
  0
MTEXT
  5
7C
100
AcDbEntity
  8
Annotations
 62
256
370
-1
 48
1.0
  6
BYLAYER
100
AcDbMText
 10
29.9999999999999893
 20
-14.9999999999999964
 30
0.0
 40
5.0
 41
0.0
 71
6
 72
1
  1
\U+9876\U+9762
  7
textstyle20
 50
0.0
 73
2
 44
1.0
  0
MTEXT
  5
7D
100
AcDbEntity
  8
Annotations
 62
256
370
-1
 48
1.0
  6
BYLAYER
100
AcDbMText
 10
29.9999999999999822
 20
-165.0
 30
0.0
 40
5.0
 41
0.0
 71
6
 72
1
  1
\U+9876\U+9762
  7
textstyle21
 50
0.0
 73
2
 44
1.0
  0
MTEXT
  5
7E
100
AcDbEntity
  8
Annotations
 62
256
370
-1
 48
1.0
  6
BYLAYER
100
AcDbMText
 10
29.9999999999999467
 20
-315.0
 30
0.0
 40
5.0
 41
0.0
 71
6
 72
1
  1
\U+9876\U+9762
  7
textstyle22
 50
0.0
 73
2
 44
1.0
  0
MTEXT
  5
7F
100
AcDbEntity
  8
Annotations
 62
256
370
-1
 48
1.0
  6
BYLAYER
100
AcDbMText
 10
29.9999999999999538
 20
-85.0
 30
0.0
 40
5.0
 41
0.0
 71
6
 72
1
  1
\U+5e95\U+9762
  7
textstyle23
 50
0.0
 73
2
 44
1.0
  0
MTEXT
  5
80
100
AcDbEntity
  8
Annotations
 62
256
370
-1
 48
1.0
  6
BYLAYER
100
AcDbMText
 10
29.9999999999998863
 20
-235.0000000000000284
 30
0.0
 40
5.0
 41
0.0
 71
6
 72
1
  1
\U+5e95\U+9762
  7
textstyle12
 50
0.0
 73
2
 44
1.0
  0
MTEXT
  5
81
100
AcDbEntity
  8
Annotations
 62
256
370
-1
 48
1.0
  6
BYLAYER
100
AcDbMText
 10
29.9999999999998401
 20
-385.0
 30
0.0
 40
5.0
 41
0.0
 71
6
 72
1
  1
\U+5e95\U+9762
  7
textstyle13
 50
0.0
 73
2
 44
1.0
  0
MTEXT
  5
82
100
AcDbEntity
  8
Annotations
 62
256
370
-1
 48
1.0
  6
BYLAYER
100
AcDbMText
 10
147.0
 20
-30.0
 30
0.0
 40
5.0
 41
0.0
 71
6
 72
1
  1
60\U+4fa7\P\U+ff08\U+65e0\U+52a0\U+5de5\U+ff09
  7
textstyle14
 50
0.0
 73
2
 44
1.0
  0
MTEXT
  5
83
100
AcDbEntity
  8
Annotations
 62
256
370
-1
 48
1.0
  6
BYLAYER
100
AcDbMText
 10
147.0220348559258809
 20
-84.9132947976878114
 30
0.0
 40
5.0
 41
0.0
 71
6
 72
1
  1
30\U+4fa7\P\U+ff08\U+65e0\U+52a0\U+5de5\U+ff09
  7
textstyle15
 50
0.0
 73
2
 44
1.0
  0
MTEXT
  5
84
100
AcDbEntity
  8
Annotations
 62
256
370
-1
 48
1.0
  6
BYLAYER
100
AcDbMText
 10
147.0
 20
-180.0
 30
0.0
 40
5.0
 41
0.0
 71
6
 72
1
  1
60\U+4fa7\P\U+ff08\U+65e0\U+52a0\U+5de5\U+ff09
  7
textstyle16
 50
0.0
 73
2
 44
1.0
  0
MTEXT
  5
85
100
AcDbEntity
  8
Annotations
 62
256
370
-1
 48
1.0
  6
BYLAYER
100
AcDbMText
 10
147.0220348559258241
 20
-234.9132947976877972
 30
0.0
 40
5.0
 41
0.0
 71
6
 72
1
  1
30\U+4fa7\P\U+ff08\U+65e0\U+52a0\U+5de5\U+ff09
  7
textstyle17
 50
0.0
 73
2
 44
1.0
  0
MTEXT
  5
86
100
AcDbEntity
  8
Annotations
 62
256
370
-1
 48
1.0
  6
BYLAYER
100
AcDbMText
 10
147.0
 20
-330.0
 30
0.0
 40
5.0
 41
0.0
 71
6
 72
1
  1
60\U+4fa7\P\U+ff08\U+65e0\U+52a0\U+5de5\U+ff09
  7
textstyle18
 50
0.0
 73
2
 44
1.0
  0
MTEXT
  5
87
100
AcDbEntity
  8
Annotations
 62
256
370
-1
 48
1.0
  6
BYLAYER
100
AcDbMText
 10
147.0220348559257673
 20
-384.913294797687854
 30
0.0
 40
5.0
 41
0.0
 71
6
 72
1
  1
30\U+4fa7\P\U+ff08\U+65e0\U+52a0\U+5de5\U+ff09
  7
textstyle19
 50
0.0
 73
2
 44
1.0
  0
MTEXT
  5
88
100
AcDbEntity
  8
Annotations
 62
256
370
-1
 48
1.0
  6
BYLAYER
100
AcDbMText
 10
29.9999999999993179
 20
-475.0
 30
0.0
 40
5.0
 41
0.0
 71
6
 72
1
  1
\U+9876\U+9762\P\U+ff08\U+65e0\U+52a0\U+5de5\U+ff09
  7
textstyle8
 50
0.0
 73
2
 44
1.0
  0
MTEXT
  5
89
100
AcDbEntity
  8
Annotations
 62
256
370
-1
 48
1.0
  6
BYLAYER
100
AcDbMText
 10
29.9999999999997762
 20
-545.0
 30
0.0
 40
5.0
 41
0.0
 71
6
 72
1
  1
\U+5e95\U+9762\P\U+ff08\U+65e0\U+52a0\U+5de5\U+ff09
  7
textstyle9
 50
0.0
 73
2
 44
1.0
  0
MTEXT
  5
8A
100
AcDbEntity
  8
Annotations
 62
256
370
-1
 48
1.0
  6
BYLAYER
100
AcDbMText
 10
147.0000000000000284
 20
-490.0
 30
0.0
 40
5.0
 41
0.0
 71
6
 72
1
  1
60\U+4fa7
  7
textstyle10
 50
0.0
 73
2
 44
1.0
  0
MTEXT
  5
8B
100
AcDbEntity
  8
Annotations
 62
256
370
-1
 48
1.0
  6
BYLAYER
100
AcDbMText
 10
147.0220348559258241
 20
-544.9132947976877404
 30
0.0
 40
5.0
 41
0.0
 71
6
 72
1
  1
30\U+4fa7\P\U+ff08\U+65e0\U+52a0\U+5de5\U+ff09
  7
textstyle11
 50
0.0
 73
2
 44
1.0
  0
LINE
  5
8C
100
AcDbEntity
  8
0
 62
256
370
-1
 48
1.0
  6
BYLAYER
100
AcDbLine
 10
150.0
 20
-60.0
 30
0.0
 11
375.0
 21
-60.0
 31
0.0
  0
LINE
  5
8D
100
AcDbEntity
  8
0
 62
256
370
-1
 48
1.0
  6
BYLAYER
100
AcDbLine
 10
150.0
 20
-210.0
 30
0.0
 11
375.0
 21
-210.0
 31
0.0
  0
LINE
  5
8E
100
AcDbEntity
  8
0
 62
256
370
-1
 48
1.0
  6
BYLAYER
100
AcDbLine
 10
150.0
 20
-360.0
 30
0.0
 11
278.0
 21
-360.0
 31
0.0
  0
LINE
  5
8F
100
AcDbEntity
  8
0
 62
256
370
-1
 48
1.0
  6
BYLAYER
100
AcDbLine
 10
375.0
 20
-60.0
 30
0.0
 11
375.0
 21
0.0
 31
0.0
  0
LINE
  5
90
100
AcDbEntity
  8
0
 62
256
370
-1
 48
1.0
  6
BYLAYER
100
AcDbLine
 10
375.0
 20
-210.0
 30
0.0
 11
375.0
 21
-150.0
 31
0.0
  0
LINE
  5
91
100
AcDbEntity
  8
0
 62
256
370
-1
 48
1.0
  6
BYLAYER
100
AcDbLine
 10
278.0
 20
-360.0
 30
0.0
 11
278.0
 21
-300.0
 31
0.0
  0
LINE
  5
92
100
AcDbEntity
  8
0
 62
256
370
-1
 48
1.0
  6
BYLAYER
100
AcDbLine
 10
375.0
 20
0.0
 30
0.0
 11
150.0
 21
0.0
 31
0.0
  0
LINE
  5
93
100
AcDbEntity
  8
0
 62
256
370
-1
 48
1.0
  6
BYLAYER
100
AcDbLine
 10
375.0
 20
-150.0
 30
0.0
 11
150.0
 21
-150.0
 31
0.0
  0
LINE
  5
94
100
AcDbEntity
  8
0
 62
256
370
-1
 48
1.0
  6
BYLAYER
100
AcDbLine
 10
278.0
 20
-300.0
 30
0.0
 11
150.0
 21
-300.0
 31
0.0
  0
LINE
  5
95
100
AcDbEntity
  8
0
 62
256
370
-1
 48
1.0
  6
BYLAYER
100
AcDbLine
 10
150.0
 20
0.0
 30
0.0
 11
150.0
 21
-60.0
 31
0.0
  0
LINE
  5
96
100
AcDbEntity
  8
0
 62
256
370
-1
 48
1.0
  6
BYLAYER
100
AcDbLine
 10
150.0
 20
-150.0
 30
0.0
 11
150.0
 21
-210.0
 31
0.0
  0
LINE
  5
97
100
AcDbEntity
  8
0
 62
256
370
-1
 48
1.0
  6
BYLAYER
100
AcDbLine
 10
150.0
 20
-300.0
 30
0.0
 11
150.0
 21
-360.0
 31
0.0
  0
LINE
  5
98
100
AcDbEntity
  8
0
 62
256
370
-1
 48
1.0
  6
BYLAYER
100
AcDbLine
 10
150.0
 20
-100.0
 30
0.0
 11
375.0
 21
-100.0
 31
0.0
  0
LINE
  5
99
100
AcDbEntity
  8
0
 62
256
370
-1
 48
1.0
  6
BYLAYER
100
AcDbLine
 10
150.0
 20
-250.0
 30
0.0
 11
375.0
 21
-250.0
 31
0.0
  0
LINE
  5
9A
100
AcDbEntity
  8
0
 62
256
370
-1
 48
1.0
  6
BYLAYER
100
AcDbLine
 10
150.0
 20
-400.0
 30
0.0
 11
278.0
 21
-400.0
 31
0.0
  0
LINE
  5
9B
100
AcDbEntity
  8
0
 62
256
370
-1
 48
1.0
  6
BYLAYER
100
AcDbLine
 10
150.0
 20
-560.0
 30
0.0
 11
342.0
 21
-560.0
 31
0.0
  0
LINE
  5
9C
100
AcDbEntity
  8
0
 62
256
370
-1
 48
1.0
  6
BYLAYER
100
AcDbLine
 10
375.0
 20
-100.0
 30
0.0
 11
375.0
 21
-70.0
 31
0.0
  0
LINE
  5
9D
100
AcDbEntity
  8
0
 62
256
370
-1
 48
1.0
  6
BYLAYER
100
AcDbLine
 10
375.0
 20
-250.0
 30
0.0
 11
375.0
 21
-220.0
 31
0.0
  0
LINE
  5
9E
100
AcDbEntity
  8
0
 62
256
370
-1
 48
1.0
  6
BYLAYER
100
AcDbLine
 10
278.0
 20
-400.0
 30
0.0
 11
278.0
 21
-370.0
 31
0.0
  0
LINE
  5
9F
100
AcDbEntity
  8
0
 62
256
370
-1
 48
1.0
  6
BYLAYER
100
AcDbLine
 10
342.0
 20
-560.0
 30
0.0
 11
342.0
 21
-530.0
 31
0.0
  0
LINE
  5
A0
100
AcDbEntity
  8
0
 62
256
370
-1
 48
1.0
  6
BYLAYER
100
AcDbLine
 10
375.0
 20
-70.0
 30
0.0
 11
150.0
 21
-70.0
 31
0.0
  0
LINE
  5
A1
100
AcDbEntity
  8
0
 62
256
370
-1
 48
1.0
  6
BYLAYER
100
AcDbLine
 10
375.0
 20
-220.0
 30
0.0
 11
150.0
 21
-220.0
 31
0.0
  0
LINE
  5
A2
100
AcDbEntity
  8
0
 62
256
370
-1
 48
1.0
  6
BYLAYER
100
AcDbLine
 10
278.0
 20
-370.0
 30
0.0
 11
150.0
 21
-370.0
 31
0.0
  0
LINE
  5
A3
100
AcDbEntity
  8
0
 62
256
370
-1
 48
1.0
  6
BYLAYER
100
AcDbLine
 10
342.0
 20
-530.0
 30
0.0
 11
150.0
 21
-530.0
 31
0.0
  0
LINE
  5
A4
100
AcDbEntity
  8
0
 62
256
370
-1
 48
1.0
  6
BYLAYER
100
AcDbLine
 10
150.0
 20
-70.0
 30
0.0
 11
150.0
 21
-100.0
 31
0.0
  0
LINE
  5
A5
100
AcDbEntity
  8
0
 62
256
370
-1
 48
1.0
  6
BYLAYER
100
AcDbLine
 10
150.0
 20
-220.0
 30
0.0
 11
150.0
 21
-250.0
 31
0.0
  0
LINE
  5
A6
100
AcDbEntity
  8
0
 62
256
370
-1
 48
1.0
  6
BYLAYER
100
AcDbLine
 10
150.0
 20
-370.0
 30
0.0
 11
150.0
 21
-400.0
 31
0.0
  0
LINE
  5
A7
100
AcDbEntity
  8
0
 62
256
370
-1
 48
1.0
  6
BYLAYER
100
AcDbLine
 10
150.0
 20
-530.0
 30
0.0
 11
150.0
 21
-560.0
 31
0.0
  0
HATCH
  5
A8
100
AcDbEntity
  8
0
 62
256
370
-1
 48
1.0
  6
BYLAYER
100
AcDbHatch
 10
0.0
 20
0.0
 30
0.0
210
0.0
220
0.0
230
1.0
  2
SOLID
 70
1
 71
0
 91
2
 92
1
 93
4
 72
1
 10
150.0
 20
-60.0
 11
375.0
 21
-60.0
 72
1
 10
375.0
 20
-60.0
 11
375.0
 21
0.0
 72
1
 10
375.0
 20
0.0
 11
150.0
 21
0.0
 72
1
 10
150.0
 20
0.0
 11
150.0
 21
-60.0
 97
0
 92
1
 93
4
 72
1
 10
150.0
 20
-100.0
 11
375.0
 21
-100.0
 72
1
 10
375.0
 20
-100.0
 11
375.0
 21
-70.0
 72
1
 10
375.0
 20
-70.0
 11
150.0
 21
-70.0
 72
1
 10
150.0
 20
-70.0
 11
150.0
 21
-100.0
 97
0
 75
0
 76
1
 98
0
1001
ACAD
1010
0.0
1020
0.0
1030
0
  0
HATCH
  5
A9
100
AcDbEntity
  8
0
 62
256
370
-1
 48
1.0
  6
BYLAYER
100
AcDbHatch
 10
0.0
 20
0.0
 30
0.0
210
0.0
220
0.0
230
1.0
  2
SOLID
 70
1
 71
0
 91
2
 92
1
 93
4
 72
1
 10
150.0
 20
-210.0
 11
375.0
 21
-210.0
 72
1
 10
375.0
 20
-210.0
 11
375.0
 21
-150.0
 72
1
 10
375.0
 20
-150.0
 11
150.0
 21
-150.0
 72
1
 10
150.0
 20
-150.0
 11
150.0
 21
-210.0
 97
0
 92
1
 93
4
 72
1
 10
150.0
 20
-250.0
 11
375.0
 21
-250.0
 72
1
 10
375.0
 20
-250.0
 11
375.0
 21
-220.0
 72
1
 10
375.0
 20
-220.0
 11
150.0
 21
-220.0
 72
1
 10
150.0
 20
-220.0
 11
150.0
 21
-250.0
 97
0
 75
0
 76
1
 98
0
1001
ACAD
1010
0.0
1020
0.0
1030
0
  0
HATCH
  5
AA
100
AcDbEntity
  8
0
 62
256
370
-1
 48
1.0
  6
BYLAYER
100
AcDbHatch
 10
0.0
 20
0.0
 30
0.0
210
0.0
220
0.0
230
1.0
  2
SOLID
 70
1
 71
0
 91
2
 92
1
 93
4
 72
1
 10
278.0
 20
-370.0
 11
150.0
 21
-370.0
 72
1
 10
150.0
 20
-370.0
 11
150.0
 21
-400.0
 72
1
 10
150.0
 20
-400.0
 11
278.0
 21
-400.0
 72
1
 10
278.0
 20
-400.0
 11
278.0
 21
-370.0
 97
0
 92
1
 93
4
 72
1
 10
150.0
 20
-360.0
 11
278.0
 21
-360.0
 72
1
 10
278.0
 20
-360.0
 11
278.0
 21
-300.0
 72
1
 10
278.0
 20
-300.0
 11
150.0
 21
-300.0
 72
1
 10
150.0
 20
-300.0
 11
150.0
 21
-360.0
 97
0
 75
0
 76
1
 98
0
1001
ACAD
1010
0.0
1020
0.0
1030
0
  0
DIMENSION
  5
AB
100
AcDbEntity
  8
Annotations
 62
256
370
-1
 48
1.0
  6
BYLAYER
100
AcDbDimension
 10
150.0
 20
5.0
 30
0.0
 11
262.5
 21
9.5
 31
0.0
 70
1
 71
8
 72
2
 74
0
 75
0
 41
1.0
 42
0.0
  1

  3
Standard
100
AcDbAlignedDimension
 13
150.0
 23
0.0
 33
0.0
 14
375.0
 24
0.0
 34
0.0
1001
ACAD
1000
DSTYLE
1002
{
1070
144
1040
1.0
1070
40
1040
1.0
1002
}
  0
DIMENSION
  5
AC
100
AcDbEntity
  8
Annotations
 62
256
370
-1
 48
1.0
  6
BYLAYER
100
AcDbDimension
 10
150.0
 20
-145.0
 30
0.0
 11
262.5
 21
-140.5
 31
0.0
 70
1
 71
8
 72
2
 74
0
 75
0
 41
1.0
 42
0.0
  1

  3
Standard
100
AcDbAlignedDimension
 13
150.0
 23
-150.0
 33
0.0
 14
375.0
 24
-150.0
 34
0.0
1001
ACAD
1000
DSTYLE
1002
{
1070
144
1040
1.0
1070
40
1040
1.0
1002
}
  0
DIMENSION
  5
AD
100
AcDbEntity
  8
Annotations
 62
256
370
-1
 48
1.0
  6
BYLAYER
100
AcDbDimension
 10
150.0
 20
-295.0
 30
0.0
 11
214.0
 21
-290.5
 31
0.0
 70
1
 71
8
 72
2
 74
0
 75
0
 41
1.0
 42
0.0
  1

  3
Standard
100
AcDbAlignedDimension
 13
150.0
 23
-300.0
 33
0.0
 14
278.0
 24
-300.0
 34
0.0
1001
ACAD
1000
DSTYLE
1002
{
1070
144
1040
1.0
1070
40
1040
1.0
1002
}
  0
DIMENSION
  5
AE
100
AcDbEntity
  8
Annotations
 62
256
370
-1
 48
1.0
  6
BYLAYER
100
AcDbDimension
 10
149.9999999999999147
 20
-440.0000000000001705
 30
0.0
 11
245.9999999999999432
 21
-435.5000000000001137
 31
0.0
 70
1
 71
8
 72
2
 74
0
 75
0
 41
1.0
 42
0.0
  1

  3
Standard
100
AcDbAlignedDimension
 13
149.9999999999999147
 23
-460.0000000000000568
 33
0.0
 14
342.0
 24
-460.0
 34
0.0
1001
ACAD
1000
DSTYLE
1002
{
1070
144
1040
1.0
1070
40
1040
1.0
1002
}
  0
HATCH
  5
AF
100
AcDbEntity
  8
0
 62
256
370
-1
 48
1.0
  6
BYLAYER
100
AcDbHatch
 10
0.0
 20
0.0
 30
0.0
210
0.0
220
0.0
230
1.0
  2
SOLID
 70
1
 71
0
 91
1
 92
1
 93
4
 72
1
 10
342.0
 20
-560.0
 11
342.0
 21
-530.0
 72
1
 10
342.0
 20
-530.0
 11
150.0
 21
-530.0
 72
1
 10
150.0
 20
-530.0
 11
150.0
 21
-560.0
 72
1
 10
150.0
 20
-560.0
 11
342.0
 21
-560.0
 97
0
 75
0
 76
1
 98
0
1001
ACAD
1010
0.0
1020
0.0
1030
0
  0
DIMENSION
  5
B0
100
AcDbEntity
  8
Annotations
 62
256
370
-1
 48
1.0
  6
BYLAYER
100
AcDbDimension
 10
149.9999999999999147
 20
-454.9999999999999432
 30
0.0
 11
157.4999999999998863
 21
-450.4999999999999432
 31
0.0
 70
0
 71
8
 72
2
 74
0
 75
0
 41
1.0
 42
0.0
  1

  3
Standard
100
AcDbAlignedDimension
 13
149.9999999999999147
 23
-460.0000000000000568
 33
0.0
 14
164.9999999999998295
 24
-470.75
 34
0.0
 50
0.0
100
AcDbRotatedDimension
1001
ACAD
1000
DSTYLE
1002
{
1070
144
1040
1.0
1070
40
1040
1.0
1002
}
  0
DIMENSION
  5
B1
100
AcDbEntity
  8
Annotations
 62
256
370
-1
 48
1.0
  6
BYLAYER
100
AcDbDimension
 10
341.9999999999997158
 20
-454.9999999999999432
 30
0.0
 11
334.4999999999998863
 21
-450.4999999999999432
 31
0.0
 70
0
 71
8
 72
2
 74
0
 75
0
 41
1.0
 42
0.0
  1

  3
Standard
100
AcDbAlignedDimension
 13
341.9999999999997158
 23
-460.0000000000002274
 33
0.0
 14
327.0
 24
-470.75
 34
0.0
 50
0.0
100
AcDbRotatedDimension
1001
ACAD
1000
DSTYLE
1002
{
1070
144
1040
1.0
1070
40
1040
1.0
1002
}
  0
DIMENSION
  5
B2
100
AcDbEntity
  8
Annotations
 62
256
370
-1
 48
1.0
  6
BYLAYER
100
AcDbDimension
 10
359.9999999999999432
 20
-475.0000000000000568
 30
0.0
 11
355.4999999999999432
 21
-490.0000000000001137
 31
0.0
 70
0
 71
8
 72
2
 74
0
 75
0
 41
1.0
 42
0.0
  1

  3
Standard
100
AcDbAlignedDimension
 13
337.4999999999998863
 23
-475.0000000000000568
 33
0.0
 14
331.25
 24
-505.0000000000001705
 34
0.0
 50
90.0
100
AcDbRotatedDimension
1001
ACAD
1000
DSTYLE
1002
{
1070
144
1040
1.0
1070
40
1040
1.0
1002
}
  0
DIMENSION
  5
B3
100
AcDbEntity
  8
Annotations
 62
256
370
-1
 48
1.0
  6
BYLAYER
100
AcDbDimension
 10
360.0
 20
-505.0000000000001705
 30
0.0
 11
355.5
 21
-512.5000000000001137
 31
0.0
 70
0
 71
8
 72
2
 74
0
 75
0
 41
1.0
 42
0.0
  1

  3
Standard
100
AcDbAlignedDimension
 13
337.4999999999998295
 23
-505.0000000000001705
 33
0.0
 14
342.0
 24
-520.0
 34
0.0
 50
90.0
100
AcDbRotatedDimension
1001
ACAD
1000
DSTYLE
1002
{
1070
144
1040
1.0
1070
40
1040
1.0
1002
}
  0
LEADER
  5
B4
100
AcDbEntity
  8
Annotations
 62
256
370
90
 48
1.0
  6
BYLAYER
100
AcDbLeader
  3
Standard
 71
1
 72
0
 73
3
 74
0
 75
0
 40
1.0
 41
10.0
 76
2
 10
166.7677669529663547
 20
-476.7677669529663831
 10
175.0
 20
-485.0
1001
ACAD
1000
DSTYLE
1002
{
1070
40
1040
1.0
1002
}
  0
LEADER
  5
B5
100
AcDbEntity
  8
Annotations
 62
256
370
90
 48
1.0
  6
BYLAYER
100
AcDbLeader
  3
Standard
 71
1
 72
0
 73
3
 74
0
 75
0
 40
1.0
 41
10.0
 76
2
 10
166.7677669529663547
 20
-503.2322330470336169
 10
175.0
 20
-495.0
1001
ACAD
1000
DSTYLE
1002
{
1070
40
1040
1.0
1002
}
  0
LEADER
  5
B6
100
AcDbEntity
  8
Annotations
 62
256
370
90
 48
1.0
  6
BYLAYER
100
AcDbLeader
  3
Standard
 71
1
 72
0
 73
3
 74
0
 75
0
 40
1.0
 41
10.0
 76
2
 10
325.2322330470336169
 20
-476.7677669529663831
 10
317.0
 20
-485.0
1001
ACAD
1000
DSTYLE
1002
{
1070
40
1040
1.0
1002
}
  0
LEADER
  5
B7
100
AcDbEntity
  8
Annotations
 62
256
370
90
 48
1.0
  6
BYLAYER
100
AcDbLeader
  3
Standard
 71
1
 72
0
 73
3
 74
0
 75
0
 40
1.0
 41
10.0
 76
2
 10
325.2322330470336169
 20
-503.2322330470336169
 10
317.0
 20
-495.0
1001
ACAD
1000
DSTYLE
1002
{
1070
40
1040
1.0
1002
}
  0
MTEXT
  5
B8
100
AcDbEntity
  8
Annotations
 62
256
370
-1
 48
1.0
  6
BYLAYER
100
AcDbMText
 10
187.9999999999998579
 20
-490.0
 30
0.0
 40
5.0
 41
0.0
 71
5
 72
1
  1
\U+901a\U+5b54\U+23008.5mm
  7
textstyle6
 50
0.0
 73
2
 44
1.0
  0
MTEXT
  5
B9
100
AcDbEntity
  8
Annotations
 62
256
370
-1
 48
1.0
  6
BYLAYER
100
AcDbMText
 10
303.9999999999994884
 20
-490.0000000000003411
 30
0.0
 40
5.0
 41
0.0
 71
5
 72
1
  1
\U+901a\U+5b54\U+23008.5mm
  7
textstyle7
 50
0.0
 73
2
 44
1.0
  0
LINE
  5
BA
100
AcDbEntity
  8
Edges
 62
256
370
-1
 48
1.0
  6
BYLAYER
100
AcDbLine
 10
0.0
 20
20.0
 30
0.0
 11
420.0
 21
20.0
 31
0.0
  0
LINE
  5
BB
100
AcDbEntity
  8
Edges
 62
256
370
-1
 48
1.0
  6
BYLAYER
100
AcDbLine
 10
420.0
 20
20.0
 30
0.0
 11
420.0
 21
-120.0
 31
0.0
  0
LINE
  5
BC
100
AcDbEntity
  8
Edges
 62
256
370
-1
 48
1.0
  6
BYLAYER
100
AcDbLine
 10
420.0
 20
-120.0
 30
0.0
 11
0.0
 21
-120.0
 31
0.0
  0
LINE
  5
BD
100
AcDbEntity
  8
Edges
 62
256
370
-1
 48
1.0
  6
BYLAYER
100
AcDbLine
 10
0.0
 20
-120.0
 30
0.0
 11
0.0
 21
20.0
 31
0.0
  0
LINE
  5
BE
100
AcDbEntity
  8
Edges
 62
256
370
-1
 48
1.0
  6
BYLAYER
100
AcDbLine
 10
420.0
 20
-130.0
 30
0.0
 11
0.0
 21
-130.0
 31
0.0
  0
LINE
  5
BF
100
AcDbEntity
  8
Edges
 62
256
370
-1
 48
1.0
  6
BYLAYER
100
AcDbLine
 10
0.0
 20
-130.0
 30
0.0
 11
0.0
 21
-270.0
 31
0.0
  0
LINE
  5
C0
100
AcDbEntity
  8
Edges
 62
256
370
-1
 48
1.0
  6
BYLAYER
100
AcDbLine
 10
0.0
 20
-270.0
 30
0.0
 11
420.0
 21
-270.0
 31
0.0
  0
LINE
  5
C1
100
AcDbEntity
  8
Edges
 62
256
370
-1
 48
1.0
  6
BYLAYER
100
AcDbLine
 10
420.0
 20
-270.0
 30
0.0
 11
420.0
 21
-130.0
 31
0.0
  0
LINE
  5
C2
100
AcDbEntity
  8
Edges
 62
256
370
-1
 48
1.0
  6
BYLAYER
100
AcDbLine
 10
420.0
 20
-280.0
 30
0.0
 11
0.0
 21
-280.0
 31
0.0
  0
LINE
  5
C3
100
AcDbEntity
  8
Edges
 62
256
370
-1
 48
1.0
  6
BYLAYER
100
AcDbLine
 10
0.0
 20
-280.0
 30
0.0
 11
0.0
 21
-420.0
 31
0.0
  0
LINE
  5
C4
100
AcDbEntity
  8
Edges
 62
256
370
-1
 48
1.0
  6
BYLAYER
100
AcDbLine
 10
0.0
 20
-420.0
 30
0.0
 11
420.0
 21
-420.0
 31
0.0
  0
LINE
  5
C5
100
AcDbEntity
  8
Edges
 62
256
370
-1
 48
1.0
  6
BYLAYER
100
AcDbLine
 10
420.0
 20
-420.0
 30
0.0
 11
420.0
 21
-280.0
 31
0.0
  0
LINE
  5
C6
100
AcDbEntity
  8
Edges
 62
256
370
-1
 48
1.0
  6
BYLAYER
100
AcDbLine
 10
420.0
 20
-430.0
 30
0.0
 11
0.0
 21
-430.0
 31
0.0
  0
LINE
  5
C7
100
AcDbEntity
  8
Edges
 62
256
370
-1
 48
1.0
  6
BYLAYER
100
AcDbLine
 10
0.0
 20
-430.0
 30
0.0
 11
0.0
 21
-570.0
 31
0.0
  0
LINE
  5
C8
100
AcDbEntity
  8
Edges
 62
256
370
-1
 48
1.0
  6
BYLAYER
100
AcDbLine
 10
0.0
 20
-570.0
 30
0.0
 11
420.0
 21
-570.0
 31
0.0
  0
LINE
  5
C9
100
AcDbEntity
  8
Edges
 62
256
370
-1
 48
1.0
  6
BYLAYER
100
AcDbLine
 10
420.0
 20
-570.0
 30
0.0
 11
420.0
 21
-430.0
 31
0.0
  0
DIMENSION
  5
CA
100
AcDbEntity
  8
Annotations
 62
256
370
-1
 48
1.0
  6
BYLAYER
100
AcDbDimension
 10
359.9999999999999432
 20
-460.0
 30
0.0
 11
355.4999999999999432
 21
-467.5
 31
0.0
 70
0
 71
8
 72
2
 74
0
 75
0
 41
1.0
 42
0.0
  1

  3
Standard
100
AcDbAlignedDimension
 13
342.0
 23
-460.0
 33
0.0
 14
331.25
 24
-475.0
 34
0.0
 50
90.0
100
AcDbRotatedDimension
1001
ACAD
1000
DSTYLE
1002
{
1070
144
1040
1.0
1070
40
1040
1.0
1002
}
  0
LINE
  5
CB
100
AcDbEntity
  8
0
 62
256
370
-1
 48
1.0
  6
BYLAYER
100
AcDbLine
 10
29.9999999999999929
 20
-30.0
 30
0.0
 11
29.9999999999999929
 21
-18.1500000000000057
 31
0.0
  0
LINE
  5
CC
100
AcDbEntity
  8
0
 62
256
370
-1
 48
1.0
  6
BYLAYER
100
AcDbLine
 10
29.9999999999999929
 20
-11.8499999999999943
 30
0.0
 11
29.9999999999999929
 21
0.0
 31
0.0
  0
LINE
  5
CD
100
AcDbEntity
  8
0
 62
256
370
-1
 48
1.0
  6
BYLAYER
100
AcDbLine
 10
90.0
 20
-18.1500000000000199
 30
0.0
 11
90.0
 21
-29.9999999999999716
 31
0.0
  0
LINE
  5
CE
100
AcDbEntity
  8
0
 62
256
370
-1
 48
1.0
  6
BYLAYER
100
AcDbLine
 10
90.0
 20
-0.0000000000000284
 30
0.0
 11
90.0
 21
-11.8499999999999943
 31
0.0
  0
LINE
  5
CF
100
AcDbEntity
  8
0
 62
256
370
-1
 48
1.0
  6
BYLAYER
100
AcDbLine
 10
29.9999999999999929
 20
-100.0
 30
0.0
 11
29.9999999999999929
 21
-88.1500000000000057
 31
0.0
  0
LINE
  5
D0
100
AcDbEntity
  8
0
 62
256
370
-1
 48
1.0
  6
BYLAYER
100
AcDbLine
 10
29.9999999999999929
 20
-81.8499999999999943
 30
0.0
 11
29.9999999999999929
 21
-70.0
 31
0.0
  0
LINE
  5
D1
100
AcDbEntity
  8
0
 62
256
370
-1
 48
1.0
  6
BYLAYER
100
AcDbLine
 10
90.0
 20
-88.1500000000000199
 30
0.0
 11
90.0
 21
-99.9999999999999716
 31
0.0
  0
LINE
  5
D2
100
AcDbEntity
  8
0
 62
256
370
-1
 48
1.0
  6
BYLAYER
100
AcDbLine
 10
90.0
 20
-70.0000000000000284
 30
0.0
 11
90.0
 21
-81.8499999999999943
 31
0.0
  0
LINE
  5
D3
100
AcDbEntity
  8
0
 62
256
370
-1
 48
1.0
  6
BYLAYER
100
AcDbLine
 10
29.9999999999999929
 20
-180.0
 30
0.0
 11
29.9999999999999929
 21
-168.1500000000000057
 31
0.0
  0
LINE
  5
D4
100
AcDbEntity
  8
0
 62
256
370
-1
 48
1.0
  6
BYLAYER
100
AcDbLine
 10
29.9999999999999929
 20
-161.8499999999999943
 30
0.0
 11
29.9999999999999929
 21
-150.0
 31
0.0
  0
LINE
  5
D5
100
AcDbEntity
  8
0
 62
256
370
-1
 48
1.0
  6
BYLAYER
100
AcDbLine
 10
90.0
 20
-168.1500000000000341
 30
0.0
 11
90.0
 21
-179.9999999999999716
 31
0.0
  0
LINE
  5
D6
100
AcDbEntity
  8
0
 62
256
370
-1
 48
1.0
  6
BYLAYER
100
AcDbLine
 10
90.0
 20
-150.0000000000000284
 30
0.0
 11
90.0
 21
-161.8499999999999943
 31
0.0
  0
LINE
  5
D7
100
AcDbEntity
  8
0
 62
256
370
-1
 48
1.0
  6
BYLAYER
100
AcDbLine
 10
29.9999999999999929
 20
-250.0
 30
0.0
 11
29.9999999999999929
 21
-238.1500000000000057
 31
0.0
  0
LINE
  5
D8
100
AcDbEntity
  8
0
 62
256
370
-1
 48
1.0
  6
BYLAYER
100
AcDbLine
 10
29.9999999999999929
 20
-231.8499999999999943
 30
0.0
 11
29.9999999999999929
 21
-220.0
 31
0.0
  0
LINE
  5
D9
100
AcDbEntity
  8
0
 62
256
370
-1
 48
1.0
  6
BYLAYER
100
AcDbLine
 10
90.0
 20
-238.1500000000000341
 30
0.0
 11
90.0
 21
-249.9999999999999716
 31
0.0
  0
LINE
  5
DA
100
AcDbEntity
  8
0
 62
256
370
-1
 48
1.0
  6
BYLAYER
100
AcDbLine
 10
90.0
 20
-220.0000000000000284
 30
0.0
 11
90.0
 21
-231.8499999999999943
 31
0.0
  0
LINE
  5
DB
100
AcDbEntity
  8
0
 62
256
370
-1
 48
1.0
  6
BYLAYER
100
AcDbLine
 10
29.9999999999999929
 20
-330.0
 30
0.0
 11
29.9999999999999929
 21
-318.1499999999999773
 31
0.0
  0
LINE
  5
DC
100
AcDbEntity
  8
0
 62
256
370
-1
 48
1.0
  6
BYLAYER
100
AcDbLine
 10
29.9999999999999929
 20
-311.8500000000000227
 30
0.0
 11
29.9999999999999929
 21
-300.0
 31
0.0
  0
LINE
  5
DD
100
AcDbEntity
  8
0
 62
256
370
-1
 48
1.0
  6
BYLAYER
100
AcDbLine
 10
90.0
 20
-318.1500000000000341
 30
0.0
 11
90.0
 21
-330.0
 31
0.0
  0
LINE
  5
DE
100
AcDbEntity
  8
0
 62
256
370
-1
 48
1.0
  6
BYLAYER
100
AcDbLine
 10
90.0
 20
-300.0
 30
0.0
 11
90.0
 21
-311.8500000000000227
 31
0.0
  0
LINE
  5
DF
100
AcDbEntity
  8
0
 62
256
370
-1
 48
1.0
  6
BYLAYER
100
AcDbLine
 10
29.9999999999999929
 20
-400.0
 30
0.0
 11
29.9999999999999929
 21
-388.1499999999999773
 31
0.0
  0
LINE
  5
E0
100
AcDbEntity
  8
0
 62
256
370
-1
 48
1.0
  6
BYLAYER
100
AcDbLine
 10
29.9999999999999929
 20
-381.8500000000000227
 30
0.0
 11
29.9999999999999929
 21
-370.0
 31
0.0
  0
LINE
  5
E1
100
AcDbEntity
  8
0
 62
256
370
-1
 48
1.0
  6
BYLAYER
100
AcDbLine
 10
90.0
 20
-388.1500000000000341
 30
0.0
 11
90.0
 21
-400.0
 31
0.0
  0
LINE
  5
E2
100
AcDbEntity
  8
0
 62
256
370
-1
 48
1.0
  6
BYLAYER
100
AcDbLine
 10
90.0
 20
-370.0
 30
0.0
 11
90.0
 21
-381.8500000000000227
 31
0.0
  0
LINE
  5
E3
100
AcDbEntity
  8
0
 62
256
370
-1
 48
1.0
  6
BYLAYER
100
AcDbLine
 10
29.9999999999999929
 20
-490.0
 30
0.0
 11
29.9999999999999929
 21
-478.1499999999999773
 31
0.0
  0
LINE
  5
E4
100
AcDbEntity
  8
0
 62
256
370
-1
 48
1.0
  6
BYLAYER
100
AcDbLine
 10
29.9999999999999929
 20
-471.8500000000000227
 30
0.0
 11
29.9999999999999929
 21
-460.0
 31
0.0
  0
LINE
  5
E5
100
AcDbEntity
  8
0
 62
256
370
-1
 48
1.0
  6
BYLAYER
100
AcDbLine
 10
90.0
 20
-478.1500000000000341
 30
0.0
 11
90.0
 21
-490.0
 31
0.0
  0
LINE
  5
E6
100
AcDbEntity
  8
0
 62
256
370
-1
 48
1.0
  6
BYLAYER
100
AcDbLine
 10
90.0
 20
-460.0
 30
0.0
 11
90.0
 21
-471.8500000000000227
 31
0.0
  0
LINE
  5
E7
100
AcDbEntity
  8
0
 62
256
370
-1
 48
1.0
  6
BYLAYER
100
AcDbLine
 10
29.9999999999999929
 20
-560.0
 30
0.0
 11
29.9999999999999929
 21
-548.1499999999999773
 31
0.0
  0
LINE
  5
E8
100
AcDbEntity
  8
0
 62
256
370
-1
 48
1.0
  6
BYLAYER
100
AcDbLine
 10
29.9999999999999929
 20
-541.8500000000000227
 30
0.0
 11
29.9999999999999929
 21
-530.0
 31
0.0
  0
LINE
  5
E9
100
AcDbEntity
  8
0
 62
256
370
-1
 48
1.0
  6
BYLAYER
100
AcDbLine
 10
90.0
 20
-548.1499999999999773
 30
0.0
 11
90.0
 21
-560.0
 31
0.0
  0
LINE
  5
EA
100
AcDbEntity
  8
0
 62
256
370
-1
 48
1.0
  6
BYLAYER
100
AcDbLine
 10
90.0
 20
-530.0
 30
0.0
 11
90.0
 21
-541.8500000000000227
 31
0.0
  0
LINE
  5
EB
100
AcDbEntity
  8
0
 62
256
370
-1
 48
1.0
  6
BYLAYER
100
AcDbLine
 10
29.9999999999999929
 20
0.0
 30
0.0
 11
41.8499999999999943
 21
0.0
 31
0.0
  0
LINE
  5
EC
100
AcDbEntity
  8
0
 62
256
370
-1
 48
1.0
  6
BYLAYER
100
AcDbLine
 10
90.0
 20
-29.9999999999999716
 30
0.0
 11
78.1500000000000057
 21
-30.0
 31
0.0
  0
LINE
  5
ED
100
AcDbEntity
  8
0
 62
256
370
-1
 48
1.0
  6
BYLAYER
100
AcDbLine
 10
29.9999999999999929
 20
-70.0
 30
0.0
 11
41.8499999999999943
 21
-70.0
 31
0.0
  0
LINE
  5
EE
100
AcDbEntity
  8
0
 62
256
370
-1
 48
1.0
  6
BYLAYER
100
AcDbLine
 10
90.0
 20
-99.9999999999999716
 30
0.0
 11
78.1500000000000057
 21
-100.0
 31
0.0
  0
LINE
  5
EF
100
AcDbEntity
  8
0
 62
256
370
-1
 48
1.0
  6
BYLAYER
100
AcDbLine
 10
29.9999999999999929
 20
-150.0
 30
0.0
 11
41.8499999999999943
 21
-150.0
 31
0.0
  0
LINE
  5
F0
100
AcDbEntity
  8
0
 62
256
370
-1
 48
1.0
  6
BYLAYER
100
AcDbLine
 10
90.0
 20
-179.9999999999999716
 30
0.0
 11
78.1500000000000057
 21
-180.0
 31
0.0
  0
LINE
  5
F1
100
AcDbEntity
  8
0
 62
256
370
-1
 48
1.0
  6
BYLAYER
100
AcDbLine
 10
29.9999999999999929
 20
-220.0
 30
0.0
 11
41.8499999999999943
 21
-220.0
 31
0.0
  0
LINE
  5
F2
100
AcDbEntity
  8
0
 62
256
370
-1
 48
1.0
  6
BYLAYER
100
AcDbLine
 10
90.0
 20
-249.9999999999999716
 30
0.0
 11
78.1500000000000057
 21
-250.0
 31
0.0
  0
LINE
  5
F3
100
AcDbEntity
  8
0
 62
256
370
-1
 48
1.0
  6
BYLAYER
100
AcDbLine
 10
29.9999999999999929
 20
-300.0
 30
0.0
 11
41.8499999999999943
 21
-300.0
 31
0.0
  0
LINE
  5
F4
100
AcDbEntity
  8
0
 62
256
370
-1
 48
1.0
  6
BYLAYER
100
AcDbLine
 10
90.0
 20
-330.0
 30
0.0
 11
78.1500000000000057
 21
-330.0
 31
0.0
  0
LINE
  5
F5
100
AcDbEntity
  8
0
 62
256
370
-1
 48
1.0
  6
BYLAYER
100
AcDbLine
 10
29.9999999999999929
 20
-370.0
 30
0.0
 11
41.8499999999999943
 21
-370.0
 31
0.0
  0
LINE
  5
F6
100
AcDbEntity
  8
0
 62
256
370
-1
 48
1.0
  6
BYLAYER
100
AcDbLine
 10
90.0
 20
-400.0
 30
0.0
 11
78.1500000000000057
 21
-400.0
 31
0.0
  0
LINE
  5
F7
100
AcDbEntity
  8
0
 62
256
370
-1
 48
1.0
  6
BYLAYER
100
AcDbLine
 10
29.9999999999999929
 20
-460.0
 30
0.0
 11
41.8499999999999943
 21
-460.0
 31
0.0
  0
LINE
  5
F8
100
AcDbEntity
  8
0
 62
256
370
-1
 48
1.0
  6
BYLAYER
100
AcDbLine
 10
90.0
 20
-490.0
 30
0.0
 11
78.1500000000000057
 21
-490.0
 31
0.0
  0
LINE
  5
F9
100
AcDbEntity
  8
0
 62
256
370
-1
 48
1.0
  6
BYLAYER
100
AcDbLine
 10
29.9999999999999929
 20
-530.0
 30
0.0
 11
41.8499999999999943
 21
-530.0
 31
0.0
  0
LINE
  5
FA
100
AcDbEntity
  8
0
 62
256
370
-1
 48
1.0
  6
BYLAYER
100
AcDbLine
 10
90.0
 20
-560.0
 30
0.0
 11
78.1500000000000057
 21
-560.0
 31
0.0
  0
LINE
  5
FB
100
AcDbEntity
  8
0
 62
256
370
-1
 48
1.0
  6
BYLAYER
100
AcDbLine
 10
41.8499999999999943
 20
-30.0
 30
0.0
 11
29.9999999999999929
 21
-30.0
 31
0.0
  0
LINE
  5
FC
100
AcDbEntity
  8
0
 62
256
370
-1
 48
1.0
  6
BYLAYER
100
AcDbLine
 10
78.1500000000000057
 20
-0.0000000000000142
 30
0.0
 11
90.0
 21
-0.0000000000000284
 31
0.0
  0
LINE
  5
FD
100
AcDbEntity
  8
0
 62
256
370
-1
 48
1.0
  6
BYLAYER
100
AcDbLine
 10
41.8499999999999943
 20
-100.0
 30
0.0
 11
29.9999999999999929
 21
-100.0
 31
0.0
  0
LINE
  5
FE
100
AcDbEntity
  8
0
 62
256
370
-1
 48
1.0
  6
BYLAYER
100
AcDbLine
 10
78.1500000000000057
 20
-70.0000000000000142
 30
0.0
 11
90.0
 21
-70.0000000000000284
 31
0.0
  0
LINE
  5
FF
100
AcDbEntity
  8
0
 62
256
370
-1
 48
1.0
  6
BYLAYER
100
AcDbLine
 10
41.8499999999999943
 20
-180.0
 30
0.0
 11
29.9999999999999929
 21
-180.0
 31
0.0
  0
LINE
  5
100
100
AcDbEntity
  8
0
 62
256
370
-1
 48
1.0
  6
BYLAYER
100
AcDbLine
 10
78.1500000000000057
 20
-150.0
 30
0.0
 11
90.0
 21
-150.0000000000000284
 31
0.0
  0
LINE
  5
101
100
AcDbEntity
  8
0
 62
256
370
-1
 48
1.0
  6
BYLAYER
100
AcDbLine
 10
41.8499999999999943
 20
-250.0
 30
0.0
 11
29.9999999999999929
 21
-250.0
 31
0.0
  0
LINE
  5
102
100
AcDbEntity
  8
0
 62
256
370
-1
 48
1.0
  6
BYLAYER
100
AcDbLine
 10
78.1500000000000057
 20
-220.0
 30
0.0
 11
90.0
 21
-220.0000000000000284
 31
0.0
  0
LINE
  5
103
100
AcDbEntity
  8
0
 62
256
370
-1
 48
1.0
  6
BYLAYER
100
AcDbLine
 10
41.8499999999999943
 20
-330.0
 30
0.0
 11
29.9999999999999929
 21
-330.0
 31
0.0
  0
LINE
  5
104
100
AcDbEntity
  8
0
 62
256
370
-1
 48
1.0
  6
BYLAYER
100
AcDbLine
 10
78.1500000000000057
 20
-300.0
 30
0.0
 11
90.0
 21
-300.0
 31
0.0
  0
LINE
  5
105
100
AcDbEntity
  8
0
 62
256
370
-1
 48
1.0
  6
BYLAYER
100
AcDbLine
 10
41.8499999999999943
 20
-400.0
 30
0.0
 11
29.9999999999999929
 21
-400.0
 31
0.0
  0
LINE
  5
106
100
AcDbEntity
  8
0
 62
256
370
-1
 48
1.0
  6
BYLAYER
100
AcDbLine
 10
78.1500000000000057
 20
-370.0
 30
0.0
 11
90.0
 21
-370.0
 31
0.0
  0
LINE
  5
107
100
AcDbEntity
  8
0
 62
256
370
-1
 48
1.0
  6
BYLAYER
100
AcDbLine
 10
41.8499999999999943
 20
-490.0
 30
0.0
 11
29.9999999999999929
 21
-490.0
 31
0.0
  0
LINE
  5
108
100
AcDbEntity
  8
0
 62
256
370
-1
 48
1.0
  6
BYLAYER
100
AcDbLine
 10
78.1500000000000057
 20
-460.0
 30
0.0
 11
90.0
 21
-460.0
 31
0.0
  0
LINE
  5
109
100
AcDbEntity
  8
0
 62
256
370
-1
 48
1.0
  6
BYLAYER
100
AcDbLine
 10
41.8499999999999943
 20
-560.0
 30
0.0
 11
29.9999999999999929
 21
-560.0
 31
0.0
  0
LINE
  5
10A
100
AcDbEntity
  8
0
 62
256
370
-1
 48
1.0
  6
BYLAYER
100
AcDbLine
 10
78.1500000000000057
 20
-530.0
 30
0.0
 11
90.0
 21
-530.0
 31
0.0
  0
LINE
  5
10B
100
AcDbEntity
  8
0
 62
256
370
-1
 48
1.0
  6
BYLAYER
100
AcDbLine
 10
48.1499999999999915
 20
0.0
 30
0.0
 11
48.1499999999999915
 21
-4.0
 31
0.0
  0
LINE
  5
10C
100
AcDbEntity
  8
0
 62
256
370
-1
 48
1.0
  6
BYLAYER
100
AcDbLine
 10
29.9999999999999929
 20
-11.8499999999999943
 30
0.0
 11
33.9999999999999929
 21
-11.8499999999999943
 31
0.0
  0
LINE
  5
10D
100
AcDbEntity
  8
0
 62
256
370
-1
 48
1.0
  6
BYLAYER
100
AcDbLine
 10
41.8499999999999872
 20
-30.0
 30
0.0
 11
41.8499999999999872
 21
-26.0
 31
0.0
  0
LINE
  5
10E
100
AcDbEntity
  8
0
 62
256
370
-1
 48
1.0
  6
BYLAYER
100
AcDbLine
 10
78.1500000000000057
 20
0.0
 30
0.0
 11
78.1500000000000057
 21
-4.0000000000000142
 31
0.0
  0
LINE
  5
10F
100
AcDbEntity
  8
0
 62
256
370
-1
 48
1.0
  6
BYLAYER
100
AcDbLine
 10
90.0
 20
-18.1500000000000199
 30
0.0
 11
86.0
 21
-18.1500000000000057
 31
0.0
  0
LINE
  5
110
100
AcDbEntity
  8
0
 62
256
370
-1
 48
1.0
  6
BYLAYER
100
AcDbLine
 10
71.8499999999999943
 20
-30.0
 30
0.0
 11
71.8499999999999943
 21
-26.0
 31
0.0
  0
LINE
  5
111
100
AcDbEntity
  8
0
 62
256
370
-1
 48
1.0
  6
BYLAYER
100
AcDbLine
 10
48.1499999999999915
 20
-70.0
 30
0.0
 11
48.1499999999999915
 21
-74.0
 31
0.0
  0
LINE
  5
112
100
AcDbEntity
  8
0
 62
256
370
-1
 48
1.0
  6
BYLAYER
100
AcDbLine
 10
29.9999999999999929
 20
-81.8499999999999943
 30
0.0
 11
33.9999999999999929
 21
-81.8499999999999943
 31
0.0
  0
LINE
  5
113
100
AcDbEntity
  8
0
 62
256
370
-1
 48
1.0
  6
BYLAYER
100
AcDbLine
 10
41.8499999999999872
 20
-100.0
 30
0.0
 11
41.8499999999999872
 21
-96.0
 31
0.0
  0
LINE
  5
114
100
AcDbEntity
  8
0
 62
256
370
-1
 48
1.0
  6
BYLAYER
100
AcDbLine
 10
78.1500000000000057
 20
-70.0
 30
0.0
 11
78.1500000000000057
 21
-74.0000000000000142
 31
0.0
  0
LINE
  5
115
100
AcDbEntity
  8
0
 62
256
370
-1
 48
1.0
  6
BYLAYER
100
AcDbLine
 10
90.0
 20
-88.1500000000000199
 30
0.0
 11
86.0
 21
-88.1500000000000057
 31
0.0
  0
LINE
  5
116
100
AcDbEntity
  8
0
 62
256
370
-1
 48
1.0
  6
BYLAYER
100
AcDbLine
 10
71.8499999999999943
 20
-100.0
 30
0.0
 11
71.8499999999999943
 21
-96.0
 31
0.0
  0
LINE
  5
117
100
AcDbEntity
  8
0
 62
256
370
-1
 48
1.0
  6
BYLAYER
100
AcDbLine
 10
48.1499999999999915
 20
-150.0
 30
0.0
 11
48.1499999999999915
 21
-154.0
 31
0.0
  0
LINE
  5
118
100
AcDbEntity
  8
0
 62
256
370
-1
 48
1.0
  6
BYLAYER
100
AcDbLine
 10
29.9999999999999929
 20
-161.8499999999999943
 30
0.0
 11
33.9999999999999929
 21
-161.8499999999999943
 31
0.0
  0
LINE
  5
119
100
AcDbEntity
  8
0
 62
256
370
-1
 48
1.0
  6
BYLAYER
100
AcDbLine
 10
41.8499999999999872
 20
-180.0
 30
0.0
 11
41.8499999999999872
 21
-176.0
 31
0.0
  0
LINE
  5
11A
100
AcDbEntity
  8
0
 62
256
370
-1
 48
1.0
  6
BYLAYER
100
AcDbLine
 10
78.1500000000000057
 20
-150.0
 30
0.0
 11
78.1500000000000057
 21
-154.0
 31
0.0
  0
LINE
  5
11B
100
AcDbEntity
  8
0
 62
256
370
-1
 48
1.0
  6
BYLAYER
100
AcDbLine
 10
90.0
 20
-168.1500000000000341
 30
0.0
 11
86.0
 21
-168.1500000000000057
 31
0.0
  0
LINE
  5
11C
100
AcDbEntity
  8
0
 62
256
370
-1
 48
1.0
  6
BYLAYER
100
AcDbLine
 10
71.8499999999999943
 20
-180.0
 30
0.0
 11
71.8499999999999943
 21
-176.0
 31
0.0
  0
LINE
  5
11D
100
AcDbEntity
  8
0
 62
256
370
-1
 48
1.0
  6
BYLAYER
100
AcDbLine
 10
48.1499999999999915
 20
-220.0
 30
0.0
 11
48.1499999999999915
 21
-224.0
 31
0.0
  0
LINE
  5
11E
100
AcDbEntity
  8
0
 62
256
370
-1
 48
1.0
  6
BYLAYER
100
AcDbLine
 10
29.9999999999999929
 20
-231.8499999999999943
 30
0.0
 11
33.9999999999999929
 21
-231.8499999999999943
 31
0.0
  0
LINE
  5
11F
100
AcDbEntity
  8
0
 62
256
370
-1
 48
1.0
  6
BYLAYER
100
AcDbLine
 10
41.8499999999999872
 20
-250.0
 30
0.0
 11
41.8499999999999872
 21
-246.0
 31
0.0
  0
LINE
  5
120
100
AcDbEntity
  8
0
 62
256
370
-1
 48
1.0
  6
BYLAYER
100
AcDbLine
 10
78.1500000000000057
 20
-220.0
 30
0.0
 11
78.1500000000000057
 21
-224.0
 31
0.0
  0
LINE
  5
121
100
AcDbEntity
  8
0
 62
256
370
-1
 48
1.0
  6
BYLAYER
100
AcDbLine
 10
90.0
 20
-238.1500000000000341
 30
0.0
 11
86.0
 21
-238.1500000000000057
 31
0.0
  0
LINE
  5
122
100
AcDbEntity
  8
0
 62
256
370
-1
 48
1.0
  6
BYLAYER
100
AcDbLine
 10
71.8499999999999943
 20
-250.0
 30
0.0
 11
71.8499999999999943
 21
-246.0
 31
0.0
  0
LINE
  5
123
100
AcDbEntity
  8
0
 62
256
370
-1
 48
1.0
  6
BYLAYER
100
AcDbLine
 10
48.1499999999999915
 20
-300.0
 30
0.0
 11
48.1499999999999915
 21
-304.0
 31
0.0
  0
LINE
  5
124
100
AcDbEntity
  8
0
 62
256
370
-1
 48
1.0
  6
BYLAYER
100
AcDbLine
 10
29.9999999999999929
 20
-311.8500000000000227
 30
0.0
 11
33.9999999999999929
 21
-311.8500000000000227
 31
0.0
  0
LINE
  5
125
100
AcDbEntity
  8
0
 62
256
370
-1
 48
1.0
  6
BYLAYER
100
AcDbLine
 10
41.8499999999999872
 20
-330.0
 30
0.0
 11
41.8499999999999872
 21
-326.0
 31
0.0
  0
LINE
  5
126
100
AcDbEntity
  8
0
 62
256
370
-1
 48
1.0
  6
BYLAYER
100
AcDbLine
 10
78.1500000000000057
 20
-300.0
 30
0.0
 11
78.1500000000000057
 21
-304.0
 31
0.0
  0
LINE
  5
127
100
AcDbEntity
  8
0
 62
256
370
-1
 48
1.0
  6
BYLAYER
100
AcDbLine
 10
90.0
 20
-318.1500000000000341
 30
0.0
 11
86.0
 21
-318.1499999999999773
 31
0.0
  0
LINE
  5
128
100
AcDbEntity
  8
0
 62
256
370
-1
 48
1.0
  6
BYLAYER
100
AcDbLine
 10
71.8499999999999943
 20
-330.0
 30
0.0
 11
71.8499999999999943
 21
-326.0
 31
0.0
  0
LINE
  5
129
100
AcDbEntity
  8
0
 62
256
370
-1
 48
1.0
  6
BYLAYER
100
AcDbLine
 10
48.1499999999999915
 20
-370.0
 30
0.0
 11
48.1499999999999915
 21
-374.0
 31
0.0
  0
LINE
  5
12A
100
AcDbEntity
  8
0
 62
256
370
-1
 48
1.0
  6
BYLAYER
100
AcDbLine
 10
29.9999999999999929
 20
-381.8500000000000227
 30
0.0
 11
33.9999999999999929
 21
-381.8500000000000227
 31
0.0
  0
LINE
  5
12B
100
AcDbEntity
  8
0
 62
256
370
-1
 48
1.0
  6
BYLAYER
100
AcDbLine
 10
41.8499999999999872
 20
-400.0
 30
0.0
 11
41.8499999999999872
 21
-396.0
 31
0.0
  0
LINE
  5
12C
100
AcDbEntity
  8
0
 62
256
370
-1
 48
1.0
  6
BYLAYER
100
AcDbLine
 10
78.1500000000000057
 20
-370.0
 30
0.0
 11
78.1500000000000057
 21
-374.0
 31
0.0
  0
LINE
  5
12D
100
AcDbEntity
  8
0
 62
256
370
-1
 48
1.0
  6
BYLAYER
100
AcDbLine
 10
90.0
 20
-388.1500000000000341
 30
0.0
 11
86.0
 21
-388.1499999999999773
 31
0.0
  0
LINE
  5
12E
100
AcDbEntity
  8
0
 62
256
370
-1
 48
1.0
  6
BYLAYER
100
AcDbLine
 10
71.8499999999999943
 20
-400.0
 30
0.0
 11
71.8499999999999943
 21
-396.0
 31
0.0
  0
LINE
  5
12F
100
AcDbEntity
  8
0
 62
256
370
-1
 48
1.0
  6
BYLAYER
100
AcDbLine
 10
48.1499999999999915
 20
-460.0
 30
0.0
 11
48.1499999999999915
 21
-464.0
 31
0.0
  0
LINE
  5
130
100
AcDbEntity
  8
0
 62
256
370
-1
 48
1.0
  6
BYLAYER
100
AcDbLine
 10
29.9999999999999929
 20
-471.8500000000000227
 30
0.0
 11
33.9999999999999929
 21
-471.8500000000000227
 31
0.0
  0
LINE
  5
131
100
AcDbEntity
  8
0
 62
256
370
-1
 48
1.0
  6
BYLAYER
100
AcDbLine
 10
41.8499999999999872
 20
-490.0
 30
0.0
 11
41.8499999999999872
 21
-486.0
 31
0.0
  0
LINE
  5
132
100
AcDbEntity
  8
0
 62
256
370
-1
 48
1.0
  6
BYLAYER
100
AcDbLine
 10
78.1500000000000057
 20
-460.0
 30
0.0
 11
78.1500000000000057
 21
-464.0
 31
0.0
  0
LINE
  5
133
100
AcDbEntity
  8
0
 62
256
370
-1
 48
1.0
  6
BYLAYER
100
AcDbLine
 10
90.0
 20
-478.1500000000000341
 30
0.0
 11
86.0
 21
-478.1500000000000341
 31
0.0
  0
LINE
  5
134
100
AcDbEntity
  8
0
 62
256
370
-1
 48
1.0
  6
BYLAYER
100
AcDbLine
 10
71.8499999999999943
 20
-490.0
 30
0.0
 11
71.8499999999999943
 21
-486.0
 31
0.0
  0
LINE
  5
135
100
AcDbEntity
  8
0
 62
256
370
-1
 48
1.0
  6
BYLAYER
100
AcDbLine
 10
48.1499999999999915
 20
-530.0
 30
0.0
 11
48.1499999999999915
 21
-534.0
 31
0.0
  0
LINE
  5
136
100
AcDbEntity
  8
0
 62
256
370
-1
 48
1.0
  6
BYLAYER
100
AcDbLine
 10
29.9999999999999929
 20
-541.8500000000000227
 30
0.0
 11
33.9999999999999929
 21
-541.8500000000000227
 31
0.0
  0
LINE
  5
137
100
AcDbEntity
  8
0
 62
256
370
-1
 48
1.0
  6
BYLAYER
100
AcDbLine
 10
41.8499999999999872
 20
-560.0
 30
0.0
 11
41.8499999999999872
 21
-556.0
 31
0.0
  0
LINE
  5
138
100
AcDbEntity
  8
0
 62
256
370
-1
 48
1.0
  6
BYLAYER
100
AcDbLine
 10
78.1500000000000057
 20
-530.0
 30
0.0
 11
78.1500000000000057
 21
-534.0
 31
0.0
  0
LINE
  5
139
100
AcDbEntity
  8
0
 62
256
370
-1
 48
1.0
  6
BYLAYER
100
AcDbLine
 10
90.0
 20
-548.1499999999999773
 30
0.0
 11
86.0
 21
-548.1499999999999773
 31
0.0
  0
LINE
  5
13A
100
AcDbEntity
  8
0
 62
256
370
-1
 48
1.0
  6
BYLAYER
100
AcDbLine
 10
71.8499999999999943
 20
-560.0
 30
0.0
 11
71.8499999999999943
 21
-556.0
 31
0.0
  0
LINE
  5
13B
100
AcDbEntity
  8
0
 62
256
370
-1
 48
1.0
  6
BYLAYER
100
AcDbLine
 10
29.9999999999999929
 20
-18.1500000000000057
 30
0.0
 11
33.9999999999999929
 21
-18.1500000000000057
 31
0.0
  0
LINE
  5
13C
100
AcDbEntity
  8
0
 62
256
370
-1
 48
1.0
  6
BYLAYER
100
AcDbLine
 10
48.1499999999999915
 20
-30.0
 30
0.0
 11
48.1499999999999915
 21
-26.0
 31
0.0
  0
LINE
  5
13D
100
AcDbEntity
  8
0
 62
256
370
-1
 48
1.0
  6
BYLAYER
100
AcDbLine
 10
41.8500000000000085
 20
0.0
 30
0.0
 11
41.8499999999999943
 21
-4.0
 31
0.0
  0
LINE
  5
13E
100
AcDbEntity
  8
0
 62
256
370
-1
 48
1.0
  6
BYLAYER
100
AcDbLine
 10
71.8499999999999943
 20
0.0
 30
0.0
 11
71.8499999999999943
 21
-4.0
 31
0.0
  0
LINE
  5
13F
100
AcDbEntity
  8
0
 62
256
370
-1
 48
1.0
  6
BYLAYER
100
AcDbLine
 10
90.0
 20
-11.8499999999999943
 30
0.0
 11
86.0
 21
-11.8499999999999943
 31
0.0
  0
LINE
  5
140
100
AcDbEntity
  8
0
 62
256
370
-1
 48
1.0
  6
BYLAYER
100
AcDbLine
 10
78.1500000000000057
 20
-30.0
 30
0.0
 11
78.1500000000000057
 21
-26.0
 31
0.0
  0
LINE
  5
141
100
AcDbEntity
  8
0
 62
256
370
-1
 48
1.0
  6
BYLAYER
100
AcDbLine
 10
29.9999999999999929
 20
-88.1500000000000057
 30
0.0
 11
33.9999999999999929
 21
-88.1500000000000057
 31
0.0
  0
LINE
  5
142
100
AcDbEntity
  8
0
 62
256
370
-1
 48
1.0
  6
BYLAYER
100
AcDbLine
 10
48.1499999999999915
 20
-100.0
 30
0.0
 11
48.1499999999999915
 21
-96.0
 31
0.0
  0
LINE
  5
143
100
AcDbEntity
  8
0
 62
256
370
-1
 48
1.0
  6
BYLAYER
100
AcDbLine
 10
41.8500000000000085
 20
-70.0
 30
0.0
 11
41.8499999999999943
 21
-74.0
 31
0.0
  0
LINE
  5
144
100
AcDbEntity
  8
0
 62
256
370
-1
 48
1.0
  6
BYLAYER
100
AcDbLine
 10
71.8499999999999943
 20
-70.0
 30
0.0
 11
71.8499999999999943
 21
-74.0
 31
0.0
  0
LINE
  5
145
100
AcDbEntity
  8
0
 62
256
370
-1
 48
1.0
  6
BYLAYER
100
AcDbLine
 10
90.0
 20
-81.8499999999999943
 30
0.0
 11
86.0
 21
-81.8499999999999943
 31
0.0
  0
LINE
  5
146
100
AcDbEntity
  8
0
 62
256
370
-1
 48
1.0
  6
BYLAYER
100
AcDbLine
 10
78.1500000000000057
 20
-100.0
 30
0.0
 11
78.1500000000000057
 21
-96.0
 31
0.0
  0
LINE
  5
147
100
AcDbEntity
  8
0
 62
256
370
-1
 48
1.0
  6
BYLAYER
100
AcDbLine
 10
29.9999999999999929
 20
-168.1500000000000057
 30
0.0
 11
33.9999999999999929
 21
-168.1500000000000057
 31
0.0
  0
LINE
  5
148
100
AcDbEntity
  8
0
 62
256
370
-1
 48
1.0
  6
BYLAYER
100
AcDbLine
 10
48.1499999999999915
 20
-180.0
 30
0.0
 11
48.1499999999999915
 21
-176.0
 31
0.0
  0
LINE
  5
149
100
AcDbEntity
  8
0
 62
256
370
-1
 48
1.0
  6
BYLAYER
100
AcDbLine
 10
41.8500000000000085
 20
-150.0
 30
0.0
 11
41.8499999999999943
 21
-154.0
 31
0.0
  0
LINE
  5
14A
100
AcDbEntity
  8
0
 62
256
370
-1
 48
1.0
  6
BYLAYER
100
AcDbLine
 10
71.8499999999999943
 20
-150.0
 30
0.0
 11
71.8499999999999943
 21
-154.0
 31
0.0
  0
LINE
  5
14B
100
AcDbEntity
  8
0
 62
256
370
-1
 48
1.0
  6
BYLAYER
100
AcDbLine
 10
90.0
 20
-161.8499999999999943
 30
0.0
 11
86.0
 21
-161.8499999999999943
 31
0.0
  0
LINE
  5
14C
100
AcDbEntity
  8
0
 62
256
370
-1
 48
1.0
  6
BYLAYER
100
AcDbLine
 10
78.1500000000000057
 20
-180.0
 30
0.0
 11
78.1500000000000057
 21
-176.0
 31
0.0
  0
LINE
  5
14D
100
AcDbEntity
  8
0
 62
256
370
-1
 48
1.0
  6
BYLAYER
100
AcDbLine
 10
29.9999999999999929
 20
-238.1500000000000057
 30
0.0
 11
33.9999999999999929
 21
-238.1500000000000057
 31
0.0
  0
LINE
  5
14E
100
AcDbEntity
  8
0
 62
256
370
-1
 48
1.0
  6
BYLAYER
100
AcDbLine
 10
48.1499999999999915
 20
-250.0
 30
0.0
 11
48.1499999999999915
 21
-246.0
 31
0.0
  0
LINE
  5
14F
100
AcDbEntity
  8
0
 62
256
370
-1
 48
1.0
  6
BYLAYER
100
AcDbLine
 10
41.8500000000000085
 20
-220.0
 30
0.0
 11
41.8499999999999943
 21
-224.0
 31
0.0
  0
LINE
  5
150
100
AcDbEntity
  8
0
 62
256
370
-1
 48
1.0
  6
BYLAYER
100
AcDbLine
 10
71.8499999999999943
 20
-220.0
 30
0.0
 11
71.8499999999999943
 21
-224.0
 31
0.0
  0
LINE
  5
151
100
AcDbEntity
  8
0
 62
256
370
-1
 48
1.0
  6
BYLAYER
100
AcDbLine
 10
90.0
 20
-231.8499999999999943
 30
0.0
 11
86.0
 21
-231.8499999999999943
 31
0.0
  0
LINE
  5
152
100
AcDbEntity
  8
0
 62
256
370
-1
 48
1.0
  6
BYLAYER
100
AcDbLine
 10
78.1500000000000057
 20
-250.0
 30
0.0
 11
78.1500000000000057
 21
-246.0
 31
0.0
  0
LINE
  5
153
100
AcDbEntity
  8
0
 62
256
370
-1
 48
1.0
  6
BYLAYER
100
AcDbLine
 10
29.9999999999999929
 20
-318.1499999999999773
 30
0.0
 11
33.9999999999999929
 21
-318.1499999999999773
 31
0.0
  0
LINE
  5
154
100
AcDbEntity
  8
0
 62
256
370
-1
 48
1.0
  6
BYLAYER
100
AcDbLine
 10
48.1499999999999915
 20
-330.0
 30
0.0
 11
48.1499999999999915
 21
-326.0
 31
0.0
  0
LINE
  5
155
100
AcDbEntity
  8
0
 62
256
370
-1
 48
1.0
  6
BYLAYER
100
AcDbLine
 10
41.8500000000000085
 20
-300.0
 30
0.0
 11
41.8499999999999943
 21
-304.0
 31
0.0
  0
LINE
  5
156
100
AcDbEntity
  8
0
 62
256
370
-1
 48
1.0
  6
BYLAYER
100
AcDbLine
 10
71.8499999999999943
 20
-300.0
 30
0.0
 11
71.8499999999999943
 21
-304.0
 31
0.0
  0
LINE
  5
157
100
AcDbEntity
  8
0
 62
256
370
-1
 48
1.0
  6
BYLAYER
100
AcDbLine
 10
90.0
 20
-311.8500000000000227
 30
0.0
 11
86.0
 21
-311.8500000000000227
 31
0.0
  0
LINE
  5
158
100
AcDbEntity
  8
0
 62
256
370
-1
 48
1.0
  6
BYLAYER
100
AcDbLine
 10
78.1500000000000057
 20
-330.0
 30
0.0
 11
78.1500000000000057
 21
-326.0
 31
0.0
  0
LINE
  5
159
100
AcDbEntity
  8
0
 62
256
370
-1
 48
1.0
  6
BYLAYER
100
AcDbLine
 10
29.9999999999999929
 20
-388.1499999999999773
 30
0.0
 11
33.9999999999999929
 21
-388.1499999999999773
 31
0.0
  0
LINE
  5
15A
100
AcDbEntity
  8
0
 62
256
370
-1
 48
1.0
  6
BYLAYER
100
AcDbLine
 10
48.1499999999999915
 20
-400.0
 30
0.0
 11
48.1499999999999915
 21
-396.0
 31
0.0
  0
LINE
  5
15B
100
AcDbEntity
  8
0
 62
256
370
-1
 48
1.0
  6
BYLAYER
100
AcDbLine
 10
41.8500000000000085
 20
-370.0
 30
0.0
 11
41.8499999999999943
 21
-374.0
 31
0.0
  0
LINE
  5
15C
100
AcDbEntity
  8
0
 62
256
370
-1
 48
1.0
  6
BYLAYER
100
AcDbLine
 10
71.8499999999999943
 20
-370.0
 30
0.0
 11
71.8499999999999943
 21
-374.0
 31
0.0
  0
LINE
  5
15D
100
AcDbEntity
  8
0
 62
256
370
-1
 48
1.0
  6
BYLAYER
100
AcDbLine
 10
90.0
 20
-381.8500000000000227
 30
0.0
 11
86.0
 21
-381.8500000000000227
 31
0.0
  0
LINE
  5
15E
100
AcDbEntity
  8
0
 62
256
370
-1
 48
1.0
  6
BYLAYER
100
AcDbLine
 10
78.1500000000000057
 20
-400.0
 30
0.0
 11
78.1500000000000057
 21
-396.0
 31
0.0
  0
LINE
  5
15F
100
AcDbEntity
  8
0
 62
256
370
-1
 48
1.0
  6
BYLAYER
100
AcDbLine
 10
29.9999999999999929
 20
-478.1499999999999773
 30
0.0
 11
33.9999999999999929
 21
-478.1499999999999773
 31
0.0
  0
LINE
  5
160
100
AcDbEntity
  8
0
 62
256
370
-1
 48
1.0
  6
BYLAYER
100
AcDbLine
 10
48.1499999999999915
 20
-490.0
 30
0.0
 11
48.1499999999999915
 21
-486.0
 31
0.0
  0
LINE
  5
161
100
AcDbEntity
  8
0
 62
256
370
-1
 48
1.0
  6
BYLAYER
100
AcDbLine
 10
41.8500000000000085
 20
-460.0
 30
0.0
 11
41.8499999999999943
 21
-464.0
 31
0.0
  0
LINE
  5
162
100
AcDbEntity
  8
0
 62
256
370
-1
 48
1.0
  6
BYLAYER
100
AcDbLine
 10
71.8499999999999943
 20
-460.0
 30
0.0
 11
71.8499999999999943
 21
-464.0
 31
0.0
  0
LINE
  5
163
100
AcDbEntity
  8
0
 62
256
370
-1
 48
1.0
  6
BYLAYER
100
AcDbLine
 10
90.0
 20
-471.8500000000000227
 30
0.0
 11
86.0
 21
-471.8500000000000227
 31
0.0
  0
LINE
  5
164
100
AcDbEntity
  8
0
 62
256
370
-1
 48
1.0
  6
BYLAYER
100
AcDbLine
 10
78.1500000000000057
 20
-490.0
 30
0.0
 11
78.1500000000000057
 21
-486.0
 31
0.0
  0
LINE
  5
165
100
AcDbEntity
  8
0
 62
256
370
-1
 48
1.0
  6
BYLAYER
100
AcDbLine
 10
29.9999999999999929
 20
-548.1499999999999773
 30
0.0
 11
33.9999999999999929
 21
-548.1499999999999773
 31
0.0
  0
LINE
  5
166
100
AcDbEntity
  8
0
 62
256
370
-1
 48
1.0
  6
BYLAYER
100
AcDbLine
 10
48.1499999999999915
 20
-560.0
 30
0.0
 11
48.1499999999999915
 21
-556.0
 31
0.0
  0
LINE
  5
167
100
AcDbEntity
  8
0
 62
256
370
-1
 48
1.0
  6
BYLAYER
100
AcDbLine
 10
41.8500000000000085
 20
-530.0
 30
0.0
 11
41.8499999999999943
 21
-534.0
 31
0.0
  0
LINE
  5
168
100
AcDbEntity
  8
0
 62
256
370
-1
 48
1.0
  6
BYLAYER
100
AcDbLine
 10
71.8499999999999943
 20
-530.0
 30
0.0
 11
71.8499999999999943
 21
-534.0
 31
0.0
  0
LINE
  5
169
100
AcDbEntity
  8
0
 62
256
370
-1
 48
1.0
  6
BYLAYER
100
AcDbLine
 10
90.0
 20
-541.8500000000000227
 30
0.0
 11
86.0
 21
-541.8500000000000227
 31
0.0
  0
LINE
  5
16A
100
AcDbEntity
  8
0
 62
256
370
-1
 48
1.0
  6
BYLAYER
100
AcDbLine
 10
78.1500000000000057
 20
-560.0
 30
0.0
 11
78.1500000000000057
 21
-556.0
 31
0.0
  0
LINE
  5
16B
100
AcDbEntity
  8
0
 62
256
370
-1
 48
1.0
  6
BYLAYER
100
AcDbLine
 10
38.9999999999999929
 20
-4.0
 30
0.0
 11
41.8499999999999943
 21
-4.0
 31
0.0
  0
LINE
  5
16C
100
AcDbEntity
  8
0
 62
256
370
-1
 48
1.0
  6
BYLAYER
100
AcDbLine
 10
33.9999999999999929
 20
-11.8499999999999943
 30
0.0
 11
33.9999999999999929
 21
-9.0
 31
0.0
  0
LINE
  5
16D
100
AcDbEntity
  8
0
 62
256
370
-1
 48
1.0
  6
BYLAYER
100
AcDbLine
 10
33.9999999999999929
 20
-21.0
 30
0.0
 11
33.9999999999999929
 21
-18.1500000000000057
 31
0.0
  0
LINE
  5
16E
100
AcDbEntity
  8
0
 62
256
370
-1
 48
1.0
  6
BYLAYER
100
AcDbLine
 10
41.8499999999999872
 20
-26.0
 30
0.0
 11
38.9999999999999929
 21
-26.0
 31
0.0
  0
LINE
  5
16F
100
AcDbEntity
  8
0
 62
256
370
-1
 48
1.0
  6
BYLAYER
100
AcDbLine
 10
50.9999999999999929
 20
-26.0
 30
0.0
 11
48.1499999999999915
 21
-26.0
 31
0.0
  0
LINE
  5
170
100
AcDbEntity
  8
0
 62
256
370
-1
 48
1.0
  6
BYLAYER
100
AcDbLine
 10
48.1499999999999986
 20
-4.0
 30
0.0
 11
50.9999999999999929
 21
-4.0
 31
0.0
  0
LINE
  5
171
100
AcDbEntity
  8
0
 62
256
370
-1
 48
1.0
  6
BYLAYER
100
AcDbLine
 10
81.0
 20
-26.0
 30
0.0
 11
78.1500000000000057
 21
-26.0
 31
0.0
  0
LINE
  5
172
100
AcDbEntity
  8
0
 62
256
370
-1
 48
1.0
  6
BYLAYER
100
AcDbLine
 10
69.0
 20
-4.0
 30
0.0
 11
71.8499999999999943
 21
-4.0
 31
0.0
  0
LINE
  5
173
100
AcDbEntity
  8
0
 62
256
370
-1
 48
1.0
  6
BYLAYER
100
AcDbLine
 10
78.1500000000000057
 20
-4.0000000000000142
 30
0.0
 11
81.0
 21
-4.0000000000000142
 31
0.0
  0
LINE
  5
174
100
AcDbEntity
  8
0
 62
256
370
-1
 48
1.0
  6
BYLAYER
100
AcDbLine
 10
86.0
 20
-9.0000000000000284
 30
0.0
 11
86.0
 21
-11.8499999999999943
 31
0.0
  0
LINE
  5
175
100
AcDbEntity
  8
0
 62
256
370
-1
 48
1.0
  6
BYLAYER
100
AcDbLine
 10
86.0
 20
-18.1500000000000057
 30
0.0
 11
86.0
 21
-21.0
 31
0.0
  0
LINE
  5
176
100
AcDbEntity
  8
0
 62
256
370
-1
 48
1.0
  6
BYLAYER
100
AcDbLine
 10
71.8499999999999943
 20
-26.0
 30
0.0
 11
69.0
 21
-26.0
 31
0.0
  0
LINE
  5
177
100
AcDbEntity
  8
0
 62
256
370
-1
 48
1.0
  6
BYLAYER
100
AcDbLine
 10
38.9999999999999929
 20
-74.0
 30
0.0
 11
41.8499999999999943
 21
-74.0
 31
0.0
  0
LINE
  5
178
100
AcDbEntity
  8
0
 62
256
370
-1
 48
1.0
  6
BYLAYER
100
AcDbLine
 10
33.9999999999999929
 20
-81.8499999999999943
 30
0.0
 11
33.9999999999999929
 21
-79.0
 31
0.0
  0
LINE
  5
179
100
AcDbEntity
  8
0
 62
256
370
-1
 48
1.0
  6
BYLAYER
100
AcDbLine
 10
33.9999999999999929
 20
-91.0
 30
0.0
 11
33.9999999999999929
 21
-88.1500000000000057
 31
0.0
  0
LINE
  5
17A
100
AcDbEntity
  8
0
 62
256
370
-1
 48
1.0
  6
BYLAYER
100
AcDbLine
 10
41.8499999999999872
 20
-96.0
 30
0.0
 11
38.9999999999999929
 21
-96.0
 31
0.0
  0
LINE
  5
17B
100
AcDbEntity
  8
0
 62
256
370
-1
 48
1.0
  6
BYLAYER
100
AcDbLine
 10
50.9999999999999929
 20
-96.0
 30
0.0
 11
48.1499999999999915
 21
-96.0
 31
0.0
  0
LINE
  5
17C
100
AcDbEntity
  8
0
 62
256
370
-1
 48
1.0
  6
BYLAYER
100
AcDbLine
 10
48.1499999999999986
 20
-74.0
 30
0.0
 11
50.9999999999999929
 21
-74.0
 31
0.0
  0
LINE
  5
17D
100
AcDbEntity
  8
0
 62
256
370
-1
 48
1.0
  6
BYLAYER
100
AcDbLine
 10
81.0
 20
-96.0
 30
0.0
 11
78.1500000000000057
 21
-96.0
 31
0.0
  0
LINE
  5
17E
100
AcDbEntity
  8
0
 62
256
370
-1
 48
1.0
  6
BYLAYER
100
AcDbLine
 10
69.0
 20
-74.0
 30
0.0
 11
71.8499999999999943
 21
-74.0
 31
0.0
  0
LINE
  5
17F
100
AcDbEntity
  8
0
 62
256
370
-1
 48
1.0
  6
BYLAYER
100
AcDbLine
 10
78.1500000000000057
 20
-74.0000000000000142
 30
0.0
 11
81.0
 21
-74.0000000000000142
 31
0.0
  0
LINE
  5
180
100
AcDbEntity
  8
0
 62
256
370
-1
 48
1.0
  6
BYLAYER
100
AcDbLine
 10
86.0
 20
-79.0000000000000284
 30
0.0
 11
86.0
 21
-81.8499999999999943
 31
0.0
  0
LINE
  5
181
100
AcDbEntity
  8
0
 62
256
370
-1
 48
1.0
  6
BYLAYER
100
AcDbLine
 10
86.0
 20
-88.1500000000000057
 30
0.0
 11
86.0
 21
-91.0
 31
0.0
  0
LINE
  5
182
100
AcDbEntity
  8
0
 62
256
370
-1
 48
1.0
  6
BYLAYER
100
AcDbLine
 10
71.8499999999999943
 20
-96.0
 30
0.0
 11
69.0
 21
-96.0
 31
0.0
  0
LINE
  5
183
100
AcDbEntity
  8
0
 62
256
370
-1
 48
1.0
  6
BYLAYER
100
AcDbLine
 10
38.9999999999999929
 20
-154.0
 30
0.0
 11
41.8499999999999943
 21
-154.0
 31
0.0
  0
LINE
  5
184
100
AcDbEntity
  8
0
 62
256
370
-1
 48
1.0
  6
BYLAYER
100
AcDbLine
 10
33.9999999999999929
 20
-161.8499999999999943
 30
0.0
 11
33.9999999999999929
 21
-159.0
 31
0.0
  0
LINE
  5
185
100
AcDbEntity
  8
0
 62
256
370
-1
 48
1.0
  6
BYLAYER
100
AcDbLine
 10
33.9999999999999929
 20
-171.0
 30
0.0
 11
33.9999999999999929
 21
-168.1500000000000057
 31
0.0
  0
LINE
  5
186
100
AcDbEntity
  8
0
 62
256
370
-1
 48
1.0
  6
BYLAYER
100
AcDbLine
 10
41.8499999999999872
 20
-176.0
 30
0.0
 11
38.9999999999999929
 21
-176.0
 31
0.0
  0
LINE
  5
187
100
AcDbEntity
  8
0
 62
256
370
-1
 48
1.0
  6
BYLAYER
100
AcDbLine
 10
50.9999999999999929
 20
-176.0
 30
0.0
 11
48.1499999999999915
 21
-176.0
 31
0.0
  0
LINE
  5
188
100
AcDbEntity
  8
0
 62
256
370
-1
 48
1.0
  6
BYLAYER
100
AcDbLine
 10
48.1499999999999986
 20
-154.0
 30
0.0
 11
50.9999999999999929
 21
-154.0
 31
0.0
  0
LINE
  5
189
100
AcDbEntity
  8
0
 62
256
370
-1
 48
1.0
  6
BYLAYER
100
AcDbLine
 10
81.0
 20
-176.0
 30
0.0
 11
78.1500000000000057
 21
-176.0
 31
0.0
  0
LINE
  5
18A
100
AcDbEntity
  8
0
 62
256
370
-1
 48
1.0
  6
BYLAYER
100
AcDbLine
 10
69.0
 20
-154.0
 30
0.0
 11
71.8499999999999943
 21
-154.0
 31
0.0
  0
LINE
  5
18B
100
AcDbEntity
  8
0
 62
256
370
-1
 48
1.0
  6
BYLAYER
100
AcDbLine
 10
78.1500000000000057
 20
-154.0
 30
0.0
 11
81.0
 21
-154.0
 31
0.0
  0
LINE
  5
18C
100
AcDbEntity
  8
0
 62
256
370
-1
 48
1.0
  6
BYLAYER
100
AcDbLine
 10
86.0
 20
-159.0000000000000284
 30
0.0
 11
86.0
 21
-161.8499999999999943
 31
0.0
  0
LINE
  5
18D
100
AcDbEntity
  8
0
 62
256
370
-1
 48
1.0
  6
BYLAYER
100
AcDbLine
 10
86.0
 20
-168.1500000000000057
 30
0.0
 11
86.0
 21
-171.0
 31
0.0
  0
LINE
  5
18E
100
AcDbEntity
  8
0
 62
256
370
-1
 48
1.0
  6
BYLAYER
100
AcDbLine
 10
71.8499999999999943
 20
-176.0
 30
0.0
 11
69.0
 21
-176.0
 31
0.0
  0
LINE
  5
18F
100
AcDbEntity
  8
0
 62
256
370
-1
 48
1.0
  6
BYLAYER
100
AcDbLine
 10
38.9999999999999929
 20
-224.0
 30
0.0
 11
41.8499999999999943
 21
-224.0
 31
0.0
  0
LINE
  5
190
100
AcDbEntity
  8
0
 62
256
370
-1
 48
1.0
  6
BYLAYER
100
AcDbLine
 10
33.9999999999999929
 20
-231.8499999999999943
 30
0.0
 11
33.9999999999999929
 21
-229.0
 31
0.0
  0
LINE
  5
191
100
AcDbEntity
  8
0
 62
256
370
-1
 48
1.0
  6
BYLAYER
100
AcDbLine
 10
33.9999999999999929
 20
-241.0
 30
0.0
 11
33.9999999999999929
 21
-238.1500000000000057
 31
0.0
  0
LINE
  5
192
100
AcDbEntity
  8
0
 62
256
370
-1
 48
1.0
  6
BYLAYER
100
AcDbLine
 10
41.8499999999999872
 20
-246.0
 30
0.0
 11
38.9999999999999929
 21
-246.0
 31
0.0
  0
LINE
  5
193
100
AcDbEntity
  8
0
 62
256
370
-1
 48
1.0
  6
BYLAYER
100
AcDbLine
 10
50.9999999999999929
 20
-246.0
 30
0.0
 11
48.1499999999999915
 21
-246.0
 31
0.0
  0
LINE
  5
194
100
AcDbEntity
  8
0
 62
256
370
-1
 48
1.0
  6
BYLAYER
100
AcDbLine
 10
48.1499999999999986
 20
-224.0
 30
0.0
 11
50.9999999999999929
 21
-224.0
 31
0.0
  0
LINE
  5
195
100
AcDbEntity
  8
0
 62
256
370
-1
 48
1.0
  6
BYLAYER
100
AcDbLine
 10
81.0
 20
-246.0
 30
0.0
 11
78.1500000000000057
 21
-246.0
 31
0.0
  0
LINE
  5
196
100
AcDbEntity
  8
0
 62
256
370
-1
 48
1.0
  6
BYLAYER
100
AcDbLine
 10
69.0
 20
-224.0
 30
0.0
 11
71.8499999999999943
 21
-224.0
 31
0.0
  0
LINE
  5
197
100
AcDbEntity
  8
0
 62
256
370
-1
 48
1.0
  6
BYLAYER
100
AcDbLine
 10
78.1500000000000057
 20
-224.0
 30
0.0
 11
81.0
 21
-224.0
 31
0.0
  0
LINE
  5
198
100
AcDbEntity
  8
0
 62
256
370
-1
 48
1.0
  6
BYLAYER
100
AcDbLine
 10
86.0
 20
-229.0000000000000284
 30
0.0
 11
86.0
 21
-231.8499999999999943
 31
0.0
  0
LINE
  5
199
100
AcDbEntity
  8
0
 62
256
370
-1
 48
1.0
  6
BYLAYER
100
AcDbLine
 10
86.0
 20
-238.1500000000000057
 30
0.0
 11
86.0
 21
-241.0
 31
0.0
  0
LINE
  5
19A
100
AcDbEntity
  8
0
 62
256
370
-1
 48
1.0
  6
BYLAYER
100
AcDbLine
 10
71.8499999999999943
 20
-246.0
 30
0.0
 11
69.0
 21
-246.0
 31
0.0
  0
LINE
  5
19B
100
AcDbEntity
  8
0
 62
256
370
-1
 48
1.0
  6
BYLAYER
100
AcDbLine
 10
38.9999999999999929
 20
-304.0
 30
0.0
 11
41.8499999999999943
 21
-304.0
 31
0.0
  0
LINE
  5
19C
100
AcDbEntity
  8
0
 62
256
370
-1
 48
1.0
  6
BYLAYER
100
AcDbLine
 10
33.9999999999999929
 20
-311.8500000000000227
 30
0.0
 11
33.9999999999999929
 21
-309.0
 31
0.0
  0
LINE
  5
19D
100
AcDbEntity
  8
0
 62
256
370
-1
 48
1.0
  6
BYLAYER
100
AcDbLine
 10
33.9999999999999929
 20
-321.0
 30
0.0
 11
33.9999999999999929
 21
-318.1499999999999773
 31
0.0
  0
LINE
  5
19E
100
AcDbEntity
  8
0
 62
256
370
-1
 48
1.0
  6
BYLAYER
100
AcDbLine
 10
41.8499999999999872
 20
-326.0
 30
0.0
 11
38.9999999999999929
 21
-326.0
 31
0.0
  0
LINE
  5
19F
100
AcDbEntity
  8
0
 62
256
370
-1
 48
1.0
  6
BYLAYER
100
AcDbLine
 10
50.9999999999999929
 20
-326.0
 30
0.0
 11
48.1499999999999915
 21
-326.0
 31
0.0
  0
LINE
  5
1A0
100
AcDbEntity
  8
0
 62
256
370
-1
 48
1.0
  6
BYLAYER
100
AcDbLine
 10
48.1499999999999986
 20
-304.0
 30
0.0
 11
50.9999999999999929
 21
-304.0
 31
0.0
  0
LINE
  5
1A1
100
AcDbEntity
  8
0
 62
256
370
-1
 48
1.0
  6
BYLAYER
100
AcDbLine
 10
81.0
 20
-326.0
 30
0.0
 11
78.1500000000000057
 21
-326.0
 31
0.0
  0
LINE
  5
1A2
100
AcDbEntity
  8
0
 62
256
370
-1
 48
1.0
  6
BYLAYER
100
AcDbLine
 10
69.0
 20
-304.0
 30
0.0
 11
71.8499999999999943
 21
-304.0
 31
0.0
  0
LINE
  5
1A3
100
AcDbEntity
  8
0
 62
256
370
-1
 48
1.0
  6
BYLAYER
100
AcDbLine
 10
78.1500000000000057
 20
-304.0
 30
0.0
 11
81.0
 21
-304.0
 31
0.0
  0
LINE
  5
1A4
100
AcDbEntity
  8
0
 62
256
370
-1
 48
1.0
  6
BYLAYER
100
AcDbLine
 10
86.0
 20
-309.0
 30
0.0
 11
86.0
 21
-311.8500000000000227
 31
0.0
  0
LINE
  5
1A5
100
AcDbEntity
  8
0
 62
256
370
-1
 48
1.0
  6
BYLAYER
100
AcDbLine
 10
86.0
 20
-318.1499999999999773
 30
0.0
 11
86.0
 21
-321.0
 31
0.0
  0
LINE
  5
1A6
100
AcDbEntity
  8
0
 62
256
370
-1
 48
1.0
  6
BYLAYER
100
AcDbLine
 10
71.8499999999999943
 20
-326.0
 30
0.0
 11
69.0
 21
-326.0
 31
0.0
  0
LINE
  5
1A7
100
AcDbEntity
  8
0
 62
256
370
-1
 48
1.0
  6
BYLAYER
100
AcDbLine
 10
38.9999999999999929
 20
-374.0
 30
0.0
 11
41.8499999999999943
 21
-374.0
 31
0.0
  0
LINE
  5
1A8
100
AcDbEntity
  8
0
 62
256
370
-1
 48
1.0
  6
BYLAYER
100
AcDbLine
 10
33.9999999999999929
 20
-381.8500000000000227
 30
0.0
 11
33.9999999999999929
 21
-379.0
 31
0.0
  0
LINE
  5
1A9
100
AcDbEntity
  8
0
 62
256
370
-1
 48
1.0
  6
BYLAYER
100
AcDbLine
 10
33.9999999999999929
 20
-391.0
 30
0.0
 11
33.9999999999999929
 21
-388.1499999999999773
 31
0.0
  0
LINE
  5
1AA
100
AcDbEntity
  8
0
 62
256
370
-1
 48
1.0
  6
BYLAYER
100
AcDbLine
 10
41.8499999999999872
 20
-396.0
 30
0.0
 11
38.9999999999999929
 21
-396.0
 31
0.0
  0
LINE
  5
1AB
100
AcDbEntity
  8
0
 62
256
370
-1
 48
1.0
  6
BYLAYER
100
AcDbLine
 10
50.9999999999999929
 20
-396.0
 30
0.0
 11
48.1499999999999915
 21
-396.0
 31
0.0
  0
LINE
  5
1AC
100
AcDbEntity
  8
0
 62
256
370
-1
 48
1.0
  6
BYLAYER
100
AcDbLine
 10
48.1499999999999986
 20
-374.0
 30
0.0
 11
50.9999999999999929
 21
-374.0
 31
0.0
  0
LINE
  5
1AD
100
AcDbEntity
  8
0
 62
256
370
-1
 48
1.0
  6
BYLAYER
100
AcDbLine
 10
81.0
 20
-396.0
 30
0.0
 11
78.1500000000000057
 21
-396.0
 31
0.0
  0
LINE
  5
1AE
100
AcDbEntity
  8
0
 62
256
370
-1
 48
1.0
  6
BYLAYER
100
AcDbLine
 10
69.0
 20
-374.0
 30
0.0
 11
71.8499999999999943
 21
-374.0
 31
0.0
  0
LINE
  5
1AF
100
AcDbEntity
  8
0
 62
256
370
-1
 48
1.0
  6
BYLAYER
100
AcDbLine
 10
78.1500000000000057
 20
-374.0
 30
0.0
 11
81.0
 21
-374.0
 31
0.0
  0
LINE
  5
1B0
100
AcDbEntity
  8
0
 62
256
370
-1
 48
1.0
  6
BYLAYER
100
AcDbLine
 10
86.0
 20
-379.0
 30
0.0
 11
86.0
 21
-381.8500000000000227
 31
0.0
  0
LINE
  5
1B1
100
AcDbEntity
  8
0
 62
256
370
-1
 48
1.0
  6
BYLAYER
100
AcDbLine
 10
86.0
 20
-388.1499999999999773
 30
0.0
 11
86.0
 21
-391.0
 31
0.0
  0
LINE
  5
1B2
100
AcDbEntity
  8
0
 62
256
370
-1
 48
1.0
  6
BYLAYER
100
AcDbLine
 10
71.8499999999999943
 20
-396.0
 30
0.0
 11
69.0
 21
-396.0
 31
0.0
  0
LINE
  5
1B3
100
AcDbEntity
  8
0
 62
256
370
-1
 48
1.0
  6
BYLAYER
100
AcDbLine
 10
38.9999999999999929
 20
-464.0
 30
0.0
 11
41.8499999999999943
 21
-464.0
 31
0.0
  0
LINE
  5
1B4
100
AcDbEntity
  8
0
 62
256
370
-1
 48
1.0
  6
BYLAYER
100
AcDbLine
 10
33.9999999999999929
 20
-471.8500000000000227
 30
0.0
 11
33.9999999999999929
 21
-469.0
 31
0.0
  0
LINE
  5
1B5
100
AcDbEntity
  8
0
 62
256
370
-1
 48
1.0
  6
BYLAYER
100
AcDbLine
 10
33.9999999999999929
 20
-481.0
 30
0.0
 11
33.9999999999999929
 21
-478.1499999999999773
 31
0.0
  0
LINE
  5
1B6
100
AcDbEntity
  8
0
 62
256
370
-1
 48
1.0
  6
BYLAYER
100
AcDbLine
 10
41.8499999999999872
 20
-486.0
 30
0.0
 11
38.9999999999999929
 21
-486.0
 31
0.0
  0
LINE
  5
1B7
100
AcDbEntity
  8
0
 62
256
370
-1
 48
1.0
  6
BYLAYER
100
AcDbLine
 10
50.9999999999999929
 20
-486.0
 30
0.0
 11
48.1499999999999915
 21
-486.0
 31
0.0
  0
LINE
  5
1B8
100
AcDbEntity
  8
0
 62
256
370
-1
 48
1.0
  6
BYLAYER
100
AcDbLine
 10
48.1499999999999986
 20
-464.0
 30
0.0
 11
50.9999999999999929
 21
-464.0
 31
0.0
  0
LINE
  5
1B9
100
AcDbEntity
  8
0
 62
256
370
-1
 48
1.0
  6
BYLAYER
100
AcDbLine
 10
81.0
 20
-486.0
 30
0.0
 11
78.1500000000000057
 21
-486.0
 31
0.0
  0
LINE
  5
1BA
100
AcDbEntity
  8
0
 62
256
370
-1
 48
1.0
  6
BYLAYER
100
AcDbLine
 10
69.0
 20
-464.0
 30
0.0
 11
71.8499999999999943
 21
-464.0
 31
0.0
  0
LINE
  5
1BB
100
AcDbEntity
  8
0
 62
256
370
-1
 48
1.0
  6
BYLAYER
100
AcDbLine
 10
78.1500000000000057
 20
-464.0
 30
0.0
 11
81.0
 21
-464.0
 31
0.0
  0
LINE
  5
1BC
100
AcDbEntity
  8
0
 62
256
370
-1
 48
1.0
  6
BYLAYER
100
AcDbLine
 10
86.0
 20
-469.0
 30
0.0
 11
86.0
 21
-471.8500000000000227
 31
0.0
  0
LINE
  5
1BD
100
AcDbEntity
  8
0
 62
256
370
-1
 48
1.0
  6
BYLAYER
100
AcDbLine
 10
86.0
 20
-478.1500000000000341
 30
0.0
 11
86.0
 21
-481.0
 31
0.0
  0
LINE
  5
1BE
100
AcDbEntity
  8
0
 62
256
370
-1
 48
1.0
  6
BYLAYER
100
AcDbLine
 10
71.8499999999999943
 20
-486.0
 30
0.0
 11
69.0
 21
-486.0
 31
0.0
  0
LINE
  5
1BF
100
AcDbEntity
  8
0
 62
256
370
-1
 48
1.0
  6
BYLAYER
100
AcDbLine
 10
38.9999999999999929
 20
-534.0
 30
0.0
 11
41.8499999999999943
 21
-534.0
 31
0.0
  0
LINE
  5
1C0
100
AcDbEntity
  8
0
 62
256
370
-1
 48
1.0
  6
BYLAYER
100
AcDbLine
 10
33.9999999999999929
 20
-541.8500000000000227
 30
0.0
 11
33.9999999999999929
 21
-539.0
 31
0.0
  0
LINE
  5
1C1
100
AcDbEntity
  8
0
 62
256
370
-1
 48
1.0
  6
BYLAYER
100
AcDbLine
 10
33.9999999999999929
 20
-551.0
 30
0.0
 11
33.9999999999999929
 21
-548.1499999999999773
 31
0.0
  0
LINE
  5
1C2
100
AcDbEntity
  8
0
 62
256
370
-1
 48
1.0
  6
BYLAYER
100
AcDbLine
 10
41.8499999999999872
 20
-556.0
 30
0.0
 11
38.9999999999999929
 21
-556.0
 31
0.0
  0
LINE
  5
1C3
100
AcDbEntity
  8
0
 62
256
370
-1
 48
1.0
  6
BYLAYER
100
AcDbLine
 10
50.9999999999999929
 20
-556.0
 30
0.0
 11
48.1499999999999915
 21
-556.0
 31
0.0
  0
LINE
  5
1C4
100
AcDbEntity
  8
0
 62
256
370
-1
 48
1.0
  6
BYLAYER
100
AcDbLine
 10
48.1499999999999986
 20
-534.0
 30
0.0
 11
50.9999999999999929
 21
-534.0
 31
0.0
  0
LINE
  5
1C5
100
AcDbEntity
  8
0
 62
256
370
-1
 48
1.0
  6
BYLAYER
100
AcDbLine
 10
81.0
 20
-556.0
 30
0.0
 11
78.1500000000000057
 21
-556.0
 31
0.0
  0
LINE
  5
1C6
100
AcDbEntity
  8
0
 62
256
370
-1
 48
1.0
  6
BYLAYER
100
AcDbLine
 10
69.0
 20
-534.0
 30
0.0
 11
71.8499999999999943
 21
-534.0
 31
0.0
  0
LINE
  5
1C7
100
AcDbEntity
  8
0
 62
256
370
-1
 48
1.0
  6
BYLAYER
100
AcDbLine
 10
78.1500000000000057
 20
-534.0
 30
0.0
 11
81.0
 21
-534.0
 31
0.0
  0
LINE
  5
1C8
100
AcDbEntity
  8
0
 62
256
370
-1
 48
1.0
  6
BYLAYER
100
AcDbLine
 10
86.0
 20
-539.0
 30
0.0
 11
86.0
 21
-541.8500000000000227
 31
0.0
  0
LINE
  5
1C9
100
AcDbEntity
  8
0
 62
256
370
-1
 48
1.0
  6
BYLAYER
100
AcDbLine
 10
86.0
 20
-548.1499999999999773
 30
0.0
 11
86.0
 21
-551.0
 31
0.0
  0
LINE
  5
1CA
100
AcDbEntity
  8
0
 62
256
370
-1
 48
1.0
  6
BYLAYER
100
AcDbLine
 10
71.8499999999999943
 20
-556.0
 30
0.0
 11
69.0
 21
-556.0
 31
0.0
  0
LINE
  5
1CB
100
AcDbEntity
  8
0
 62
256
370
-1
 48
1.0
  6
BYLAYER
100
AcDbLine
 10
50.9999999999999929
 20
-4.0
 30
0.0
 11
50.9999999999999929
 21
-6.0
 31
0.0
  0
LINE
  5
1CC
100
AcDbEntity
  8
0
 62
256
370
-1
 48
1.0
  6
BYLAYER
100
AcDbLine
 10
33.9999999999999929
 20
-9.0
 30
0.0
 11
35.9999999999999929
 21
-9.0
 31
0.0
  0
LINE
  5
1CD
100
AcDbEntity
  8
0
 62
256
370
-1
 48
1.0
  6
BYLAYER
100
AcDbLine
 10
38.9999999999999929
 20
-26.0
 30
0.0
 11
38.9999999999999929
 21
-24.0
 31
0.0
  0
LINE
  5
1CE
100
AcDbEntity
  8
0
 62
256
370
-1
 48
1.0
  6
BYLAYER
100
AcDbLine
 10
81.0
 20
-4.0000000000000142
 30
0.0
 11
81.0
 21
-6.0
 31
0.0
  0
LINE
  5
1CF
100
AcDbEntity
  8
0
 62
256
370
-1
 48
1.0
  6
BYLAYER
100
AcDbLine
 10
86.0
 20
-21.0
 30
0.0
 11
84.0
 21
-20.9999999999999858
 31
0.0
  0
LINE
  5
1D0
100
AcDbEntity
  8
0
 62
256
370
-1
 48
1.0
  6
BYLAYER
100
AcDbLine
 10
69.0
 20
-26.0
 30
0.0
 11
69.0
 21
-24.0
 31
0.0
  0
LINE
  5
1D1
100
AcDbEntity
  8
0
 62
256
370
-1
 48
1.0
  6
BYLAYER
100
AcDbLine
 10
50.9999999999999929
 20
-74.0
 30
0.0
 11
50.9999999999999929
 21
-76.0
 31
0.0
  0
LINE
  5
1D2
100
AcDbEntity
  8
0
 62
256
370
-1
 48
1.0
  6
BYLAYER
100
AcDbLine
 10
33.9999999999999929
 20
-79.0
 30
0.0
 11
35.9999999999999929
 21
-79.0
 31
0.0
  0
LINE
  5
1D3
100
AcDbEntity
  8
0
 62
256
370
-1
 48
1.0
  6
BYLAYER
100
AcDbLine
 10
38.9999999999999929
 20
-96.0
 30
0.0
 11
38.9999999999999929
 21
-94.0
 31
0.0
  0
LINE
  5
1D4
100
AcDbEntity
  8
0
 62
256
370
-1
 48
1.0
  6
BYLAYER
100
AcDbLine
 10
81.0
 20
-74.0000000000000142
 30
0.0
 11
81.0
 21
-76.0
 31
0.0
  0
LINE
  5
1D5
100
AcDbEntity
  8
0
 62
256
370
-1
 48
1.0
  6
BYLAYER
100
AcDbLine
 10
86.0
 20
-91.0
 30
0.0
 11
84.0
 21
-90.9999999999999858
 31
0.0
  0
LINE
  5
1D6
100
AcDbEntity
  8
0
 62
256
370
-1
 48
1.0
  6
BYLAYER
100
AcDbLine
 10
69.0
 20
-96.0
 30
0.0
 11
69.0
 21
-94.0
 31
0.0
  0
LINE
  5
1D7
100
AcDbEntity
  8
0
 62
256
370
-1
 48
1.0
  6
BYLAYER
100
AcDbLine
 10
50.9999999999999929
 20
-154.0
 30
0.0
 11
50.9999999999999929
 21
-156.0
 31
0.0
  0
LINE
  5
1D8
100
AcDbEntity
  8
0
 62
256
370
-1
 48
1.0
  6
BYLAYER
100
AcDbLine
 10
33.9999999999999929
 20
-159.0
 30
0.0
 11
35.9999999999999929
 21
-159.0
 31
0.0
  0
LINE
  5
1D9
100
AcDbEntity
  8
0
 62
256
370
-1
 48
1.0
  6
BYLAYER
100
AcDbLine
 10
38.9999999999999929
 20
-176.0
 30
0.0
 11
38.9999999999999929
 21
-174.0
 31
0.0
  0
LINE
  5
1DA
100
AcDbEntity
  8
0
 62
256
370
-1
 48
1.0
  6
BYLAYER
100
AcDbLine
 10
81.0
 20
-154.0
 30
0.0
 11
81.0
 21
-156.0
 31
0.0
  0
LINE
  5
1DB
100
AcDbEntity
  8
0
 62
256
370
-1
 48
1.0
  6
BYLAYER
100
AcDbLine
 10
86.0
 20
-171.0
 30
0.0
 11
84.0
 21
-171.0
 31
0.0
  0
LINE
  5
1DC
100
AcDbEntity
  8
0
 62
256
370
-1
 48
1.0
  6
BYLAYER
100
AcDbLine
 10
69.0
 20
-176.0
 30
0.0
 11
69.0
 21
-174.0
 31
0.0
  0
LINE
  5
1DD
100
AcDbEntity
  8
0
 62
256
370
-1
 48
1.0
  6
BYLAYER
100
AcDbLine
 10
50.9999999999999929
 20
-224.0
 30
0.0
 11
50.9999999999999929
 21
-226.0
 31
0.0
  0
LINE
  5
1DE
100
AcDbEntity
  8
0
 62
256
370
-1
 48
1.0
  6
BYLAYER
100
AcDbLine
 10
33.9999999999999929
 20
-229.0
 30
0.0
 11
35.9999999999999929
 21
-229.0
 31
0.0
  0
LINE
  5
1DF
100
AcDbEntity
  8
0
 62
256
370
-1
 48
1.0
  6
BYLAYER
100
AcDbLine
 10
38.9999999999999929
 20
-246.0
 30
0.0
 11
38.9999999999999929
 21
-244.0
 31
0.0
  0
LINE
  5
1E0
100
AcDbEntity
  8
0
 62
256
370
-1
 48
1.0
  6
BYLAYER
100
AcDbLine
 10
81.0
 20
-224.0
 30
0.0
 11
81.0
 21
-226.0
 31
0.0
  0
LINE
  5
1E1
100
AcDbEntity
  8
0
 62
256
370
-1
 48
1.0
  6
BYLAYER
100
AcDbLine
 10
86.0
 20
-241.0
 30
0.0
 11
84.0
 21
-241.0
 31
0.0
  0
LINE
  5
1E2
100
AcDbEntity
  8
0
 62
256
370
-1
 48
1.0
  6
BYLAYER
100
AcDbLine
 10
69.0
 20
-246.0
 30
0.0
 11
69.0
 21
-244.0
 31
0.0
  0
LINE
  5
1E3
100
AcDbEntity
  8
0
 62
256
370
-1
 48
1.0
  6
BYLAYER
100
AcDbLine
 10
50.9999999999999929
 20
-304.0
 30
0.0
 11
50.9999999999999929
 21
-306.0
 31
0.0
  0
LINE
  5
1E4
100
AcDbEntity
  8
0
 62
256
370
-1
 48
1.0
  6
BYLAYER
100
AcDbLine
 10
33.9999999999999929
 20
-309.0
 30
0.0
 11
35.9999999999999929
 21
-309.0
 31
0.0
  0
LINE
  5
1E5
100
AcDbEntity
  8
0
 62
256
370
-1
 48
1.0
  6
BYLAYER
100
AcDbLine
 10
38.9999999999999929
 20
-326.0
 30
0.0
 11
38.9999999999999929
 21
-324.0
 31
0.0
  0
LINE
  5
1E6
100
AcDbEntity
  8
0
 62
256
370
-1
 48
1.0
  6
BYLAYER
100
AcDbLine
 10
81.0
 20
-304.0
 30
0.0
 11
81.0
 21
-306.0
 31
0.0
  0
LINE
  5
1E7
100
AcDbEntity
  8
0
 62
256
370
-1
 48
1.0
  6
BYLAYER
100
AcDbLine
 10
86.0
 20
-321.0
 30
0.0
 11
84.0
 21
-321.0
 31
0.0
  0
LINE
  5
1E8
100
AcDbEntity
  8
0
 62
256
370
-1
 48
1.0
  6
BYLAYER
100
AcDbLine
 10
69.0
 20
-326.0
 30
0.0
 11
69.0
 21
-324.0
 31
0.0
  0
LINE
  5
1E9
100
AcDbEntity
  8
0
 62
256
370
-1
 48
1.0
  6
BYLAYER
100
AcDbLine
 10
50.9999999999999929
 20
-374.0
 30
0.0
 11
50.9999999999999929
 21
-376.0
 31
0.0
  0
LINE
  5
1EA
100
AcDbEntity
  8
0
 62
256
370
-1
 48
1.0
  6
BYLAYER
100
AcDbLine
 10
33.9999999999999929
 20
-379.0
 30
0.0
 11
35.9999999999999929
 21
-379.0
 31
0.0
  0
LINE
  5
1EB
100
AcDbEntity
  8
0
 62
256
370
-1
 48
1.0
  6
BYLAYER
100
AcDbLine
 10
38.9999999999999929
 20
-396.0
 30
0.0
 11
38.9999999999999929
 21
-394.0
 31
0.0
  0
LINE
  5
1EC
100
AcDbEntity
  8
0
 62
256
370
-1
 48
1.0
  6
BYLAYER
100
AcDbLine
 10
81.0
 20
-374.0
 30
0.0
 11
81.0
 21
-376.0
 31
0.0
  0
LINE
  5
1ED
100
AcDbEntity
  8
0
 62
256
370
-1
 48
1.0
  6
BYLAYER
100
AcDbLine
 10
86.0
 20
-391.0
 30
0.0
 11
84.0
 21
-391.0
 31
0.0
  0
LINE
  5
1EE
100
AcDbEntity
  8
0
 62
256
370
-1
 48
1.0
  6
BYLAYER
100
AcDbLine
 10
69.0
 20
-396.0
 30
0.0
 11
69.0
 21
-394.0
 31
0.0
  0
LINE
  5
1EF
100
AcDbEntity
  8
0
 62
256
370
-1
 48
1.0
  6
BYLAYER
100
AcDbLine
 10
50.9999999999999929
 20
-464.0
 30
0.0
 11
50.9999999999999929
 21
-466.0
 31
0.0
  0
LINE
  5
1F0
100
AcDbEntity
  8
0
 62
256
370
-1
 48
1.0
  6
BYLAYER
100
AcDbLine
 10
33.9999999999999929
 20
-469.0
 30
0.0
 11
35.9999999999999929
 21
-469.0
 31
0.0
  0
LINE
  5
1F1
100
AcDbEntity
  8
0
 62
256
370
-1
 48
1.0
  6
BYLAYER
100
AcDbLine
 10
38.9999999999999929
 20
-486.0
 30
0.0
 11
38.9999999999999929
 21
-484.0
 31
0.0
  0
LINE
  5
1F2
100
AcDbEntity
  8
0
 62
256
370
-1
 48
1.0
  6
BYLAYER
100
AcDbLine
 10
81.0
 20
-464.0
 30
0.0
 11
81.0
 21
-466.0
 31
0.0
  0
LINE
  5
1F3
100
AcDbEntity
  8
0
 62
256
370
-1
 48
1.0
  6
BYLAYER
100
AcDbLine
 10
86.0
 20
-481.0
 30
0.0
 11
84.0
 21
-481.0
 31
0.0
  0
LINE
  5
1F4
100
AcDbEntity
  8
0
 62
256
370
-1
 48
1.0
  6
BYLAYER
100
AcDbLine
 10
69.0
 20
-486.0
 30
0.0
 11
69.0
 21
-484.0
 31
0.0
  0
LINE
  5
1F5
100
AcDbEntity
  8
0
 62
256
370
-1
 48
1.0
  6
BYLAYER
100
AcDbLine
 10
50.9999999999999929
 20
-534.0
 30
0.0
 11
50.9999999999999929
 21
-536.0
 31
0.0
  0
LINE
  5
1F6
100
AcDbEntity
  8
0
 62
256
370
-1
 48
1.0
  6
BYLAYER
100
AcDbLine
 10
33.9999999999999929
 20
-539.0
 30
0.0
 11
35.9999999999999929
 21
-539.0
 31
0.0
  0
LINE
  5
1F7
100
AcDbEntity
  8
0
 62
256
370
-1
 48
1.0
  6
BYLAYER
100
AcDbLine
 10
38.9999999999999929
 20
-556.0
 30
0.0
 11
38.9999999999999929
 21
-554.0
 31
0.0
  0
LINE
  5
1F8
100
AcDbEntity
  8
0
 62
256
370
-1
 48
1.0
  6
BYLAYER
100
AcDbLine
 10
81.0
 20
-534.0
 30
0.0
 11
81.0
 21
-536.0
 31
0.0
  0
LINE
  5
1F9
100
AcDbEntity
  8
0
 62
256
370
-1
 48
1.0
  6
BYLAYER
100
AcDbLine
 10
86.0
 20
-551.0
 30
0.0
 11
84.0
 21
-551.0
 31
0.0
  0
LINE
  5
1FA
100
AcDbEntity
  8
0
 62
256
370
-1
 48
1.0
  6
BYLAYER
100
AcDbLine
 10
69.0
 20
-556.0
 30
0.0
 11
69.0
 21
-554.0
 31
0.0
  0
LINE
  5
1FB
100
AcDbEntity
  8
0
 62
256
370
-1
 48
1.0
  6
BYLAYER
100
AcDbLine
 10
50.9999999999999929
 20
-6.0
 30
0.0
 11
47.9999999999999929
 21
-9.0
 31
0.0
  0
LINE
  5
1FC
100
AcDbEntity
  8
0
 62
256
370
-1
 48
1.0
  6
BYLAYER
100
AcDbLine
 10
35.9999999999999929
 20
-9.0
 30
0.0
 11
38.9999999999999929
 21
-12.0
 31
0.0
  0
LINE
  5
1FD
100
AcDbEntity
  8
0
 62
256
370
-1
 48
1.0
  6
BYLAYER
100
AcDbLine
 10
38.9999999999999929
 20
-24.0
 30
0.0
 11
41.9999999999999929
 21
-21.0
 31
0.0
  0
LINE
  5
1FE
100
AcDbEntity
  8
0
 62
256
370
-1
 48
1.0
  6
BYLAYER
100
AcDbLine
 10
69.0
 20
-24.0
 30
0.0
 11
72.0
 21
-21.0
 31
0.0
  0
LINE
  5
1FF
100
AcDbEntity
  8
0
 62
256
370
-1
 48
1.0
  6
BYLAYER
100
AcDbLine
 10
81.0
 20
-6.0
 30
0.0
 11
78.0
 21
-9.0
 31
0.0
  0
LINE
  5
200
100
AcDbEntity
  8
0
 62
256
370
-1
 48
1.0
  6
BYLAYER
100
AcDbLine
 10
84.0
 20
-20.9999999999999858
 30
0.0
 11
81.0
 21
-18.0000000000000284
 31
0.0
  0
LINE
  5
201
100
AcDbEntity
  8
0
 62
256
370
-1
 48
1.0
  6
BYLAYER
100
AcDbLine
 10
50.9999999999999929
 20
-76.0
 30
0.0
 11
47.9999999999999929
 21
-79.0
 31
0.0
  0
LINE
  5
202
100
AcDbEntity
  8
0
 62
256
370
-1
 48
1.0
  6
BYLAYER
100
AcDbLine
 10
35.9999999999999929
 20
-79.0
 30
0.0
 11
38.9999999999999929
 21
-82.0
 31
0.0
  0
LINE
  5
203
100
AcDbEntity
  8
0
 62
256
370
-1
 48
1.0
  6
BYLAYER
100
AcDbLine
 10
38.9999999999999929
 20
-94.0
 30
0.0
 11
41.9999999999999929
 21
-91.0
 31
0.0
  0
LINE
  5
204
100
AcDbEntity
  8
0
 62
256
370
-1
 48
1.0
  6
BYLAYER
100
AcDbLine
 10
69.0
 20
-94.0
 30
0.0
 11
72.0
 21
-91.0
 31
0.0
  0
LINE
  5
205
100
AcDbEntity
  8
0
 62
256
370
-1
 48
1.0
  6
BYLAYER
100
AcDbLine
 10
81.0
 20
-76.0
 30
0.0
 11
78.0
 21
-79.0
 31
0.0
  0
LINE
  5
206
100
AcDbEntity
  8
0
 62
256
370
-1
 48
1.0
  6
BYLAYER
100
AcDbLine
 10
84.0
 20
-90.9999999999999858
 30
0.0
 11
81.0
 21
-88.0000000000000284
 31
0.0
  0
LINE
  5
207
100
AcDbEntity
  8
0
 62
256
370
-1
 48
1.0
  6
BYLAYER
100
AcDbLine
 10
50.9999999999999929
 20
-156.0
 30
0.0
 11
47.9999999999999929
 21
-159.0
 31
0.0
  0
LINE
  5
208
100
AcDbEntity
  8
0
 62
256
370
-1
 48
1.0
  6
BYLAYER
100
AcDbLine
 10
35.9999999999999929
 20
-159.0
 30
0.0
 11
38.9999999999999929
 21
-162.0
 31
0.0
  0
LINE
  5
209
100
AcDbEntity
  8
0
 62
256
370
-1
 48
1.0
  6
BYLAYER
100
AcDbLine
 10
38.9999999999999929
 20
-174.0
 30
0.0
 11
41.9999999999999929
 21
-171.0
 31
0.0
  0
LINE
  5
20A
100
AcDbEntity
  8
0
 62
256
370
-1
 48
1.0
  6
BYLAYER
100
AcDbLine
 10
69.0
 20
-174.0
 30
0.0
 11
72.0
 21
-171.0
 31
0.0
  0
LINE
  5
20B
100
AcDbEntity
  8
0
 62
256
370
-1
 48
1.0
  6
BYLAYER
100
AcDbLine
 10
81.0
 20
-156.0
 30
0.0
 11
78.0
 21
-159.0
 31
0.0
  0
LINE
  5
20C
100
AcDbEntity
  8
0
 62
256
370
-1
 48
1.0
  6
BYLAYER
100
AcDbLine
 10
84.0
 20
-171.0
 30
0.0
 11
81.0
 21
-168.0000000000000284
 31
0.0
  0
LINE
  5
20D
100
AcDbEntity
  8
0
 62
256
370
-1
 48
1.0
  6
BYLAYER
100
AcDbLine
 10
50.9999999999999929
 20
-226.0
 30
0.0
 11
47.9999999999999929
 21
-229.0
 31
0.0
  0
LINE
  5
20E
100
AcDbEntity
  8
0
 62
256
370
-1
 48
1.0
  6
BYLAYER
100
AcDbLine
 10
35.9999999999999929
 20
-229.0
 30
0.0
 11
38.9999999999999929
 21
-232.0
 31
0.0
  0
LINE
  5
20F
100
AcDbEntity
  8
0
 62
256
370
-1
 48
1.0
  6
BYLAYER
100
AcDbLine
 10
38.9999999999999929
 20
-244.0
 30
0.0
 11
41.9999999999999929
 21
-241.0
 31
0.0
  0
LINE
  5
210
100
AcDbEntity
  8
0
 62
256
370
-1
 48
1.0
  6
BYLAYER
100
AcDbLine
 10
69.0
 20
-244.0
 30
0.0
 11
72.0
 21
-241.0
 31
0.0
  0
LINE
  5
211
100
AcDbEntity
  8
0
 62
256
370
-1
 48
1.0
  6
BYLAYER
100
AcDbLine
 10
81.0
 20
-226.0
 30
0.0
 11
78.0
 21
-229.0
 31
0.0
  0
LINE
  5
212
100
AcDbEntity
  8
0
 62
256
370
-1
 48
1.0
  6
BYLAYER
100
AcDbLine
 10
84.0
 20
-241.0
 30
0.0
 11
81.0
 21
-238.0000000000000284
 31
0.0
  0
LINE
  5
213
100
AcDbEntity
  8
0
 62
256
370
-1
 48
1.0
  6
BYLAYER
100
AcDbLine
 10
50.9999999999999929
 20
-306.0
 30
0.0
 11
47.9999999999999929
 21
-309.0
 31
0.0
  0
LINE
  5
214
100
AcDbEntity
  8
0
 62
256
370
-1
 48
1.0
  6
BYLAYER
100
AcDbLine
 10
35.9999999999999929
 20
-309.0
 30
0.0
 11
38.9999999999999929
 21
-312.0
 31
0.0
  0
LINE
  5
215
100
AcDbEntity
  8
0
 62
256
370
-1
 48
1.0
  6
BYLAYER
100
AcDbLine
 10
38.9999999999999929
 20
-324.0
 30
0.0
 11
41.9999999999999929
 21
-321.0
 31
0.0
  0
LINE
  5
216
100
AcDbEntity
  8
0
 62
256
370
-1
 48
1.0
  6
BYLAYER
100
AcDbLine
 10
69.0
 20
-324.0
 30
0.0
 11
72.0
 21
-321.0
 31
0.0
  0
LINE
  5
217
100
AcDbEntity
  8
0
 62
256
370
-1
 48
1.0
  6
BYLAYER
100
AcDbLine
 10
81.0
 20
-306.0
 30
0.0
 11
78.0
 21
-309.0
 31
0.0
  0
LINE
  5
218
100
AcDbEntity
  8
0
 62
256
370
-1
 48
1.0
  6
BYLAYER
100
AcDbLine
 10
84.0
 20
-321.0
 30
0.0
 11
81.0
 21
-318.0
 31
0.0
  0
LINE
  5
219
100
AcDbEntity
  8
0
 62
256
370
-1
 48
1.0
  6
BYLAYER
100
AcDbLine
 10
50.9999999999999929
 20
-376.0
 30
0.0
 11
47.9999999999999929
 21
-379.0
 31
0.0
  0
LINE
  5
21A
100
AcDbEntity
  8
0
 62
256
370
-1
 48
1.0
  6
BYLAYER
100
AcDbLine
 10
35.9999999999999929
 20
-379.0
 30
0.0
 11
38.9999999999999929
 21
-382.0
 31
0.0
  0
LINE
  5
21B
100
AcDbEntity
  8
0
 62
256
370
-1
 48
1.0
  6
BYLAYER
100
AcDbLine
 10
38.9999999999999929
 20
-394.0
 30
0.0
 11
41.9999999999999929
 21
-391.0
 31
0.0
  0
LINE
  5
21C
100
AcDbEntity
  8
0
 62
256
370
-1
 48
1.0
  6
BYLAYER
100
AcDbLine
 10
69.0
 20
-394.0
 30
0.0
 11
72.0
 21
-391.0
 31
0.0
  0
LINE
  5
21D
100
AcDbEntity
  8
0
 62
256
370
-1
 48
1.0
  6
BYLAYER
100
AcDbLine
 10
81.0
 20
-376.0
 30
0.0
 11
78.0
 21
-379.0
 31
0.0
  0
LINE
  5
21E
100
AcDbEntity
  8
0
 62
256
370
-1
 48
1.0
  6
BYLAYER
100
AcDbLine
 10
84.0
 20
-391.0
 30
0.0
 11
81.0
 21
-388.0
 31
0.0
  0
LINE
  5
21F
100
AcDbEntity
  8
0
 62
256
370
-1
 48
1.0
  6
BYLAYER
100
AcDbLine
 10
50.9999999999999929
 20
-466.0
 30
0.0
 11
47.9999999999999929
 21
-469.0
 31
0.0
  0
LINE
  5
220
100
AcDbEntity
  8
0
 62
256
370
-1
 48
1.0
  6
BYLAYER
100
AcDbLine
 10
35.9999999999999929
 20
-469.0
 30
0.0
 11
38.9999999999999929
 21
-472.0
 31
0.0
  0
LINE
  5
221
100
AcDbEntity
  8
0
 62
256
370
-1
 48
1.0
  6
BYLAYER
100
AcDbLine
 10
38.9999999999999929
 20
-484.0
 30
0.0
 11
41.9999999999999929
 21
-481.0
 31
0.0
  0
LINE
  5
222
100
AcDbEntity
  8
0
 62
256
370
-1
 48
1.0
  6
BYLAYER
100
AcDbLine
 10
69.0
 20
-484.0
 30
0.0
 11
72.0
 21
-481.0
 31
0.0
  0
LINE
  5
223
100
AcDbEntity
  8
0
 62
256
370
-1
 48
1.0
  6
BYLAYER
100
AcDbLine
 10
81.0
 20
-466.0
 30
0.0
 11
78.0
 21
-469.0
 31
0.0
  0
LINE
  5
224
100
AcDbEntity
  8
0
 62
256
370
-1
 48
1.0
  6
BYLAYER
100
AcDbLine
 10
84.0
 20
-481.0
 30
0.0
 11
81.0
 21
-478.0
 31
0.0
  0
LINE
  5
225
100
AcDbEntity
  8
0
 62
256
370
-1
 48
1.0
  6
BYLAYER
100
AcDbLine
 10
50.9999999999999929
 20
-536.0
 30
0.0
 11
47.9999999999999929
 21
-539.0
 31
0.0
  0
LINE
  5
226
100
AcDbEntity
  8
0
 62
256
370
-1
 48
1.0
  6
BYLAYER
100
AcDbLine
 10
35.9999999999999929
 20
-539.0
 30
0.0
 11
38.9999999999999929
 21
-542.0
 31
0.0
  0
LINE
  5
227
100
AcDbEntity
  8
0
 62
256
370
-1
 48
1.0
  6
BYLAYER
100
AcDbLine
 10
38.9999999999999929
 20
-554.0
 30
0.0
 11
41.9999999999999929
 21
-551.0
 31
0.0
  0
LINE
  5
228
100
AcDbEntity
  8
0
 62
256
370
-1
 48
1.0
  6
BYLAYER
100
AcDbLine
 10
69.0
 20
-554.0
 30
0.0
 11
72.0
 21
-551.0
 31
0.0
  0
LINE
  5
229
100
AcDbEntity
  8
0
 62
256
370
-1
 48
1.0
  6
BYLAYER
100
AcDbLine
 10
81.0
 20
-536.0
 30
0.0
 11
78.0
 21
-539.0
 31
0.0
  0
LINE
  5
22A
100
AcDbEntity
  8
0
 62
256
370
-1
 48
1.0
  6
BYLAYER
100
AcDbLine
 10
84.0
 20
-551.0
 30
0.0
 11
81.0
 21
-548.0
 31
0.0
  0
LINE
  5
22B
100
AcDbEntity
  8
0
 62
256
370
-1
 48
1.0
  6
BYLAYER
100
AcDbLine
 10
47.9999999999999929
 20
-9.0
 30
0.0
 11
41.9999999999999929
 21
-9.0
 31
0.0
  0
LINE
  5
22C
100
AcDbEntity
  8
0
 62
256
370
-1
 48
1.0
  6
BYLAYER
100
AcDbLine
 10
38.9999999999999929
 20
-12.0
 30
0.0
 11
38.9999999999999929
 21
-18.0
 31
0.0
  0
LINE
  5
22D
100
AcDbEntity
  8
0
 62
256
370
-1
 48
1.0
  6
BYLAYER
100
AcDbLine
 10
41.9999999999999929
 20
-21.0
 30
0.0
 11
47.9999999999999929
 21
-21.0
 31
0.0
  0
LINE
  5
22E
100
AcDbEntity
  8
0
 62
256
370
-1
 48
1.0
  6
BYLAYER
100
AcDbLine
 10
50.9999999999999929
 20
-18.0
 30
0.0
 11
50.9999999999999929
 21
-12.0
 31
0.0
  0
LINE
  5
22F
100
AcDbEntity
  8
0
 62
256
370
-1
 48
1.0
  6
BYLAYER
100
AcDbLine
 10
72.0
 20
-21.0
 30
0.0
 11
78.0
 21
-21.0
 31
0.0
  0
LINE
  5
230
100
AcDbEntity
  8
0
 62
256
370
-1
 48
1.0
  6
BYLAYER
100
AcDbLine
 10
69.0
 20
-12.0
 30
0.0
 11
69.0
 21
-18.0
 31
0.0
  0
LINE
  5
231
100
AcDbEntity
  8
0
 62
256
370
-1
 48
1.0
  6
BYLAYER
100
AcDbLine
 10
78.0
 20
-9.0
 30
0.0
 11
72.0
 21
-9.0
 31
0.0
  0
LINE
  5
232
100
AcDbEntity
  8
0
 62
256
370
-1
 48
1.0
  6
BYLAYER
100
AcDbLine
 10
81.0
 20
-18.0000000000000284
 30
0.0
 11
81.0
 21
-11.9999999999999858
 31
0.0
  0
LINE
  5
233
100
AcDbEntity
  8
0
 62
256
370
-1
 48
1.0
  6
BYLAYER
100
AcDbLine
 10
47.9999999999999929
 20
-79.0
 30
0.0
 11
41.9999999999999929
 21
-79.0
 31
0.0
  0
LINE
  5
234
100
AcDbEntity
  8
0
 62
256
370
-1
 48
1.0
  6
BYLAYER
100
AcDbLine
 10
38.9999999999999929
 20
-82.0
 30
0.0
 11
38.9999999999999929
 21
-88.0
 31
0.0
  0
LINE
  5
235
100
AcDbEntity
  8
0
 62
256
370
-1
 48
1.0
  6
BYLAYER
100
AcDbLine
 10
41.9999999999999929
 20
-91.0
 30
0.0
 11
47.9999999999999929
 21
-91.0
 31
0.0
  0
LINE
  5
236
100
AcDbEntity
  8
0
 62
256
370
-1
 48
1.0
  6
BYLAYER
100
AcDbLine
 10
50.9999999999999929
 20
-88.0
 30
0.0
 11
50.9999999999999929
 21
-82.0
 31
0.0
  0
LINE
  5
237
100
AcDbEntity
  8
0
 62
256
370
-1
 48
1.0
  6
BYLAYER
100
AcDbLine
 10
72.0
 20
-91.0
 30
0.0
 11
78.0
 21
-91.0
 31
0.0
  0
LINE
  5
238
100
AcDbEntity
  8
0
 62
256
370
-1
 48
1.0
  6
BYLAYER
100
AcDbLine
 10
69.0
 20
-82.0
 30
0.0
 11
69.0
 21
-88.0
 31
0.0
  0
LINE
  5
239
100
AcDbEntity
  8
0
 62
256
370
-1
 48
1.0
  6
BYLAYER
100
AcDbLine
 10
78.0
 20
-79.0
 30
0.0
 11
72.0
 21
-79.0
 31
0.0
  0
LINE
  5
23A
100
AcDbEntity
  8
0
 62
256
370
-1
 48
1.0
  6
BYLAYER
100
AcDbLine
 10
81.0
 20
-88.0000000000000284
 30
0.0
 11
81.0
 21
-81.9999999999999858
 31
0.0
  0
LINE
  5
23B
100
AcDbEntity
  8
0
 62
256
370
-1
 48
1.0
  6
BYLAYER
100
AcDbLine
 10
47.9999999999999929
 20
-159.0
 30
0.0
 11
41.9999999999999929
 21
-159.0
 31
0.0
  0
LINE
  5
23C
100
AcDbEntity
  8
0
 62
256
370
-1
 48
1.0
  6
BYLAYER
100
AcDbLine
 10
38.9999999999999929
 20
-162.0
 30
0.0
 11
38.9999999999999929
 21
-168.0
 31
0.0
  0
LINE
  5
23D
100
AcDbEntity
  8
0
 62
256
370
-1
 48
1.0
  6
BYLAYER
100
AcDbLine
 10
41.9999999999999929
 20
-171.0
 30
0.0
 11
47.9999999999999929
 21
-171.0
 31
0.0
  0
LINE
  5
23E
100
AcDbEntity
  8
0
 62
256
370
-1
 48
1.0
  6
BYLAYER
100
AcDbLine
 10
50.9999999999999929
 20
-168.0
 30
0.0
 11
50.9999999999999929
 21
-162.0
 31
0.0
  0
LINE
  5
23F
100
AcDbEntity
  8
0
 62
256
370
-1
 48
1.0
  6
BYLAYER
100
AcDbLine
 10
72.0
 20
-171.0
 30
0.0
 11
78.0
 21
-171.0
 31
0.0
  0
LINE
  5
240
100
AcDbEntity
  8
0
 62
256
370
-1
 48
1.0
  6
BYLAYER
100
AcDbLine
 10
69.0
 20
-162.0
 30
0.0
 11
69.0
 21
-168.0
 31
0.0
  0
LINE
  5
241
100
AcDbEntity
  8
0
 62
256
370
-1
 48
1.0
  6
BYLAYER
100
AcDbLine
 10
78.0
 20
-159.0
 30
0.0
 11
72.0
 21
-159.0
 31
0.0
  0
LINE
  5
242
100
AcDbEntity
  8
0
 62
256
370
-1
 48
1.0
  6
BYLAYER
100
AcDbLine
 10
81.0
 20
-168.0000000000000284
 30
0.0
 11
81.0
 21
-162.0
 31
0.0
  0
LINE
  5
243
100
AcDbEntity
  8
0
 62
256
370
-1
 48
1.0
  6
BYLAYER
100
AcDbLine
 10
47.9999999999999929
 20
-229.0
 30
0.0
 11
41.9999999999999929
 21
-229.0
 31
0.0
  0
LINE
  5
244
100
AcDbEntity
  8
0
 62
256
370
-1
 48
1.0
  6
BYLAYER
100
AcDbLine
 10
38.9999999999999929
 20
-232.0
 30
0.0
 11
38.9999999999999929
 21
-238.0
 31
0.0
  0
LINE
  5
245
100
AcDbEntity
  8
0
 62
256
370
-1
 48
1.0
  6
BYLAYER
100
AcDbLine
 10
41.9999999999999929
 20
-241.0
 30
0.0
 11
47.9999999999999929
 21
-241.0
 31
0.0
  0
LINE
  5
246
100
AcDbEntity
  8
0
 62
256
370
-1
 48
1.0
  6
BYLAYER
100
AcDbLine
 10
50.9999999999999929
 20
-238.0
 30
0.0
 11
50.9999999999999929
 21
-232.0
 31
0.0
  0
LINE
  5
247
100
AcDbEntity
  8
0
 62
256
370
-1
 48
1.0
  6
BYLAYER
100
AcDbLine
 10
72.0
 20
-241.0
 30
0.0
 11
78.0
 21
-241.0
 31
0.0
  0
LINE
  5
248
100
AcDbEntity
  8
0
 62
256
370
-1
 48
1.0
  6
BYLAYER
100
AcDbLine
 10
69.0
 20
-232.0
 30
0.0
 11
69.0
 21
-238.0
 31
0.0
  0
LINE
  5
249
100
AcDbEntity
  8
0
 62
256
370
-1
 48
1.0
  6
BYLAYER
100
AcDbLine
 10
78.0
 20
-229.0
 30
0.0
 11
72.0
 21
-229.0
 31
0.0
  0
LINE
  5
24A
100
AcDbEntity
  8
0
 62
256
370
-1
 48
1.0
  6
BYLAYER
100
AcDbLine
 10
81.0
 20
-238.0000000000000284
 30
0.0
 11
81.0
 21
-232.0
 31
0.0
  0
LINE
  5
24B
100
AcDbEntity
  8
0
 62
256
370
-1
 48
1.0
  6
BYLAYER
100
AcDbLine
 10
47.9999999999999929
 20
-309.0
 30
0.0
 11
41.9999999999999929
 21
-309.0
 31
0.0
  0
LINE
  5
24C
100
AcDbEntity
  8
0
 62
256
370
-1
 48
1.0
  6
BYLAYER
100
AcDbLine
 10
38.9999999999999929
 20
-312.0
 30
0.0
 11
38.9999999999999929
 21
-318.0
 31
0.0
  0
LINE
  5
24D
100
AcDbEntity
  8
0
 62
256
370
-1
 48
1.0
  6
BYLAYER
100
AcDbLine
 10
41.9999999999999929
 20
-321.0
 30
0.0
 11
47.9999999999999929
 21
-321.0
 31
0.0
  0
LINE
  5
24E
100
AcDbEntity
  8
0
 62
256
370
-1
 48
1.0
  6
BYLAYER
100
AcDbLine
 10
50.9999999999999929
 20
-318.0
 30
0.0
 11
50.9999999999999929
 21
-312.0
 31
0.0
  0
LINE
  5
24F
100
AcDbEntity
  8
0
 62
256
370
-1
 48
1.0
  6
BYLAYER
100
AcDbLine
 10
72.0
 20
-321.0
 30
0.0
 11
78.0
 21
-321.0
 31
0.0
  0
LINE
  5
250
100
AcDbEntity
  8
0
 62
256
370
-1
 48
1.0
  6
BYLAYER
100
AcDbLine
 10
69.0
 20
-312.0
 30
0.0
 11
69.0
 21
-318.0
 31
0.0
  0
LINE
  5
251
100
AcDbEntity
  8
0
 62
256
370
-1
 48
1.0
  6
BYLAYER
100
AcDbLine
 10
78.0
 20
-309.0
 30
0.0
 11
72.0
 21
-309.0
 31
0.0
  0
LINE
  5
252
100
AcDbEntity
  8
0
 62
256
370
-1
 48
1.0
  6
BYLAYER
100
AcDbLine
 10
81.0
 20
-318.0
 30
0.0
 11
81.0
 21
-312.0
 31
0.0
  0
LINE
  5
253
100
AcDbEntity
  8
0
 62
256
370
-1
 48
1.0
  6
BYLAYER
100
AcDbLine
 10
47.9999999999999929
 20
-379.0
 30
0.0
 11
41.9999999999999929
 21
-379.0
 31
0.0
  0
LINE
  5
254
100
AcDbEntity
  8
0
 62
256
370
-1
 48
1.0
  6
BYLAYER
100
AcDbLine
 10
38.9999999999999929
 20
-382.0
 30
0.0
 11
38.9999999999999929
 21
-388.0
 31
0.0
  0
LINE
  5
255
100
AcDbEntity
  8
0
 62
256
370
-1
 48
1.0
  6
BYLAYER
100
AcDbLine
 10
41.9999999999999929
 20
-391.0
 30
0.0
 11
47.9999999999999929
 21
-391.0
 31
0.0
  0
LINE
  5
256
100
AcDbEntity
  8
0
 62
256
370
-1
 48
1.0
  6
BYLAYER
100
AcDbLine
 10
50.9999999999999929
 20
-388.0
 30
0.0
 11
50.9999999999999929
 21
-382.0
 31
0.0
  0
LINE
  5
257
100
AcDbEntity
  8
0
 62
256
370
-1
 48
1.0
  6
BYLAYER
100
AcDbLine
 10
72.0
 20
-391.0
 30
0.0
 11
78.0
 21
-391.0
 31
0.0
  0
LINE
  5
258
100
AcDbEntity
  8
0
 62
256
370
-1
 48
1.0
  6
BYLAYER
100
AcDbLine
 10
69.0
 20
-382.0
 30
0.0
 11
69.0
 21
-388.0
 31
0.0
  0
LINE
  5
259
100
AcDbEntity
  8
0
 62
256
370
-1
 48
1.0
  6
BYLAYER
100
AcDbLine
 10
78.0
 20
-379.0
 30
0.0
 11
72.0
 21
-379.0
 31
0.0
  0
LINE
  5
25A
100
AcDbEntity
  8
0
 62
256
370
-1
 48
1.0
  6
BYLAYER
100
AcDbLine
 10
81.0
 20
-388.0
 30
0.0
 11
81.0
 21
-382.0
 31
0.0
  0
LINE
  5
25B
100
AcDbEntity
  8
0
 62
256
370
-1
 48
1.0
  6
BYLAYER
100
AcDbLine
 10
47.9999999999999929
 20
-469.0
 30
0.0
 11
41.9999999999999929
 21
-469.0
 31
0.0
  0
LINE
  5
25C
100
AcDbEntity
  8
0
 62
256
370
-1
 48
1.0
  6
BYLAYER
100
AcDbLine
 10
38.9999999999999929
 20
-472.0
 30
0.0
 11
38.9999999999999929
 21
-478.0
 31
0.0
  0
LINE
  5
25D
100
AcDbEntity
  8
0
 62
256
370
-1
 48
1.0
  6
BYLAYER
100
AcDbLine
 10
41.9999999999999929
 20
-481.0
 30
0.0
 11
47.9999999999999929
 21
-481.0
 31
0.0
  0
LINE
  5
25E
100
AcDbEntity
  8
0
 62
256
370
-1
 48
1.0
  6
BYLAYER
100
AcDbLine
 10
50.9999999999999929
 20
-478.0
 30
0.0
 11
50.9999999999999929
 21
-472.0
 31
0.0
  0
LINE
  5
25F
100
AcDbEntity
  8
0
 62
256
370
-1
 48
1.0
  6
BYLAYER
100
AcDbLine
 10
72.0
 20
-481.0
 30
0.0
 11
78.0
 21
-481.0
 31
0.0
  0
LINE
  5
260
100
AcDbEntity
  8
0
 62
256
370
-1
 48
1.0
  6
BYLAYER
100
AcDbLine
 10
69.0
 20
-472.0
 30
0.0
 11
69.0
 21
-478.0
 31
0.0
  0
LINE
  5
261
100
AcDbEntity
  8
0
 62
256
370
-1
 48
1.0
  6
BYLAYER
100
AcDbLine
 10
78.0
 20
-469.0
 30
0.0
 11
72.0
 21
-469.0
 31
0.0
  0
LINE
  5
262
100
AcDbEntity
  8
0
 62
256
370
-1
 48
1.0
  6
BYLAYER
100
AcDbLine
 10
81.0
 20
-478.0
 30
0.0
 11
81.0
 21
-472.0
 31
0.0
  0
LINE
  5
263
100
AcDbEntity
  8
0
 62
256
370
-1
 48
1.0
  6
BYLAYER
100
AcDbLine
 10
47.9999999999999929
 20
-539.0
 30
0.0
 11
41.9999999999999929
 21
-539.0
 31
0.0
  0
LINE
  5
264
100
AcDbEntity
  8
0
 62
256
370
-1
 48
1.0
  6
BYLAYER
100
AcDbLine
 10
38.9999999999999929
 20
-542.0
 30
0.0
 11
38.9999999999999929
 21
-548.0
 31
0.0
  0
LINE
  5
265
100
AcDbEntity
  8
0
 62
256
370
-1
 48
1.0
  6
BYLAYER
100
AcDbLine
 10
41.9999999999999929
 20
-551.0
 30
0.0
 11
47.9999999999999929
 21
-551.0
 31
0.0
  0
LINE
  5
266
100
AcDbEntity
  8
0
 62
256
370
-1
 48
1.0
  6
BYLAYER
100
AcDbLine
 10
50.9999999999999929
 20
-548.0
 30
0.0
 11
50.9999999999999929
 21
-542.0
 31
0.0
  0
LINE
  5
267
100
AcDbEntity
  8
0
 62
256
370
-1
 48
1.0
  6
BYLAYER
100
AcDbLine
 10
72.0
 20
-551.0
 30
0.0
 11
78.0
 21
-551.0
 31
0.0
  0
LINE
  5
268
100
AcDbEntity
  8
0
 62
256
370
-1
 48
1.0
  6
BYLAYER
100
AcDbLine
 10
69.0
 20
-542.0
 30
0.0
 11
69.0
 21
-548.0
 31
0.0
  0
LINE
  5
269
100
AcDbEntity
  8
0
 62
256
370
-1
 48
1.0
  6
BYLAYER
100
AcDbLine
 10
78.0
 20
-539.0
 30
0.0
 11
72.0
 21
-539.0
 31
0.0
  0
LINE
  5
26A
100
AcDbEntity
  8
0
 62
256
370
-1
 48
1.0
  6
BYLAYER
100
AcDbLine
 10
81.0
 20
-548.0
 30
0.0
 11
81.0
 21
-542.0
 31
0.0
  0
LINE
  5
26B
100
AcDbEntity
  8
0
 62
256
370
-1
 48
1.0
  6
BYLAYER
100
AcDbLine
 10
38.9999999999999929
 20
-18.0
 30
0.0
 11
35.9999999999999929
 21
-21.0
 31
0.0
  0
LINE
  5
26C
100
AcDbEntity
  8
0
 62
256
370
-1
 48
1.0
  6
BYLAYER
100
AcDbLine
 10
47.9999999999999929
 20
-21.0
 30
0.0
 11
50.9999999999999858
 21
-24.0
 31
0.0
  0
LINE
  5
26D
100
AcDbEntity
  8
0
 62
256
370
-1
 48
1.0
  6
BYLAYER
100
AcDbLine
 10
41.9999999999999858
 20
-9.0
 30
0.0
 11
39.0
 21
-6.0
 31
0.0
  0
LINE
  5
26E
100
AcDbEntity
  8
0
 62
256
370
-1
 48
1.0
  6
BYLAYER
100
AcDbLine
 10
72.0
 20
-9.0
 30
0.0
 11
69.0
 21
-6.0
 31
0.0
  0
LINE
  5
26F
100
AcDbEntity
  8
0
 62
256
370
-1
 48
1.0
  6
BYLAYER
100
AcDbLine
 10
81.0
 20
-11.9999999999999858
 30
0.0
 11
84.0
 21
-9.0000000000000284
 31
0.0
  0
LINE
  5
270
100
AcDbEntity
  8
0
 62
256
370
-1
 48
1.0
  6
BYLAYER
100
AcDbLine
 10
78.0
 20
-21.0
 30
0.0
 11
81.0
 21
-24.0
 31
0.0
  0
LINE
  5
271
100
AcDbEntity
  8
0
 62
256
370
-1
 48
1.0
  6
BYLAYER
100
AcDbLine
 10
38.9999999999999929
 20
-88.0
 30
0.0
 11
35.9999999999999929
 21
-91.0
 31
0.0
  0
LINE
  5
272
100
AcDbEntity
  8
0
 62
256
370
-1
 48
1.0
  6
BYLAYER
100
AcDbLine
 10
47.9999999999999929
 20
-91.0
 30
0.0
 11
50.9999999999999858
 21
-94.0
 31
0.0
  0
LINE
  5
273
100
AcDbEntity
  8
0
 62
256
370
-1
 48
1.0
  6
BYLAYER
100
AcDbLine
 10
41.9999999999999858
 20
-79.0
 30
0.0
 11
39.0
 21
-76.0
 31
0.0
  0
LINE
  5
274
100
AcDbEntity
  8
0
 62
256
370
-1
 48
1.0
  6
BYLAYER
100
AcDbLine
 10
72.0
 20
-79.0
 30
0.0
 11
69.0
 21
-76.0
 31
0.0
  0
LINE
  5
275
100
AcDbEntity
  8
0
 62
256
370
-1
 48
1.0
  6
BYLAYER
100
AcDbLine
 10
81.0
 20
-81.9999999999999858
 30
0.0
 11
84.0
 21
-79.0000000000000284
 31
0.0
  0
LINE
  5
276
100
AcDbEntity
  8
0
 62
256
370
-1
 48
1.0
  6
BYLAYER
100
AcDbLine
 10
78.0
 20
-91.0
 30
0.0
 11
81.0
 21
-94.0
 31
0.0
  0
LINE
  5
277
100
AcDbEntity
  8
0
 62
256
370
-1
 48
1.0
  6
BYLAYER
100
AcDbLine
 10
38.9999999999999929
 20
-168.0
 30
0.0
 11
35.9999999999999929
 21
-171.0
 31
0.0
  0
LINE
  5
278
100
AcDbEntity
  8
0
 62
256
370
-1
 48
1.0
  6
BYLAYER
100
AcDbLine
 10
47.9999999999999929
 20
-171.0
 30
0.0
 11
50.9999999999999858
 21
-174.0
 31
0.0
  0
LINE
  5
279
100
AcDbEntity
  8
0
 62
256
370
-1
 48
1.0
  6
BYLAYER
100
AcDbLine
 10
41.9999999999999858
 20
-159.0
 30
0.0
 11
39.0
 21
-156.0
 31
0.0
  0
LINE
  5
27A
100
AcDbEntity
  8
0
 62
256
370
-1
 48
1.0
  6
BYLAYER
100
AcDbLine
 10
72.0
 20
-159.0
 30
0.0
 11
69.0
 21
-156.0
 31
0.0
  0
LINE
  5
27B
100
AcDbEntity
  8
0
 62
256
370
-1
 48
1.0
  6
BYLAYER
100
AcDbLine
 10
81.0
 20
-162.0
 30
0.0
 11
84.0
 21
-159.0000000000000284
 31
0.0
  0
LINE
  5
27C
100
AcDbEntity
  8
0
 62
256
370
-1
 48
1.0
  6
BYLAYER
100
AcDbLine
 10
78.0
 20
-171.0
 30
0.0
 11
81.0
 21
-174.0
 31
0.0
  0
LINE
  5
27D
100
AcDbEntity
  8
0
 62
256
370
-1
 48
1.0
  6
BYLAYER
100
AcDbLine
 10
38.9999999999999929
 20
-238.0
 30
0.0
 11
35.9999999999999929
 21
-241.0
 31
0.0
  0
LINE
  5
27E
100
AcDbEntity
  8
0
 62
256
370
-1
 48
1.0
  6
BYLAYER
100
AcDbLine
 10
47.9999999999999929
 20
-241.0
 30
0.0
 11
50.9999999999999858
 21
-244.0
 31
0.0
  0
LINE
  5
27F
100
AcDbEntity
  8
0
 62
256
370
-1
 48
1.0
  6
BYLAYER
100
AcDbLine
 10
41.9999999999999858
 20
-229.0
 30
0.0
 11
39.0
 21
-226.0
 31
0.0
  0
LINE
  5
280
100
AcDbEntity
  8
0
 62
256
370
-1
 48
1.0
  6
BYLAYER
100
AcDbLine
 10
72.0
 20
-229.0
 30
0.0
 11
69.0
 21
-226.0
 31
0.0
  0
LINE
  5
281
100
AcDbEntity
  8
0
 62
256
370
-1
 48
1.0
  6
BYLAYER
100
AcDbLine
 10
81.0
 20
-232.0
 30
0.0
 11
84.0
 21
-229.0000000000000284
 31
0.0
  0
LINE
  5
282
100
AcDbEntity
  8
0
 62
256
370
-1
 48
1.0
  6
BYLAYER
100
AcDbLine
 10
78.0
 20
-241.0
 30
0.0
 11
81.0
 21
-244.0
 31
0.0
  0
LINE
  5
283
100
AcDbEntity
  8
0
 62
256
370
-1
 48
1.0
  6
BYLAYER
100
AcDbLine
 10
38.9999999999999929
 20
-318.0
 30
0.0
 11
35.9999999999999929
 21
-321.0
 31
0.0
  0
LINE
  5
284
100
AcDbEntity
  8
0
 62
256
370
-1
 48
1.0
  6
BYLAYER
100
AcDbLine
 10
47.9999999999999929
 20
-321.0
 30
0.0
 11
50.9999999999999858
 21
-324.0
 31
0.0
  0
LINE
  5
285
100
AcDbEntity
  8
0
 62
256
370
-1
 48
1.0
  6
BYLAYER
100
AcDbLine
 10
41.9999999999999858
 20
-309.0
 30
0.0
 11
39.0
 21
-306.0
 31
0.0
  0
LINE
  5
286
100
AcDbEntity
  8
0
 62
256
370
-1
 48
1.0
  6
BYLAYER
100
AcDbLine
 10
72.0
 20
-309.0
 30
0.0
 11
69.0
 21
-306.0
 31
0.0
  0
LINE
  5
287
100
AcDbEntity
  8
0
 62
256
370
-1
 48
1.0
  6
BYLAYER
100
AcDbLine
 10
81.0
 20
-312.0
 30
0.0
 11
84.0
 21
-309.0
 31
0.0
  0
LINE
  5
288
100
AcDbEntity
  8
0
 62
256
370
-1
 48
1.0
  6
BYLAYER
100
AcDbLine
 10
78.0
 20
-321.0
 30
0.0
 11
81.0
 21
-324.0
 31
0.0
  0
LINE
  5
289
100
AcDbEntity
  8
0
 62
256
370
-1
 48
1.0
  6
BYLAYER
100
AcDbLine
 10
38.9999999999999929
 20
-388.0
 30
0.0
 11
35.9999999999999929
 21
-391.0
 31
0.0
  0
LINE
  5
28A
100
AcDbEntity
  8
0
 62
256
370
-1
 48
1.0
  6
BYLAYER
100
AcDbLine
 10
47.9999999999999929
 20
-391.0
 30
0.0
 11
50.9999999999999858
 21
-394.0
 31
0.0
  0
LINE
  5
28B
100
AcDbEntity
  8
0
 62
256
370
-1
 48
1.0
  6
BYLAYER
100
AcDbLine
 10
41.9999999999999858
 20
-379.0
 30
0.0
 11
39.0
 21
-376.0
 31
0.0
  0
LINE
  5
28C
100
AcDbEntity
  8
0
 62
256
370
-1
 48
1.0
  6
BYLAYER
100
AcDbLine
 10
72.0
 20
-379.0
 30
0.0
 11
69.0
 21
-376.0
 31
0.0
  0
LINE
  5
28D
100
AcDbEntity
  8
0
 62
256
370
-1
 48
1.0
  6
BYLAYER
100
AcDbLine
 10
81.0
 20
-382.0
 30
0.0
 11
84.0
 21
-379.0
 31
0.0
  0
LINE
  5
28E
100
AcDbEntity
  8
0
 62
256
370
-1
 48
1.0
  6
BYLAYER
100
AcDbLine
 10
78.0
 20
-391.0
 30
0.0
 11
81.0
 21
-394.0
 31
0.0
  0
LINE
  5
28F
100
AcDbEntity
  8
0
 62
256
370
-1
 48
1.0
  6
BYLAYER
100
AcDbLine
 10
38.9999999999999929
 20
-478.0
 30
0.0
 11
35.9999999999999929
 21
-481.0
 31
0.0
  0
LINE
  5
290
100
AcDbEntity
  8
0
 62
256
370
-1
 48
1.0
  6
BYLAYER
100
AcDbLine
 10
47.9999999999999929
 20
-481.0
 30
0.0
 11
50.9999999999999858
 21
-484.0
 31
0.0
  0
LINE
  5
291
100
AcDbEntity
  8
0
 62
256
370
-1
 48
1.0
  6
BYLAYER
100
AcDbLine
 10
41.9999999999999858
 20
-469.0
 30
0.0
 11
39.0
 21
-466.0
 31
0.0
  0
LINE
  5
292
100
AcDbEntity
  8
0
 62
256
370
-1
 48
1.0
  6
BYLAYER
100
AcDbLine
 10
72.0
 20
-469.0
 30
0.0
 11
69.0
 21
-466.0
 31
0.0
  0
LINE
  5
293
100
AcDbEntity
  8
0
 62
256
370
-1
 48
1.0
  6
BYLAYER
100
AcDbLine
 10
81.0
 20
-472.0
 30
0.0
 11
84.0
 21
-469.0
 31
0.0
  0
LINE
  5
294
100
AcDbEntity
  8
0
 62
256
370
-1
 48
1.0
  6
BYLAYER
100
AcDbLine
 10
78.0
 20
-481.0
 30
0.0
 11
81.0
 21
-484.0
 31
0.0
  0
LINE
  5
295
100
AcDbEntity
  8
0
 62
256
370
-1
 48
1.0
  6
BYLAYER
100
AcDbLine
 10
38.9999999999999929
 20
-548.0
 30
0.0
 11
35.9999999999999929
 21
-551.0
 31
0.0
  0
LINE
  5
296
100
AcDbEntity
  8
0
 62
256
370
-1
 48
1.0
  6
BYLAYER
100
AcDbLine
 10
47.9999999999999929
 20
-551.0
 30
0.0
 11
50.9999999999999858
 21
-554.0
 31
0.0
  0
LINE
  5
297
100
AcDbEntity
  8
0
 62
256
370
-1
 48
1.0
  6
BYLAYER
100
AcDbLine
 10
41.9999999999999858
 20
-539.0
 30
0.0
 11
39.0
 21
-536.0
 31
0.0
  0
LINE
  5
298
100
AcDbEntity
  8
0
 62
256
370
-1
 48
1.0
  6
BYLAYER
100
AcDbLine
 10
72.0
 20
-539.0
 30
0.0
 11
69.0
 21
-536.0
 31
0.0
  0
LINE
  5
299
100
AcDbEntity
  8
0
 62
256
370
-1
 48
1.0
  6
BYLAYER
100
AcDbLine
 10
81.0
 20
-542.0
 30
0.0
 11
84.0
 21
-539.0
 31
0.0
  0
LINE
  5
29A
100
AcDbEntity
  8
0
 62
256
370
-1
 48
1.0
  6
BYLAYER
100
AcDbLine
 10
78.0
 20
-551.0
 30
0.0
 11
81.0
 21
-554.0
 31
0.0
  0
LINE
  5
29B
100
AcDbEntity
  8
0
 62
256
370
-1
 48
1.0
  6
BYLAYER
100
AcDbLine
 10
35.9999999999999929
 20
-21.0
 30
0.0
 11
33.9999999999999929
 21
-21.0
 31
0.0
  0
LINE
  5
29C
100
AcDbEntity
  8
0
 62
256
370
-1
 48
1.0
  6
BYLAYER
100
AcDbLine
 10
50.9999999999999858
 20
-24.0
 30
0.0
 11
50.9999999999999929
 21
-26.0
 31
0.0
  0
LINE
  5
29D
100
AcDbEntity
  8
0
 62
256
370
-1
 48
1.0
  6
BYLAYER
100
AcDbLine
 10
39.0
 20
-6.0
 30
0.0
 11
39.0
 21
-4.0
 31
0.0
  0
LINE
  5
29E
100
AcDbEntity
  8
0
 62
256
370
-1
 48
1.0
  6
BYLAYER
100
AcDbLine
 10
69.0
 20
-6.0
 30
0.0
 11
69.0
 21
-4.0
 31
0.0
  0
LINE
  5
29F
100
AcDbEntity
  8
0
 62
256
370
-1
 48
1.0
  6
BYLAYER
100
AcDbLine
 10
84.0
 20
-9.0000000000000284
 30
0.0
 11
86.0
 21
-9.0000000000000284
 31
0.0
  0
LINE
  5
2A0
100
AcDbEntity
  8
0
 62
256
370
-1
 48
1.0
  6
BYLAYER
100
AcDbLine
 10
81.0
 20
-24.0
 30
0.0
 11
81.0
 21
-26.0
 31
0.0
  0
LINE
  5
2A1
100
AcDbEntity
  8
0
 62
256
370
-1
 48
1.0
  6
BYLAYER
100
AcDbLine
 10
35.9999999999999929
 20
-91.0
 30
0.0
 11
33.9999999999999929
 21
-91.0
 31
0.0
  0
LINE
  5
2A2
100
AcDbEntity
  8
0
 62
256
370
-1
 48
1.0
  6
BYLAYER
100
AcDbLine
 10
50.9999999999999858
 20
-94.0
 30
0.0
 11
50.9999999999999929
 21
-96.0
 31
0.0
  0
LINE
  5
2A3
100
AcDbEntity
  8
0
 62
256
370
-1
 48
1.0
  6
BYLAYER
100
AcDbLine
 10
39.0
 20
-76.0
 30
0.0
 11
39.0
 21
-74.0
 31
0.0
  0
LINE
  5
2A4
100
AcDbEntity
  8
0
 62
256
370
-1
 48
1.0
  6
BYLAYER
100
AcDbLine
 10
69.0
 20
-76.0
 30
0.0
 11
69.0
 21
-74.0
 31
0.0
  0
LINE
  5
2A5
100
AcDbEntity
  8
0
 62
256
370
-1
 48
1.0
  6
BYLAYER
100
AcDbLine
 10
84.0
 20
-79.0000000000000284
 30
0.0
 11
86.0
 21
-79.0000000000000284
 31
0.0
  0
LINE
  5
2A6
100
AcDbEntity
  8
0
 62
256
370
-1
 48
1.0
  6
BYLAYER
100
AcDbLine
 10
81.0
 20
-94.0
 30
0.0
 11
81.0
 21
-96.0
 31
0.0
  0
LINE
  5
2A7
100
AcDbEntity
  8
0
 62
256
370
-1
 48
1.0
  6
BYLAYER
100
AcDbLine
 10
35.9999999999999929
 20
-171.0
 30
0.0
 11
33.9999999999999929
 21
-171.0
 31
0.0
  0
LINE
  5
2A8
100
AcDbEntity
  8
0
 62
256
370
-1
 48
1.0
  6
BYLAYER
100
AcDbLine
 10
50.9999999999999858
 20
-174.0
 30
0.0
 11
50.9999999999999929
 21
-176.0
 31
0.0
  0
LINE
  5
2A9
100
AcDbEntity
  8
0
 62
256
370
-1
 48
1.0
  6
BYLAYER
100
AcDbLine
 10
39.0
 20
-156.0
 30
0.0
 11
39.0
 21
-154.0
 31
0.0
  0
LINE
  5
2AA
100
AcDbEntity
  8
0
 62
256
370
-1
 48
1.0
  6
BYLAYER
100
AcDbLine
 10
69.0
 20
-156.0
 30
0.0
 11
69.0
 21
-154.0
 31
0.0
  0
LINE
  5
2AB
100
AcDbEntity
  8
0
 62
256
370
-1
 48
1.0
  6
BYLAYER
100
AcDbLine
 10
84.0
 20
-159.0000000000000284
 30
0.0
 11
86.0
 21
-159.0000000000000284
 31
0.0
  0
LINE
  5
2AC
100
AcDbEntity
  8
0
 62
256
370
-1
 48
1.0
  6
BYLAYER
100
AcDbLine
 10
81.0
 20
-174.0
 30
0.0
 11
81.0
 21
-176.0
 31
0.0
  0
LINE
  5
2AD
100
AcDbEntity
  8
0
 62
256
370
-1
 48
1.0
  6
BYLAYER
100
AcDbLine
 10
35.9999999999999929
 20
-241.0
 30
0.0
 11
33.9999999999999929
 21
-241.0
 31
0.0
  0
LINE
  5
2AE
100
AcDbEntity
  8
0
 62
256
370
-1
 48
1.0
  6
BYLAYER
100
AcDbLine
 10
50.9999999999999858
 20
-244.0
 30
0.0
 11
50.9999999999999929
 21
-246.0
 31
0.0
  0
LINE
  5
2AF
100
AcDbEntity
  8
0
 62
256
370
-1
 48
1.0
  6
BYLAYER
100
AcDbLine
 10
39.0
 20
-226.0
 30
0.0
 11
39.0
 21
-224.0
 31
0.0
  0
LINE
  5
2B0
100
AcDbEntity
  8
0
 62
256
370
-1
 48
1.0
  6
BYLAYER
100
AcDbLine
 10
69.0
 20
-226.0
 30
0.0
 11
69.0
 21
-224.0
 31
0.0
  0
LINE
  5
2B1
100
AcDbEntity
  8
0
 62
256
370
-1
 48
1.0
  6
BYLAYER
100
AcDbLine
 10
84.0
 20
-229.0000000000000284
 30
0.0
 11
86.0
 21
-229.0000000000000284
 31
0.0
  0
LINE
  5
2B2
100
AcDbEntity
  8
0
 62
256
370
-1
 48
1.0
  6
BYLAYER
100
AcDbLine
 10
81.0
 20
-244.0
 30
0.0
 11
81.0
 21
-246.0
 31
0.0
  0
LINE
  5
2B3
100
AcDbEntity
  8
0
 62
256
370
-1
 48
1.0
  6
BYLAYER
100
AcDbLine
 10
35.9999999999999929
 20
-321.0
 30
0.0
 11
33.9999999999999929
 21
-321.0
 31
0.0
  0
LINE
  5
2B4
100
AcDbEntity
  8
0
 62
256
370
-1
 48
1.0
  6
BYLAYER
100
AcDbLine
 10
50.9999999999999858
 20
-324.0
 30
0.0
 11
50.9999999999999929
 21
-326.0
 31
0.0
  0
LINE
  5
2B5
100
AcDbEntity
  8
0
 62
256
370
-1
 48
1.0
  6
BYLAYER
100
AcDbLine
 10
39.0
 20
-306.0
 30
0.0
 11
39.0
 21
-304.0
 31
0.0
  0
LINE
  5
2B6
100
AcDbEntity
  8
0
 62
256
370
-1
 48
1.0
  6
BYLAYER
100
AcDbLine
 10
69.0
 20
-306.0
 30
0.0
 11
69.0
 21
-304.0
 31
0.0
  0
LINE
  5
2B7
100
AcDbEntity
  8
0
 62
256
370
-1
 48
1.0
  6
BYLAYER
100
AcDbLine
 10
84.0
 20
-309.0
 30
0.0
 11
86.0
 21
-309.0
 31
0.0
  0
LINE
  5
2B8
100
AcDbEntity
  8
0
 62
256
370
-1
 48
1.0
  6
BYLAYER
100
AcDbLine
 10
81.0
 20
-324.0
 30
0.0
 11
81.0
 21
-326.0
 31
0.0
  0
LINE
  5
2B9
100
AcDbEntity
  8
0
 62
256
370
-1
 48
1.0
  6
BYLAYER
100
AcDbLine
 10
35.9999999999999929
 20
-391.0
 30
0.0
 11
33.9999999999999929
 21
-391.0
 31
0.0
  0
LINE
  5
2BA
100
AcDbEntity
  8
0
 62
256
370
-1
 48
1.0
  6
BYLAYER
100
AcDbLine
 10
50.9999999999999858
 20
-394.0
 30
0.0
 11
50.9999999999999929
 21
-396.0
 31
0.0
  0
LINE
  5
2BB
100
AcDbEntity
  8
0
 62
256
370
-1
 48
1.0
  6
BYLAYER
100
AcDbLine
 10
39.0
 20
-376.0
 30
0.0
 11
39.0
 21
-374.0
 31
0.0
  0
LINE
  5
2BC
100
AcDbEntity
  8
0
 62
256
370
-1
 48
1.0
  6
BYLAYER
100
AcDbLine
 10
69.0
 20
-376.0
 30
0.0
 11
69.0
 21
-374.0
 31
0.0
  0
LINE
  5
2BD
100
AcDbEntity
  8
0
 62
256
370
-1
 48
1.0
  6
BYLAYER
100
AcDbLine
 10
84.0
 20
-379.0
 30
0.0
 11
86.0
 21
-379.0
 31
0.0
  0
LINE
  5
2BE
100
AcDbEntity
  8
0
 62
256
370
-1
 48
1.0
  6
BYLAYER
100
AcDbLine
 10
81.0
 20
-394.0
 30
0.0
 11
81.0
 21
-396.0
 31
0.0
  0
LINE
  5
2BF
100
AcDbEntity
  8
0
 62
256
370
-1
 48
1.0
  6
BYLAYER
100
AcDbLine
 10
35.9999999999999929
 20
-481.0
 30
0.0
 11
33.9999999999999929
 21
-481.0
 31
0.0
  0
LINE
  5
2C0
100
AcDbEntity
  8
0
 62
256
370
-1
 48
1.0
  6
BYLAYER
100
AcDbLine
 10
50.9999999999999858
 20
-484.0
 30
0.0
 11
50.9999999999999929
 21
-486.0
 31
0.0
  0
LINE
  5
2C1
100
AcDbEntity
  8
0
 62
256
370
-1
 48
1.0
  6
BYLAYER
100
AcDbLine
 10
39.0
 20
-466.0
 30
0.0
 11
39.0
 21
-464.0
 31
0.0
  0
LINE
  5
2C2
100
AcDbEntity
  8
0
 62
256
370
-1
 48
1.0
  6
BYLAYER
100
AcDbLine
 10
69.0
 20
-466.0
 30
0.0
 11
69.0
 21
-464.0
 31
0.0
  0
LINE
  5
2C3
100
AcDbEntity
  8
0
 62
256
370
-1
 48
1.0
  6
BYLAYER
100
AcDbLine
 10
84.0
 20
-469.0
 30
0.0
 11
86.0
 21
-469.0
 31
0.0
  0
LINE
  5
2C4
100
AcDbEntity
  8
0
 62
256
370
-1
 48
1.0
  6
BYLAYER
100
AcDbLine
 10
81.0
 20
-484.0
 30
0.0
 11
81.0
 21
-486.0
 31
0.0
  0
LINE
  5
2C5
100
AcDbEntity
  8
0
 62
256
370
-1
 48
1.0
  6
BYLAYER
100
AcDbLine
 10
35.9999999999999929
 20
-551.0
 30
0.0
 11
33.9999999999999929
 21
-551.0
 31
0.0
  0
LINE
  5
2C6
100
AcDbEntity
  8
0
 62
256
370
-1
 48
1.0
  6
BYLAYER
100
AcDbLine
 10
50.9999999999999858
 20
-554.0
 30
0.0
 11
50.9999999999999929
 21
-556.0
 31
0.0
  0
LINE
  5
2C7
100
AcDbEntity
  8
0
 62
256
370
-1
 48
1.0
  6
BYLAYER
100
AcDbLine
 10
39.0
 20
-536.0
 30
0.0
 11
39.0
 21
-534.0
 31
0.0
  0
LINE
  5
2C8
100
AcDbEntity
  8
0
 62
256
370
-1
 48
1.0
  6
BYLAYER
100
AcDbLine
 10
69.0
 20
-536.0
 30
0.0
 11
69.0
 21
-534.0
 31
0.0
  0
LINE
  5
2C9
100
AcDbEntity
  8
0
 62
256
370
-1
 48
1.0
  6
BYLAYER
100
AcDbLine
 10
84.0
 20
-539.0
 30
0.0
 11
86.0
 21
-539.0
 31
0.0
  0
LINE
  5
2CA
100
AcDbEntity
  8
0
 62
256
370
-1
 48
1.0
  6
BYLAYER
100
AcDbLine
 10
81.0
 20
-554.0
 30
0.0
 11
81.0
 21
-556.0
 31
0.0
  0
LINE
  5
2CB
100
AcDbEntity
  8
0
 62
256
370
-1
 48
1.0
  6
BYLAYER
100
AcDbLine
 10
54.9999999999999929
 20
-8.0
 30
0.0
 11
54.9999999999999929
 21
-4.0
 31
0.0
  0
LINE
  5
2CC
100
AcDbEntity
  8
0
 62
256
370
-1
 48
1.0
  6
BYLAYER
100
AcDbLine
 10
65.0
 20
-22.0
 30
0.0
 11
65.0
 21
-26.0
 31
0.0
  0
LINE
  5
2CD
100
AcDbEntity
  8
0
 62
256
370
-1
 48
1.0
  6
BYLAYER
100
AcDbLine
 10
54.9999999999999929
 20
-78.0
 30
0.0
 11
54.9999999999999929
 21
-74.0
 31
0.0
  0
LINE
  5
2CE
100
AcDbEntity
  8
0
 62
256
370
-1
 48
1.0
  6
BYLAYER
100
AcDbLine
 10
65.0
 20
-92.0
 30
0.0
 11
65.0
 21
-96.0
 31
0.0
  0
LINE
  5
2CF
100
AcDbEntity
  8
0
 62
256
370
-1
 48
1.0
  6
BYLAYER
100
AcDbLine
 10
54.9999999999999929
 20
-158.0
 30
0.0
 11
54.9999999999999929
 21
-154.0
 31
0.0
  0
LINE
  5
2D0
100
AcDbEntity
  8
0
 62
256
370
-1
 48
1.0
  6
BYLAYER
100
AcDbLine
 10
65.0
 20
-172.0
 30
0.0
 11
65.0
 21
-176.0
 31
0.0
  0
LINE
  5
2D1
100
AcDbEntity
  8
0
 62
256
370
-1
 48
1.0
  6
BYLAYER
100
AcDbLine
 10
54.9999999999999929
 20
-228.0
 30
0.0
 11
54.9999999999999929
 21
-224.0
 31
0.0
  0
LINE
  5
2D2
100
AcDbEntity
  8
0
 62
256
370
-1
 48
1.0
  6
BYLAYER
100
AcDbLine
 10
65.0
 20
-242.0
 30
0.0
 11
65.0
 21
-246.0
 31
0.0
  0
LINE
  5
2D3
100
AcDbEntity
  8
0
 62
256
370
-1
 48
1.0
  6
BYLAYER
100
AcDbLine
 10
54.9999999999999929
 20
-308.0
 30
0.0
 11
54.9999999999999929
 21
-304.0
 31
0.0
  0
LINE
  5
2D4
100
AcDbEntity
  8
0
 62
256
370
-1
 48
1.0
  6
BYLAYER
100
AcDbLine
 10
65.0
 20
-322.0
 30
0.0
 11
65.0
 21
-326.0
 31
0.0
  0
LINE
  5
2D5
100
AcDbEntity
  8
0
 62
256
370
-1
 48
1.0
  6
BYLAYER
100
AcDbLine
 10
54.9999999999999929
 20
-378.0
 30
0.0
 11
54.9999999999999929
 21
-374.0
 31
0.0
  0
LINE
  5
2D6
100
AcDbEntity
  8
0
 62
256
370
-1
 48
1.0
  6
BYLAYER
100
AcDbLine
 10
65.0
 20
-392.0
 30
0.0
 11
65.0
 21
-396.0
 31
0.0
  0
LINE
  5
2D7
100
AcDbEntity
  8
0
 62
256
370
-1
 48
1.0
  6
BYLAYER
100
AcDbLine
 10
54.9999999999999929
 20
-468.0
 30
0.0
 11
54.9999999999999929
 21
-464.0
 31
0.0
  0
LINE
  5
2D8
100
AcDbEntity
  8
0
 62
256
370
-1
 48
1.0
  6
BYLAYER
100
AcDbLine
 10
65.0
 20
-482.0
 30
0.0
 11
65.0
 21
-486.0
 31
0.0
  0
LINE
  5
2D9
100
AcDbEntity
  8
0
 62
256
370
-1
 48
1.0
  6
BYLAYER
100
AcDbLine
 10
54.9999999999999929
 20
-538.0
 30
0.0
 11
54.9999999999999929
 21
-534.0
 31
0.0
  0
LINE
  5
2DA
100
AcDbEntity
  8
0
 62
256
370
-1
 48
1.0
  6
BYLAYER
100
AcDbLine
 10
65.0
 20
-552.0
 30
0.0
 11
65.0
 21
-556.0
 31
0.0
  0
LINE
  5
2DB
100
AcDbEntity
  8
0
 62
256
370
-1
 48
1.0
  6
BYLAYER
100
AcDbLine
 10
54.9999999999999929
 20
-22.0
 30
0.0
 11
54.9999999999999929
 21
-26.0
 31
0.0
  0
LINE
  5
2DC
100
AcDbEntity
  8
0
 62
256
370
-1
 48
1.0
  6
BYLAYER
100
AcDbLine
 10
65.0
 20
-8.0
 30
0.0
 11
65.0
 21
-4.0
 31
0.0
  0
LINE
  5
2DD
100
AcDbEntity
  8
0
 62
256
370
-1
 48
1.0
  6
BYLAYER
100
AcDbLine
 10
54.9999999999999929
 20
-92.0
 30
0.0
 11
54.9999999999999929
 21
-96.0
 31
0.0
  0
LINE
  5
2DE
100
AcDbEntity
  8
0
 62
256
370
-1
 48
1.0
  6
BYLAYER
100
AcDbLine
 10
65.0
 20
-78.0
 30
0.0
 11
65.0
 21
-74.0
 31
0.0
  0
LINE
  5
2DF
100
AcDbEntity
  8
0
 62
256
370
-1
 48
1.0
  6
BYLAYER
100
AcDbLine
 10
54.9999999999999929
 20
-172.0
 30
0.0
 11
54.9999999999999929
 21
-176.0
 31
0.0
  0
LINE
  5
2E0
100
AcDbEntity
  8
0
 62
256
370
-1
 48
1.0
  6
BYLAYER
100
AcDbLine
 10
65.0
 20
-158.0
 30
0.0
 11
65.0
 21
-154.0
 31
0.0
  0
LINE
  5
2E1
100
AcDbEntity
  8
0
 62
256
370
-1
 48
1.0
  6
BYLAYER
100
AcDbLine
 10
54.9999999999999929
 20
-242.0
 30
0.0
 11
54.9999999999999929
 21
-246.0
 31
0.0
  0
LINE
  5
2E2
100
AcDbEntity
  8
0
 62
256
370
-1
 48
1.0
  6
BYLAYER
100
AcDbLine
 10
65.0
 20
-228.0
 30
0.0
 11
65.0
 21
-224.0
 31
0.0
  0
LINE
  5
2E3
100
AcDbEntity
  8
0
 62
256
370
-1
 48
1.0
  6
BYLAYER
100
AcDbLine
 10
54.9999999999999929
 20
-322.0
 30
0.0
 11
54.9999999999999929
 21
-326.0
 31
0.0
  0
LINE
  5
2E4
100
AcDbEntity
  8
0
 62
256
370
-1
 48
1.0
  6
BYLAYER
100
AcDbLine
 10
65.0
 20
-308.0
 30
0.0
 11
65.0
 21
-304.0
 31
0.0
  0
LINE
  5
2E5
100
AcDbEntity
  8
0
 62
256
370
-1
 48
1.0
  6
BYLAYER
100
AcDbLine
 10
54.9999999999999929
 20
-392.0
 30
0.0
 11
54.9999999999999929
 21
-396.0
 31
0.0
  0
LINE
  5
2E6
100
AcDbEntity
  8
0
 62
256
370
-1
 48
1.0
  6
BYLAYER
100
AcDbLine
 10
65.0
 20
-378.0
 30
0.0
 11
65.0
 21
-374.0
 31
0.0
  0
LINE
  5
2E7
100
AcDbEntity
  8
0
 62
256
370
-1
 48
1.0
  6
BYLAYER
100
AcDbLine
 10
54.9999999999999929
 20
-482.0
 30
0.0
 11
54.9999999999999929
 21
-486.0
 31
0.0
  0
LINE
  5
2E8
100
AcDbEntity
  8
0
 62
256
370
-1
 48
1.0
  6
BYLAYER
100
AcDbLine
 10
65.0
 20
-468.0
 30
0.0
 11
65.0
 21
-464.0
 31
0.0
  0
LINE
  5
2E9
100
AcDbEntity
  8
0
 62
256
370
-1
 48
1.0
  6
BYLAYER
100
AcDbLine
 10
54.9999999999999929
 20
-552.0
 30
0.0
 11
54.9999999999999929
 21
-556.0
 31
0.0
  0
LINE
  5
2EA
100
AcDbEntity
  8
0
 62
256
370
-1
 48
1.0
  6
BYLAYER
100
AcDbLine
 10
65.0
 20
-538.0
 30
0.0
 11
65.0
 21
-534.0
 31
0.0
  0
LINE
  5
2EB
100
AcDbEntity
  8
0
 62
256
370
-1
 48
1.0
  6
BYLAYER
100
AcDbLine
 10
50.9999999999999929
 20
-12.0
 30
0.0
 11
54.9999999999999929
 21
-8.0
 31
0.0
  0
LINE
  5
2EC
100
AcDbEntity
  8
0
 62
256
370
-1
 48
1.0
  6
BYLAYER
100
AcDbLine
 10
69.0
 20
-18.0
 30
0.0
 11
65.0
 21
-22.0
 31
0.0
  0
LINE
  5
2ED
100
AcDbEntity
  8
0
 62
256
370
-1
 48
1.0
  6
BYLAYER
100
AcDbLine
 10
50.9999999999999929
 20
-82.0
 30
0.0
 11
54.9999999999999929
 21
-78.0
 31
0.0
  0
LINE
  5
2EE
100
AcDbEntity
  8
0
 62
256
370
-1
 48
1.0
  6
BYLAYER
100
AcDbLine
 10
69.0
 20
-88.0
 30
0.0
 11
65.0
 21
-92.0
 31
0.0
  0
LINE
  5
2EF
100
AcDbEntity
  8
0
 62
256
370
-1
 48
1.0
  6
BYLAYER
100
AcDbLine
 10
50.9999999999999929
 20
-162.0
 30
0.0
 11
54.9999999999999929
 21
-158.0
 31
0.0
  0
LINE
  5
2F0
100
AcDbEntity
  8
0
 62
256
370
-1
 48
1.0
  6
BYLAYER
100
AcDbLine
 10
69.0
 20
-168.0
 30
0.0
 11
65.0
 21
-172.0
 31
0.0
  0
LINE
  5
2F1
100
AcDbEntity
  8
0
 62
256
370
-1
 48
1.0
  6
BYLAYER
100
AcDbLine
 10
50.9999999999999929
 20
-232.0
 30
0.0
 11
54.9999999999999929
 21
-228.0
 31
0.0
  0
LINE
  5
2F2
100
AcDbEntity
  8
0
 62
256
370
-1
 48
1.0
  6
BYLAYER
100
AcDbLine
 10
69.0
 20
-238.0
 30
0.0
 11
65.0
 21
-242.0
 31
0.0
  0
LINE
  5
2F3
100
AcDbEntity
  8
0
 62
256
370
-1
 48
1.0
  6
BYLAYER
100
AcDbLine
 10
50.9999999999999929
 20
-312.0
 30
0.0
 11
54.9999999999999929
 21
-308.0
 31
0.0
  0
LINE
  5
2F4
100
AcDbEntity
  8
0
 62
256
370
-1
 48
1.0
  6
BYLAYER
100
AcDbLine
 10
69.0
 20
-318.0
 30
0.0
 11
65.0
 21
-322.0
 31
0.0
  0
LINE
  5
2F5
100
AcDbEntity
  8
0
 62
256
370
-1
 48
1.0
  6
BYLAYER
100
AcDbLine
 10
50.9999999999999929
 20
-382.0
 30
0.0
 11
54.9999999999999929
 21
-378.0
 31
0.0
  0
LINE
  5
2F6
100
AcDbEntity
  8
0
 62
256
370
-1
 48
1.0
  6
BYLAYER
100
AcDbLine
 10
69.0
 20
-388.0
 30
0.0
 11
65.0
 21
-392.0
 31
0.0
  0
LINE
  5
2F7
100
AcDbEntity
  8
0
 62
256
370
-1
 48
1.0
  6
BYLAYER
100
AcDbLine
 10
50.9999999999999929
 20
-472.0
 30
0.0
 11
54.9999999999999929
 21
-468.0
 31
0.0
  0
LINE
  5
2F8
100
AcDbEntity
  8
0
 62
256
370
-1
 48
1.0
  6
BYLAYER
100
AcDbLine
 10
69.0
 20
-478.0
 30
0.0
 11
65.0
 21
-482.0
 31
0.0
  0
LINE
  5
2F9
100
AcDbEntity
  8
0
 62
256
370
-1
 48
1.0
  6
BYLAYER
100
AcDbLine
 10
50.9999999999999929
 20
-542.0
 30
0.0
 11
54.9999999999999929
 21
-538.0
 31
0.0
  0
LINE
  5
2FA
100
AcDbEntity
  8
0
 62
256
370
-1
 48
1.0
  6
BYLAYER
100
AcDbLine
 10
69.0
 20
-548.0
 30
0.0
 11
65.0
 21
-552.0
 31
0.0
  0
LINE
  5
2FB
100
AcDbEntity
  8
0
 62
256
370
-1
 48
1.0
  6
BYLAYER
100
AcDbLine
 10
54.9999999999999929
 20
-22.0
 30
0.0
 11
50.9999999999999929
 21
-18.0
 31
0.0
  0
LINE
  5
2FC
100
AcDbEntity
  8
0
 62
256
370
-1
 48
1.0
  6
BYLAYER
100
AcDbLine
 10
65.0
 20
-8.0
 30
0.0
 11
69.0
 21
-12.0
 31
0.0
  0
LINE
  5
2FD
100
AcDbEntity
  8
0
 62
256
370
-1
 48
1.0
  6
BYLAYER
100
AcDbLine
 10
54.9999999999999929
 20
-92.0
 30
0.0
 11
50.9999999999999929
 21
-88.0
 31
0.0
  0
LINE
  5
2FE
100
AcDbEntity
  8
0
 62
256
370
-1
 48
1.0
  6
BYLAYER
100
AcDbLine
 10
65.0
 20
-78.0
 30
0.0
 11
69.0
 21
-82.0
 31
0.0
  0
LINE
  5
2FF
100
AcDbEntity
  8
0
 62
256
370
-1
 48
1.0
  6
BYLAYER
100
AcDbLine
 10
54.9999999999999929
 20
-172.0
 30
0.0
 11
50.9999999999999929
 21
-168.0
 31
0.0
  0
LINE
  5
300
100
AcDbEntity
  8
0
 62
256
370
-1
 48
1.0
  6
BYLAYER
100
AcDbLine
 10
65.0
 20
-158.0
 30
0.0
 11
69.0
 21
-162.0
 31
0.0
  0
LINE
  5
301
100
AcDbEntity
  8
0
 62
256
370
-1
 48
1.0
  6
BYLAYER
100
AcDbLine
 10
54.9999999999999929
 20
-242.0
 30
0.0
 11
50.9999999999999929
 21
-238.0
 31
0.0
  0
LINE
  5
302
100
AcDbEntity
  8
0
 62
256
370
-1
 48
1.0
  6
BYLAYER
100
AcDbLine
 10
65.0
 20
-228.0
 30
0.0
 11
69.0
 21
-232.0
 31
0.0
  0
LINE
  5
303
100
AcDbEntity
  8
0
 62
256
370
-1
 48
1.0
  6
BYLAYER
100
AcDbLine
 10
54.9999999999999929
 20
-322.0
 30
0.0
 11
50.9999999999999929
 21
-318.0
 31
0.0
  0
LINE
  5
304
100
AcDbEntity
  8
0
 62
256
370
-1
 48
1.0
  6
BYLAYER
100
AcDbLine
 10
65.0
 20
-308.0
 30
0.0
 11
69.0
 21
-312.0
 31
0.0
  0
LINE
  5
305
100
AcDbEntity
  8
0
 62
256
370
-1
 48
1.0
  6
BYLAYER
100
AcDbLine
 10
54.9999999999999929
 20
-392.0
 30
0.0
 11
50.9999999999999929
 21
-388.0
 31
0.0
  0
LINE
  5
306
100
AcDbEntity
  8
0
 62
256
370
-1
 48
1.0
  6
BYLAYER
100
AcDbLine
 10
65.0
 20
-378.0
 30
0.0
 11
69.0
 21
-382.0
 31
0.0
  0
LINE
  5
307
100
AcDbEntity
  8
0
 62
256
370
-1
 48
1.0
  6
BYLAYER
100
AcDbLine
 10
54.9999999999999929
 20
-482.0
 30
0.0
 11
50.9999999999999929
 21
-478.0
 31
0.0
  0
LINE
  5
308
100
AcDbEntity
  8
0
 62
256
370
-1
 48
1.0
  6
BYLAYER
100
AcDbLine
 10
65.0
 20
-468.0
 30
0.0
 11
69.0
 21
-472.0
 31
0.0
  0
LINE
  5
309
100
AcDbEntity
  8
0
 62
256
370
-1
 48
1.0
  6
BYLAYER
100
AcDbLine
 10
54.9999999999999929
 20
-552.0
 30
0.0
 11
50.9999999999999929
 21
-548.0
 31
0.0
  0
LINE
  5
30A
100
AcDbEntity
  8
0
 62
256
370
-1
 48
1.0
  6
BYLAYER
100
AcDbLine
 10
65.0
 20
-538.0
 30
0.0
 11
69.0
 21
-542.0
 31
0.0
  0
CIRCLE
  5
30B
100
AcDbEntity
  8
0
 62
256
370
-1
 48
1.0
  6
BYLAYER
100
AcDbCircle
 10
44.9999999999999929
 20
-15.0
 30
0.0
 40
4.0
  0
CIRCLE
  5
30C
100
AcDbEntity
  8
0
 62
256
370
-1
 48
1.0
  6
BYLAYER
100
AcDbCircle
 10
75.0
 20
-15.0
 30
0.0
 40
4.0
  0
CIRCLE
  5
30D
100
AcDbEntity
  8
0
 62
256
370
-1
 48
1.0
  6
BYLAYER
100
AcDbCircle
 10
44.9999999999999929
 20
-85.0
 30
0.0
 40
4.0
  0
CIRCLE
  5
30E
100
AcDbEntity
  8
0
 62
256
370
-1
 48
1.0
  6
BYLAYER
100
AcDbCircle
 10
75.0
 20
-85.0
 30
0.0
 40
4.0
  0
CIRCLE
  5
30F
100
AcDbEntity
  8
0
 62
256
370
-1
 48
1.0
  6
BYLAYER
100
AcDbCircle
 10
44.9999999999999929
 20
-165.0
 30
0.0
 40
4.0
  0
CIRCLE
  5
310
100
AcDbEntity
  8
0
 62
256
370
-1
 48
1.0
  6
BYLAYER
100
AcDbCircle
 10
75.0
 20
-165.0
 30
0.0
 40
4.0
  0
CIRCLE
  5
311
100
AcDbEntity
  8
0
 62
256
370
-1
 48
1.0
  6
BYLAYER
100
AcDbCircle
 10
44.9999999999999929
 20
-235.0
 30
0.0
 40
4.0
  0
CIRCLE
  5
312
100
AcDbEntity
  8
0
 62
256
370
-1
 48
1.0
  6
BYLAYER
100
AcDbCircle
 10
75.0
 20
-235.0
 30
0.0
 40
4.0
  0
CIRCLE
  5
313
100
AcDbEntity
  8
0
 62
256
370
-1
 48
1.0
  6
BYLAYER
100
AcDbCircle
 10
44.9999999999999929
 20
-315.0
 30
0.0
 40
4.0
  0
CIRCLE
  5
314
100
AcDbEntity
  8
0
 62
256
370
-1
 48
1.0
  6
BYLAYER
100
AcDbCircle
 10
75.0
 20
-315.0
 30
0.0
 40
4.0
  0
CIRCLE
  5
315
100
AcDbEntity
  8
0
 62
256
370
-1
 48
1.0
  6
BYLAYER
100
AcDbCircle
 10
44.9999999999999929
 20
-385.0
 30
0.0
 40
4.0
  0
CIRCLE
  5
316
100
AcDbEntity
  8
0
 62
256
370
-1
 48
1.0
  6
BYLAYER
100
AcDbCircle
 10
75.0
 20
-385.0
 30
0.0
 40
4.0
  0
CIRCLE
  5
317
100
AcDbEntity
  8
0
 62
256
370
-1
 48
1.0
  6
BYLAYER
100
AcDbCircle
 10
44.9999999999999929
 20
-475.0
 30
0.0
 40
2.6000000000000014
  0
CIRCLE
  5
318
100
AcDbEntity
  8
0
 62
256
370
-1
 48
1.0
  6
BYLAYER
100
AcDbCircle
 10
75.0
 20
-475.0
 30
0.0
 40
2.6000000000000014
  0
CIRCLE
  5
319
100
AcDbEntity
  8
0
 62
256
370
-1
 48
1.0
  6
BYLAYER
100
AcDbCircle
 10
44.9999999999999929
 20
-545.0
 30
0.0
 40
2.6000000000000014
  0
CIRCLE
  5
31A
100
AcDbEntity
  8
0
 62
256
370
-1
 48
1.0
  6
BYLAYER
100
AcDbCircle
 10
75.0
 20
-545.0
 30
0.0
 40
2.6000000000000014
  0
LINE
  5
31B
100
AcDbEntity
  8
0
 62
256
370
-1
 48
1.0
  6
BYLAYER
100
AcDbLine
 10
71.8499999999999943
 20
-30.0
 30
0.0
 11
48.1499999999999915
 21
-30.0
 31
0.0
  0
LINE
  5
31C
100
AcDbEntity
  8
0
 62
256
370
-1
 48
1.0
  6
BYLAYER
100
AcDbLine
 10
48.1499999999999986
 20
0.0
 30
0.0
 11
71.8499999999999943
 21
0.0
 31
0.0
  0
LINE
  5
31D
100
AcDbEntity
  8
0
 62
256
370
-1
 48
1.0
  6
BYLAYER
100
AcDbLine
 10
71.8499999999999943
 20
-100.0
 30
0.0
 11
48.1499999999999915
 21
-100.0
 31
0.0
  0
LINE
  5
31E
100
AcDbEntity
  8
0
 62
256
370
-1
 48
1.0
  6
BYLAYER
100
AcDbLine
 10
48.1499999999999986
 20
-70.0
 30
0.0
 11
71.8499999999999943
 21
-70.0
 31
0.0
  0
LINE
  5
31F
100
AcDbEntity
  8
0
 62
256
370
-1
 48
1.0
  6
BYLAYER
100
AcDbLine
 10
71.8499999999999943
 20
-180.0
 30
0.0
 11
48.1499999999999915
 21
-180.0
 31
0.0
  0
LINE
  5
320
100
AcDbEntity
  8
0
 62
256
370
-1
 48
1.0
  6
BYLAYER
100
AcDbLine
 10
48.1499999999999986
 20
-150.0
 30
0.0
 11
71.8499999999999943
 21
-150.0
 31
0.0
  0
LINE
  5
321
100
AcDbEntity
  8
0
 62
256
370
-1
 48
1.0
  6
BYLAYER
100
AcDbLine
 10
71.8499999999999943
 20
-250.0
 30
0.0
 11
48.1499999999999915
 21
-250.0
 31
0.0
  0
LINE
  5
322
100
AcDbEntity
  8
0
 62
256
370
-1
 48
1.0
  6
BYLAYER
100
AcDbLine
 10
48.1499999999999986
 20
-220.0
 30
0.0
 11
71.8499999999999943
 21
-220.0
 31
0.0
  0
LINE
  5
323
100
AcDbEntity
  8
0
 62
256
370
-1
 48
1.0
  6
BYLAYER
100
AcDbLine
 10
71.8499999999999943
 20
-330.0
 30
0.0
 11
48.1499999999999915
 21
-330.0
 31
0.0
  0
LINE
  5
324
100
AcDbEntity
  8
0
 62
256
370
-1
 48
1.0
  6
BYLAYER
100
AcDbLine
 10
48.1499999999999986
 20
-300.0
 30
0.0
 11
71.8499999999999943
 21
-300.0
 31
0.0
  0
LINE
  5
325
100
AcDbEntity
  8
0
 62
256
370
-1
 48
1.0
  6
BYLAYER
100
AcDbLine
 10
71.8499999999999943
 20
-400.0
 30
0.0
 11
48.1499999999999915
 21
-400.0
 31
0.0
  0
LINE
  5
326
100
AcDbEntity
  8
0
 62
256
370
-1
 48
1.0
  6
BYLAYER
100
AcDbLine
 10
48.1499999999999986
 20
-370.0
 30
0.0
 11
71.8499999999999943
 21
-370.0
 31
0.0
  0
LINE
  5
327
100
AcDbEntity
  8
0
 62
256
370
-1
 48
1.0
  6
BYLAYER
100
AcDbLine
 10
71.8499999999999943
 20
-490.0
 30
0.0
 11
48.1499999999999915
 21
-490.0
 31
0.0
  0
LINE
  5
328
100
AcDbEntity
  8
0
 62
256
370
-1
 48
1.0
  6
BYLAYER
100
AcDbLine
 10
48.1499999999999986
 20
-460.0
 30
0.0
 11
71.8499999999999943
 21
-460.0
 31
0.0
  0
LINE
  5
329
100
AcDbEntity
  8
0
 62
256
370
-1
 48
1.0
  6
BYLAYER
100
AcDbLine
 10
71.8499999999999943
 20
-560.0
 30
0.0
 11
48.1499999999999915
 21
-560.0
 31
0.0
  0
LINE
  5
32A
100
AcDbEntity
  8
0
 62
256
370
-1
 48
1.0
  6
BYLAYER
100
AcDbLine
 10
48.1499999999999986
 20
-530.0
 30
0.0
 11
71.8499999999999943
 21
-530.0
 31
0.0
  0
LINE
  5
32B
100
AcDbEntity
  8
0
 62
256
370
-1
 48
1.0
  6
BYLAYER
100
AcDbLine
 10
54.9999999999999929
 20
-4.0
 30
0.0
 11
65.0
 21
-4.0
 31
0.0
  0
LINE
  5
32C
100
AcDbEntity
  8
0
 62
256
370
-1
 48
1.0
  6
BYLAYER
100
AcDbLine
 10
54.9999999999999929
 20
-74.0
 30
0.0
 11
65.0
 21
-74.0
 31
0.0
  0
LINE
  5
32D
100
AcDbEntity
  8
0
 62
256
370
-1
 48
1.0
  6
BYLAYER
100
AcDbLine
 10
54.9999999999999929
 20
-154.0
 30
0.0
 11
65.0
 21
-154.0
 31
0.0
  0
LINE
  5
32E
100
AcDbEntity
  8
0
 62
256
370
-1
 48
1.0
  6
BYLAYER
100
AcDbLine
 10
54.9999999999999929
 20
-224.0
 30
0.0
 11
65.0
 21
-224.0
 31
0.0
  0
LINE
  5
32F
100
AcDbEntity
  8
0
 62
256
370
-1
 48
1.0
  6
BYLAYER
100
AcDbLine
 10
54.9999999999999929
 20
-304.0
 30
0.0
 11
65.0
 21
-304.0
 31
0.0
  0
LINE
  5
330
100
AcDbEntity
  8
0
 62
256
370
-1
 48
1.0
  6
BYLAYER
100
AcDbLine
 10
54.9999999999999929
 20
-374.0
 30
0.0
 11
65.0
 21
-374.0
 31
0.0
  0
LINE
  5
331
100
AcDbEntity
  8
0
 62
256
370
-1
 48
1.0
  6
BYLAYER
100
AcDbLine
 10
54.9999999999999929
 20
-464.0
 30
0.0
 11
65.0
 21
-464.0
 31
0.0
  0
LINE
  5
332
100
AcDbEntity
  8
0
 62
256
370
-1
 48
1.0
  6
BYLAYER
100
AcDbLine
 10
54.9999999999999929
 20
-534.0
 30
0.0
 11
65.0
 21
-534.0
 31
0.0
  0
LINE
  5
333
100
AcDbEntity
  8
0
 62
256
370
-1
 48
1.0
  6
BYLAYER
100
AcDbLine
 10
65.0
 20
-26.0
 30
0.0
 11
54.9999999999999929
 21
-26.0
 31
0.0
  0
LINE
  5
334
100
AcDbEntity
  8
0
 62
256
370
-1
 48
1.0
  6
BYLAYER
100
AcDbLine
 10
65.0
 20
-96.0
 30
0.0
 11
54.9999999999999929
 21
-96.0
 31
0.0
  0
LINE
  5
335
100
AcDbEntity
  8
0
 62
256
370
-1
 48
1.0
  6
BYLAYER
100
AcDbLine
 10
65.0
 20
-176.0
 30
0.0
 11
54.9999999999999929
 21
-176.0
 31
0.0
  0
LINE
  5
336
100
AcDbEntity
  8
0
 62
256
370
-1
 48
1.0
  6
BYLAYER
100
AcDbLine
 10
65.0
 20
-246.0
 30
0.0
 11
54.9999999999999929
 21
-246.0
 31
0.0
  0
LINE
  5
337
100
AcDbEntity
  8
0
 62
256
370
-1
 48
1.0
  6
BYLAYER
100
AcDbLine
 10
65.0
 20
-326.0
 30
0.0
 11
54.9999999999999929
 21
-326.0
 31
0.0
  0
LINE
  5
338
100
AcDbEntity
  8
0
 62
256
370
-1
 48
1.0
  6
BYLAYER
100
AcDbLine
 10
65.0
 20
-396.0
 30
0.0
 11
54.9999999999999929
 21
-396.0
 31
0.0
  0
LINE
  5
339
100
AcDbEntity
  8
0
 62
256
370
-1
 48
1.0
  6
BYLAYER
100
AcDbLine
 10
65.0
 20
-486.0
 30
0.0
 11
54.9999999999999929
 21
-486.0
 31
0.0
  0
LINE
  5
33A
100
AcDbEntity
  8
0
 62
256
370
-1
 48
1.0
  6
BYLAYER
100
AcDbLine
 10
65.0
 20
-556.0
 30
0.0
 11
54.9999999999999929
 21
-556.0
 31
0.0
  0
HATCH
  5
33B
100
AcDbEntity
  8
0
 62
256
370
-1
 48
1.0
  6
BYLAYER
100
AcDbHatch
 10
0.0
 20
0.0
 30
0.0
210
0.0
220
0.0
230
1.0
  2
SOLID
 70
1
 71
0
 91
4
 92
1
 93
12
 72
1
 10
65.0
 20
-8.0
 11
69.0
 21
-12.0
 72
1
 10
69.0
 20
-12.0
 11
69.0
 21
-18.0
 72
1
 10
69.0
 20
-18.0
 11
65.0
 21
-22.0
 72
1
 10
65.0
 20
-22.0
 11
65.0
 21
-26.0
 72
1
 10
65.0
 20
-26.0
 11
54.9999999999999929
 21
-26.0
 72
1
 10
54.9999999999999929
 20
-26.0
 11
54.9999999999999929
 21
-22.0
 72
1
 10
54.9999999999999929
 20
-22.0
 11
50.9999999999999929
 21
-18.0
 72
1
 10
50.9999999999999929
 20
-18.0
 11
50.9999999999999929
 21
-12.0
 72
1
 10
50.9999999999999929
 20
-12.0
 11
54.9999999999999929
 21
-8.0
 72
1
 10
54.9999999999999929
 20
-8.0
 11
54.9999999999999929
 21
-4.0
 72
1
 10
54.9999999999999929
 20
-4.0
 11
65.0
 21
-4.0
 72
1
 10
65.0
 20
-4.0
 11
65.0
 21
-8.0
 97
0
 92
1
 93
64
 72
1
 10
48.1499999999999986
 20
0.0
 11
71.8499999999999943
 21
0.0
 72
1
 10
71.8499999999999943
 20
0.0
 11
71.8499999999999943
 21
-4.0
 72
1
 10
71.8499999999999943
 20
-4.0
 11
69.0
 21
-4.0
 72
1
 10
69.0
 20
-4.0
 11
69.0
 21
-6.0
 72
1
 10
69.0
 20
-6.0
 11
72.0
 21
-9.0
 72
1
 10
72.0
 20
-9.0
 11
78.0
 21
-9.0
 72
1
 10
78.0
 20
-9.0
 11
81.0
 21
-6.0
 72
1
 10
81.0
 20
-6.0
 11
81.0
 21
-4.0000000000000142
 72
1
 10
81.0
 20
-4.0000000000000142
 11
78.1500000000000057
 21
-4.0000000000000142
 72
1
 10
78.1500000000000057
 20
-4.0000000000000142
 11
78.1500000000000057
 21
0.0
 72
1
 10
78.1500000000000057
 20
-0.0000000000000142
 11
90.0
 21
-0.0000000000000284
 72
1
 10
90.0
 20
-0.0000000000000284
 11
90.0
 21
-11.8499999999999943
 72
1
 10
90.0
 20
-11.8499999999999943
 11
86.0
 21
-11.8499999999999943
 72
1
 10
86.0
 20
-11.8499999999999943
 11
86.0
 21
-9.0000000000000284
 72
1
 10
86.0
 20
-9.0000000000000284
 11
84.0
 21
-9.0000000000000284
 72
1
 10
84.0
 20
-9.0000000000000284
 11
81.0
 21
-11.9999999999999858
 72
1
 10
81.0
 20
-11.9999999999999858
 11
81.0
 21
-18.0000000000000284
 72
1
 10
81.0
 20
-18.0000000000000284
 11
84.0
 21
-20.9999999999999858
 72
1
 10
84.0
 20
-20.9999999999999858
 11
86.0
 21
-21.0
 72
1
 10
86.0
 20
-21.0
 11
86.0
 21
-18.1500000000000057
 72
1
 10
86.0
 20
-18.1500000000000057
 11
90.0
 21
-18.1500000000000199
 72
1
 10
90.0
 20
-18.1500000000000199
 11
90.0
 21
-29.9999999999999716
 72
1
 10
90.0
 20
-29.9999999999999716
 11
78.1500000000000057
 21
-30.0
 72
1
 10
78.1500000000000057
 20
-30.0
 11
78.1500000000000057
 21
-26.0
 72
1
 10
78.1500000000000057
 20
-26.0
 11
81.0
 21
-26.0
 72
1
 10
81.0
 20
-26.0
 11
81.0
 21
-24.0
 72
1
 10
81.0
 20
-24.0
 11
78.0
 21
-21.0
 72
1
 10
78.0
 20
-21.0
 11
72.0
 21
-21.0
 72
1
 10
72.0
 20
-21.0
 11
69.0
 21
-24.0
 72
1
 10
69.0
 20
-24.0
 11
69.0
 21
-26.0
 72
1
 10
69.0
 20
-26.0
 11
71.8499999999999943
 21
-26.0
 72
1
 10
71.8499999999999943
 20
-26.0
 11
71.8499999999999943
 21
-30.0
 72
1
 10
71.8499999999999943
 20
-30.0
 11
48.1499999999999915
 21
-30.0
 72
1
 10
48.1499999999999915
 20
-30.0
 11
48.1499999999999915
 21
-26.0
 72
1
 10
48.1499999999999915
 20
-26.0
 11
50.9999999999999929
 21
-26.0
 72
1
 10
50.9999999999999929
 20
-26.0
 11
50.9999999999999858
 21
-24.0
 72
1
 10
50.9999999999999858
 20
-24.0
 11
47.9999999999999929
 21
-21.0
 72
1
 10
47.9999999999999929
 20
-21.0
 11
41.9999999999999929
 21
-21.0
 72
1
 10
41.9999999999999929
 20
-21.0
 11
38.9999999999999929
 21
-24.0
 72
1
 10
38.9999999999999929
 20
-24.0
 11
38.9999999999999929
 21
-26.0
 72
1
 10
38.9999999999999929
 20
-26.0
 11
41.8499999999999872
 21
-26.0
 72
1
 10
41.8499999999999872
 20
-26.0
 11
41.8499999999999872
 21
-30.0
 72
1
 10
41.8499999999999943
 20
-30.0
 11
29.9999999999999929
 21
-30.0
 72
1
 10
29.9999999999999929
 20
-30.0
 11
29.9999999999999929
 21
-18.1500000000000057
 72
1
 10
29.9999999999999929
 20
-18.1500000000000057
 11
33.9999999999999929
 21
-18.1500000000000057
 72
1
 10
33.9999999999999929
 20
-18.1500000000000057
 11
33.9999999999999929
 21
-21.0
 72
1
 10
33.9999999999999929
 20
-21.0
 11
35.9999999999999929
 21
-21.0
 72
1
 10
35.9999999999999929
 20
-21.0
 11
38.9999999999999929
 21
-18.0
 72
1
 10
38.9999999999999929
 20
-18.0
 11
38.9999999999999929
 21
-12.0
 72
1
 10
38.9999999999999929
 20
-12.0
 11
35.9999999999999929
 21
-9.0
 72
1
 10
35.9999999999999929
 20
-9.0
 11
33.9999999999999929
 21
-9.0
 72
1
 10
33.9999999999999929
 20
-9.0
 11
33.9999999999999929
 21
-11.8499999999999943
 72
1
 10
33.9999999999999929
 20
-11.8499999999999943
 11
29.9999999999999929
 21
-11.8499999999999943
 72
1
 10
29.9999999999999929
 20
-11.8499999999999943
 11
29.9999999999999929
 21
0.0
 72
1
 10
29.9999999999999929
 20
0.0
 11
41.8499999999999943
 21
0.0
 72
1
 10
41.8500000000000085
 20
0.0
 11
41.8499999999999943
 21
-4.0
 72
1
 10
41.8499999999999943
 20
-4.0
 11
38.9999999999999929
 21
-4.0
 72
1
 10
39.0
 20
-4.0
 11
39.0
 21
-6.0
 72
1
 10
39.0
 20
-6.0
 11
41.9999999999999858
 21
-9.0
 72
1
 10
41.9999999999999929
 20
-9.0
 11
47.9999999999999929
 21
-9.0
 72
1
 10
47.9999999999999929
 20
-9.0
 11
50.9999999999999929
 21
-6.0
 72
1
 10
50.9999999999999929
 20
-6.0
 11
50.9999999999999929
 21
-4.0
 72
1
 10
50.9999999999999929
 20
-4.0
 11
48.1499999999999986
 21
-4.0
 72
1
 10
48.1499999999999915
 20
-4.0
 11
48.1499999999999915
 21
0.0
 97
0
 92
1
 93
1
 72
2
 10
75.0
 20
-15.0
 40
4.0
 50
0.0
 51
360.0
 73
1
 97
0
 92
1
 93
1
 72
2
 10
44.9999999999999929
 20
-15.0
 40
4.0
 50
0.0
 51
360.0
 73
1
 97
0
 75
0
 76
1
 98
0
1001
ACAD
1010
0.0
1020
0.0
1030
0
  0
HATCH
  5
33C
100
AcDbEntity
  8
0
 62
256
370
-1
 48
1.0
  6
BYLAYER
100
AcDbHatch
 10
0.0
 20
0.0
 30
0.0
210
0.0
220
0.0
230
1.0
  2
SOLID
 70
1
 71
0
 91
4
 92
1
 93
12
 72
1
 10
65.0
 20
-78.0
 11
69.0
 21
-82.0
 72
1
 10
69.0
 20
-82.0
 11
69.0
 21
-88.0
 72
1
 10
69.0
 20
-88.0
 11
65.0
 21
-92.0
 72
1
 10
65.0
 20
-92.0
 11
65.0
 21
-96.0
 72
1
 10
65.0
 20
-96.0
 11
54.9999999999999929
 21
-96.0
 72
1
 10
54.9999999999999929
 20
-96.0
 11
54.9999999999999929
 21
-92.0
 72
1
 10
54.9999999999999929
 20
-92.0
 11
50.9999999999999929
 21
-88.0
 72
1
 10
50.9999999999999929
 20
-88.0
 11
50.9999999999999929
 21
-82.0
 72
1
 10
50.9999999999999929
 20
-82.0
 11
54.9999999999999929
 21
-78.0
 72
1
 10
54.9999999999999929
 20
-78.0
 11
54.9999999999999929
 21
-74.0
 72
1
 10
54.9999999999999929
 20
-74.0
 11
65.0
 21
-74.0
 72
1
 10
65.0
 20
-74.0
 11
65.0
 21
-78.0
 97
0
 92
1
 93
64
 72
1
 10
48.1499999999999986
 20
-70.0
 11
71.8499999999999943
 21
-70.0
 72
1
 10
71.8499999999999943
 20
-70.0
 11
71.8499999999999943
 21
-74.0
 72
1
 10
71.8499999999999943
 20
-74.0
 11
69.0
 21
-74.0
 72
1
 10
69.0
 20
-74.0
 11
69.0
 21
-76.0
 72
1
 10
69.0
 20
-76.0
 11
72.0
 21
-79.0
 72
1
 10
72.0
 20
-79.0
 11
78.0
 21
-79.0
 72
1
 10
78.0
 20
-79.0
 11
81.0
 21
-76.0
 72
1
 10
81.0
 20
-76.0
 11
81.0
 21
-74.0000000000000142
 72
1
 10
81.0
 20
-74.0000000000000142
 11
78.1500000000000057
 21
-74.0000000000000142
 72
1
 10
78.1500000000000057
 20
-74.0000000000000142
 11
78.1500000000000057
 21
-70.0
 72
1
 10
78.1500000000000057
 20
-70.0000000000000142
 11
90.0
 21
-70.0000000000000284
 72
1
 10
90.0
 20
-70.0000000000000284
 11
90.0
 21
-81.8499999999999943
 72
1
 10
90.0
 20
-81.8499999999999943
 11
86.0
 21
-81.8499999999999943
 72
1
 10
86.0
 20
-81.8499999999999943
 11
86.0
 21
-79.0000000000000284
 72
1
 10
86.0
 20
-79.0000000000000284
 11
84.0
 21
-79.0000000000000284
 72
1
 10
84.0
 20
-79.0000000000000284
 11
81.0
 21
-81.9999999999999858
 72
1
 10
81.0
 20
-81.9999999999999858
 11
81.0
 21
-88.0000000000000284
 72
1
 10
81.0
 20
-88.0000000000000284
 11
84.0
 21
-90.9999999999999858
 72
1
 10
84.0
 20
-90.9999999999999858
 11
86.0
 21
-91.0
 72
1
 10
86.0
 20
-91.0
 11
86.0
 21
-88.1500000000000057
 72
1
 10
86.0
 20
-88.1500000000000057
 11
90.0
 21
-88.1500000000000199
 72
1
 10
90.0
 20
-88.1500000000000199
 11
90.0
 21
-99.9999999999999716
 72
1
 10
90.0
 20
-99.9999999999999716
 11
78.1500000000000057
 21
-100.0
 72
1
 10
78.1500000000000057
 20
-100.0
 11
78.1500000000000057
 21
-96.0
 72
1
 10
78.1500000000000057
 20
-96.0
 11
81.0
 21
-96.0
 72
1
 10
81.0
 20
-96.0
 11
81.0
 21
-94.0
 72
1
 10
81.0
 20
-94.0
 11
78.0
 21
-91.0
 72
1
 10
78.0
 20
-91.0
 11
72.0
 21
-91.0
 72
1
 10
72.0
 20
-91.0
 11
69.0
 21
-94.0
 72
1
 10
69.0
 20
-94.0
 11
69.0
 21
-96.0
 72
1
 10
69.0
 20
-96.0
 11
71.8499999999999943
 21
-96.0
 72
1
 10
71.8499999999999943
 20
-96.0
 11
71.8499999999999943
 21
-100.0
 72
1
 10
71.8499999999999943
 20
-100.0
 11
48.1499999999999915
 21
-100.0
 72
1
 10
48.1499999999999915
 20
-100.0
 11
48.1499999999999915
 21
-96.0
 72
1
 10
48.1499999999999915
 20
-96.0
 11
50.9999999999999929
 21
-96.0
 72
1
 10
50.9999999999999929
 20
-96.0
 11
50.9999999999999858
 21
-94.0
 72
1
 10
50.9999999999999858
 20
-94.0
 11
47.9999999999999929
 21
-91.0
 72
1
 10
47.9999999999999929
 20
-91.0
 11
41.9999999999999929
 21
-91.0
 72
1
 10
41.9999999999999929
 20
-91.0
 11
38.9999999999999929
 21
-94.0
 72
1
 10
38.9999999999999929
 20
-94.0
 11
38.9999999999999929
 21
-96.0
 72
1
 10
38.9999999999999929
 20
-96.0
 11
41.8499999999999872
 21
-96.0
 72
1
 10
41.8499999999999872
 20
-96.0
 11
41.8499999999999872
 21
-100.0
 72
1
 10
41.8499999999999943
 20
-100.0
 11
29.9999999999999929
 21
-100.0
 72
1
 10
29.9999999999999929
 20
-100.0
 11
29.9999999999999929
 21
-88.1500000000000057
 72
1
 10
29.9999999999999929
 20
-88.1500000000000057
 11
33.9999999999999929
 21
-88.1500000000000057
 72
1
 10
33.9999999999999929
 20
-88.1500000000000057
 11
33.9999999999999929
 21
-91.0
 72
1
 10
33.9999999999999929
 20
-91.0
 11
35.9999999999999929
 21
-91.0
 72
1
 10
35.9999999999999929
 20
-91.0
 11
38.9999999999999929
 21
-88.0
 72
1
 10
38.9999999999999929
 20
-88.0
 11
38.9999999999999929
 21
-82.0
 72
1
 10
38.9999999999999929
 20
-82.0
 11
35.9999999999999929
 21
-79.0
 72
1
 10
35.9999999999999929
 20
-79.0
 11
33.9999999999999929
 21
-79.0
 72
1
 10
33.9999999999999929
 20
-79.0
 11
33.9999999999999929
 21
-81.8499999999999943
 72
1
 10
33.9999999999999929
 20
-81.8499999999999943
 11
29.9999999999999929
 21
-81.8499999999999943
 72
1
 10
29.9999999999999929
 20
-81.8499999999999943
 11
29.9999999999999929
 21
-70.0
 72
1
 10
29.9999999999999929
 20
-70.0
 11
41.8499999999999943
 21
-70.0
 72
1
 10
41.8500000000000085
 20
-70.0
 11
41.8499999999999943
 21
-74.0
 72
1
 10
41.8499999999999943
 20
-74.0
 11
38.9999999999999929
 21
-74.0
 72
1
 10
39.0
 20
-74.0
 11
39.0
 21
-76.0
 72
1
 10
39.0
 20
-76.0
 11
41.9999999999999858
 21
-79.0
 72
1
 10
41.9999999999999929
 20
-79.0
 11
47.9999999999999929
 21
-79.0
 72
1
 10
47.9999999999999929
 20
-79.0
 11
50.9999999999999929
 21
-76.0
 72
1
 10
50.9999999999999929
 20
-76.0
 11
50.9999999999999929
 21
-74.0
 72
1
 10
50.9999999999999929
 20
-74.0
 11
48.1499999999999986
 21
-74.0
 72
1
 10
48.1499999999999915
 20
-74.0
 11
48.1499999999999915
 21
-70.0
 97
0
 92
1
 93
1
 72
2
 10
75.0
 20
-85.0
 40
4.0
 50
0.0
 51
360.0
 73
1
 97
0
 92
1
 93
1
 72
2
 10
44.9999999999999929
 20
-85.0
 40
4.0
 50
0.0
 51
360.0
 73
1
 97
0
 75
0
 76
1
 98
0
1001
ACAD
1010
0.0
1020
0.0
1030
0
  0
HATCH
  5
33D
100
AcDbEntity
  8
0
 62
256
370
-1
 48
1.0
  6
BYLAYER
100
AcDbHatch
 10
0.0
 20
0.0
 30
0.0
210
0.0
220
0.0
230
1.0
  2
SOLID
 70
1
 71
0
 91
4
 92
1
 93
12
 72
1
 10
65.0
 20
-158.0
 11
69.0
 21
-162.0
 72
1
 10
69.0
 20
-162.0
 11
69.0
 21
-168.0
 72
1
 10
69.0
 20
-168.0
 11
65.0
 21
-172.0
 72
1
 10
65.0
 20
-172.0
 11
65.0
 21
-176.0
 72
1
 10
65.0
 20
-176.0
 11
54.9999999999999929
 21
-176.0
 72
1
 10
54.9999999999999929
 20
-176.0
 11
54.9999999999999929
 21
-172.0
 72
1
 10
54.9999999999999929
 20
-172.0
 11
50.9999999999999929
 21
-168.0
 72
1
 10
50.9999999999999929
 20
-168.0
 11
50.9999999999999929
 21
-162.0
 72
1
 10
50.9999999999999929
 20
-162.0
 11
54.9999999999999929
 21
-158.0
 72
1
 10
54.9999999999999929
 20
-158.0
 11
54.9999999999999929
 21
-154.0
 72
1
 10
54.9999999999999929
 20
-154.0
 11
65.0
 21
-154.0
 72
1
 10
65.0
 20
-154.0
 11
65.0
 21
-158.0
 97
0
 92
1
 93
64
 72
1
 10
48.1499999999999986
 20
-150.0
 11
71.8499999999999943
 21
-150.0
 72
1
 10
71.8499999999999943
 20
-150.0
 11
71.8499999999999943
 21
-154.0
 72
1
 10
71.8499999999999943
 20
-154.0
 11
69.0
 21
-154.0
 72
1
 10
69.0
 20
-154.0
 11
69.0
 21
-156.0
 72
1
 10
69.0
 20
-156.0
 11
72.0
 21
-159.0
 72
1
 10
72.0
 20
-159.0
 11
78.0
 21
-159.0
 72
1
 10
78.0
 20
-159.0
 11
81.0
 21
-156.0
 72
1
 10
81.0
 20
-156.0
 11
81.0
 21
-154.0
 72
1
 10
81.0
 20
-154.0
 11
78.1500000000000057
 21
-154.0
 72
1
 10
78.1500000000000057
 20
-154.0
 11
78.1500000000000057
 21
-150.0
 72
1
 10
78.1500000000000057
 20
-150.0
 11
90.0
 21
-150.0000000000000284
 72
1
 10
90.0
 20
-150.0000000000000284
 11
90.0
 21
-161.8499999999999943
 72
1
 10
90.0
 20
-161.8499999999999943
 11
86.0
 21
-161.8499999999999943
 72
1
 10
86.0
 20
-161.8499999999999943
 11
86.0
 21
-159.0000000000000284
 72
1
 10
86.0
 20
-159.0000000000000284
 11
84.0
 21
-159.0000000000000284
 72
1
 10
84.0
 20
-159.0000000000000284
 11
81.0
 21
-162.0
 72
1
 10
81.0
 20
-162.0
 11
81.0
 21
-168.0000000000000284
 72
1
 10
81.0
 20
-168.0000000000000284
 11
84.0
 21
-171.0
 72
1
 10
84.0
 20
-171.0
 11
86.0
 21
-171.0
 72
1
 10
86.0
 20
-171.0
 11
86.0
 21
-168.1500000000000057
 72
1
 10
86.0
 20
-168.1500000000000057
 11
90.0
 21
-168.1500000000000341
 72
1
 10
90.0
 20
-168.1500000000000341
 11
90.0
 21
-179.9999999999999716
 72
1
 10
90.0
 20
-179.9999999999999716
 11
78.1500000000000057
 21
-180.0
 72
1
 10
78.1500000000000057
 20
-180.0
 11
78.1500000000000057
 21
-176.0
 72
1
 10
78.1500000000000057
 20
-176.0
 11
81.0
 21
-176.0
 72
1
 10
81.0
 20
-176.0
 11
81.0
 21
-174.0
 72
1
 10
81.0
 20
-174.0
 11
78.0
 21
-171.0
 72
1
 10
78.0
 20
-171.0
 11
72.0
 21
-171.0
 72
1
 10
72.0
 20
-171.0
 11
69.0
 21
-174.0
 72
1
 10
69.0
 20
-174.0
 11
69.0
 21
-176.0
 72
1
 10
69.0
 20
-176.0
 11
71.8499999999999943
 21
-176.0
 72
1
 10
71.8499999999999943
 20
-176.0
 11
71.8499999999999943
 21
-180.0
 72
1
 10
71.8499999999999943
 20
-180.0
 11
48.1499999999999915
 21
-180.0
 72
1
 10
48.1499999999999915
 20
-180.0
 11
48.1499999999999915
 21
-176.0
 72
1
 10
48.1499999999999915
 20
-176.0
 11
50.9999999999999929
 21
-176.0
 72
1
 10
50.9999999999999929
 20
-176.0
 11
50.9999999999999858
 21
-174.0
 72
1
 10
50.9999999999999858
 20
-174.0
 11
47.9999999999999929
 21
-171.0
 72
1
 10
47.9999999999999929
 20
-171.0
 11
41.9999999999999929
 21
-171.0
 72
1
 10
41.9999999999999929
 20
-171.0
 11
38.9999999999999929
 21
-174.0
 72
1
 10
38.9999999999999929
 20
-174.0
 11
38.9999999999999929
 21
-176.0
 72
1
 10
38.9999999999999929
 20
-176.0
 11
41.8499999999999872
 21
-176.0
 72
1
 10
41.8499999999999872
 20
-176.0
 11
41.8499999999999872
 21
-180.0
 72
1
 10
41.8499999999999943
 20
-180.0
 11
29.9999999999999929
 21
-180.0
 72
1
 10
29.9999999999999929
 20
-180.0
 11
29.9999999999999929
 21
-168.1500000000000057
 72
1
 10
29.9999999999999929
 20
-168.1500000000000057
 11
33.9999999999999929
 21
-168.1500000000000057
 72
1
 10
33.9999999999999929
 20
-168.1500000000000057
 11
33.9999999999999929
 21
-171.0
 72
1
 10
33.9999999999999929
 20
-171.0
 11
35.9999999999999929
 21
-171.0
 72
1
 10
35.9999999999999929
 20
-171.0
 11
38.9999999999999929
 21
-168.0
 72
1
 10
38.9999999999999929
 20
-168.0
 11
38.9999999999999929
 21
-162.0
 72
1
 10
38.9999999999999929
 20
-162.0
 11
35.9999999999999929
 21
-159.0
 72
1
 10
35.9999999999999929
 20
-159.0
 11
33.9999999999999929
 21
-159.0
 72
1
 10
33.9999999999999929
 20
-159.0
 11
33.9999999999999929
 21
-161.8499999999999943
 72
1
 10
33.9999999999999929
 20
-161.8499999999999943
 11
29.9999999999999929
 21
-161.8499999999999943
 72
1
 10
29.9999999999999929
 20
-161.8499999999999943
 11
29.9999999999999929
 21
-150.0
 72
1
 10
29.9999999999999929
 20
-150.0
 11
41.8499999999999943
 21
-150.0
 72
1
 10
41.8500000000000085
 20
-150.0
 11
41.8499999999999943
 21
-154.0
 72
1
 10
41.8499999999999943
 20
-154.0
 11
38.9999999999999929
 21
-154.0
 72
1
 10
39.0
 20
-154.0
 11
39.0
 21
-156.0
 72
1
 10
39.0
 20
-156.0
 11
41.9999999999999858
 21
-159.0
 72
1
 10
41.9999999999999929
 20
-159.0
 11
47.9999999999999929
 21
-159.0
 72
1
 10
47.9999999999999929
 20
-159.0
 11
50.9999999999999929
 21
-156.0
 72
1
 10
50.9999999999999929
 20
-156.0
 11
50.9999999999999929
 21
-154.0
 72
1
 10
50.9999999999999929
 20
-154.0
 11
48.1499999999999986
 21
-154.0
 72
1
 10
48.1499999999999915
 20
-154.0
 11
48.1499999999999915
 21
-150.0
 97
0
 92
1
 93
1
 72
2
 10
75.0
 20
-165.0
 40
4.0
 50
0.0
 51
360.0
 73
1
 97
0
 92
1
 93
1
 72
2
 10
44.9999999999999929
 20
-165.0
 40
4.0
 50
0.0
 51
360.0
 73
1
 97
0
 75
0
 76
1
 98
0
1001
ACAD
1010
0.0
1020
0.0
1030
0
  0
HATCH
  5
33E
100
AcDbEntity
  8
0
 62
256
370
-1
 48
1.0
  6
BYLAYER
100
AcDbHatch
 10
0.0
 20
0.0
 30
0.0
210
0.0
220
0.0
230
1.0
  2
SOLID
 70
1
 71
0
 91
4
 92
1
 93
12
 72
1
 10
65.0
 20
-228.0
 11
69.0
 21
-232.0
 72
1
 10
69.0
 20
-232.0
 11
69.0
 21
-238.0
 72
1
 10
69.0
 20
-238.0
 11
65.0
 21
-242.0
 72
1
 10
65.0
 20
-242.0
 11
65.0
 21
-246.0
 72
1
 10
65.0
 20
-246.0
 11
54.9999999999999929
 21
-246.0
 72
1
 10
54.9999999999999929
 20
-246.0
 11
54.9999999999999929
 21
-242.0
 72
1
 10
54.9999999999999929
 20
-242.0
 11
50.9999999999999929
 21
-238.0
 72
1
 10
50.9999999999999929
 20
-238.0
 11
50.9999999999999929
 21
-232.0
 72
1
 10
50.9999999999999929
 20
-232.0
 11
54.9999999999999929
 21
-228.0
 72
1
 10
54.9999999999999929
 20
-228.0
 11
54.9999999999999929
 21
-224.0
 72
1
 10
54.9999999999999929
 20
-224.0
 11
65.0
 21
-224.0
 72
1
 10
65.0
 20
-224.0
 11
65.0
 21
-228.0
 97
0
 92
1
 93
64
 72
1
 10
48.1499999999999986
 20
-220.0
 11
71.8499999999999943
 21
-220.0
 72
1
 10
71.8499999999999943
 20
-220.0
 11
71.8499999999999943
 21
-224.0
 72
1
 10
71.8499999999999943
 20
-224.0
 11
69.0
 21
-224.0
 72
1
 10
69.0
 20
-224.0
 11
69.0
 21
-226.0
 72
1
 10
69.0
 20
-226.0
 11
72.0
 21
-229.0
 72
1
 10
72.0
 20
-229.0
 11
78.0
 21
-229.0
 72
1
 10
78.0
 20
-229.0
 11
81.0
 21
-226.0
 72
1
 10
81.0
 20
-226.0
 11
81.0
 21
-224.0
 72
1
 10
81.0
 20
-224.0
 11
78.1500000000000057
 21
-224.0
 72
1
 10
78.1500000000000057
 20
-224.0
 11
78.1500000000000057
 21
-220.0
 72
1
 10
78.1500000000000057
 20
-220.0
 11
90.0
 21
-220.0000000000000284
 72
1
 10
90.0
 20
-220.0000000000000284
 11
90.0
 21
-231.8499999999999943
 72
1
 10
90.0
 20
-231.8499999999999943
 11
86.0
 21
-231.8499999999999943
 72
1
 10
86.0
 20
-231.8499999999999943
 11
86.0
 21
-229.0000000000000284
 72
1
 10
86.0
 20
-229.0000000000000284
 11
84.0
 21
-229.0000000000000284
 72
1
 10
84.0
 20
-229.0000000000000284
 11
81.0
 21
-232.0
 72
1
 10
81.0
 20
-232.0
 11
81.0
 21
-238.0000000000000284
 72
1
 10
81.0
 20
-238.0000000000000284
 11
84.0
 21
-241.0
 72
1
 10
84.0
 20
-241.0
 11
86.0
 21
-241.0
 72
1
 10
86.0
 20
-241.0
 11
86.0
 21
-238.1500000000000057
 72
1
 10
86.0
 20
-238.1500000000000057
 11
90.0
 21
-238.1500000000000341
 72
1
 10
90.0
 20
-238.1500000000000341
 11
90.0
 21
-249.9999999999999716
 72
1
 10
90.0
 20
-249.9999999999999716
 11
78.1500000000000057
 21
-250.0
 72
1
 10
78.1500000000000057
 20
-250.0
 11
78.1500000000000057
 21
-246.0
 72
1
 10
78.1500000000000057
 20
-246.0
 11
81.0
 21
-246.0
 72
1
 10
81.0
 20
-246.0
 11
81.0
 21
-244.0
 72
1
 10
81.0
 20
-244.0
 11
78.0
 21
-241.0
 72
1
 10
78.0
 20
-241.0
 11
72.0
 21
-241.0
 72
1
 10
72.0
 20
-241.0
 11
69.0
 21
-244.0
 72
1
 10
69.0
 20
-244.0
 11
69.0
 21
-246.0
 72
1
 10
69.0
 20
-246.0
 11
71.8499999999999943
 21
-246.0
 72
1
 10
71.8499999999999943
 20
-246.0
 11
71.8499999999999943
 21
-250.0
 72
1
 10
71.8499999999999943
 20
-250.0
 11
48.1499999999999915
 21
-250.0
 72
1
 10
48.1499999999999915
 20
-250.0
 11
48.1499999999999915
 21
-246.0
 72
1
 10
48.1499999999999915
 20
-246.0
 11
50.9999999999999929
 21
-246.0
 72
1
 10
50.9999999999999929
 20
-246.0
 11
50.9999999999999858
 21
-244.0
 72
1
 10
50.9999999999999858
 20
-244.0
 11
47.9999999999999929
 21
-241.0
 72
1
 10
47.9999999999999929
 20
-241.0
 11
41.9999999999999929
 21
-241.0
 72
1
 10
41.9999999999999929
 20
-241.0
 11
38.9999999999999929
 21
-244.0
 72
1
 10
38.9999999999999929
 20
-244.0
 11
38.9999999999999929
 21
-246.0
 72
1
 10
38.9999999999999929
 20
-246.0
 11
41.8499999999999872
 21
-246.0
 72
1
 10
41.8499999999999872
 20
-246.0
 11
41.8499999999999872
 21
-250.0
 72
1
 10
41.8499999999999943
 20
-250.0
 11
29.9999999999999929
 21
-250.0
 72
1
 10
29.9999999999999929
 20
-250.0
 11
29.9999999999999929
 21
-238.1500000000000057
 72
1
 10
29.9999999999999929
 20
-238.1500000000000057
 11
33.9999999999999929
 21
-238.1500000000000057
 72
1
 10
33.9999999999999929
 20
-238.1500000000000057
 11
33.9999999999999929
 21
-241.0
 72
1
 10
33.9999999999999929
 20
-241.0
 11
35.9999999999999929
 21
-241.0
 72
1
 10
35.9999999999999929
 20
-241.0
 11
38.9999999999999929
 21
-238.0
 72
1
 10
38.9999999999999929
 20
-238.0
 11
38.9999999999999929
 21
-232.0
 72
1
 10
38.9999999999999929
 20
-232.0
 11
35.9999999999999929
 21
-229.0
 72
1
 10
35.9999999999999929
 20
-229.0
 11
33.9999999999999929
 21
-229.0
 72
1
 10
33.9999999999999929
 20
-229.0
 11
33.9999999999999929
 21
-231.8499999999999943
 72
1
 10
33.9999999999999929
 20
-231.8499999999999943
 11
29.9999999999999929
 21
-231.8499999999999943
 72
1
 10
29.9999999999999929
 20
-231.8499999999999943
 11
29.9999999999999929
 21
-220.0
 72
1
 10
29.9999999999999929
 20
-220.0
 11
41.8499999999999943
 21
-220.0
 72
1
 10
41.8500000000000085
 20
-220.0
 11
41.8499999999999943
 21
-224.0
 72
1
 10
41.8499999999999943
 20
-224.0
 11
38.9999999999999929
 21
-224.0
 72
1
 10
39.0
 20
-224.0
 11
39.0
 21
-226.0
 72
1
 10
39.0
 20
-226.0
 11
41.9999999999999858
 21
-229.0
 72
1
 10
41.9999999999999929
 20
-229.0
 11
47.9999999999999929
 21
-229.0
 72
1
 10
47.9999999999999929
 20
-229.0
 11
50.9999999999999929
 21
-226.0
 72
1
 10
50.9999999999999929
 20
-226.0
 11
50.9999999999999929
 21
-224.0
 72
1
 10
50.9999999999999929
 20
-224.0
 11
48.1499999999999986
 21
-224.0
 72
1
 10
48.1499999999999915
 20
-224.0
 11
48.1499999999999915
 21
-220.0
 97
0
 92
1
 93
1
 72
2
 10
75.0
 20
-235.0
 40
4.0
 50
0.0
 51
360.0
 73
1
 97
0
 92
1
 93
1
 72
2
 10
44.9999999999999929
 20
-235.0
 40
4.0
 50
0.0
 51
360.0
 73
1
 97
0
 75
0
 76
1
 98
0
1001
ACAD
1010
0.0
1020
0.0
1030
0
  0
HATCH
  5
33F
100
AcDbEntity
  8
0
 62
256
370
-1
 48
1.0
  6
BYLAYER
100
AcDbHatch
 10
0.0
 20
0.0
 30
0.0
210
0.0
220
0.0
230
1.0
  2
SOLID
 70
1
 71
0
 91
4
 92
1
 93
12
 72
1
 10
65.0
 20
-308.0
 11
69.0
 21
-312.0
 72
1
 10
69.0
 20
-312.0
 11
69.0
 21
-318.0
 72
1
 10
69.0
 20
-318.0
 11
65.0
 21
-322.0
 72
1
 10
65.0
 20
-322.0
 11
65.0
 21
-326.0
 72
1
 10
65.0
 20
-326.0
 11
54.9999999999999929
 21
-326.0
 72
1
 10
54.9999999999999929
 20
-326.0
 11
54.9999999999999929
 21
-322.0
 72
1
 10
54.9999999999999929
 20
-322.0
 11
50.9999999999999929
 21
-318.0
 72
1
 10
50.9999999999999929
 20
-318.0
 11
50.9999999999999929
 21
-312.0
 72
1
 10
50.9999999999999929
 20
-312.0
 11
54.9999999999999929
 21
-308.0
 72
1
 10
54.9999999999999929
 20
-308.0
 11
54.9999999999999929
 21
-304.0
 72
1
 10
54.9999999999999929
 20
-304.0
 11
65.0
 21
-304.0
 72
1
 10
65.0
 20
-304.0
 11
65.0
 21
-308.0
 97
0
 92
1
 93
64
 72
1
 10
48.1499999999999986
 20
-300.0
 11
71.8499999999999943
 21
-300.0
 72
1
 10
71.8499999999999943
 20
-300.0
 11
71.8499999999999943
 21
-304.0
 72
1
 10
71.8499999999999943
 20
-304.0
 11
69.0
 21
-304.0
 72
1
 10
69.0
 20
-304.0
 11
69.0
 21
-306.0
 72
1
 10
69.0
 20
-306.0
 11
72.0
 21
-309.0
 72
1
 10
72.0
 20
-309.0
 11
78.0
 21
-309.0
 72
1
 10
78.0
 20
-309.0
 11
81.0
 21
-306.0
 72
1
 10
81.0
 20
-306.0
 11
81.0
 21
-304.0
 72
1
 10
81.0
 20
-304.0
 11
78.1500000000000057
 21
-304.0
 72
1
 10
78.1500000000000057
 20
-304.0
 11
78.1500000000000057
 21
-300.0
 72
1
 10
78.1500000000000057
 20
-300.0
 11
90.0
 21
-300.0
 72
1
 10
90.0
 20
-300.0
 11
90.0
 21
-311.8500000000000227
 72
1
 10
90.0
 20
-311.8500000000000227
 11
86.0
 21
-311.8500000000000227
 72
1
 10
86.0
 20
-311.8500000000000227
 11
86.0
 21
-309.0
 72
1
 10
86.0
 20
-309.0
 11
84.0
 21
-309.0
 72
1
 10
84.0
 20
-309.0
 11
81.0
 21
-312.0
 72
1
 10
81.0
 20
-312.0
 11
81.0
 21
-318.0
 72
1
 10
81.0
 20
-318.0
 11
84.0
 21
-321.0
 72
1
 10
84.0
 20
-321.0
 11
86.0
 21
-321.0
 72
1
 10
86.0
 20
-321.0
 11
86.0
 21
-318.1499999999999773
 72
1
 10
86.0
 20
-318.1499999999999773
 11
90.0
 21
-318.1500000000000341
 72
1
 10
90.0
 20
-318.1500000000000341
 11
90.0
 21
-330.0
 72
1
 10
90.0
 20
-330.0
 11
78.1500000000000057
 21
-330.0
 72
1
 10
78.1500000000000057
 20
-330.0
 11
78.1500000000000057
 21
-326.0
 72
1
 10
78.1500000000000057
 20
-326.0
 11
81.0
 21
-326.0
 72
1
 10
81.0
 20
-326.0
 11
81.0
 21
-324.0
 72
1
 10
81.0
 20
-324.0
 11
78.0
 21
-321.0
 72
1
 10
78.0
 20
-321.0
 11
72.0
 21
-321.0
 72
1
 10
72.0
 20
-321.0
 11
69.0
 21
-324.0
 72
1
 10
69.0
 20
-324.0
 11
69.0
 21
-326.0
 72
1
 10
69.0
 20
-326.0
 11
71.8499999999999943
 21
-326.0
 72
1
 10
71.8499999999999943
 20
-326.0
 11
71.8499999999999943
 21
-330.0
 72
1
 10
71.8499999999999943
 20
-330.0
 11
48.1499999999999915
 21
-330.0
 72
1
 10
48.1499999999999915
 20
-330.0
 11
48.1499999999999915
 21
-326.0
 72
1
 10
48.1499999999999915
 20
-326.0
 11
50.9999999999999929
 21
-326.0
 72
1
 10
50.9999999999999929
 20
-326.0
 11
50.9999999999999858
 21
-324.0
 72
1
 10
50.9999999999999858
 20
-324.0
 11
47.9999999999999929
 21
-321.0
 72
1
 10
47.9999999999999929
 20
-321.0
 11
41.9999999999999929
 21
-321.0
 72
1
 10
41.9999999999999929
 20
-321.0
 11
38.9999999999999929
 21
-324.0
 72
1
 10
38.9999999999999929
 20
-324.0
 11
38.9999999999999929
 21
-326.0
 72
1
 10
38.9999999999999929
 20
-326.0
 11
41.8499999999999872
 21
-326.0
 72
1
 10
41.8499999999999872
 20
-326.0
 11
41.8499999999999872
 21
-330.0
 72
1
 10
41.8499999999999943
 20
-330.0
 11
29.9999999999999929
 21
-330.0
 72
1
 10
29.9999999999999929
 20
-330.0
 11
29.9999999999999929
 21
-318.1499999999999773
 72
1
 10
29.9999999999999929
 20
-318.1499999999999773
 11
33.9999999999999929
 21
-318.1499999999999773
 72
1
 10
33.9999999999999929
 20
-318.1499999999999773
 11
33.9999999999999929
 21
-321.0
 72
1
 10
33.9999999999999929
 20
-321.0
 11
35.9999999999999929
 21
-321.0
 72
1
 10
35.9999999999999929
 20
-321.0
 11
38.9999999999999929
 21
-318.0
 72
1
 10
38.9999999999999929
 20
-318.0
 11
38.9999999999999929
 21
-312.0
 72
1
 10
38.9999999999999929
 20
-312.0
 11
35.9999999999999929
 21
-309.0
 72
1
 10
35.9999999999999929
 20
-309.0
 11
33.9999999999999929
 21
-309.0
 72
1
 10
33.9999999999999929
 20
-309.0
 11
33.9999999999999929
 21
-311.8500000000000227
 72
1
 10
33.9999999999999929
 20
-311.8500000000000227
 11
29.9999999999999929
 21
-311.8500000000000227
 72
1
 10
29.9999999999999929
 20
-311.8500000000000227
 11
29.9999999999999929
 21
-300.0
 72
1
 10
29.9999999999999929
 20
-300.0
 11
41.8499999999999943
 21
-300.0
 72
1
 10
41.8500000000000085
 20
-300.0
 11
41.8499999999999943
 21
-304.0
 72
1
 10
41.8499999999999943
 20
-304.0
 11
38.9999999999999929
 21
-304.0
 72
1
 10
39.0
 20
-304.0
 11
39.0
 21
-306.0
 72
1
 10
39.0
 20
-306.0
 11
41.9999999999999858
 21
-309.0
 72
1
 10
41.9999999999999929
 20
-309.0
 11
47.9999999999999929
 21
-309.0
 72
1
 10
47.9999999999999929
 20
-309.0
 11
50.9999999999999929
 21
-306.0
 72
1
 10
50.9999999999999929
 20
-306.0
 11
50.9999999999999929
 21
-304.0
 72
1
 10
50.9999999999999929
 20
-304.0
 11
48.1499999999999986
 21
-304.0
 72
1
 10
48.1499999999999915
 20
-304.0
 11
48.1499999999999915
 21
-300.0
 97
0
 92
1
 93
1
 72
2
 10
75.0
 20
-315.0
 40
4.0
 50
0.0
 51
360.0
 73
1
 97
0
 92
1
 93
1
 72
2
 10
44.9999999999999929
 20
-315.0
 40
4.0
 50
0.0
 51
360.0
 73
1
 97
0
 75
0
 76
1
 98
0
1001
ACAD
1010
0.0
1020
0.0
1030
0
  0
HATCH
  5
340
100
AcDbEntity
  8
0
 62
256
370
-1
 48
1.0
  6
BYLAYER
100
AcDbHatch
 10
0.0
 20
0.0
 30
0.0
210
0.0
220
0.0
230
1.0
  2
SOLID
 70
1
 71
0
 91
4
 92
1
 93
12
 72
1
 10
65.0
 20
-378.0
 11
69.0
 21
-382.0
 72
1
 10
69.0
 20
-382.0
 11
69.0
 21
-388.0
 72
1
 10
69.0
 20
-388.0
 11
65.0
 21
-392.0
 72
1
 10
65.0
 20
-392.0
 11
65.0
 21
-396.0
 72
1
 10
65.0
 20
-396.0
 11
54.9999999999999929
 21
-396.0
 72
1
 10
54.9999999999999929
 20
-396.0
 11
54.9999999999999929
 21
-392.0
 72
1
 10
54.9999999999999929
 20
-392.0
 11
50.9999999999999929
 21
-388.0
 72
1
 10
50.9999999999999929
 20
-388.0
 11
50.9999999999999929
 21
-382.0
 72
1
 10
50.9999999999999929
 20
-382.0
 11
54.9999999999999929
 21
-378.0
 72
1
 10
54.9999999999999929
 20
-378.0
 11
54.9999999999999929
 21
-374.0
 72
1
 10
54.9999999999999929
 20
-374.0
 11
65.0
 21
-374.0
 72
1
 10
65.0
 20
-374.0
 11
65.0
 21
-378.0
 97
0
 92
1
 93
64
 72
1
 10
48.1499999999999986
 20
-370.0
 11
71.8499999999999943
 21
-370.0
 72
1
 10
71.8499999999999943
 20
-370.0
 11
71.8499999999999943
 21
-374.0
 72
1
 10
71.8499999999999943
 20
-374.0
 11
69.0
 21
-374.0
 72
1
 10
69.0
 20
-374.0
 11
69.0
 21
-376.0
 72
1
 10
69.0
 20
-376.0
 11
72.0
 21
-379.0
 72
1
 10
72.0
 20
-379.0
 11
78.0
 21
-379.0
 72
1
 10
78.0
 20
-379.0
 11
81.0
 21
-376.0
 72
1
 10
81.0
 20
-376.0
 11
81.0
 21
-374.0
 72
1
 10
81.0
 20
-374.0
 11
78.1500000000000057
 21
-374.0
 72
1
 10
78.1500000000000057
 20
-374.0
 11
78.1500000000000057
 21
-370.0
 72
1
 10
78.1500000000000057
 20
-370.0
 11
90.0
 21
-370.0
 72
1
 10
90.0
 20
-370.0
 11
90.0
 21
-381.8500000000000227
 72
1
 10
90.0
 20
-381.8500000000000227
 11
86.0
 21
-381.8500000000000227
 72
1
 10
86.0
 20
-381.8500000000000227
 11
86.0
 21
-379.0
 72
1
 10
86.0
 20
-379.0
 11
84.0
 21
-379.0
 72
1
 10
84.0
 20
-379.0
 11
81.0
 21
-382.0
 72
1
 10
81.0
 20
-382.0
 11
81.0
 21
-388.0
 72
1
 10
81.0
 20
-388.0
 11
84.0
 21
-391.0
 72
1
 10
84.0
 20
-391.0
 11
86.0
 21
-391.0
 72
1
 10
86.0
 20
-391.0
 11
86.0
 21
-388.1499999999999773
 72
1
 10
86.0
 20
-388.1499999999999773
 11
90.0
 21
-388.1500000000000341
 72
1
 10
90.0
 20
-388.1500000000000341
 11
90.0
 21
-400.0
 72
1
 10
90.0
 20
-400.0
 11
78.1500000000000057
 21
-400.0
 72
1
 10
78.1500000000000057
 20
-400.0
 11
78.1500000000000057
 21
-396.0
 72
1
 10
78.1500000000000057
 20
-396.0
 11
81.0
 21
-396.0
 72
1
 10
81.0
 20
-396.0
 11
81.0
 21
-394.0
 72
1
 10
81.0
 20
-394.0
 11
78.0
 21
-391.0
 72
1
 10
78.0
 20
-391.0
 11
72.0
 21
-391.0
 72
1
 10
72.0
 20
-391.0
 11
69.0
 21
-394.0
 72
1
 10
69.0
 20
-394.0
 11
69.0
 21
-396.0
 72
1
 10
69.0
 20
-396.0
 11
71.8499999999999943
 21
-396.0
 72
1
 10
71.8499999999999943
 20
-396.0
 11
71.8499999999999943
 21
-400.0
 72
1
 10
71.8499999999999943
 20
-400.0
 11
48.1499999999999915
 21
-400.0
 72
1
 10
48.1499999999999915
 20
-400.0
 11
48.1499999999999915
 21
-396.0
 72
1
 10
48.1499999999999915
 20
-396.0
 11
50.9999999999999929
 21
-396.0
 72
1
 10
50.9999999999999929
 20
-396.0
 11
50.9999999999999858
 21
-394.0
 72
1
 10
50.9999999999999858
 20
-394.0
 11
47.9999999999999929
 21
-391.0
 72
1
 10
47.9999999999999929
 20
-391.0
 11
41.9999999999999929
 21
-391.0
 72
1
 10
41.9999999999999929
 20
-391.0
 11
38.9999999999999929
 21
-394.0
 72
1
 10
38.9999999999999929
 20
-394.0
 11
38.9999999999999929
 21
-396.0
 72
1
 10
38.9999999999999929
 20
-396.0
 11
41.8499999999999872
 21
-396.0
 72
1
 10
41.8499999999999872
 20
-396.0
 11
41.8499999999999872
 21
-400.0
 72
1
 10
41.8499999999999943
 20
-400.0
 11
29.9999999999999929
 21
-400.0
 72
1
 10
29.9999999999999929
 20
-400.0
 11
29.9999999999999929
 21
-388.1499999999999773
 72
1
 10
29.9999999999999929
 20
-388.1499999999999773
 11
33.9999999999999929
 21
-388.1499999999999773
 72
1
 10
33.9999999999999929
 20
-388.1499999999999773
 11
33.9999999999999929
 21
-391.0
 72
1
 10
33.9999999999999929
 20
-391.0
 11
35.9999999999999929
 21
-391.0
 72
1
 10
35.9999999999999929
 20
-391.0
 11
38.9999999999999929
 21
-388.0
 72
1
 10
38.9999999999999929
 20
-388.0
 11
38.9999999999999929
 21
-382.0
 72
1
 10
38.9999999999999929
 20
-382.0
 11
35.9999999999999929
 21
-379.0
 72
1
 10
35.9999999999999929
 20
-379.0
 11
33.9999999999999929
 21
-379.0
 72
1
 10
33.9999999999999929
 20
-379.0
 11
33.9999999999999929
 21
-381.8500000000000227
 72
1
 10
33.9999999999999929
 20
-381.8500000000000227
 11
29.9999999999999929
 21
-381.8500000000000227
 72
1
 10
29.9999999999999929
 20
-381.8500000000000227
 11
29.9999999999999929
 21
-370.0
 72
1
 10
29.9999999999999929
 20
-370.0
 11
41.8499999999999943
 21
-370.0
 72
1
 10
41.8500000000000085
 20
-370.0
 11
41.8499999999999943
 21
-374.0
 72
1
 10
41.8499999999999943
 20
-374.0
 11
38.9999999999999929
 21
-374.0
 72
1
 10
39.0
 20
-374.0
 11
39.0
 21
-376.0
 72
1
 10
39.0
 20
-376.0
 11
41.9999999999999858
 21
-379.0
 72
1
 10
41.9999999999999929
 20
-379.0
 11
47.9999999999999929
 21
-379.0
 72
1
 10
47.9999999999999929
 20
-379.0
 11
50.9999999999999929
 21
-376.0
 72
1
 10
50.9999999999999929
 20
-376.0
 11
50.9999999999999929
 21
-374.0
 72
1
 10
50.9999999999999929
 20
-374.0
 11
48.1499999999999986
 21
-374.0
 72
1
 10
48.1499999999999915
 20
-374.0
 11
48.1499999999999915
 21
-370.0
 97
0
 92
1
 93
1
 72
2
 10
75.0
 20
-385.0
 40
4.0
 50
0.0
 51
360.0
 73
1
 97
0
 92
1
 93
1
 72
2
 10
44.9999999999999929
 20
-385.0
 40
4.0
 50
0.0
 51
360.0
 73
1
 97
0
 75
0
 76
1
 98
0
1001
ACAD
1010
0.0
1020
0.0
1030
0
  0
HATCH
  5
341
100
AcDbEntity
  8
0
 62
256
370
-1
 48
1.0
  6
BYLAYER
100
AcDbHatch
 10
0.0
 20
0.0
 30
0.0
210
0.0
220
0.0
230
1.0
  2
SOLID
 70
1
 71
0
 91
4
 92
1
 93
64
 72
1
 10
35.9999999999999929
 20
-469.0
 11
38.9999999999999929
 21
-472.0
 72
1
 10
38.9999999999999929
 20
-472.0
 11
38.9999999999999929
 21
-478.0
 72
1
 10
38.9999999999999929
 20
-478.0
 11
35.9999999999999929
 21
-481.0
 72
1
 10
35.9999999999999929
 20
-481.0
 11
33.9999999999999929
 21
-481.0
 72
1
 10
33.9999999999999929
 20
-481.0
 11
33.9999999999999929
 21
-478.1499999999999773
 72
1
 10
33.9999999999999929
 20
-478.1499999999999773
 11
29.9999999999999929
 21
-478.1499999999999773
 72
1
 10
29.9999999999999929
 20
-478.1499999999999773
 11
29.9999999999999929
 21
-490.0
 72
1
 10
29.9999999999999929
 20
-490.0
 11
41.8499999999999943
 21
-490.0
 72
1
 10
41.8499999999999872
 20
-490.0
 11
41.8499999999999872
 21
-486.0
 72
1
 10
41.8499999999999872
 20
-486.0
 11
38.9999999999999929
 21
-486.0
 72
1
 10
38.9999999999999929
 20
-486.0
 11
38.9999999999999929
 21
-484.0
 72
1
 10
38.9999999999999929
 20
-484.0
 11
41.9999999999999929
 21
-481.0
 72
1
 10
41.9999999999999929
 20
-481.0
 11
47.9999999999999929
 21
-481.0
 72
1
 10
47.9999999999999929
 20
-481.0
 11
50.9999999999999858
 21
-484.0
 72
1
 10
50.9999999999999858
 20
-484.0
 11
50.9999999999999929
 21
-486.0
 72
1
 10
50.9999999999999929
 20
-486.0
 11
48.1499999999999915
 21
-486.0
 72
1
 10
48.1499999999999915
 20
-486.0
 11
48.1499999999999915
 21
-490.0
 72
1
 10
48.1499999999999915
 20
-490.0
 11
71.8499999999999943
 21
-490.0
 72
1
 10
71.8499999999999943
 20
-490.0
 11
71.8499999999999943
 21
-486.0
 72
1
 10
71.8499999999999943
 20
-486.0
 11
69.0
 21
-486.0
 72
1
 10
69.0
 20
-486.0
 11
69.0
 21
-484.0
 72
1
 10
69.0
 20
-484.0
 11
72.0
 21
-481.0
 72
1
 10
72.0
 20
-481.0
 11
78.0
 21
-481.0
 72
1
 10
78.0
 20
-481.0
 11
81.0
 21
-484.0
 72
1
 10
81.0
 20
-484.0
 11
81.0
 21
-486.0
 72
1
 10
81.0
 20
-486.0
 11
78.1500000000000057
 21
-486.0
 72
1
 10
78.1500000000000057
 20
-486.0
 11
78.1500000000000057
 21
-490.0
 72
1
 10
78.1500000000000057
 20
-490.0
 11
90.0
 21
-490.0
 72
1
 10
90.0
 20
-490.0
 11
90.0
 21
-478.1500000000000341
 72
1
 10
90.0
 20
-478.1500000000000341
 11
86.0
 21
-478.1500000000000341
 72
1
 10
86.0
 20
-478.1500000000000341
 11
86.0
 21
-481.0
 72
1
 10
86.0
 20
-481.0
 11
84.0
 21
-481.0
 72
1
 10
84.0
 20
-481.0
 11
81.0
 21
-478.0
 72
1
 10
81.0
 20
-478.0
 11
81.0
 21
-472.0
 72
1
 10
81.0
 20
-472.0
 11
84.0
 21
-469.0
 72
1
 10
84.0
 20
-469.0
 11
86.0
 21
-469.0
 72
1
 10
86.0
 20
-469.0
 11
86.0
 21
-471.8500000000000227
 72
1
 10
86.0
 20
-471.8500000000000227
 11
90.0
 21
-471.8500000000000227
 72
1
 10
90.0
 20
-471.8500000000000227
 11
90.0
 21
-460.0
 72
1
 10
90.0
 20
-460.0
 11
78.1500000000000057
 21
-460.0
 72
1
 10
78.1500000000000057
 20
-460.0
 11
78.1500000000000057
 21
-464.0
 72
1
 10
78.1500000000000057
 20
-464.0
 11
81.0
 21
-464.0
 72
1
 10
81.0
 20
-464.0
 11
81.0
 21
-466.0
 72
1
 10
81.0
 20
-466.0
 11
78.0
 21
-469.0
 72
1
 10
78.0
 20
-469.0
 11
72.0
 21
-469.0
 72
1
 10
72.0
 20
-469.0
 11
69.0
 21
-466.0
 72
1
 10
69.0
 20
-466.0
 11
69.0
 21
-464.0
 72
1
 10
69.0
 20
-464.0
 11
71.8499999999999943
 21
-464.0
 72
1
 10
71.8499999999999943
 20
-464.0
 11
71.8499999999999943
 21
-460.0
 72
1
 10
71.8499999999999943
 20
-460.0
 11
48.1499999999999986
 21
-460.0
 72
1
 10
48.1499999999999915
 20
-460.0
 11
48.1499999999999915
 21
-464.0
 72
1
 10
48.1499999999999986
 20
-464.0
 11
50.9999999999999929
 21
-464.0
 72
1
 10
50.9999999999999929
 20
-464.0
 11
50.9999999999999929
 21
-466.0
 72
1
 10
50.9999999999999929
 20
-466.0
 11
47.9999999999999929
 21
-469.0
 72
1
 10
47.9999999999999929
 20
-469.0
 11
41.9999999999999929
 21
-469.0
 72
1
 10
41.9999999999999858
 20
-469.0
 11
39.0
 21
-466.0
 72
1
 10
39.0
 20
-466.0
 11
39.0
 21
-464.0
 72
1
 10
38.9999999999999929
 20
-464.0
 11
41.8499999999999943
 21
-464.0
 72
1
 10
41.8499999999999943
 20
-464.0
 11
41.8500000000000085
 21
-460.0
 72
1
 10
41.8499999999999943
 20
-460.0
 11
29.9999999999999929
 21
-460.0
 72
1
 10
29.9999999999999929
 20
-460.0
 11
29.9999999999999929
 21
-471.8500000000000227
 72
1
 10
29.9999999999999929
 20
-471.8500000000000227
 11
33.9999999999999929
 21
-471.8500000000000227
 72
1
 10
33.9999999999999929
 20
-471.8500000000000227
 11
33.9999999999999929
 21
-469.0
 72
1
 10
33.9999999999999929
 20
-469.0
 11
35.9999999999999929
 21
-469.0
 97
0
 92
1
 93
12
 72
1
 10
65.0
 20
-482.0
 11
65.0
 21
-486.0
 72
1
 10
65.0
 20
-486.0
 11
54.9999999999999929
 21
-486.0
 72
1
 10
54.9999999999999929
 20
-486.0
 11
54.9999999999999929
 21
-482.0
 72
1
 10
54.9999999999999929
 20
-482.0
 11
50.9999999999999929
 21
-478.0
 72
1
 10
50.9999999999999929
 20
-478.0
 11
50.9999999999999929
 21
-472.0
 72
1
 10
50.9999999999999929
 20
-472.0
 11
54.9999999999999929
 21
-468.0
 72
1
 10
54.9999999999999929
 20
-468.0
 11
54.9999999999999929
 21
-464.0
 72
1
 10
54.9999999999999929
 20
-464.0
 11
65.0
 21
-464.0
 72
1
 10
65.0
 20
-464.0
 11
65.0
 21
-468.0
 72
1
 10
65.0
 20
-468.0
 11
69.0
 21
-472.0
 72
1
 10
69.0
 20
-472.0
 11
69.0
 21
-478.0
 72
1
 10
69.0
 20
-478.0
 11
65.0
 21
-482.0
 97
0
 92
1
 93
1
 72
2
 10
44.9999999999999929
 20
-475.0
 40
2.6000000000000014
 50
0.0
 51
360.0
 73
1
 97
0
 92
1
 93
1
 72
2
 10
75.0
 20
-475.0
 40
2.6000000000000014
 50
0.0
 51
360.0
 73
1
 97
0
 75
0
 76
1
 98
0
1001
ACAD
1010
0.0
1020
0.0
1030
0
  0
HATCH
  5
342
100
AcDbEntity
  8
0
 62
256
370
-1
 48
1.0
  6
BYLAYER
100
AcDbHatch
 10
0.0
 20
0.0
 30
0.0
210
0.0
220
0.0
230
1.0
  2
SOLID
 70
1
 71
0
 91
4
 92
1
 93
64
 72
1
 10
35.9999999999999929
 20
-539.0
 11
38.9999999999999929
 21
-542.0
 72
1
 10
38.9999999999999929
 20
-542.0
 11
38.9999999999999929
 21
-548.0
 72
1
 10
38.9999999999999929
 20
-548.0
 11
35.9999999999999929
 21
-551.0
 72
1
 10
35.9999999999999929
 20
-551.0
 11
33.9999999999999929
 21
-551.0
 72
1
 10
33.9999999999999929
 20
-551.0
 11
33.9999999999999929
 21
-548.1499999999999773
 72
1
 10
33.9999999999999929
 20
-548.1499999999999773
 11
29.9999999999999929
 21
-548.1499999999999773
 72
1
 10
29.9999999999999929
 20
-548.1499999999999773
 11
29.9999999999999929
 21
-560.0
 72
1
 10
29.9999999999999929
 20
-560.0
 11
41.8499999999999943
 21
-560.0
 72
1
 10
41.8499999999999872
 20
-560.0
 11
41.8499999999999872
 21
-556.0
 72
1
 10
41.8499999999999872
 20
-556.0
 11
38.9999999999999929
 21
-556.0
 72
1
 10
38.9999999999999929
 20
-556.0
 11
38.9999999999999929
 21
-554.0
 72
1
 10
38.9999999999999929
 20
-554.0
 11
41.9999999999999929
 21
-551.0
 72
1
 10
41.9999999999999929
 20
-551.0
 11
47.9999999999999929
 21
-551.0
 72
1
 10
47.9999999999999929
 20
-551.0
 11
50.9999999999999858
 21
-554.0
 72
1
 10
50.9999999999999858
 20
-554.0
 11
50.9999999999999929
 21
-556.0
 72
1
 10
50.9999999999999929
 20
-556.0
 11
48.1499999999999915
 21
-556.0
 72
1
 10
48.1499999999999915
 20
-556.0
 11
48.1499999999999915
 21
-560.0
 72
1
 10
48.1499999999999915
 20
-560.0
 11
71.8499999999999943
 21
-560.0
 72
1
 10
71.8499999999999943
 20
-560.0
 11
71.8499999999999943
 21
-556.0
 72
1
 10
71.8499999999999943
 20
-556.0
 11
69.0
 21
-556.0
 72
1
 10
69.0
 20
-556.0
 11
69.0
 21
-554.0
 72
1
 10
69.0
 20
-554.0
 11
72.0
 21
-551.0
 72
1
 10
72.0
 20
-551.0
 11
78.0
 21
-551.0
 72
1
 10
78.0
 20
-551.0
 11
81.0
 21
-554.0
 72
1
 10
81.0
 20
-554.0
 11
81.0
 21
-556.0
 72
1
 10
81.0
 20
-556.0
 11
78.1500000000000057
 21
-556.0
 72
1
 10
78.1500000000000057
 20
-556.0
 11
78.1500000000000057
 21
-560.0
 72
1
 10
78.1500000000000057
 20
-560.0
 11
90.0
 21
-560.0
 72
1
 10
90.0
 20
-560.0
 11
90.0
 21
-548.1499999999999773
 72
1
 10
90.0
 20
-548.1499999999999773
 11
86.0
 21
-548.1499999999999773
 72
1
 10
86.0
 20
-548.1499999999999773
 11
86.0
 21
-551.0
 72
1
 10
86.0
 20
-551.0
 11
84.0
 21
-551.0
 72
1
 10
84.0
 20
-551.0
 11
81.0
 21
-548.0
 72
1
 10
81.0
 20
-548.0
 11
81.0
 21
-542.0
 72
1
 10
81.0
 20
-542.0
 11
84.0
 21
-539.0
 72
1
 10
84.0
 20
-539.0
 11
86.0
 21
-539.0
 72
1
 10
86.0
 20
-539.0
 11
86.0
 21
-541.8500000000000227
 72
1
 10
86.0
 20
-541.8500000000000227
 11
90.0
 21
-541.8500000000000227
 72
1
 10
90.0
 20
-541.8500000000000227
 11
90.0
 21
-530.0
 72
1
 10
90.0
 20
-530.0
 11
78.1500000000000057
 21
-530.0
 72
1
 10
78.1500000000000057
 20
-530.0
 11
78.1500000000000057
 21
-534.0
 72
1
 10
78.1500000000000057
 20
-534.0
 11
81.0
 21
-534.0
 72
1
 10
81.0
 20
-534.0
 11
81.0
 21
-536.0
 72
1
 10
81.0
 20
-536.0
 11
78.0
 21
-539.0
 72
1
 10
78.0
 20
-539.0
 11
72.0
 21
-539.0
 72
1
 10
72.0
 20
-539.0
 11
69.0
 21
-536.0
 72
1
 10
69.0
 20
-536.0
 11
69.0
 21
-534.0
 72
1
 10
69.0
 20
-534.0
 11
71.8499999999999943
 21
-534.0
 72
1
 10
71.8499999999999943
 20
-534.0
 11
71.8499999999999943
 21
-530.0
 72
1
 10
71.8499999999999943
 20
-530.0
 11
48.1499999999999986
 21
-530.0
 72
1
 10
48.1499999999999915
 20
-530.0
 11
48.1499999999999915
 21
-534.0
 72
1
 10
48.1499999999999986
 20
-534.0
 11
50.9999999999999929
 21
-534.0
 72
1
 10
50.9999999999999929
 20
-534.0
 11
50.9999999999999929
 21
-536.0
 72
1
 10
50.9999999999999929
 20
-536.0
 11
47.9999999999999929
 21
-539.0
 72
1
 10
47.9999999999999929
 20
-539.0
 11
41.9999999999999929
 21
-539.0
 72
1
 10
41.9999999999999858
 20
-539.0
 11
39.0
 21
-536.0
 72
1
 10
39.0
 20
-536.0
 11
39.0
 21
-534.0
 72
1
 10
38.9999999999999929
 20
-534.0
 11
41.8499999999999943
 21
-534.0
 72
1
 10
41.8499999999999943
 20
-534.0
 11
41.8500000000000085
 21
-530.0
 72
1
 10
41.8499999999999943
 20
-530.0
 11
29.9999999999999929
 21
-530.0
 72
1
 10
29.9999999999999929
 20
-530.0
 11
29.9999999999999929
 21
-541.8500000000000227
 72
1
 10
29.9999999999999929
 20
-541.8500000000000227
 11
33.9999999999999929
 21
-541.8500000000000227
 72
1
 10
33.9999999999999929
 20
-541.8500000000000227
 11
33.9999999999999929
 21
-539.0
 72
1
 10
33.9999999999999929
 20
-539.0
 11
35.9999999999999929
 21
-539.0
 97
0
 92
1
 93
12
 72
1
 10
65.0
 20
-552.0
 11
65.0
 21
-556.0
 72
1
 10
65.0
 20
-556.0
 11
54.9999999999999929
 21
-556.0
 72
1
 10
54.9999999999999929
 20
-556.0
 11
54.9999999999999929
 21
-552.0
 72
1
 10
54.9999999999999929
 20
-552.0
 11
50.9999999999999929
 21
-548.0
 72
1
 10
50.9999999999999929
 20
-548.0
 11
50.9999999999999929
 21
-542.0
 72
1
 10
50.9999999999999929
 20
-542.0
 11
54.9999999999999929
 21
-538.0
 72
1
 10
54.9999999999999929
 20
-538.0
 11
54.9999999999999929
 21
-534.0
 72
1
 10
54.9999999999999929
 20
-534.0
 11
65.0
 21
-534.0
 72
1
 10
65.0
 20
-534.0
 11
65.0
 21
-538.0
 72
1
 10
65.0
 20
-538.0
 11
69.0
 21
-542.0
 72
1
 10
69.0
 20
-542.0
 11
69.0
 21
-548.0
 72
1
 10
69.0
 20
-548.0
 11
65.0
 21
-552.0
 97
0
 92
1
 93
1
 72
2
 10
44.9999999999999929
 20
-545.0
 40
2.6000000000000014
 50
0.0
 51
360.0
 73
1
 97
0
 92
1
 93
1
 72
2
 10
75.0
 20
-545.0
 40
2.6000000000000014
 50
0.0
 51
360.0
 73
1
 97
0
 75
0
 76
1
 98
0
1001
ACAD
1010
0.0
1020
0.0
1030
0
  0
LEADER
  5
343
100
AcDbEntity
  8
Annotations
 62
256
370
90
 48
3.0
  6
BYLAYER
100
AcDbLeader
  3
Standard
 71
1
 72
0
 73
3
 74
0
 75
0
 40
1.0
 41
10.0
 76
2
 10
75.0000000000000142
 20
-19.2008670520231277
 10
75.0000000000000142
 20
-35.2008670520231277
1001
ACAD
1000
DSTYLE
1002
{
1070
40
1040
1.0
1002
}
  0
LEADER
  5
344
100
AcDbEntity
  8
Annotations
 62
256
370
90
 48
3.0
  6
BYLAYER
100
AcDbLeader
  3
Standard
 71
1
 72
0
 73
3
 74
0
 75
0
 40
1.0
 41
10.0
 76
2
 10
45.0000000000000213
 20
-19.2008670520231277
 10
45.0000000000000213
 20
-35.2008670520231277
1001
ACAD
1000
DSTYLE
1002
{
1070
40
1040
1.0
1002
}
  0
MTEXT
  5
345
100
AcDbEntity
  8
Annotations
 62
256
370
-1
 48
1.0
  6
BYLAYER
100
AcDbMText
 10
60.0000000000000071
 20
-41.2008670520231135
 30
0.0
 40
5.0
 41
0.0
 71
5
 72
1
  1
M8\U+653b\U+4e1d\U+ff0c\U+6df1\U+5ea635mm
  7
textstyle5
 50
0.0
 73
2
 44
1.0
  0
LEADER
  5
346
100
AcDbEntity
  8
Annotations
 62
256
370
90
 48
3.0
  6
BYLAYER
100
AcDbLeader
  3
Standard
 71
1
 72
0
 73
3
 74
0
 75
0
 40
1.0
 41
10.0
 76
2
 10
75.0000000000000142
 20
-89.2008670520231277
 10
75.0000000000000142
 20
-105.2008670520231277
1001
ACAD
1000
DSTYLE
1002
{
1070
40
1040
1.0
1002
}
  0
LEADER
  5
347
100
AcDbEntity
  8
Annotations
 62
256
370
90
 48
3.0
  6
BYLAYER
100
AcDbLeader
  3
Standard
 71
1
 72
0
 73
3
 74
0
 75
0
 40
1.0
 41
10.0
 76
2
 10
45.0000000000000213
 20
-89.2008670520231277
 10
45.0000000000000213
 20
-105.2008670520231277
1001
ACAD
1000
DSTYLE
1002
{
1070
40
1040
1.0
1002
}
  0
MTEXT
  5
348
100
AcDbEntity
  8
Annotations
 62
256
370
-1
 48
1.0
  6
BYLAYER
100
AcDbMText
 10
60.0
 20
-111.2008670520231419
 30
0.0
 40
5.0
 41
0.0
 71
5
 72
1
  1
M8\U+653b\U+4e1d\U+ff0c\U+6df1\U+5ea635mm
  7
textstyle2
 50
0.0
 73
2
 44
1.0
  0
LEADER
  5
349
100
AcDbEntity
  8
Annotations
 62
256
370
90
 48
3.0
  6
BYLAYER
100
AcDbLeader
  3
Standard
 71
1
 72
0
 73
3
 74
0
 75
0
 40
1.0
 41
10.0
 76
2
 10
75.0000000000000142
 20
-169.2008670520231135
 10
75.0000000000000142
 20
-185.2008670520231135
1001
ACAD
1000
DSTYLE
1002
{
1070
40
1040
1.0
1002
}
  0
LEADER
  5
34A
100
AcDbEntity
  8
Annotations
 62
256
370
90
 48
3.0
  6
BYLAYER
100
AcDbLeader
  3
Standard
 71
1
 72
0
 73
3
 74
0
 75
0
 40
1.0
 41
10.0
 76
2
 10
45.0000000000000213
 20
-169.2008670520231135
 10
45.0000000000000213
 20
-185.2008670520231135
1001
ACAD
1000
DSTYLE
1002
{
1070
40
1040
1.0
1002
}
  0
MTEXT
  5
34B
100
AcDbEntity
  8
Annotations
 62
256
370
-1
 48
1.0
  6
BYLAYER
100
AcDbMText
 10
60.0
 20
-191.2008670520231419
 30
0.0
 40
5.0
 41
0.0
 71
5
 72
1
  1
M8\U+653b\U+4e1d\U+ff0c\U+6df1\U+5ea635mm
  7
textstyle3
 50
0.0
 73
2
 44
1.0
  0
LEADER
  5
34C
100
AcDbEntity
  8
Annotations
 62
256
370
90
 48
3.0
  6
BYLAYER
100
AcDbLeader
  3
Standard
 71
1
 72
0
 73
3
 74
0
 75
0
 40
1.0
 41
10.0
 76
2
 10
75.0000000000000142
 20
-239.2008670520231135
 10
75.0000000000000142
 20
-255.2008670520231135
1001
ACAD
1000
DSTYLE
1002
{
1070
40
1040
1.0
1002
}
  0
LEADER
  5
34D
100
AcDbEntity
  8
Annotations
 62
256
370
90
 48
3.0
  6
BYLAYER
100
AcDbLeader
  3
Standard
 71
1
 72
0
 73
3
 74
0
 75
0
 40
1.0
 41
10.0
 76
2
 10
45.0000000000000213
 20
-239.2008670520231135
 10
45.0000000000000213
 20
-255.2008670520231135
1001
ACAD
1000
DSTYLE
1002
{
1070
40
1040
1.0
1002
}
  0
MTEXT
  5
34E
100
AcDbEntity
  8
Annotations
 62
256
370
-1
 48
1.0
  6
BYLAYER
100
AcDbMText
 10
59.9999999999999787
 20
-261.2008670520231703
 30
0.0
 40
5.0
 41
0.0
 71
5
 72
1
  1
M8\U+653b\U+4e1d\U+ff0c\U+6df1\U+5ea635mm
  7
textstyle4
 50
0.0
 73
2
 44
1.0
  0
LEADER
  5
34F
100
AcDbEntity
  8
Annotations
 62
256
370
90
 48
3.0
  6
BYLAYER
100
AcDbLeader
  3
Standard
 71
1
 72
0
 73
3
 74
0
 75
0
 40
1.0
 41
10.0
 76
2
 10
75.0000000000000142
 20
-319.2008670520231135
 10
75.0000000000000142
 20
-335.2008670520231135
1001
ACAD
1000
DSTYLE
1002
{
1070
40
1040
1.0
1002
}
  0
LEADER
  5
350
100
AcDbEntity
  8
Annotations
 62
256
370
90
 48
3.0
  6
BYLAYER
100
AcDbLeader
  3
Standard
 71
1
 72
0
 73
3
 74
0
 75
0
 40
1.0
 41
10.0
 76
2
 10
45.0000000000000213
 20
-319.2008670520231135
 10
45.0000000000000213
 20
-335.2008670520231135
1001
ACAD
1000
DSTYLE
1002
{
1070
40
1040
1.0
1002
}
  0
MTEXT
  5
351
100
AcDbEntity
  8
Annotations
 62
256
370
-1
 48
1.0
  6
BYLAYER
100
AcDbMText
 10
59.9999999999999076
 20
-341.2008670520231703
 30
0.0
 40
5.0
 41
0.0
 71
5
 72
1
  1
M8\U+653b\U+4e1d\U+ff0c\U+6df1\U+5ea635mm
  7
textstyle0
 50
0.0
 73
2
 44
1.0
  0
LEADER
  5
352
100
AcDbEntity
  8
Annotations
 62
256
370
90
 48
3.0
  6
BYLAYER
100
AcDbLeader
  3
Standard
 71
1
 72
0
 73
3
 74
0
 75
0
 40
1.0
 41
10.0
 76
2
 10
75.0000000000000142
 20
-389.2008670520231135
 10
75.0000000000000142
 20
-405.2008670520231135
1001
ACAD
1000
DSTYLE
1002
{
1070
40
1040
1.0
1002
}
  0
LEADER
  5
353
100
AcDbEntity
  8
Annotations
 62
256
370
90
 48
3.0
  6
BYLAYER
100
AcDbLeader
  3
Standard
 71
1
 72
0
 73
3
 74
0
 75
0
 40
1.0
 41
10.0
 76
2
 10
45.0000000000000213
 20
-389.2008670520231135
 10
45.0000000000000213
 20
-405.2008670520231135
1001
ACAD
1000
DSTYLE
1002
{
1070
40
1040
1.0
1002
}
  0
MTEXT
  5
354
100
AcDbEntity
  8
Annotations
 62
256
370
-1
 48
1.0
  6
BYLAYER
100
AcDbMText
 10
59.9999999999998508
 20
-411.2008670520231703
 30
0.0
 40
5.0
 41
0.0
 71
5
 72
1
  1
M8\U+653b\U+4e1d\U+ff0c\U+6df1\U+5ea635mm
  7
textstyle1
 50
0.0
 73
2
 44
1.0
  0
ENDSEC
  0
SECTION
  2
OBJECTS
  0
DICTIONARY
  5
C
100
AcDbDictionary
280
0
281
1
  3
ACAD_GROUP
350
D
  3
ACAD_LAYOUT
350
1A
  3
ACAD_MLINESTYLE
350
17
  3
ACAD_PLOTSETTINGS
350
19
  3
ACAD_PLOTSTYLENAME
350
E
  3
AcDbVariableDictionary
350
355
  3
QCAD_OBJECTS
350
356
  0
DICTIONARY
  5
D
100
AcDbDictionary
280
0
281
1
  0
ACDBDICTIONARYWDFLT
  5
E
100
AcDbDictionary
281
1
  3
Normal
350
F
100
AcDbDictionaryWithDefault
340
F
  0
ACDBPLACEHOLDER
  5
F
  0
DICTIONARY
  5
17
100
AcDbDictionary
280
0
281
1
  3
Standard
350
18
  0
MLINESTYLE
  5
18
100
AcDbMlineStyle
  2
STANDARD
 70
0
  3

 62
256
 51
90.0
 52
90.0
 71
2
 49
0.5
 62
256
  6
BYLAYER
 49
-0.5
 62
256
  6
BYLAYER
  0
DICTIONARY
  5
19
100
AcDbDictionary
280
0
281
1
  0
DICTIONARY
  5
1A
100
AcDbDictionary
281
1
  3
Layout1
350
1E
  3
Layout2
350
26
  3
Model
350
22
  0
LAYOUT
  5
1E
100
AcDbPlotSettings
  1

  2
none_device
  4

  6

 40
0.0
 41
0.0
 42
0.0
 43
0.0
 44
0.0
 45
0.0
 46
0.0
 47
0.0
 48
0.0
 49
0.0
140
0.0
141
0.0
142
1.0
143
1.0
 70
688
 72
0
 73
0
 74
5
  7

 75
16
147
1.0
148
0.0
149
0.0
100
AcDbLayout
  1
Layout1
 70
1
 71
1
 10
0.0
 20
0.0
 11
420.0
 21
297.0
 12
0.0
 22
0.0
 32
0.0
 14
100000000000000000000.0
 24
100000000000000000000.0
 34
100000000000000000000.0
 15
-100000000000000000000.0
 25
-100000000000000000000.0
 35
-100000000000000000000.0
146
0.0
 13
0.0
 23
0.0
 33
0.0
 16
1.0
 26
0.0
 36
0.0
 17
0.0
 27
1.0
 37
0.0
 76
0
330
1B
  0
LAYOUT
  5
22
100
AcDbPlotSettings
  1

  2
none_device
  4

  6

 40
0.0
 41
0.0
 42
0.0
 43
0.0
 44
0.0
 45
0.0
 46
0.0
 47
0.0
 48
0.0
 49
0.0
140
0.0
141
0.0
142
1.0
143
1.0
 70
1712
 72
0
 73
0
 74
0
  7

 75
0
147
1.0
148
0.0
149
0.0
100
AcDbLayout
  1
Model
 70
1
 71
0
 10
0.0
 20
0.0
 11
12.0
 21
9.0
 12
0.0
 22
0.0
 32
0.0
 14
0.0
 24
0.0
 34
0.0
 15
0.0
 25
0.0
 35
0.0
146
0.0
 13
0.0
 23
0.0
 33
0.0
 16
1.0
 26
0.0
 36
0.0
 17
0.0
 27
1.0
 37
0.0
 76
0
330
1F
  0
LAYOUT
  5
26
100
AcDbPlotSettings
  1

  2
none_device
  4

  6

 40
0.0
 41
0.0
 42
0.0
 43
0.0
 44
0.0
 45
0.0
 46
0.0
 47
0.0
 48
0.0
 49
0.0
140
0.0
141
0.0
142
1.0
143
1.0
 70
688
 72
0
 73
0
 74
5
  7

 75
16
147
1.0
148
0.0
149
0.0
100
AcDbLayout
  1
Layout2
 70
1
 71
2
 10
0.0
 20
0.0
 11
12.0
 21
9.0
 12
0.0
 22
0.0
 32
0.0
 14
0.0
 24
0.0
 34
0.0
 15
0.0
 25
0.0
 35
0.0
146
0.0
 13
0.0
 23
0.0
 33
0.0
 16
1.0
 26
0.0
 36
0.0
 17
0.0
 27
1.0
 37
0.0
 76
0
330
23
  0
DICTIONARY
  5
355
100
AcDbDictionary
281
1
  3
DIMASSOC
350
358
  3
HIDETEXT
350
357
  0
DICTIONARYVAR
  5
357
100
DictionaryVariables
280
0
  1
2
  0
DICTIONARYVAR
  5
358
100
DictionaryVariables
280
0
  1
1
  0
DICTIONARY
  5
356
100
AcDbDictionary
281
1
  3
ColorSettings/BackgroundColor
350
359
  3
ColorSettings/ColorMode
350
35A
  3
DimensionSettings/AngularFormat
350
35B
  3
DimensionSettings/AngularPrecision
350
35C
  3
DimensionSettings/DecimalPoint
350
35D
  3
DimensionSettings/DimensionFont
350
35E
  3
DimensionSettings/DimensionTextColor
350
35F
  3
DimensionSettings/KeepProportions
350
360
  3
DimensionSettings/LinearFormat
350
361
  3
DimensionSettings/LinearPrecision
350
362
  3
Grid/DisplayGrid00
350
363
  3
Grid/DisplayGrid01
350
364
  3
Grid/DisplayGrid02
350
365
  3
Grid/DisplayGrid03
350
366
  3
Grid/GridSpacingX00
350
367
  3
Grid/GridSpacingX01
350
368
  3
Grid/GridSpacingX02
350
369
  3
Grid/GridSpacingX03
350
36A
  3
Grid/GridSpacingY00
350
36B
  3
Grid/GridSpacingY01
350
36C
  3
Grid/GridSpacingY02
350
36D
  3
Grid/GridSpacingY03
350
36E
  3
Grid/IsometricGrid00
350
36F
  3
Grid/IsometricGrid01
350
370
  3
Grid/IsometricGrid02
350
371
  3
Grid/IsometricGrid03
350
372
  3
Grid/IsometricProjection00
350
373
  3
Grid/IsometricProjection01
350
374
  3
Grid/IsometricProjection02
350
375
  3
Grid/IsometricProjection03
350
376
  3
Grid/MetaGridSpacingX00
350
377
  3
Grid/MetaGridSpacingX01
350
378
  3
Grid/MetaGridSpacingX02
350
379
  3
Grid/MetaGridSpacingX03
350
37A
  3
Grid/MetaGridSpacingY00
350
37B
  3
Grid/MetaGridSpacingY01
350
37C
  3
Grid/MetaGridSpacingY02
350
37D
  3
Grid/MetaGridSpacingY03
350
37E
  3
MultiPageSettings/Columns
350
37F
  3
MultiPageSettings/GlueMarginsBottom
350
380
  3
MultiPageSettings/GlueMarginsLeft
350
381
  3
MultiPageSettings/GlueMarginsRight
350
382
  3
MultiPageSettings/GlueMarginsTop
350
383
  3
MultiPageSettings/PrintCropMarks
350
384
  3
MultiPageSettings/Rows
350
385
  3
PageSettings/OffsetX
350
386
  3
PageSettings/OffsetY
350
387
  3
PageSettings/PageOrientation
350
388
  3
PageSettings/PaperHeight
350
389
  3
PageSettings/PaperSizeName
350
38A
  3
PageSettings/PaperWidth
350
38B
  3
PageSettings/PointSize
350
38C
  3
PageSettings/Scale
350
38D
  3
PageSettings/ShowPaperBorders
350
38E
  3
PageTagSettings/EnablePageTags
350
38F
  3
PageTagSettings/TagAlignment
350
390
  3
PageTagSettings/TagFont
350
391
  3
PageTagSettings/TagPosition
350
392
  3
QCADVersion
350
393
  3
UnitSettings/PaperUnit
350
394
  3
ViewportCenter
350
395
  3
ViewportHeight
350
396
  3
ViewportWidth
350
397
  0
XRECORD
  5
359
330
356
100
AcDbXrecord
280
1
1000
White
  0
XRECORD
  5
35A
330
356
100
AcDbXrecord
280
1
1000
FullColor
  0
XRECORD
  5
35B
330
356
100
AcDbXrecord
280
1
 90
0
  0
XRECORD
  5
35C
330
356
100
AcDbXrecord
280
1
 90
0
  0
XRECORD
  5
35D
330
356
100
AcDbXrecord
280
1
 90
46
  0
XRECORD
  5
35E
330
356
100
AcDbXrecord
280
1
1000
MS Shell Dlg 2
  0
XRECORD
  5
35F
330
356
100
AcDbXrecord
280
1
1000
By Layer
  0
XRECORD
  5
360
330
356
100
AcDbXrecord
280
1
290
1
  0
XRECORD
  5
361
330
356
100
AcDbXrecord
280
1
 90
2
  0
XRECORD
  5
362
330
356
100
AcDbXrecord
280
1
 90
4
  0
XRECORD
  5
363
330
356
100
AcDbXrecord
280
1
290
1
  0
XRECORD
  5
364
330
356
100
AcDbXrecord
280
1
290
1
  0
XRECORD
  5
365
330
356
100
AcDbXrecord
280
1
290
1
  0
XRECORD
  5
366
330
356
100
AcDbXrecord
280
1
290
1
  0
XRECORD
  5
367
330
356
100
AcDbXrecord
280
1
1000
auto
  0
XRECORD
  5
368
330
356
100
AcDbXrecord
280
1
1000
auto
  0
XRECORD
  5
369
330
356
100
AcDbXrecord
280
1
1000
auto
  0
XRECORD
  5
36A
330
356
100
AcDbXrecord
280
1
1000
auto
  0
XRECORD
  5
36B
330
356
100
AcDbXrecord
280
1
1000
auto
  0
XRECORD
  5
36C
330
356
100
AcDbXrecord
280
1
1000
auto
  0
XRECORD
  5
36D
330
356
100
AcDbXrecord
280
1
1000
auto
  0
XRECORD
  5
36E
330
356
100
AcDbXrecord
280
1
1000
auto
  0
XRECORD
  5
36F
330
356
100
AcDbXrecord
280
1
290
0
  0
XRECORD
  5
370
330
356
100
AcDbXrecord
280
1
290
0
  0
XRECORD
  5
371
330
356
100
AcDbXrecord
280
1
290
0
  0
XRECORD
  5
372
330
356
100
AcDbXrecord
280
1
290
0
  0
XRECORD
  5
373
330
356
100
AcDbXrecord
280
1
 90
65537
  0
XRECORD
  5
374
330
356
100
AcDbXrecord
280
1
 90
65537
  0
XRECORD
  5
375
330
356
100
AcDbXrecord
280
1
 90
65537
  0
XRECORD
  5
376
330
356
100
AcDbXrecord
280
1
 90
65537
  0
XRECORD
  5
377
330
356
100
AcDbXrecord
280
1
1000
auto
  0
XRECORD
  5
378
330
356
100
AcDbXrecord
280
1
1000
auto
  0
XRECORD
  5
379
330
356
100
AcDbXrecord
280
1
1000
auto
  0
XRECORD
  5
37A
330
356
100
AcDbXrecord
280
1
1000
auto
  0
XRECORD
  5
37B
330
356
100
AcDbXrecord
280
1
1000
auto
  0
XRECORD
  5
37C
330
356
100
AcDbXrecord
280
1
1000
auto
  0
XRECORD
  5
37D
330
356
100
AcDbXrecord
280
1
1000
auto
  0
XRECORD
  5
37E
330
356
100
AcDbXrecord
280
1
1000
auto
  0
XRECORD
  5
37F
330
356
100
AcDbXrecord
280
1
 90
1
  0
XRECORD
  5
380
330
356
100
AcDbXrecord
280
1
 40
10.0
  0
XRECORD
  5
381
330
356
100
AcDbXrecord
280
1
 40
10.0
  0
XRECORD
  5
382
330
356
100
AcDbXrecord
280
1
 40
10.0
  0
XRECORD
  5
383
330
356
100
AcDbXrecord
280
1
 40
10.0
  0
XRECORD
  5
384
330
356
100
AcDbXrecord
280
1
290
0
  0
XRECORD
  5
385
330
356
100
AcDbXrecord
280
1
 90
1
  0
XRECORD
  5
386
330
356
100
AcDbXrecord
280
1
1000
-22.3009
  0
XRECORD
  5
387
330
356
100
AcDbXrecord
280
1
1000
-603.54
  0
XRECORD
  5
388
330
356
100
AcDbXrecord
280
1
1000
Portrait
  0
XRECORD
  5
389
330
356
100
AcDbXrecord
280
1
 40
297.0
  0
XRECORD
  5
38A
330
356
100
AcDbXrecord
280
1
1000
ISO A4
  0
XRECORD
  5
38B
330
356
100
AcDbXrecord
280
1
 40
210.0
  0
XRECORD
  5
38C
330
356
100
AcDbXrecord
280
1
1000
0.5
  0
XRECORD
  5
38D
330
356
100
AcDbXrecord
280
1
 40
0.452
  0
XRECORD
  5
38E
330
356
100
AcDbXrecord
280
1
290
1
  0
XRECORD
  5
38F
330
356
100
AcDbXrecord
280
1
290
0
  0
XRECORD
  5
390
330
356
100
AcDbXrecord
280
1
1000
Inside
  0
XRECORD
  5
391
330
356
100
AcDbXrecord
280
1
1000
Arial,10,-1,5,50,0,0,0,0,0
  0
XRECORD
  5
392
330
356
100
AcDbXrecord
280
1
1000
TopLeft
  0
XRECORD
  5
393
330
356
100
AcDbXrecord
280
1
1000
3.32.3
  0
XRECORD
  5
394
330
356
100
AcDbXrecord
280
1
 90
4
  0
XRECORD
  5
396
330
356
100
AcDbXrecord
280
1
 40
878.5639327296246393
  0
XRECORD
  5
397
330
356
100
AcDbXrecord
280
1
 40
1876.5817335058211484
  0
ENDSEC
  0
EOF
