  0
SECTION
  2
HEADER
  9
$ACADVER
  1
AC1014
  9
$ACADMAINTVER
 70
     9
  9
$DWGCODEPAGE
  3
ANSI_1252
  9
$INSBASE
 10
0.0
 20
0.0
 30
0.0
  9
$EXTMIN
 10
20.0
 20
10.0
 30
-7.241987298107809
  9
$EXTMAX
 10
210.384048
 20
287.0
 30
7.241987298107809
  9
$LIMMIN
 10
0.0
 20
0.0
  9
$LIMMAX
 10
12.0
 20
9.0
  9
$ORTHOMODE
 70
     0
  9
$REGENMODE
 70
     1
  9
$FILLMODE
 70
     1
  9
$QTEXTMODE
 70
     0
  9
$MIRRTEXT
 70
     1
  9
$DRAGMODE
 70
     2
  9
$LTSCALE
 40
12.7
  9
$OSMODE
 70
    23
  9
$ATTMODE
 70
     1
  9
$TEXTSIZE
 40
3.5
  9
$TRACEWID
 40
0.05
  9
$TEXTSTYLE
  7
ONSHAPE-STANDARD
  9
$CLAYER
  8
0
  9
$CELTYPE
  6
BYLAYER
  9
$CECOLOR
 62
   256
  9
$CELTSCALE
 40
1.0
  9
$DELOBJ
 70
     1
  9
$DISPSILH
 70
     0
  9
$DIMSCALE
 40
1.0
  9
$DIMASZ
 40
2.5
  9
$DIMEXO
 40
0.625
  9
$DIMDLI
 40
3.75
  9
$DIMRND
 40
0.0
  9
$DIMDLE
 40
0.0
  9
$DIMEXE
 40
1.25
  9
$DIMTP
 40
0.0
  9
$DIMTM
 40
0.0
  9
$DIMTXT
 40
2.5
  9
$DIMCEN
 40
2.5
  9
$DIMTSZ
 40
0.0
  9
$DIMTOL
 70
     0
  9
$DIMLIM
 70
     0
  9
$DIMTIH
 70
     0
  9
$DIMTOH
 70
     0
  9
$DIMSE1
 70
     0
  9
$DIMSE2
 70
     0
  9
$DIMTAD
 70
     1
  9
$DIMZIN
 70
    12
  9
$DIMBLK
  1

  9
$DIMASO
 70
     1
  9
$DIMSHO
 70
     1
  9
$DIMPOST
  1

  9
$DIMAPOST
  1

  9
$DIMALT
 70
     0
  9
$DIMALTD
 70
     3
  9
$DIMALTF
 40
0.03937
  9
$DIMLFAC
 40
0.3333333333333333
  9
$DIMTOFL
 70
     1
  9
$DIMTVP
 40
0.0
  9
$DIMTIX
 70
     0
  9
$DIMSOXD
 70
     0
  9
$DIMSAH
 70
     0
  9
$DIMBLK1
  1

  9
$DIMBLK2
  1

  9
$DIMSTYLE
  2
ONSHAPE-ISO-25
  9
$DIMCLRD
 70
     7
  9
$DIMCLRE
 70
     7
  9
$DIMCLRT
 70
     7
  9
$DIMTFAC
 40
1.0
  9
$DIMGAP
 40
0.625
  9
$DIMJUST
 70
     0
  9
$DIMSD1
 70
     0
  9
$DIMSD2
 70
     0
  9
$DIMTOLJ
 70
     0
  9
$DIMTZIN
 70
     8
  9
$DIMALTZ
 70
    12
  9
$DIMALTTZ
 70
     8
  9
$DIMFIT
 70
     3
  9
$DIMUPT
 70
     1
  9
$DIMUNIT
 70
     2
  9
$DIMDEC
 70
     2
  9
$DIMTDEC
 70
     2
  9
$DIMALTU
 70
     2
  9
$DIMALTTD
 70
     3
  9
$DIMTXSTY
  7
ONSHAPE-STANDARD-DIMENSION
  9
$DIMAUNIT
 70
     0
  9
$LUNITS
 70
     2
  9
$LUPREC
 70
     4
  9
$SKETCHINC
 40
0.1
  9
$FILLETRAD
 40
0.5
  9
$AUNITS
 70
     0
  9
$AUPREC
 70
     0
  9
$MENU
  1
.
  9
$ELEVATION
 40
0.0
  9
$PELEVATION
 40
0.0
  9
$THICKNESS
 40
0.0
  9
$LIMCHECK
 70
     0
  9
$CHAMFERA
 40
0.0
  9
$CHAMFERB
 40
0.0
  9
$CHAMFERC
 40
0.0
  9
$CHAMFERD
 40
0.0
  9
$SKPOLY
 70
     0
  9
$TDCREATE
 40
2460932.605953854
  9
$TDUPDATE
 40
2460932.605954607
  9
$TDINDWG
 40
0.0
  9
$TDUSRTIMER
 40
0.0
  9
$USRTIMER
 70
     1
  9
$ANGBASE
 50
0.0
  9
$ANGDIR
 70
     0
  9
$PDMODE
 70
    33
  9
$PDSIZE
 40
1.0
  9
$PLINEWID
 40
0.0
  9
$COORDS
 70
     1
  9
$SPLFRAME
 70
     0
  9
$SPLINETYPE
 70
     6
  9
$SPLINESEGS
 70
     8
  9
$ATTDIA
 70
     0
  9
$ATTREQ
 70
     1
  9
$HANDLING
 70
     1
  9
$HANDSEED
  5
375
  9
$SURFTAB1
 70
     6
  9
$SURFTAB2
 70
     6
  9
$SURFTYPE
 70
     6
  9
$SURFU
 70
     6
  9
$SURFV
 70
     6
  9
$UCSNAME
  2

  9
$UCSORG
 10
0.0
 20
0.0
 30
0.0
  9
$UCSXDIR
 10
1.0
 20
0.0
 30
0.0
  9
$UCSYDIR
 10
0.0
 20
1.0
 30
0.0
  9
$PUCSNAME
  2

  9
$PUCSORG
 10
0.0
 20
0.0
 30
0.0
  9
$PUCSXDIR
 10
1.0
 20
0.0
 30
0.0
  9
$PUCSYDIR
 10
0.0
 20
1.0
 30
0.0
  9
$USERI1
 70
     0
  9
$USERI2
 70
     0
  9
$USERI3
 70
     0
  9
$USERI4
 70
     0
  9
$USERI5
 70
     0
  9
$USERR1
 40
0.0
  9
$USERR2
 40
0.0
  9
$USERR3
 40
0.0
  9
$USERR4
 40
0.0
  9
$USERR5
 40
0.0
  9
$WORLDVIEW
 70
     1
  9
$SHADEDGE
 70
     3
  9
$SHADEDIF
 70
    70
  9
$TILEMODE
 70
     1
  9
$MAXACTVP
 70
    64
  9
$PINSBASE
 10
0.0
 20
0.0
 30
0.0
  9
$PLIMCHECK
 70
     0
  9
$PEXTMIN
 10
1.000000000000000E+20
 20
1.000000000000000E+20
 30
1.000000000000000E+20
  9
$PEXTMAX
 10
-1.000000000000000E+20
 20
-1.000000000000000E+20
 30
-1.000000000000000E+20
  9
$PLIMMIN
 10
0.0
 20
0.0
  9
$PLIMMAX
 10
12.0
 20
9.0
  9
$UNITMODE
 70
     0
  9
$VISRETAIN
 70
     1
  9
$PLINEGEN
 70
     0
  9
$PSLTSCALE
 70
     1
  9
$TREEDEPTH
 70
  3020
  9
$PICKSTYLE
 70
     1
  9
$CMLSTYLE
  2
STANDARD
  9
$CMLJUST
 70
     0
  9
$CMLSCALE
 40
1.0
  9
$PROXYGRAPHICS
 70
     1
  9
$MEASUREMENT
 70
     0
  0
ENDSEC
  0
SECTION
  2
CLASSES
  0
CLASS
  1
ACDBDICTIONARYWDFLT
  2
AcDbDictionaryWithDefault
  3
ObjectDBX Classes
 90
        0
280
     0
281
     0
  0
CLASS
  1
VISUALSTYLE
  2
AcDbVisualStyle
  3
ObjectDBX Classes
 90
     4095
280
     0
281
     0
  0
CLASS
  1
MATERIAL
  2
AcDbMaterial
  3
ObjectDBX Classes
 90
     1153
280
     0
281
     0
  0
CLASS
  1
SCALE
  2
AcDbScale
  3
ObjectDBX Classes
 90
     1153
280
     0
281
     0
  0
CLASS
  1
TABLESTYLE
  2
AcDbTableStyle
  3
ObjectDBX Classes
 90
     4095
280
     0
281
     0
  0
CLASS
  1
MLEADERSTYLE
  2
AcDbMLeaderStyle
  3
ACDB_MLEADERSTYLE_CLASS
 90
     4095
280
     0
281
     0
  0
CLASS
  1
SUN
  2
AcDbSun
  3
SCENEOE
 90
     1153
280
     0
281
     0
  0
CLASS
  1
DICTIONARYVAR
  2
AcDbDictionaryVar
  3
ObjectDBX Classes
 90
        0
280
     0
281
     0
  0
CLASS
  1
FIELD
  2
AcDbField
  3
ObjectDBX Classes
 90
     1152
280
     0
281
     0
  0
CLASS
  1
FIELDLIST
  2
AcDbFieldList
  3
ObjectDBX Classes
 90
     1152
280
     0
281
     0
  0
CLASS
  1
DIMASSOC
  2
AcDbDimAssoc
  3
"AcDbDimAssoc|Product Desc:     AcDim ARX App For Dimension|Company:          Autodesk, Inc.|WEB Address:      www.autodesk.com"
 90
        0
280
     0
281
     0
  0
CLASS
  1
BREAKDATA
  2
AcDbBreakData
  3
ObjectDBX Classes
 90
     1024
280
     0
281
     0
  0
CLASS
  1
XRECORD
  2
AcDbXrecord
  3
ObjectDBX Classes
 90
        0
280
     0
281
     0
  0
CLASS
  1
LWPOLYLINE
  2
AcDbPolyline
  3
ObjectDBX Classes
 90
        0
280
     0
281
     1
  0
CLASS
  1
HATCH
  2
AcDbHatch
  3
ObjectDBX Classes
 90
        0
280
     0
281
     1
  0
CLASS
  1
ACDBPLACEHOLDER
  2
AcDbPlaceHolder
  3
ObjectDBX Classes
 90
        0
280
     0
281
     0
  0
CLASS
  1
LAYOUT
  2
AcDbLayout
  3
ObjectDBX Classes
 90
        0
280
     0
281
     0
  0
ENDSEC
  0
SECTION
  2
TABLES
  0
TABLE
  2
VPORT
  5
8
102
{ACAD_XDICTIONARY
360
369
102
}
330
0
100
AcDbSymbolTable
 70
     1
  0
VPORT
  5
29
330
8
100
AcDbSymbolTableRecord
100
AcDbViewportTableRecord
  2
*ACTIVE
 70
     0
 10
0.0
 20
0.0
 11
1.0
 21
1.0
 12
115.694944
 22
148.5
 13
0.0
 23
0.0
 14
0.5
 24
0.5
 15
0.5
 25
0.5
 16
0.0
 26
0.0
 36
1.0
 17
0.0
 27
0.0
 37
0.0
 40
282.54
 41
0.6909382238267149
 42
50.0
 43
0.0
 44
0.0
 50
0.0
 51
0.0
 71
     0
 72
   100
 73
     1
 74
     3
 75
     0
 76
     0
 77
     0
 78
     0
  0
ENDTAB
  0
TABLE
  2
LTYPE
  5
5
330
0
100
AcDbSymbolTable
 70
     3
  0
LTYPE
  5
14
330
5
100
AcDbSymbolTableRecord
100
AcDbLinetypeTableRecord
  2
BYBLOCK
 70
     0
  3

 72
    65
 73
     0
 40
0.0
  0
LTYPE
  5
15
330
5
100
AcDbSymbolTableRecord
100
AcDbLinetypeTableRecord
  2
BYLAYER
 70
     0
  3

 72
    65
 73
     0
 40
0.0
  0
LTYPE
  5
16
330
5
100
AcDbSymbolTableRecord
100
AcDbLinetypeTableRecord
  2
CONTINUOUS
 70
     0
  3
Solid line
 72
    65
 73
     0
 40
0.0
  0
LTYPE
  5
15C
330
5
100
AcDbSymbolTableRecord
100
AcDbLinetypeTableRecord
  2
CENTER
 70
     0
  3
Center line ____ _ ____ _ ____ _
 72
    65
 73
     4
 40
0.7874015748031495
 49
0.4921259842519685
 74
     0
 49
-0.0984251968503937
 74
     0
 49
0.0984251968503937
 74
     0
 49
-0.0984251968503937
 74
     0
  0
LTYPE
  5
16E
330
5
100
AcDbSymbolTableRecord
100
AcDbLinetypeTableRecord
  2
ONS_DASHDOT
 70
     0
  3
Onshape Dashed with Dot _ . ____ . ____
 72
    65
 73
     4
 40
0.71
 49
0.5
 74
     0
 49
-0.1
 74
     0
 49
0.01
 74
     0
 49
-0.1
 74
     0
  0
ENDTAB
  0
TABLE
  2
LAYER
  5
2
330
0
100
AcDbSymbolTable
 70
    15
  0
LAYER
  5
10
330
2
100
AcDbSymbolTableRecord
100
AcDbLayerTableRecord
  2
0
 70
     0
 62
     7
  6
CONTINUOUS
  0
LAYER
  5
70
330
2
100
AcDbSymbolTableRecord
100
AcDbLayerTableRecord
  2
DEFPOINTS
 70
     0
 62
     7
  6
CONTINUOUS
  0
LAYER
  5
74
330
2
100
AcDbSymbolTableRecord
100
AcDbLayerTableRecord
  2
SIDE_THREAD_SYMBOLS
 70
     0
 62
     7
  6
CONTINUOUS
  0
LAYER
  5
76
330
2
100
AcDbSymbolTableRecord
100
AcDbLayerTableRecord
  2
VISIBLE
 70
     0
 62
     7
  6
CONTINUOUS
  0
LAYER
  5
84
330
2
100
AcDbSymbolTableRecord
100
AcDbLayerTableRecord
  2
SURFACE_THREAD_SYMBOLS_ON_
 70
     0
 62
     7
  6
CONTINUOUS
  0
LAYER
  5
91
330
2
100
AcDbSymbolTableRecord
100
AcDbLayerTableRecord
  2
SURFACE_THREAD_SYMBOLS
 70
     0
 62
     7
  6
CONTINUOUS
  0
LAYER
  5
92
330
2
100
AcDbSymbolTableRecord
100
AcDbLayerTableRecord
  2
BLIND_THREAD_SYMBOLS
 70
     0
 62
     7
  6
CONTINUOUS
  0
LAYER
  5
B0
330
2
100
AcDbSymbolTableRecord
100
AcDbLayerTableRecord
  2
VIEW_HATCHES
 70
     0
 62
     7
  6
CONTINUOUS
  0
LAYER
  5
E7
330
2
100
AcDbSymbolTableRecord
100
AcDbLayerTableRecord
  2
TITLE_BLOCK
 70
     0
 62
     7
  6
CONTINUOUS
  0
LAYER
  5
150
330
2
100
AcDbSymbolTableRecord
100
AcDbLayerTableRecord
  2
BORDER_FRAME
 70
     0
 62
     7
  6
CONTINUOUS
  0
LAYER
  5
157
330
2
100
AcDbSymbolTableRecord
100
AcDbLayerTableRecord
  2
ANNOTATION_TEXT
 70
     0
 62
     7
  6
CONTINUOUS
  0
LAYER
  5
15B
330
2
100
AcDbSymbolTableRecord
100
AcDbLayerTableRecord
  2
CENTERMARKS
 70
     0
 62
     7
  6
CONTINUOUS
  0
LAYER
  5
16D
330
2
100
AcDbSymbolTableRecord
100
AcDbLayerTableRecord
  2
SECTION_CUTTING_LINE
 70
     0
 62
     7
  6
ONS_DASHDOT
  0
LAYER
  5
18F
330
2
100
AcDbSymbolTableRecord
100
AcDbLayerTableRecord
  2
CENTERLINES
 70
     0
 62
     7
  6
CENTER
  0
LAYER
  5
218
330
2
100
AcDbSymbolTableRecord
100
AcDbLayerTableRecord
  2
ANNOTATION_LINES
 70
     0
 62
     7
  6
CONTINUOUS
  0
ENDTAB
  0
TABLE
  2
STYLE
  5
3
330
0
100
AcDbSymbolTable
 70
    36
  0
STYLE
  5
11
330
3
100
AcDbSymbolTableRecord
100
AcDbTextStyleTableRecord
  2
STANDARD
 70
     0
 40
0.0
 41
1.0
 50
0.0
 71
     0
 42
3.5
  3
txt
  4

  0
STYLE
  5
71
330
3
100
AcDbSymbolTableRecord
100
AcDbTextStyleTableRecord
  2
ONSHAPE-STANDARD
 70
     0
 40
0.0
 41
1.0
 50
0.0
 71
     0
 42
3.5
  3
NotoSans-Regular.ttf
  4

1001
ACAD
1000
Noto Sans
1071
        0
  0
STYLE
  5
73
330
3
100
AcDbSymbolTableRecord
100
AcDbTextStyleTableRecord
  2
ONSHAPE-STANDARD-DIMENSION
 70
     0
 40
0.0
 41
1.0
 50
0.0
 71
     0
 42
3.5
  3
DejaVuSansMono.ttf
  4

1001
ACAD
1000
DejaVu Sans Mono
1071
        0
  0
STYLE
  5
119
330
3
100
AcDbSymbolTableRecord
100
AcDbTextStyleTableRecord
  2
ONSHAPE-STANDARD-FIELDS
 70
     0
 40
0.0
 41
1.0
 50
0.0
 71
     0
 42
3.5
  3

  4

1001
ACAD
1000
Noto Sans
1071
        0
  0
STYLE
  5
159
330
3
100
AcDbSymbolTableRecord
100
AcDbTextStyleTableRecord
  2
ONSHAPE-STANDARD-VIEW-LABE
 70
     0
 40
3.5
 41
1.0
 50
0.0
 71
     0
 42
3.5
  3
NotoSans-Regular.ttf
  4

1001
ACAD
1000
Noto Sans
1071
        0
  0
STYLE
  5
214
330
3
100
AcDbSymbolTableRecord
100
AcDbTextStyleTableRecord
  2
ONSHAPE-STANDARD-HOLE-CALL
 70
     0
 40
2.5
 41
1.0
 50
0.0
 71
     0
 42
3.5
  3
DejaVu Sans Mono
  4

1001
ACAD
1000
DejaVu Sans Mono
1071
        0
  0
STYLE
  5
2E8
330
3
100
AcDbSymbolTableRecord
100
AcDbTextStyleTableRecord
  2
ONSHAPE-STANDARD-BOLD
 70
     0
 40
0.0
 41
1.0
 50
0.0
 71
     0
 42
3.5
  3
NotoSans-Bold.ttf
  4

1001
ACAD
1000
Noto Sans
1071
 33554432
  0
STYLE
  5
2EA
330
3
100
AcDbSymbolTableRecord
100
AcDbTextStyleTableRecord
  2
ONSHAPE-STANDARD-TCFIELDS
 70
     0
 40
0.0
 41
1.0
 50
0.0
 71
     0
 42
3.5
  3
NotoSansTC-Regular.otf
  4

1001
ACAD
1000
Noto Sans TC
1071
        0
  0
STYLE
  5
2EB
330
3
100
AcDbSymbolTableRecord
100
AcDbTextStyleTableRecord
  2
ONSHAPE-STANDARD-SCFIELDS
 70
     0
 40
0.0
 41
1.0
 50
0.0
 71
     0
 42
3.5
  3
NotoSansSC-Regular.otf
  4

1001
ACAD
1000
Noto Sans SC
1071
        0
  0
STYLE
  5
2EC
330
3
100
AcDbSymbolTableRecord
100
AcDbTextStyleTableRecord
  2
ONSHAPE-STANDARD-KOREANFIE
 70
     0
 40
0.0
 41
1.0
 50
0.0
 71
     0
 42
3.5
  3
NotoSansKR-Regular.otf
  4

1001
ACAD
1000
Noto Sans KR
1071
        0
  0
STYLE
  5
2ED
330
3
100
AcDbSymbolTableRecord
100
AcDbTextStyleTableRecord
  2
ONSHAPE-STANDARD-JAPANESEF
 70
     0
 40
0.0
 41
1.0
 50
0.0
 71
     0
 42
3.5
  3
NotoSansJP-Regular.otf
  4

1001
ACAD
1000
Noto Sans JP
1071
        0
  0
STYLE
  5
2EE
330
3
100
AcDbSymbolTableRecord
100
AcDbTextStyleTableRecord
  2
TTFSTYLE
 70
     0
 40
0.0
 41
1.0
 50
0.0
 71
     0
 42
3.5
  3
Verdana.ttf
  4

1001
ACAD
1000
Verdana
1071
       34
  0
STYLE
  5
2EF
330
3
100
AcDbSymbolTableRecord
100
AcDbTextStyleTableRecord
  2
ONSHAPE-STANDARD-GTOLERANC
 70
     0
 40
2.5
 41
1.0
 50
0.0
 71
     0
 42
3.5
  3
DejaVu Sans Mono
  4

1001
ACAD
1000
DejaVu Sans Mono
1071
        0
  0
STYLE
  5
2F0
330
3
100
AcDbSymbolTableRecord
100
AcDbTextStyleTableRecord
  2
ONSHAPE-STANDARD-TABLE-DAT
 70
     0
 40
0.0
 41
1.0
 50
0.0
 71
     0
 42
3.5
  3
NotoSans-Regular.ttf
  4

1001
ACAD
1000
Noto Sans
1071
        0
  0
STYLE
  5
2F1
330
3
100
AcDbSymbolTableRecord
100
AcDbTextStyleTableRecord
  2
ONSHAPE-STANDARD-TABLE-TIT
 70
     0
 40
0.0
 41
1.0
 50
0.0
 71
     0
 42
3.5
  3
NotoSans-Bold.ttf
  4

1001
ACAD
1000
Noto Sans
1071
 33554432
  0
STYLE
  5
2F2
330
3
100
AcDbSymbolTableRecord
100
AcDbTextStyleTableRecord
  2
ONSHAPE-STANDARD-TABLE-HEA
 70
     0
 40
0.0
 41
1.0
 50
0.0
 71
     0
 42
3.5
  3
NotoSans-Bold.ttf
  4

1001
ACAD
1000
Noto Sans
1071
 33554432
  0
STYLE
  5
2F3
330
3
100
AcDbSymbolTableRecord
100
AcDbTextStyleTableRecord
  2
ONSHAPE-STANDARD-BOMTABLE-
 70
     0
 40
0.0
 41
1.0
 50
0.0
 71
     0
 42
3.5
  3
NotoSans-Regular.ttf
  4

1001
ACAD
1000
Noto Sans
1071
        0
  0
STYLE
  5
2F4
330
3
100
AcDbSymbolTableRecord
100
AcDbTextStyleTableRecord
  2
ONSHAPE-STANDARD-BOMTABLE0
 70
     0
 40
0.0
 41
1.0
 50
0.0
 71
     0
 42
3.5
  3
NotoSans-Bold.ttf
  4

1001
ACAD
1000
Noto Sans
1071
 33554432
  0
STYLE
  5
2F5
330
3
100
AcDbSymbolTableRecord
100
AcDbTextStyleTableRecord
  2
ONSHAPE-STANDARD-BOMTABLE1
 70
     0
 40
0.0
 41
1.0
 50
0.0
 71
     0
 42
3.5
  3
NotoSans-Bold.ttf
  4

1001
ACAD
1000
Noto Sans
1071
 33554432
  0
STYLE
  5
2F6
330
3
100
AcDbSymbolTableRecord
100
AcDbTextStyleTableRecord
  2
ONSHAPE-STANDARD-NOTESTYLE
 70
     0
 40
2.5
 41
1.0
 50
0.0
 71
     0
 42
3.5
  3
DejaVu Sans Mono
  4

1001
ACAD
1000
DejaVu Sans Mono
1071
        0
  0
STYLE
  5
2F7
330
3
100
AcDbSymbolTableRecord
100
AcDbTextStyleTableRecord
  2
ONSHAPE-STANDARD-DATUM-DIM
 70
     0
 40
2.5
 41
1.0
 50
0.0
 71
     0
 42
3.5
  3
DejaVu Sans Mono
  4

1001
ACAD
1000
DejaVu Sans Mono
1071
        0
  0
STYLE
  5
2F9
330
3
100
AcDbSymbolTableRecord
100
AcDbTextStyleTableRecord
  2
ONSHAPE-DETAIL-VIEW-LEADER
 70
     0
 40
3.5
 41
1.0
 50
0.0
 71
     0
 42
3.5
  3
Noto Sans
  4

1001
ACAD
1000
Noto Sans
1071
        0
  0
STYLE
  5
2FB
330
3
100
AcDbSymbolTableRecord
100
AcDbTextStyleTableRecord
  2
ONSHAPE-STANDARD-HOLETABLE
 70
     0
 40
0.0
 41
1.0
 50
0.0
 71
     0
 42
3.5
  3
NotoSans-Regular.ttf
  4

1001
ACAD
1000
Noto Sans
1071
        0
  0
STYLE
  5
2FC
330
3
100
AcDbSymbolTableRecord
100
AcDbTextStyleTableRecord
  2
ONSHAPE-STANDARD-HOLETABL0
 70
     0
 40
0.0
 41
1.0
 50
0.0
 71
     0
 42
3.5
  3
NotoSans-Bold.ttf
  4

1001
ACAD
1000
Noto Sans
1071
 33554432
  0
STYLE
  5
2FD
330
3
100
AcDbSymbolTableRecord
100
AcDbTextStyleTableRecord
  2
ONSHAPE-STANDARD-HOLETABL1
 70
     0
 40
0.0
 41
1.0
 50
0.0
 71
     0
 42
3.5
  3
NotoSans-Bold.ttf
  4

1001
ACAD
1000
Noto Sans
1071
 33554432
  0
STYLE
  5
2FE
330
3
100
AcDbSymbolTableRecord
100
AcDbTextStyleTableRecord
  2
ONSHAPE-STANDARD-HOLE-TAG
 70
     0
 40
3.5
 41
1.0
 50
0.0
 71
     0
 42
3.5
  3
Noto Sans
  4

1001
ACAD
1000
Noto Sans
1071
        0
  0
STYLE
  5
2FF
330
3
100
AcDbSymbolTableRecord
100
AcDbTextStyleTableRecord
  2
ONSHAPE-STANDARD-REVISIONT
 70
     0
 40
0.0
 41
1.0
 50
0.0
 71
     0
 42
3.5
  3
NotoSans-Regular.ttf
  4

1001
ACAD
1000
Noto Sans
1071
        0
  0
STYLE
  5
300
330
3
100
AcDbSymbolTableRecord
100
AcDbTextStyleTableRecord
  2
ONSHAPE-STANDARD-REVISION0
 70
     0
 40
0.0
 41
1.0
 50
0.0
 71
     0
 42
3.5
  3
NotoSans-Bold.ttf
  4

1001
ACAD
1000
Noto Sans
1071
 33554432
  0
STYLE
  5
301
330
3
100
AcDbSymbolTableRecord
100
AcDbTextStyleTableRecord
  2
ONSHAPE-STANDARD-REVISION1
 70
     0
 40
0.0
 41
1.0
 50
0.0
 71
     0
 42
3.5
  3
NotoSans-Bold.ttf
  4

1001
ACAD
1000
Noto Sans
1071
 33554432
  0
STYLE
  5
302
330
3
100
AcDbSymbolTableRecord
100
AcDbTextStyleTableRecord
  2
ONSHAPE-STANDARD-REVISION-
 70
     0
 40
3.5
 41
1.0
 50
0.0
 71
     0
 42
3.5
  3
Noto Sans
  4

1001
ACAD
1000
Noto Sans
1071
        0
  0
STYLE
  5
303
330
3
100
AcDbSymbolTableRecord
100
AcDbTextStyleTableRecord
  2
ONSHAPE-STANDARD-CUTLISTTA
 70
     0
 40
0.0
 41
1.0
 50
0.0
 71
     0
 42
3.5
  3
NotoSans-Regular.ttf
  4

1001
ACAD
1000
Noto Sans
1071
        0
  0
STYLE
  5
304
330
3
100
AcDbSymbolTableRecord
100
AcDbTextStyleTableRecord
  2
ONSHAPE-STANDARD-CUTLISTT0
 70
     0
 40
0.0
 41
1.0
 50
0.0
 71
     0
 42
3.5
  3
NotoSans-Bold.ttf
  4

1001
ACAD
1000
Noto Sans
1071
 33554432
  0
STYLE
  5
305
330
3
100
AcDbSymbolTableRecord
100
AcDbTextStyleTableRecord
  2
ONSHAPE-STANDARD-CUTLISTT1
 70
     0
 40
0.0
 41
1.0
 50
0.0
 71
     0
 42
3.5
  3
NotoSans-Bold.ttf
  4

1001
ACAD
1000
Noto Sans
1071
 33554432
  0
STYLE
  5
306
330
3
100
AcDbSymbolTableRecord
100
AcDbTextStyleTableRecord
  2
ONSHAPE-STANDARD-CUSTOMTAB
 70
     0
 40
0.0
 41
1.0
 50
0.0
 71
     0
 42
3.5
  3
NotoSans-Regular.ttf
  4

1001
ACAD
1000
Noto Sans
1071
        0
  0
STYLE
  5
307
330
3
100
AcDbSymbolTableRecord
100
AcDbTextStyleTableRecord
  2
ONSHAPE-STANDARD-CUSTOMTA0
 70
     0
 40
0.0
 41
1.0
 50
0.0
 71
     0
 42
3.5
  3
NotoSans-Bold.ttf
  4

1001
ACAD
1000
Noto Sans
1071
 33554432
  0
STYLE
  5
308
330
3
100
AcDbSymbolTableRecord
100
AcDbTextStyleTableRecord
  2
ONSHAPE-STANDARD-CUSTOMTA1
 70
     0
 40
0.0
 41
1.0
 50
0.0
 71
     0
 42
3.5
  3
NotoSans-Bold.ttf
  4

1001
ACAD
1000
Noto Sans
1071
 33554432
  0
ENDTAB
  0
TABLE
  2
VIEW
  5
6
330
0
100
AcDbSymbolTable
 70
     0
  0
ENDTAB
  0
TABLE
  2
UCS
  5
7
330
0
100
AcDbSymbolTable
 70
     0
  0
ENDTAB
  0
TABLE
  2
APPID
  5
9
330
0
100
AcDbSymbolTable
 70
    14
  0
APPID
  5
12
330
9
100
AcDbSymbolTableRecord
100
AcDbRegAppTableRecord
  2
ACAD
 70
     0
  0
APPID
  5
126
330
9
100
AcDbSymbolTableRecord
100
AcDbRegAppTableRecord
  2
ONSHAPE_NOTES_REORDERING_D
 70
     0
  0
APPID
  5
127
330
9
100
AcDbSymbolTableRecord
100
AcDbRegAppTableRecord
  2
ONSHAPE_NOTES_ANNOTATION_D
 70
     0
  0
APPID
  5
1AB
330
9
100
AcDbSymbolTableRecord
100
AcDbRegAppTableRecord
  2
ACAD_DIMASSOC_CALC_DIMLFAC
 70
     0
  0
APPID
  5
1AC
330
9
100
AcDbSymbolTableRecord
100
AcDbRegAppTableRecord
  2
ACAD_DIMASSOC_DIMLFAC
 70
     0
  0
APPID
  5
1AD
330
9
100
AcDbSymbolTableRecord
100
AcDbRegAppTableRecord
  2
ACAD_DIMASSOC_OVERRIDDEN_D
 70
     0
  0
APPID
  5
197
330
9
100
AcDbSymbolTableRecord
100
AcDbRegAppTableRecord
  2
ONSHAPE_DIMASSOC_ALT
 70
     0
  0
APPID
  5
1A1
330
9
100
AcDbSymbolTableRecord
100
AcDbRegAppTableRecord
  2
INDEX
 70
     0
  0
APPID
  5
1C2
330
9
100
AcDbSymbolTableRecord
100
AcDbRegAppTableRecord
  2
OS_DIM_THREAD_DATA
 70
     0
  0
APPID
  5
1C3
330
9
100
AcDbSymbolTableRecord
100
AcDbRegAppTableRecord
  2
ONSHAPE_DIM_OVERRIDE
 70
     0
  0
APPID
  5
217
330
9
100
AcDbSymbolTableRecord
100
AcDbRegAppTableRecord
  2
ONSHAPE_HOLECALLOUT_TEXT_J
 70
     0
  0
APPID
  5
25E
330
9
100
AcDbSymbolTableRecord
100
AcDbRegAppTableRecord
  2
ONSHAPE_CHAMFER_TEXT_JUSTI
 70
     0
  0
APPID
  5
28B
330
9
100
AcDbSymbolTableRecord
100
AcDbRegAppTableRecord
  2
ONSHAPE_DIMENSION_ON_CENTE
 70
     0
  0
APPID
  5
373
330
9
100
AcDbSymbolTableRecord
100
AcDbRegAppTableRecord
  2
ACAD_MLEADERVER
 70
     0
  0
ENDTAB
  0
TABLE
  2
DIMSTYLE
  5
A
330
0
100
AcDbSymbolTable
 70
    23
  0
DIMSTYLE
105
27
330
A
100
AcDbSymbolTableRecord
100
AcDbDimStyleTableRecord
  2
STANDARD
 70
     0
  3

  4

  5

  6

  7

 40
1.0
 41
0.18
 42
0.0625
 43
0.38
 44
0.18
 45
0.0
 46
0.0
 47
0.0
 48
0.0
140
0.18
141
0.09
142
0.0
143
25.4
144
1.0
145
0.0
146
1.0
147
0.09
 71
     0
 72
     0
 73
     1
 74
     1
 75
     0
 76
     0
 77
     0
 78
     0
170
     0
171
     2
172
     0
173
     0
174
     0
175
     0
176
     0
177
     0
178
     0
270
     2
271
     4
272
     4
273
     2
274
     2
340
11
275
     0
280
     0
281
     0
282
     0
283
     1
284
     0
285
     0
286
     0
287
     3
288
     0
  0
DIMSTYLE
105
72
330
A
100
AcDbSymbolTableRecord
100
AcDbDimStyleTableRecord
  2
ONSHAPE-ISO-25
 70
     0
  3

  4

  5

  6

  7

 40
1.0
 41
2.5
 42
0.625
 43
3.75
 44
1.25
 45
0.0
 46
0.0
 47
0.0
 48
0.0
140
2.5
141
2.5
142
0.0
143
0.03937
144
1.0
145
0.0
146
1.0
147
0.625
 71
     0
 72
     0
 73
     0
 74
     0
 75
     0
 76
     0
 77
     1
 78
    12
170
     0
171
     3
172
     1
173
     0
174
     0
175
     0
176
     7
177
     7
178
     7
270
     2
271
     2
272
     2
273
     2
274
     3
340
73
275
     0
280
     0
281
     0
282
     0
283
     0
284
     8
285
    12
286
     8
287
     3
288
     1
  0
DIMSTYLE
105
19C
102
{ACAD_REACTORS
330
192
330
1AE
330
1C4
330
1D8
330
1ED
330
274
330
28C
330
2AE
330
2C9
102
}
330
A
100
AcDbSymbolTableRecord
100
AcDbDimStyleTableRecord
  2
ONSHAPE-ISO-25$0
 70
     0
  3

  4

  5

  6

  7

 40
1.0
 41
2.5
 42
0.625
 43
3.75
 44
1.25
 45
0.0
 46
0.0
 47
0.0
 48
0.0
140
2.5
141
2.5
142
0.0
143
0.03937
144
1.0
145
0.0
146
1.0
147
0.625
 71
     0
 72
     0
 73
     0
 74
     0
 75
     0
 76
     0
 77
     1
 78
    12
170
     0
171
     3
172
     1
173
     0
174
     0
175
     0
176
     7
177
     7
178
     7
270
     2
271
     2
272
     2
273
     2
274
     3
340
73
275
     0
280
     0
281
     0
282
     0
283
     0
284
     8
285
    12
286
     8
287
     3
288
     1
  0
DIMSTYLE
105
239
102
{ACAD_REACTORS
330
23E
102
}
330
A
100
AcDbSymbolTableRecord
100
AcDbDimStyleTableRecord
  2
ONSHAPE-ISO-25$7
 70
     0
  3

  4

  5

  6

  7

 40
1.0
 41
2.5
 42
0.625
 43
3.75
 44
1.25
 45
0.0
 46
0.0
 47
0.0
 48
0.0
140
2.5
141
2.5
142
0.0
143
0.03937
144
1.0
145
0.0
146
1.0
147
0.625
 71
     0
 72
     0
 73
     0
 74
     0
 75
     0
 76
     0
 77
     1
 78
    12
170
     0
171
     3
172
     1
173
     0
174
     0
175
     0
176
     7
177
     7
178
     7
270
     2
271
     2
272
     2
273
     2
274
     3
340
73
275
     0
280
     0
281
     0
282
     0
283
     0
284
     8
285
    12
286
     8
287
     3
288
     1
  0
DIMSTYLE
105
249
102
{ACAD_REACTORS
330
240
330
25F
102
}
330
A
100
AcDbSymbolTableRecord
100
AcDbDimStyleTableRecord
  2
ONSHAPE-CHAMFERDIMSTYLE
 70
     0
  3

  4

  5

  6

  7

 40
1.0
 41
2.5
 42
0.625
 43
3.75
 44
1.25
 45
0.0
 46
0.0
 47
0.0
 48
0.0
140
2.5
141
2.5
142
0.0
143
0.03937
144
1.0
145
0.0
146
1.0
147
0.625
 71
     0
 72
     0
 73
     0
 74
     0
 75
     0
 76
     0
 77
     1
 78
    12
170
     0
171
     3
172
     1
173
     0
174
     0
175
     0
176
     7
177
     7
178
     7
179
     1
270
     2
271
     2
272
     2
273
     2
274
     3
340
73
275
     0
280
     0
281
     0
282
     0
283
     0
284
     8
285
    12
286
     8
287
     3
288
     1
  0
DIMSTYLE
105
309
330
A
100
AcDbSymbolTableRecord
100
AcDbDimStyleTableRecord
  2
ISO-25
 70
     0
  3

  4

  5

  6

  7

 40
1.0
 41
2.5
 42
0.625
 43
3.75
 44
1.25
 45
0.0
 46
0.0
 47
0.0
 48
0.0
140
2.5
141
2.5
142
0.0
143
0.03937007874016
144
1.0
145
0.0
146
1.0
147
0.625
 71
     0
 72
     0
 73
     0
 74
     0
 75
     0
 76
     0
 77
     1
 78
    12
170
     0
171
     3
172
     1
173
     0
174
     0
175
     0
176
     7
177
     7
178
     7
270
     2
271
     2
272
     2
273
     2
274
     3
340
11
275
     0
280
     0
281
     0
282
     0
283
     0
284
     8
285
    12
286
     8
287
     3
288
     1
  0
DIMSTYLE
105
30B
330
A
100
AcDbSymbolTableRecord
100
AcDbDimStyleTableRecord
  2
ISO
 70
     0
  3

  4
"
  5

  6

  7

 40
1.0
 41
3.5
 42
1.0
 43
10.0
 44
1.0
 45
0.0
 46
0.0
 47
0.1
 48
0.1
140
2.5
141
0.0
142
0.0
143
0.03937
144
1.0
145
0.0
146
0.71
147
1.5
 71
     0
 72
     0
 73
     0
 74
     0
 75
     0
 76
     0
 77
     1
 78
    12
170
     0
171
     3
172
     1
173
     0
174
     0
175
     0
176
     7
177
     7
178
     7
270
     2
271
     2
272
     3
273
     2
274
     3
340
11
275
     0
280
     0
281
     0
282
     0
283
     0
284
     8
285
    12
286
     8
287
     3
288
     1
  0
DIMSTYLE
105
30C
330
A
100
AcDbSymbolTableRecord
100
AcDbDimStyleTableRecord
  2
ISO$3
 70
     0
  3

  4
"
  5

  6

  7

 40
1.0
 41
3.5
 42
1.0
 43
10.0
 44
1.0
 45
0.0
 46
0.0
 47
0.1
 48
0.1
140
2.5
141
0.0
142
0.0
143
0.03937
144
1.0
145
0.0
146
0.71
147
1.5
 71
     0
 72
     0
 73
     0
 74
     1
 75
     0
 76
     0
 77
     1
 78
    12
170
     0
171
     3
172
     0
173
     0
174
     0
175
     0
176
     7
177
     7
178
     7
270
     2
271
     2
272
     3
273
     2
274
     3
340
11
275
     0
280
     0
281
     0
282
     0
283
     0
284
     8
285
    12
286
     8
288
     1
  0
DIMSTYLE
105
30D
330
A
100
AcDbSymbolTableRecord
100
AcDbDimStyleTableRecord
  2
ISO$4
 70
     0
  3

  4
"
  5

  6

  7

 40
1.0
 41
3.5
 42
1.0
 43
10.0
 44
1.0
 45
0.0
 46
0.0
 47
0.1
 48
0.1
140
2.5
141
0.0
142
0.0
143
0.03937
144
1.0
145
0.0
146
0.71
147
1.5
 71
     0
 72
     0
 73
     0
 74
     0
 75
     0
 76
     0
 77
     1
 78
    12
170
     0
171
     3
172
     1
173
     0
174
     0
175
     0
176
     7
177
     7
178
     7
270
     2
271
     2
272
     3
273
     2
274
     3
340
11
275
     0
280
     0
281
     0
282
     0
283
     0
284
     8
285
    12
286
     8
287
     3
288
     1
  0
DIMSTYLE
105
30E
330
A
100
AcDbSymbolTableRecord
100
AcDbDimStyleTableRecord
  2
ISO$6
 70
     0
  3

  4
"
  5

  6

  7

 40
1.0
 41
0.5
 42
1.0
 43
10.0
 44
1.0
 45
0.0
 46
0.0
 47
0.1
 48
0.1
140
2.5
141
0.0
142
0.0
143
0.03937
144
1.0
145
0.0
146
0.71
147
1.5
 71
     0
 72
     0
 73
     0
 74
     0
 75
     0
 76
     0
 77
     0
 78
    12
170
     0
171
     3
172
     1
173
     0
174
     0
175
     0
176
     7
177
     7
178
     7
270
     2
271
     2
272
     3
273
     2
274
     3
340
11
275
     0
280
     0
281
     0
282
     0
283
     0
284
     8
285
    12
286
     8
287
     3
288
     1
  0
DIMSTYLE
105
30F
330
A
100
AcDbSymbolTableRecord
100
AcDbDimStyleTableRecord
  2
ISO$7
 70
     0
  3

  4
"
  5

  6

  7

 40
1.0
 41
3.5
 42
1.0
 43
10.0
 44
1.0
 45
0.0
 46
0.0
 47
0.1
 48
0.1
140
2.5
141
0.0
142
0.0
143
0.03937
144
1.0
145
0.0
146
0.71
147
1.5
 71
     0
 72
     0
 73
     0
 74
     0
 75
     0
 76
     0
 77
     1
 78
    12
170
     0
171
     3
172
     1
173
     0
174
     0
175
     0
176
     7
177
     7
178
     7
270
     2
271
     2
272
     3
273
     2
274
     3
340
11
275
     0
280
     0
281
     0
282
     0
283
     0
284
     8
285
    12
286
     8
287
     3
288
     1
  0
DIMSTYLE
105
310
330
A
100
AcDbSymbolTableRecord
100
AcDbDimStyleTableRecord
  2
ISO$SF
 70
     0
  3

  4
"
  5

  6

  7

 40
1.0
 41
3.5
 42
1.0
 43
10.0
 44
1.0
 45
0.0
 46
0.0
 47
0.1
 48
0.1
140
2.5
141
0.0
142
0.0
143
0.03937
144
1.0
145
0.0
146
0.71
147
1.5
 71
     0
 72
     0
 73
     0
 74
     0
 75
     1
 76
     1
 77
     1
 78
    12
170
     0
171
     3
172
     1
173
     0
174
     0
175
     0
176
     7
177
     7
178
     7
270
     2
271
     2
272
     3
273
     2
274
     3
340
11
275
     0
280
     0
281
     0
282
     0
283
     0
284
     8
285
    12
286
     8
287
     3
288
     1
  0
DIMSTYLE
105
311
330
A
100
AcDbSymbolTableRecord
100
AcDbDimStyleTableRecord
  2
ISO$SH
 70
     0
  3

  4
"
  5

  6

  7

 40
1.0
 41
3.5
 42
1.0
 43
10.0
 44
1.0
 45
0.0
 46
0.0
 47
0.1
 48
0.1
140
2.5
141
0.0
142
0.0
143
0.03937
144
2.0
145
0.0
146
0.71
147
1.5
 71
     0
 72
     0
 73
     0
 74
     0
 75
     1
 76
     1
 77
     1
 78
    12
170
     0
171
     3
172
     1
173
     1
174
     0
175
     0
176
     7
177
     7
178
     7
270
     2
271
     2
272
     3
273
     2
274
     3
340
11
275
     0
280
     0
281
     0
282
     0
283
     0
284
     8
285
    12
286
     8
287
     3
288
     1
  0
DIMSTYLE
105
313
330
A
100
AcDbSymbolTableRecord
100
AcDbDimStyleTableRecord
  2
ONSHAPE-ISO-25$2
 70
     0
  3

  4

  5

  6

  7

 40
1.0
 41
2.5
 42
0.625
 43
3.75
 44
1.25
 45
0.0
 46
0.0
 47
0.0
 48
0.0
140
2.5
141
2.5
142
0.0
143
0.03937
144
1.0
145
0.0
146
1.0
147
0.625
 71
     0
 72
     0
 73
     0
 74
     0
 75
     0
 76
     0
 77
     1
 78
    12
170
     0
171
     3
172
     1
173
     0
174
     0
175
     0
176
     7
177
     7
178
     7
270
     2
271
     2
272
     2
273
     2
274
     3
340
73
275
     0
280
     0
281
     0
282
     0
283
     0
284
     8
285
    12
286
     8
287
     3
288
     1
  0
DIMSTYLE
105
314
330
A
100
AcDbSymbolTableRecord
100
AcDbDimStyleTableRecord
  2
ONSHAPE-ISO-25$3
 70
     0
  3

  4

  5

  6

  7

 40
1.0
 41
2.5
 42
0.625
 43
3.75
 44
1.25
 45
0.0
 46
0.0
 47
0.0
 48
0.0
140
2.5
141
0.0
142
0.0
143
0.03937
144
1.0
145
0.0
146
1.0
147
0.625
 71
     0
 72
     0
 73
     0
 74
     0
 75
     0
 76
     0
 77
     1
 78
    12
170
     0
171
     3
172
     1
173
     0
174
     0
175
     0
176
     7
177
     7
178
     7
270
     2
271
     2
272
     2
273
     2
274
     3
340
73
275
     0
280
     0
281
     0
282
     0
283
     0
284
     8
285
    12
286
     8
287
     3
288
     1
  0
DIMSTYLE
105
315
330
A
100
AcDbSymbolTableRecord
100
AcDbDimStyleTableRecord
  2
ONSHAPE-ISO-25$4
 70
     0
  3

  4

  5

  6

  7

 40
1.0
 41
2.5
 42
0.625
 43
3.75
 44
1.25
 45
0.0
 46
0.0
 47
0.0
 48
0.0
140
2.5
141
0.0
142
0.0
143
0.03937
144
1.0
145
0.0
146
1.0
147
0.625
 71
     0
 72
     0
 73
     0
 74
     0
 75
     0
 76
     0
 77
     1
 78
    12
170
     0
171
     3
172
     1
173
     0
174
     0
175
     0
176
     7
177
     7
178
     7
270
     2
271
     2
272
     2
273
     2
274
     3
340
73
275
     0
280
     0
281
     0
282
     0
283
     0
284
     8
285
    12
286
     8
287
     3
288
     1
  0
DIMSTYLE
105
316
330
A
100
AcDbSymbolTableRecord
100
AcDbDimStyleTableRecord
  2
ONSHAPE-ISO-25$6
 70
     0
  3

  4

  5

  6

  7

 40
1.0
 41
0.5
 42
0.625
 43
3.75
 44
1.25
 45
0.0
 46
0.0
 47
0.0
 48
0.0
140
2.5
141
2.5
142
0.0
143
0.03937
144
1.0
145
0.0
146
1.0
147
0.625
 71
     0
 72
     0
 73
     0
 74
     0
 75
     0
 76
     0
 77
     1
 78
    12
170
     0
171
     3
172
     1
173
     0
174
     0
175
     0
176
     7
177
     7
178
     7
270
     2
271
     2
272
     2
273
     2
274
     3
340
73
275
     0
280
     0
281
     0
282
     0
283
     0
284
     8
285
    12
286
     8
287
     3
288
     1
  0
DIMSTYLE
105
318
330
A
100
AcDbSymbolTableRecord
100
AcDbDimStyleTableRecord
  2
ONSHAPE-STANDARD-GTOLERANC
 70
     0
  3

  4

  5

  6

  7

 40
1.0
 41
2.5
 42
0.625
 43
3.75
 44
1.25
 45
0.0
 46
0.0
 47
0.0
 48
0.0
140
2.5
141
2.5
142
0.0
143
0.03937
144
1.0
145
0.0
146
1.0
147
0.625
 71
     0
 72
     0
 73
     0
 74
     0
 75
     0
 76
     0
 77
     1
 78
    12
170
     0
171
     3
172
     1
173
     0
174
     0
175
     0
176
     7
177
     7
178
     7
270
     2
271
     2
272
     2
273
     2
274
     3
340
2EF
275
     0
280
     0
281
     0
282
     0
283
     0
284
     8
285
    12
286
     8
287
     3
288
     1
  0
DIMSTYLE
105
31A
330
A
100
AcDbSymbolTableRecord
100
AcDbDimStyleTableRecord
  2
ONSHAPE-ORDINATESTYLE
 70
     0
  3

  4

  5

  6

  7

 40
1.0
 41
2.5
 42
0.625
 43
3.75
 44
1.25
 45
0.0
 46
0.0
 47
0.0
 48
0.0
140
2.5
141
2.5
142
0.0
143
0.03937
144
1.0
145
0.0
146
1.0
147
0.625
 71
     0
 72
     0
 73
     0
 74
     0
 75
     0
 76
     0
 77
     1
 78
    12
170
     0
171
     3
172
     1
173
     0
174
     0
175
     0
176
     7
177
     7
178
     7
270
     2
271
     2
272
     2
273
     2
274
     3
340
73
275
     0
280
     0
281
     0
282
     0
283
     0
284
     8
285
    12
286
     8
287
     3
288
     1
  0
DIMSTYLE
105
31C
330
A
100
AcDbSymbolTableRecord
100
AcDbDimStyleTableRecord
  2
ONSHAPE-SKETCHDRIVENDIMSTY
 70
     0
  3

  4

  5

  6

  7

 40
1.0
 41
2.5
 42
0.625
 43
3.75
 44
1.25
 45
0.0
 46
0.0
 47
0.0
 48
0.0
140
2.5
141
2.5
142
0.0
143
0.03937
144
1.0
145
0.0
146
1.0
147
0.625
 71
     0
 72
     0
 73
     0
 74
     0
 75
     0
 76
     0
 77
     1
 78
    12
170
     0
171
     3
172
     1
173
     0
174
     0
175
     0
176
   251
177
   251
178
   251
270
     2
271
     2
272
     2
273
     2
274
     3
340
73
275
     0
280
     0
281
     0
282
     0
283
     0
284
     8
285
    12
286
     8
287
     3
288
     1
  0
DIMSTYLE
105
31D
330
A
100
AcDbSymbolTableRecord
100
AcDbDimStyleTableRecord
  2
ONSHAPE-SKETCHDRIVENDIMST0
 70
     0
  3

  4

  5

  6

  7

 40
1.0
 41
2.5
 42
0.625
 43
3.75
 44
1.25
 45
0.0
 46
0.0
 47
0.0
 48
0.0
140
2.5
141
2.5
142
0.0
143
0.03937
144
1.0
145
0.0
146
1.0
147
0.625
 71
     0
 72
     0
 73
     0
 74
     0
 75
     0
 76
     0
 77
     1
 78
    12
170
     0
171
     3
172
     1
173
     0
174
     0
175
     0
176
   251
177
   251
178
   251
270
     2
271
     2
272
     2
273
     2
274
     3
340
73
275
     0
280
     0
281
     0
282
     0
283
     0
284
     8
285
    12
286
     8
287
     3
288
     1
  0
DIMSTYLE
105
31E
330
A
100
AcDbSymbolTableRecord
100
AcDbDimStyleTableRecord
  2
ONSHAPE-SKETCHDRIVENDIMST1
 70
     0
  3

  4

  5

  6

  7

 40
1.0
 41
2.5
 42
0.625
 43
3.75
 44
1.25
 45
0.0
 46
0.0
 47
0.0
 48
0.0
140
2.5
141
0.0
142
0.0
143
0.03937
144
1.0
145
0.0
146
1.0
147
0.625
 71
     0
 72
     0
 73
     0
 74
     0
 75
     0
 76
     0
 77
     1
 78
    12
170
     0
171
     3
172
     1
173
     0
174
     0
175
     0
176
   251
177
   251
178
   251
270
     2
271
     2
272
     2
273
     2
274
     3
340
73
275
     0
280
     0
281
     0
282
     0
283
     0
284
     8
285
    12
286
     8
287
     3
288
     1
  0
DIMSTYLE
105
31F
330
A
100
AcDbSymbolTableRecord
100
AcDbDimStyleTableRecord
  2
ONSHAPE-SKETCHDRIVENDIMST2
 70
     0
  3

  4

  5

  6

  7

 40
1.0
 41
2.5
 42
0.625
 43
3.75
 44
1.25
 45
0.0
 46
0.0
 47
0.0
 48
0.0
140
2.5
141
0.0
142
0.0
143
0.03937
144
1.0
145
0.0
146
1.0
147
0.625
 71
     0
 72
     0
 73
     0
 74
     0
 75
     0
 76
     0
 77
     1
 78
    12
170
     0
171
     3
172
     1
173
     0
174
     0
175
     0
176
   251
177
   251
178
   251
270
     2
271
     2
272
     2
273
     2
274
     3
340
73
275
     0
280
     0
281
     0
282
     0
283
     0
284
     8
285
    12
286
     8
287
     3
288
     1
  0
ENDTAB
  0
TABLE
  2
BLOCK_RECORD
  5
1
330
0
100
AcDbSymbolTable
 70
    13
  0
BLOCK_RECORD
  5
1F
330
1
100
AcDbSymbolTableRecord
100
AcDbBlockTableRecord
  2
*MODEL_SPACE
  0
BLOCK_RECORD
  5
1B
330
1
100
AcDbSymbolTableRecord
100
AcDbBlockTableRecord
  2
*PAPER_SPACE
  0
BLOCK_RECORD
  5
19E
330
1
100
AcDbSymbolTableRecord
100
AcDbBlockTableRecord
  2
*D1
  0
BLOCK_RECORD
  5
1B6
330
1
100
AcDbSymbolTableRecord
100
AcDbBlockTableRecord
  2
*D2
  0
BLOCK_RECORD
  5
1CC
330
1
100
AcDbSymbolTableRecord
100
AcDbBlockTableRecord
  2
*D3
  0
BLOCK_RECORD
  5
1E0
330
1
100
AcDbSymbolTableRecord
100
AcDbBlockTableRecord
  2
*D4
  0
BLOCK_RECORD
  5
1F3
330
1
100
AcDbSymbolTableRecord
100
AcDbBlockTableRecord
  2
*D5
  0
BLOCK_RECORD
  5
207
330
1
100
AcDbSymbolTableRecord
100
AcDbBlockTableRecord
  2
*U6
1001
ONSHAPE_HOLECALLOUT_TEXT_J
1070
     5
  0
BLOCK_RECORD
  5
223
330
1
100
AcDbSymbolTableRecord
100
AcDbBlockTableRecord
  2
*U7
1001
ONSHAPE_HOLECALLOUT_TEXT_J
1070
     5
  0
BLOCK_RECORD
  5
24B
330
1
100
AcDbSymbolTableRecord
100
AcDbBlockTableRecord
  2
*D8
  0
BLOCK_RECORD
  5
265
330
1
100
AcDbSymbolTableRecord
100
AcDbBlockTableRecord
  2
*D9
  0
BLOCK_RECORD
  5
27C
330
1
100
AcDbSymbolTableRecord
100
AcDbBlockTableRecord
  2
*D10
  0
BLOCK_RECORD
  5
292
330
1
100
AcDbSymbolTableRecord
100
AcDbBlockTableRecord
  2
*D11
  0
BLOCK_RECORD
  5
2B9
330
1
100
AcDbSymbolTableRecord
100
AcDbBlockTableRecord
  2
*D12
  0
BLOCK_RECORD
  5
2CF
330
1
100
AcDbSymbolTableRecord
100
AcDbBlockTableRecord
  2
*D13
  0
ENDTAB
  0
ENDSEC
  0
SECTION
  2
BLOCKS
  0
BLOCK
  5
20
330
1F
100
AcDbEntity
  8
0
100
AcDbBlockBegin
  2
*MODEL_SPACE
 70
     0
 10
0.0
 20
0.0
 30
0.0
  3
*MODEL_SPACE
  1

  0
ENDBLK
  5
21
330
1F
100
AcDbEntity
  8
0
100
AcDbBlockEnd
  0
BLOCK
  5
1C
330
1B
100
AcDbEntity
 67
     1
  8
0
100
AcDbBlockBegin
  2
*PAPER_SPACE
 70
     0
 10
0.0
 20
0.0
 30
0.0
  3
*PAPER_SPACE
  1

  0
ENDBLK
  5
1D
330
1B
100
AcDbEntity
 67
     1
  8
0
100
AcDbBlockEnd
  0
BLOCK
  5
19F
330
19E
100
AcDbEntity
  8
0
100
AcDbBlockBegin
  2
*D1
 70
     1
 10
0.0
 20
0.0
 30
0.0
  3
*D1
  1

  0
LINE
  5
1A0
330
19E
100
AcDbEntity
  8
ANNOTATION_TEXT
 62
     7
100
AcDbLine
 10
63.31364704199744
 20
207.3162825683863
 30
0.0
 11
53.49022927559406
 21
207.3162825683863
 31
0.0
1001
INDEX
1070
     0
  0
LINE
  5
1A2
330
19E
100
AcDbEntity
  8
ANNOTATION_TEXT
 62
     7
100
AcDbLine
 10
63.31364704199744
 20
102.3162825683863
 30
0.0
 11
53.49022927559405
 21
102.3162825683863
 31
0.0
1001
INDEX
1070
     1
  0
LINE
  5
1A3
330
19E
100
AcDbEntity
  8
ANNOTATION_TEXT
 62
     7
100
AcDbLine
 10
54.74022927559406
 20
204.8162825683863
 30
0.0
 11
54.74022927559405
 21
104.8162825683863
 31
0.0
1001
INDEX
1070
     3
  0
SOLID
  5
1A4
330
19E
100
AcDbEntity
  8
ANNOTATION_TEXT
 62
     7
100
AcDbTrace
 10
55.15689594226073
 20
204.8162825683863
 30
0.0
 11
54.3235626089274
 21
204.8162825683863
 31
0.0
 12
54.74022927559406
 22
207.3162825683863
 32
0.0
 13
54.74022927559406
 23
207.3162825683863
 33
0.0
  0
SOLID
  5
1A5
330
19E
100
AcDbEntity
  8
ANNOTATION_TEXT
 62
     7
100
AcDbTrace
 10
54.32356260892739
 20
104.8162825683863
 30
0.0
 11
55.15689594226072
 21
104.8162825683863
 31
0.0
 12
54.74022927559405
 22
102.3162825683863
 32
0.0
 13
54.74022927559405
 23
102.3162825683863
 33
0.0
  0
MTEXT
  5
1A6
330
19E
100
AcDbEntity
  8
ANNOTATION_TEXT
 62
     7
100
AcDbMText
 10
52.81834381008837
 20
154.8162825683863
 30
0.0
 40
2.5
 41
0.0
 71
     5
 72
     1
  1
35
  7
ONSHAPE-STANDARD-DIMENSION
 11
6.767073673905715E-17
 21
1.0
 31
0.0
  0
POINT
  5
1A7
330
19E
100
AcDbEntity
  8
DEFPOINTS
 62
     0
100
AcDbPoint
 10
63.93864704199744
 20
207.3162825683863
 30
0.0
  0
POINT
  5
1A8
330
19E
100
AcDbEntity
  8
DEFPOINTS
 62
     0
100
AcDbPoint
 10
63.93864704199744
 20
102.3162825683863
 30
0.0
  0
POINT
  5
1A9
330
19E
100
AcDbEntity
  8
DEFPOINTS
 62
     0
100
AcDbPoint
 10
54.74022927559405
 20
102.3162825683863
 30
0.0
  0
ENDBLK
  5
1AA
330
19E
100
AcDbEntity
  8
0
100
AcDbBlockEnd
  0
BLOCK
  5
1B7
330
1B6
100
AcDbEntity
  8
0
100
AcDbBlockBegin
  2
*D2
 70
     1
 10
0.0
 20
0.0
 30
0.0
  3
*D2
  1

  0
LINE
  5
1B8
330
1B6
100
AcDbEntity
  8
ANNOTATION_TEXT
 62
     7
100
AcDbLine
 10
66.43814704199744
 20
228.0162825683863
 30
0.0
 11
53.53172927559406
 21
228.0162825683863
 31
0.0
1001
INDEX
1070
     0
  0
LINE
  5
1B9
330
1B6
100
AcDbEntity
  8
ANNOTATION_TEXT
 62
     7
100
AcDbLine
 10
66.43814704199744
 20
207.3162825683863
 30
0.0
 11
53.53172927559406
 21
207.3162825683863
 31
0.0
1001
INDEX
1070
     1
  0
LINE
  5
1BA
330
1B6
100
AcDbEntity
  8
ANNOTATION_TEXT
 62
     7
100
AcDbLine
 10
54.78172927559406
 20
225.5162825683863
 30
0.0
 11
54.78172927559406
 21
209.8162825683863
 31
0.0
1001
INDEX
1070
     3
  0
SOLID
  5
1BB
330
1B6
100
AcDbEntity
  8
ANNOTATION_TEXT
 62
     7
100
AcDbTrace
 10
55.19839594226072
 20
225.5162825683863
 30
0.0
 11
54.3650626089274
 21
225.5162825683863
 31
0.0
 12
54.78172927559406
 22
228.0162825683863
 32
0.0
 13
54.78172927559406
 23
228.0162825683863
 33
0.0
  0
SOLID
  5
1BC
330
1B6
100
AcDbEntity
  8
ANNOTATION_TEXT
 62
     7
100
AcDbTrace
 10
54.3650626089274
 20
209.8162825683863
 30
0.0
 11
55.19839594226072
 21
209.8162825683863
 31
0.0
 12
54.78172927559406
 22
207.3162825683863
 32
0.0
 13
54.78172927559406
 23
207.3162825683863
 33
0.0
  0
MTEXT
  5
1BD
330
1B6
100
AcDbEntity
  8
ANNOTATION_TEXT
 62
     7
100
AcDbMText
 10
52.85984381008838
 20
213.9162825683863
 30
0.0
 40
2.5
 41
0.0
 71
     5
 72
     1
  1
6.9
  7
ONSHAPE-STANDARD-DIMENSION
 11
0.0
 21
1.0
 31
0.0
  0
POINT
  5
1BE
330
1B6
100
AcDbEntity
  8
DEFPOINTS
 62
     0
100
AcDbPoint
 10
67.06314704199744
 20
228.0162825683863
 30
0.0
  0
POINT
  5
1BF
330
1B6
100
AcDbEntity
  8
DEFPOINTS
 62
     0
100
AcDbPoint
 10
67.06314704199744
 20
207.3162825683863
 30
0.0
  0
POINT
  5
1C0
330
1B6
100
AcDbEntity
  8
DEFPOINTS
 62
     0
100
AcDbPoint
 10
54.78172927559406
 20
207.3162825683863
 30
0.0
  0
ENDBLK
  5
1C1
330
1B6
100
AcDbEntity
  8
0
100
AcDbBlockEnd
  0
BLOCK
  5
1CD
330
1CC
100
AcDbEntity
  8
0
100
AcDbBlockBegin
  2
*D3
 70
     1
 10
0.0
 20
0.0
 30
0.0
  3
*D3
  1

  0
LINE
  5
1CE
330
1CC
100
AcDbEntity
  8
ANNOTATION_TEXT
 62
     7
100
AcDbLine
 10
121.3888361198236
 20
124.6819179724213
 30
0.0
 11
121.3888361198236
 21
95.11040280453358
 31
0.0
1001
INDEX
1070
     0
  0
LINE
  5
1CF
330
1CC
100
AcDbEntity
  8
ANNOTATION_TEXT
 62
     7
100
AcDbLine
 10
139.3888361198236
 20
126.1521567921685
 30
0.0
 11
139.3888361198236
 21
95.11040280453358
 31
0.0
1001
INDEX
1070
     1
  0
LINE
  5
1D0
330
1CC
100
AcDbEntity
  8
ANNOTATION_TEXT
 62
     7
100
AcDbLine
 10
123.8888361198236
 20
96.36040280453358
 30
0.0
 11
136.8888361198236
 21
96.36040280453358
 31
0.0
1001
INDEX
1070
     3
  0
SOLID
  5
1D1
330
1CC
100
AcDbEntity
  8
ANNOTATION_TEXT
 62
     7
100
AcDbTrace
 10
123.8888361198236
 20
96.77706947120025
 30
0.0
 11
123.8888361198236
 21
95.9437361378669
 31
0.0
 12
121.3888361198236
 22
96.36040280453358
 32
0.0
 13
121.3888361198236
 23
96.36040280453358
 33
0.0
  0
SOLID
  5
1D2
330
1CC
100
AcDbEntity
  8
ANNOTATION_TEXT
 62
     7
100
AcDbTrace
 10
136.8888361198236
 20
95.9437361378669
 30
0.0
 11
136.8888361198236
 21
96.77706947120025
 31
0.0
 12
139.3888361198236
 22
96.36040280453358
 32
0.0
 13
139.3888361198236
 23
96.36040280453358
 33
0.0
  0
MTEXT
  5
1D3
330
1CC
100
AcDbEntity
  8
ANNOTATION_TEXT
 62
     7
100
AcDbMText
 10
130.4123332286646
 20
98.28228827003927
 30
0.0
 40
2.5
 41
0.0
 71
     5
 72
     1
  1
M6x1
  7
ONSHAPE-STANDARD-DIMENSION
  0
POINT
  5
1D4
330
1CC
100
AcDbEntity
  8
DEFPOINTS
 62
     0
100
AcDbPoint
 10
121.3888361198236
 20
125.3069179724213
 30
0.0
  0
POINT
  5
1D5
330
1CC
100
AcDbEntity
  8
DEFPOINTS
 62
     0
100
AcDbPoint
 10
139.3888361198236
 20
126.7771567921685
 30
0.0
  0
POINT
  5
1D6
330
1CC
100
AcDbEntity
  8
DEFPOINTS
 62
     0
100
AcDbPoint
 10
139.3888361198236
 20
96.36040280453358
 30
0.0
  0
ENDBLK
  5
1D7
330
1CC
100
AcDbEntity
  8
0
100
AcDbBlockEnd
  0
BLOCK
  5
1E1
330
1E0
100
AcDbEntity
  8
0
100
AcDbBlockBegin
  2
*D4
 70
     1
 10
0.0
 20
0.0
 30
0.0
  3
*D4
  1

  0
LINE
  5
1E2
330
1E0
100
AcDbEntity
  8
ANNOTATION_TEXT
 62
     7
100
AcDbLine
 10
67.06314704199744
 20
223.170771496543
 30
0.0
 11
67.06314704199744
 21
218.1728341121166
 31
0.0
1001
INDEX
1070
     0
  0
LINE
  5
1E3
330
1E0
100
AcDbEntity
  8
ANNOTATION_TEXT
 62
     7
100
AcDbLine
 10
81.81414704199744
 20
221.794966802618
 30
0.0
 11
81.81414704199744
 21
218.1728341121166
 31
0.0
1001
INDEX
1070
     1
  0
LINE
  5
1E4
330
1E0
100
AcDbEntity
  8
ANNOTATION_TEXT
 62
     7
100
AcDbLine
 10
81.81414704199744
 20
219.4228341121166
 30
0.0
 11
95.02228501922451
 21
219.4228341121166
 31
0.0
  0
LINE
  5
1E5
330
1E0
100
AcDbEntity
  8
ANNOTATION_TEXT
 62
     7
100
AcDbLine
 10
69.56314704199744
 20
219.4228341121166
 30
0.0
 11
79.31414704199744
 21
219.4228341121166
 31
0.0
1001
INDEX
1070
     3
  0
SOLID
  5
1E6
330
1E0
100
AcDbEntity
  8
ANNOTATION_TEXT
 62
     7
100
AcDbTrace
 10
69.56314704199744
 20
219.8395007787832
 30
0.0
 11
69.56314704199744
 21
219.0061674454499
 31
0.0
 12
67.06314704199744
 22
219.4228341121166
 32
0.0
 13
67.06314704199744
 23
219.4228341121166
 33
0.0
  0
SOLID
  5
1E7
330
1E0
100
AcDbEntity
  8
ANNOTATION_TEXT
 62
     7
100
AcDbTrace
 10
79.31414704199744
 20
219.0061674454499
 30
0.0
 11
79.31414704199744
 21
219.8395007787832
 31
0.0
 12
81.81414704199744
 22
219.4228341121166
 32
0.0
 13
81.81414704199744
 23
219.4228341121166
 33
0.0
  0
MTEXT
  5
1E8
330
1E0
100
AcDbEntity
  8
ANNOTATION_TEXT
 62
     7
100
AcDbMText
 10
90.4563941953799
 20
221.3447195776223
 30
0.0
 40
2.5
 41
0.0
 71
     5
 72
     1
  1
M6x1
  7
ONSHAPE-STANDARD-DIMENSION
  0
POINT
  5
1E9
330
1E0
100
AcDbEntity
  8
DEFPOINTS
 62
     0
100
AcDbPoint
 10
67.06314704199744
 20
223.795771496543
 30
0.0
  0
POINT
  5
1EA
330
1E0
100
AcDbEntity
  8
DEFPOINTS
 62
     0
100
AcDbPoint
 10
81.81414704199744
 20
222.419966802618
 30
0.0
  0
POINT
  5
1EB
330
1E0
100
AcDbEntity
  8
DEFPOINTS
 62
     0
100
AcDbPoint
 10
81.81414704199744
 20
219.4228341121166
 30
0.0
  0
ENDBLK
  5
1EC
330
1E0
100
AcDbEntity
  8
0
100
AcDbBlockEnd
  0
BLOCK
  5
1F4
330
1F3
100
AcDbEntity
  8
0
100
AcDbBlockBegin
  2
*D5
 70
     1
 10
0.0
 20
0.0
 30
0.0
  3
*D5
  1

  0
LINE
  5
1F5
330
1F3
100
AcDbEntity
  8
ANNOTATION_TEXT
 62
     7
100
AcDbLine
 10
137.2638361198236
 20
102.3162825683863
 30
0.0
 11
121.4513361198236
 21
102.3162825683863
 31
0.0
1001
INDEX
1070
     0
  0
LINE
  5
1F6
330
1F3
100
AcDbEntity
  8
ANNOTATION_TEXT
 62
     7
100
AcDbLine
 10
121.3263361198236
 20
102.3162825683863
 30
0.0
 11
112.3846103677896
 21
102.3162825683863
 31
0.0
1001
INDEX
1070
     0
  0
LINE
  5
1F7
330
1F3
100
AcDbEntity
  8
ANNOTATION_TEXT
 62
     7
100
AcDbLine
 10
137.2638361198236
 20
135.3162825683863
 30
0.0
 11
112.3846103677896
 21
135.3162825683863
 31
0.0
1001
INDEX
1070
     1
  0
LINE
  5
1F8
330
1F3
100
AcDbEntity
  8
ANNOTATION_TEXT
 62
     7
100
AcDbLine
 10
113.6346103677896
 20
104.8162825683863
 30
0.0
 11
113.6346103677896
 21
132.8162825683863
 31
0.0
1001
INDEX
1070
     3
  0
SOLID
  5
1F9
330
1F3
100
AcDbEntity
  8
ANNOTATION_TEXT
 62
     7
100
AcDbTrace
 10
113.2179437011229
 20
104.8162825683863
 30
0.0
 11
114.0512770344563
 21
104.8162825683863
 31
0.0
 12
113.6346103677896
 22
102.3162825683863
 32
0.0
 13
113.6346103677896
 23
102.3162825683863
 33
0.0
  0
SOLID
  5
1FA
330
1F3
100
AcDbEntity
  8
ANNOTATION_TEXT
 62
     7
100
AcDbTrace
 10
114.0512770344563
 20
132.8162825683863
 30
0.0
 11
113.2179437011229
 21
132.8162825683863
 31
0.0
 12
113.6346103677896
 22
135.3162825683863
 32
0.0
 13
113.6346103677896
 23
135.3162825683863
 33
0.0
  0
MTEXT
  5
1FB
330
1F3
100
AcDbEntity
  8
ANNOTATION_TEXT
 62
     7
100
AcDbMText
 10
111.7596103677896
 20
123.5118614660055
 30
0.0
 40
2.5
 41
0.0
 71
     5
 72
     1
  1
11
  7
ONSHAPE-STANDARD-DIMENSION
 11
0.0
 21
1.0
 31
0.0
  0
POINT
  5
1FC
330
1F3
100
AcDbEntity
  8
DEFPOINTS
 62
     0
100
AcDbPoint
 10
137.8888361198236
 20
102.3162825683863
 30
0.0
  0
POINT
  5
1FD
330
1F3
100
AcDbEntity
  8
DEFPOINTS
 62
     0
100
AcDbPoint
 10
137.8888361198236
 20
135.3162825683863
 30
0.0
  0
POINT
  5
1FE
330
1F3
100
AcDbEntity
  8
DEFPOINTS
 62
     0
100
AcDbPoint
 10
113.6346103677896
 20
135.3162825683863
 30
0.0
  0
ENDBLK
  5
1FF
330
1F3
100
AcDbEntity
  8
0
100
AcDbBlockEnd
  0
BLOCK
  5
20B
330
207
100
AcDbEntity
  8
0
100
AcDbBlockBegin
  2
*U6
 70
     3
 10
-2.5
 20
-3.263636363636364
 30
0.0
  3
*U6
  1

  0
MTEXT
  5
213
330
207
100
AcDbEntity
  8
ANNOTATION_TEXT
 62
     0
100
AcDbMText
 10
0.0
 20
-2.548559946416611
 30
0.0
 40
2.5
 41
0.0
 71
     7
 72
     1
  1
%%c1.5
  7
ONSHAPE-STANDARD-HOLE-CALL
  0
MTEXT
  5
215
330
207
100
AcDbEntity
  8
ANNOTATION_TEXT
 62
     0
100
AcDbMText
 10
8.117883456128602
 20
-2.638636363636364
 30
0.0
 40
2.5
 41
0.0
 71
     7
 72
     1
  1
 {\fDrawing Symbols Sans|c0;\U+21A7}4
  7
ONSHAPE-STANDARD-HOLE-CALL
  0
ENDBLK
  5
216
330
207
100
AcDbEntity
  8
0
100
AcDbBlockEnd
  0
BLOCK
  5
227
330
223
100
AcDbEntity
  8
0
100
AcDbBlockBegin
  2
*U7
 70
     3
 10
-2.5
 20
-3.218770931011387
 30
0.0
  3
*U7
  1

  0
MTEXT
  5
22F
330
223
100
AcDbEntity
  8
ANNOTATION_TEXT
 62
     0
100
AcDbMText
 10
0.0
 20
-2.545210984594776
 30
0.0
 40
2.5
 41
0.0
 71
     7
 72
     1
  1
%%c2
  7
ONSHAPE-STANDARD-HOLE-CALL
  0
MTEXT
  5
231
330
223
100
AcDbEntity
  8
ANNOTATION_TEXT
 62
     0
100
AcDbMText
 10
3.988613529805761
 20
-2.593770931011387
 30
0.0
 40
2.5
 41
0.0
 71
     7
 72
     1
  1
 THRU
  7
ONSHAPE-STANDARD-HOLE-CALL
  0
ENDBLK
  5
232
330
223
100
AcDbEntity
  8
0
100
AcDbBlockEnd
  0
BLOCK
  5
24C
330
24B
100
AcDbEntity
  8
0
100
AcDbBlockBegin
  2
*D8
 70
     1
 10
0.0
 20
0.0
 30
0.0
  3
*D8
  1

  0
LINE
  5
24D
330
24B
100
AcDbEntity
  8
ANNOTATION_TEXT
 62
     7
100
AcDbLine
 10
127.3888361198236
 20
227.602052083845
 30
0.0
 11
127.3888361198236
 21
232.6764859203509
 31
0.0
1001
INDEX
1070
     0
  0
LINE
  5
24F
330
24B
100
AcDbEntity
  8
ANNOTATION_TEXT
 62
     7
100
AcDbLine
 10
126.7888361198236
 20
228.6412825683863
 30
0.0
 11
126.7888361198236
 21
232.6764859203509
 31
0.0
1001
INDEX
1070
     1
  0
LINE
  5
250
330
24B
100
AcDbEntity
  8
ANNOTATION_TEXT
 62
     7
100
AcDbLine
 10
127.3888361198236
 20
231.4264859203509
 30
0.0
 11
136.6579252022081
 21
231.4264859203509
 31
0.0
  0
LINE
  5
251
330
24B
100
AcDbEntity
  8
ANNOTATION_TEXT
 62
     7
100
AcDbLine
 10
127.3888361198236
 20
231.4264859203509
 30
0.0
 11
126.7888361198236
 21
231.4264859203509
 31
0.0
1001
INDEX
1070
     3
  0
LINE
  5
252
330
24B
100
AcDbEntity
  8
ANNOTATION_TEXT
 62
     7
100
AcDbLine
 10
129.8888361198236
 20
231.4264859203509
 30
0.0
 11
132.3888361198236
 21
231.4264859203509
 31
0.0
1001
INDEX
1070
     3
  0
LINE
  5
253
330
24B
100
AcDbEntity
  8
ANNOTATION_TEXT
 62
     7
100
AcDbLine
 10
124.2888361198236
 20
231.4264859203509
 30
0.0
 11
121.7888361198236
 21
231.4264859203509
 31
0.0
1001
INDEX
1070
     3
  0
SOLID
  5
254
330
24B
100
AcDbEntity
  8
ANNOTATION_TEXT
 62
     7
100
AcDbTrace
 10
129.8888361198236
 20
231.8431525870175
 30
0.0
 11
129.8888361198236
 21
231.0098192536842
 31
0.0
 12
127.3888361198236
 22
231.4264859203509
 32
0.0
 13
127.3888361198236
 23
231.4264859203509
 33
0.0
  0
SOLID
  5
255
330
24B
100
AcDbEntity
  8
ANNOTATION_TEXT
 62
     7
100
AcDbTrace
 10
124.2888361198236
 20
231.0098192536842
 30
0.0
 11
124.2888361198236
 21
231.8431525870175
 31
0.0
 12
126.7888361198236
 22
231.4264859203509
 32
0.0
 13
126.7888361198236
 23
231.4264859203509
 33
0.0
  0
MTEXT
  5
256
330
24B
100
AcDbEntity
  8
ANNOTATION_TEXT
 62
     7
100
AcDbMText
 10
134.5233806610158
 20
233.3240914126483
 30
0.0
 40
2.5
 41
0.0
 71
     5
 72
     1
  1
.2
  7
ONSHAPE-STANDARD-DIMENSION
  0
POINT
  5
257
330
24B
100
AcDbEntity
  8
DEFPOINTS
 62
     0
100
AcDbPoint
 10
127.3888361198236
 20
226.977052083845
 30
0.0
  0
POINT
  5
258
330
24B
100
AcDbEntity
  8
DEFPOINTS
 62
     0
100
AcDbPoint
 10
126.7888361198236
 20
228.0162825683863
 30
0.0
  0
POINT
  5
259
330
24B
100
AcDbEntity
  8
DEFPOINTS
 62
     0
100
AcDbPoint
 10
126.7888361198236
 20
231.4264859203509
 30
0.0
  0
ENDBLK
  5
25A
330
24B
100
AcDbEntity
  8
0
100
AcDbBlockEnd
  0
BLOCK
  5
266
330
265
100
AcDbEntity
  8
0
100
AcDbBlockBegin
  2
*D9
 70
     1
 10
0.0
 20
0.0
 30
0.0
  3
*D9
  1

  0
LINE
  5
267
330
265
100
AcDbEntity
  8
ANNOTATION_TEXT
 62
     7
100
AcDbLine
 10
126.7638361198236
 20
226.977052083845
 30
0.0
 11
124.0294855948236
 21
226.977052083845
 31
0.0
1001
INDEX
1070
     0
  0
LINE
  5
268
330
265
100
AcDbEntity
  8
ANNOTATION_TEXT
 62
     7
100
AcDbLine
 10
126.1638361198236
 20
228.0162825683863
 30
0.0
 11
124.0294855948236
 21
228.0162825683863
 31
0.0
1001
INDEX
1070
     1
  0
LINE
  5
269
330
265
100
AcDbEntity
  8
ANNOTATION_TEXT
 62
     7
100
AcDbLine
 10
125.2794855948236
 20
228.0162825683863
 30
0.0
 11
125.2794855948236
 21
239.3667514230414
 31
0.0
  0
LINE
  5
26A
330
265
100
AcDbEntity
  8
ANNOTATION_TEXT
 62
     7
100
AcDbLine
 10
125.2794855948236
 20
226.977052083845
 30
0.0
 11
125.2794855948236
 21
228.0162825683863
 31
0.0
1001
INDEX
1070
     3
  0
LINE
  5
26B
330
265
100
AcDbEntity
  8
ANNOTATION_TEXT
 62
     7
100
AcDbLine
 10
125.2794855948236
 20
224.477052083845
 30
0.0
 11
125.2794855948236
 21
221.977052083845
 31
0.0
1001
INDEX
1070
     3
  0
LINE
  5
26C
330
265
100
AcDbEntity
  8
ANNOTATION_TEXT
 62
     7
100
AcDbLine
 10
125.2794855948236
 20
230.5162825683863
 30
0.0
 11
125.2794855948236
 21
233.0162825683863
 31
0.0
1001
INDEX
1070
     3
  0
SOLID
  5
26D
330
265
100
AcDbEntity
  8
ANNOTATION_TEXT
 62
     7
100
AcDbTrace
 10
125.6961522614903
 20
224.477052083845
 30
0.0
 11
124.8628189281569
 21
224.477052083845
 31
0.0
 12
125.2794855948236
 22
226.977052083845
 32
0.0
 13
125.2794855948236
 23
226.977052083845
 33
0.0
  0
SOLID
  5
26E
330
265
100
AcDbEntity
  8
ANNOTATION_TEXT
 62
     7
100
AcDbTrace
 10
124.8628189281569
 20
230.5162825683863
 30
0.0
 11
125.6961522614903
 21
230.5162825683863
 31
0.0
 12
125.2794855948236
 22
228.0162825683863
 32
0.0
 13
125.2794855948236
 23
228.0162825683863
 33
0.0
  0
MTEXT
  5
26F
330
265
100
AcDbEntity
  8
ANNOTATION_TEXT
 62
     7
100
AcDbMText
 10
123.3576001293179
 20
236.1915169957138
 30
0.0
 40
2.5
 41
0.0
 71
     5
 72
     1
  1
.35
  7
ONSHAPE-STANDARD-DIMENSION
 11
0.0
 21
1.0
 31
0.0
  0
POINT
  5
270
330
265
100
AcDbEntity
  8
DEFPOINTS
 62
     0
100
AcDbPoint
 10
127.3888361198236
 20
226.977052083845
 30
0.0
  0
POINT
  5
271
330
265
100
AcDbEntity
  8
DEFPOINTS
 62
     0
100
AcDbPoint
 10
126.7888361198236
 20
228.0162825683863
 30
0.0
  0
POINT
  5
272
330
265
100
AcDbEntity
  8
DEFPOINTS
 62
     0
100
AcDbPoint
 10
125.2794855948236
 20
228.0162825683863
 30
0.0
  0
ENDBLK
  5
273
330
265
100
AcDbEntity
  8
0
100
AcDbBlockEnd
  0
BLOCK
  5
27D
330
27C
100
AcDbEntity
  8
0
100
AcDbBlockBegin
  2
*D10
 70
     1
 10
0.0
 20
0.0
 30
0.0
  3
*D10
  1

  0
LINE
  5
27E
330
27C
100
AcDbEntity
  8
ANNOTATION_TEXT
 62
     7
100
AcDbLine
 10
81.03864704199745
 20
140.4412825683863
 30
0.0
 11
81.03864704199745
 21
146.7129519962324
 31
0.0
1001
INDEX
1070
     0
  0
LINE
  5
27F
330
27C
100
AcDbEntity
  8
ANNOTATION_TEXT
 62
     7
100
AcDbLine
 10
84.93864704199744
 20
146.0879519962324
 30
0.0
 11
84.93864704199744
 21
146.7129519962324
 31
0.0
1001
INDEX
1070
     1
  0
LINE
  5
280
330
27C
100
AcDbEntity
  8
ANNOTATION_TEXT
 62
     7
100
AcDbLine
 10
84.93864704199744
 20
145.4629519962324
 30
0.0
 11
97.73670464414077
 21
145.4629519962324
 31
0.0
  0
LINE
  5
281
330
27C
100
AcDbEntity
  8
ANNOTATION_TEXT
 62
     7
100
AcDbLine
 10
81.03864704199745
 20
145.4629519962324
 30
0.0
 11
84.93864704199744
 21
145.4629519962324
 31
0.0
1001
INDEX
1070
     3
  0
LINE
  5
282
330
27C
100
AcDbEntity
  8
ANNOTATION_TEXT
 62
     7
100
AcDbLine
 10
78.53864704199745
 20
145.4629519962324
 30
0.0
 11
76.03864704199745
 21
145.4629519962324
 31
0.0
1001
INDEX
1070
     3
  0
LINE
  5
283
330
27C
100
AcDbEntity
  8
ANNOTATION_TEXT
 62
     7
100
AcDbLine
 10
87.43864704199744
 20
145.4629519962324
 30
0.0
 11
89.93864704199744
 21
145.4629519962324
 31
0.0
1001
INDEX
1070
     3
  0
SOLID
  5
284
330
27C
100
AcDbEntity
  8
ANNOTATION_TEXT
 62
     7
100
AcDbTrace
 10
78.53864704199745
 20
145.0462853295658
 30
0.0
 11
78.53864704199745
 21
145.8796186628991
 31
0.0
 12
81.03864704199745
 22
145.4629519962324
 32
0.0
 13
81.03864704199745
 23
145.4629519962324
 33
0.0
  0
SOLID
  5
285
330
27C
100
AcDbEntity
  8
ANNOTATION_TEXT
 62
     7
100
AcDbTrace
 10
87.43864704199744
 20
145.8796186628991
 30
0.0
 11
87.43864704199744
 21
145.0462853295658
 31
0.0
 12
84.93864704199744
 22
145.4629519962324
 32
0.0
 13
84.93864704199744
 23
145.4629519962324
 33
0.0
  0
MTEXT
  5
286
330
27C
100
AcDbEntity
  8
ANNOTATION_TEXT
 62
     7
100
AcDbMText
 10
94.34964838158217
 20
147.3848374617381
 30
0.0
 40
2.5
 41
0.0
 71
     5
 72
     1
  1
1.3
  7
ONSHAPE-STANDARD-DIMENSION
  0
POINT
  5
287
330
27C
100
AcDbEntity
  8
DEFPOINTS
 62
     0
100
AcDbPoint
 10
81.03864704199745
 20
139.8162825683863
 30
0.0
  0
POINT
  5
288
330
27C
100
AcDbEntity
  8
DEFPOINTS
 62
     0
100
AcDbPoint
 10
84.93864704199744
 20
145.4629519962324
 30
0.0
  0
POINT
  5
289
330
27C
100
AcDbEntity
  8
DEFPOINTS
 62
     0
100
AcDbPoint
 10
84.93864704199744
 20
145.4629519962324
 30
0.0
  0
ENDBLK
  5
28A
330
27C
100
AcDbEntity
  8
0
100
AcDbBlockEnd
  0
BLOCK
  5
293
330
292
100
AcDbEntity
  8
0
100
AcDbBlockBegin
  2
*D11
 70
     1
 10
0.0
 20
0.0
 30
0.0
  3
*D11
  1

  0
LINE
  5
294
330
292
100
AcDbEntity
  8
ANNOTATION_TEXT
 62
     7
100
AcDbLine
 10
80.41364704199745
 20
139.8162825683863
 30
0.0
 11
69.43426096935696
 21
139.8162825683863
 31
0.0
1001
INDEX
1070
     0
  0
LINE
  5
295
330
292
100
AcDbEntity
  8
ANNOTATION_TEXT
 62
     7
100
AcDbLine
 10
70.05926096935697
 20
102.3162825683863
 30
0.0
 11
69.43426096935696
 21
102.3162825683863
 31
0.0
1001
INDEX
1070
     1
  0
LINE
  5
296
330
292
100
AcDbEntity
  8
ANNOTATION_TEXT
 62
     7
100
AcDbLine
 10
70.68426096935696
 20
137.3162825683863
 30
0.0
 11
70.68426096935696
 21
104.8162825683863
 31
0.0
1001
INDEX
1070
     3
  0
SOLID
  5
297
330
292
100
AcDbEntity
  8
ANNOTATION_TEXT
 62
     7
100
AcDbTrace
 10
71.10092763602363
 20
137.3162825683863
 30
0.0
 11
70.26759430269028
 21
137.3162825683863
 31
0.0
 12
70.68426096935696
 22
139.8162825683863
 32
0.0
 13
70.68426096935696
 23
139.8162825683863
 33
0.0
  0
SOLID
  5
298
330
292
100
AcDbEntity
  8
ANNOTATION_TEXT
 62
     7
100
AcDbTrace
 10
70.26759430269028
 20
104.8162825683863
 30
0.0
 11
71.10092763602363
 21
104.8162825683863
 31
0.0
 12
70.68426096935696
 22
102.3162825683863
 32
0.0
 13
70.68426096935696
 23
102.3162825683863
 33
0.0
  0
MTEXT
  5
299
330
292
100
AcDbEntity
  8
ANNOTATION_TEXT
 62
     7
100
AcDbMText
 10
68.76237550385126
 20
121.0662825683863
 30
0.0
 40
2.5
 41
0.0
 71
     5
 72
     1
  1
12.5
  7
ONSHAPE-STANDARD-DIMENSION
 11
0.0
 21
1.0
 31
0.0
  0
POINT
  5
29A
330
292
100
AcDbEntity
  8
DEFPOINTS
 62
     0
100
AcDbPoint
 10
81.03864704199745
 20
139.8162825683863
 30
0.0
  0
POINT
  5
29B
330
292
100
AcDbEntity
  8
DEFPOINTS
 62
     0
100
AcDbPoint
 10
70.68426096935697
 20
102.3162825683863
 30
0.0
  0
POINT
  5
29C
330
292
100
AcDbEntity
  8
DEFPOINTS
 62
     0
100
AcDbPoint
 10
70.68426096935696
 20
102.3162825683863
 30
0.0
  0
ENDBLK
  5
29D
330
292
100
AcDbEntity
  8
0
100
AcDbBlockEnd
  0
BLOCK
  5
2BA
330
2B9
100
AcDbEntity
  8
0
100
AcDbBlockBegin
  2
*D12
 70
     1
 10
0.0
 20
0.0
 30
0.0
  3
*D12
  1

  0
LINE
  5
2BB
330
2B9
100
AcDbEntity
  8
ANNOTATION_TEXT
 62
     7
100
AcDbLine
 10
84.93864704199744
 20
270.8800465346963
 30
0.0
 11
84.93864704199744
 21
276.205012342947
 31
0.0
1001
INDEX
1070
     0
  0
LINE
  5
2BD
330
2B9
100
AcDbEntity
  8
ANNOTATION_TEXT
 62
     7
100
AcDbLine
 10
63.93864704199744
 20
270.8800465346963
 30
0.0
 11
63.93864704199744
 21
276.205012342947
 31
0.0
1001
INDEX
1070
     1
  0
LINE
  5
2BE
330
2B9
100
AcDbEntity
  8
ANNOTATION_TEXT
 62
     7
100
AcDbLine
 10
82.43864704199744
 20
274.955012342947
 30
0.0
 11
66.43864704199744
 21
274.955012342947
 31
0.0
1001
INDEX
1070
     3
  0
SOLID
  5
2BF
330
2B9
100
AcDbEntity
  8
ANNOTATION_TEXT
 62
     7
100
AcDbTrace
 10
82.43864704199744
 20
274.5383456762803
 30
0.0
 11
82.43864704199744
 21
275.3716790096137
 31
0.0
 12
84.93864704199744
 22
274.955012342947
 32
0.0
 13
84.93864704199744
 23
274.955012342947
 33
0.0
  0
SOLID
  5
2C0
330
2B9
100
AcDbEntity
  8
ANNOTATION_TEXT
 62
     7
100
AcDbTrace
 10
66.43864704199744
 20
275.3716790096137
 30
0.0
 11
66.43864704199744
 21
274.5383456762803
 31
0.0
 12
63.93864704199744
 22
274.955012342947
 32
0.0
 13
63.93864704199744
 23
274.955012342947
 33
0.0
  0
MTEXT
  5
2C1
330
2B9
100
AcDbEntity
  8
ANNOTATION_TEXT
 62
     7
100
AcDbMText
 10
74.43864704199744
 20
276.830012342947
 30
0.0
 40
2.5
 41
0.0
 71
     5
 72
     1
  1
7
  7
ONSHAPE-STANDARD-DIMENSION
  0
POINT
  5
2C2
330
2B9
100
AcDbEntity
  8
DEFPOINTS
 62
     0
100
AcDbPoint
 10
84.93864704199744
 20
270.2550465346963
 30
0.0
  0
POINT
  5
2C3
330
2B9
100
AcDbEntity
  8
DEFPOINTS
 62
     0
100
AcDbPoint
 10
63.93864704199744
 20
270.2550465346963
 30
0.0
  0
POINT
  5
2C4
330
2B9
100
AcDbEntity
  8
DEFPOINTS
 62
     0
100
AcDbPoint
 10
63.93864704199744
 20
274.955012342947
 30
0.0
  0
ENDBLK
  5
2C5
330
2B9
100
AcDbEntity
  8
0
100
AcDbBlockEnd
  0
BLOCK
  5
2D0
330
2CF
100
AcDbEntity
  8
0
100
AcDbBlockBegin
  2
*D13
 70
     1
 10
0.0
 20
0.0
 30
0.0
  3
*D13
  1

  0
LINE
  5
2D1
330
2CF
100
AcDbEntity
  8
ANNOTATION_TEXT
 62
     7
100
AcDbLine
 10
63.31364704199744
 20
270.2550465346963
 30
0.0
 11
57.30610863390346
 21
270.2550465346963
 31
0.0
1001
INDEX
1070
     0
  0
LINE
  5
2D2
330
2CF
100
AcDbEntity
  8
ANNOTATION_TEXT
 62
     7
100
AcDbLine
 10
63.31364704199744
 20
249.2550465346963
 30
0.0
 11
57.30610863390346
 21
249.2550465346963
 31
0.0
1001
INDEX
1070
     1
  0
LINE
  5
2D3
330
2CF
100
AcDbEntity
  8
ANNOTATION_TEXT
 62
     7
100
AcDbLine
 10
58.55610863390346
 20
267.7550465346963
 30
0.0
 11
58.55610863390346
 21
251.7550465346963
 31
0.0
1001
INDEX
1070
     3
  0
SOLID
  5
2D4
330
2CF
100
AcDbEntity
  8
ANNOTATION_TEXT
 62
     7
100
AcDbTrace
 10
58.97277530057013
 20
267.7550465346963
 30
0.0
 11
58.1394419672368
 21
267.7550465346963
 31
0.0
 12
58.55610863390346
 22
270.2550465346963
 32
0.0
 13
58.55610863390346
 23
270.2550465346963
 33
0.0
  0
SOLID
  5
2D5
330
2CF
100
AcDbEntity
  8
ANNOTATION_TEXT
 62
     7
100
AcDbTrace
 10
58.1394419672368
 20
251.7550465346963
 30
0.0
 11
58.97277530057013
 21
251.7550465346963
 31
0.0
 12
58.55610863390346
 22
249.2550465346963
 32
0.0
 13
58.55610863390346
 23
249.2550465346963
 33
0.0
  0
MTEXT
  5
2D6
330
2CF
100
AcDbEntity
  8
ANNOTATION_TEXT
 62
     7
100
AcDbMText
 10
56.68110863390346
 20
259.7550465346963
 30
0.0
 40
2.5
 41
0.0
 71
     5
 72
     1
  1
7
  7
ONSHAPE-STANDARD-DIMENSION
 11
0.0
 21
1.0
 31
0.0
  0
POINT
  5
2D7
330
2CF
100
AcDbEntity
  8
DEFPOINTS
 62
     0
100
AcDbPoint
 10
63.93864704199744
 20
270.2550465346963
 30
0.0
  0
POINT
  5
2D8
330
2CF
100
AcDbEntity
  8
DEFPOINTS
 62
     0
100
AcDbPoint
 10
63.93864704199744
 20
249.2550465346963
 30
0.0
  0
POINT
  5
2D9
330
2CF
100
AcDbEntity
  8
DEFPOINTS
 62
     0
100
AcDbPoint
 10
58.55610863390346
 20
249.2550465346963
 30
0.0
  0
ENDBLK
  5
2DA
330
2CF
100
AcDbEntity
  8
0
100
AcDbBlockEnd
  0
ENDSEC
  0
SECTION
  2
ENTITIES
  0
CIRCLE
  5
77
330
1F
100
AcDbEntity
  8
VISIBLE
100
AcDbCircle
 10
81.03864704199745
 20
139.8162825683863
 30
0.0
 40
2.25
  0
LINE
  5
78
330
1F
100
AcDbEntity
  8
VISIBLE
100
AcDbLine
 10
84.93864704199744
 20
207.3162825683863
 30
0.0
 11
63.93864704199744
 21
207.3162825683863
 31
0.0
  0
LINE
  5
79
330
1F
100
AcDbEntity
  8
VISIBLE
100
AcDbLine
 10
66.93864704199744
 20
228.0162825683863
 30
0.0
 11
65.43864704199744
 21
226.5162825683863
 31
0.0
  0
LINE
  5
7A
330
1F
100
AcDbEntity
  8
VISIBLE
100
AcDbLine
 10
84.93864704199744
 20
102.3162825683863
 30
0.0
 11
63.93864704199744
 21
102.3162825683863
 31
0.0
  0
LINE
  5
7B
330
1F
100
AcDbEntity
  8
VISIBLE
100
AcDbLine
 10
83.43864704199744
 20
207.3162825683863
 30
0.0
 11
83.43864704199744
 21
226.5162825683863
 31
0.0
  0
LINE
  5
7C
330
1F
100
AcDbEntity
  8
VISIBLE
100
AcDbLine
 10
65.43864704199744
 20
226.5162825683863
 30
0.0
 11
65.43864704199744
 21
207.3162825683863
 31
0.0
  0
LINE
  5
7D
330
1F
100
AcDbEntity
  8
VISIBLE
100
AcDbLine
 10
83.43864704199744
 20
226.5162825683863
 30
0.0
 11
81.93864704199744
 21
228.0162825683863
 31
0.0
  0
LINE
  5
7E
330
1F
100
AcDbEntity
  8
VISIBLE
100
AcDbLine
 10
63.93864704199744
 20
207.3162825683863
 30
0.0
 11
63.93864704199744
 21
102.3162825683863
 31
0.0
  0
LINE
  5
7F
330
1F
100
AcDbEntity
  8
VISIBLE
100
AcDbLine
 10
84.93864704199744
 20
207.3162825683863
 30
0.0
 11
84.93864704199744
 21
102.3162825683863
 31
0.0
  0
LINE
  5
80
330
1F
100
AcDbEntity
  8
VISIBLE
100
AcDbLine
 10
83.43864704199744
 20
226.5162825683863
 30
0.0
 11
65.43864704199744
 21
226.5162825683863
 31
0.0
  0
LINE
  5
81
330
1F
100
AcDbEntity
  8
SIDE_THREAD_SYMBOLS
100
AcDbLine
 10
67.06314704199744
 20
228.0162825683863
 30
0.0
 11
67.06314704199744
 21
207.3162825683863
 31
0.0
  0
LINE
  5
82
330
1F
100
AcDbEntity
  8
SIDE_THREAD_SYMBOLS
100
AcDbLine
 10
81.81414704199744
 20
207.3162825683863
 30
0.0
 11
81.81414704199744
 21
228.0162825683863
 31
0.0
  0
LINE
  5
83
330
1F
100
AcDbEntity
  8
VISIBLE
100
AcDbLine
 10
66.93864704199744
 20
228.0162825683863
 30
0.0
 11
81.93864704199744
 21
228.0162825683863
 31
0.0
  0
CIRCLE
  5
87
330
1F
100
AcDbEntity
  8
VISIBLE
100
AcDbCircle
 10
74.43864704199744
 20
259.7550465346963
 30
0.0
 40
3.0
  0
CIRCLE
  5
88
330
1F
100
AcDbEntity
  8
VISIBLE
100
AcDbCircle
 10
74.43864704199744
 20
259.7550465346963
 30
0.0
 40
3.599999999999994
  0
LINE
  5
89
330
1F
100
AcDbEntity
  8
VISIBLE
100
AcDbLine
 10
63.93864704199744
 20
270.2550465346963
 30
0.0
 11
63.93864704199744
 21
249.2550465346963
 31
0.0
  0
LINE
  5
8A
330
1F
100
AcDbEntity
  8
VISIBLE
100
AcDbLine
 10
84.93864704199744
 20
270.2550465346963
 30
0.0
 11
63.93864704199744
 21
270.2550465346963
 31
0.0
  0
LINE
  5
8B
330
1F
100
AcDbEntity
  8
VISIBLE
100
AcDbLine
 10
84.93864704199744
 20
249.2550465346963
 30
0.0
 11
63.93864704199744
 21
249.2550465346963
 31
0.0
  0
LINE
  5
8C
330
1F
100
AcDbEntity
  8
VISIBLE
100
AcDbLine
 10
84.93864704199744
 20
270.2550465346963
 30
0.0
 11
84.93864704199744
 21
249.2550465346963
 31
0.0
  0
CIRCLE
  5
8D
330
1F
100
AcDbEntity
  8
VISIBLE
100
AcDbCircle
 10
74.43864704199744
 20
259.7550465346963
 30
0.0
 40
7.5
  0
ARC
  5
8E
330
1F
100
AcDbEntity
  8
SURFACE_THREAD_SYMBOLS_ON_
100
AcDbCircle
 10
74.43864704199744
 20
259.7550465346963
 30
0.0
 40
9.0
100
AcDbArc
 50
260.0
 51
188.0000000000001
1001
ONSHAPE_COSMETIC_THREAD_MODIFICATION_DATA
1070
     1
  0
LINE
  5
94
330
1F
100
AcDbEntity
  8
VISIBLE
100
AcDbLine
 10
180.2220848425083
 20
127.6033545711281
 30
0.0
 11
170.3225899058967
 21
133.3188306376222
 31
0.0
  0
LINE
  5
95
330
1F
100
AcDbEntity
  8
VISIBLE
100
AcDbLine
 10
170.3225899058967
 20
190.473591302563
 30
0.0
 11
170.3225899058967
 21
133.3188306376222
 31
0.0
  0
LINE
  5
96
330
1F
100
AcDbEntity
  8
VISIBLE
100
AcDbLine
 10
190.12157977912
 20
133.3188306376222
 30
0.0
 11
180.2220848425083
 21
127.6033545711281
 31
0.0
  0
LINE
  5
97
330
1F
100
AcDbEntity
  8
VISIBLE
100
AcDbLine
 10
190.12157977912
 20
190.473591302563
 30
0.0
 11
190.12157977912
 21
133.3188306376222
 31
0.0
  0
LINE
  5
98
330
1F
100
AcDbEntity
  8
VISIBLE
100
AcDbLine
 10
180.2220848425083
 20
184.7581152360689
 30
0.0
 11
180.2220848425083
 21
127.6033545711281
 31
0.0
  0
LINE
  5
99
330
1F
100
AcDbEntity
  8
VISIBLE
100
AcDbLine
 10
186.2220848425083
 20
190.473591302563
 30
0.0
 11
186.2220848425083
 21
200.9247475384379
 31
0.0
  0
LINE
  5
9A
330
1F
100
AcDbEntity
  8
VISIBLE
100
AcDbLine
 10
174.2220848425083
 20
200.9247475384379
 30
0.0
 11
174.2220848425083
 21
190.473591302563
 31
0.0
  0
LINE
  5
9B
330
1F
100
AcDbEntity
  8
VISIBLE
100
AcDbLine
 10
184.4647255296276
 20
203.3742372812211
 30
0.0
 11
183.7576187484411
 21
203.782485571685
 31
0.0
  0
LINE
  5
9C
330
1F
100
AcDbEntity
  8
VISIBLE
100
AcDbLine
 10
176.6865509365756
 20
203.782485571685
 30
0.0
 11
175.979444155389
 21
203.3742372812211
 31
0.0
  0
LINE
  5
9D
330
1F
100
AcDbEntity
  8
VISIBLE
100
AcDbLine
 10
180.2220848425083
 20
184.7581152360689
 30
0.0
 11
170.3225899058967
 21
190.473591302563
 31
0.0
  0
LINE
  5
9E
330
1F
100
AcDbEntity
  8
VISIBLE
100
AcDbLine
 10
174.2220848425083
 20
192.7249657539193
 30
0.0
 11
170.3225899058967
 21
190.473591302563
 31
0.0
  0
LINE
  5
9F
330
1F
100
AcDbEntity
  8
VISIBLE
100
AcDbLine
 10
190.12157977912
 20
190.473591302563
 30
0.0
 11
186.2220848425083
 21
192.7249657539193
 31
0.0
  0
LINE
  5
A0
330
1F
100
AcDbEntity
  8
VISIBLE
100
AcDbLine
 10
190.12157977912
 20
190.473591302563
 30
0.0
 11
180.2220848425083
 21
184.7581152360689
 31
0.0
  0
ELLIPSE
  5
A1
330
1F
100
AcDbEntity
  8
VISIBLE
100
AcDbEllipse
 10
180.2220848425083
 20
201.1755586944164
 30
0.0
 11
-2.0
 21
0.0
 31
0.0
210
0.0
220
0.0
230
1.0
 40
0.5773502691896226
 41
2.93602372160099
 42
6.488754239352311
  0
ELLIPSE
  5
A2
330
1F
100
AcDbEntity
  8
VISIBLE
100
AcDbEllipse
 10
188.283102148035
 20
152.6697996056093
 30
0.0
 11
-0.7499999999999993
 21
-1.299038105676658
 31
0.0
210
0.0
220
0.0
230
-1.0
 40
0.5773502691896256
 41
0.0
 42
6.283185307179586
  0
ELLIPSE
  5
A3
330
1F
100
AcDbEntity
  8
VISIBLE
100
AcDbEllipse
 10
180.2220848425083
 20
201.7412441193656
 30
0.0
 11
2.4
 21
0.0
 31
0.0
210
0.0
220
0.0
230
-1.0
 40
0.577350269189626
 41
0.0
 42
6.283185307179586
  0
ELLIPSE
  5
A4
330
1F
100
AcDbEntity
  8
VISIBLE
100
AcDbEllipse
 10
180.2220848425083
 20
190.473591302563
 30
0.0
 11
-6.0
 21
0.0
 31
0.0
210
0.0
220
0.0
230
1.0
 40
0.5773502691896274
 41
0.0
 42
3.141592653589793
  0
ELLIPSE
  5
A5
330
1F
100
AcDbEntity
  8
VISIBLE
100
AcDbEllipse
 10
180.2220848425083
 20
201.7412441193656
 30
0.0
 11
-4.999999999999999
 21
0.0
 31
0.0
210
0.0
220
0.0
230
1.0
 40
0.577350269189626
 41
0.0
 42
6.283185307179586
  0
ELLIPSE
  5
A6
330
1F
100
AcDbEntity
  8
VISIBLE
100
AcDbEllipse
 10
180.2220848425083
 20
200.9247475384379
 30
0.0
 11
6.0
 21
0.0
 31
0.0
210
0.0
220
0.0
230
-1.0
 40
0.5773502691896274
 41
5.497787143782138
 42
10.21017612416682
  0
LINE
  5
A7
330
1F
100
AcDbEntity
  8
SIDE_THREAD_SYMBOLS
100
AcDbLine
 10
175.3050848425083
 20
201.2174404029476
 30
0.0
 11
175.3050848425083
 21
190.473591302563
 31
0.0
  0
LINE
  5
A8
330
1F
100
AcDbEntity
  8
SIDE_THREAD_SYMBOLS
100
AcDbLine
 10
185.1390848425083
 20
190.473591302563
 30
0.0
 11
185.1390848425083
 21
201.2174404029476
 31
0.0
  0
ELLIPSE
  5
A9
330
1F
100
AcDbEntity
  8
BLIND_THREAD_SYMBOLS
100
AcDbEllipse
 10
180.2220848425083
 20
190.473591302563
 30
0.0
 11
-4.917000000000002
 21
0.0
 31
0.0
210
0.0
220
0.0
230
1.0
 40
0.5773502691896263
 41
0.0
 42
3.141592653589793
  0
ELLIPSE
  5
AA
330
1F
100
AcDbEntity
  8
SURFACE_THREAD_SYMBOLS
100
AcDbEllipse
 10
180.2220848425083
 20
201.7412441193656
 30
0.0
 11
-4.917000000000002
 21
0.0
 31
0.0
210
0.0
220
0.0
230
1.0
 40
0.5773502691896263
 41
4.537856055185258
 42
9.564404300928924
  0
ELLIPSE
  5
AB
330
1F
100
AcDbEntity
  8
BLIND_THREAD_SYMBOLS
100
AcDbEllipse
 10
180.2220848425083
 20
190.473591302563
 30
0.0
 11
-6.0
 21
0.0
 31
0.0
210
0.0
220
0.0
230
1.0
 40
0.5773502691896274
 41
0.0
 42
3.141592653589793
  0
HATCH
  5
B1
330
1F
100
AcDbEntity
  8
VIEW_HATCHES
100
AcDbHatch
 10
0.0
 20
0.0
 30
0.0
210
0.0
220
0.0
230
1.0
  2
ISO02W100
 70
     0
 71
     0
 91
        1
 92
        0
 93
       11
 72
     1
 10
119.8888361198236
 20
102.3162825683863
 11
122.8888361198236
 21
102.3162825683863
 72
     1
 10
122.8888361198236
 20
135.3162825683863
 11
122.8888361198236
 21
102.3162825683863
 72
     1
 10
126.7888361198236
 20
135.3162825683863
 11
122.8888361198236
 21
135.3162825683863
 72
     1
 10
127.3888361198236
 20
136.3555130529276
 11
126.7888361198236
 21
135.3162825683863
 72
     1
 10
127.3888361198236
 20
226.977052083845
 11
127.3888361198236
 21
136.3555130529275
 72
     1
 10
126.7888361198236
 20
228.0162825683863
 11
127.3888361198236
 21
226.977052083845
 72
     1
 10
122.8888361198236
 20
228.0162825683863
 11
126.7888361198236
 21
228.0162825683863
 72
     1
 10
121.3888361198236
 20
226.5162825683863
 11
122.8888361198236
 21
228.0162825683863
 72
     1
 10
121.3888361198236
 20
226.5162825683863
 11
121.3888361198236
 21
207.3162825683863
 72
     1
 10
119.8888361198236
 20
207.3162825683863
 11
121.3888361198236
 21
207.3162825683863
 72
     1
 10
119.8888361198236
 20
207.3162825683863
 11
119.8888361198236
 21
102.3162825683863
 97
        0
 75
     0
 76
     2
 52
0.0
 41
58.81943284726039
 77
     0
 78
     1
 53
45.0
 43
130.3888361198236
 44
102.3162825683863
 45
-5.198952478980572
 46
5.198952478980573
 79
     2
 49
17.64582985417811
 49
-4.411457463544529
 98
        1
 10
130.3888361198236
 20
102.3162825683863
  0
HATCH
  5
B2
330
1F
100
AcDbEntity
  8
VIEW_HATCHES
100
AcDbHatch
 10
0.0
 20
0.0
 30
0.0
210
0.0
220
0.0
230
1.0
  2
ISO02W100
 70
     0
 71
     0
 91
        1
 92
        0
 93
       11
 72
     1
 10
137.8888361198236
 20
102.3162825683863
 11
140.8888361198236
 21
102.3162825683863
 72
     1
 10
140.8888361198236
 20
207.3162825683863
 11
140.8888361198236
 21
102.3162825683863
 72
     1
 10
139.3888361198236
 20
207.3162825683863
 11
140.8888361198236
 21
207.3162825683863
 72
     1
 10
139.3888361198236
 20
207.3162825683863
 11
139.3888361198236
 21
226.5162825683863
 72
     1
 10
137.8888361198236
 20
228.0162825683863
 11
139.3888361198236
 21
226.5162825683863
 72
     1
 10
133.9888361198236
 20
228.0162825683863
 11
137.8888361198236
 21
228.0162825683863
 72
     1
 10
133.3888361198236
 20
226.977052083845
 11
133.9888361198236
 21
228.0162825683863
 72
     1
 10
133.3888361198236
 20
136.3555130529276
 11
133.3888361198236
 21
226.977052083845
 72
     1
 10
133.9888361198236
 20
135.3162825683863
 11
133.3888361198236
 21
136.3555130529275
 72
     1
 10
137.8888361198236
 20
135.3162825683863
 11
133.9888361198236
 21
135.3162825683863
 72
     1
 10
137.8888361198236
 20
102.3162825683863
 11
137.8888361198236
 21
135.3162825683863
 97
        0
 75
     0
 76
     2
 52
0.0
 41
58.81943284726039
 77
     0
 78
     1
 53
45.0
 43
130.3888361198236
 44
102.3162825683863
 45
-5.198952478980572
 46
5.198952478980573
 79
     2
 49
17.64582985417811
 49
-4.411457463544529
 98
        1
 10
130.3888361198236
 20
102.3162825683863
  0
LINE
  5
B3
330
1F
100
AcDbEntity
  8
VISIBLE
100
AcDbLine
 10
119.8888361198236
 20
207.3162825683863
 30
0.0
 11
121.3888361198236
 21
207.3162825683863
 31
0.0
  0
LINE
  5
B4
330
1F
100
AcDbEntity
  8
VISIBLE
100
AcDbLine
 10
119.8888361198236
 20
102.3162825683863
 30
0.0
 11
122.8888361198236
 21
102.3162825683863
 31
0.0
  0
LINE
  5
B5
330
1F
100
AcDbEntity
  8
VISIBLE
100
AcDbLine
 10
119.8888361198236
 20
207.3162825683863
 30
0.0
 11
119.8888361198236
 21
102.3162825683863
 31
0.0
  0
LINE
  5
B6
330
1F
100
AcDbEntity
  8
VISIBLE
100
AcDbLine
 10
122.8888361198236
 20
228.0162825683863
 30
0.0
 11
126.7888361198236
 21
228.0162825683863
 31
0.0
  0
LINE
  5
B7
330
1F
100
AcDbEntity
  8
VISIBLE
100
AcDbLine
 10
122.8888361198236
 20
135.3162825683863
 30
0.0
 11
122.8888361198236
 21
102.3162825683863
 31
0.0
  0
LINE
  5
B8
330
1F
100
AcDbEntity
  8
VISIBLE
100
AcDbLine
 10
126.7888361198236
 20
135.3162825683863
 30
0.0
 11
122.8888361198236
 21
135.3162825683863
 31
0.0
  0
LINE
  5
B9
330
1F
100
AcDbEntity
  8
VISIBLE
100
AcDbLine
 10
140.8888361198236
 20
207.3162825683863
 30
0.0
 11
140.8888361198236
 21
102.3162825683863
 31
0.0
  0
LINE
  5
BA
330
1F
100
AcDbEntity
  8
VISIBLE
100
AcDbLine
 10
121.3888361198236
 20
226.5162825683863
 30
0.0
 11
122.8888361198236
 21
228.0162825683863
 31
0.0
  0
LINE
  5
BB
330
1F
100
AcDbEntity
  8
VISIBLE
100
AcDbLine
 10
133.9888361198236
 20
228.0162825683863
 30
0.0
 11
137.8888361198236
 21
228.0162825683863
 31
0.0
  0
LINE
  5
BC
330
1F
100
AcDbEntity
  8
VISIBLE
100
AcDbLine
 10
139.3888361198236
 20
207.3162825683863
 30
0.0
 11
139.3888361198236
 21
226.5162825683863
 31
0.0
  0
LINE
  5
BD
330
1F
100
AcDbEntity
  8
VISIBLE
100
AcDbLine
 10
137.8888361198236
 20
102.3162825683863
 30
0.0
 11
137.8888361198236
 21
135.3162825683863
 31
0.0
  0
LINE
  5
BE
330
1F
100
AcDbEntity
  8
VISIBLE
100
AcDbLine
 10
137.8888361198236
 20
135.3162825683863
 30
0.0
 11
133.9888361198236
 21
135.3162825683863
 31
0.0
  0
LINE
  5
BF
330
1F
100
AcDbEntity
  8
VISIBLE
100
AcDbLine
 10
121.3888361198236
 20
226.5162825683863
 30
0.0
 11
121.3888361198236
 21
207.3162825683863
 31
0.0
  0
LINE
  5
C0
330
1F
100
AcDbEntity
  8
VISIBLE
100
AcDbLine
 10
133.3888361198236
 20
136.3555130529276
 30
0.0
 11
133.3888361198236
 21
226.977052083845
 31
0.0
  0
LINE
  5
C1
330
1F
100
AcDbEntity
  8
VISIBLE
100
AcDbLine
 10
133.9888361198236
 20
135.3162825683863
 30
0.0
 11
133.3888361198236
 21
136.3555130529276
 31
0.0
  0
LINE
  5
C2
330
1F
100
AcDbEntity
  8
VISIBLE
100
AcDbLine
 10
126.7888361198236
 20
228.0162825683863
 30
0.0
 11
127.3888361198236
 21
226.977052083845
 31
0.0
  0
LINE
  5
C3
330
1F
100
AcDbEntity
  8
VISIBLE
100
AcDbLine
 10
127.3888361198236
 20
226.977052083845
 30
0.0
 11
127.3888361198236
 21
136.3555130529276
 31
0.0
  0
LINE
  5
C4
330
1F
100
AcDbEntity
  8
VISIBLE
100
AcDbLine
 10
127.3888361198236
 20
136.3555130529276
 30
0.0
 11
126.7888361198236
 21
135.3162825683863
 31
0.0
  0
LINE
  5
C5
330
1F
100
AcDbEntity
  8
VISIBLE
100
AcDbLine
 10
133.3888361198236
 20
226.977052083845
 30
0.0
 11
133.9888361198236
 21
228.0162825683863
 31
0.0
  0
LINE
  5
C6
330
1F
100
AcDbEntity
  8
VISIBLE
100
AcDbLine
 10
137.8888361198236
 20
228.0162825683863
 30
0.0
 11
139.3888361198236
 21
226.5162825683863
 31
0.0
  0
LINE
  5
C7
330
1F
100
AcDbEntity
  8
VISIBLE
100
AcDbLine
 10
137.8888361198236
 20
102.3162825683863
 30
0.0
 11
140.8888361198236
 21
102.3162825683863
 31
0.0
  0
LINE
  5
C8
330
1F
100
AcDbEntity
  8
VISIBLE
100
AcDbLine
 10
139.3888361198236
 20
207.3162825683863
 30
0.0
 11
140.8888361198236
 21
207.3162825683863
 31
0.0
  0
LINE
  5
C9
330
1F
100
AcDbEntity
  8
VISIBLE
100
AcDbLine
 10
133.9888361198236
 20
228.0162825683863
 30
0.0
 11
126.7888361198236
 21
228.0162825683863
 31
0.0
  0
LINE
  5
CA
330
1F
100
AcDbEntity
  8
VISIBLE
100
AcDbLine
 10
126.7888361198236
 20
135.3162825683863
 30
0.0
 11
133.9888361198236
 21
135.3162825683863
 31
0.0
  0
LINE
  5
CB
330
1F
100
AcDbEntity
  8
VISIBLE
100
AcDbLine
 10
127.3888361198236
 20
226.977052083845
 30
0.0
 11
133.3888361198236
 21
226.977052083845
 31
0.0
  0
LINE
  5
CC
330
1F
100
AcDbEntity
  8
VISIBLE
100
AcDbLine
 10
122.8888361198236
 20
102.3162825683863
 30
0.0
 11
137.8888361198236
 21
102.3162825683863
 31
0.0
  0
LINE
  5
CD
330
1F
100
AcDbEntity
  8
VISIBLE
100
AcDbLine
 10
133.3888361198236
 20
136.3555130529276
 30
0.0
 11
127.3888361198236
 21
136.3555130529276
 31
0.0
  0
LINE
  5
CE
330
1F
100
AcDbEntity
  8
SIDE_THREAD_SYMBOLS
100
AcDbLine
 10
121.3888361198236
 20
102.3162825683863
 30
0.0
 11
121.3888361198236
 21
135.3162825683863
 31
0.0
  0
LINE
  5
CF
330
1F
100
AcDbEntity
  8
SIDE_THREAD_SYMBOLS
100
AcDbLine
 10
139.3888361198236
 20
135.3162825683863
 30
0.0
 11
139.3888361198236
 21
102.3162825683863
 31
0.0
  0
LINE
  5
D0
330
1F
100
AcDbEntity
  8
BLIND_THREAD_SYMBOLS
100
AcDbLine
 10
139.3888361198236
 20
135.3162825683863
 30
0.0
 11
137.8888361198236
 21
135.3162825683863
 31
0.0
  0
LINE
  5
D1
330
1F
100
AcDbEntity
  8
BLIND_THREAD_SYMBOLS
100
AcDbLine
 10
122.8888361198236
 20
135.3162825683863
 30
0.0
 11
121.3888361198236
 21
135.3162825683863
 31
0.0
  0
LINE
  5
D2
330
1F
100
AcDbEntity
  8
SIDE_THREAD_SYMBOLS
100
AcDbLine
 10
123.0133361198236
 20
207.3162825683863
 30
0.0
 11
123.0133361198236
 21
228.0162825683863
 31
0.0
  0
LINE
  5
D3
330
1F
100
AcDbEntity
  8
SIDE_THREAD_SYMBOLS
100
AcDbLine
 10
137.7643361198236
 20
228.0162825683863
 30
0.0
 11
137.7643361198236
 21
207.3162825683863
 31
0.0
  0
LINE
  5
D4
330
1F
100
AcDbEntity
  8
BLIND_THREAD_SYMBOLS
100
AcDbLine
 10
137.7643361198236
 20
207.3162825683863
 30
0.0
 11
139.3888361198236
 21
207.3162825683863
 31
0.0
  0
LINE
  5
D5
330
1F
100
AcDbEntity
  8
BLIND_THREAD_SYMBOLS
100
AcDbLine
 10
121.3888361198236
 20
207.3162825683863
 30
0.0
 11
123.0133361198236
 21
207.3162825683863
 31
0.0
  0
HATCH
  5
D9
330
1F
100
AcDbEntity
  8
VIEW_HATCHES
100
AcDbHatch
 10
0.0
 20
0.0
 30
0.0
210
0.0
220
0.0
230
1.0
  2
ISO02W100
 70
     0
 71
     0
 91
        2
 92
        0
 93
        9
 72
     1
 10
83.28864704199745
 20
86.46303935224789
 11
83.28864704199745
 21
74.46303935224789
 72
     1
 10
83.28864704199744
 20
74.46303935224789
 11
81.03864704199744
 21
73.11110295943588
 72
     1
 10
81.03864704199744
 20
73.11110295943588
 11
78.78864704199744
 21
74.46303935224789
 72
     1
 10
78.78864704199745
 20
74.46303935224789
 11
78.78864704199745
 21
86.46303935224789
 72
     1
 10
78.78864704199745
 20
86.46303935224789
 11
63.93864704199745
 21
86.46303935224789
 72
     1
 10
63.93864704199744
 20
86.4630393522479
 11
63.93864704199744
 21
65.4630393522479
 72
     1
 10
84.93864704199744
 20
65.46303935224789
 11
63.93864704199744
 21
65.46303935224789
 72
     1
 10
84.93864704199744
 20
86.46303935224789
 11
84.93864704199744
 21
65.46303935224789
 72
     1
 10
84.93864704199744
 20
86.46303935224789
 11
83.28864704199744
 21
86.46303935224789
 97
        0
 92
        0
 93
        1
 72
     2
 10
74.43864704199744
 20
75.96303935224789
 40
3.0
 50
180.0
 51
540.0
 73
     0
 97
        0
 75
     0
 76
     2
 52
0.0
 41
26.39865316429778
 77
     0
 78
     1
 53
45.0
 43
74.43864704199744
 44
75.96303935224789
 45
-2.333333333333334
 46
2.333333333333334
 79
     2
 49
7.919595949289334
 49
-1.979898987322334
 98
        1
 10
74.43864704199744
 20
75.96303935224789
  0
LINE
  5
DA
330
1F
100
AcDbEntity
  8
VISIBLE
100
AcDbLine
 10
83.28864704199744
 20
74.46303935224789
 30
0.0
 11
78.78864704199744
 21
74.46303935224789
 31
0.0
  0
LINE
  5
DB
330
1F
100
AcDbEntity
  8
VISIBLE
100
AcDbLine
 10
78.78864704199745
 20
74.46303935224789
 30
0.0
 11
78.78864704199745
 21
86.46303935224789
 31
0.0
  0
LINE
  5
DC
330
1F
100
AcDbEntity
  8
VISIBLE
100
AcDbLine
 10
78.78864704199745
 20
86.46303935224789
 30
0.0
 11
83.28864704199745
 21
86.46303935224789
 31
0.0
  0
LINE
  5
DD
330
1F
100
AcDbEntity
  8
VISIBLE
100
AcDbLine
 10
83.28864704199744
 20
74.46303935224789
 30
0.0
 11
81.03864704199744
 21
73.11110295943588
 31
0.0
  0
LINE
  5
DE
330
1F
100
AcDbEntity
  8
VISIBLE
100
AcDbLine
 10
81.03864704199744
 20
73.11110295943588
 30
0.0
 11
78.78864704199745
 21
74.46303935224789
 31
0.0
  0
LINE
  5
DF
330
1F
100
AcDbEntity
  8
VISIBLE
100
AcDbLine
 10
83.28864704199745
 20
86.46303935224789
 30
0.0
 11
83.28864704199744
 21
74.46303935224789
 31
0.0
  0
LINE
  5
E0
330
1F
100
AcDbEntity
  8
VISIBLE
100
AcDbLine
 10
84.93864704199744
 20
86.46303935224789
 30
0.0
 11
83.28864704199745
 21
86.46303935224789
 31
0.0
  0
LINE
  5
E1
330
1F
100
AcDbEntity
  8
VISIBLE
100
AcDbLine
 10
84.93864704199744
 20
86.46303935224789
 30
0.0
 11
84.93864704199744
 21
65.46303935224789
 31
0.0
  0
LINE
  5
E2
330
1F
100
AcDbEntity
  8
VISIBLE
100
AcDbLine
 10
84.93864704199744
 20
65.46303935224789
 30
0.0
 11
63.93864704199744
 21
65.46303935224789
 31
0.0
  0
LINE
  5
E3
330
1F
100
AcDbEntity
  8
VISIBLE
100
AcDbLine
 10
63.93864704199744
 20
86.4630393522479
 30
0.0
 11
63.93864704199744
 21
65.46303935224789
 31
0.0
  0
LINE
  5
E4
330
1F
100
AcDbEntity
  8
VISIBLE
100
AcDbLine
 10
78.78864704199745
 20
86.46303935224789
 30
0.0
 11
63.93864704199744
 21
86.4630393522479
 31
0.0
  0
CIRCLE
  5
E5
330
1F
100
AcDbEntity
  8
VISIBLE
100
AcDbCircle
 10
74.43864704199744
 20
75.96303935224789
 30
0.0
 40
3.0
  0
LINE
  5
E6
330
1F
100
AcDbEntity
  8
TITLE_BLOCK
100
AcDbLine
 10
48.07500000000002
 20
10.0
 30
0.0
 11
48.07500000000002
 21
48.09999999999999
 31
0.0
  0
LINE
  5
E9
330
1F
100
AcDbEntity
  8
TITLE_BLOCK
100
AcDbLine
 10
48.07500000000002
 20
10.0
 30
0.0
 11
78.555
 21
10.0
 31
0.0
  0
LINE
  5
EA
330
1F
100
AcDbEntity
  8
TITLE_BLOCK
100
AcDbLine
 10
48.07500000000002
 20
17.62
 30
0.0
 11
78.555
 21
17.62
 31
0.0
  0
LINE
  5
EB
330
1F
100
AcDbEntity
  8
TITLE_BLOCK
100
AcDbLine
 10
48.07500000000002
 20
20.668
 30
0.0
 11
78.555
 21
20.668
 31
0.0
  0
LINE
  5
EC
330
1F
100
AcDbEntity
  8
TITLE_BLOCK
100
AcDbLine
 10
48.07500000000002
 20
25.8496
 30
0.0
 11
78.555
 21
25.8496
 31
0.0
  0
LINE
  5
ED
330
1F
100
AcDbEntity
  8
TITLE_BLOCK
100
AcDbLine
 10
48.07500000000002
 20
30.2692
 30
0.0
 11
78.555
 21
30.2692
 31
0.0
  0
LINE
  5
EE
330
1F
100
AcDbEntity
  8
TITLE_BLOCK
100
AcDbLine
 10
48.07500000000002
 20
48.09999999999999
 30
0.0
 11
78.555
 21
48.09999999999999
 31
0.0
  0
MTEXT
  5
EF
330
1F
100
AcDbEntity
  8
TITLE_BLOCK
100
AcDbMText
 10
48.74556000000001
 20
47.00272
 30
0.0
 40
1.2192
 41
29.87039999999999
 71
     1
 72
     1
  1
UNLESS OTHERWISE SPECIFIED, DIMENSIONS ARE IN MILLIMETERS
  7
ONSHAPE-STANDARD
  0
MTEXT
  5
F1
330
1F
100
AcDbEntity
  8
TITLE_BLOCK
100
AcDbMText
 10
63.315
 20
28.842736
 30
0.0
 40
1.58496
 41
29.87039999999999
 71
     2
 72
     1
  1
DO NOT SCALE DRAWING
  7
ONSHAPE-STANDARD
  0
MTEXT
  5
F2
330
1F
100
AcDbEntity
  8
TITLE_BLOCK
100
AcDbMText
 10
63.315
 20
24.75232
 30
0.0
 40
1.2192
 41
29.87039999999999
 71
     2
 72
     1
  1
BREAK ALL SHARP EDGES AND REMOVE BURRS
  7
ONSHAPE-STANDARD
  0
CIRCLE
  5
F3
330
1F
100
AcDbEntity
  8
TITLE_BLOCK
100
AcDbCircle
 10
66.74400000000003
 20
13.77952
 30
0.0
 40
1.3716
  0
CIRCLE
  5
F4
330
1F
100
AcDbEntity
  8
TITLE_BLOCK
100
AcDbCircle
 10
66.74400000000003
 20
13.77952
 30
0.0
 40
2.743199999999999
  0
LINE
  5
F5
330
1F
100
AcDbEntity
  8
TITLE_BLOCK
100
AcDbLine
 10
67.42980000000003
 20
13.77952
 30
0.0
 11
66.05820000000003
 21
13.77952
 31
0.0
  0
LINE
  5
F6
330
1F
100
AcDbEntity
  8
TITLE_BLOCK
100
AcDbLine
 10
66.74400000000003
 20
14.46532
 30
0.0
 11
66.74400000000003
 21
13.09372
 31
0.0
  0
LINE
  5
F7
330
1F
100
AcDbEntity
  8
TITLE_BLOCK
100
AcDbLine
 10
68.11560000000003
 20
13.77952
 30
0.0
 11
70.17300000000003
 21
13.77952
 31
0.0
  0
LINE
  5
F8
330
1F
100
AcDbEntity
  8
TITLE_BLOCK
100
AcDbLine
 10
66.74400000000003
 20
15.15112
 30
0.0
 11
66.74400000000003
 21
17.20852
 31
0.0
  0
LINE
  5
F9
330
1F
100
AcDbEntity
  8
TITLE_BLOCK
100
AcDbLine
 10
65.37240000000003
 20
13.77952
 30
0.0
 11
63.31500000000003
 21
13.77952
 31
0.0
  0
LINE
  5
FA
330
1F
100
AcDbEntity
  8
TITLE_BLOCK
100
AcDbLine
 10
66.74400000000003
 20
12.40792
 30
0.0
 11
66.74400000000003
 21
10.35052
 31
0.0
  0
LINE
  5
FB
330
1F
100
AcDbEntity
  8
TITLE_BLOCK
100
AcDbLine
 10
62.62920000000003
 20
11.03632
 30
0.0
 11
62.62920000000003
 21
16.52272
 31
0.0
  0
LINE
  5
FC
330
1F
100
AcDbEntity
  8
TITLE_BLOCK
100
AcDbLine
 10
62.62920000000003
 20
16.52272
 30
0.0
 11
57.14280000000002
 21
15.15112
 31
0.0
  0
LINE
  5
FD
330
1F
100
AcDbEntity
  8
TITLE_BLOCK
100
AcDbLine
 10
57.14280000000002
 20
15.15112
 30
0.0
 11
57.14280000000002
 21
12.40792
 31
0.0
  0
LINE
  5
FE
330
1F
100
AcDbEntity
  8
TITLE_BLOCK
100
AcDbLine
 10
57.14280000000002
 20
12.40792
 30
0.0
 11
62.62920000000003
 21
11.03632
 31
0.0
  0
LINE
  5
FF
330
1F
100
AcDbEntity
  8
TITLE_BLOCK
100
AcDbLine
 10
60.57180000000002
 20
13.77952
 30
0.0
 11
62.97210000000001
 21
13.77952
 31
0.0
  0
LINE
  5
100
330
1F
100
AcDbEntity
  8
TITLE_BLOCK
100
AcDbLine
 10
60.16032000000001
 20
13.77952
 30
0.0
 11
59.61168000000004
 21
13.77952
 31
0.0
  0
LINE
  5
101
330
1F
100
AcDbEntity
  8
TITLE_BLOCK
100
AcDbLine
 10
59.20020000000002
 20
13.77952
 30
0.0
 11
56.79990000000004
 21
13.77952
 31
0.0
  0
MTEXT
  5
102
330
1F
100
AcDbEntity
  8
TITLE_BLOCK
100
AcDbMText
 10
63.315
 20
19.57072
 30
0.0
 40
1.2192
 41
29.87039999999999
 71
     2
 72
     1
  1
FIRST ANGLE PROJECTION
  7
ONSHAPE-STANDARD
  0
LINE
  5
103
330
1F
100
AcDbEntity
  8
TITLE_BLOCK
100
AcDbLine
 10
78.555
 20
10.0
 30
0.0
 11
78.555
 21
48.09999999999999
 31
0.0
  0
LINE
  5
104
330
1F
100
AcDbEntity
  8
TITLE_BLOCK
100
AcDbLine
 10
91.89000000000001
 20
20.668
 30
0.0
 11
91.89000000000001
 21
48.09999999999999
 31
0.0
  0
LINE
  5
105
330
1F
100
AcDbEntity
  8
TITLE_BLOCK
100
AcDbLine
 10
107.13
 20
20.668
 30
0.0
 11
107.13
 21
48.09999999999999
 31
0.0
  0
LINE
  5
106
330
1F
100
AcDbEntity
  8
TITLE_BLOCK
100
AcDbLine
 10
105.225
 20
10.0
 30
0.0
 11
105.225
 21
20.668
 31
0.0
  0
MTEXT
  5
107
330
1F
100
AcDbEntity
  8
TITLE_BLOCK
100
AcDbMText
 10
114.75
 20
47.00272
 30
0.0
 40
1.2192
 41
14.93520000000001
 71
     2
 72
     1
  1
SIGNATURE
  7
ONSHAPE-STANDARD
  0
LINE
  5
108
330
1F
100
AcDbEntity
  8
TITLE_BLOCK
100
AcDbLine
 10
122.37
 20
20.668
 30
0.0
 11
122.37
 21
48.09999999999999
 31
0.0
  0
LINE
  5
109
330
1F
100
AcDbEntity
  8
TITLE_BLOCK
100
AcDbLine
 10
78.555
 20
48.09999999999999
 30
0.0
 11
131.895
 21
48.09999999999999
 31
0.0
  0
LINE
  5
10A
330
1F
100
AcDbEntity
  8
TITLE_BLOCK
100
AcDbLine
 10
78.555
 20
43.528
 30
0.0
 11
131.895
 21
43.528
 31
0.0
  0
LINE
  5
10B
330
1F
100
AcDbEntity
  8
TITLE_BLOCK
100
AcDbLine
 10
78.555
 20
38.956
 30
0.0
 11
131.895
 21
38.956
 31
0.0
  0
LINE
  5
10C
330
1F
100
AcDbEntity
  8
TITLE_BLOCK
100
AcDbLine
 10
78.555
 20
34.384
 30
0.0
 11
131.895
 21
34.384
 31
0.0
  0
LINE
  5
10D
330
1F
100
AcDbEntity
  8
TITLE_BLOCK
100
AcDbLine
 10
78.555
 20
29.812
 30
0.0
 11
131.895
 21
29.812
 31
0.0
  0
LINE
  5
10E
330
1F
100
AcDbEntity
  8
TITLE_BLOCK
100
AcDbLine
 10
78.555
 20
25.24
 30
0.0
 11
131.895
 21
25.24
 31
0.0
  0
LINE
  5
10F
330
1F
100
AcDbEntity
  8
TITLE_BLOCK
100
AcDbLine
 10
78.555
 20
20.668
 30
0.0
 11
131.895
 21
20.668
 31
0.0
  0
MTEXT
  5
110
330
1F
100
AcDbEntity
  8
TITLE_BLOCK
100
AcDbMText
 10
92.56056000000001
 20
47.00272
 30
0.0
 40
1.2192
 41
14.93519999999998
 71
     1
 72
     1
  1
NAME
  7
ONSHAPE-STANDARD
  0
MTEXT
  5
111
330
1F
100
AcDbEntity
  8
TITLE_BLOCK
100
AcDbMText
 10
127.1325
 20
47.00272
 30
0.0
 40
1.2192
 41
9.334500000000006
 71
     2
 72
     1
  1
DATE
  7
ONSHAPE-STANDARD
  0
MTEXT
  5
112
330
1F
100
AcDbEntity
  8
TITLE_BLOCK
100
AcDbMText
 10
79.22556
 20
42.43072
 30
0.0
 40
1.2192
 41
13.06830000000001
 71
     1
 72
     1
  1
DRAWN
  7
ONSHAPE-STANDARD
  0
MTEXT
  5
113
102
{ACAD_XDICTIONARY
360
114
102
}
330
1F
100
AcDbEntity
  8
TITLE_BLOCK
100
AcDbMText
 10
127.1325
 20
41.242
 30
0.0
 40
1.024128
 41
9.525000000000006
 71
     5
 72
     1
  1
2025-06-07
  7
ONSHAPE-STANDARD-FIELDS
1001
ACAD
1000
ACAD_MTEXT_DEFINED_HEIGHT_BEGIN
1070
    46
1040
4.572000000000003
1000
ACAD_MTEXT_DEFINED_HEIGHT_END
  0
MTEXT
  5
11A
330
1F
100
AcDbEntity
  8
TITLE_BLOCK
100
AcDbMText
 10
79.22556
 20
37.85872
 30
0.0
 40
1.2192
 41
13.06830000000001
 71
     1
 72
     1
  1
CHECKED
  7
ONSHAPE-STANDARD
  0
MTEXT
  5
11B
330
1F
100
AcDbEntity
  8
TITLE_BLOCK
100
AcDbMText
 10
99.50999999999999
 20
36.67
 30
0.0
 40
1.024128
 41
15.23999999999998
 71
     5
 72
     1
  1
 
  7
ONSHAPE-STANDARD-FIELDS
1001
ACAD
1000
ACAD_MTEXT_DEFINED_HEIGHT_BEGIN
1070
    46
1040
4.571999999999996
1000
ACAD_MTEXT_DEFINED_HEIGHT_END
  0
MTEXT
  5
11C
330
1F
100
AcDbEntity
  8
TITLE_BLOCK
100
AcDbMText
 10
127.1325
 20
36.67
 30
0.0
 40
1.024128
 41
9.525000000000006
 71
     5
 72
     1
  1
 
  7
ONSHAPE-STANDARD-FIELDS
1001
ACAD
1000
ACAD_MTEXT_DEFINED_HEIGHT_BEGIN
1070
    46
1040
4.571999999999996
1000
ACAD_MTEXT_DEFINED_HEIGHT_END
  0
MTEXT
  5
11D
330
1F
100
AcDbEntity
  8
TITLE_BLOCK
100
AcDbMText
 10
79.22556
 20
33.28672
 30
0.0
 40
1.2192
 41
13.06830000000001
 71
     1
 72
     1
  1
APPROVED
  7
ONSHAPE-STANDARD
  0
MTEXT
  5
11E
330
1F
100
AcDbEntity
  8
TITLE_BLOCK
100
AcDbMText
 10
85.22250000000003
 20
27.526
 30
0.0
 40
1.8288
 41
13.33500000000001
 71
     5
 72
     1
  1
 
  7
ONSHAPE-STANDARD-FIELDS
1001
ACAD
1000
ACAD_MTEXT_DEFINED_HEIGHT_BEGIN
1070
    46
1040
4.571999999999999
1000
ACAD_MTEXT_DEFINED_HEIGHT_END
  0
MTEXT
  5
11F
330
1F
100
AcDbEntity
  8
TITLE_BLOCK
100
AcDbMText
 10
99.50999999999999
 20
27.526
 30
0.0
 40
1.024128
 41
15.23999999999998
 71
     5
 72
     1
  1
 
  7
ONSHAPE-STANDARD-FIELDS
1001
ACAD
1000
ACAD_MTEXT_DEFINED_HEIGHT_BEGIN
1070
    46
1040
4.571999999999999
1000
ACAD_MTEXT_DEFINED_HEIGHT_END
  0
MTEXT
  5
120
330
1F
100
AcDbEntity
  8
TITLE_BLOCK
100
AcDbMText
 10
127.1325
 20
27.526
 30
0.0
 40
1.024128
 41
9.525000000000006
 71
     5
 72
     1
  1
 
  7
ONSHAPE-STANDARD-FIELDS
1001
ACAD
1000
ACAD_MTEXT_DEFINED_HEIGHT_BEGIN
1070
    46
1040
4.571999999999999
1000
ACAD_MTEXT_DEFINED_HEIGHT_END
  0
MTEXT
  5
121
330
1F
100
AcDbEntity
  8
TITLE_BLOCK
100
AcDbMText
 10
85.22250000000003
 20
22.954
 30
0.0
 40
1.8288
 41
13.33500000000001
 71
     5
 72
     1
  1
 
  7
ONSHAPE-STANDARD-FIELDS
1001
ACAD
1000
ACAD_MTEXT_DEFINED_HEIGHT_BEGIN
1070
    46
1040
4.571999999999999
1000
ACAD_MTEXT_DEFINED_HEIGHT_END
  0
MTEXT
  5
122
330
1F
100
AcDbEntity
  8
TITLE_BLOCK
100
AcDbMText
 10
99.50999999999999
 20
22.954
 30
0.0
 40
1.024128
 41
15.23999999999998
 71
     5
 72
     1
  1
 
  7
ONSHAPE-STANDARD-FIELDS
1001
ACAD
1000
ACAD_MTEXT_DEFINED_HEIGHT_BEGIN
1070
    46
1040
4.571999999999999
1000
ACAD_MTEXT_DEFINED_HEIGHT_END
  0
MTEXT
  5
123
330
1F
100
AcDbEntity
  8
TITLE_BLOCK
100
AcDbMText
 10
127.1325
 20
22.954
 30
0.0
 40
1.024128
 41
9.525000000000006
 71
     5
 72
     1
  1
 
  7
ONSHAPE-STANDARD-FIELDS
1001
ACAD
1000
ACAD_MTEXT_DEFINED_HEIGHT_BEGIN
1070
    46
1040
4.571999999999999
1000
ACAD_MTEXT_DEFINED_HEIGHT_END
  0
MTEXT
  5
124
330
1F
100
AcDbEntity
  8
TITLE_BLOCK
100
AcDbMText
 10
79.22556
 20
19.57072
 30
0.0
 40
1.2192
 41
26.13660000000002
 71
     1
 72
     1
  1
MATERIAL
  7
ONSHAPE-STANDARD
  0
MTEXT
  5
125
102
{ACAD_XDICTIONARY
360
361
102
}
330
1F
100
AcDbEntity
  8
TITLE_BLOCK
100
AcDbMText
 10
91.89000000000001
 20
15.334
 30
0.0
 40
1.8288
 41
26.67000000000002
 71
     5
 72
     1
  1
 Brass/Copper
  7
ONSHAPE-STANDARD-FIELDS
1001
ONSHAPE_NOTES_REORDERING_D
1071
        0
1070
     0
1001
ACAD
1000
ACAD_MTEXT_DEFINED_HEIGHT_BEGIN
1070
    46
1040
1.85371553133515
1000
ACAD_MTEXT_DEFINED_HEIGHT_END
  0
MTEXT
  5
128
330
1F
100
AcDbEntity
  8
TITLE_BLOCK
100
AcDbMText
 10
105.89556
 20
19.57072
 30
0.0
 40
1.2192
 41
26.13659999999999
 71
     1
 72
     1
  1
FINISH
  7
ONSHAPE-STANDARD
  0
MTEXT
  5
129
102
{ACAD_XDICTIONARY
360
363
102
}
330
1F
100
AcDbEntity
  8
TITLE_BLOCK
100
AcDbMText
 10
118.56
 20
15.334
 30
0.0
 40
1.8288
 41
26.66999999999999
 71
     5
 72
     1
  1
{\fNoto Sans|b0|i0|c0|p0;\W0.50000; } 
  7
ONSHAPE-STANDARD-FIELDS
1001
ONSHAPE_NOTES_REORDERING_D
1071
        0
1070
     0
1001
ACAD
1000
ACAD_MTEXT_DEFINED_HEIGHT_BEGIN
1070
    46
1040
1.8288
1000
ACAD_MTEXT_DEFINED_HEIGHT_END
  0
LINE
  5
12A
330
1F
100
AcDbEntity
  8
TITLE_BLOCK
100
AcDbLine
 10
131.895
 20
10.0
 30
0.0
 11
131.895
 21
48.09999999999999
 31
0.0
  0
LINE
  5
12B
330
1F
100
AcDbEntity
  8
TITLE_BLOCK
100
AcDbLine
 10
141.42
 20
14.953
 30
0.0
 11
141.42
 21
22.573
 31
0.0
  0
LINE
  5
12C
330
1F
100
AcDbEntity
  8
TITLE_BLOCK
100
AcDbLine
 10
148.659
 20
10.0
 30
0.0
 11
148.659
 21
14.953
 31
0.0
  0
LINE
  5
12D
330
1F
100
AcDbEntity
  8
TITLE_BLOCK
100
AcDbLine
 10
183.33
 20
10.0
 30
0.0
 11
183.33
 21
14.953
 31
0.0
  0
LINE
  5
12E
330
1F
100
AcDbEntity
  8
TITLE_BLOCK
100
AcDbLine
 10
202.38
 20
14.953
 30
0.0
 11
202.38
 21
22.573
 31
0.0
  0
LINE
  5
12F
330
1F
100
AcDbEntity
  8
TITLE_BLOCK
100
AcDbLine
 10
131.895
 20
14.953
 30
0.0
 11
210.0
 21
14.953
 31
0.0
  0
LINE
  5
130
330
1F
100
AcDbEntity
  8
TITLE_BLOCK
100
AcDbLine
 10
131.895
 20
22.573
 30
0.0
 11
210.0
 21
22.573
 31
0.0
  0
LINE
  5
131
330
1F
100
AcDbEntity
  8
TITLE_BLOCK
100
AcDbLine
 10
131.895
 20
38.575
 30
0.0
 11
210.0
 21
38.575
 31
0.0
  0
LINE
  5
132
330
1F
100
AcDbEntity
  8
TITLE_BLOCK
100
AcDbLine
 10
131.895
 20
48.09999999999999
 30
0.0
 11
210.0
 21
48.09999999999999
 31
0.0
  0
MTEXT
  5
133
330
1F
100
AcDbEntity
  8
TITLE_BLOCK
100
AcDbMText
 10
132.56556
 20
37.47772
 30
0.0
 40
1.2192
 41
9.334500000000006
 71
     1
 72
     1
  1
TITLE
  7
ONSHAPE-STANDARD
  0
MTEXT
  5
134
102
{ACAD_XDICTIONARY
360
135
102
}
330
1F
100
AcDbEntity
  8
TITLE_BLOCK
100
AcDbMText
 10
170.9475
 20
30.7264
 30
0.0
 40
2.92608
 41
70.48500000000001
 71
     5
 72
     1
  1
Super Extender 35mm
  7
ONSHAPE-STANDARD-FIELDS
1001
ONSHAPE_NOTES_REORDERING_D
1071
        0
1070
     0
1001
ACAD
1000
ACAD_MTEXT_DEFINED_HEIGHT_BEGIN
1070
    46
1040
2.96594485013624
1000
ACAD_MTEXT_DEFINED_HEIGHT_END
  0
MTEXT
  5
136
330
1F
100
AcDbEntity
  8
TITLE_BLOCK
100
AcDbMText
 10
132.431448
 20
21.695176
 30
0.0
 40
0.9753599999999999
 41
9.334500000000006
 71
     1
 72
     1
  1
SIZE
  7
ONSHAPE-STANDARD
  0
MTEXT
  5
137
102
{ACAD_XDICTIONARY
360
138
102
}
330
1F
100
AcDbEntity
  8
TITLE_BLOCK
100
AcDbMText
 10
136.6575
 20
18.763
 30
0.0
 40
3.6576
 41
9.525000000000006
 71
     5
 72
     1
  1
A4
  7
ONSHAPE-STANDARD-FIELDS
1001
ACAD
1000
ACAD_MTEXT_DEFINED_HEIGHT_BEGIN
1070
    46
1040
7.620000000000001
1000
ACAD_MTEXT_DEFINED_HEIGHT_END
  0
MTEXT
  5
13D
330
1F
100
AcDbEntity
  8
TITLE_BLOCK
100
AcDbMText
 10
141.956448
 20
21.695176
 30
0.0
 40
0.9753599999999999
 41
59.74079999999998
 71
     1
 72
     1
  1
DWG NO.
  7
ONSHAPE-STANDARD
  0
MTEXT
  5
13E
102
{ACAD_XDICTIONARY
360
13F
102
}
330
1F
100
AcDbEntity
  8
TITLE_BLOCK
100
AcDbMText
 10
171.9
 20
18.763
 30
0.0
 40
3.6576
 41
60.95999999999998
 71
     5
 72
     1
  1
1
  7
ONSHAPE-STANDARD-FIELDS
1001
ONSHAPE_NOTES_REORDERING_D
1071
        0
1070
     0
1001
ACAD
1000
ACAD_MTEXT_DEFINED_HEIGHT_BEGIN
1070
    46
1040
3.6576
1000
ACAD_MTEXT_DEFINED_HEIGHT_END
  0
MTEXT
  5
140
330
1F
100
AcDbEntity
  8
TITLE_BLOCK
100
AcDbMText
 10
202.916448
 20
21.695176
 30
0.0
 40
0.9753599999999999
 41
7.467600000000004
 71
     1
 72
     1
  1
REV.
  7
ONSHAPE-STANDARD
  0
MTEXT
  5
141
102
{ACAD_XDICTIONARY
360
142
102
}
330
1F
100
AcDbEntity
  8
TITLE_BLOCK
100
AcDbMText
 10
206.571
 20
18.763
 30
0.0
 40
3.6576
 41
6.857999999999947
 71
     5
 72
     1
  1
2
  7
ONSHAPE-STANDARD-FIELDS
1001
ONSHAPE_NOTES_REORDERING_D
1071
        0
1070
     0
1001
ACAD
1000
ACAD_MTEXT_DEFINED_HEIGHT_BEGIN
1070
    46
1040
3.6576
1000
ACAD_MTEXT_DEFINED_HEIGHT_END
  0
MTEXT
  5
143
330
1F
100
AcDbEntity
  8
TITLE_BLOCK
100
AcDbMText
 10
132.431448
 20
14.075176
 30
0.0
 40
0.9753599999999999
 41
16.42871999999998
 71
     1
 72
     1
  1
SCALE
  7
ONSHAPE-STANDARD
  0
MTEXT
  5
144
102
{ACAD_XDICTIONARY
360
145
102
}
330
1F
100
AcDbEntity
  8
TITLE_BLOCK
100
AcDbMText
 10
141.039
 20
12.4765
 30
0.0
 40
2.19456
 41
15.24000000000001
 71
     5
 72
     1
  1
3:1
  7
ONSHAPE-STANDARD-FIELDS
1001
ONSHAPE_NOTES_REORDERING_D
1071
        0
1070
     0
1001
ACAD
1000
ACAD_MTEXT_DEFINED_HEIGHT_BEGIN
1070
    46
1040
2.23791302452316
1000
ACAD_MTEXT_DEFINED_HEIGHT_END
  0
MTEXT
  5
146
330
1F
100
AcDbEntity
  8
TITLE_BLOCK
100
AcDbMText
 10
149.195448
 20
14.075176
 30
0.0
 40
0.9753599999999999
 41
33.97757999999999
 71
     1
 72
     1
  1
WEIGHT
  7
ONSHAPE-STANDARD
  0
MTEXT
  5
147
330
1F
100
AcDbEntity
  8
TITLE_BLOCK
100
AcDbMText
 10
165.9945
 20
12.4765
 30
0.0
 40
2.19456
 41
34.67099999999999
 71
     5
 72
     1
  1
 
  7
ONSHAPE-STANDARD-FIELDS
1001
ACAD
1000
ACAD_MTEXT_DEFINED_HEIGHT_BEGIN
1070
    46
1040
4.952999999999999
1000
ACAD_MTEXT_DEFINED_HEIGHT_END
  0
MTEXT
  5
148
330
1F
100
AcDbEntity
  8
TITLE_BLOCK
100
AcDbMText
 10
183.866448
 20
14.075176
 30
0.0
 40
0.9753599999999999
 41
26.13660000000002
 71
     1
 72
     1
  1
SHEET
  7
ONSHAPE-STANDARD
  0
MTEXT
  5
149
102
{ACAD_XDICTIONARY
360
14A
102
}
330
1F
100
AcDbEntity
  8
TITLE_BLOCK
100
AcDbMText
 10
197.427
 20
12.4765
 30
0.0
 40
2.19456
 41
25.14600000000002
 71
     5
 72
     1
  1
1 of 1
  7
ONSHAPE-STANDARD-FIELDS
1001
ACAD
1000
ACAD_MTEXT_DEFINED_HEIGHT_BEGIN
1070
    46
1040
4.952999999999999
1000
ACAD_MTEXT_DEFINED_HEIGHT_END
  0
LINE
  5
14F
330
1F
100
AcDbEntity
  8
BORDER_FRAME
100
AcDbLine
 10
20.0
 20
10.0
 30
0.0
 11
20.0
 21
287.0
 31
0.0
  0
LINE
  5
151
330
1F
100
AcDbEntity
  8
BORDER_FRAME
100
AcDbLine
 10
20.0
 20
287.0
 30
0.0
 11
210.0
 21
287.0
 31
0.0
  0
LINE
  5
152
330
1F
100
AcDbEntity
  8
BORDER_FRAME
100
AcDbLine
 10
210.0
 20
287.0
 30
0.0
 11
210.0
 21
10.0
 31
0.0
  0
LINE
  5
153
330
1F
100
AcDbEntity
  8
BORDER_FRAME
100
AcDbLine
 10
210.0
 20
10.0
 30
0.0
 11
20.0
 21
10.0
 31
0.0
  0
MTEXT
  5
154
102
{ACAD_XDICTIONARY
360
155
102
}
330
1F
100
AcDbEntity
  8
ANNOTATION_TEXT
 62
     7
 60
     1
100
AcDbMText
 10
74.43864704199744
 20
94.15628256838629
 30
0.0
 40
3.5
 41
0.0
 71
     2
 72
     1
  1

  7
ONSHAPE-STANDARD-VIEW-LABE
1001
ACAD
1000
ACAD_MTEXT_DEFINED_HEIGHT_BEGIN
1070
    46
1040
3.5
1000
ACAD_MTEXT_DEFINED_HEIGHT_END
  0
LINE
  5
15D
330
1F
100
AcDbEntity
  8
CENTERMARKS
  6
CONTINUOUS
100
AcDbLine
 10
80.25114704199746
 20
139.8162825683863
 30
0.0
 11
81.82614704199744
 21
139.8162825683863
 31
0.0
  0
LINE
  5
15E
330
1F
100
AcDbEntity
  8
CENTERMARKS
  6
CONTINUOUS
100
AcDbLine
 10
81.03864704199745
 20
139.0287825683863
 30
0.0
 11
81.03864704199745
 21
140.6037825683863
 31
0.0
  0
LINE
  5
15F
330
1F
100
AcDbEntity
  8
CENTERMARKS
  6
CENTER
100
AcDbLine
 10
79.46364704199746
 20
139.8162825683863
 30
0.0
 11
77.21364704199748
 21
139.8162825683863
 31
0.0
  0
LINE
  5
160
330
1F
100
AcDbEntity
  8
CENTERMARKS
  6
CENTER
100
AcDbLine
 10
82.61364704199744
 20
139.8162825683863
 30
0.0
 11
84.86364704199742
 21
139.8162825683863
 31
0.0
  0
LINE
  5
161
330
1F
100
AcDbEntity
  8
CENTERMARKS
  6
CENTER
100
AcDbLine
 10
81.03864704199745
 20
141.3912825683863
 30
0.0
 11
81.03864704199745
 21
143.6412825683863
 31
0.0
  0
LINE
  5
162
330
1F
100
AcDbEntity
  8
CENTERMARKS
  6
CENTER
100
AcDbLine
 10
81.03864704199745
 20
138.2412825683863
 30
0.0
 11
81.03864704199745
 21
135.9912825683863
 31
0.0
  0
MTEXT
  5
163
102
{ACAD_XDICTIONARY
360
164
102
}
330
1F
100
AcDbEntity
  8
ANNOTATION_TEXT
 62
     7
 60
     1
100
AcDbMText
 10
74.43864704199744
 20
246.4550465346963
 30
0.0
 40
3.5
 41
0.0
 71
     2
 72
     1
  1

  7
ONSHAPE-STANDARD-VIEW-LABE
1001
ACAD
1000
ACAD_MTEXT_DEFINED_HEIGHT_BEGIN
1070
    46
1040
3.5
1000
ACAD_MTEXT_DEFINED_HEIGHT_END
  0
MTEXT
  5
16A
102
{ACAD_XDICTIONARY
360
16B
102
}
330
1F
100
AcDbEntity
  8
ANNOTATION_TEXT
 62
     7
 60
     1
100
AcDbMText
 10
180.2220848425083
 20
122.0021225264188
 30
0.0
 40
3.5
 41
0.0
 71
     2
 72
     1
  1

  7
ONSHAPE-STANDARD-VIEW-LABE
1001
ACAD
1000
ACAD_MTEXT_DEFINED_HEIGHT_BEGIN
1070
    46
1040
3.5
1000
ACAD_MTEXT_DEFINED_HEIGHT_END
  0
LINE
  5
170
330
1F
100
AcDbEntity
  8
SECTION_CUTTING_LINE
 62
     7
100
AcDbLine
 10
74.43864704199744
 20
96.31628256838628
 30
0.0
 11
74.43864704199744
 21
236.5162825683863
 31
0.0
  0
SOLID
  5
171
330
1F
100
AcDbEntity
  8
SECTION_CUTTING_LINE
 62
     7
100
AcDbTrace
 10
74.43864704199744
 20
96.31628256838628
 30
0.0
 11
71.93864704199744
 21
96.73294923505296
 31
0.0
 12
71.93864704199744
 22
95.89961590171961
 32
0.0
 13
71.93864704199744
 23
95.89961590171961
 33
0.0
  0
SOLID
  5
172
330
1F
100
AcDbEntity
  8
SECTION_CUTTING_LINE
 62
     7
100
AcDbTrace
 10
71.93864704199744
 20
96.42044923505296
 30
0.0
 11
69.43864704199744
 21
96.42044923505296
 31
0.0
 12
71.93864704199744
 22
96.21211590171961
 32
0.0
 13
69.43864704199744
 23
96.21211590171961
 33
0.0
  0
SOLID
  5
173
330
1F
100
AcDbEntity
  8
SECTION_CUTTING_LINE
 62
     7
100
AcDbTrace
 10
74.43864704199744
 20
236.5162825683863
 30
0.0
 11
71.93864704199744
 21
236.932949235053
 31
0.0
 12
71.93864704199744
 22
236.0996159017197
 32
0.0
 13
71.93864704199744
 23
236.0996159017197
 33
0.0
  0
SOLID
  5
174
330
1F
100
AcDbEntity
  8
SECTION_CUTTING_LINE
 62
     7
100
AcDbTrace
 10
71.93864704199744
 20
236.620449235053
 30
0.0
 11
69.43864704199744
 21
236.620449235053
 31
0.0
 12
71.93864704199744
 22
236.4121159017197
 32
0.0
 13
69.43864704199744
 23
236.4121159017197
 33
0.0
  0
MTEXT
  5
175
330
1F
100
AcDbEntity
  8
SECTION_CUTTING_LINE
  6
CONTINUOUS
 62
     7
100
AcDbMText
 10
65.48916929449517
 20
98.06628256838628
 30
0.0
 40
3.5
 41
3.12091280653951
 71
     1
 72
     1
  1
\fNoto Sans|b0|i0|c0|p0;\W1.0000000000;\T1.0000000000;\o\lA
  7
ONSHAPE-STANDARD
  0
MTEXT
  5
176
330
1F
100
AcDbEntity
  8
SECTION_CUTTING_LINE
  6
CONTINUOUS
 62
     7
100
AcDbMText
 10
65.48916929449517
 20
238.2662825683863
 30
0.0
 40
3.5
 41
3.12091280653951
 71
     1
 72
     1
  1
\fNoto Sans|b0|i0|c0|p0;\W1.0000000000;\T1.0000000000;\o\lA
  7
ONSHAPE-STANDARD
  0
MTEXT
  5
177
102
{ACAD_XDICTIONARY
360
178
102
}
330
1F
100
AcDbEntity
  8
ANNOTATION_TEXT
 62
     7
100
AcDbMText
 10
129.8451696452855
 20
92.78759986702653
 30
0.0
 40
3.5
 41
0.0
 71
     2
 72
     1
  1
 A - A 
  7
ONSHAPE-STANDARD-VIEW-LABE
1001
ACAD
1000
ACAD_MTEXT_DEFINED_HEIGHT_BEGIN
1070
    46
1040
3.5
1000
ACAD_MTEXT_DEFINED_HEIGHT_END
  0
LINE
  5
181
330
1F
100
AcDbEntity
  8
SECTION_CUTTING_LINE
 62
     7
100
AcDbLine
 10
57.93864704199744
 20
139.8162825683863
 30
0.0
 11
90.93864704199744
 21
139.8162825683863
 31
0.0
  0
SOLID
  5
182
330
1F
100
AcDbEntity
  8
SECTION_CUTTING_LINE
 62
     7
100
AcDbTrace
 10
57.93864704199744
 20
139.8162825683863
 30
0.0
 11
57.52198037533078
 21
137.3162825683863
 31
0.0
 12
58.35531370866411
 22
137.3162825683863
 32
0.0
 13
58.35531370866411
 23
137.3162825683863
 33
0.0
  0
SOLID
  5
183
330
1F
100
AcDbEntity
  8
SECTION_CUTTING_LINE
 62
     7
100
AcDbTrace
 10
57.83448037533078
 20
137.3162825683863
 30
0.0
 11
57.83448037533078
 21
134.8162825683863
 31
0.0
 12
58.04281370866411
 22
137.3162825683863
 32
0.0
 13
58.04281370866411
 23
134.8162825683863
 33
0.0
  0
SOLID
  5
184
330
1F
100
AcDbEntity
  8
SECTION_CUTTING_LINE
 62
     7
100
AcDbTrace
 10
90.93864704199744
 20
139.8162825683863
 30
0.0
 11
90.52198037533077
 21
137.3162825683863
 31
0.0
 12
91.35531370866411
 22
137.3162825683863
 32
0.0
 13
91.35531370866411
 23
137.3162825683863
 33
0.0
  0
SOLID
  5
185
330
1F
100
AcDbEntity
  8
SECTION_CUTTING_LINE
 62
     7
100
AcDbTrace
 10
90.83448037533077
 20
137.3162825683863
 30
0.0
 11
90.83448037533077
 21
134.8162825683863
 31
0.0
 12
91.04281370866411
 22
137.3162825683863
 32
0.0
 13
91.04281370866411
 23
134.8162825683863
 33
0.0
  0
MTEXT
  5
186
330
1F
100
AcDbEntity
  8
SECTION_CUTTING_LINE
  6
CONTINUOUS
 62
     7
100
AcDbMText
 10
56.72032279131624
 20
133.9829492350529
 30
0.0
 40
3.5
 41
3.173365122615804
 71
     1
 72
     1
  1
\fNoto Sans|b0|i0|c0|p0;\W1.0000000000;\T1.0000000000;\o\lB
  7
ONSHAPE-STANDARD
  0
MTEXT
  5
187
330
1F
100
AcDbEntity
  8
SECTION_CUTTING_LINE
  6
CONTINUOUS
 62
     7
100
AcDbMText
 10
89.72032279131625
 20
133.9829492350529
 30
0.0
 40
3.5
 41
3.173365122615804
 71
     1
 72
     1
  1
\fNoto Sans|b0|i0|c0|p0;\W1.0000000000;\T1.0000000000;\o\lB
  7
ONSHAPE-STANDARD
  0
MTEXT
  5
188
102
{ACAD_XDICTIONARY
360
189
102
}
330
1F
100
AcDbEntity
  8
ANNOTATION_TEXT
 62
     7
100
AcDbMText
 10
73.73927965591888
 20
63.295687353833
 30
0.0
 40
3.5
 41
0.0
 71
     2
 72
     1
  1
 B - B 
  7
ONSHAPE-STANDARD-VIEW-LABE
1001
ACAD
1000
ACAD_MTEXT_DEFINED_HEIGHT_BEGIN
1070
    46
1040
3.5
1000
ACAD_MTEXT_DEFINED_HEIGHT_END
  0
LINE
  5
191
330
1F
100
AcDbEntity
  8
CENTERLINES
100
AcDbLine
 10
130.3888361198236
 20
230.5150801509598
 30
0.0
 11
130.3888361198236
 21
99.81748498581277
 31
0.0
  0
DIMENSION
  5
192
102
{ACAD_REACTORS
330
1B5
102
}
102
{ACAD_XDICTIONARY
360
193
102
}
330
1F
100
AcDbEntity
  8
ANNOTATION_TEXT
100
AcDbDimension
  2
*D1
 10
54.74022927559405
 20
102.3162825683863
 30
0.0
 11
54.74022927559405
 21
154.8162825683863
 31
0.0
 70
   160
  3
ONSHAPE-ISO-25$0
100
AcDbAlignedDimension
 13
63.93864704199744
 23
207.3162825683863
 33
5.250000000000004
 14
63.93864704199744
 24
102.3162825683863
 34
5.249999999999998
 50
90.0
100
AcDbRotatedDimension
1001
ACAD
1000
DSTYLE
1002
{
1070
     4
1000
[]
1070
   144
1040
0.3333333333333333
1070
     3
1000

1070
   288
1070
     1
1002
}
1001
ACAD_DIMASSOC_CALC_DIMLFAC
1040
-0.3333333333333333
1001
ACAD_DIMASSOC_DIMLFAC
1040
-0.3333333333333333
1001
ACAD_DIMASSOC_OVERRIDDEN_D
1040
0.0
  0
DIMENSION
  5
1AE
102
{ACAD_REACTORS
102
}
102
{ACAD_XDICTIONARY
360
1AF
102
}
330
1F
100
AcDbEntity
  8
ANNOTATION_TEXT
100
AcDbDimension
  2
*D2
 10
54.78172927559406
 20
207.3162825683863
 30
0.0
 11
54.78172927559406
 21
213.9162825683863
 31
0.0
 70
   161
  1
6.9
  3
ONSHAPE-ISO-25$0
100
AcDbAlignedDimension
 13
67.06314704199744
 23
228.0162825683863
 33
0.0
 14
67.06314704199744
 24
207.3162825683863
 34
0.0
1001
ACAD
1000
DSTYLE
1002
{
1070
   170
1070
     0
1070
     4
1000
[]
1070
   144
1040
0.3333333333333333
1070
     3
1000

1070
   288
1070
     1
1002
}
1001
ACAD_DIMASSOC_CALC_DIMLFAC
1040
-0.3333333333333333
1001
ACAD_DIMASSOC_DIMLFAC
1040
-0.3333333333333333
1001
ACAD_DIMASSOC_OVERRIDDEN_D
1040
0.0
1001
OS_DIM_THREAD_DATA
1070
     1
1001
ONSHAPE_DIM_OVERRIDE
1040
20.7
  0
DIMENSION
  5
1C4
102
{ACAD_REACTORS
330
1F2
102
}
102
{ACAD_XDICTIONARY
360
1C5
102
}
330
1F
100
AcDbEntity
  8
ANNOTATION_TEXT
100
AcDbDimension
  2
*D3
 10
139.3888361198236
 20
96.36040280453358
 30
0.0
 11
130.4123332286646
 21
96.36040280453358
 31
0.0
 70
   160
  1
M6x1
  3
ONSHAPE-ISO-25$0
100
AcDbAlignedDimension
 13
121.3888361198236
 23
125.3069179724213
 33
0.0
 14
139.3888361198236
 24
126.7771567921685
 34
0.0
100
AcDbRotatedDimension
1001
ACAD
1000
DSTYLE
1002
{
1070
   170
1070
     0
1070
     4
1000
[]
1070
   144
1040
0.3333333333333333
1070
     3
1000

1070
   288
1070
     1
1002
}
1001
ACAD_DIMASSOC_CALC_DIMLFAC
1040
-0.3333333333333333
1001
ACAD_DIMASSOC_DIMLFAC
1040
-0.3333333333333333
1001
ACAD_DIMASSOC_OVERRIDDEN_D
1040
0.0
1001
OS_DIM_THREAD_DATA
1070
     1
  0
DIMENSION
  5
1D8
102
{ACAD_REACTORS
102
}
102
{ACAD_XDICTIONARY
360
1D9
102
}
330
1F
100
AcDbEntity
  8
ANNOTATION_TEXT
100
AcDbDimension
  2
*D4
 10
81.81414704199744
 20
219.4228341121166
 30
0.0
 11
90.4563941953799
 21
219.4228341121166
 31
0.0
 70
   160
  1
M6x1
  3
ONSHAPE-ISO-25$0
100
AcDbAlignedDimension
 13
67.06314704199744
 23
223.795771496543
 33
0.0
 14
81.81414704199744
 24
222.419966802618
 34
0.0
100
AcDbRotatedDimension
1001
ACAD
1000
DSTYLE
1002
{
1070
   170
1070
     0
1070
     4
1000
[]
1070
   144
1040
0.3333333333333333
1070
     3
1000

1070
   288
1070
     1
1002
}
1001
ACAD_DIMASSOC_CALC_DIMLFAC
1040
-0.3333333333333333
1001
ACAD_DIMASSOC_DIMLFAC
1040
-0.3333333333333333
1001
ACAD_DIMASSOC_OVERRIDDEN_D
1040
0.0
1001
OS_DIM_THREAD_DATA
1070
     1
  0
DIMENSION
  5
1ED
102
{ACAD_REACTORS
102
}
102
{ACAD_XDICTIONARY
360
1EE
102
}
330
1F
100
AcDbEntity
  8
ANNOTATION_TEXT
100
AcDbDimension
  2
*D5
 10
113.6346103677896
 20
135.3162825683863
 30
0.0
 11
113.6346103677896
 21
123.5118614660055
 31
0.0
 70
   161
  3
ONSHAPE-ISO-25$0
100
AcDbAlignedDimension
 13
137.8888361198236
 23
102.3162825683863
 33
1.249999999999991
 14
137.8888361198236
 24
135.3162825683863
 34
1.249999999999991
1001
ACAD
1000
DSTYLE
1002
{
1070
     4
1000
[]
1070
   144
1040
0.3333333333333333
1070
     3
1000

1070
   288
1070
     1
1002
}
1001
ACAD_DIMASSOC_CALC_DIMLFAC
1040
-0.3333333333333333
1001
ACAD_DIMASSOC_DIMLFAC
1040
-0.3333333333333333
1001
ACAD_DIMASSOC_OVERRIDDEN_D
1040
0.0
  0
INSERT
  5
200
102
{ACAD_REACTORS
102
}
102
{ACAD_XDICTIONARY
360
201
102
}
330
1F
100
AcDbEntity
  8
ANNOTATION_TEXT
 62
     7
100
AcDbBlockReference
  2
*U6
 10
91.97634919882097
 20
128.4904061762685
 30
0.0
  0
SOLID
  5
219
330
1F
100
AcDbEntity
  8
ANNOTATION_LINES
 62
     7
100
AcDbTrace
 10
83.96120130651025
 20
136.0486854983575
 30
0.0
 11
82.56779689463615
 21
138.1657672766743
 31
0.0
 12
84.57250326640357
 22
136.6150372956311
 32
0.0
 13
84.57250326640357
 23
136.6150372956311
 33
0.0
  0
LINE
  5
21A
330
1F
100
AcDbEntity
  8
ANNOTATION_LINES
 62
     7
100
AcDbLine
 10
82.56779689463615
 20
138.1657672766743
 30
2.625
 11
91.53171081606712
 21
128.4904061762685
 31
-2.625
  0
LINE
  5
21B
330
1F
100
AcDbEntity
  8
ANNOTATION_LINES
 62
     7
100
AcDbLine
 10
91.53171081606712
 20
128.4904061762685
 30
0.0
 11
110.0693300792935
 21
128.4904061762685
 31
0.0
  0
INSERT
  5
21C
102
{ACAD_REACTORS
102
}
102
{ACAD_XDICTIONARY
360
21D
102
}
330
1F
100
AcDbEntity
  8
ANNOTATION_TEXT
 62
     7
100
AcDbBlockReference
  2
*U7
 10
87.27785624117891
 20
249.9367550894759
 30
0.0
  0
SOLID
  5
235
330
1F
100
AcDbEntity
  8
ANNOTATION_LINES
 62
     7
100
AcDbTrace
 10
78.55449780189697
 20
256.0830738178389
 30
0.0
 11
76.82171403459174
 21
257.9326877037282
 31
0.0
 12
79.06070858827701
 22
256.7450368713373
 32
0.0
 13
79.06070858827701
 23
256.7450368713373
 33
0.0
  0
LINE
  5
236
330
1F
100
AcDbEntity
  8
ANNOTATION_LINES
 62
     7
100
AcDbLine
 10
76.82171403459174
 20
257.9326877037282
 30
7.241987298107809
 11
87.27785624117891
 21
249.9367550894759
 31
-7.241987298107809
  0
LINE
  5
237
330
1F
100
AcDbEntity
  8
ANNOTATION_LINES
 62
     7
100
AcDbLine
 10
87.27785624117891
 20
249.9367550894759
 30
0.0
 11
103.841821411976
 21
249.9367550894759
 31
0.0
  0
MTEXT
  5
23D
330
1F
100
AcDbEntity
  8
ANNOTATION_TEXT
 62
     7
100
AcDbMText
 10
97.81734076125662
 20
233.2209469780442
 30
0.0
 40
2.5
 41
0.0
 71
     8
 72
     1
  1
\A1;.5 X \A1;45.0
  7
ONSHAPE-STANDARD-DIMENSION
  0
LEADER
  5
23E
330
1F
100
AcDbEntity
  8
0
100
AcDbLeader
  3
ONSHAPE-ISO-25$7
 76
     2
 10
82.68864704199744
 20
227.2662825683863
 30
0.0
 10
88.14553901979647
 20
232.5959469780442
 30
0.0
1001
ACAD
1000
DSTYLE
1002
{
1070
     5
1000

1070
    41
1040
2.5
1070
   341
1005
0
1002
}
  0
LINE
  5
23F
330
1F
100
AcDbEntity
  8
ANNOTATION_LINES
 62
     0
100
AcDbLine
 10
88.14553901979647
 20
232.5959469780442
 30
0.0
 11
107.4891425027168
 21
232.5959469780442
 31
0.0
  0
DIMENSION
  5
240
102
{ACAD_REACTORS
330
264
102
}
102
{ACAD_XDICTIONARY
360
241
102
}
330
1F
100
AcDbEntity
  8
ANNOTATION_TEXT
100
AcDbDimension
  2
*D8
 10
126.7888361198236
 20
231.4264859203509
 30
0.0
 11
134.5233806610158
 21
231.4264859203509
 31
0.0
 70
   160
 52
-270.0
  3
ONSHAPE-CHAMFERDIMSTYLE
100
AcDbAlignedDimension
 13
127.3888361198236
 23
226.977052083845
 33
1.249999999999991
 14
126.7888361198236
 24
228.0162825683863
 34
1.249999999999991
 50
180.0
100
AcDbRotatedDimension
1001
ACAD
1000
DSTYLE
1002
{
1070
     4
1000
[]
1070
   144
1040
0.3333333333333333
1070
     3
1000

1070
   288
1070
     1
1002
}
1001
ACAD_DIMASSOC_CALC_DIMLFAC
1040
-0.3333333333333333
1001
ACAD_DIMASSOC_DIMLFAC
1040
-0.3333333333333333
1001
ACAD_DIMASSOC_OVERRIDDEN_D
1040
0.0
1001
ONSHAPE_CHAMFER_TEXT_JUSTI
1070
     5
1070
     0
  0
DIMENSION
  5
25F
102
{ACAD_REACTORS
102
}
102
{ACAD_XDICTIONARY
360
260
102
}
330
1F
100
AcDbEntity
  8
ANNOTATION_TEXT
100
AcDbDimension
  2
*D9
 10
125.2794855948236
 20
228.0162825683863
 30
0.0
 11
125.2794855948236
 21
236.1915169957138
 31
0.0
 70
   160
  3
ONSHAPE-CHAMFERDIMSTYLE
100
AcDbAlignedDimension
 13
127.3888361198236
 23
226.977052083845
 33
1.249999999999991
 14
126.7888361198236
 24
228.0162825683863
 34
1.249999999999991
 50
90.0
100
AcDbRotatedDimension
1001
ACAD
1000
DSTYLE
1002
{
1070
     4
1000
[]
1070
   144
1040
0.3333333333333333
1070
     3
1000

1070
   288
1070
     1
1002
}
1001
ACAD_DIMASSOC_CALC_DIMLFAC
1040
-0.3333333333333333
1001
ACAD_DIMASSOC_DIMLFAC
1040
-0.3333333333333333
1001
ACAD_DIMASSOC_OVERRIDDEN_D
1040
0.0
1001
ONSHAPE_CHAMFER_TEXT_JUSTI
1070
     5
1070
     0
  0
DIMENSION
  5
274
102
{ACAD_REACTORS
102
}
102
{ACAD_XDICTIONARY
360
275
102
}
330
1F
100
AcDbEntity
  8
ANNOTATION_TEXT
100
AcDbDimension
  2
*D10
 10
84.93864704199744
 20
145.4629519962324
 30
0.0
 11
94.34964838158217
 21
145.4629519962324
 31
0.0
 70
   160
  3
ONSHAPE-ISO-25$0
100
AcDbAlignedDimension
 13
81.03864704199745
 23
139.8162825683863
 33
5.249999999999998
 14
84.93864704199744
 24
145.4629519962324
 34
5.249999999999998
100
AcDbRotatedDimension
1001
ACAD
1000
DSTYLE
1002
{
1070
     4
1000
[]
1070
   144
1040
0.3333333333333333
1070
     3
1000

1070
   288
1070
     1
1002
}
1001
ACAD_DIMASSOC_CALC_DIMLFAC
1040
-0.3333333333333333
1001
ACAD_DIMASSOC_DIMLFAC
1040
-0.3333333333333333
1001
ACAD_DIMASSOC_OVERRIDDEN_D
1040
0.0
1001
ONSHAPE_DIMENSION_ON_CENTE
1070
     1
1013
0.0
1023
0.0
1033
0.0
1005
0
  0
DIMENSION
  5
28C
102
{ACAD_REACTORS
102
}
102
{ACAD_XDICTIONARY
360
28D
102
}
330
1F
100
AcDbEntity
  8
ANNOTATION_TEXT
100
AcDbDimension
  2
*D11
 10
70.68426096935696
 20
102.3162825683863
 30
0.0
 11
70.68426096935696
 21
121.0662825683863
 31
0.0
 70
   160
  3
ONSHAPE-ISO-25$0
100
AcDbAlignedDimension
 13
81.03864704199745
 23
139.8162825683863
 33
5.249999999999998
 14
70.68426096935697
 24
102.3162825683863
 34
5.249999999999998
 50
90.0
100
AcDbRotatedDimension
1001
ACAD
1000
DSTYLE
1002
{
1070
     4
1000
[]
1070
   144
1040
0.3333333333333333
1070
     3
1000

1070
   288
1070
     1
1002
}
1001
ACAD_DIMASSOC_CALC_DIMLFAC
1040
-0.3333333333333333
1001
ACAD_DIMASSOC_DIMLFAC
1040
-0.3333333333333333
1001
ACAD_DIMASSOC_OVERRIDDEN_D
1040
0.0
1001
ONSHAPE_DIMENSION_ON_CENTE
1070
     1
1013
0.0
1023
0.0
1033
0.0
1005
0
  0
LINE
  5
2A0
330
1F
100
AcDbEntity
  8
CENTERMARKS
  6
CONTINUOUS
100
AcDbLine
 10
73.18864704199746
 20
259.7550465346963
 30
0.0
 11
75.68864704199746
 21
259.7550465346963
 31
0.0
  0
LINE
  5
2A1
330
1F
100
AcDbEntity
  8
CENTERMARKS
  6
CONTINUOUS
100
AcDbLine
 10
74.43864704199746
 20
258.5050465346963
 30
0.0
 11
74.43864704199746
 21
261.0050465346963
 31
0.0
  0
LINE
  5
2A2
330
1F
100
AcDbEntity
  8
CENTERMARKS
  6
CENTER
100
AcDbLine
 10
71.93864704199746
 20
259.7550465346963
 30
0.0
 11
64.43864704199746
 21
259.7550465346963
 31
0.0
  0
LINE
  5
2A3
330
1F
100
AcDbEntity
  8
CENTERMARKS
  6
CENTER
100
AcDbLine
 10
76.93864704199746
 20
259.7550465346963
 30
0.0
 11
84.43864704199746
 21
259.7550465346963
 31
0.0
  0
LINE
  5
2A4
330
1F
100
AcDbEntity
  8
CENTERMARKS
  6
CENTER
100
AcDbLine
 10
74.43864704199746
 20
262.2550465346963
 30
0.0
 11
74.43864704199744
 21
269.7550465346963
 31
0.0
  0
LINE
  5
2A5
330
1F
100
AcDbEntity
  8
CENTERMARKS
  6
CENTER
100
AcDbLine
 10
74.43864704199746
 20
257.2550465346963
 30
0.0
 11
74.43864704199747
 21
249.7550465346963
 31
0.0
  0
LINE
  5
2A8
330
1F
100
AcDbEntity
  8
CENTERMARKS
  6
CONTINUOUS
100
AcDbLine
 10
73.18864704199746
 20
75.96303935224789
 30
0.0
 11
75.68864704199746
 21
75.96303935224789
 31
0.0
  0
LINE
  5
2A9
330
1F
100
AcDbEntity
  8
CENTERMARKS
  6
CONTINUOUS
100
AcDbLine
 10
74.43864704199746
 20
74.71303935224789
 30
0.0
 11
74.43864704199746
 21
77.21303935224789
 31
0.0
  0
LINE
  5
2AA
330
1F
100
AcDbEntity
  8
CENTERMARKS
  6
CENTER
100
AcDbLine
 10
71.93864704199746
 20
75.96303935224789
 30
0.0
 11
68.93864704199746
 21
75.96303935224789
 31
0.0
  0
LINE
  5
2AB
330
1F
100
AcDbEntity
  8
CENTERMARKS
  6
CENTER
100
AcDbLine
 10
76.93864704199746
 20
75.96303935224789
 30
0.0
 11
79.93864704199746
 21
75.96303935224789
 31
0.0
  0
LINE
  5
2AC
330
1F
100
AcDbEntity
  8
CENTERMARKS
  6
CENTER
100
AcDbLine
 10
74.43864704199746
 20
78.46303935224789
 30
0.0
 11
74.43864704199744
 21
81.46303935224789
 31
0.0
  0
LINE
  5
2AD
330
1F
100
AcDbEntity
  8
CENTERMARKS
  6
CENTER
100
AcDbLine
 10
74.43864704199746
 20
73.46303935224789
 30
0.0
 11
74.43864704199747
 21
70.46303935224789
 31
0.0
  0
DIMENSION
  5
2AE
102
{ACAD_REACTORS
102
}
102
{ACAD_XDICTIONARY
360
2AF
102
}
330
1F
100
AcDbEntity
  8
ANNOTATION_TEXT
100
AcDbDimension
  2
*D12
 10
63.93864704199744
 20
274.955012342947
 30
0.0
 11
74.43864704199744
 21
274.955012342947
 31
0.0
 70
   161
  3
ONSHAPE-ISO-25$0
100
AcDbAlignedDimension
 13
84.93864704199744
 23
270.2550465346963
 33
48.52320508075688
 14
63.93864704199744
 24
270.2550465346963
 34
48.52320508075688
1001
ACAD
1000
DSTYLE
1002
{
1070
     4
1000
[]
1070
   144
1040
0.3333333333333333
1070
     3
1000

1070
   288
1070
     1
1002
}
1001
ACAD_DIMASSOC_CALC_DIMLFAC
1040
-0.3333333333333333
1001
ACAD_DIMASSOC_DIMLFAC
1040
-0.3333333333333333
1001
ACAD_DIMASSOC_OVERRIDDEN_D
1040
0.0
  0
DIMENSION
  5
2C9
102
{ACAD_REACTORS
102
}
102
{ACAD_XDICTIONARY
360
2CA
102
}
330
1F
100
AcDbEntity
  8
ANNOTATION_TEXT
100
AcDbDimension
  2
*D13
 10
58.55610863390346
 20
249.2550465346963
 30
0.0
 11
58.55610863390346
 21
259.7550465346963
 31
0.0
 70
   161
  3
ONSHAPE-ISO-25$0
100
AcDbAlignedDimension
 13
63.93864704199744
 23
270.2550465346963
 33
48.52320508075688
 14
63.93864704199744
 24
249.2550465346963
 34
48.52320508075688
1001
ACAD
1000
DSTYLE
1002
{
1070
     4
1000
[]
1070
   144
1040
0.3333333333333333
1070
     3
1000

1070
   288
1070
     1
1002
}
1001
ACAD_DIMASSOC_CALC_DIMLFAC
1040
-0.3333333333333333
1001
ACAD_DIMASSOC_DIMLFAC
1040
-0.3333333333333333
1001
ACAD_DIMASSOC_OVERRIDDEN_D
1040
0.0
  0
ENDSEC
  0
SECTION
  2
OBJECTS
  0
DICTIONARY
  5
C
330
0
100
AcDbDictionary
  3
ACAD_FIELDLIST
350
15A
  3
ACAD_GROUP
350
D
  3
ACAD_LAYOUT
350
1A
  3
ACAD_MATERIAL
350
43
  3
ACAD_MLEADERSTYLE
350
6B
  3
ACAD_MLINESTYLE
350
17
  3
ACAD_PLOTSETTINGS
350
19
  3
ACAD_SCALELIST
350
47
  3
ACAD_VISUALSTYLE
350
2A
  3
ACDB_RECOMPOSE_DATA
350
374
  3
ACDBHEADERROUNDTRIPXREC
350
33A
  3
ACDBVARIABLEDICTIONARY
350
6E
  3
ONSHAPE_DATA
350
2DB
  0
DICTIONARY
  5
369
330
8
100
AcDbDictionary
280
     1
  3
ACAD_XREC_ROUNDTRIP
360
36A
  0
DICTIONARY
  5
114
330
113
100
AcDbDictionary
280
     1
  0
DICTIONARY
  5
361
330
125
100
AcDbDictionary
280
     1
  3
ACAD_MTEXT_RT
360
362
  0
DICTIONARY
  5
363
330
129
100
AcDbDictionary
280
     1
  3
ACAD_MTEXT_RT
360
364
  0
DICTIONARY
  5
135
330
134
100
AcDbDictionary
280
     1
  3
ACAD_MTEXT_RT
360
365
  0
DICTIONARY
  5
138
330
137
100
AcDbDictionary
280
     1
  0
DICTIONARY
  5
13F
330
13E
100
AcDbDictionary
280
     1
  3
ACAD_MTEXT_RT
360
366
  0
DICTIONARY
  5
142
330
141
100
AcDbDictionary
280
     1
  3
ACAD_MTEXT_RT
360
367
  0
DICTIONARY
  5
145
330
144
100
AcDbDictionary
280
     1
  3
ACAD_MTEXT_RT
360
368
  0
DICTIONARY
  5
14A
330
149
100
AcDbDictionary
280
     1
  0
DICTIONARY
  5
155
330
154
100
AcDbDictionary
280
     1
  3
ONSHAPE_VIEW_ID
360
156
  0
DICTIONARY
  5
164
330
163
100
AcDbDictionary
280
     1
  3
ONSHAPE_VIEW_ID
360
165
  0
DICTIONARY
  5
16B
330
16A
100
AcDbDictionary
280
     1
  3
ONSHAPE_VIEW_ID
360
16C
  0
DICTIONARY
  5
178
330
177
100
AcDbDictionary
280
     1
  3
ONSHAPE_VIEW_ID
360
179
  0
DICTIONARY
  5
189
330
188
100
AcDbDictionary
280
     1
  3
ONSHAPE_VIEW_ID
360
18A
  0
DICTIONARY
  5
193
330
192
100
AcDbDictionary
280
     1
  3
ACAD_BREAKDATA
360
198
  3
OS_DIM_DISPLAY_FLAG_DATA
360
194
  0
DICTIONARY
  5
1AF
330
1AE
100
AcDbDictionary
280
     1
  3
ACAD_BREAKDATA
360
1B5
  3
OS_DIM_DISPLAY_FLAG_DATA
360
1B0
  3
OS_DIM_TEXT_DATA
360
1B3
  3
OS_DIM_X_DATA
360
1B2
  0
DICTIONARY
  5
1C5
330
1C4
100
AcDbDictionary
280
     1
  3
ACAD_BREAKDATA
360
1CB
  3
OS_DIM_DISPLAY_FLAG_DATA
360
1C6
  3
OS_DIM_TEXT_DATA
360
1C9
  3
OS_DIM_X_DATA
360
1C8
  0
DICTIONARY
  5
1D9
330
1D8
100
AcDbDictionary
280
     1
  3
ACAD_BREAKDATA
360
1DF
  3
OS_DIM_DISPLAY_FLAG_DATA
360
1DA
  3
OS_DIM_TEXT_DATA
360
1DD
  3
OS_DIM_X_DATA
360
1DC
  0
DICTIONARY
  5
1EE
330
1ED
100
AcDbDictionary
280
     1
  3
ACAD_BREAKDATA
360
1F2
  3
OS_DIM_DISPLAY_FLAG_DATA
360
1EF
  0
DICTIONARY
  5
201
330
200
100
AcDbDictionary
280
     1
  3
OS_DIM_DISPLAY_FLAG_DATA
360
203
  3
OS_HOLECALLOUTDIM_DATA
360
202
  0
DICTIONARY
  5
21D
330
21C
100
AcDbDictionary
280
     1
  3
OS_DIM_DISPLAY_FLAG_DATA
360
21F
  3
OS_HOLECALLOUTDIM_DATA
360
21E
  0
DICTIONARY
  5
241
330
240
100
AcDbDictionary
280
     1
  3
ACAD_BREAKDATA
360
245
  3
OS_DIM_DISPLAY_FLAG_DATA
360
242
  0
DICTIONARY
  5
260
330
25F
100
AcDbDictionary
280
     1
  3
ACAD_BREAKDATA
360
264
  3
OS_DIM_DISPLAY_FLAG_DATA
360
261
  0
DICTIONARY
  5
275
330
274
100
AcDbDictionary
280
     1
  3
ACAD_BREAKDATA
360
27A
  3
OS_DIM_DISPLAY_FLAG_DATA
360
276
  0
DICTIONARY
  5
28D
330
28C
100
AcDbDictionary
280
     1
  3
ACAD_BREAKDATA
360
291
  3
OS_DIM_DISPLAY_FLAG_DATA
360
28E
  0
DICTIONARY
  5
2AF
330
2AE
100
AcDbDictionary
280
     1
  3
ACAD_BREAKDATA
360
2B3
  3
OS_DIM_DISPLAY_FLAG_DATA
360
2B0
  0
DICTIONARY
  5
2CA
330
2C9
100
AcDbDictionary
280
     1
  3
ACAD_BREAKDATA
360
2CE
  3
OS_DIM_DISPLAY_FLAG_DATA
360
2CB
  0
ACAD_PROXY_OBJECT
  5
15A
102
{ACAD_REACTORS
330
C
102
}
330
C
100
AcDbProxyObject
 90
      499
 91
      509
 93
       11
310
4180
330
117
330
118
330
13B
330
13C
330
14D
330
14E
 94
        0
  0
DICTIONARY
  5
D
102
{ACAD_REACTORS
330
C
102
}
330
C
100
AcDbDictionary
  0
DICTIONARY
  5
1A
102
{ACAD_REACTORS
330
C
102
}
330
C
100
AcDbDictionary
  0
DICTIONARY
  5
43
102
{ACAD_REACTORS
330
C
102
}
330
C
100
AcDbDictionary
  3
BYBLOCK
350
45
  3
BYLAYER
350
44
  3
GLOBAL
350
46
  0
DICTIONARY
  5
6B
102
{ACAD_REACTORS
330
C
102
}
330
C
100
AcDbDictionary
  3
STANDARD
350
6C
  0
DICTIONARY
  5
17
102
{ACAD_REACTORS
330
C
102
}
330
C
100
AcDbDictionary
  3
STANDARD
350
18
  0
DICTIONARY
  5
19
102
{ACAD_REACTORS
330
C
102
}
330
C
100
AcDbDictionary
  0
DICTIONARY
  5
47
102
{ACAD_REACTORS
330
C
102
}
330
C
100
AcDbDictionary
  3
A0
350
48
  3
A1
350
49
  3
A2
350
4A
  3
A3
350
4B
  3
A4
350
4C
  3
A5
350
4D
  3
A6
350
4E
  3
A7
350
4F
  3
A8
350
50
  3
A9
350
51
  3
B0
350
52
  3
B1
350
53
  3
B2
350
54
  3
B3
350
55
  3
B4
350
56
  3
B5
350
57
  3
B6
350
58
  3
B7
350
59
  3
B8
350
5A
  3
B9
350
5B
  3
C0
350
5C
  3
C1
350
5D
  3
C2
350
5E
  3
C3
350
5F
  3
C4
350
60
  3
C5
350
61
  3
C6
350
62
  3
C7
350
63
  3
C8
350
64
  3
C9
350
65
  3
D0
350
66
  3
D1
350
67
  3
D2
350
68
  0
DICTIONARY
  5
2A
102
{ACAD_REACTORS
330
C
102
}
330
C
100
AcDbDictionary
  3
2DWIREFRAME
350
2F
  3
BASIC
350
32
  3
BRIGHTEN
350
36
  3
COLORCHANGE
350
3A
  3
CONCEPTUAL
350
34
  3
DIM
350
35
  3
EDGECOLOROFF
350
3D
  3
FACEPATTERN
350
39
  3
FLAT
350
2B
  3
FLATWITHEDGES
350
2C
  3
GOURAUD
350
2D
  3
GOURAUDWITHEDGES
350
2E
  3
HIDDEN
350
31
  3
JITTEROFF
350
3B
  3
LINEPATTERN
350
38
  3
OVERHANGOFF
350
3C
  3
REALISTIC
350
33
  3
SHADED
350
42
  3
SHADED_WITH_EDGES
350
41
  3
SHADES_OF_GRAY
350
3E
  3
SKETCHY
350
3F
  3
THICKEN
350
37
  3
WIREFRAME
350
30
  3
X-RAY
350
40
  0
XRECORD
  5
374
102
{ACAD_REACTORS
330
C
102
}
330
C
100
AcDbXrecord
 90
        1
330
13E
330
125
330
129
330
134
330
141
330
144
  0
DICTIONARY
  5
33A
102
{ACAD_REACTORS
330
C
102
}
330
C
100
AcDbDictionary
  3
CEPSNID
350
344
  3
CEPSNTYPE
350
343
  3
DIMSTYLEDATA
350
35A
  3
FINGERPRINTGUID
350
345
  3
HYPERLINKBASE
350
33D
  3
INSUNITS
350
342
  3
LAYOUTDICT
350
33F
  3
LWETCUNION
350
341
  3
PLOTSETDICT
350
340
  3
PSVPSCALE
350
347
  3
PUCSBASE
350
34A
  3
PUCSORGBACK
350
350
  3
PUCSORGBOTTOM
350
34C
  3
PUCSORGFRONT
350
34F
  3
PUCSORGLEFT
350
34D
  3
PUCSORGRIGHT
350
34E
  3
PUCSORGTOP
350
34B
  3
PUCSORTHOREF
350
348
  3
PUCSORTHOVIEW
350
349
  3
STYLESHEET
350
33E
  3
TSTACKALIGN
350
33B
  3
TSTACKSIZE
350
33C
  3
UCSBASE
350
353
  3
UCSORGBACK
350
359
  3
UCSORGBOTTOM
350
355
  3
UCSORGFRONT
350
358
  3
UCSORGLEFT
350
356
  3
UCSORGRIGHT
350
357
  3
UCSORGTOP
350
354
  3
UCSORTHOREF
350
351
  3
UCSORTHOVIEW
350
352
  3
VERSIONGUID
350
346
  0
DICTIONARY
  5
6E
102
{ACAD_REACTORS
330
C
102
}
330
C
100
AcDbDictionary
  3
CANNOSCALE
350
36B
  3
CMLEADERSTYLE
350
35C
  3
CTABLESTYLE
350
35B
  3
DIMASSOC
350
35F
  3
HIDETEXT
350
360
  3
MSLTSCALE
350
36C
  3
OLEFRAME
350
6F
  0
DICTIONARY
  5
2DB
102
{ACAD_REACTORS
330
C
102
}
330
C
100
AcDbDictionary
280
     1
  3
DIM_UNITS
360
2DC
  3
ONSHAPE_ANG_TOL_PRECISION
360
2DF
  3
ONSHAPE_BREAK_DIMENSION_DEFAULT
360
2E5
  3
ONSHAPE_DIMENSION_TEXT_HOR
360
2E4
  3
ONSHAPE_FITCLASS_TOL_PRECISION
360
2E0
  3
ONSHAPE_JOGDIMENSION_LOCK_
360
2E2
  3
ONSHAPE_SHOWDIMENSIONSLINE
360
2E3
  3
ONSHAPE_UNDERLINEOVERRIDEN
360
2E1
  3
ONSHAPE_VSHARP_EXTENSION
360
2DE
  3
ONSHAPE_WELD_STANDARD
360
2DD
  0
XRECORD
  5
36A
102
{ACAD_REACTORS
330
369
102
}
330
369
100
AcDbXrecord
102
VTR_0.000_0.000_1.000_1.000_VISUALSTYLE
340
2F
102
VTR_0.000_0.000_1.000_1.000_GRIDDISPLAY
 70
     3
102
VTR_0.000_0.000_1.000_1.000_GRIDMAJOR
 70
     5
102
VTR_0.000_0.000_1.000_1.000_DEFAULTLIGHTING
280
     1
102
VTR_0.000_0.000_1.000_1.000_DEFAULTLIGHTINGTYPE
 70
     1
102
VTR_0.000_0.000_1.000_1.000_BRIGHTNESS
141
0.0
102
VTR_0.000_0.000_1.000_1.000_CONTRAST
142
0.0
  0
XRECORD
  5
362
102
{ACAD_REACTORS
330
361
102
}
330
361
100
AcDbXrecord
 40
9069.0
  1
{\pxqc; Brass/Copper}
  0
XRECORD
  5
364
102
{ACAD_REACTORS
330
363
102
}
330
363
100
AcDbXrecord
 40
53435.0
  1
{\pxqc; }
  0
XRECORD
  5
365
102
{ACAD_REACTORS
330
135
102
}
330
135
100
AcDbXrecord
 40
16865.0
  1
{\pxqc;Super Extender 35mm}
  0
XRECORD
  5
366
102
{ACAD_REACTORS
330
13F
102
}
330
13F
100
AcDbXrecord
 40
49.0
  1
{\pxqc;1}
  0
XRECORD
  5
367
102
{ACAD_REACTORS
330
142
102
}
330
142
100
AcDbXrecord
 40
50.0
  1
{\pxqc;2}
  0
XRECORD
  5
368
102
{ACAD_REACTORS
330
145
102
}
330
145
100
AcDbXrecord
 40
314.0
  1
{\pxqc;3:1}
  0
XRECORD
  5
156
102
{ACAD_REACTORS
330
155
102
}
330
155
100
AcDbXrecord
330
0
  0
XRECORD
  5
165
102
{ACAD_REACTORS
330
164
102
}
330
164
100
AcDbXrecord
330
0
  0
XRECORD
  5
16C
102
{ACAD_REACTORS
330
16B
102
}
330
16B
100
AcDbXrecord
330
0
  0
XRECORD
  5
179
102
{ACAD_REACTORS
330
178
102
}
330
178
100
AcDbXrecord
330
0
  0
XRECORD
  5
18A
102
{ACAD_REACTORS
330
189
102
}
330
189
100
AcDbXrecord
330
0
  0
BREAKDATA
  5
198
102
{ACAD_REACTORS
330
193
102
}
330
193
100
AcDbBreakData
 70
     0
330
192
 90
        0
  0
XRECORD
  5
194
102
{ACAD_REACTORS
330
193
102
}
330
193
100
AcDbXrecord
 90
        1
 90
        0
  0
BREAKDATA
  5
1B5
102
{ACAD_REACTORS
330
1AF
102
}
330
1AF
100
AcDbBreakData
 70
     0
330
1AE
 90
        1
100
AcDbBreakPointRef
 71
     0
 72
     0
 91
       -1
 10
0.0
 20
0.0
 30
0.0
 11
0.0
 21
0.0
 31
0.0
331
192
 73
     5
 92
        0
  0
XRECORD
  5
1B0
102
{ACAD_REACTORS
330
1AF
102
}
330
1AF
100
AcDbXrecord
 90
        1
 90
        0
  0
XRECORD
  5
1B3
102
{ACAD_REACTORS
330
1AF
102
}
330
1AF
100
AcDbXrecord
 90
        1
300

  0
ACAD_PROXY_OBJECT
  5
1B2
102
{ACAD_REACTORS
330
1AF
102
}
330
1AF
100
AcDbProxyObject
 90
      499
 91
      512
 93
      306
310
495680008000000B0040C0078D8B8E4B004000078B004000078B004000078B0040000788804000
  0
BREAKDATA
  5
1CB
102
{ACAD_REACTORS
330
1C5
102
}
330
1C5
100
AcDbBreakData
 70
     0
330
1C4
 90
        0
  0
XRECORD
  5
1C6
102
{ACAD_REACTORS
330
1C5
102
}
330
1C5
100
AcDbXrecord
 90
        1
 90
        0
  0
XRECORD
  5
1C9
102
{ACAD_REACTORS
330
1C5
102
}
330
1C5
100
AcDbXrecord
 90
        1
300

  0
ACAD_PROXY_OBJECT
  5
1C8
102
{ACAD_REACTORS
330
1C5
102
}
330
1C5
100
AcDbProxyObject
 90
      499
 91
      512
 93
      314
310
499680008000000B00410007934D9E0C4B004000078B004000078B004000078B0040000788804000
  0
BREAKDATA
  5
1DF
102
{ACAD_REACTORS
330
1D9
102
}
330
1D9
100
AcDbBreakData
 70
     0
330
1D8
 90
        0
  0
XRECORD
  5
1DA
102
{ACAD_REACTORS
330
1D9
102
}
330
1D9
100
AcDbXrecord
 90
        1
 90
        0
  0
XRECORD
  5
1DD
102
{ACAD_REACTORS
330
1D9
102
}
330
1D9
100
AcDbXrecord
 90
        1
300

  0
ACAD_PROXY_OBJECT
  5
1DC
102
{ACAD_REACTORS
330
1D9
102
}
330
1D9
100
AcDbProxyObject
 90
      499
 91
      512
 93
      314
310
499680008000000B00410007934D9E0C4B004000078B004000078B004000078B0040000788804000
  0
BREAKDATA
  5
1F2
102
{ACAD_REACTORS
330
1EE
102
}
330
1EE
100
AcDbBreakData
 70
     0
330
1ED
 90
        1
100
AcDbBreakPointRef
 71
     0
 72
     0
 91
       -1
 10
0.0
 20
0.0
 30
0.0
 11
0.0
 21
0.0
 31
0.0
331
1C4
 73
     5
 92
        0
  0
XRECORD
  5
1EF
102
{ACAD_REACTORS
330
1EE
102
}
330
1EE
100
AcDbXrecord
 90
        1
 90
        0
  0
XRECORD
  5
203
102
{ACAD_REACTORS
330
201
102
}
330
201
100
AcDbXrecord
 90
        1
 90
        0
  0
ACAD_PROXY_OBJECT
  5
202
102
{ACAD_REACTORS
330
201
102
}
330
201
100
AcDbProxyObject
 90
      499
 91
      512
 93
      754
310
57568000400000100040000000000000001680000000000880401680008000001680008000000A000000000000003C2FCA000000000000003C2FD6803FFFFFFFC880400880400B004000078B004080079A5B88804008804016803FFFFFFFC0
  0
XRECORD
  5
21F
102
{ACAD_REACTORS
330
21D
102
}
330
21D
100
AcDbXrecord
 90
        1
 90
        0
  0
ACAD_PROXY_OBJECT
  5
21E
102
{ACAD_REACTORS
330
21D
102
}
330
21D
100
AcDbProxyObject
 90
      499
 91
      512
 93
      754
310
575680004000001000400000000000000016801836DFE90880401680008000001680008000000A000000000000003C2FCA000000000000003C2FD6803FFFFFFFC880400880400B004000078B004080079A5B88804008804016803FFFFFFFC0
  0
BREAKDATA
  5
245
102
{ACAD_REACTORS
330
241
102
}
330
241
100
AcDbBreakData
 70
     0
330
240
 90
        0
  0
XRECORD
  5
242
102
{ACAD_REACTORS
330
241
102
}
330
241
100
AcDbXrecord
 90
        1
 90
        0
  0
BREAKDATA
  5
264
102
{ACAD_REACTORS
330
260
102
}
330
260
100
AcDbBreakData
 70
     0
330
25F
 90
        2
100
AcDbBreakPointRef
 71
     0
 72
     0
 91
       -1
 10
0.0
 20
0.0
 30
0.0
 11
0.0
 21
0.0
 31
0.0
331
240
 73
     5
 92
        0
100
AcDbBreakPointRef
 71
     0
 72
     0
 91
       -1
 10
0.0
 20
0.0
 30
0.0
 11
0.0
 21
0.0
 31
0.0
331
240
 73
     2
 92
        0
  0
XRECORD
  5
261
102
{ACAD_REACTORS
330
260
102
}
330
260
100
AcDbXrecord
 90
        1
 90
        0
  0
BREAKDATA
  5
27A
102
{ACAD_REACTORS
330
275
102
}
330
275
100
AcDbBreakData
 70
     0
330
274
 90
        0
  0
XRECORD
  5
276
102
{ACAD_REACTORS
330
275
102
}
330
275
100
AcDbXrecord
 90
        1
 90
        0
  0
BREAKDATA
  5
291
102
{ACAD_REACTORS
330
28D
102
}
330
28D
100
AcDbBreakData
 70
     0
330
28C
 90
        0
  0
XRECORD
  5
28E
102
{ACAD_REACTORS
330
28D
102
}
330
28D
100
AcDbXrecord
 90
        1
 90
        0
  0
BREAKDATA
  5
2B3
102
{ACAD_REACTORS
330
2AF
102
}
330
2AF
100
AcDbBreakData
 70
     0
330
2AE
 90
        0
  0
XRECORD
  5
2B0
102
{ACAD_REACTORS
330
2AF
102
}
330
2AF
100
AcDbXrecord
 90
        1
 90
        0
  0
BREAKDATA
  5
2CE
102
{ACAD_REACTORS
330
2CA
102
}
330
2CA
100
AcDbBreakData
 70
     0
330
2C9
 90
        0
  0
XRECORD
  5
2CB
102
{ACAD_REACTORS
330
2CA
102
}
330
2CA
100
AcDbXrecord
 90
        1
 90
        0
  0
MATERIAL
  5
45
102
{ACAD_REACTORS
330
43
102
}
102
{ACAD_XDICTIONARY
360
36F
102
}
330
43
100
AcDbMaterial
  1
BYBLOCK
  0
MATERIAL
  5
44
102
{ACAD_REACTORS
330
43
102
}
102
{ACAD_XDICTIONARY
360
36D
102
}
330
43
100
AcDbMaterial
  1
BYLAYER
  0
MATERIAL
  5
46
102
{ACAD_REACTORS
330
43
102
}
102
{ACAD_XDICTIONARY
360
371
102
}
330
43
100
AcDbMaterial
  1
GLOBAL
  0
ACAD_PROXY_OBJECT
  5
6C
102
{ACAD_REACTORS
330
6B
102
}
330
6B
100
AcDbProxyObject
 90
      499
 91
      505
 93
      610
310
40901902A4063FBFFFFFE056BD1B81E855B9FC0AD7A3703D0AD73F4214DD185B99185C9900AD7A3703D0AC73F90140501A02B5E8DC0F42B1CFC02B5E8DC0F42B1CFE5764000000000000300FC0
340
14
340
0
340
11
340
0
 94
        0
1001
ACAD_MLEADERVER
1070
     2
  0
MLINESTYLE
  5
18
102
{ACAD_REACTORS
330
17
102
}
330
17
100
AcDbMlineStyle
  2
Standard
 70
     0
  3

 62
   256
 51
90.0
 52
90.0
 71
     2
 49
0.5
 62
   256
  6
BYLAYER
 49
-0.5
 62
   256
  6
BYLAYER
  0
ACAD_PROXY_OBJECT
  5
48
102
{ACAD_REACTORS
330
47
102
}
330
47
100
AcDbProxyObject
 90
      499
 91
      503
 93
       41
310
903313A31580
  0
ACAD_PROXY_OBJECT
  5
49
102
{ACAD_REACTORS
330
47
102
}
330
47
100
AcDbProxyObject
 90
      499
 91
      503
 93
      105
310
903313A324000000000000004000
  0
ACAD_PROXY_OBJECT
  5
4A
102
{ACAD_REACTORS
330
47
102
}
330
47
100
AcDbProxyObject
 90
      499
 91
      503
 93
      105
310
903313A344000000000000104000
  0
ACAD_PROXY_OBJECT
  5
4B
102
{ACAD_REACTORS
330
47
102
}
330
47
100
AcDbProxyObject
 90
      499
 91
      503
 93
      105
310
903313A354000000000000144000
  0
ACAD_PROXY_OBJECT
  5
4C
102
{ACAD_REACTORS
330
47
102
}
330
47
100
AcDbProxyObject
 90
      499
 91
      503
 93
      105
310
903313A384000000000000204000
  0
ACAD_PROXY_OBJECT
  5
4D
102
{ACAD_REACTORS
330
47
102
}
330
47
100
AcDbProxyObject
 90
      499
 91
      503
 93
      113
310
904313A31304000000000000244000
  0
ACAD_PROXY_OBJECT
  5
4E
102
{ACAD_REACTORS
330
47
102
}
330
47
100
AcDbProxyObject
 90
      499
 91
      503
 93
      113
310
904313A31364000000000000304000
  0
ACAD_PROXY_OBJECT
  5
4F
102
{ACAD_REACTORS
330
47
102
}
330
47
100
AcDbProxyObject
 90
      499
 91
      503
 93
      113
310
904313A32304000000000000344000
  0
ACAD_PROXY_OBJECT
  5
50
102
{ACAD_REACTORS
330
47
102
}
330
47
100
AcDbProxyObject
 90
      499
 91
      503
 93
      113
310
904313A333040000000000003E4000
  0
ACAD_PROXY_OBJECT
  5
51
102
{ACAD_REACTORS
330
47
102
}
330
47
100
AcDbProxyObject
 90
      499
 91
      503
 93
      113
310
904313A34304000000000000444000
  0
ACAD_PROXY_OBJECT
  5
52
102
{ACAD_REACTORS
330
47
102
}
330
47
100
AcDbProxyObject
 90
      499
 91
      503
 93
      113
310
904313A35304000000000000494000
  0
ACAD_PROXY_OBJECT
  5
53
102
{ACAD_REACTORS
330
47
102
}
330
47
100
AcDbProxyObject
 90
      499
 91
      503
 93
      121
310
905313A3130304000000000000594000
  0
ACAD_PROXY_OBJECT
  5
54
102
{ACAD_REACTORS
330
47
102
}
330
47
100
AcDbProxyObject
 90
      499
 91
      503
 93
      105
310
903323A310000000000000010100
  0
ACAD_PROXY_OBJECT
  5
55
102
{ACAD_REACTORS
330
47
102
}
330
47
100
AcDbProxyObject
 90
      499
 91
      503
 93
      105
310
903343A310000000000000410100
  0
ACAD_PROXY_OBJECT
  5
56
102
{ACAD_REACTORS
330
47
102
}
330
47
100
AcDbProxyObject
 90
      499
 91
      503
 93
      105
310
903383A310000000000000810100
  0
ACAD_PROXY_OBJECT
  5
57
102
{ACAD_REACTORS
330
47
102
}
330
47
100
AcDbProxyObject
 90
      499
 91
      503
 93
      113
310
90431303A310000000000000910100
  0
ACAD_PROXY_OBJECT
  5
58
102
{ACAD_REACTORS
330
47
102
}
330
47
100
AcDbProxyObject
 90
      499
 91
      503
 93
      121
310
9053130303A310000000000001650100
  0
ACAD_PROXY_OBJECT
  5
59
102
{ACAD_REACTORS
330
47
102
}
330
47
100
AcDbProxyObject
 90
      499
 91
      503
 93
      257
310
90E312F31323822203D2031272D3022000000000000200FC000000000000284000
  0
ACAD_PROXY_OBJECT
  5
5A
102
{ACAD_REACTORS
330
47
102
}
330
47
100
AcDbProxyObject
 90
      499
 91
      503
 93
      249
310
90D312F363422203D2031272D3022000000000000240FC000000000000284000
  0
ACAD_PROXY_OBJECT
  5
5B
102
{ACAD_REACTORS
330
47
102
}
330
47
100
AcDbProxyObject
 90
      499
 91
      503
 93
      249
310
90D312F333222203D2031272D3022000000000000280FC000000000000284000
  0
ACAD_PROXY_OBJECT
  5
5C
102
{ACAD_REACTORS
330
47
102
}
330
47
100
AcDbProxyObject
 90
      499
 91
      503
 93
      249
310
90D312F313622203D2031272D30220000000000002C0FC000000000000284000
  0
ACAD_PROXY_OBJECT
  5
5D
102
{ACAD_REACTORS
330
47
102
}
330
47
100
AcDbProxyObject
 90
      499
 91
      503
 93
      249
310
90D332F333222203D2031272D30220000000000002E0FC000000000000284000
  0
ACAD_PROXY_OBJECT
  5
5E
102
{ACAD_REACTORS
330
47
102
}
330
47
100
AcDbProxyObject
 90
      499
 91
      503
 93
      241
310
90C312F3822203D2031272D3022000000000000300FC000000000000284000
  0
ACAD_PROXY_OBJECT
  5
5F
102
{ACAD_REACTORS
330
47
102
}
330
47
100
AcDbProxyObject
 90
      499
 91
      503
 93
      249
310
90D332F313622203D2031272D3022000000000000320FC000000000000284000
  0
ACAD_PROXY_OBJECT
  5
60
102
{ACAD_REACTORS
330
47
102
}
330
47
100
AcDbProxyObject
 90
      499
 91
      503
 93
      241
310
90C312F3422203D2031272D3022000000000000340FC000000000000284000
  0
ACAD_PROXY_OBJECT
  5
61
102
{ACAD_REACTORS
330
47
102
}
330
47
100
AcDbProxyObject
 90
      499
 91
      503
 93
      241
310
90C332F3822203D2031272D3022000000000000360FC000000000000284000
  0
ACAD_PROXY_OBJECT
  5
62
102
{ACAD_REACTORS
330
47
102
}
330
47
100
AcDbProxyObject
 90
      499
 91
      503
 93
      241
310
90C312F3222203D2031272D3022000000000000380FC000000000000284000
  0
ACAD_PROXY_OBJECT
  5
63
102
{ACAD_REACTORS
330
47
102
}
330
47
100
AcDbProxyObject
 90
      499
 91
      503
 93
      241
310
90C332F3422203D2031272D30220000000000003A0FC000000000000284000
  0
ACAD_PROXY_OBJECT
  5
64
102
{ACAD_REACTORS
330
47
102
}
330
47
100
AcDbProxyObject
 90
      499
 91
      503
 93
      161
310
90A3122203D2031272D30224000000000000284000
  0
ACAD_PROXY_OBJECT
  5
65
102
{ACAD_REACTORS
330
47
102
}
330
47
100
AcDbProxyObject
 90
      499
 91
      503
 93
      257
310
90E312D312F3222203D2031272D30220000000000003E0FC000000000000284000
  0
ACAD_PROXY_OBJECT
  5
66
102
{ACAD_REACTORS
330
47
102
}
330
47
100
AcDbProxyObject
 90
      499
 91
      503
 93
      225
310
90A3322203D2031272D302200000000000002100000000000000284000
  0
ACAD_PROXY_OBJECT
  5
67
102
{ACAD_REACTORS
330
47
102
}
330
47
100
AcDbProxyObject
 90
      499
 91
      503
 93
      225
310
90A3622203D2031272D302200000000000006100000000000000284000
  0
ACAD_PROXY_OBJECT
  5
68
102
{ACAD_REACTORS
330
47
102
}
330
47
100
AcDbProxyObject
 90
      499
 91
      503
 93
      249
310
90D31272D3022203D2031272D30220000000000000A100000000000000284000
  0
ACAD_PROXY_OBJECT
  5
2F
102
{ACAD_REACTORS
330
2A
102
}
330
2A
100
AcDbProxyObject
 90
      499
 91
      501
 93
      436
310
42CC9915DA5C99599C985B595049028333333333333E33F0000000000000F90107901411070040501600405405064090741402480A0340
1001
ACAD
1000
AcDbSavedByObjectVersion
1070
     0
  0
ACAD_PROXY_OBJECT
  5
32
102
{ACAD_REACTORS
330
2A
102
}
330
2A
100
AcDbProxyObject
 90
      499
 91
      501
 93
      388
310
4150985CDA58D07406404333333333333E33F0000000000000F90107A41107004050150841D405064090741402480A0350
1001
ACAD
1000
AcDbSavedByObjectVersion
1070
     0
  0
ACAD_PROXY_OBJECT
  5
36
102
{ACAD_REACTORS
330
2A
102
}
330
2A
100
AcDbProxyObject
 90
      499
 91
      501
 93
      428
310
42109C9A59DA1D195B90C409028333333333333E33F0000000000000F9010790141107004050150841D405064090741402480A029950
1001
ACAD
1000
AcDbSavedByObjectVersion
1070
     0
  0
ACAD_PROXY_OBJECT
  5
3A
102
{ACAD_REACTORS
330
2A
102
}
330
2A
100
AcDbProxyObject
 90
      499
 91
      501
 93
      452
310
42D0DBDB1BDC90DA185B99D95104090240C333333333333E33F0000000000000F90108901411070040501508421405064090741402480A0350
1001
ACAD
1000
AcDbSavedByObjectVersion
1070
     0
  0
ACAD_PROXY_OBJECT
  5
34
102
{ACAD_REACTORS
330
2A
102
}
330
2A
100
AcDbProxyObject
 90
      499
 91
      501
 93
      500
310
4290DBDB98D95C1D1D585B10940D028333333333333E33F0000000000000F90107902409070040501000000000018199010841D405064090740C02480A0340
1001
ACAD
1000
AcDbSavedByObjectVersion
1070
     0
  0
ACAD_PROXY_OBJECT
  5
35
102
{ACAD_REACTORS
330
2A
102
}
330
2A
100
AcDbProxyObject
 90
      499
 91
      501
 93
      412
310
40D11A5B50B409028333333333333E33F0000000000000F9010790141107004050150841D405064090741402480A02677FFFFFD0
1001
ACAD
1000
AcDbSavedByObjectVersion
1070
     0
  0
ACAD_PROXY_OBJECT
  5
3D
102
{ACAD_REACTORS
330
2A
102
}
330
2A
100
AcDbProxyObject
 90
      499
 91
      501
 93
      452
310
43115919D950DBDB1BDC93D999916409028333333333333E33F0000000000000F9010790141107004050150841D405064090741402480A0350
1001
ACAD
1000
AcDbSavedByObjectVersion
1070
     0
  0
ACAD_PROXY_OBJECT
  5
39
102
{ACAD_REACTORS
330
2A
102
}
330
2A
100
AcDbProxyObject
 90
      499
 91
      501
 93
      444
310
42D19858D95C185D1D195C9B90F409028333333333333E33F0000000000000F9010790141107004050150841D405064090741402480A0350
1001
ACAD
1000
AcDbSavedByObjectVersion
1070
     0
  0
ACAD_PROXY_OBJECT
  5
2B
102
{ACAD_REACTORS
330
2A
102
}
330
2A
100
AcDbProxyObject
 90
      499
 91
      501
 93
      380
310
41119B185D240901404333333333333E33F0000000000000F9010740A907004050150841D405064090741402480A1B50
1001
ACAD
1000
AcDbSavedByObjectVersion
1070
     0
  0
ACAD_PROXY_OBJECT
  5
2C
102
{ACAD_REACTORS
330
2A
102
}
330
2A
100
AcDbProxyObject
 90
      499
 91
      501
 93
      468
310
43519B185D15DA5D1A115919D95CD0140901404333333333333E33F0000000000000F90107409019070040501600405405064090741402480A1B50
1001
ACAD
1000
AcDbSavedByObjectVersion
1070
     0
  0
ACAD_PROXY_OBJECT
  5
2D
102
{ACAD_REACTORS
330
2A
102
}
330
2A
100
AcDbProxyObject
 90
      499
 91
      501
 93
      404
310
41D1DBDD5C985D5910240902404333333333333E33F0000000000000F9010740A9070040501641D405064090741402480A1B50
1001
ACAD
1000
AcDbSavedByObjectVersion
1070
     0
  0
ACAD_PROXY_OBJECT
  5
2E
102
{ACAD_REACTORS
330
2A
102
}
330
2A
100
AcDbProxyObject
 90
      499
 91
      501
 93
      492
310
4411DBDD5C985D5915DA5D1A115919D95CD0340902404333333333333E33F0000000000000F90107409019070040501600405405064090741402480A1B50
1001
ACAD
1000
AcDbSavedByObjectVersion
1070
     0
  0
ACAD_PROXY_OBJECT
  5
31
102
{ACAD_REACTORS
330
2A
102
}
330
2A
100
AcDbProxyObject
 90
      499
 91
      501
 93
      476
310
41921A5919195B90640502408333333333333E33F0000000000000F901079024090700405020000000000001110200405405064090740C02480A0340
1001
ACAD
1000
AcDbSavedByObjectVersion
1070
     0
  0
ACAD_PROXY_OBJECT
  5
3B
102
{ACAD_REACTORS
330
2A
102
}
330
2A
100
AcDbProxyObject
 90
      499
 91
      501
 93
      428
310
42529A5D1D195C93D999914409028333333333333E33F0000000000000F9010790141107004050150A41D405064090741402480A0350
1001
ACAD
1000
AcDbSavedByObjectVersion
1070
     0
  0
ACAD_PROXY_OBJECT
  5
38
102
{ACAD_REACTORS
330
2A
102
}
330
2A
100
AcDbProxyObject
 90
      499
 91
      501
 93
      444
310
42D31A5B995C185D1D195C9B90E409028333333333333E33F0000000000000F9010790141107004050750841D405064090741402483A0350
1001
ACAD
1000
AcDbSavedByObjectVersion
1070
     0
  0
ACAD_PROXY_OBJECT
  5
3C
102
{ACAD_REACTORS
330
2A
102
}
330
2A
100
AcDbProxyObject
 90
      499
 91
      501
 93
      444
310
42D3DD995C9A185B99D3D999915409028333333333333E33F0000000000000F9010790141107004050150941D405064090741402480A0350
1001
ACAD
1000
AcDbSavedByObjectVersion
1070
     0
  0
ACAD_PROXY_OBJECT
  5
33
102
{ACAD_REACTORS
330
2A
102
}
330
2A
100
AcDbProxyObject
 90
      499
 91
      501
 93
      428
310
425499585B1A5CDD1A58D08409038333333333333E33F0000000000000F9010740A907004050150800405405064090740C02480A1B40
1001
ACAD
1000
AcDbSavedByObjectVersion
1070
     0
  0
ACAD_PROXY_OBJECT
  5
42
102
{ACAD_REACTORS
330
2A
102
}
330
2A
100
AcDbProxyObject
 90
      499
 91
      501
 93
      420
310
4194DA1859195911B40902404333333333333E33F0000000000000F9010740A41107004050150800405405064090840C02480A0B40
1001
ACAD
1000
AcDbSavedByObjectVersion
1070
     0
  0
ACAD_PROXY_OBJECT
  5
41
102
{ACAD_REACTORS
330
2A
102
}
330
2A
100
AcDbProxyObject
 90
      499
 91
      501
 93
      516
310
4454DA18591959081DDA5D1A08195919D95CD1A40902404333333333333E33F0000000000000F901074090142907004050250800405405064090740C02480A0B40
1001
ACAD
1000
AcDbSavedByObjectVersion
1070
     0
  0
ACAD_PROXY_OBJECT
  5
3E
102
{ACAD_REACTORS
330
2A
102
}
330
2A
100
AcDbProxyObject
 90
      499
 91
      501
 93
      532
310
4394DA1859195CC81BD98811DC985E5174090240C333333333333E33F0000000000000F901079024090741D01000000000000111010841D405064090740C02480A0340
1001
ACAD
1000
AcDbSavedByObjectVersion
1070
     0
  0
ACAD_PROXY_OBJECT
  5
3F
102
{ACAD_REACTORS
330
2A
102
}
330
2A
100
AcDbProxyObject
 90
      499
 91
      501
 93
      476
310
41D4DAD95D18DA1E51840502408333333333333E33F0000000000000F901079024090741D01000000000000111010B41D405064090741802480A0340
1001
ACAD
1000
AcDbSavedByObjectVersion
1070
     0
  0
ACAD_PROXY_OBJECT
  5
37
102
{ACAD_REACTORS
330
2A
102
}
330
2A
100
AcDbProxyObject
 90
      499
 91
      501
 93
      412
310
41D51A1A58DAD95B90D409028333333333333E33F0000000000000F9010790141107004050150C41D405064090741402480A0350
1001
ACAD
1000
AcDbSavedByObjectVersion
1070
     0
  0
ACAD_PROXY_OBJECT
  5
30
102
{ACAD_REACTORS
330
2A
102
}
330
2A
100
AcDbProxyObject
 90
      499
 91
      501
 93
      420
310
4255DA5C99599C985B595059028333333333333E33F0000000000000F90107901411070040501600405405064090740C02480A0340
1001
ACAD
1000
AcDbSavedByObjectVersion
1070
     0
  0
ACAD_PROXY_OBJECT
  5
40
102
{ACAD_REACTORS
330
2A
102
}
330
2A
100
AcDbProxyObject
 90
      499
 91
      501
 93
      404
310
41560B54985E51940902404000000000000E03F0000000000000F9010740501907004050150841D405064090740C02480A1B40
1001
ACAD
1000
AcDbSavedByObjectVersion
1070
     0
  0
XRECORD
  5
344
102
{ACAD_REACTORS
330
33A
102
}
330
33A
100
AcDbXrecord
340
0
  0
XRECORD
  5
343
102
{ACAD_REACTORS
330
33A
102
}
330
33A
100
AcDbXrecord
 90
        0
  0
XRECORD
  5
35A
102
{ACAD_REACTORS
330
33A
102
}
330
33A
100
AcDbXrecord
1000
DSTYLE
1002
{
1070
   171
 70
     3
1070
   143
 40
0.03937
1070
   274
 70
     3
1070
   286
 70
     8
1070
   285
 70
    12
1070
    41
 40
2.5
1070
   141
 40
2.5
1070
   176
 70
     7
1070
   177
 70
     7
1070
   178
 70
     7
1070
   271
 70
     2
1070
    43
 40
3.75
1070
    44
 40
1.25
1070
    42
 40
0.625
1070
   147
 40
0.625
1070
   144
 40
0.3333333333333333
1070
   371
 70
    13
1070
   372
 70
    13
1070
    77
 70
     1
1070
   272
 70
     2
1070
    73
 70
     0
1070
   172
 70
     1
1070
    74
 70
     0
1070
   283
 70
     0
1070
   340
340
73
1070
   140
 40
2.5
1070
   284
 70
     8
1070
   288
 70
     1
1070
    78
 70
    12
1002
}
  0
XRECORD
  5
345
102
{ACAD_REACTORS
330
33A
102
}
330
33A
100
AcDbXrecord
  1
{b8393535-7666-6174-e270-7730b7797675}
  0
XRECORD
  5
33D
102
{ACAD_REACTORS
330
33A
102
}
330
33A
100
AcDbXrecord
  1

  0
XRECORD
  5
342
102
{ACAD_REACTORS
330
33A
102
}
330
33A
100
AcDbXrecord
 90
        0
  0
XRECORD
  5
33F
102
{ACAD_REACTORS
330
33A
102
}
330
33A
100
AcDbXrecord
340
1A
  0
XRECORD
  5
341
102
{ACAD_REACTORS
330
33A
102
}
330
33A
100
AcDbXrecord
 90
    10269
  0
XRECORD
  5
340
102
{ACAD_REACTORS
330
33A
102
}
330
33A
100
AcDbXrecord
340
19
  0
XRECORD
  5
347
102
{ACAD_REACTORS
330
33A
102
}
330
33A
100
AcDbXrecord
 40
0.0
  0
XRECORD
  5
34A
102
{ACAD_REACTORS
330
33A
102
}
330
33A
100
AcDbXrecord
340
0
  0
XRECORD
  5
350
102
{ACAD_REACTORS
330
33A
102
}
330
33A
100
AcDbXrecord
 10
0.0
 20
0.0
 30
0.0
  0
XRECORD
  5
34C
102
{ACAD_REACTORS
330
33A
102
}
330
33A
100
AcDbXrecord
 10
0.0
 20
0.0
 30
0.0
  0
XRECORD
  5
34F
102
{ACAD_REACTORS
330
33A
102
}
330
33A
100
AcDbXrecord
 10
0.0
 20
0.0
 30
0.0
  0
XRECORD
  5
34D
102
{ACAD_REACTORS
330
33A
102
}
330
33A
100
AcDbXrecord
 10
0.0
 20
0.0
 30
0.0
  0
XRECORD
  5
34E
102
{ACAD_REACTORS
330
33A
102
}
330
33A
100
AcDbXrecord
 10
0.0
 20
0.0
 30
0.0
  0
XRECORD
  5
34B
102
{ACAD_REACTORS
330
33A
102
}
330
33A
100
AcDbXrecord
 10
0.0
 20
0.0
 30
0.0
  0
XRECORD
  5
348
102
{ACAD_REACTORS
330
33A
102
}
330
33A
100
AcDbXrecord
340
0
  0
XRECORD
  5
349
102
{ACAD_REACTORS
330
33A
102
}
330
33A
100
AcDbXrecord
 70
     0
  0
XRECORD
  5
33E
102
{ACAD_REACTORS
330
33A
102
}
330
33A
100
AcDbXrecord
  1

  0
XRECORD
  5
33B
102
{ACAD_REACTORS
330
33A
102
}
330
33A
100
AcDbXrecord
 90
        1
  0
XRECORD
  5
33C
102
{ACAD_REACTORS
330
33A
102
}
330
33A
100
AcDbXrecord
 90
       70
  0
XRECORD
  5
353
102
{ACAD_REACTORS
330
33A
102
}
330
33A
100
AcDbXrecord
340
0
  0
XRECORD
  5
359
102
{ACAD_REACTORS
330
33A
102
}
330
33A
100
AcDbXrecord
 10
0.0
 20
0.0
 30
0.0
  0
XRECORD
  5
355
102
{ACAD_REACTORS
330
33A
102
}
330
33A
100
AcDbXrecord
 10
0.0
 20
0.0
 30
0.0
  0
XRECORD
  5
358
102
{ACAD_REACTORS
330
33A
102
}
330
33A
100
AcDbXrecord
 10
0.0
 20
0.0
 30
0.0
  0
XRECORD
  5
356
102
{ACAD_REACTORS
330
33A
102
}
330
33A
100
AcDbXrecord
 10
0.0
 20
0.0
 30
0.0
  0
XRECORD
  5
357
102
{ACAD_REACTORS
330
33A
102
}
330
33A
100
AcDbXrecord
 10
0.0
 20
0.0
 30
0.0
  0
XRECORD
  5
354
102
{ACAD_REACTORS
330
33A
102
}
330
33A
100
AcDbXrecord
 10
0.0
 20
0.0
 30
0.0
  0
XRECORD
  5
351
102
{ACAD_REACTORS
330
33A
102
}
330
33A
100
AcDbXrecord
340
0
  0
XRECORD
  5
352
102
{ACAD_REACTORS
330
33A
102
}
330
33A
100
AcDbXrecord
 70
     0
  0
XRECORD
  5
346
102
{ACAD_REACTORS
330
33A
102
}
330
33A
100
AcDbXrecord
  1
{FAEB1C32-E019-11D5-929B-00C0DF256EC4}
  0
DICTIONARYVAR
  5
36B
102
{ACAD_REACTORS
330
6E
102
}
330
6E
100
DictionaryVariables
280
     0
  1
1:1
  0
DICTIONARYVAR
  5
35C
102
{ACAD_REACTORS
330
6E
102
}
330
6E
100
DictionaryVariables
280
     0
  1
Standard
  0
DICTIONARYVAR
  5
35B
102
{ACAD_REACTORS
330
6E
102
}
330
6E
100
DictionaryVariables
280
     0
  1
Onshape-Standard
  0
DICTIONARYVAR
  5
35F
102
{ACAD_REACTORS
330
6E
102
}
330
6E
100
DictionaryVariables
280
     0
  1
2
  0
DICTIONARYVAR
  5
360
102
{ACAD_REACTORS
330
6E
102
}
330
6E
100
DictionaryVariables
280
     0
  1
1
  0
DICTIONARYVAR
  5
36C
102
{ACAD_REACTORS
330
6E
102
}
330
6E
100
DictionaryVariables
280
     0
  1
1
  0
DICTIONARYVAR
  5
6F
102
{ACAD_REACTORS
330
6E
102
}
330
6E
100
DictionaryVariables
280
     0
  1
0
  0
XRECORD
  5
2DC
102
{ACAD_REACTORS
330
2DB
102
}
330
2DB
100
AcDbXrecord
 70
     0
  0
XRECORD
  5
2DF
102
{ACAD_REACTORS
330
2DB
102
}
330
2DB
100
AcDbXrecord
 90
        0
  0
ACAD_PROXY_OBJECT
  5
2E5
102
{ACAD_REACTORS
330
2DB
102
}
330
2DB
100
AcDbProxyObject
 90
      499
 91
      512
 93
       34
310
40C8804040
  0
XRECORD
  5
2E4
102
{ACAD_REACTORS
330
2DB
102
}
330
2DB
100
AcDbXrecord
 90
        5
  0
XRECORD
  5
2E0
102
{ACAD_REACTORS
330
2DB
102
}
330
2DB
100
AcDbXrecord
 90
        0
  0
XRECORD
  5
2E2
102
{ACAD_REACTORS
330
2DB
102
}
330
2DB
100
AcDbXrecord
 90
        0
  0
ACAD_PROXY_OBJECT
  5
2E3
102
{ACAD_REACTORS
330
2DB
102
}
330
2DB
100
AcDbProxyObject
 90
      499
 91
      512
 93
       34
310
40C8804040
  0
ACAD_PROXY_OBJECT
  5
2E1
102
{ACAD_REACTORS
330
2DB
102
}
330
2DB
100
AcDbProxyObject
 90
      499
 91
      512
 93
       34
310
40C8804040
  0
XRECORD
  5
2DE
102
{ACAD_REACTORS
330
2DB
102
}
330
2DB
100
AcDbXrecord
 90
        0
  0
XRECORD
  5
2DD
102
{ACAD_REACTORS
330
2DB
102
}
330
2DB
100
AcDbXrecord
 90
        1
  0
DICTIONARY
  5
36F
330
45
100
AcDbDictionary
280
     1
  3
ACAD_XREC_ROUNDTRIP
360
370
  0
DICTIONARY
  5
36D
330
44
100
AcDbDictionary
280
     1
  3
ACAD_XREC_ROUNDTRIP
360
36E
  0
DICTIONARY
  5
371
330
46
100
AcDbDictionary
280
     1
  3
ACAD_XREC_ROUNDTRIP
360
372
  0
XRECORD
  5
370
102
{ACAD_REACTORS
330
36F
102
}
330
36F
100
AcDbXrecord
102
MATERIAL
148
0.0
149
0.0
149
0.0
 93
        0
 94
      127
282
     0
 72
     1
 77
     1
171
     1
175
     1
179
     1
273
     0
  0
XRECORD
  5
36E
102
{ACAD_REACTORS
330
36D
102
}
330
36D
100
AcDbXrecord
102
MATERIAL
148
0.0
149
0.0
149
0.0
 93
        0
 94
      127
282
     0
 72
     1
 77
     1
171
     1
175
     1
179
     1
273
     0
  0
XRECORD
  5
372
102
{ACAD_REACTORS
330
371
102
}
330
371
100
AcDbXrecord
102
MATERIAL
148
0.0
149
0.0
149
0.0
 93
        0
 94
      127
282
     0
 72
     1
 77
     1
171
     1
175
     1
179
     1
273
     0
  0
ENDSEC
  0
EOF
