%TF.GenerationSoftware,KiCad,Pcbnew,9.0.1*%
%TF.CreationDate,2025-09-29T15:26:36+08:00*%
%TF.ProjectId,custom_heater,63757374-6f6d-45f6-9865-617465722e6b,3*%
%TF.SameCoordinates,Original*%
%TF.FileFunction,Legend,Top*%
%TF.FilePolarity,Positive*%
%FSLAX46Y46*%
G04 Gerber Fmt 4.6, Leading zero omitted, Abs format (unit mm)*
G04 Created by KiCad (PCBNEW 9.0.1) date 2025-09-29 15:26:36*
%MOMM*%
%LPD*%
G01*
G04 APERTURE LIST*
%ADD10C,0.400000*%
%ADD11C,0.150000*%
%ADD12C,0.120000*%
G04 APERTURE END LIST*
D10*
X149542857Y-153467057D02*
X148542857Y-152038485D01*
X147828571Y-153467057D02*
X147828571Y-150467057D01*
X147828571Y-150467057D02*
X148971428Y-150467057D01*
X148971428Y-150467057D02*
X149257143Y-150609914D01*
X149257143Y-150609914D02*
X149400000Y-150752771D01*
X149400000Y-150752771D02*
X149542857Y-151038485D01*
X149542857Y-151038485D02*
X149542857Y-151467057D01*
X149542857Y-151467057D02*
X149400000Y-151752771D01*
X149400000Y-151752771D02*
X149257143Y-151895628D01*
X149257143Y-151895628D02*
X148971428Y-152038485D01*
X148971428Y-152038485D02*
X147828571Y-152038485D01*
X150828571Y-151895628D02*
X151828571Y-151895628D01*
X152257143Y-153467057D02*
X150828571Y-153467057D01*
X150828571Y-153467057D02*
X150828571Y-150467057D01*
X150828571Y-150467057D02*
X152257143Y-150467057D01*
X153114286Y-150467057D02*
X154114286Y-153467057D01*
X154114286Y-153467057D02*
X155114286Y-150467057D01*
X156114286Y-153181342D02*
X156257143Y-153324200D01*
X156257143Y-153324200D02*
X156114286Y-153467057D01*
X156114286Y-153467057D02*
X155971429Y-153324200D01*
X155971429Y-153324200D02*
X156114286Y-153181342D01*
X156114286Y-153181342D02*
X156114286Y-153467057D01*
X158828572Y-151467057D02*
X158828572Y-153467057D01*
X158114286Y-150324200D02*
X157400000Y-152467057D01*
X157400000Y-152467057D02*
X159257143Y-152467057D01*
G36*
X149400000Y-79100000D02*
G01*
X157400000Y-79100000D01*
X157400000Y-87100000D01*
X149400000Y-87100000D01*
X149400000Y-79100000D01*
G37*
D11*
X152681009Y-104242857D02*
X152728628Y-104100000D01*
X152728628Y-104100000D02*
X152776247Y-104052381D01*
X152776247Y-104052381D02*
X152871485Y-104004762D01*
X152871485Y-104004762D02*
X153014342Y-104004762D01*
X153014342Y-104004762D02*
X153109580Y-104052381D01*
X153109580Y-104052381D02*
X153157200Y-104100000D01*
X153157200Y-104100000D02*
X153204819Y-104195238D01*
X153204819Y-104195238D02*
X153204819Y-104576190D01*
X153204819Y-104576190D02*
X152204819Y-104576190D01*
X152204819Y-104576190D02*
X152204819Y-104242857D01*
X152204819Y-104242857D02*
X152252438Y-104147619D01*
X152252438Y-104147619D02*
X152300057Y-104100000D01*
X152300057Y-104100000D02*
X152395295Y-104052381D01*
X152395295Y-104052381D02*
X152490533Y-104052381D01*
X152490533Y-104052381D02*
X152585771Y-104100000D01*
X152585771Y-104100000D02*
X152633390Y-104147619D01*
X152633390Y-104147619D02*
X152681009Y-104242857D01*
X152681009Y-104242857D02*
X152681009Y-104576190D01*
X152204819Y-103671428D02*
X152204819Y-103052381D01*
X152204819Y-103052381D02*
X152585771Y-103385714D01*
X152585771Y-103385714D02*
X152585771Y-103242857D01*
X152585771Y-103242857D02*
X152633390Y-103147619D01*
X152633390Y-103147619D02*
X152681009Y-103100000D01*
X152681009Y-103100000D02*
X152776247Y-103052381D01*
X152776247Y-103052381D02*
X153014342Y-103052381D01*
X153014342Y-103052381D02*
X153109580Y-103100000D01*
X153109580Y-103100000D02*
X153157200Y-103147619D01*
X153157200Y-103147619D02*
X153204819Y-103242857D01*
X153204819Y-103242857D02*
X153204819Y-103528571D01*
X153204819Y-103528571D02*
X153157200Y-103623809D01*
X153157200Y-103623809D02*
X153109580Y-103671428D01*
X153204819Y-102576190D02*
X153204819Y-102385714D01*
X153204819Y-102385714D02*
X153157200Y-102290476D01*
X153157200Y-102290476D02*
X153109580Y-102242857D01*
X153109580Y-102242857D02*
X152966723Y-102147619D01*
X152966723Y-102147619D02*
X152776247Y-102100000D01*
X152776247Y-102100000D02*
X152395295Y-102100000D01*
X152395295Y-102100000D02*
X152300057Y-102147619D01*
X152300057Y-102147619D02*
X152252438Y-102195238D01*
X152252438Y-102195238D02*
X152204819Y-102290476D01*
X152204819Y-102290476D02*
X152204819Y-102480952D01*
X152204819Y-102480952D02*
X152252438Y-102576190D01*
X152252438Y-102576190D02*
X152300057Y-102623809D01*
X152300057Y-102623809D02*
X152395295Y-102671428D01*
X152395295Y-102671428D02*
X152633390Y-102671428D01*
X152633390Y-102671428D02*
X152728628Y-102623809D01*
X152728628Y-102623809D02*
X152776247Y-102576190D01*
X152776247Y-102576190D02*
X152823866Y-102480952D01*
X152823866Y-102480952D02*
X152823866Y-102290476D01*
X152823866Y-102290476D02*
X152776247Y-102195238D01*
X152776247Y-102195238D02*
X152728628Y-102147619D01*
X152728628Y-102147619D02*
X152633390Y-102100000D01*
X152204819Y-101195238D02*
X152204819Y-101671428D01*
X152204819Y-101671428D02*
X152681009Y-101719047D01*
X152681009Y-101719047D02*
X152633390Y-101671428D01*
X152633390Y-101671428D02*
X152585771Y-101576190D01*
X152585771Y-101576190D02*
X152585771Y-101338095D01*
X152585771Y-101338095D02*
X152633390Y-101242857D01*
X152633390Y-101242857D02*
X152681009Y-101195238D01*
X152681009Y-101195238D02*
X152776247Y-101147619D01*
X152776247Y-101147619D02*
X153014342Y-101147619D01*
X153014342Y-101147619D02*
X153109580Y-101195238D01*
X153109580Y-101195238D02*
X153157200Y-101242857D01*
X153157200Y-101242857D02*
X153204819Y-101338095D01*
X153204819Y-101338095D02*
X153204819Y-101576190D01*
X153204819Y-101576190D02*
X153157200Y-101671428D01*
X153157200Y-101671428D02*
X153109580Y-101719047D01*
X152204819Y-100528571D02*
X152204819Y-100433333D01*
X152204819Y-100433333D02*
X152252438Y-100338095D01*
X152252438Y-100338095D02*
X152300057Y-100290476D01*
X152300057Y-100290476D02*
X152395295Y-100242857D01*
X152395295Y-100242857D02*
X152585771Y-100195238D01*
X152585771Y-100195238D02*
X152823866Y-100195238D01*
X152823866Y-100195238D02*
X153014342Y-100242857D01*
X153014342Y-100242857D02*
X153109580Y-100290476D01*
X153109580Y-100290476D02*
X153157200Y-100338095D01*
X153157200Y-100338095D02*
X153204819Y-100433333D01*
X153204819Y-100433333D02*
X153204819Y-100528571D01*
X153204819Y-100528571D02*
X153157200Y-100623809D01*
X153157200Y-100623809D02*
X153109580Y-100671428D01*
X153109580Y-100671428D02*
X153014342Y-100719047D01*
X153014342Y-100719047D02*
X152823866Y-100766666D01*
X152823866Y-100766666D02*
X152585771Y-100766666D01*
X152585771Y-100766666D02*
X152395295Y-100719047D01*
X152395295Y-100719047D02*
X152300057Y-100671428D01*
X152300057Y-100671428D02*
X152252438Y-100623809D01*
X152252438Y-100623809D02*
X152204819Y-100528571D01*
X153204819Y-98480952D02*
X153204819Y-99052380D01*
X153204819Y-98766666D02*
X152204819Y-98766666D01*
X152204819Y-98766666D02*
X152347676Y-98861904D01*
X152347676Y-98861904D02*
X152442914Y-98957142D01*
X152442914Y-98957142D02*
X152490533Y-99052380D01*
X152204819Y-97861904D02*
X152204819Y-97766666D01*
X152204819Y-97766666D02*
X152252438Y-97671428D01*
X152252438Y-97671428D02*
X152300057Y-97623809D01*
X152300057Y-97623809D02*
X152395295Y-97576190D01*
X152395295Y-97576190D02*
X152585771Y-97528571D01*
X152585771Y-97528571D02*
X152823866Y-97528571D01*
X152823866Y-97528571D02*
X153014342Y-97576190D01*
X153014342Y-97576190D02*
X153109580Y-97623809D01*
X153109580Y-97623809D02*
X153157200Y-97671428D01*
X153157200Y-97671428D02*
X153204819Y-97766666D01*
X153204819Y-97766666D02*
X153204819Y-97861904D01*
X153204819Y-97861904D02*
X153157200Y-97957142D01*
X153157200Y-97957142D02*
X153109580Y-98004761D01*
X153109580Y-98004761D02*
X153014342Y-98052380D01*
X153014342Y-98052380D02*
X152823866Y-98099999D01*
X152823866Y-98099999D02*
X152585771Y-98099999D01*
X152585771Y-98099999D02*
X152395295Y-98052380D01*
X152395295Y-98052380D02*
X152300057Y-98004761D01*
X152300057Y-98004761D02*
X152252438Y-97957142D01*
X152252438Y-97957142D02*
X152204819Y-97861904D01*
X152204819Y-96909523D02*
X152204819Y-96814285D01*
X152204819Y-96814285D02*
X152252438Y-96719047D01*
X152252438Y-96719047D02*
X152300057Y-96671428D01*
X152300057Y-96671428D02*
X152395295Y-96623809D01*
X152395295Y-96623809D02*
X152585771Y-96576190D01*
X152585771Y-96576190D02*
X152823866Y-96576190D01*
X152823866Y-96576190D02*
X153014342Y-96623809D01*
X153014342Y-96623809D02*
X153109580Y-96671428D01*
X153109580Y-96671428D02*
X153157200Y-96719047D01*
X153157200Y-96719047D02*
X153204819Y-96814285D01*
X153204819Y-96814285D02*
X153204819Y-96909523D01*
X153204819Y-96909523D02*
X153157200Y-97004761D01*
X153157200Y-97004761D02*
X153109580Y-97052380D01*
X153109580Y-97052380D02*
X153014342Y-97099999D01*
X153014342Y-97099999D02*
X152823866Y-97147618D01*
X152823866Y-97147618D02*
X152585771Y-97147618D01*
X152585771Y-97147618D02*
X152395295Y-97099999D01*
X152395295Y-97099999D02*
X152300057Y-97052380D01*
X152300057Y-97052380D02*
X152252438Y-97004761D01*
X152252438Y-97004761D02*
X152204819Y-96909523D01*
X153204819Y-96147618D02*
X152204819Y-96147618D01*
X153204819Y-95576190D02*
X152633390Y-96004761D01*
X152204819Y-95576190D02*
X152776247Y-96147618D01*
D12*
%TO.C,B3950 100K*%
X153665000Y-100327064D02*
X153665000Y-99872936D01*
X155135000Y-100327064D02*
X155135000Y-99872936D01*
%TD*%
M02*
