%TF.GenerationSoftware,KiCad,Pcbnew,9.0.1*%
%TF.CreationDate,2025-06-17T15:03:31+08:00*%
%TF.ProjectId,custom_heater,63757374-6f6d-45f6-9865-617465722e6b,rev?*%
%TF.SameCoordinates,Original*%
%TF.FileFunction,Copper,L1,Top*%
%TF.FilePolarity,Positive*%
%FSLAX46Y46*%
G04 Gerber Fmt 4.6, Leading zero omitted, Abs format (unit mm)*
G04 Created by KiCad (PCBNEW 9.0.1) date 2025-06-17 15:03:31*
%MOMM*%
%LPD*%
G01*
G04 APERTURE LIST*
%TA.AperFunction,SMDPad,CuDef*%
%ADD10R,3.600000X6.900000*%
%TD*%
%TA.AperFunction,Conductor*%
%ADD11C,1.300000*%
%TD*%
G04 APERTURE END LIST*
D10*
%TO.P,,1*%
%TO.N,N/C*%
X205150000Y-142850000D03*
%TD*%
%TO.P,,1*%
%TO.N,N/C*%
X209650000Y-142850000D03*
%TD*%
D11*
%TO.N,*%
X107650000Y-156350000D02*
X107650000Y-42350000D01*
X181150000Y-156350000D02*
X182650000Y-156350000D01*
X178150000Y-42350000D02*
X178150000Y-73850000D01*
X148150000Y-156350000D02*
X149650000Y-156350000D01*
X205150000Y-138350000D02*
X206650000Y-138350000D01*
X149650000Y-42350000D02*
X151150000Y-42350000D01*
X175150000Y-88850000D02*
X175150000Y-109850000D01*
X125650000Y-112850000D02*
X125650000Y-87350000D01*
X125650000Y-123350000D02*
X127150000Y-124850000D01*
X134650000Y-109850000D02*
X134650000Y-88850000D01*
X131650000Y-109850000D02*
X131650000Y-88850000D01*
X136150000Y-73850000D02*
X137650000Y-73850000D01*
X169150000Y-109850000D02*
X170650000Y-109850000D01*
X173650000Y-156350000D02*
X173650000Y-124850000D01*
X200650000Y-145850000D02*
X200650000Y-144350000D01*
X203650000Y-146350000D02*
X203650000Y-147350000D01*
X179650000Y-75350000D02*
X170650000Y-75350000D01*
X176650000Y-156350000D02*
X176650000Y-124850000D01*
X187150000Y-156350000D02*
X188650000Y-156350000D01*
X164650000Y-156350000D02*
X164650000Y-42350000D01*
X176650000Y-109850000D02*
X176650000Y-88850000D01*
X199150000Y-156350000D02*
X200650000Y-156350000D01*
X181150000Y-76850000D02*
X179650000Y-75350000D01*
X172150000Y-156350000D02*
X173650000Y-156350000D01*
X170650000Y-111350000D02*
X169150000Y-112850000D01*
X202150000Y-151850000D02*
X202150000Y-153350000D01*
X127150000Y-109850000D02*
X128650000Y-109850000D01*
X206650000Y-138350000D02*
X206650000Y-42350000D01*
X104650000Y-156350000D02*
X104650000Y-42350000D01*
X188650000Y-42350000D02*
X190150000Y-42350000D01*
X182650000Y-42350000D02*
X184150000Y-42350000D01*
X109150000Y-42350000D02*
X109150000Y-156350000D01*
X109150000Y-156350000D02*
X110650000Y-156350000D01*
X206650000Y-42350000D02*
X208150000Y-42350000D01*
X136150000Y-42350000D02*
X136150000Y-73850000D01*
X178150000Y-73850000D02*
X179650000Y-73850000D01*
X185650000Y-42350000D02*
X187150000Y-42350000D01*
X127150000Y-111350000D02*
X125650000Y-112850000D01*
X140650000Y-42350000D02*
X142150000Y-42350000D01*
X134650000Y-73850000D02*
X134650000Y-42350000D01*
X130150000Y-109850000D02*
X131650000Y-109850000D01*
X137650000Y-76850000D02*
X137650000Y-75350000D01*
X211150000Y-156350000D02*
X211150000Y-157850000D01*
X145150000Y-156350000D02*
X146650000Y-156350000D01*
X176650000Y-124850000D02*
X178150000Y-124850000D01*
X98650000Y-42350000D02*
X100150000Y-42350000D01*
X133150000Y-88850000D02*
X133150000Y-109850000D01*
X173650000Y-109850000D02*
X173650000Y-88850000D01*
X100150000Y-156350000D02*
X101650000Y-156350000D01*
X202150000Y-150350000D02*
X211150000Y-150350000D01*
X130150000Y-88850000D02*
X130150000Y-109850000D01*
X190150000Y-156350000D02*
X191650000Y-156350000D01*
X134650000Y-156350000D02*
X134650000Y-124850000D01*
X124150000Y-42350000D02*
X124150000Y-156350000D01*
X95650000Y-42350000D02*
X97150000Y-42350000D01*
X130150000Y-73850000D02*
X131650000Y-73850000D01*
X122650000Y-42350000D02*
X124150000Y-42350000D01*
X200650000Y-139850000D02*
X200650000Y-42350000D01*
X203650000Y-138350000D02*
X203650000Y-42350000D01*
X154150000Y-42350000D02*
X154150000Y-156350000D01*
X169150000Y-156350000D02*
X170650000Y-156350000D01*
X131650000Y-88850000D02*
X133150000Y-88850000D01*
X173650000Y-124850000D02*
X175150000Y-124850000D01*
X130150000Y-124850000D02*
X130150000Y-156350000D01*
X133150000Y-156350000D02*
X134650000Y-156350000D01*
X130150000Y-156350000D02*
X131650000Y-156350000D01*
X161650000Y-42350000D02*
X163150000Y-42350000D01*
X211150000Y-138100000D02*
X211150000Y-145600000D01*
X124150000Y-156350000D02*
X125650000Y-156350000D01*
X179650000Y-109850000D02*
X179650000Y-88850000D01*
X155650000Y-156350000D02*
X155650000Y-42350000D01*
X172150000Y-109850000D02*
X173650000Y-109850000D01*
X145150000Y-42350000D02*
X145150000Y-156350000D01*
X211150000Y-151850000D02*
X202150000Y-151850000D01*
X142150000Y-156350000D02*
X143650000Y-156350000D01*
X137650000Y-42350000D02*
X139150000Y-42350000D01*
X137650000Y-112850000D02*
X136150000Y-111350000D01*
X211150000Y-153350000D02*
X211150000Y-154850000D01*
X127150000Y-73850000D02*
X128650000Y-73850000D01*
X181150000Y-123350000D02*
X181150000Y-156350000D01*
X169150000Y-75350000D02*
X170650000Y-75350000D01*
X133150000Y-42350000D02*
X133150000Y-73850000D01*
X172150000Y-124850000D02*
X172150000Y-156350000D01*
X173650000Y-73850000D02*
X173650000Y-42350000D01*
X112150000Y-42350000D02*
X112150000Y-156350000D01*
X136150000Y-109850000D02*
X137650000Y-109850000D01*
X128650000Y-156350000D02*
X128650000Y-124850000D01*
X179650000Y-42350000D02*
X181150000Y-42350000D01*
X152650000Y-42350000D02*
X154150000Y-42350000D01*
X122650000Y-156350000D02*
X122650000Y-42350000D01*
X139150000Y-156350000D02*
X140650000Y-156350000D01*
X139150000Y-42350000D02*
X139150000Y-156350000D01*
X202150000Y-139850000D02*
X200650000Y-139850000D01*
X133150000Y-109850000D02*
X134650000Y-109850000D01*
X151150000Y-156350000D02*
X152650000Y-156350000D01*
X166150000Y-156350000D02*
X167650000Y-156350000D01*
X136150000Y-87350000D02*
X136150000Y-109850000D01*
X196150000Y-42350000D02*
X196150000Y-156350000D01*
X176650000Y-73850000D02*
X176650000Y-42350000D01*
X128650000Y-124850000D02*
X130150000Y-124850000D01*
X170650000Y-109850000D02*
X170650000Y-87350000D01*
X202150000Y-156350000D02*
X211150000Y-156350000D01*
X128650000Y-42350000D02*
X130150000Y-42350000D01*
X203650000Y-42350000D02*
X205150000Y-42350000D01*
X200650000Y-156350000D02*
X200650000Y-147350000D01*
X178150000Y-124850000D02*
X178150000Y-156350000D01*
X116650000Y-156350000D02*
X116650000Y-42350000D01*
X140650000Y-156350000D02*
X140650000Y-42350000D01*
X200650000Y-141350000D02*
X202150000Y-141350000D01*
X97150000Y-42350000D02*
X97150000Y-156350000D01*
X127150000Y-88850000D02*
X127150000Y-109850000D01*
X127150000Y-75350000D02*
X125650000Y-76850000D01*
X203650000Y-144350000D02*
X203650000Y-146350000D01*
X104650000Y-42350000D02*
X106150000Y-42350000D01*
X151150000Y-42350000D02*
X151150000Y-156350000D01*
X181150000Y-42350000D02*
X181150000Y-76850000D01*
X97150000Y-156350000D02*
X98650000Y-156350000D01*
X188650000Y-156350000D02*
X188650000Y-42350000D01*
X169150000Y-76850000D02*
X169150000Y-75350000D01*
X137650000Y-111350000D02*
X136150000Y-111350000D01*
X211150000Y-138100000D02*
X211150000Y-141350000D01*
X211150000Y-150350000D02*
X211150000Y-151850000D01*
X205150000Y-142850000D02*
X205150000Y-145350000D01*
X173650000Y-88850000D02*
X175150000Y-88850000D01*
X178150000Y-156350000D02*
X179650000Y-156350000D01*
X158650000Y-42350000D02*
X160150000Y-42350000D01*
X211150000Y-148850000D02*
X202150000Y-148850000D01*
X149650000Y-156350000D02*
X149650000Y-42350000D01*
X191650000Y-42350000D02*
X193150000Y-42350000D01*
X179650000Y-111350000D02*
X170650000Y-111350000D01*
X101650000Y-156350000D02*
X101650000Y-42350000D01*
X148150000Y-42350000D02*
X148150000Y-156350000D01*
X115150000Y-42350000D02*
X115150000Y-156350000D01*
X137650000Y-73850000D02*
X137650000Y-42350000D01*
X142150000Y-42350000D02*
X142150000Y-156350000D01*
X181150000Y-112850000D02*
X179650000Y-111350000D01*
X131650000Y-124850000D02*
X133150000Y-124850000D01*
X95650000Y-157850000D02*
X95650000Y-42350000D01*
X196150000Y-156350000D02*
X197650000Y-156350000D01*
X179650000Y-73850000D02*
X179650000Y-42350000D01*
X202150000Y-145850000D02*
X200650000Y-145850000D01*
X121150000Y-42350000D02*
X121150000Y-156350000D01*
X118150000Y-42350000D02*
X118150000Y-156350000D01*
X163150000Y-42350000D02*
X163150000Y-156350000D01*
X200650000Y-144350000D02*
X202150000Y-144350000D01*
X113650000Y-42350000D02*
X115150000Y-42350000D01*
X136150000Y-111350000D02*
X127150000Y-111350000D01*
X176650000Y-42350000D02*
X178150000Y-42350000D01*
X175150000Y-156350000D02*
X176650000Y-156350000D01*
X163150000Y-156350000D02*
X164650000Y-156350000D01*
X181150000Y-87350000D02*
X181150000Y-112850000D01*
X172150000Y-88850000D02*
X172150000Y-109850000D01*
X103150000Y-42350000D02*
X103150000Y-156350000D01*
X137650000Y-112850000D02*
X137650000Y-111350000D01*
X209650000Y-42350000D02*
X211150000Y-42350000D01*
X137650000Y-156350000D02*
X137650000Y-112850000D01*
X170650000Y-42350000D02*
X172150000Y-42350000D01*
X211150000Y-141350000D02*
X209650000Y-142850000D01*
X205150000Y-42350000D02*
X205150000Y-138350000D01*
X130150000Y-42350000D02*
X130150000Y-73850000D01*
X175150000Y-109850000D02*
X176650000Y-109850000D01*
X134650000Y-88850000D02*
X136150000Y-87350000D01*
X155650000Y-42350000D02*
X157150000Y-42350000D01*
X137650000Y-75350000D02*
X136150000Y-75350000D01*
X134650000Y-42350000D02*
X136150000Y-42350000D01*
X200650000Y-147350000D02*
X202150000Y-147350000D01*
X125650000Y-156350000D02*
X125650000Y-123350000D01*
X164650000Y-42350000D02*
X166150000Y-42350000D01*
X125650000Y-42350000D02*
X127150000Y-42350000D01*
X185650000Y-156350000D02*
X185650000Y-42350000D01*
X170650000Y-111350000D02*
X172150000Y-111350000D01*
X202150000Y-153350000D02*
X211150000Y-153350000D01*
X119650000Y-42350000D02*
X121150000Y-42350000D01*
X127150000Y-156350000D02*
X128650000Y-156350000D01*
X106150000Y-156350000D02*
X107650000Y-156350000D01*
X160150000Y-156350000D02*
X161650000Y-156350000D01*
X202150000Y-147350000D02*
X202150000Y-145850000D01*
X205150000Y-145350000D02*
X207150000Y-147350000D01*
X169150000Y-73850000D02*
X170650000Y-73850000D01*
X106150000Y-42350000D02*
X106150000Y-156350000D01*
X125650000Y-87350000D02*
X127150000Y-88850000D01*
X110650000Y-156350000D02*
X110650000Y-42350000D01*
X146650000Y-42350000D02*
X148150000Y-42350000D01*
X101650000Y-42350000D02*
X103150000Y-42350000D01*
X128650000Y-109850000D02*
X128650000Y-88850000D01*
X173650000Y-42350000D02*
X175150000Y-42350000D01*
X146650000Y-156350000D02*
X146650000Y-42350000D01*
X166150000Y-42350000D02*
X166150000Y-156350000D01*
X202150000Y-148850000D02*
X202150000Y-150350000D01*
X136150000Y-123350000D02*
X136150000Y-156350000D01*
X211150000Y-42350000D02*
X211150000Y-138100000D01*
X143650000Y-42350000D02*
X145150000Y-42350000D01*
X103150000Y-156350000D02*
X104650000Y-156350000D01*
X179650000Y-156350000D02*
X179650000Y-124850000D01*
X202150000Y-142850000D02*
X200650000Y-142850000D01*
X169150000Y-112850000D02*
X169150000Y-111350000D01*
X170650000Y-87350000D02*
X172150000Y-88850000D01*
X170650000Y-75350000D02*
X169150000Y-76850000D01*
X133150000Y-73850000D02*
X134650000Y-73850000D01*
X113650000Y-156350000D02*
X113650000Y-42350000D01*
X194650000Y-156350000D02*
X194650000Y-42350000D01*
X119650000Y-156350000D02*
X119650000Y-42350000D01*
X207150000Y-147350000D02*
X211150000Y-147350000D01*
X193150000Y-156350000D02*
X194650000Y-156350000D01*
X169150000Y-76850000D02*
X169150000Y-109850000D01*
X157150000Y-156350000D02*
X158650000Y-156350000D01*
X208150000Y-42350000D02*
X208150000Y-138350000D01*
X208150000Y-138350000D02*
X209650000Y-138350000D01*
X211150000Y-154850000D02*
X202150000Y-154850000D01*
X127150000Y-42350000D02*
X127150000Y-73850000D01*
X110650000Y-42350000D02*
X112150000Y-42350000D01*
X197650000Y-42350000D02*
X199150000Y-42350000D01*
X179650000Y-88850000D02*
X181150000Y-87350000D01*
X179650000Y-124850000D02*
X181150000Y-123350000D01*
X157150000Y-42350000D02*
X157150000Y-156350000D01*
X200650000Y-142850000D02*
X200650000Y-141350000D01*
X152650000Y-156350000D02*
X152650000Y-42350000D01*
X175150000Y-42350000D02*
X175150000Y-73850000D01*
X202150000Y-42350000D02*
X202150000Y-138350000D01*
X100150000Y-42350000D02*
X100150000Y-156350000D01*
X172150000Y-42350000D02*
X172150000Y-73850000D01*
X131650000Y-156350000D02*
X131650000Y-124850000D01*
X137650000Y-76850000D02*
X136150000Y-75350000D01*
X107650000Y-42350000D02*
X109150000Y-42350000D01*
X167650000Y-42350000D02*
X169150000Y-42350000D01*
X184150000Y-42350000D02*
X184150000Y-156350000D01*
X125650000Y-76850000D02*
X125650000Y-42350000D01*
X143650000Y-156350000D02*
X143650000Y-42350000D01*
X175150000Y-124850000D02*
X175150000Y-156350000D01*
X176650000Y-88850000D02*
X178150000Y-88850000D01*
X197650000Y-156350000D02*
X197650000Y-42350000D01*
X175150000Y-73850000D02*
X176650000Y-73850000D01*
X209650000Y-138350000D02*
X209650000Y-42350000D01*
X199150000Y-42350000D02*
X199150000Y-156350000D01*
X112150000Y-156350000D02*
X113650000Y-156350000D01*
X169150000Y-112850000D02*
X169150000Y-156350000D01*
X202150000Y-154850000D02*
X202150000Y-156350000D01*
X154150000Y-156350000D02*
X155650000Y-156350000D01*
X190150000Y-42350000D02*
X190150000Y-156350000D01*
X116650000Y-42350000D02*
X118150000Y-42350000D01*
X184150000Y-156350000D02*
X185650000Y-156350000D01*
X167650000Y-156350000D02*
X167650000Y-42350000D01*
X170650000Y-156350000D02*
X170650000Y-123350000D01*
X136150000Y-75350000D02*
X127150000Y-75350000D01*
X127150000Y-124850000D02*
X127150000Y-156350000D01*
X203650000Y-147350000D02*
X207150000Y-147350000D01*
X121150000Y-156350000D02*
X122650000Y-156350000D01*
X137650000Y-109850000D02*
X137650000Y-76850000D01*
X133150000Y-124850000D02*
X133150000Y-156350000D01*
X161650000Y-156350000D02*
X161650000Y-42350000D01*
X131650000Y-42350000D02*
X133150000Y-42350000D01*
X158650000Y-156350000D02*
X158650000Y-42350000D01*
X128650000Y-73850000D02*
X128650000Y-42350000D01*
X98650000Y-156350000D02*
X98650000Y-42350000D01*
X178150000Y-109850000D02*
X179650000Y-109850000D01*
X202150000Y-141350000D02*
X202150000Y-139850000D01*
X172150000Y-73850000D02*
X173650000Y-73850000D01*
X169150000Y-111350000D02*
X170650000Y-111350000D01*
X187150000Y-42350000D02*
X187150000Y-156350000D01*
X202150000Y-144350000D02*
X202150000Y-142850000D01*
X194650000Y-42350000D02*
X196150000Y-42350000D01*
X211150000Y-157850000D02*
X95650000Y-157850000D01*
X169150000Y-42350000D02*
X169150000Y-73850000D01*
X134650000Y-124850000D02*
X136150000Y-123350000D01*
X115150000Y-156350000D02*
X116650000Y-156350000D01*
X182650000Y-156350000D02*
X182650000Y-42350000D01*
X178150000Y-88850000D02*
X178150000Y-109850000D01*
X118150000Y-156350000D02*
X119650000Y-156350000D01*
X211150000Y-147350000D02*
X211150000Y-148850000D01*
X205150000Y-142850000D02*
X203650000Y-144350000D01*
X136150000Y-156350000D02*
X137650000Y-156350000D01*
X160150000Y-42350000D02*
X160150000Y-156350000D01*
X170650000Y-123350000D02*
X172150000Y-124850000D01*
X131650000Y-73850000D02*
X131650000Y-42350000D01*
X203650000Y-146350000D02*
X206150000Y-146350000D01*
X170650000Y-73850000D02*
X170650000Y-42350000D01*
X191650000Y-156350000D02*
X191650000Y-42350000D01*
X193150000Y-42350000D02*
X193150000Y-156350000D01*
X128650000Y-88850000D02*
X130150000Y-88850000D01*
X202150000Y-138350000D02*
X203650000Y-138350000D01*
X200650000Y-42350000D02*
X202150000Y-42350000D01*
%TD*%
%TA.AperFunction,NonConductor*%
G36*
X179189124Y-76520185D02*
G01*
X179209766Y-76536819D01*
X180269321Y-77596374D01*
X180269335Y-77596389D01*
X180272446Y-77599500D01*
X180272447Y-77599501D01*
X180400499Y-77727553D01*
X180400502Y-77727555D01*
X180400506Y-77727559D01*
X180533364Y-77824084D01*
X180547006Y-77833996D01*
X180652484Y-77887740D01*
X180708360Y-77916211D01*
X180708363Y-77916212D01*
X180794476Y-77944191D01*
X180880591Y-77972171D01*
X181059453Y-78000501D01*
X181059454Y-78000501D01*
X181240545Y-78000501D01*
X181240546Y-78000501D01*
X181356102Y-77982198D01*
X181425395Y-77991152D01*
X181478847Y-78036148D01*
X181499487Y-78102900D01*
X181499500Y-78104671D01*
X181499500Y-86095328D01*
X181479815Y-86162367D01*
X181427011Y-86208122D01*
X181357853Y-86218066D01*
X181356103Y-86217801D01*
X181240546Y-86199499D01*
X181059453Y-86199499D01*
X181005012Y-86208122D01*
X180880589Y-86227829D01*
X180708363Y-86283787D01*
X180708360Y-86283788D01*
X180547002Y-86366006D01*
X180400505Y-86472441D01*
X180400500Y-86472445D01*
X180272444Y-86600502D01*
X178974966Y-87897979D01*
X178913643Y-87931464D01*
X178843951Y-87926480D01*
X178814401Y-87910617D01*
X178752996Y-87866005D01*
X178591639Y-87783788D01*
X178591636Y-87783787D01*
X178419410Y-87727829D01*
X178240551Y-87699500D01*
X178240546Y-87699500D01*
X176740546Y-87699500D01*
X176559454Y-87699500D01*
X176559449Y-87699500D01*
X176380589Y-87727829D01*
X176208363Y-87783787D01*
X176208360Y-87783788D01*
X176047003Y-87866005D01*
X175972884Y-87919855D01*
X175907078Y-87943334D01*
X175839024Y-87927508D01*
X175827116Y-87919855D01*
X175752996Y-87866005D01*
X175591639Y-87783788D01*
X175591636Y-87783787D01*
X175419410Y-87727829D01*
X175240551Y-87699500D01*
X175240546Y-87699500D01*
X173740546Y-87699500D01*
X173559454Y-87699500D01*
X173559449Y-87699500D01*
X173380589Y-87727829D01*
X173208363Y-87783787D01*
X173208360Y-87783788D01*
X173047003Y-87866005D01*
X172985598Y-87910618D01*
X172919792Y-87934097D01*
X172851738Y-87918271D01*
X172825033Y-87897980D01*
X171531893Y-86604840D01*
X171531884Y-86604830D01*
X171527553Y-86600499D01*
X171399501Y-86472447D01*
X171399497Y-86472444D01*
X171399493Y-86472440D01*
X171252997Y-86366006D01*
X171252996Y-86366005D01*
X171252994Y-86366004D01*
X171201300Y-86339664D01*
X171091639Y-86283788D01*
X171091636Y-86283787D01*
X170919410Y-86227829D01*
X170829977Y-86213664D01*
X170740546Y-86199499D01*
X170559454Y-86199499D01*
X170443897Y-86217801D01*
X170374604Y-86208846D01*
X170321152Y-86163850D01*
X170300513Y-86097098D01*
X170300500Y-86095328D01*
X170300500Y-82468872D01*
X173899500Y-82468872D01*
X173899500Y-82731127D01*
X173926123Y-82933339D01*
X173933730Y-82991116D01*
X174001602Y-83244418D01*
X174001605Y-83244428D01*
X174019110Y-83286687D01*
X174019111Y-83286691D01*
X174033601Y-83321676D01*
X174033615Y-83321708D01*
X174101953Y-83486690D01*
X174101957Y-83486697D01*
X174132946Y-83540371D01*
X174160779Y-83588582D01*
X174233071Y-83713795D01*
X174233082Y-83713811D01*
X174281301Y-83776652D01*
X174320179Y-83827318D01*
X174390041Y-83918362D01*
X174392718Y-83921851D01*
X174574171Y-84103304D01*
X174578151Y-84107284D01*
X174672688Y-84179825D01*
X174723355Y-84218703D01*
X174786191Y-84266920D01*
X174786197Y-84266924D01*
X174959630Y-84367055D01*
X175013291Y-84398037D01*
X175013300Y-84398041D01*
X175013303Y-84398043D01*
X175013307Y-84398044D01*
X175013312Y-84398047D01*
X175178280Y-84466379D01*
X175184933Y-84469134D01*
X175255581Y-84498398D01*
X175508884Y-84566270D01*
X175768880Y-84600500D01*
X175768887Y-84600500D01*
X176031113Y-84600500D01*
X176031120Y-84600500D01*
X176291116Y-84566270D01*
X176544419Y-84498398D01*
X176786697Y-84398043D01*
X177013803Y-84266924D01*
X177221851Y-84107282D01*
X177407282Y-83921851D01*
X177566924Y-83713803D01*
X177698043Y-83486697D01*
X177798398Y-83244419D01*
X177866270Y-82991116D01*
X177900500Y-82731120D01*
X177900500Y-82468880D01*
X177866270Y-82208884D01*
X177798398Y-81955581D01*
X177698043Y-81713303D01*
X177698040Y-81713299D01*
X177698037Y-81713291D01*
X177667055Y-81659630D01*
X177667054Y-81659629D01*
X177667049Y-81659620D01*
X177566924Y-81486197D01*
X177566916Y-81486187D01*
X177518703Y-81423355D01*
X177479817Y-81372678D01*
X177407284Y-81278151D01*
X177407272Y-81278139D01*
X177221851Y-81092718D01*
X177127318Y-81020179D01*
X177076652Y-80981301D01*
X177013811Y-80933082D01*
X177013809Y-80933080D01*
X177013803Y-80933076D01*
X177013798Y-80933073D01*
X177013795Y-80933071D01*
X176888585Y-80860781D01*
X176862340Y-80845629D01*
X176786697Y-80801957D01*
X176786695Y-80801956D01*
X176786690Y-80801953D01*
X176621708Y-80733615D01*
X176621708Y-80733614D01*
X176586697Y-80719113D01*
X176586687Y-80719110D01*
X176544428Y-80701605D01*
X176544421Y-80701603D01*
X176544419Y-80701602D01*
X176291116Y-80633730D01*
X176233339Y-80626123D01*
X176031127Y-80599500D01*
X176031120Y-80599500D01*
X175768880Y-80599500D01*
X175768872Y-80599500D01*
X175537772Y-80629926D01*
X175508884Y-80633730D01*
X175489515Y-80638920D01*
X175255577Y-80701603D01*
X175213301Y-80719113D01*
X175213300Y-80719112D01*
X175178330Y-80733597D01*
X175178291Y-80733615D01*
X175013304Y-80801956D01*
X175013301Y-80801957D01*
X174959623Y-80832946D01*
X174959624Y-80832947D01*
X174911422Y-80860777D01*
X174786197Y-80933076D01*
X174786187Y-80933082D01*
X174723349Y-80981300D01*
X174672690Y-81020171D01*
X174672679Y-81020181D01*
X174578141Y-81092724D01*
X174578139Y-81092726D01*
X174508881Y-81161983D01*
X174461983Y-81208881D01*
X174392726Y-81278139D01*
X174392724Y-81278141D01*
X174320181Y-81372679D01*
X174320180Y-81372678D01*
X174281300Y-81423349D01*
X174233082Y-81486187D01*
X174233076Y-81486197D01*
X174160777Y-81611422D01*
X174132949Y-81659620D01*
X174101957Y-81713301D01*
X174101956Y-81713304D01*
X174033615Y-81878291D01*
X174033614Y-81878290D01*
X174019114Y-81913295D01*
X174019113Y-81913301D01*
X174001603Y-81955577D01*
X173933730Y-82208885D01*
X173899500Y-82468872D01*
X170300500Y-82468872D01*
X170300500Y-77377915D01*
X170320185Y-77310876D01*
X170336819Y-77290234D01*
X171090234Y-76536819D01*
X171151557Y-76503334D01*
X171177915Y-76500500D01*
X179122085Y-76500500D01*
X179189124Y-76520185D01*
G37*
%TD.AperFunction*%
%TA.AperFunction,NonConductor*%
G36*
X135689124Y-76520185D02*
G01*
X135709766Y-76536819D01*
X136463181Y-77290234D01*
X136496666Y-77351557D01*
X136499500Y-77377915D01*
X136499500Y-86095328D01*
X136479815Y-86162367D01*
X136427011Y-86208122D01*
X136357853Y-86218066D01*
X136356103Y-86217801D01*
X136240546Y-86199499D01*
X136059453Y-86199499D01*
X136005012Y-86208122D01*
X135880589Y-86227829D01*
X135708363Y-86283787D01*
X135708360Y-86283788D01*
X135547002Y-86366006D01*
X135400505Y-86472441D01*
X135400500Y-86472445D01*
X135272444Y-86600502D01*
X133974966Y-87897979D01*
X133913643Y-87931464D01*
X133843951Y-87926480D01*
X133814401Y-87910617D01*
X133752996Y-87866005D01*
X133591639Y-87783788D01*
X133591636Y-87783787D01*
X133419410Y-87727829D01*
X133240551Y-87699500D01*
X133240546Y-87699500D01*
X131740546Y-87699500D01*
X131559454Y-87699500D01*
X131559449Y-87699500D01*
X131380589Y-87727829D01*
X131208363Y-87783787D01*
X131208360Y-87783788D01*
X131047003Y-87866005D01*
X130972884Y-87919855D01*
X130907078Y-87943334D01*
X130839024Y-87927508D01*
X130827116Y-87919855D01*
X130752996Y-87866005D01*
X130591639Y-87783788D01*
X130591636Y-87783787D01*
X130419410Y-87727829D01*
X130240551Y-87699500D01*
X130240546Y-87699500D01*
X128740546Y-87699500D01*
X128559454Y-87699500D01*
X128559449Y-87699500D01*
X128380589Y-87727829D01*
X128208363Y-87783787D01*
X128208360Y-87783788D01*
X128047003Y-87866005D01*
X127985598Y-87910618D01*
X127919792Y-87934097D01*
X127851738Y-87918271D01*
X127825033Y-87897980D01*
X126531893Y-86604840D01*
X126531884Y-86604830D01*
X126527553Y-86600499D01*
X126399501Y-86472447D01*
X126399497Y-86472444D01*
X126399493Y-86472440D01*
X126252997Y-86366006D01*
X126252996Y-86366005D01*
X126252994Y-86366004D01*
X126201300Y-86339664D01*
X126091639Y-86283788D01*
X126091636Y-86283787D01*
X125919410Y-86227829D01*
X125829977Y-86213664D01*
X125740546Y-86199499D01*
X125559454Y-86199499D01*
X125443897Y-86217801D01*
X125374604Y-86208846D01*
X125321152Y-86163850D01*
X125300513Y-86097098D01*
X125300500Y-86095328D01*
X125300500Y-82468872D01*
X128899500Y-82468872D01*
X128899500Y-82731127D01*
X128926123Y-82933339D01*
X128933730Y-82991116D01*
X129001602Y-83244418D01*
X129001605Y-83244428D01*
X129019110Y-83286687D01*
X129019111Y-83286691D01*
X129033601Y-83321676D01*
X129033615Y-83321708D01*
X129101953Y-83486690D01*
X129101957Y-83486697D01*
X129132946Y-83540371D01*
X129160779Y-83588582D01*
X129233071Y-83713795D01*
X129233082Y-83713811D01*
X129281301Y-83776652D01*
X129320179Y-83827318D01*
X129390041Y-83918362D01*
X129392718Y-83921851D01*
X129574171Y-84103304D01*
X129578151Y-84107284D01*
X129672688Y-84179825D01*
X129723355Y-84218703D01*
X129786191Y-84266920D01*
X129786197Y-84266924D01*
X129959630Y-84367055D01*
X130013291Y-84398037D01*
X130013300Y-84398041D01*
X130013303Y-84398043D01*
X130013307Y-84398044D01*
X130013312Y-84398047D01*
X130178280Y-84466379D01*
X130184933Y-84469134D01*
X130255581Y-84498398D01*
X130508884Y-84566270D01*
X130768880Y-84600500D01*
X130768887Y-84600500D01*
X131031113Y-84600500D01*
X131031120Y-84600500D01*
X131291116Y-84566270D01*
X131544419Y-84498398D01*
X131786697Y-84398043D01*
X132013803Y-84266924D01*
X132221851Y-84107282D01*
X132407282Y-83921851D01*
X132566924Y-83713803D01*
X132698043Y-83486697D01*
X132798398Y-83244419D01*
X132866270Y-82991116D01*
X132900500Y-82731120D01*
X132900500Y-82468880D01*
X132866270Y-82208884D01*
X132798398Y-81955581D01*
X132698043Y-81713303D01*
X132698040Y-81713299D01*
X132698037Y-81713291D01*
X132667055Y-81659630D01*
X132667054Y-81659629D01*
X132667049Y-81659620D01*
X132566924Y-81486197D01*
X132566916Y-81486187D01*
X132518703Y-81423355D01*
X132479817Y-81372678D01*
X132407284Y-81278151D01*
X132407272Y-81278139D01*
X132221851Y-81092718D01*
X132127318Y-81020179D01*
X132076652Y-80981301D01*
X132013811Y-80933082D01*
X132013809Y-80933080D01*
X132013803Y-80933076D01*
X132013798Y-80933073D01*
X132013795Y-80933071D01*
X131888585Y-80860781D01*
X131862340Y-80845629D01*
X131786697Y-80801957D01*
X131786695Y-80801956D01*
X131786690Y-80801953D01*
X131621708Y-80733615D01*
X131621708Y-80733614D01*
X131586697Y-80719113D01*
X131586687Y-80719110D01*
X131544428Y-80701605D01*
X131544421Y-80701603D01*
X131544419Y-80701602D01*
X131291116Y-80633730D01*
X131233339Y-80626123D01*
X131031127Y-80599500D01*
X131031120Y-80599500D01*
X130768880Y-80599500D01*
X130768872Y-80599500D01*
X130537772Y-80629926D01*
X130508884Y-80633730D01*
X130489515Y-80638920D01*
X130255577Y-80701603D01*
X130213301Y-80719113D01*
X130213300Y-80719112D01*
X130178330Y-80733597D01*
X130178291Y-80733615D01*
X130013304Y-80801956D01*
X130013301Y-80801957D01*
X129959623Y-80832946D01*
X129959624Y-80832947D01*
X129911422Y-80860777D01*
X129786197Y-80933076D01*
X129786187Y-80933082D01*
X129723349Y-80981300D01*
X129672690Y-81020171D01*
X129672679Y-81020181D01*
X129578141Y-81092724D01*
X129578139Y-81092726D01*
X129508881Y-81161983D01*
X129461983Y-81208881D01*
X129392726Y-81278139D01*
X129392724Y-81278141D01*
X129320181Y-81372679D01*
X129320180Y-81372678D01*
X129281300Y-81423349D01*
X129233082Y-81486187D01*
X129233076Y-81486197D01*
X129160777Y-81611422D01*
X129132949Y-81659620D01*
X129101957Y-81713301D01*
X129101956Y-81713304D01*
X129033615Y-81878291D01*
X129033614Y-81878290D01*
X129019114Y-81913295D01*
X129019113Y-81913301D01*
X129001603Y-81955577D01*
X128933730Y-82208885D01*
X128899500Y-82468872D01*
X125300500Y-82468872D01*
X125300500Y-78104671D01*
X125320185Y-78037632D01*
X125372989Y-77991877D01*
X125442147Y-77981933D01*
X125443875Y-77982194D01*
X125559454Y-78000501D01*
X125559455Y-78000501D01*
X125740545Y-78000501D01*
X125740546Y-78000501D01*
X125919409Y-77972171D01*
X126091639Y-77916211D01*
X126252994Y-77833996D01*
X126252995Y-77833995D01*
X126399501Y-77727553D01*
X126527553Y-77599501D01*
X126527554Y-77599499D01*
X126534614Y-77592439D01*
X126534619Y-77592432D01*
X127590234Y-76536819D01*
X127651557Y-76503334D01*
X127677915Y-76500500D01*
X135622085Y-76500500D01*
X135689124Y-76520185D01*
G37*
%TD.AperFunction*%
%TA.AperFunction,NonConductor*%
G36*
X179189124Y-112520185D02*
G01*
X179209766Y-112536819D01*
X180269321Y-113596374D01*
X180269335Y-113596389D01*
X180272446Y-113599500D01*
X180272447Y-113599501D01*
X180400499Y-113727553D01*
X180400502Y-113727555D01*
X180400506Y-113727559D01*
X180533364Y-113824084D01*
X180547006Y-113833996D01*
X180652484Y-113887740D01*
X180708360Y-113916211D01*
X180708363Y-113916212D01*
X180794476Y-113944191D01*
X180880591Y-113972171D01*
X181059453Y-114000501D01*
X181059454Y-114000501D01*
X181240545Y-114000501D01*
X181240546Y-114000501D01*
X181356102Y-113982198D01*
X181425395Y-113991152D01*
X181478847Y-114036148D01*
X181499487Y-114102900D01*
X181499500Y-114104671D01*
X181499500Y-122095328D01*
X181479815Y-122162367D01*
X181427011Y-122208122D01*
X181357853Y-122218066D01*
X181356103Y-122217801D01*
X181240546Y-122199499D01*
X181059453Y-122199499D01*
X181005012Y-122208122D01*
X180880589Y-122227829D01*
X180708363Y-122283787D01*
X180708360Y-122283788D01*
X180547002Y-122366006D01*
X180400505Y-122472441D01*
X180400500Y-122472445D01*
X180272444Y-122600502D01*
X178974966Y-123897979D01*
X178913643Y-123931464D01*
X178843951Y-123926480D01*
X178814401Y-123910617D01*
X178752996Y-123866005D01*
X178591639Y-123783788D01*
X178591636Y-123783787D01*
X178419410Y-123727829D01*
X178240551Y-123699500D01*
X178240546Y-123699500D01*
X176740546Y-123699500D01*
X176559454Y-123699500D01*
X176559449Y-123699500D01*
X176380589Y-123727829D01*
X176208363Y-123783787D01*
X176208360Y-123783788D01*
X176047003Y-123866005D01*
X175972884Y-123919855D01*
X175907078Y-123943334D01*
X175839024Y-123927508D01*
X175827116Y-123919855D01*
X175752996Y-123866005D01*
X175591639Y-123783788D01*
X175591636Y-123783787D01*
X175419410Y-123727829D01*
X175240551Y-123699500D01*
X175240546Y-123699500D01*
X173740546Y-123699500D01*
X173559454Y-123699500D01*
X173559449Y-123699500D01*
X173380589Y-123727829D01*
X173208363Y-123783787D01*
X173208360Y-123783788D01*
X173047003Y-123866005D01*
X172985598Y-123910618D01*
X172919792Y-123934097D01*
X172851738Y-123918271D01*
X172825033Y-123897980D01*
X171531893Y-122604840D01*
X171531884Y-122604830D01*
X171527553Y-122600499D01*
X171399501Y-122472447D01*
X171399497Y-122472444D01*
X171399493Y-122472440D01*
X171252997Y-122366006D01*
X171252996Y-122366005D01*
X171252994Y-122366004D01*
X171201300Y-122339664D01*
X171091639Y-122283788D01*
X171091636Y-122283787D01*
X170919410Y-122227829D01*
X170829977Y-122213664D01*
X170740546Y-122199499D01*
X170559454Y-122199499D01*
X170443897Y-122217801D01*
X170374604Y-122208846D01*
X170321152Y-122163850D01*
X170300513Y-122097098D01*
X170300500Y-122095328D01*
X170300500Y-117468872D01*
X173899500Y-117468872D01*
X173899500Y-117731127D01*
X173926123Y-117933339D01*
X173933730Y-117991116D01*
X174001602Y-118244418D01*
X174001605Y-118244428D01*
X174019110Y-118286687D01*
X174019111Y-118286691D01*
X174033601Y-118321676D01*
X174033615Y-118321708D01*
X174101953Y-118486690D01*
X174101957Y-118486697D01*
X174132946Y-118540371D01*
X174160779Y-118588582D01*
X174233071Y-118713795D01*
X174233082Y-118713811D01*
X174281301Y-118776652D01*
X174320179Y-118827318D01*
X174390041Y-118918362D01*
X174392718Y-118921851D01*
X174574171Y-119103304D01*
X174578151Y-119107284D01*
X174672688Y-119179825D01*
X174723355Y-119218703D01*
X174786191Y-119266920D01*
X174786197Y-119266924D01*
X174959630Y-119367055D01*
X175013291Y-119398037D01*
X175013300Y-119398041D01*
X175013303Y-119398043D01*
X175013307Y-119398044D01*
X175013312Y-119398047D01*
X175178280Y-119466379D01*
X175184933Y-119469134D01*
X175255581Y-119498398D01*
X175508884Y-119566270D01*
X175768880Y-119600500D01*
X175768887Y-119600500D01*
X176031113Y-119600500D01*
X176031120Y-119600500D01*
X176291116Y-119566270D01*
X176544419Y-119498398D01*
X176786697Y-119398043D01*
X177013803Y-119266924D01*
X177221851Y-119107282D01*
X177407282Y-118921851D01*
X177566924Y-118713803D01*
X177698043Y-118486697D01*
X177798398Y-118244419D01*
X177866270Y-117991116D01*
X177900500Y-117731120D01*
X177900500Y-117468880D01*
X177866270Y-117208884D01*
X177798398Y-116955581D01*
X177698043Y-116713303D01*
X177698040Y-116713299D01*
X177698037Y-116713291D01*
X177667055Y-116659630D01*
X177667054Y-116659629D01*
X177667049Y-116659620D01*
X177566924Y-116486197D01*
X177566916Y-116486187D01*
X177518703Y-116423355D01*
X177479817Y-116372678D01*
X177407284Y-116278151D01*
X177407272Y-116278139D01*
X177221851Y-116092718D01*
X177127318Y-116020179D01*
X177076652Y-115981301D01*
X177013811Y-115933082D01*
X177013809Y-115933080D01*
X177013803Y-115933076D01*
X177013798Y-115933073D01*
X177013795Y-115933071D01*
X176888585Y-115860781D01*
X176862340Y-115845629D01*
X176786697Y-115801957D01*
X176786695Y-115801956D01*
X176786690Y-115801953D01*
X176621708Y-115733615D01*
X176621708Y-115733614D01*
X176586697Y-115719113D01*
X176586687Y-115719110D01*
X176544428Y-115701605D01*
X176544421Y-115701603D01*
X176544419Y-115701602D01*
X176291116Y-115633730D01*
X176233339Y-115626123D01*
X176031127Y-115599500D01*
X176031120Y-115599500D01*
X175768880Y-115599500D01*
X175768872Y-115599500D01*
X175537772Y-115629926D01*
X175508884Y-115633730D01*
X175489515Y-115638920D01*
X175255577Y-115701603D01*
X175213301Y-115719113D01*
X175213300Y-115719112D01*
X175178330Y-115733597D01*
X175178291Y-115733615D01*
X175013304Y-115801956D01*
X175013301Y-115801957D01*
X174959623Y-115832946D01*
X174959624Y-115832947D01*
X174911422Y-115860777D01*
X174786197Y-115933076D01*
X174786187Y-115933082D01*
X174723349Y-115981300D01*
X174672690Y-116020171D01*
X174672679Y-116020181D01*
X174578141Y-116092724D01*
X174578139Y-116092726D01*
X174508881Y-116161983D01*
X174461983Y-116208881D01*
X174392726Y-116278139D01*
X174392724Y-116278141D01*
X174320181Y-116372679D01*
X174320180Y-116372678D01*
X174281300Y-116423349D01*
X174233082Y-116486187D01*
X174233076Y-116486197D01*
X174160777Y-116611422D01*
X174132949Y-116659620D01*
X174101957Y-116713301D01*
X174101956Y-116713304D01*
X174033615Y-116878291D01*
X174033614Y-116878290D01*
X174019114Y-116913295D01*
X174019113Y-116913301D01*
X174001603Y-116955577D01*
X173933730Y-117208885D01*
X173899500Y-117468872D01*
X170300500Y-117468872D01*
X170300500Y-113377915D01*
X170320185Y-113310876D01*
X170336819Y-113290234D01*
X171090234Y-112536819D01*
X171151557Y-112503334D01*
X171177915Y-112500500D01*
X172240546Y-112500500D01*
X179122085Y-112500500D01*
X179189124Y-112520185D01*
G37*
%TD.AperFunction*%
%TA.AperFunction,NonConductor*%
G36*
X135689124Y-112520185D02*
G01*
X135709766Y-112536819D01*
X136463181Y-113290234D01*
X136496666Y-113351557D01*
X136499500Y-113377915D01*
X136499500Y-122095328D01*
X136479815Y-122162367D01*
X136427011Y-122208122D01*
X136357853Y-122218066D01*
X136356103Y-122217801D01*
X136240546Y-122199499D01*
X136059453Y-122199499D01*
X136005012Y-122208122D01*
X135880589Y-122227829D01*
X135708363Y-122283787D01*
X135708360Y-122283788D01*
X135547002Y-122366006D01*
X135400505Y-122472441D01*
X135400500Y-122472445D01*
X135272444Y-122600502D01*
X133974966Y-123897979D01*
X133913643Y-123931464D01*
X133843951Y-123926480D01*
X133814401Y-123910617D01*
X133752996Y-123866005D01*
X133591639Y-123783788D01*
X133591636Y-123783787D01*
X133419410Y-123727829D01*
X133240551Y-123699500D01*
X133240546Y-123699500D01*
X131740546Y-123699500D01*
X131559454Y-123699500D01*
X131559449Y-123699500D01*
X131380589Y-123727829D01*
X131208363Y-123783787D01*
X131208360Y-123783788D01*
X131047003Y-123866005D01*
X130972884Y-123919855D01*
X130907078Y-123943334D01*
X130839024Y-123927508D01*
X130827116Y-123919855D01*
X130752996Y-123866005D01*
X130591639Y-123783788D01*
X130591636Y-123783787D01*
X130419410Y-123727829D01*
X130240551Y-123699500D01*
X130240546Y-123699500D01*
X128740546Y-123699500D01*
X128559454Y-123699500D01*
X128559449Y-123699500D01*
X128380589Y-123727829D01*
X128208363Y-123783787D01*
X128208360Y-123783788D01*
X128047003Y-123866005D01*
X127985598Y-123910618D01*
X127919792Y-123934097D01*
X127851738Y-123918271D01*
X127825033Y-123897980D01*
X126531893Y-122604840D01*
X126531884Y-122604830D01*
X126527553Y-122600499D01*
X126399501Y-122472447D01*
X126399497Y-122472444D01*
X126399493Y-122472440D01*
X126252997Y-122366006D01*
X126252996Y-122366005D01*
X126252994Y-122366004D01*
X126201300Y-122339664D01*
X126091639Y-122283788D01*
X126091636Y-122283787D01*
X125919410Y-122227829D01*
X125829977Y-122213664D01*
X125740546Y-122199499D01*
X125559454Y-122199499D01*
X125443897Y-122217801D01*
X125374604Y-122208846D01*
X125321152Y-122163850D01*
X125300513Y-122097098D01*
X125300500Y-122095328D01*
X125300500Y-117468872D01*
X128899500Y-117468872D01*
X128899500Y-117731127D01*
X128926123Y-117933339D01*
X128933730Y-117991116D01*
X129001602Y-118244418D01*
X129001605Y-118244428D01*
X129019110Y-118286687D01*
X129019111Y-118286691D01*
X129033601Y-118321676D01*
X129033615Y-118321708D01*
X129101953Y-118486690D01*
X129101957Y-118486697D01*
X129132946Y-118540371D01*
X129160779Y-118588582D01*
X129233071Y-118713795D01*
X129233082Y-118713811D01*
X129281301Y-118776652D01*
X129320179Y-118827318D01*
X129390041Y-118918362D01*
X129392718Y-118921851D01*
X129574171Y-119103304D01*
X129578151Y-119107284D01*
X129672688Y-119179825D01*
X129723355Y-119218703D01*
X129786191Y-119266920D01*
X129786197Y-119266924D01*
X129959630Y-119367055D01*
X130013291Y-119398037D01*
X130013300Y-119398041D01*
X130013303Y-119398043D01*
X130013307Y-119398044D01*
X130013312Y-119398047D01*
X130178280Y-119466379D01*
X130184933Y-119469134D01*
X130255581Y-119498398D01*
X130508884Y-119566270D01*
X130768880Y-119600500D01*
X130768887Y-119600500D01*
X131031113Y-119600500D01*
X131031120Y-119600500D01*
X131291116Y-119566270D01*
X131544419Y-119498398D01*
X131786697Y-119398043D01*
X132013803Y-119266924D01*
X132221851Y-119107282D01*
X132407282Y-118921851D01*
X132566924Y-118713803D01*
X132698043Y-118486697D01*
X132798398Y-118244419D01*
X132866270Y-117991116D01*
X132900500Y-117731120D01*
X132900500Y-117468880D01*
X132866270Y-117208884D01*
X132798398Y-116955581D01*
X132698043Y-116713303D01*
X132698040Y-116713299D01*
X132698037Y-116713291D01*
X132667055Y-116659630D01*
X132667054Y-116659629D01*
X132667049Y-116659620D01*
X132566924Y-116486197D01*
X132566916Y-116486187D01*
X132518703Y-116423355D01*
X132479817Y-116372678D01*
X132407284Y-116278151D01*
X132407272Y-116278139D01*
X132221851Y-116092718D01*
X132127318Y-116020179D01*
X132076652Y-115981301D01*
X132013811Y-115933082D01*
X132013809Y-115933080D01*
X132013803Y-115933076D01*
X132013798Y-115933073D01*
X132013795Y-115933071D01*
X131888585Y-115860781D01*
X131862340Y-115845629D01*
X131786697Y-115801957D01*
X131786695Y-115801956D01*
X131786690Y-115801953D01*
X131621708Y-115733615D01*
X131621708Y-115733614D01*
X131586697Y-115719113D01*
X131586687Y-115719110D01*
X131544428Y-115701605D01*
X131544421Y-115701603D01*
X131544419Y-115701602D01*
X131291116Y-115633730D01*
X131233339Y-115626123D01*
X131031127Y-115599500D01*
X131031120Y-115599500D01*
X130768880Y-115599500D01*
X130768872Y-115599500D01*
X130537772Y-115629926D01*
X130508884Y-115633730D01*
X130489515Y-115638920D01*
X130255577Y-115701603D01*
X130213301Y-115719113D01*
X130213300Y-115719112D01*
X130178330Y-115733597D01*
X130178291Y-115733615D01*
X130013304Y-115801956D01*
X130013301Y-115801957D01*
X129959623Y-115832946D01*
X129959624Y-115832947D01*
X129911422Y-115860777D01*
X129786197Y-115933076D01*
X129786187Y-115933082D01*
X129723349Y-115981300D01*
X129672690Y-116020171D01*
X129672679Y-116020181D01*
X129578141Y-116092724D01*
X129578139Y-116092726D01*
X129508881Y-116161983D01*
X129461983Y-116208881D01*
X129392726Y-116278139D01*
X129392724Y-116278141D01*
X129320181Y-116372679D01*
X129320180Y-116372678D01*
X129281300Y-116423349D01*
X129233082Y-116486187D01*
X129233076Y-116486197D01*
X129160777Y-116611422D01*
X129132949Y-116659620D01*
X129101957Y-116713301D01*
X129101956Y-116713304D01*
X129033615Y-116878291D01*
X129033614Y-116878290D01*
X129019114Y-116913295D01*
X129019113Y-116913301D01*
X129001603Y-116955577D01*
X128933730Y-117208885D01*
X128899500Y-117468872D01*
X125300500Y-117468872D01*
X125300500Y-114104671D01*
X125320185Y-114037632D01*
X125372989Y-113991877D01*
X125442147Y-113981933D01*
X125443875Y-113982194D01*
X125559454Y-114000501D01*
X125559455Y-114000501D01*
X125740545Y-114000501D01*
X125740546Y-114000501D01*
X125919409Y-113972171D01*
X126091639Y-113916211D01*
X126252994Y-113833996D01*
X126252995Y-113833995D01*
X126399501Y-113727553D01*
X126527553Y-113599501D01*
X126527554Y-113599499D01*
X126534614Y-113592439D01*
X126534619Y-113592432D01*
X127590234Y-112536819D01*
X127651557Y-112503334D01*
X127677915Y-112500500D01*
X135622085Y-112500500D01*
X135689124Y-112520185D01*
G37*
%TD.AperFunction*%
M02*
