%TF.GenerationSoftware,KiCad,Pcbnew,9.0.1*%
%TF.CreationDate,2025-06-17T15:03:32+08:00*%
%TF.ProjectId,custom_heater,63757374-6f6d-45f6-9865-617465722e6b,rev?*%
%TF.SameCoordinates,Original*%
%TF.FileFunction,Legend,Top*%
%TF.FilePolarity,Positive*%
%FSLAX46Y46*%
G04 Gerber Fmt 4.6, Leading zero omitted, Abs format (unit mm)*
G04 Created by KiCad (PCBNEW 9.0.1) date 2025-06-17 15:03:32*
%MOMM*%
%LPD*%
G01*
G04 APERTURE LIST*
%ADD10C,0.300000*%
%ADD11C,0.400000*%
G04 APERTURE END LIST*
D10*
X156919162Y-116430576D02*
X156917436Y-116428066D01*
X156917436Y-116428066D02*
X156915711Y-116425555D01*
X156915711Y-116425555D02*
X156913986Y-116423044D01*
X156913986Y-116423044D02*
X156912262Y-116420533D01*
X156912262Y-116420533D02*
X156910538Y-116418022D01*
X156910538Y-116418022D02*
X156908814Y-116415510D01*
X156908814Y-116415510D02*
X156907091Y-116412998D01*
X156907091Y-116412998D02*
X156905368Y-116410486D01*
X156905368Y-116410486D02*
X156903646Y-116407974D01*
X156903646Y-116407974D02*
X156901924Y-116405461D01*
X156901924Y-116405461D02*
X156900202Y-116402948D01*
X156900202Y-116402948D02*
X156898481Y-116400435D01*
X156898481Y-116400435D02*
X156896760Y-116397922D01*
X156896760Y-116397922D02*
X156895039Y-116395408D01*
X156895039Y-116395408D02*
X156893319Y-116392894D01*
X156893319Y-116392894D02*
X156891599Y-116390380D01*
X156891599Y-116390380D02*
X156889880Y-116387865D01*
X156889880Y-116387865D02*
X156888161Y-116385350D01*
X156888161Y-116385350D02*
X156886442Y-116382835D01*
X156886442Y-116382835D02*
X156884724Y-116380320D01*
X156884724Y-116380320D02*
X156883006Y-116377804D01*
X156883006Y-116377804D02*
X156881288Y-116375289D01*
X156881288Y-116375289D02*
X156879571Y-116372773D01*
X156879571Y-116372773D02*
X156877854Y-116370256D01*
X156877854Y-116370256D02*
X156876138Y-116367740D01*
X156876138Y-116367740D02*
X156874422Y-116365223D01*
X156874422Y-116365223D02*
X156872706Y-116362706D01*
X156872706Y-116362706D02*
X156870991Y-116360188D01*
X156870991Y-116360188D02*
X156869276Y-116357671D01*
X156869276Y-116357671D02*
X156867562Y-116355153D01*
X156867562Y-116355153D02*
X156865848Y-116352635D01*
X156865848Y-116352635D02*
X156864134Y-116350116D01*
X156864134Y-116350116D02*
X156862421Y-116347597D01*
X156862421Y-116347597D02*
X156860708Y-116345079D01*
X156860708Y-116345079D02*
X156858995Y-116342559D01*
X156858995Y-116342559D02*
X156857283Y-116340040D01*
X156857283Y-116340040D02*
X156855571Y-116337520D01*
X156855571Y-116337520D02*
X156853860Y-116335000D01*
X156853860Y-116335000D02*
X156852149Y-116332480D01*
X156852149Y-116332480D02*
X156850438Y-116329959D01*
X156850438Y-116329959D02*
X156848728Y-116327439D01*
X156848728Y-116327439D02*
X156847018Y-116324918D01*
X156847018Y-116324918D02*
X156845309Y-116322396D01*
X156845309Y-116322396D02*
X156843600Y-116319875D01*
X156843600Y-116319875D02*
X156841891Y-116317353D01*
X156841891Y-116317353D02*
X156840183Y-116314831D01*
X156840183Y-116314831D02*
X156838475Y-116312308D01*
X156838475Y-116312308D02*
X156836767Y-116309786D01*
X156836767Y-116309786D02*
X156835060Y-116307263D01*
X156835060Y-116307263D02*
X156833353Y-116304740D01*
X156833353Y-116304740D02*
X156831647Y-116302217D01*
X156831647Y-116302217D02*
X156829941Y-116299693D01*
X156829941Y-116299693D02*
X156828235Y-116297169D01*
X156828235Y-116297169D02*
X156826530Y-116294645D01*
X156826530Y-116294645D02*
X156824825Y-116292120D01*
X156824825Y-116292120D02*
X156823121Y-116289596D01*
X156823121Y-116289596D02*
X156821417Y-116287071D01*
X156821417Y-116287071D02*
X156819713Y-116284546D01*
X156819713Y-116284546D02*
X156818010Y-116282020D01*
X156818010Y-116282020D02*
X156816307Y-116279494D01*
X156816307Y-116279494D02*
X156814604Y-116276968D01*
X156814604Y-116276968D02*
X156812902Y-116274442D01*
X156812902Y-116274442D02*
X156811200Y-116271916D01*
X156811200Y-116271916D02*
X156809499Y-116269389D01*
X156809499Y-116269389D02*
X156807798Y-116266862D01*
X156807798Y-116266862D02*
X156806097Y-116264335D01*
X156806097Y-116264335D02*
X156804397Y-116261807D01*
X156804397Y-116261807D02*
X156802697Y-116259279D01*
X156802697Y-116259279D02*
X156800998Y-116256751D01*
X156800998Y-116256751D02*
X156799299Y-116254223D01*
X156799299Y-116254223D02*
X156797600Y-116251695D01*
X156797600Y-116251695D02*
X156795902Y-116249166D01*
X156795902Y-116249166D02*
X156794204Y-116246637D01*
X156794204Y-116246637D02*
X156792506Y-116244107D01*
X156792506Y-116244107D02*
X156790809Y-116241578D01*
X156790809Y-116241578D02*
X156789112Y-116239048D01*
X156789112Y-116239048D02*
X156787416Y-116236518D01*
X156787416Y-116236518D02*
X156785720Y-116233987D01*
X156785720Y-116233987D02*
X156784024Y-116231457D01*
X156784024Y-116231457D02*
X156782329Y-116228926D01*
X156782329Y-116228926D02*
X156780634Y-116226395D01*
X156780634Y-116226395D02*
X156778940Y-116223863D01*
X156778940Y-116223863D02*
X156777246Y-116221332D01*
X156777246Y-116221332D02*
X156775552Y-116218800D01*
X156775552Y-116218800D02*
X156773859Y-116216268D01*
X156773859Y-116216268D02*
X156772166Y-116213735D01*
X156772166Y-116213735D02*
X156770473Y-116211202D01*
X156770473Y-116211202D02*
X156768781Y-116208669D01*
X156768781Y-116208669D02*
X156767090Y-116206136D01*
X156767090Y-116206136D02*
X156765398Y-116203603D01*
X156765398Y-116203603D02*
X156763707Y-116201069D01*
X156763707Y-116201069D02*
X156762017Y-116198535D01*
X156762017Y-116198535D02*
X156760326Y-116196001D01*
X156760326Y-116196001D02*
X156758637Y-116193466D01*
X156758637Y-116193466D02*
X156756947Y-116190932D01*
X156756947Y-116190932D02*
X156755258Y-116188397D01*
X156755258Y-116188397D02*
X156753569Y-116185861D01*
X156753569Y-116185861D02*
X156751881Y-116183326D01*
X156751881Y-116183326D02*
X156750193Y-116180790D01*
X156750193Y-116180790D02*
X156748506Y-116178254D01*
X156748506Y-116178254D02*
X156746819Y-116175718D01*
X156746819Y-116175718D02*
X156745132Y-116173181D01*
X156745132Y-116173181D02*
X156743445Y-116170644D01*
X156743445Y-116170644D02*
X156741760Y-116168107D01*
X156741760Y-116168107D02*
X156740074Y-116165570D01*
X156740074Y-116165570D02*
X156738389Y-116163032D01*
X156738389Y-116163032D02*
X156736704Y-116160495D01*
X156736704Y-116160495D02*
X156735020Y-116157956D01*
X156735020Y-116157956D02*
X156733336Y-116155418D01*
X156733336Y-116155418D02*
X156731652Y-116152879D01*
X156731652Y-116152879D02*
X156729969Y-116150341D01*
X156729969Y-116150341D02*
X156728286Y-116147801D01*
X156728286Y-116147801D02*
X156726603Y-116145262D01*
X156726603Y-116145262D02*
X156724921Y-116142722D01*
X156724921Y-116142722D02*
X156723239Y-116140183D01*
X156723239Y-116140183D02*
X156721558Y-116137642D01*
X156721558Y-116137642D02*
X156719877Y-116135102D01*
X156719877Y-116135102D02*
X156718197Y-116132561D01*
X156718197Y-116132561D02*
X156716516Y-116130020D01*
X156716516Y-116130020D02*
X156714837Y-116127479D01*
X156714837Y-116127479D02*
X156713157Y-116124938D01*
X156713157Y-116124938D02*
X156711478Y-116122396D01*
X156711478Y-116122396D02*
X156709800Y-116119854D01*
X156709800Y-116119854D02*
X156708121Y-116117312D01*
X156708121Y-116117312D02*
X156706444Y-116114770D01*
X156706444Y-116114770D02*
X156704766Y-116112227D01*
X156704766Y-116112227D02*
X156703089Y-116109684D01*
X156703089Y-116109684D02*
X156701412Y-116107141D01*
X156701412Y-116107141D02*
X156699736Y-116104597D01*
X156699736Y-116104597D02*
X156698060Y-116102054D01*
X156698060Y-116102054D02*
X156696385Y-116099510D01*
X156696385Y-116099510D02*
X156694710Y-116096965D01*
X156694710Y-116096965D02*
X156693035Y-116094421D01*
X156693035Y-116094421D02*
X156691361Y-116091876D01*
X156691361Y-116091876D02*
X156689687Y-116089331D01*
X156689687Y-116089331D02*
X156688013Y-116086786D01*
X156688013Y-116086786D02*
X156686340Y-116084240D01*
X156686340Y-116084240D02*
X156684667Y-116081695D01*
X156684667Y-116081695D02*
X156682995Y-116079149D01*
X156682995Y-116079149D02*
X156681323Y-116076602D01*
X156681323Y-116076602D02*
X156679651Y-116074056D01*
X156679651Y-116074056D02*
X156677980Y-116071509D01*
X156677980Y-116071509D02*
X156676309Y-116068962D01*
X156676309Y-116068962D02*
X156674638Y-116066415D01*
X156674638Y-116066415D02*
X156672968Y-116063867D01*
X156672968Y-116063867D02*
X156671299Y-116061319D01*
X156671299Y-116061319D02*
X156669629Y-116058771D01*
X156669629Y-116058771D02*
X156667960Y-116056223D01*
X156667960Y-116056223D02*
X156666292Y-116053674D01*
X156666292Y-116053674D02*
X156664624Y-116051126D01*
X156664624Y-116051126D02*
X156662956Y-116048577D01*
X156662956Y-116048577D02*
X156661289Y-116046027D01*
X156661289Y-116046027D02*
X156659622Y-116043478D01*
X156659622Y-116043478D02*
X156657955Y-116040928D01*
X156657955Y-116040928D02*
X156656289Y-116038378D01*
X156656289Y-116038378D02*
X156654623Y-116035827D01*
X156654623Y-116035827D02*
X156652957Y-116033277D01*
X156652957Y-116033277D02*
X156651292Y-116030726D01*
X156651292Y-116030726D02*
X156649628Y-116028175D01*
X156649628Y-116028175D02*
X156647964Y-116025623D01*
X156647964Y-116025623D02*
X156646300Y-116023072D01*
X156646300Y-116023072D02*
X156644636Y-116020520D01*
X156644636Y-116020520D02*
X156642973Y-116017968D01*
X156642973Y-116017968D02*
X156641310Y-116015416D01*
X156641310Y-116015416D02*
X156639648Y-116012863D01*
X156639648Y-116012863D02*
X156637986Y-116010310D01*
X156637986Y-116010310D02*
X156636325Y-116007757D01*
X156636325Y-116007757D02*
X156634663Y-116005204D01*
X156634663Y-116005204D02*
X156633003Y-116002650D01*
X156633003Y-116002650D02*
X156631342Y-116000096D01*
X156631342Y-116000096D02*
X156629682Y-115997542D01*
X156629682Y-115997542D02*
X156628023Y-115994987D01*
X156628023Y-115994987D02*
X156626364Y-115992433D01*
X156626364Y-115992433D02*
X156624705Y-115989878D01*
X156624705Y-115989878D02*
X156623046Y-115987323D01*
X156623046Y-115987323D02*
X156621388Y-115984767D01*
X156621388Y-115984767D02*
X156619731Y-115982212D01*
X156619731Y-115982212D02*
X156618073Y-115979656D01*
X156618073Y-115979656D02*
X156616416Y-115977100D01*
X156616416Y-115977100D02*
X156614760Y-115974543D01*
X156614760Y-115974543D02*
X156613104Y-115971987D01*
X156613104Y-115971987D02*
X156611448Y-115969430D01*
X156611448Y-115969430D02*
X156609793Y-115966872D01*
X156609793Y-115966872D02*
X156608138Y-115964315D01*
X156608138Y-115964315D02*
X156606483Y-115961757D01*
X156606483Y-115961757D02*
X156604829Y-115959199D01*
X156604829Y-115959199D02*
X156603175Y-115956641D01*
X156603175Y-115956641D02*
X156601522Y-115954083D01*
X156601522Y-115954083D02*
X156599869Y-115951524D01*
X156599869Y-115951524D02*
X156598217Y-115948965D01*
X156598217Y-115948965D02*
X156596564Y-115946406D01*
X156596564Y-115946406D02*
X156594913Y-115943847D01*
X156594913Y-115943847D02*
X156593261Y-115941287D01*
X156593261Y-115941287D02*
X156591610Y-115938727D01*
X156591610Y-115938727D02*
X156589959Y-115936167D01*
X156589959Y-115936167D02*
X156588309Y-115933606D01*
X156588309Y-115933606D02*
X156586659Y-115931046D01*
X156586659Y-115931046D02*
X156585010Y-115928485D01*
X156585010Y-115928485D02*
X156583361Y-115925924D01*
X156583361Y-115925924D02*
X156581712Y-115923362D01*
X156581712Y-115923362D02*
X156580064Y-115920800D01*
X156580064Y-115920800D02*
X156578416Y-115918238D01*
X156578416Y-115918238D02*
X156576768Y-115915676D01*
X156576768Y-115915676D02*
X156575121Y-115913114D01*
X156575121Y-115913114D02*
X156573475Y-115910551D01*
X156573475Y-115910551D02*
X156571828Y-115907988D01*
X156571828Y-115907988D02*
X156570182Y-115905425D01*
X156570182Y-115905425D02*
X156568537Y-115902861D01*
X156568537Y-115902861D02*
X156566892Y-115900298D01*
X156566892Y-115900298D02*
X156565247Y-115897734D01*
X156565247Y-115897734D02*
X156563602Y-115895170D01*
X156563602Y-115895170D02*
X156561958Y-115892605D01*
X156561958Y-115892605D02*
X156560315Y-115890040D01*
X156560315Y-115890040D02*
X156558671Y-115887476D01*
X156558671Y-115887476D02*
X156557029Y-115884910D01*
X156557029Y-115884910D02*
X156555386Y-115882345D01*
X156555386Y-115882345D02*
X156553744Y-115879779D01*
X156553744Y-115879779D02*
X156552103Y-115877213D01*
X156552103Y-115877213D02*
X156550461Y-115874647D01*
X156550461Y-115874647D02*
X156548820Y-115872081D01*
X156548820Y-115872081D02*
X156547180Y-115869514D01*
X156547180Y-115869514D02*
X156545540Y-115866947D01*
X156545540Y-115866947D02*
X156543900Y-115864380D01*
X156543900Y-115864380D02*
X156542261Y-115861812D01*
X156542261Y-115861812D02*
X156540622Y-115859244D01*
X156540622Y-115859244D02*
X156538983Y-115856677D01*
X156538983Y-115856677D02*
X156537345Y-115854108D01*
X156537345Y-115854108D02*
X156535707Y-115851540D01*
X156535707Y-115851540D02*
X156534070Y-115848971D01*
X156534070Y-115848971D02*
X156532433Y-115846402D01*
X156532433Y-115846402D02*
X156530797Y-115843833D01*
X156530797Y-115843833D02*
X156529160Y-115841264D01*
X156529160Y-115841264D02*
X156527525Y-115838694D01*
X156527525Y-115838694D02*
X156525889Y-115836124D01*
X156525889Y-115836124D02*
X156524254Y-115833554D01*
X156524254Y-115833554D02*
X156522620Y-115830983D01*
X156522620Y-115830983D02*
X156520985Y-115828413D01*
X156520985Y-115828413D02*
X156519351Y-115825842D01*
X156519351Y-115825842D02*
X156517718Y-115823270D01*
X156517718Y-115823270D02*
X156516085Y-115820699D01*
X156516085Y-115820699D02*
X156514452Y-115818127D01*
X156514452Y-115818127D02*
X156512820Y-115815555D01*
X156512820Y-115815555D02*
X156511188Y-115812983D01*
X156511188Y-115812983D02*
X156509557Y-115810411D01*
X156509557Y-115810411D02*
X156507926Y-115807838D01*
X156507926Y-115807838D02*
X156506295Y-115805265D01*
X156506295Y-115805265D02*
X156504665Y-115802692D01*
X156504665Y-115802692D02*
X156503035Y-115800118D01*
X156503035Y-115800118D02*
X156501405Y-115797545D01*
X156501405Y-115797545D02*
X156499776Y-115794971D01*
X156499776Y-115794971D02*
X156498147Y-115792397D01*
X156498147Y-115792397D02*
X156496519Y-115789822D01*
X156496519Y-115789822D02*
X156494891Y-115787248D01*
X156494891Y-115787248D02*
X156493263Y-115784673D01*
X156493263Y-115784673D02*
X156491636Y-115782098D01*
X156491636Y-115782098D02*
X156490009Y-115779522D01*
X156490009Y-115779522D02*
X156488383Y-115776946D01*
X156488383Y-115776946D02*
X156486757Y-115774371D01*
X156486757Y-115774371D02*
X156485131Y-115771794D01*
X156485131Y-115771794D02*
X156483506Y-115769218D01*
X156483506Y-115769218D02*
X156481881Y-115766641D01*
X156481881Y-115766641D02*
X156480257Y-115764064D01*
X156480257Y-115764064D02*
X156478633Y-115761487D01*
X156478633Y-115761487D02*
X156477009Y-115758910D01*
X156477009Y-115758910D02*
X156475386Y-115756332D01*
X156475386Y-115756332D02*
X156473763Y-115753754D01*
X156473763Y-115753754D02*
X156472141Y-115751176D01*
X156472141Y-115751176D02*
X156470519Y-115748598D01*
X156470519Y-115748598D02*
X156468897Y-115746019D01*
X156468897Y-115746019D02*
X156467276Y-115743440D01*
X156467276Y-115743440D02*
X156465655Y-115740861D01*
X156465655Y-115740861D02*
X156464034Y-115738282D01*
X156464034Y-115738282D02*
X156462414Y-115735702D01*
X156462414Y-115735702D02*
X156460795Y-115733122D01*
X156460795Y-115733122D02*
X156459175Y-115730542D01*
X156459175Y-115730542D02*
X156457556Y-115727962D01*
X156457556Y-115727962D02*
X156455938Y-115725381D01*
X156455938Y-115725381D02*
X156454320Y-115722800D01*
X156454320Y-115722800D02*
X156452702Y-115720219D01*
X156452702Y-115720219D02*
X156451084Y-115717638D01*
X156451084Y-115717638D02*
X156449468Y-115715056D01*
X156449468Y-115715056D02*
X156447851Y-115712475D01*
X156447851Y-115712475D02*
X156446235Y-115709892D01*
X156446235Y-115709892D02*
X156444619Y-115707310D01*
X156444619Y-115707310D02*
X156443004Y-115704728D01*
X156443004Y-115704728D02*
X156441389Y-115702145D01*
X156441389Y-115702145D02*
X156439774Y-115699562D01*
X156439774Y-115699562D02*
X156438160Y-115696978D01*
X156438160Y-115696978D02*
X156436546Y-115694395D01*
X156436546Y-115694395D02*
X156434933Y-115691811D01*
X156434933Y-115691811D02*
X156433320Y-115689227D01*
X156433320Y-115689227D02*
X156431707Y-115686643D01*
X156431707Y-115686643D02*
X156430095Y-115684058D01*
X156430095Y-115684058D02*
X156428483Y-115681473D01*
X156428483Y-115681473D02*
X156426871Y-115678888D01*
X156426871Y-115678888D02*
X156425260Y-115676303D01*
X156425260Y-115676303D02*
X156423650Y-115673717D01*
X156423650Y-115673717D02*
X156422039Y-115671132D01*
X156422039Y-115671132D02*
X156420429Y-115668546D01*
X156420429Y-115668546D02*
X156418820Y-115665959D01*
X156418820Y-115665959D02*
X156417211Y-115663373D01*
X156417211Y-115663373D02*
X156415602Y-115660786D01*
X156415602Y-115660786D02*
X156413994Y-115658199D01*
X156413994Y-115658199D02*
X156412386Y-115655612D01*
X156412386Y-115655612D02*
X156410778Y-115653024D01*
X156410778Y-115653024D02*
X156409171Y-115650437D01*
X156409171Y-115650437D02*
X156407565Y-115647849D01*
X156407565Y-115647849D02*
X156405958Y-115645261D01*
X156405958Y-115645261D02*
X156404352Y-115642672D01*
X156404352Y-115642672D02*
X156402747Y-115640083D01*
X156402747Y-115640083D02*
X156401142Y-115637494D01*
X156401142Y-115637494D02*
X156399537Y-115634905D01*
X156399537Y-115634905D02*
X156397933Y-115632316D01*
X156397933Y-115632316D02*
X156396329Y-115629726D01*
X156396329Y-115629726D02*
X156394725Y-115627136D01*
X156394725Y-115627136D02*
X156393122Y-115624546D01*
X156393122Y-115624546D02*
X156391519Y-115621956D01*
X156391519Y-115621956D02*
X156389917Y-115619365D01*
X156389917Y-115619365D02*
X156388315Y-115616774D01*
X156388315Y-115616774D02*
X156386713Y-115614183D01*
X156386713Y-115614183D02*
X156385112Y-115611591D01*
X156385112Y-115611591D02*
X156383511Y-115609000D01*
X156383511Y-115609000D02*
X156381911Y-115606408D01*
X156381911Y-115606408D02*
X156380311Y-115603816D01*
X156380311Y-115603816D02*
X156378711Y-115601223D01*
X156378711Y-115601223D02*
X156377112Y-115598631D01*
X156377112Y-115598631D02*
X156375513Y-115596038D01*
X156375513Y-115596038D02*
X156373914Y-115593445D01*
X156373914Y-115593445D02*
X156372316Y-115590852D01*
X156372316Y-115590852D02*
X156370719Y-115588258D01*
X156370719Y-115588258D02*
X156369122Y-115585664D01*
X156369122Y-115585664D02*
X156367525Y-115583070D01*
X156367525Y-115583070D02*
X156365928Y-115580476D01*
X156365928Y-115580476D02*
X156364332Y-115577881D01*
X156364332Y-115577881D02*
X156362736Y-115575286D01*
X156362736Y-115575286D02*
X156361141Y-115572691D01*
X156361141Y-115572691D02*
X156359546Y-115570096D01*
X156359546Y-115570096D02*
X156357952Y-115567501D01*
X156357952Y-115567501D02*
X156356358Y-115564905D01*
X156356358Y-115564905D02*
X156354764Y-115562309D01*
X156354764Y-115562309D02*
X156353171Y-115559712D01*
X156353171Y-115559712D02*
X156351578Y-115557116D01*
X156351578Y-115557116D02*
X156349985Y-115554519D01*
X156349985Y-115554519D02*
X156348393Y-115551922D01*
X156348393Y-115551922D02*
X156346801Y-115549325D01*
X156346801Y-115549325D02*
X156345210Y-115546728D01*
X156345210Y-115546728D02*
X156343619Y-115544130D01*
X156343619Y-115544130D02*
X156342029Y-115541532D01*
X156342029Y-115541532D02*
X156340439Y-115538934D01*
X156340439Y-115538934D02*
X156338849Y-115536335D01*
X156338849Y-115536335D02*
X156337259Y-115533737D01*
X156337259Y-115533737D02*
X156335670Y-115531138D01*
X156335670Y-115531138D02*
X156334082Y-115528538D01*
X156334082Y-115528538D02*
X156332494Y-115525939D01*
X156332494Y-115525939D02*
X156330906Y-115523339D01*
X156330906Y-115523339D02*
X156329319Y-115520740D01*
X156329319Y-115520740D02*
X156327732Y-115518139D01*
X156327732Y-115518139D02*
X156326145Y-115515539D01*
X156326145Y-115515539D02*
X156324559Y-115512938D01*
X156324559Y-115512938D02*
X156322973Y-115510338D01*
X156322973Y-115510338D02*
X156321388Y-115507736D01*
X156321388Y-115507736D02*
X156319803Y-115505135D01*
X156319803Y-115505135D02*
X156318218Y-115502533D01*
X156318218Y-115502533D02*
X156316634Y-115499932D01*
X156316634Y-115499932D02*
X156315050Y-115497330D01*
X156315050Y-115497330D02*
X156313467Y-115494727D01*
X156313467Y-115494727D02*
X156311884Y-115492125D01*
X156311884Y-115492125D02*
X156310301Y-115489522D01*
X156310301Y-115489522D02*
X156308719Y-115486919D01*
X156308719Y-115486919D02*
X156307137Y-115484316D01*
X156307137Y-115484316D02*
X156305556Y-115481712D01*
X156305556Y-115481712D02*
X156303975Y-115479108D01*
X156303975Y-115479108D02*
X156302394Y-115476504D01*
X156302394Y-115476504D02*
X156300814Y-115473900D01*
X156300814Y-115473900D02*
X156299234Y-115471296D01*
X156299234Y-115471296D02*
X156297655Y-115468691D01*
X156297655Y-115468691D02*
X156296075Y-115466086D01*
X156296075Y-115466086D02*
X156294497Y-115463481D01*
X156294497Y-115463481D02*
X156292919Y-115460875D01*
X156292919Y-115460875D02*
X156291341Y-115458270D01*
X156291341Y-115458270D02*
X156289763Y-115455664D01*
X156289763Y-115455664D02*
X156288186Y-115453058D01*
X156288186Y-115453058D02*
X156286610Y-115450451D01*
X156286610Y-115450451D02*
X156285033Y-115447845D01*
X156285033Y-115447845D02*
X156283457Y-115445238D01*
X156283457Y-115445238D02*
X156281882Y-115442631D01*
X156281882Y-115442631D02*
X156280307Y-115440023D01*
X156280307Y-115440023D02*
X156278732Y-115437416D01*
X156278732Y-115437416D02*
X156277158Y-115434808D01*
X156277158Y-115434808D02*
X156275584Y-115432200D01*
X156275584Y-115432200D02*
X156274011Y-115429591D01*
X156274011Y-115429591D02*
X156272437Y-115426983D01*
X156272437Y-115426983D02*
X156270865Y-115424374D01*
X156270865Y-115424374D02*
X156269292Y-115421765D01*
X156269292Y-115421765D02*
X156267721Y-115419156D01*
X156267721Y-115419156D02*
X156266149Y-115416546D01*
X156266149Y-115416546D02*
X156264578Y-115413936D01*
X156264578Y-115413936D02*
X156263007Y-115411326D01*
X156263007Y-115411326D02*
X156261437Y-115408716D01*
X156261437Y-115408716D02*
X156259867Y-115406106D01*
X156259867Y-115406106D02*
X156258298Y-115403495D01*
X156258298Y-115403495D02*
X156256728Y-115400884D01*
X156256728Y-115400884D02*
X156255160Y-115398273D01*
X156255160Y-115398273D02*
X156253591Y-115395661D01*
X156253591Y-115395661D02*
X156252023Y-115393050D01*
X156252023Y-115393050D02*
X156250456Y-115390438D01*
X156250456Y-115390438D02*
X156248889Y-115387826D01*
X156248889Y-115387826D02*
X156247322Y-115385213D01*
X156247322Y-115385213D02*
X156245756Y-115382601D01*
X156245756Y-115382601D02*
X156244190Y-115379988D01*
X156244190Y-115379988D02*
X156242624Y-115377375D01*
X156242624Y-115377375D02*
X156241059Y-115374761D01*
X156241059Y-115374761D02*
X156239494Y-115372148D01*
X156239494Y-115372148D02*
X156237930Y-115369534D01*
X156237930Y-115369534D02*
X156236366Y-115366920D01*
X156236366Y-115366920D02*
X156234803Y-115364306D01*
X156234803Y-115364306D02*
X156233239Y-115361691D01*
X156233239Y-115361691D02*
X156231677Y-115359076D01*
X156231677Y-115359076D02*
X156230114Y-115356461D01*
X156230114Y-115356461D02*
X156228552Y-115353846D01*
X156228552Y-115353846D02*
X156226991Y-115351231D01*
X156226991Y-115351231D02*
X156225430Y-115348615D01*
X156225430Y-115348615D02*
X156223869Y-115345999D01*
X156223869Y-115345999D02*
X156222309Y-115343383D01*
X156222309Y-115343383D02*
X156220749Y-115340766D01*
X156220749Y-115340766D02*
X156219189Y-115338150D01*
X156219189Y-115338150D02*
X156217630Y-115335533D01*
X156217630Y-115335533D02*
X156216071Y-115332916D01*
X156216071Y-115332916D02*
X156214513Y-115330298D01*
X156214513Y-115330298D02*
X156212955Y-115327681D01*
X156212955Y-115327681D02*
X156211397Y-115325063D01*
X156211397Y-115325063D02*
X156209840Y-115322445D01*
X156209840Y-115322445D02*
X156208283Y-115319826D01*
X156208283Y-115319826D02*
X156206727Y-115317208D01*
X156206727Y-115317208D02*
X156205171Y-115314589D01*
X156205171Y-115314589D02*
X156203615Y-115311970D01*
X156203615Y-115311970D02*
X156202060Y-115309351D01*
X156202060Y-115309351D02*
X156200505Y-115306731D01*
X156200505Y-115306731D02*
X156198951Y-115304111D01*
X156198951Y-115304111D02*
X156197397Y-115301491D01*
X156197397Y-115301491D02*
X156195844Y-115298871D01*
X156195844Y-115298871D02*
X156194290Y-115296251D01*
X156194290Y-115296251D02*
X156192738Y-115293630D01*
X156192738Y-115293630D02*
X156191185Y-115291009D01*
X156191185Y-115291009D02*
X156189633Y-115288388D01*
X156189633Y-115288388D02*
X156188082Y-115285767D01*
X156188082Y-115285767D02*
X156186530Y-115283145D01*
X156186530Y-115283145D02*
X156184980Y-115280523D01*
X156184980Y-115280523D02*
X156183429Y-115277901D01*
X156183429Y-115277901D02*
X156181879Y-115275279D01*
X156181879Y-115275279D02*
X156180330Y-115272656D01*
X156180330Y-115272656D02*
X156178781Y-115270033D01*
X156178781Y-115270033D02*
X156177232Y-115267410D01*
X156177232Y-115267410D02*
X156175683Y-115264787D01*
X156175683Y-115264787D02*
X156174135Y-115262163D01*
X156174135Y-115262163D02*
X156172588Y-115259540D01*
X156172588Y-115259540D02*
X156171041Y-115256916D01*
X156171041Y-115256916D02*
X156169494Y-115254291D01*
X156169494Y-115254291D02*
X156167947Y-115251667D01*
X156167947Y-115251667D02*
X156166401Y-115249042D01*
X156166401Y-115249042D02*
X156164856Y-115246417D01*
X156164856Y-115246417D02*
X156163311Y-115243792D01*
X156163311Y-115243792D02*
X156161766Y-115241167D01*
X156161766Y-115241167D02*
X156160222Y-115238541D01*
X156160222Y-115238541D02*
X156158678Y-115235915D01*
X156158678Y-115235915D02*
X156157134Y-115233289D01*
X156157134Y-115233289D02*
X156155591Y-115230663D01*
X156155591Y-115230663D02*
X156154048Y-115228036D01*
X156154048Y-115228036D02*
X156152506Y-115225409D01*
X156152506Y-115225409D02*
X156150964Y-115222782D01*
X156150964Y-115222782D02*
X156149422Y-115220155D01*
X156149422Y-115220155D02*
X156147881Y-115217527D01*
X156147881Y-115217527D02*
X156146340Y-115214899D01*
X156146340Y-115214899D02*
X156144800Y-115212271D01*
X156144800Y-115212271D02*
X156143260Y-115209643D01*
X156143260Y-115209643D02*
X156141720Y-115207015D01*
X156141720Y-115207015D02*
X156140181Y-115204386D01*
X156140181Y-115204386D02*
X156138642Y-115201757D01*
X156138642Y-115201757D02*
X156137104Y-115199128D01*
X156137104Y-115199128D02*
X156135566Y-115196499D01*
X156135566Y-115196499D02*
X156134028Y-115193869D01*
X156134028Y-115193869D02*
X156132491Y-115191239D01*
X156132491Y-115191239D02*
X156130954Y-115188609D01*
X156130954Y-115188609D02*
X156129418Y-115185979D01*
X156129418Y-115185979D02*
X156127882Y-115183348D01*
X156127882Y-115183348D02*
X156126346Y-115180717D01*
X156126346Y-115180717D02*
X156124811Y-115178086D01*
X156124811Y-115178086D02*
X156123276Y-115175455D01*
X156123276Y-115175455D02*
X156121742Y-115172823D01*
X156121742Y-115172823D02*
X156120208Y-115170192D01*
X156120208Y-115170192D02*
X156118674Y-115167560D01*
X156118674Y-115167560D02*
X156117141Y-115164927D01*
X156117141Y-115164927D02*
X156115608Y-115162295D01*
X156115608Y-115162295D02*
X156114076Y-115159662D01*
X156114076Y-115159662D02*
X156112544Y-115157029D01*
X156112544Y-115157029D02*
X156111012Y-115154396D01*
X156111012Y-115154396D02*
X156109481Y-115151763D01*
X156109481Y-115151763D02*
X156107951Y-115149129D01*
X156107951Y-115149129D02*
X156106420Y-115146495D01*
X156106420Y-115146495D02*
X156104890Y-115143861D01*
X156104890Y-115143861D02*
X156103361Y-115141227D01*
X156103361Y-115141227D02*
X156101831Y-115138592D01*
X156101831Y-115138592D02*
X156100303Y-115135958D01*
X156100303Y-115135958D02*
X156098774Y-115133323D01*
X156098774Y-115133323D02*
X156097246Y-115130687D01*
X156097246Y-115130687D02*
X156095719Y-115128052D01*
X156095719Y-115128052D02*
X156094192Y-115125416D01*
X156094192Y-115125416D02*
X156092665Y-115122780D01*
X156092665Y-115122780D02*
X156091139Y-115120144D01*
X156091139Y-115120144D02*
X156089613Y-115117508D01*
X156089613Y-115117508D02*
X156088087Y-115114871D01*
X156088087Y-115114871D02*
X156086562Y-115112234D01*
X156086562Y-115112234D02*
X156085037Y-115109597D01*
X156085037Y-115109597D02*
X156083513Y-115106960D01*
X156083513Y-115106960D02*
X156081989Y-115104322D01*
X156081989Y-115104322D02*
X156080465Y-115101684D01*
X156080465Y-115101684D02*
X156078942Y-115099046D01*
X156078942Y-115099046D02*
X156077419Y-115096408D01*
X156077419Y-115096408D02*
X156075897Y-115093770D01*
X156075897Y-115093770D02*
X156074375Y-115091131D01*
X156074375Y-115091131D02*
X156072854Y-115088492D01*
X156072854Y-115088492D02*
X156071332Y-115085853D01*
X156071332Y-115085853D02*
X156069812Y-115083213D01*
X156069812Y-115083213D02*
X156068291Y-115080574D01*
X156068291Y-115080574D02*
X156066771Y-115077934D01*
X156066771Y-115077934D02*
X156065252Y-115075294D01*
X156065252Y-115075294D02*
X156063733Y-115072653D01*
X156063733Y-115072653D02*
X156062214Y-115070013D01*
X156062214Y-115070013D02*
X156060696Y-115067372D01*
X156060696Y-115067372D02*
X156059178Y-115064731D01*
X156059178Y-115064731D02*
X156057660Y-115062090D01*
X156057660Y-115062090D02*
X156056143Y-115059448D01*
X156056143Y-115059448D02*
X156054627Y-115056806D01*
X156054627Y-115056806D02*
X156053110Y-115054164D01*
X156053110Y-115054164D02*
X156051594Y-115051522D01*
X156051594Y-115051522D02*
X156050079Y-115048880D01*
X156050079Y-115048880D02*
X156048564Y-115046237D01*
X156048564Y-115046237D02*
X156047049Y-115043594D01*
X156047049Y-115043594D02*
X156045535Y-115040951D01*
X156045535Y-115040951D02*
X156044021Y-115038308D01*
X156044021Y-115038308D02*
X156042507Y-115035664D01*
X156042507Y-115035664D02*
X156040994Y-115033020D01*
X156040994Y-115033020D02*
X156039482Y-115030376D01*
X156039482Y-115030376D02*
X156037969Y-115027732D01*
X156037969Y-115027732D02*
X156036457Y-115025088D01*
X156036457Y-115025088D02*
X156034946Y-115022443D01*
X156034946Y-115022443D02*
X156033435Y-115019798D01*
X156033435Y-115019798D02*
X156031924Y-115017153D01*
X156031924Y-115017153D02*
X156030414Y-115014507D01*
X156030414Y-115014507D02*
X156028904Y-115011862D01*
X156028904Y-115011862D02*
X156027395Y-115009216D01*
X156027395Y-115009216D02*
X156025886Y-115006570D01*
X156025886Y-115006570D02*
X156024377Y-115003923D01*
X156024377Y-115003923D02*
X156022869Y-115001277D01*
X156022869Y-115001277D02*
X156021361Y-114998630D01*
X156021361Y-114998630D02*
X156019853Y-114995983D01*
X156019853Y-114995983D02*
X156018346Y-114993336D01*
X156018346Y-114993336D02*
X156016840Y-114990688D01*
X156016840Y-114990688D02*
X156015333Y-114988040D01*
X156015333Y-114988040D02*
X156013828Y-114985392D01*
X156013828Y-114985392D02*
X156012322Y-114982744D01*
X156012322Y-114982744D02*
X156010817Y-114980096D01*
X156010817Y-114980096D02*
X156009313Y-114977447D01*
X156009313Y-114977447D02*
X156007808Y-114974798D01*
X156007808Y-114974798D02*
X156006304Y-114972149D01*
X156006304Y-114972149D02*
X156004801Y-114969500D01*
X156004801Y-114969500D02*
X156003298Y-114966850D01*
X156003298Y-114966850D02*
X156001795Y-114964201D01*
X156001795Y-114964201D02*
X156000293Y-114961551D01*
X156000293Y-114961551D02*
X155998791Y-114958900D01*
X155998791Y-114958900D02*
X155997290Y-114956250D01*
X155997290Y-114956250D02*
X155995789Y-114953599D01*
X155995789Y-114953599D02*
X155994288Y-114950948D01*
X155994288Y-114950948D02*
X155992788Y-114948297D01*
X155992788Y-114948297D02*
X155991289Y-114945646D01*
X155991289Y-114945646D02*
X155989789Y-114942994D01*
X155989789Y-114942994D02*
X155988290Y-114940342D01*
X155988290Y-114940342D02*
X155986792Y-114937690D01*
X155986792Y-114937690D02*
X155985293Y-114935038D01*
X155985293Y-114935038D02*
X155983796Y-114932385D01*
X155983796Y-114932385D02*
X155982298Y-114929733D01*
X155982298Y-114929733D02*
X155980801Y-114927080D01*
X155980801Y-114927080D02*
X155979305Y-114924426D01*
X155979305Y-114924426D02*
X155977809Y-114921773D01*
X155977809Y-114921773D02*
X155976313Y-114919119D01*
X155976313Y-114919119D02*
X155974818Y-114916465D01*
X155974818Y-114916465D02*
X155973323Y-114913811D01*
X155973323Y-114913811D02*
X155971828Y-114911157D01*
X155971828Y-114911157D02*
X155970334Y-114908502D01*
X155970334Y-114908502D02*
X155968840Y-114905847D01*
X155968840Y-114905847D02*
X155967347Y-114903192D01*
X155967347Y-114903192D02*
X155965854Y-114900537D01*
X155965854Y-114900537D02*
X155964362Y-114897882D01*
X155964362Y-114897882D02*
X155962869Y-114895226D01*
X155962869Y-114895226D02*
X155961378Y-114892570D01*
X155961378Y-114892570D02*
X155959886Y-114889914D01*
X155959886Y-114889914D02*
X155958396Y-114887258D01*
X155958396Y-114887258D02*
X155956905Y-114884601D01*
X155956905Y-114884601D02*
X155955415Y-114881944D01*
X155955415Y-114881944D02*
X155953925Y-114879287D01*
X155953925Y-114879287D02*
X155952436Y-114876630D01*
X155952436Y-114876630D02*
X155950947Y-114873972D01*
X155950947Y-114873972D02*
X155949459Y-114871314D01*
X155949459Y-114871314D02*
X155947971Y-114868656D01*
X155947971Y-114868656D02*
X155946483Y-114865998D01*
X155946483Y-114865998D02*
X155944996Y-114863340D01*
X155944996Y-114863340D02*
X155943509Y-114860681D01*
X155943509Y-114860681D02*
X155942023Y-114858022D01*
X155942023Y-114858022D02*
X155940537Y-114855363D01*
X155940537Y-114855363D02*
X155939051Y-114852704D01*
X155939051Y-114852704D02*
X155937566Y-114850044D01*
X155937566Y-114850044D02*
X155936081Y-114847384D01*
X155936081Y-114847384D02*
X155934596Y-114844724D01*
X155934596Y-114844724D02*
X155933112Y-114842064D01*
X155933112Y-114842064D02*
X155931629Y-114839404D01*
X155931629Y-114839404D02*
X155930146Y-114836743D01*
X155930146Y-114836743D02*
X155928663Y-114834082D01*
X155928663Y-114834082D02*
X155927180Y-114831421D01*
X155927180Y-114831421D02*
X155925699Y-114828759D01*
X155925699Y-114828759D02*
X155924217Y-114826098D01*
X155924217Y-114826098D02*
X155922736Y-114823436D01*
X155922736Y-114823436D02*
X155921255Y-114820774D01*
X155921255Y-114820774D02*
X155919775Y-114818112D01*
X155919775Y-114818112D02*
X155918295Y-114815449D01*
X155918295Y-114815449D02*
X155916815Y-114812786D01*
X155916815Y-114812786D02*
X155915336Y-114810124D01*
X155915336Y-114810124D02*
X155913857Y-114807460D01*
X155913857Y-114807460D02*
X155912379Y-114804797D01*
X155912379Y-114804797D02*
X155910901Y-114802133D01*
X155910901Y-114802133D02*
X155909424Y-114799469D01*
X155909424Y-114799469D02*
X155907946Y-114796805D01*
X155907946Y-114796805D02*
X155906470Y-114794141D01*
X155906470Y-114794141D02*
X155904993Y-114791477D01*
X155904993Y-114791477D02*
X155903518Y-114788812D01*
X155903518Y-114788812D02*
X155902042Y-114786147D01*
X155902042Y-114786147D02*
X155900567Y-114783482D01*
X155900567Y-114783482D02*
X155899092Y-114780816D01*
X155899092Y-114780816D02*
X155897618Y-114778151D01*
X155897618Y-114778151D02*
X155896144Y-114775485D01*
X155896144Y-114775485D02*
X155894671Y-114772819D01*
X155894671Y-114772819D02*
X155893198Y-114770152D01*
X155893198Y-114770152D02*
X155891725Y-114767486D01*
X155891725Y-114767486D02*
X155890253Y-114764819D01*
X155890253Y-114764819D02*
X155888781Y-114762152D01*
X155888781Y-114762152D02*
X155887309Y-114759485D01*
X155887309Y-114759485D02*
X155885838Y-114756817D01*
X155885838Y-114756817D02*
X155884368Y-114754150D01*
X155884368Y-114754150D02*
X155882898Y-114751482D01*
X155882898Y-114751482D02*
X155881428Y-114748814D01*
X155881428Y-114748814D02*
X155879958Y-114746145D01*
X155879958Y-114746145D02*
X155878489Y-114743477D01*
X155878489Y-114743477D02*
X155877021Y-114740808D01*
X155877021Y-114740808D02*
X155875553Y-114738139D01*
X155875553Y-114738139D02*
X155874085Y-114735470D01*
X155874085Y-114735470D02*
X155872618Y-114732800D01*
X155872618Y-114732800D02*
X155871151Y-114730130D01*
X155871151Y-114730130D02*
X155869684Y-114727461D01*
X155869684Y-114727461D02*
X155868218Y-114724790D01*
X155868218Y-114724790D02*
X155866752Y-114722120D01*
X155866752Y-114722120D02*
X155865287Y-114719449D01*
X155865287Y-114719449D02*
X155863822Y-114716779D01*
X155863822Y-114716779D02*
X155862357Y-114714108D01*
X155862357Y-114714108D02*
X155860893Y-114711436D01*
X155860893Y-114711436D02*
X155859430Y-114708765D01*
X155859430Y-114708765D02*
X155857966Y-114706093D01*
X155857966Y-114706093D02*
X155856503Y-114703421D01*
X155856503Y-114703421D02*
X155855041Y-114700749D01*
X155855041Y-114700749D02*
X155853579Y-114698077D01*
X155853579Y-114698077D02*
X155852117Y-114695404D01*
X155852117Y-114695404D02*
X155850656Y-114692731D01*
X155850656Y-114692731D02*
X155849195Y-114690058D01*
X155849195Y-114690058D02*
X155847735Y-114687385D01*
X155847735Y-114687385D02*
X155846275Y-114684712D01*
X155846275Y-114684712D02*
X155844815Y-114682038D01*
X155844815Y-114682038D02*
X155843356Y-114679364D01*
X155843356Y-114679364D02*
X155841897Y-114676690D01*
X155841897Y-114676690D02*
X155840439Y-114674016D01*
X155840439Y-114674016D02*
X155838981Y-114671341D01*
X155838981Y-114671341D02*
X155837523Y-114668666D01*
X155837523Y-114668666D02*
X155836066Y-114665991D01*
X155836066Y-114665991D02*
X155834609Y-114663316D01*
X155834609Y-114663316D02*
X155833153Y-114660640D01*
X155833153Y-114660640D02*
X155831697Y-114657965D01*
X155831697Y-114657965D02*
X155830241Y-114655289D01*
X155830241Y-114655289D02*
X155828786Y-114652613D01*
X155828786Y-114652613D02*
X155827331Y-114649936D01*
X155827331Y-114649936D02*
X155825877Y-114647260D01*
X155825877Y-114647260D02*
X155824423Y-114644583D01*
X155824423Y-114644583D02*
X155822969Y-114641906D01*
X155822969Y-114641906D02*
X155821516Y-114639229D01*
X155821516Y-114639229D02*
X155820064Y-114636551D01*
X155820064Y-114636551D02*
X155818611Y-114633874D01*
X155818611Y-114633874D02*
X155817159Y-114631196D01*
X155817159Y-114631196D02*
X155815708Y-114628517D01*
X155815708Y-114628517D02*
X155814257Y-114625839D01*
X155814257Y-114625839D02*
X155812806Y-114623161D01*
X155812806Y-114623161D02*
X155811356Y-114620482D01*
X155811356Y-114620482D02*
X155809906Y-114617803D01*
X155809906Y-114617803D02*
X155808457Y-114615124D01*
X155808457Y-114615124D02*
X155807008Y-114612444D01*
X155807008Y-114612444D02*
X155805559Y-114609764D01*
X155805559Y-114609764D02*
X155804111Y-114607084D01*
X155804111Y-114607084D02*
X155802663Y-114604404D01*
X155802663Y-114604404D02*
X155801216Y-114601724D01*
X155801216Y-114601724D02*
X155799769Y-114599043D01*
X155799769Y-114599043D02*
X155798322Y-114596363D01*
X155798322Y-114596363D02*
X155796876Y-114593682D01*
X155796876Y-114593682D02*
X155795430Y-114591000D01*
X155795430Y-114591000D02*
X155793985Y-114588319D01*
X155793985Y-114588319D02*
X155792540Y-114585637D01*
X155792540Y-114585637D02*
X155791095Y-114582955D01*
X155791095Y-114582955D02*
X155789651Y-114580273D01*
X155789651Y-114580273D02*
X155788207Y-114577591D01*
X155788207Y-114577591D02*
X155786764Y-114574909D01*
X155786764Y-114574909D02*
X155785321Y-114572226D01*
X155785321Y-114572226D02*
X155783879Y-114569543D01*
X155783879Y-114569543D02*
X155782437Y-114566860D01*
X155782437Y-114566860D02*
X155780995Y-114564176D01*
X155780995Y-114564176D02*
X155779554Y-114561493D01*
X155779554Y-114561493D02*
X155778113Y-114558809D01*
X155778113Y-114558809D02*
X155776672Y-114556125D01*
X155776672Y-114556125D02*
X155775232Y-114553440D01*
X155775232Y-114553440D02*
X155773793Y-114550756D01*
X155773793Y-114550756D02*
X155772353Y-114548071D01*
X155772353Y-114548071D02*
X155770915Y-114545386D01*
X155770915Y-114545386D02*
X155769476Y-114542701D01*
X155769476Y-114542701D02*
X155768038Y-114540016D01*
X155768038Y-114540016D02*
X155766601Y-114537330D01*
X155766601Y-114537330D02*
X155765163Y-114534644D01*
X155765163Y-114534644D02*
X155763727Y-114531958D01*
X155763727Y-114531958D02*
X155762290Y-114529272D01*
X155762290Y-114529272D02*
X155760854Y-114526585D01*
X155760854Y-114526585D02*
X155759419Y-114523899D01*
X155759419Y-114523899D02*
X155757984Y-114521212D01*
X155757984Y-114521212D02*
X155756549Y-114518525D01*
X155756549Y-114518525D02*
X155755115Y-114515837D01*
X155755115Y-114515837D02*
X155753681Y-114513150D01*
X155753681Y-114513150D02*
X155752247Y-114510462D01*
X155752247Y-114510462D02*
X155750814Y-114507774D01*
X155750814Y-114507774D02*
X155749381Y-114505086D01*
X155749381Y-114505086D02*
X155747949Y-114502397D01*
X155747949Y-114502397D02*
X155746517Y-114499708D01*
X155746517Y-114499708D02*
X155745086Y-114497020D01*
X155745086Y-114497020D02*
X155743655Y-114494330D01*
X155743655Y-114494330D02*
X155742224Y-114491641D01*
X155742224Y-114491641D02*
X155740794Y-114488952D01*
X155740794Y-114488952D02*
X155739364Y-114486262D01*
X155739364Y-114486262D02*
X155737935Y-114483572D01*
X155737935Y-114483572D02*
X155736506Y-114480882D01*
X155736506Y-114480882D02*
X155735077Y-114478191D01*
X155735077Y-114478191D02*
X155733649Y-114475501D01*
X155733649Y-114475501D02*
X155732221Y-114472810D01*
X155732221Y-114472810D02*
X155730794Y-114470119D01*
X155730794Y-114470119D02*
X155729367Y-114467427D01*
X155729367Y-114467427D02*
X155727940Y-114464736D01*
X155727940Y-114464736D02*
X155726514Y-114462044D01*
X155726514Y-114462044D02*
X155725088Y-114459352D01*
X155725088Y-114459352D02*
X155723663Y-114456660D01*
X155723663Y-114456660D02*
X155722238Y-114453968D01*
X155722238Y-114453968D02*
X155720814Y-114451275D01*
X155720814Y-114451275D02*
X155719390Y-114448582D01*
X155719390Y-114448582D02*
X155717966Y-114445889D01*
X155717966Y-114445889D02*
X155716543Y-114443196D01*
X155716543Y-114443196D02*
X155715120Y-114440503D01*
X155715120Y-114440503D02*
X155713697Y-114437809D01*
X155713697Y-114437809D02*
X155712275Y-114435115D01*
X155712275Y-114435115D02*
X155710854Y-114432421D01*
X155710854Y-114432421D02*
X155709433Y-114429727D01*
X155709433Y-114429727D02*
X155708012Y-114427032D01*
X155708012Y-114427032D02*
X155706591Y-114424337D01*
X155706591Y-114424337D02*
X155705171Y-114421642D01*
X155705171Y-114421642D02*
X155703752Y-114418947D01*
X155703752Y-114418947D02*
X155702333Y-114416252D01*
X155702333Y-114416252D02*
X155700914Y-114413556D01*
X155700914Y-114413556D02*
X155699496Y-114410860D01*
X155699496Y-114410860D02*
X155698078Y-114408164D01*
X155698078Y-114408164D02*
X155696660Y-114405468D01*
X155696660Y-114405468D02*
X155695243Y-114402772D01*
X155695243Y-114402772D02*
X155693826Y-114400075D01*
X155693826Y-114400075D02*
X155692410Y-114397378D01*
X155692410Y-114397378D02*
X155690994Y-114394681D01*
X155690994Y-114394681D02*
X155689579Y-114391983D01*
X155689579Y-114391983D02*
X155688164Y-114389286D01*
X155688164Y-114389286D02*
X155686749Y-114386588D01*
X155686749Y-114386588D02*
X155685335Y-114383890D01*
X155685335Y-114383890D02*
X155683921Y-114381192D01*
X155683921Y-114381192D02*
X155682508Y-114378494D01*
X155682508Y-114378494D02*
X155681095Y-114375795D01*
X155681095Y-114375795D02*
X155679682Y-114373096D01*
X155679682Y-114373096D02*
X155678270Y-114370397D01*
X155678270Y-114370397D02*
X155676858Y-114367698D01*
X155676858Y-114367698D02*
X155675447Y-114364998D01*
X155675447Y-114364998D02*
X155674036Y-114362298D01*
X155674036Y-114362298D02*
X155672625Y-114359599D01*
X155672625Y-114359599D02*
X155671215Y-114356898D01*
X155671215Y-114356898D02*
X155669806Y-114354198D01*
X155669806Y-114354198D02*
X155668396Y-114351497D01*
X155668396Y-114351497D02*
X155666987Y-114348797D01*
X155666987Y-114348797D02*
X155665579Y-114346096D01*
X155665579Y-114346096D02*
X155664171Y-114343394D01*
X155664171Y-114343394D02*
X155662763Y-114340693D01*
X155662763Y-114340693D02*
X155661356Y-114337991D01*
X155661356Y-114337991D02*
X155659949Y-114335290D01*
X155659949Y-114335290D02*
X155658543Y-114332587D01*
X155658543Y-114332587D02*
X155657137Y-114329885D01*
X155657137Y-114329885D02*
X155655731Y-114327183D01*
X155655731Y-114327183D02*
X155654326Y-114324480D01*
X155654326Y-114324480D02*
X155652921Y-114321777D01*
X155652921Y-114321777D02*
X155651517Y-114319074D01*
X155651517Y-114319074D02*
X155650113Y-114316371D01*
X155650113Y-114316371D02*
X155648710Y-114313667D01*
X155648710Y-114313667D02*
X155647306Y-114310963D01*
X155647306Y-114310963D02*
X155645904Y-114308259D01*
X155645904Y-114308259D02*
X155644501Y-114305555D01*
X155644501Y-114305555D02*
X155643100Y-114302851D01*
X155643100Y-114302851D02*
X155641698Y-114300146D01*
X155641698Y-114300146D02*
X155640297Y-114297441D01*
X155640297Y-114297441D02*
X155638896Y-114294736D01*
X155638896Y-114294736D02*
X155637496Y-114292031D01*
X155637496Y-114292031D02*
X155636096Y-114289325D01*
X155636096Y-114289325D02*
X155634697Y-114286620D01*
X155634697Y-114286620D02*
X155633298Y-114283914D01*
X155633298Y-114283914D02*
X155631899Y-114281208D01*
X155631899Y-114281208D02*
X155630501Y-114278501D01*
X155630501Y-114278501D02*
X155629103Y-114275795D01*
X155629103Y-114275795D02*
X155627706Y-114273088D01*
X155627706Y-114273088D02*
X155626309Y-114270381D01*
X155626309Y-114270381D02*
X155624913Y-114267674D01*
X155624913Y-114267674D02*
X155623516Y-114264966D01*
X155623516Y-114264966D02*
X155622121Y-114262259D01*
X155622121Y-114262259D02*
X155620725Y-114259551D01*
X155620725Y-114259551D02*
X155619331Y-114256843D01*
X155619331Y-114256843D02*
X155617936Y-114254135D01*
X155617936Y-114254135D02*
X155616542Y-114251426D01*
X155616542Y-114251426D02*
X155615148Y-114248717D01*
X155615148Y-114248717D02*
X155613755Y-114246008D01*
X155613755Y-114246008D02*
X155612362Y-114243299D01*
X155612362Y-114243299D02*
X155610970Y-114240590D01*
X155610970Y-114240590D02*
X155609578Y-114237881D01*
X155609578Y-114237881D02*
X155608186Y-114235171D01*
X155608186Y-114235171D02*
X155606795Y-114232461D01*
X155606795Y-114232461D02*
X155605405Y-114229751D01*
X155605405Y-114229751D02*
X155604014Y-114227040D01*
X155604014Y-114227040D02*
X155602624Y-114224330D01*
X155602624Y-114224330D02*
X155601235Y-114221619D01*
X155601235Y-114221619D02*
X155599846Y-114218908D01*
X155599846Y-114218908D02*
X155598457Y-114216197D01*
X155598457Y-114216197D02*
X155597069Y-114213485D01*
X155597069Y-114213485D02*
X155595681Y-114210774D01*
X155595681Y-114210774D02*
X155594293Y-114208062D01*
X155594293Y-114208062D02*
X155592906Y-114205350D01*
X155592906Y-114205350D02*
X155591520Y-114202637D01*
X155591520Y-114202637D02*
X155590134Y-114199925D01*
X155590134Y-114199925D02*
X155588748Y-114197212D01*
X155588748Y-114197212D02*
X155587362Y-114194499D01*
X155587362Y-114194499D02*
X155585977Y-114191786D01*
X155585977Y-114191786D02*
X155584593Y-114189073D01*
X155584593Y-114189073D02*
X155583209Y-114186359D01*
X155583209Y-114186359D02*
X155581825Y-114183645D01*
X155581825Y-114183645D02*
X155580442Y-114180931D01*
X155580442Y-114180931D02*
X155579059Y-114178217D01*
X155579059Y-114178217D02*
X155577676Y-114175503D01*
X155577676Y-114175503D02*
X155576294Y-114172788D01*
X155576294Y-114172788D02*
X155574913Y-114170074D01*
X155574913Y-114170074D02*
X155573531Y-114167358D01*
X155573531Y-114167358D02*
X155572151Y-114164643D01*
X155572151Y-114164643D02*
X155570770Y-114161928D01*
X155570770Y-114161928D02*
X155569390Y-114159212D01*
X155569390Y-114159212D02*
X155568011Y-114156496D01*
X155568011Y-114156496D02*
X155566631Y-114153780D01*
X155566631Y-114153780D02*
X155565253Y-114151064D01*
X155565253Y-114151064D02*
X155563874Y-114148347D01*
X155563874Y-114148347D02*
X155562496Y-114145631D01*
X155562496Y-114145631D02*
X155561119Y-114142914D01*
X155561119Y-114142914D02*
X155559742Y-114140197D01*
X155559742Y-114140197D02*
X155558365Y-114137479D01*
X155558365Y-114137479D02*
X155556989Y-114134762D01*
X155556989Y-114134762D02*
X155555613Y-114132044D01*
X155555613Y-114132044D02*
X155554237Y-114129326D01*
X155554237Y-114129326D02*
X155552862Y-114126608D01*
X155552862Y-114126608D02*
X155551488Y-114123890D01*
X155551488Y-114123890D02*
X155550114Y-114121171D01*
X155550114Y-114121171D02*
X155548740Y-114118452D01*
X155548740Y-114118452D02*
X155547366Y-114115733D01*
X155547366Y-114115733D02*
X155545993Y-114113014D01*
X155545993Y-114113014D02*
X155544621Y-114110295D01*
X155544621Y-114110295D02*
X155543249Y-114107575D01*
X155543249Y-114107575D02*
X155541877Y-114104855D01*
X155541877Y-114104855D02*
X155540506Y-114102135D01*
X155540506Y-114102135D02*
X155539135Y-114099415D01*
X155539135Y-114099415D02*
X155537764Y-114096694D01*
X155537764Y-114096694D02*
X155536394Y-114093974D01*
X155536394Y-114093974D02*
X155535025Y-114091253D01*
X155535025Y-114091253D02*
X155533655Y-114088532D01*
X155533655Y-114088532D02*
X155532286Y-114085810D01*
X155532286Y-114085810D02*
X155530918Y-114083089D01*
X155530918Y-114083089D02*
X155529550Y-114080367D01*
X155529550Y-114080367D02*
X155528182Y-114077645D01*
X155528182Y-114077645D02*
X155526815Y-114074923D01*
X155526815Y-114074923D02*
X155525449Y-114072201D01*
X155525449Y-114072201D02*
X155524082Y-114069478D01*
X155524082Y-114069478D02*
X155522716Y-114066755D01*
X155522716Y-114066755D02*
X155521351Y-114064032D01*
X155521351Y-114064032D02*
X155519986Y-114061309D01*
X155519986Y-114061309D02*
X155518621Y-114058586D01*
X155518621Y-114058586D02*
X155517257Y-114055862D01*
X155517257Y-114055862D02*
X155515893Y-114053138D01*
X155515893Y-114053138D02*
X155514529Y-114050414D01*
X155514529Y-114050414D02*
X155513166Y-114047690D01*
X155513166Y-114047690D02*
X155511804Y-114044966D01*
X155511804Y-114044966D02*
X155510442Y-114042241D01*
X155510442Y-114042241D02*
X155509080Y-114039516D01*
X155509080Y-114039516D02*
X155507719Y-114036791D01*
X155507719Y-114036791D02*
X155506358Y-114034066D01*
X155506358Y-114034066D02*
X155504997Y-114031341D01*
X155504997Y-114031341D02*
X155503637Y-114028615D01*
X155503637Y-114028615D02*
X155502277Y-114025889D01*
X155502277Y-114025889D02*
X155500918Y-114023163D01*
X155500918Y-114023163D02*
X155499559Y-114020437D01*
X155499559Y-114020437D02*
X155498201Y-114017710D01*
X155498201Y-114017710D02*
X155496843Y-114014983D01*
X155496843Y-114014983D02*
X155495485Y-114012257D01*
X155495485Y-114012257D02*
X155494128Y-114009529D01*
X155494128Y-114009529D02*
X155492771Y-114006802D01*
X155492771Y-114006802D02*
X155491415Y-114004075D01*
X155491415Y-114004075D02*
X155490059Y-114001347D01*
X155490059Y-114001347D02*
X155488703Y-113998619D01*
X155488703Y-113998619D02*
X155487348Y-113995891D01*
X155487348Y-113995891D02*
X155485993Y-113993162D01*
X155485993Y-113993162D02*
X155484639Y-113990434D01*
X155484639Y-113990434D02*
X155483285Y-113987705D01*
X155483285Y-113987705D02*
X155481932Y-113984976D01*
X155481932Y-113984976D02*
X155480579Y-113982247D01*
X155480579Y-113982247D02*
X155479226Y-113979518D01*
X155479226Y-113979518D02*
X155477874Y-113976788D01*
X155477874Y-113976788D02*
X155476522Y-113974058D01*
X155476522Y-113974058D02*
X155475171Y-113971328D01*
X155475171Y-113971328D02*
X155473820Y-113968598D01*
X155473820Y-113968598D02*
X155472469Y-113965867D01*
X155472469Y-113965867D02*
X155471119Y-113963137D01*
X155471119Y-113963137D02*
X155469769Y-113960406D01*
X155469769Y-113960406D02*
X155468420Y-113957675D01*
X155468420Y-113957675D02*
X155467071Y-113954944D01*
X155467071Y-113954944D02*
X155465722Y-113952212D01*
X155465722Y-113952212D02*
X155464374Y-113949481D01*
X155464374Y-113949481D02*
X155463027Y-113946749D01*
X155463027Y-113946749D02*
X155461680Y-113944017D01*
X155461680Y-113944017D02*
X155460333Y-113941284D01*
X155460333Y-113941284D02*
X155458986Y-113938552D01*
X155458986Y-113938552D02*
X155457640Y-113935819D01*
X155457640Y-113935819D02*
X155456295Y-113933086D01*
X155456295Y-113933086D02*
X155454950Y-113930353D01*
X155454950Y-113930353D02*
X155453605Y-113927620D01*
X155453605Y-113927620D02*
X155452261Y-113924887D01*
X155452261Y-113924887D02*
X155450917Y-113922153D01*
X155450917Y-113922153D02*
X155449573Y-113919419D01*
X155449573Y-113919419D02*
X155448230Y-113916685D01*
X155448230Y-113916685D02*
X155446887Y-113913951D01*
X155446887Y-113913951D02*
X155445545Y-113911216D01*
X155445545Y-113911216D02*
X155444203Y-113908481D01*
X155444203Y-113908481D02*
X155442862Y-113905746D01*
X155442862Y-113905746D02*
X155441521Y-113903011D01*
X155441521Y-113903011D02*
X155440180Y-113900276D01*
X155440180Y-113900276D02*
X155438840Y-113897540D01*
X155438840Y-113897540D02*
X155437501Y-113894805D01*
X155437501Y-113894805D02*
X155436161Y-113892069D01*
X155436161Y-113892069D02*
X155434822Y-113889333D01*
X155434822Y-113889333D02*
X155433484Y-113886596D01*
X155433484Y-113886596D02*
X155432146Y-113883860D01*
X155432146Y-113883860D02*
X155430808Y-113881123D01*
X155430808Y-113881123D02*
X155429471Y-113878386D01*
X155429471Y-113878386D02*
X155428134Y-113875649D01*
X155428134Y-113875649D02*
X155426798Y-113872911D01*
X155426798Y-113872911D02*
X155425462Y-113870174D01*
X155425462Y-113870174D02*
X155424126Y-113867436D01*
X155424126Y-113867436D02*
X155422791Y-113864698D01*
X155422791Y-113864698D02*
X155421456Y-113861960D01*
X155421456Y-113861960D02*
X155420122Y-113859221D01*
X155420122Y-113859221D02*
X155418788Y-113856483D01*
X155418788Y-113856483D02*
X155417455Y-113853744D01*
X155417455Y-113853744D02*
X155416122Y-113851005D01*
X155416122Y-113851005D02*
X155414789Y-113848266D01*
X155414789Y-113848266D02*
X155413457Y-113845526D01*
X155413457Y-113845526D02*
X155412125Y-113842787D01*
X155412125Y-113842787D02*
X155410793Y-113840047D01*
X155410793Y-113840047D02*
X155409462Y-113837307D01*
X155409462Y-113837307D02*
X155408132Y-113834567D01*
X155408132Y-113834567D02*
X155406802Y-113831826D01*
X155406802Y-113831826D02*
X155405472Y-113829086D01*
X155405472Y-113829086D02*
X155404143Y-113826345D01*
X155404143Y-113826345D02*
X155402814Y-113823604D01*
X155402814Y-113823604D02*
X155401485Y-113820863D01*
X155401485Y-113820863D02*
X155400157Y-113818121D01*
X155400157Y-113818121D02*
X155398830Y-113815380D01*
X155398830Y-113815380D02*
X155397502Y-113812638D01*
X155397502Y-113812638D02*
X155396176Y-113809896D01*
X155396176Y-113809896D02*
X155394849Y-113807153D01*
X155394849Y-113807153D02*
X155393523Y-113804411D01*
X155393523Y-113804411D02*
X155392198Y-113801668D01*
X155392198Y-113801668D02*
X155390873Y-113798926D01*
X155390873Y-113798926D02*
X155389548Y-113796183D01*
X155389548Y-113796183D02*
X155388224Y-113793439D01*
X155388224Y-113793439D02*
X155386900Y-113790696D01*
X155386900Y-113790696D02*
X155385576Y-113787952D01*
X155385576Y-113787952D02*
X155384253Y-113785208D01*
X155384253Y-113785208D02*
X155382931Y-113782464D01*
X155382931Y-113782464D02*
X155381608Y-113779720D01*
X155381608Y-113779720D02*
X155380287Y-113776976D01*
X155380287Y-113776976D02*
X155378965Y-113774231D01*
X155378965Y-113774231D02*
X155377644Y-113771486D01*
X155377644Y-113771486D02*
X155376324Y-113768741D01*
X155376324Y-113768741D02*
X155375004Y-113765996D01*
X155375004Y-113765996D02*
X155373684Y-113763250D01*
X155373684Y-113763250D02*
X155372365Y-113760505D01*
X155372365Y-113760505D02*
X155371046Y-113757759D01*
X155371046Y-113757759D02*
X155369727Y-113755013D01*
X155369727Y-113755013D02*
X155368409Y-113752266D01*
X155368409Y-113752266D02*
X155367092Y-113749520D01*
X155367092Y-113749520D02*
X155365775Y-113746773D01*
X155365775Y-113746773D02*
X155364458Y-113744026D01*
X155364458Y-113744026D02*
X155363141Y-113741279D01*
X155363141Y-113741279D02*
X155361826Y-113738532D01*
X155361826Y-113738532D02*
X155360510Y-113735785D01*
X155360510Y-113735785D02*
X155359195Y-113733037D01*
X155359195Y-113733037D02*
X155357880Y-113730289D01*
X155357880Y-113730289D02*
X155356566Y-113727541D01*
X155356566Y-113727541D02*
X155355252Y-113724793D01*
X155355252Y-113724793D02*
X155353939Y-113722044D01*
X155353939Y-113722044D02*
X155352626Y-113719296D01*
X155352626Y-113719296D02*
X155351313Y-113716547D01*
X155351313Y-113716547D02*
X155350001Y-113713798D01*
X155350001Y-113713798D02*
X155348689Y-113711048D01*
X155348689Y-113711048D02*
X155347378Y-113708299D01*
X155347378Y-113708299D02*
X155346067Y-113705549D01*
X155346067Y-113705549D02*
X155344756Y-113702799D01*
X155344756Y-113702799D02*
X155343446Y-113700049D01*
X155343446Y-113700049D02*
X155342137Y-113697299D01*
X155342137Y-113697299D02*
X155340828Y-113694548D01*
X155340828Y-113694548D02*
X155339519Y-113691798D01*
X155339519Y-113691798D02*
X155338210Y-113689047D01*
X155338210Y-113689047D02*
X155336902Y-113686296D01*
X155336902Y-113686296D02*
X155335595Y-113683545D01*
X155335595Y-113683545D02*
X155334288Y-113680793D01*
X155334288Y-113680793D02*
X155332981Y-113678041D01*
X155332981Y-113678041D02*
X155331675Y-113675290D01*
X155331675Y-113675290D02*
X155330369Y-113672538D01*
X155330369Y-113672538D02*
X155329063Y-113669785D01*
X155329063Y-113669785D02*
X155327758Y-113667033D01*
X155327758Y-113667033D02*
X155326454Y-113664280D01*
X155326454Y-113664280D02*
X155325149Y-113661527D01*
X155325149Y-113661527D02*
X155323846Y-113658774D01*
X155323846Y-113658774D02*
X155322542Y-113656021D01*
X155322542Y-113656021D02*
X155321239Y-113653268D01*
X155321239Y-113653268D02*
X155319937Y-113650514D01*
X155319937Y-113650514D02*
X155318635Y-113647760D01*
X155318635Y-113647760D02*
X155317333Y-113645006D01*
X155317333Y-113645006D02*
X155316032Y-113642252D01*
X155316032Y-113642252D02*
X155314731Y-113639497D01*
X155314731Y-113639497D02*
X155313430Y-113636743D01*
X155313430Y-113636743D02*
X155312130Y-113633988D01*
X155312130Y-113633988D02*
X155310831Y-113631233D01*
X155310831Y-113631233D02*
X155309532Y-113628478D01*
X155309532Y-113628478D02*
X155308233Y-113625722D01*
X155308233Y-113625722D02*
X155306935Y-113622966D01*
X155306935Y-113622966D02*
X155305637Y-113620211D01*
X155305637Y-113620211D02*
X155304339Y-113617455D01*
X155304339Y-113617455D02*
X155303042Y-113614698D01*
X155303042Y-113614698D02*
X155301745Y-113611942D01*
X155301745Y-113611942D02*
X155300449Y-113609185D01*
X155300449Y-113609185D02*
X155299153Y-113606429D01*
X155299153Y-113606429D02*
X155297858Y-113603671D01*
X155297858Y-113603671D02*
X155296563Y-113600914D01*
X155296563Y-113600914D02*
X155295268Y-113598157D01*
X155295268Y-113598157D02*
X155293974Y-113595399D01*
X155293974Y-113595399D02*
X155292681Y-113592641D01*
X155292681Y-113592641D02*
X155291387Y-113589883D01*
X155291387Y-113589883D02*
X155290094Y-113587125D01*
X155290094Y-113587125D02*
X155288802Y-113584367D01*
X155288802Y-113584367D02*
X155287510Y-113581608D01*
X155287510Y-113581608D02*
X155286218Y-113578849D01*
X155286218Y-113578849D02*
X155284927Y-113576091D01*
X155284927Y-113576091D02*
X155283636Y-113573331D01*
X155283636Y-113573331D02*
X155282346Y-113570572D01*
X155282346Y-113570572D02*
X155281925Y-113569672D01*
X154806653Y-112467999D02*
X154805531Y-112465167D01*
X154805531Y-112465167D02*
X154804409Y-112462335D01*
X154804409Y-112462335D02*
X154803288Y-112459502D01*
X154803288Y-112459502D02*
X154802167Y-112456670D01*
X154802167Y-112456670D02*
X154801047Y-112453837D01*
X154801047Y-112453837D02*
X154799927Y-112451004D01*
X154799927Y-112451004D02*
X154798808Y-112448171D01*
X154798808Y-112448171D02*
X154797689Y-112445338D01*
X154797689Y-112445338D02*
X154796570Y-112442504D01*
X154796570Y-112442504D02*
X154795452Y-112439671D01*
X154795452Y-112439671D02*
X154794334Y-112436837D01*
X154794334Y-112436837D02*
X154793217Y-112434003D01*
X154793217Y-112434003D02*
X154792100Y-112431169D01*
X154792100Y-112431169D02*
X154790984Y-112428335D01*
X154790984Y-112428335D02*
X154789868Y-112425501D01*
X154789868Y-112425501D02*
X154788752Y-112422666D01*
X154788752Y-112422666D02*
X154787637Y-112419831D01*
X154787637Y-112419831D02*
X154786523Y-112416996D01*
X154786523Y-112416996D02*
X154785408Y-112414161D01*
X154785408Y-112414161D02*
X154784295Y-112411326D01*
X154784295Y-112411326D02*
X154783181Y-112408491D01*
X154783181Y-112408491D02*
X154782068Y-112405655D01*
X154782068Y-112405655D02*
X154780956Y-112402819D01*
X154780956Y-112402819D02*
X154779844Y-112399983D01*
X154779844Y-112399983D02*
X154778732Y-112397147D01*
X154778732Y-112397147D02*
X154777621Y-112394311D01*
X154777621Y-112394311D02*
X154776510Y-112391475D01*
X154776510Y-112391475D02*
X154775400Y-112388638D01*
X154775400Y-112388638D02*
X154774290Y-112385801D01*
X154774290Y-112385801D02*
X154773180Y-112382964D01*
X154773180Y-112382964D02*
X154772071Y-112380127D01*
X154772071Y-112380127D02*
X154770963Y-112377290D01*
X154770963Y-112377290D02*
X154769855Y-112374452D01*
X154769855Y-112374452D02*
X154768747Y-112371615D01*
X154768747Y-112371615D02*
X154767640Y-112368777D01*
X154767640Y-112368777D02*
X154766533Y-112365939D01*
X154766533Y-112365939D02*
X154765426Y-112363101D01*
X154765426Y-112363101D02*
X154764320Y-112360263D01*
X154764320Y-112360263D02*
X154763215Y-112357424D01*
X154763215Y-112357424D02*
X154762110Y-112354586D01*
X154762110Y-112354586D02*
X154761005Y-112351747D01*
X154761005Y-112351747D02*
X154759901Y-112348908D01*
X154759901Y-112348908D02*
X154758797Y-112346069D01*
X154758797Y-112346069D02*
X154757693Y-112343229D01*
X154757693Y-112343229D02*
X154756590Y-112340390D01*
X154756590Y-112340390D02*
X154755488Y-112337550D01*
X154755488Y-112337550D02*
X154754386Y-112334710D01*
X154754386Y-112334710D02*
X154753284Y-112331870D01*
X154753284Y-112331870D02*
X154752183Y-112329030D01*
X154752183Y-112329030D02*
X154751082Y-112326190D01*
X154751082Y-112326190D02*
X154749981Y-112323350D01*
X154749981Y-112323350D02*
X154748881Y-112320509D01*
X154748881Y-112320509D02*
X154747782Y-112317668D01*
X154747782Y-112317668D02*
X154746683Y-112314827D01*
X154746683Y-112314827D02*
X154745584Y-112311986D01*
X154745584Y-112311986D02*
X154744486Y-112309145D01*
X154744486Y-112309145D02*
X154743388Y-112306303D01*
X154743388Y-112306303D02*
X154742291Y-112303462D01*
X154742291Y-112303462D02*
X154741194Y-112300620D01*
X154741194Y-112300620D02*
X154740097Y-112297778D01*
X154740097Y-112297778D02*
X154739001Y-112294936D01*
X154739001Y-112294936D02*
X154737906Y-112292093D01*
X154737906Y-112292093D02*
X154736810Y-112289251D01*
X154736810Y-112289251D02*
X154735716Y-112286408D01*
X154735716Y-112286408D02*
X154734621Y-112283565D01*
X154734621Y-112283565D02*
X154733527Y-112280722D01*
X154733527Y-112280722D02*
X154732434Y-112277879D01*
X154732434Y-112277879D02*
X154731341Y-112275036D01*
X154731341Y-112275036D02*
X154730248Y-112272192D01*
X154730248Y-112272192D02*
X154729156Y-112269349D01*
X154729156Y-112269349D02*
X154728064Y-112266505D01*
X154728064Y-112266505D02*
X154726973Y-112263661D01*
X154726973Y-112263661D02*
X154725882Y-112260817D01*
X154725882Y-112260817D02*
X154724792Y-112257972D01*
X154724792Y-112257972D02*
X154723702Y-112255128D01*
X154723702Y-112255128D02*
X154722612Y-112252283D01*
X154722612Y-112252283D02*
X154721523Y-112249439D01*
X154721523Y-112249439D02*
X154720434Y-112246594D01*
X154720434Y-112246594D02*
X154719346Y-112243748D01*
X154719346Y-112243748D02*
X154718258Y-112240903D01*
X154718258Y-112240903D02*
X154717171Y-112238058D01*
X154717171Y-112238058D02*
X154716084Y-112235212D01*
X154716084Y-112235212D02*
X154714997Y-112232366D01*
X154714997Y-112232366D02*
X154713911Y-112229520D01*
X154713911Y-112229520D02*
X154712826Y-112226674D01*
X154712826Y-112226674D02*
X154711740Y-112223828D01*
X154711740Y-112223828D02*
X154710655Y-112220981D01*
X154710655Y-112220981D02*
X154709571Y-112218135D01*
X154709571Y-112218135D02*
X154708487Y-112215288D01*
X154708487Y-112215288D02*
X154707404Y-112212441D01*
X154707404Y-112212441D02*
X154706321Y-112209594D01*
X154706321Y-112209594D02*
X154705238Y-112206747D01*
X154705238Y-112206747D02*
X154704156Y-112203899D01*
X154704156Y-112203899D02*
X154703074Y-112201051D01*
X154703074Y-112201051D02*
X154701993Y-112198204D01*
X154701993Y-112198204D02*
X154700912Y-112195356D01*
X154700912Y-112195356D02*
X154699831Y-112192508D01*
X154699831Y-112192508D02*
X154698751Y-112189659D01*
X154698751Y-112189659D02*
X154697672Y-112186811D01*
X154697672Y-112186811D02*
X154696592Y-112183962D01*
X154696592Y-112183962D02*
X154695514Y-112181113D01*
X154695514Y-112181113D02*
X154694435Y-112178265D01*
X154694435Y-112178265D02*
X154693358Y-112175415D01*
X154693358Y-112175415D02*
X154692280Y-112172566D01*
X154692280Y-112172566D02*
X154691203Y-112169717D01*
X154691203Y-112169717D02*
X154690127Y-112166867D01*
X154690127Y-112166867D02*
X154689050Y-112164017D01*
X154689050Y-112164017D02*
X154687975Y-112161167D01*
X154687975Y-112161167D02*
X154686900Y-112158317D01*
X154686900Y-112158317D02*
X154685825Y-112155467D01*
X154685825Y-112155467D02*
X154684750Y-112152617D01*
X154684750Y-112152617D02*
X154683676Y-112149766D01*
X154683676Y-112149766D02*
X154682603Y-112146915D01*
X154682603Y-112146915D02*
X154681530Y-112144064D01*
X154681530Y-112144064D02*
X154680457Y-112141213D01*
X154680457Y-112141213D02*
X154679385Y-112138362D01*
X154679385Y-112138362D02*
X154678313Y-112135511D01*
X154678313Y-112135511D02*
X154677242Y-112132659D01*
X154677242Y-112132659D02*
X154676171Y-112129808D01*
X154676171Y-112129808D02*
X154675100Y-112126956D01*
X154675100Y-112126956D02*
X154674030Y-112124104D01*
X154674030Y-112124104D02*
X154672961Y-112121251D01*
X154672961Y-112121251D02*
X154671891Y-112118399D01*
X154671891Y-112118399D02*
X154670823Y-112115546D01*
X154670823Y-112115546D02*
X154669754Y-112112694D01*
X154669754Y-112112694D02*
X154668687Y-112109841D01*
X154668687Y-112109841D02*
X154667619Y-112106988D01*
X154667619Y-112106988D02*
X154666552Y-112104135D01*
X154666552Y-112104135D02*
X154665486Y-112101281D01*
X154665486Y-112101281D02*
X154664419Y-112098428D01*
X154664419Y-112098428D02*
X154663354Y-112095574D01*
X154663354Y-112095574D02*
X154662288Y-112092720D01*
X154662288Y-112092720D02*
X154661224Y-112089866D01*
X154661224Y-112089866D02*
X154660159Y-112087012D01*
X154660159Y-112087012D02*
X154659095Y-112084158D01*
X154659095Y-112084158D02*
X154658032Y-112081303D01*
X154658032Y-112081303D02*
X154656969Y-112078449D01*
X154656969Y-112078449D02*
X154655906Y-112075594D01*
X154655906Y-112075594D02*
X154654844Y-112072739D01*
X154654844Y-112072739D02*
X154653782Y-112069884D01*
X154653782Y-112069884D02*
X154652721Y-112067029D01*
X154652721Y-112067029D02*
X154651660Y-112064173D01*
X154651660Y-112064173D02*
X154650599Y-112061317D01*
X154650599Y-112061317D02*
X154649539Y-112058462D01*
X154649539Y-112058462D02*
X154648479Y-112055606D01*
X154648479Y-112055606D02*
X154647420Y-112052750D01*
X154647420Y-112052750D02*
X154646362Y-112049893D01*
X154646362Y-112049893D02*
X154645303Y-112047037D01*
X154645303Y-112047037D02*
X154644245Y-112044180D01*
X154644245Y-112044180D02*
X154643188Y-112041324D01*
X154643188Y-112041324D02*
X154642131Y-112038467D01*
X154642131Y-112038467D02*
X154641074Y-112035610D01*
X154641074Y-112035610D02*
X154640018Y-112032752D01*
X154640018Y-112032752D02*
X154638962Y-112029895D01*
X154638962Y-112029895D02*
X154637907Y-112027037D01*
X154637907Y-112027037D02*
X154636852Y-112024180D01*
X154636852Y-112024180D02*
X154635798Y-112021322D01*
X154635798Y-112021322D02*
X154634744Y-112018464D01*
X154634744Y-112018464D02*
X154633691Y-112015606D01*
X154633691Y-112015606D02*
X154632637Y-112012747D01*
X154632637Y-112012747D02*
X154631585Y-112009889D01*
X154631585Y-112009889D02*
X154630533Y-112007030D01*
X154630533Y-112007030D02*
X154629481Y-112004171D01*
X154629481Y-112004171D02*
X154628429Y-112001312D01*
X154628429Y-112001312D02*
X154627379Y-111998453D01*
X154627379Y-111998453D02*
X154626328Y-111995594D01*
X154626328Y-111995594D02*
X154625278Y-111992734D01*
X154625278Y-111992734D02*
X154624228Y-111989875D01*
X154624228Y-111989875D02*
X154623179Y-111987015D01*
X154623179Y-111987015D02*
X154622130Y-111984155D01*
X154622130Y-111984155D02*
X154621082Y-111981295D01*
X154621082Y-111981295D02*
X154620034Y-111978435D01*
X154620034Y-111978435D02*
X154618987Y-111975574D01*
X154618987Y-111975574D02*
X154617940Y-111972714D01*
X154617940Y-111972714D02*
X154616893Y-111969853D01*
X154616893Y-111969853D02*
X154615847Y-111966992D01*
X154615847Y-111966992D02*
X154614802Y-111964131D01*
X154614802Y-111964131D02*
X154613756Y-111961270D01*
X154613756Y-111961270D02*
X154612711Y-111958408D01*
X154612711Y-111958408D02*
X154611667Y-111955547D01*
X154611667Y-111955547D02*
X154610623Y-111952685D01*
X154610623Y-111952685D02*
X154609580Y-111949823D01*
X154609580Y-111949823D02*
X154608537Y-111946961D01*
X154608537Y-111946961D02*
X154607494Y-111944099D01*
X154607494Y-111944099D02*
X154606452Y-111941237D01*
X154606452Y-111941237D02*
X154605410Y-111938374D01*
X154605410Y-111938374D02*
X154604369Y-111935511D01*
X154604369Y-111935511D02*
X154603328Y-111932649D01*
X154603328Y-111932649D02*
X154602287Y-111929786D01*
X154602287Y-111929786D02*
X154601247Y-111926922D01*
X154601247Y-111926922D02*
X154600208Y-111924059D01*
X154600208Y-111924059D02*
X154599169Y-111921196D01*
X154599169Y-111921196D02*
X154598130Y-111918332D01*
X154598130Y-111918332D02*
X154597092Y-111915468D01*
X154597092Y-111915468D02*
X154596054Y-111912604D01*
X154596054Y-111912604D02*
X154595016Y-111909740D01*
X154595016Y-111909740D02*
X154593979Y-111906876D01*
X154593979Y-111906876D02*
X154592943Y-111904012D01*
X154592943Y-111904012D02*
X154591907Y-111901147D01*
X154591907Y-111901147D02*
X154590871Y-111898282D01*
X154590871Y-111898282D02*
X154589836Y-111895418D01*
X154589836Y-111895418D02*
X154588801Y-111892553D01*
X154588801Y-111892553D02*
X154587767Y-111889687D01*
X154587767Y-111889687D02*
X154586733Y-111886822D01*
X154586733Y-111886822D02*
X154585699Y-111883956D01*
X154585699Y-111883956D02*
X154584666Y-111881091D01*
X154584666Y-111881091D02*
X154583634Y-111878225D01*
X154583634Y-111878225D02*
X154582602Y-111875359D01*
X154582602Y-111875359D02*
X154581570Y-111872493D01*
X154581570Y-111872493D02*
X154580539Y-111869627D01*
X154580539Y-111869627D02*
X154579508Y-111866760D01*
X154579508Y-111866760D02*
X154578477Y-111863894D01*
X154578477Y-111863894D02*
X154577447Y-111861027D01*
X154577447Y-111861027D02*
X154576418Y-111858160D01*
X154576418Y-111858160D02*
X154575389Y-111855293D01*
X154575389Y-111855293D02*
X154574360Y-111852426D01*
X154574360Y-111852426D02*
X154573332Y-111849558D01*
X154573332Y-111849558D02*
X154572304Y-111846691D01*
X154572304Y-111846691D02*
X154571277Y-111843823D01*
X154571277Y-111843823D02*
X154570250Y-111840955D01*
X154570250Y-111840955D02*
X154569223Y-111838087D01*
X154569223Y-111838087D02*
X154568197Y-111835219D01*
X154568197Y-111835219D02*
X154567171Y-111832351D01*
X154567171Y-111832351D02*
X154566146Y-111829482D01*
X154566146Y-111829482D02*
X154565122Y-111826613D01*
X154565122Y-111826613D02*
X154564097Y-111823745D01*
X154564097Y-111823745D02*
X154563073Y-111820876D01*
X154563073Y-111820876D02*
X154562050Y-111818007D01*
X154562050Y-111818007D02*
X154561027Y-111815137D01*
X154561027Y-111815137D02*
X154560004Y-111812268D01*
X154560004Y-111812268D02*
X154558982Y-111809398D01*
X154558982Y-111809398D02*
X154557961Y-111806529D01*
X154557961Y-111806529D02*
X154556939Y-111803659D01*
X154556939Y-111803659D02*
X154555919Y-111800789D01*
X154555919Y-111800789D02*
X154554898Y-111797919D01*
X154554898Y-111797919D02*
X154553878Y-111795048D01*
X154553878Y-111795048D02*
X154552859Y-111792178D01*
X154552859Y-111792178D02*
X154551840Y-111789307D01*
X154551840Y-111789307D02*
X154550821Y-111786436D01*
X154550821Y-111786436D02*
X154549803Y-111783565D01*
X154549803Y-111783565D02*
X154548785Y-111780694D01*
X154548785Y-111780694D02*
X154547768Y-111777823D01*
X154547768Y-111777823D02*
X154546751Y-111774951D01*
X154546751Y-111774951D02*
X154545735Y-111772080D01*
X154545735Y-111772080D02*
X154544719Y-111769208D01*
X154544719Y-111769208D02*
X154543703Y-111766336D01*
X154543703Y-111766336D02*
X154542688Y-111763464D01*
X154542688Y-111763464D02*
X154541673Y-111760592D01*
X154541673Y-111760592D02*
X154540659Y-111757719D01*
X154540659Y-111757719D02*
X154539645Y-111754847D01*
X154539645Y-111754847D02*
X154538632Y-111751974D01*
X154538632Y-111751974D02*
X154537619Y-111749101D01*
X154537619Y-111749101D02*
X154536606Y-111746228D01*
X154536606Y-111746228D02*
X154535594Y-111743355D01*
X154535594Y-111743355D02*
X154534583Y-111740482D01*
X154534583Y-111740482D02*
X154533571Y-111737609D01*
X154533571Y-111737609D02*
X154532561Y-111734735D01*
X154532561Y-111734735D02*
X154531550Y-111731861D01*
X154531550Y-111731861D02*
X154530541Y-111728987D01*
X154530541Y-111728987D02*
X154529531Y-111726113D01*
X154529531Y-111726113D02*
X154528522Y-111723239D01*
X154528522Y-111723239D02*
X154527514Y-111720365D01*
X154527514Y-111720365D02*
X154526505Y-111717490D01*
X154526505Y-111717490D02*
X154525498Y-111714616D01*
X154525498Y-111714616D02*
X154524491Y-111711741D01*
X154524491Y-111711741D02*
X154523484Y-111708866D01*
X154523484Y-111708866D02*
X154522477Y-111705991D01*
X154522477Y-111705991D02*
X154521471Y-111703115D01*
X154521471Y-111703115D02*
X154520466Y-111700240D01*
X154520466Y-111700240D02*
X154519461Y-111697364D01*
X154519461Y-111697364D02*
X154518456Y-111694489D01*
X154518456Y-111694489D02*
X154517452Y-111691613D01*
X154517452Y-111691613D02*
X154516448Y-111688737D01*
X154516448Y-111688737D02*
X154515445Y-111685860D01*
X154515445Y-111685860D02*
X154514442Y-111682984D01*
X154514442Y-111682984D02*
X154513440Y-111680107D01*
X154513440Y-111680107D02*
X154512438Y-111677231D01*
X154512438Y-111677231D02*
X154511436Y-111674354D01*
X154511436Y-111674354D02*
X154510435Y-111671477D01*
X154510435Y-111671477D02*
X154509434Y-111668600D01*
X154509434Y-111668600D02*
X154508434Y-111665723D01*
X154508434Y-111665723D02*
X154507434Y-111662845D01*
X154507434Y-111662845D02*
X154506435Y-111659968D01*
X154506435Y-111659968D02*
X154505436Y-111657090D01*
X154505436Y-111657090D02*
X154504438Y-111654212D01*
X154504438Y-111654212D02*
X154503440Y-111651334D01*
X154503440Y-111651334D02*
X154502442Y-111648456D01*
X154502442Y-111648456D02*
X154501445Y-111645577D01*
X154501445Y-111645577D02*
X154500448Y-111642699D01*
X154500448Y-111642699D02*
X154499452Y-111639820D01*
X154499452Y-111639820D02*
X154498456Y-111636942D01*
X154498456Y-111636942D02*
X154497460Y-111634063D01*
X154497460Y-111634063D02*
X154496466Y-111631183D01*
X154496466Y-111631183D02*
X154495471Y-111628304D01*
X154495471Y-111628304D02*
X154494477Y-111625425D01*
X154494477Y-111625425D02*
X154493483Y-111622545D01*
X154493483Y-111622545D02*
X154492490Y-111619666D01*
X154492490Y-111619666D02*
X154491497Y-111616786D01*
X154491497Y-111616786D02*
X154490505Y-111613906D01*
X154490505Y-111613906D02*
X154489513Y-111611026D01*
X154489513Y-111611026D02*
X154488522Y-111608145D01*
X154488522Y-111608145D02*
X154487530Y-111605265D01*
X154487530Y-111605265D02*
X154486540Y-111602384D01*
X154486540Y-111602384D02*
X154485550Y-111599503D01*
X154485550Y-111599503D02*
X154484560Y-111596623D01*
X154484560Y-111596623D02*
X154483571Y-111593741D01*
X154483571Y-111593741D02*
X154482582Y-111590860D01*
X154482582Y-111590860D02*
X154481594Y-111587979D01*
X154481594Y-111587979D02*
X154480606Y-111585097D01*
X154480606Y-111585097D02*
X154479618Y-111582216D01*
X154479618Y-111582216D02*
X154478631Y-111579334D01*
X154478631Y-111579334D02*
X154477644Y-111576452D01*
X154477644Y-111576452D02*
X154476658Y-111573570D01*
X154476658Y-111573570D02*
X154475672Y-111570688D01*
X154475672Y-111570688D02*
X154474687Y-111567805D01*
X154474687Y-111567805D02*
X154473702Y-111564923D01*
X154473702Y-111564923D02*
X154472718Y-111562040D01*
X154472718Y-111562040D02*
X154471734Y-111559157D01*
X154471734Y-111559157D02*
X154470750Y-111556274D01*
X154470750Y-111556274D02*
X154469767Y-111553391D01*
X154469767Y-111553391D02*
X154468784Y-111550507D01*
X154468784Y-111550507D02*
X154467802Y-111547624D01*
X154467802Y-111547624D02*
X154466820Y-111544740D01*
X154466820Y-111544740D02*
X154465839Y-111541857D01*
X154465839Y-111541857D02*
X154464858Y-111538973D01*
X154464858Y-111538973D02*
X154463877Y-111536089D01*
X154463877Y-111536089D02*
X154462897Y-111533204D01*
X154462897Y-111533204D02*
X154461918Y-111530320D01*
X154461918Y-111530320D02*
X154460939Y-111527436D01*
X154460939Y-111527436D02*
X154459960Y-111524551D01*
X154459960Y-111524551D02*
X154458982Y-111521666D01*
X154458982Y-111521666D02*
X154458004Y-111518781D01*
X154458004Y-111518781D02*
X154457026Y-111515896D01*
X154457026Y-111515896D02*
X154456049Y-111513011D01*
X154456049Y-111513011D02*
X154455073Y-111510125D01*
X154455073Y-111510125D02*
X154454097Y-111507240D01*
X154454097Y-111507240D02*
X154453121Y-111504354D01*
X154453121Y-111504354D02*
X154452146Y-111501468D01*
X154452146Y-111501468D02*
X154451171Y-111498582D01*
X154451171Y-111498582D02*
X154450197Y-111495696D01*
X154450197Y-111495696D02*
X154449223Y-111492810D01*
X154449223Y-111492810D02*
X154448249Y-111489923D01*
X154448249Y-111489923D02*
X154447276Y-111487037D01*
X154447276Y-111487037D02*
X154446304Y-111484150D01*
X154446304Y-111484150D02*
X154445332Y-111481263D01*
X154445332Y-111481263D02*
X154444360Y-111478376D01*
X154444360Y-111478376D02*
X154443389Y-111475489D01*
X154443389Y-111475489D02*
X154442418Y-111472602D01*
X154442418Y-111472602D02*
X154441447Y-111469714D01*
X154441447Y-111469714D02*
X154440478Y-111466827D01*
X154440478Y-111466827D02*
X154439508Y-111463939D01*
X154439508Y-111463939D02*
X154438539Y-111461051D01*
X154438539Y-111461051D02*
X154437570Y-111458163D01*
X154437570Y-111458163D02*
X154436602Y-111455275D01*
X154436602Y-111455275D02*
X154435634Y-111452386D01*
X154435634Y-111452386D02*
X154434667Y-111449498D01*
X154434667Y-111449498D02*
X154433700Y-111446609D01*
X154433700Y-111446609D02*
X154432734Y-111443720D01*
X154432734Y-111443720D02*
X154431768Y-111440831D01*
X154431768Y-111440831D02*
X154430802Y-111437942D01*
X154430802Y-111437942D02*
X154429837Y-111435053D01*
X154429837Y-111435053D02*
X154428873Y-111432164D01*
X154428873Y-111432164D02*
X154427908Y-111429274D01*
X154427908Y-111429274D02*
X154426944Y-111426384D01*
X154426944Y-111426384D02*
X154425981Y-111423494D01*
X154425981Y-111423494D02*
X154425018Y-111420604D01*
X154425018Y-111420604D02*
X154424056Y-111417714D01*
X154424056Y-111417714D02*
X154423094Y-111414824D01*
X154423094Y-111414824D02*
X154422132Y-111411934D01*
X154422132Y-111411934D02*
X154421171Y-111409043D01*
X154421171Y-111409043D02*
X154420210Y-111406152D01*
X154420210Y-111406152D02*
X154419250Y-111403262D01*
X154419250Y-111403262D02*
X154418290Y-111400371D01*
X154418290Y-111400371D02*
X154417331Y-111397479D01*
X154417331Y-111397479D02*
X154416372Y-111394588D01*
X154416372Y-111394588D02*
X154415413Y-111391697D01*
X154415413Y-111391697D02*
X154414455Y-111388805D01*
X154414455Y-111388805D02*
X154413498Y-111385913D01*
X154413498Y-111385913D02*
X154412541Y-111383021D01*
X154412541Y-111383021D02*
X154411584Y-111380129D01*
X154411584Y-111380129D02*
X154410628Y-111377237D01*
X154410628Y-111377237D02*
X154409672Y-111374345D01*
X154409672Y-111374345D02*
X154408716Y-111371452D01*
X154408716Y-111371452D02*
X154407761Y-111368560D01*
X154407761Y-111368560D02*
X154406807Y-111365667D01*
X154406807Y-111365667D02*
X154405853Y-111362774D01*
X154405853Y-111362774D02*
X154404899Y-111359881D01*
X154404899Y-111359881D02*
X154403946Y-111356988D01*
X154403946Y-111356988D02*
X154402993Y-111354095D01*
X154402993Y-111354095D02*
X154402041Y-111351201D01*
X154402041Y-111351201D02*
X154401089Y-111348307D01*
X154401089Y-111348307D02*
X154400137Y-111345414D01*
X154400137Y-111345414D02*
X154399186Y-111342520D01*
X154399186Y-111342520D02*
X154398236Y-111339626D01*
X154398236Y-111339626D02*
X154397286Y-111336732D01*
X154397286Y-111336732D02*
X154396336Y-111333837D01*
X154396336Y-111333837D02*
X154395387Y-111330943D01*
X154395387Y-111330943D02*
X154394438Y-111328048D01*
X154394438Y-111328048D02*
X154393490Y-111325153D01*
X154393490Y-111325153D02*
X154392542Y-111322258D01*
X154392542Y-111322258D02*
X154391594Y-111319363D01*
X154391594Y-111319363D02*
X154390647Y-111316468D01*
X154390647Y-111316468D02*
X154389700Y-111313573D01*
X154389700Y-111313573D02*
X154388754Y-111310677D01*
X154388754Y-111310677D02*
X154387809Y-111307782D01*
X154387809Y-111307782D02*
X154386863Y-111304886D01*
X154386863Y-111304886D02*
X154385918Y-111301990D01*
X154385918Y-111301990D02*
X154384974Y-111299094D01*
X154384974Y-111299094D02*
X154384030Y-111296197D01*
X154384030Y-111296197D02*
X154383087Y-111293301D01*
X154383087Y-111293301D02*
X154382144Y-111290405D01*
X154382144Y-111290405D02*
X154381201Y-111287508D01*
X154381201Y-111287508D02*
X154380259Y-111284611D01*
X154380259Y-111284611D02*
X154379317Y-111281714D01*
X154379317Y-111281714D02*
X154378376Y-111278817D01*
X154378376Y-111278817D02*
X154377435Y-111275920D01*
X154377435Y-111275920D02*
X154376494Y-111273022D01*
X154376494Y-111273022D02*
X154375554Y-111270125D01*
X154375554Y-111270125D02*
X154374615Y-111267227D01*
X154374615Y-111267227D02*
X154373676Y-111264330D01*
X154373676Y-111264330D02*
X154372737Y-111261432D01*
X154372737Y-111261432D02*
X154371799Y-111258533D01*
X154371799Y-111258533D02*
X154370861Y-111255635D01*
X154370861Y-111255635D02*
X154369924Y-111252737D01*
X154369924Y-111252737D02*
X154368987Y-111249838D01*
X154368987Y-111249838D02*
X154368050Y-111246940D01*
X154368050Y-111246940D02*
X154367114Y-111244041D01*
X154367114Y-111244041D02*
X154366179Y-111241142D01*
X154366179Y-111241142D02*
X154365244Y-111238243D01*
X154365244Y-111238243D02*
X154364309Y-111235344D01*
X154364309Y-111235344D02*
X154363375Y-111232444D01*
X154363375Y-111232444D02*
X154362441Y-111229545D01*
X154362441Y-111229545D02*
X154361508Y-111226645D01*
X154361508Y-111226645D02*
X154360575Y-111223745D01*
X154360575Y-111223745D02*
X154359642Y-111220845D01*
X154359642Y-111220845D02*
X154358710Y-111217945D01*
X154358710Y-111217945D02*
X154357779Y-111215045D01*
X154357779Y-111215045D02*
X154356847Y-111212145D01*
X154356847Y-111212145D02*
X154355917Y-111209244D01*
X154355917Y-111209244D02*
X154354986Y-111206343D01*
X154354986Y-111206343D02*
X154354057Y-111203443D01*
X154354057Y-111203443D02*
X154353127Y-111200542D01*
X154353127Y-111200542D02*
X154352198Y-111197641D01*
X154352198Y-111197641D02*
X154351270Y-111194739D01*
X154351270Y-111194739D02*
X154350342Y-111191838D01*
X154350342Y-111191838D02*
X154349414Y-111188937D01*
X154349414Y-111188937D02*
X154348487Y-111186035D01*
X154348487Y-111186035D02*
X154347560Y-111183133D01*
X154347560Y-111183133D02*
X154346634Y-111180231D01*
X154346634Y-111180231D02*
X154345708Y-111177329D01*
X154345708Y-111177329D02*
X154344783Y-111174427D01*
X154344783Y-111174427D02*
X154343858Y-111171525D01*
X154343858Y-111171525D02*
X154342933Y-111168622D01*
X154342933Y-111168622D02*
X154342009Y-111165720D01*
X154342009Y-111165720D02*
X154341085Y-111162817D01*
X154341085Y-111162817D02*
X154340162Y-111159914D01*
X154340162Y-111159914D02*
X154339239Y-111157011D01*
X154339239Y-111157011D02*
X154338317Y-111154108D01*
X154338317Y-111154108D02*
X154337395Y-111151204D01*
X154337395Y-111151204D02*
X154336474Y-111148301D01*
X154336474Y-111148301D02*
X154335553Y-111145397D01*
X154335553Y-111145397D02*
X154334632Y-111142493D01*
X154334632Y-111142493D02*
X154333712Y-111139590D01*
X154333712Y-111139590D02*
X154332793Y-111136686D01*
X154332793Y-111136686D02*
X154331873Y-111133781D01*
X154331873Y-111133781D02*
X154330955Y-111130877D01*
X154330955Y-111130877D02*
X154330036Y-111127973D01*
X154330036Y-111127973D02*
X154329118Y-111125068D01*
X154329118Y-111125068D02*
X154328201Y-111122163D01*
X154328201Y-111122163D02*
X154327284Y-111119258D01*
X154327284Y-111119258D02*
X154326367Y-111116353D01*
X154326367Y-111116353D02*
X154325451Y-111113448D01*
X154325451Y-111113448D02*
X154324535Y-111110543D01*
X154324535Y-111110543D02*
X154323620Y-111107638D01*
X154323620Y-111107638D02*
X154322705Y-111104732D01*
X154322705Y-111104732D02*
X154321791Y-111101826D01*
X154321791Y-111101826D02*
X154320877Y-111098920D01*
X154320877Y-111098920D02*
X154319964Y-111096014D01*
X154319964Y-111096014D02*
X154319051Y-111093108D01*
X154319051Y-111093108D02*
X154318138Y-111090202D01*
X154318138Y-111090202D02*
X154317226Y-111087296D01*
X154317226Y-111087296D02*
X154316314Y-111084389D01*
X154316314Y-111084389D02*
X154315403Y-111081482D01*
X154315403Y-111081482D02*
X154314492Y-111078576D01*
X154314492Y-111078576D02*
X154313582Y-111075669D01*
X154313582Y-111075669D02*
X154312672Y-111072762D01*
X154312672Y-111072762D02*
X154311762Y-111069854D01*
X154311762Y-111069854D02*
X154310853Y-111066947D01*
X154310853Y-111066947D02*
X154309945Y-111064039D01*
X154309945Y-111064039D02*
X154309037Y-111061132D01*
X154309037Y-111061132D02*
X154308129Y-111058224D01*
X154308129Y-111058224D02*
X154307222Y-111055316D01*
X154307222Y-111055316D02*
X154306315Y-111052408D01*
X154306315Y-111052408D02*
X154305408Y-111049500D01*
X154305408Y-111049500D02*
X154304503Y-111046591D01*
X154304503Y-111046591D02*
X154303597Y-111043683D01*
X154303597Y-111043683D02*
X154302692Y-111040774D01*
X154302692Y-111040774D02*
X154301787Y-111037866D01*
X154301787Y-111037866D02*
X154300883Y-111034957D01*
X154300883Y-111034957D02*
X154299979Y-111032048D01*
X154299979Y-111032048D02*
X154299076Y-111029138D01*
X154299076Y-111029138D02*
X154298173Y-111026229D01*
X154298173Y-111026229D02*
X154297271Y-111023320D01*
X154297271Y-111023320D02*
X154296369Y-111020410D01*
X154296369Y-111020410D02*
X154295467Y-111017500D01*
X154295467Y-111017500D02*
X154294566Y-111014591D01*
X154294566Y-111014591D02*
X154293666Y-111011681D01*
X154293666Y-111011681D02*
X154292766Y-111008770D01*
X154292766Y-111008770D02*
X154291866Y-111005860D01*
X154291866Y-111005860D02*
X154290967Y-111002950D01*
X154290967Y-111002950D02*
X154290068Y-111000039D01*
X154290068Y-111000039D02*
X154289169Y-110997129D01*
X154289169Y-110997129D02*
X154288271Y-110994218D01*
X154288271Y-110994218D02*
X154287374Y-110991307D01*
X154287374Y-110991307D02*
X154286477Y-110988396D01*
X154286477Y-110988396D02*
X154285580Y-110985484D01*
X154285580Y-110985484D02*
X154284684Y-110982573D01*
X154284684Y-110982573D02*
X154283788Y-110979662D01*
X154283788Y-110979662D02*
X154282893Y-110976750D01*
X154282893Y-110976750D02*
X154281998Y-110973838D01*
X154281998Y-110973838D02*
X154281104Y-110970926D01*
X154281104Y-110970926D02*
X154280210Y-110968014D01*
X154280210Y-110968014D02*
X154279316Y-110965102D01*
X154279316Y-110965102D02*
X154278423Y-110962190D01*
X154278423Y-110962190D02*
X154277530Y-110959277D01*
X154277530Y-110959277D02*
X154276638Y-110956365D01*
X154276638Y-110956365D02*
X154275746Y-110953452D01*
X154275746Y-110953452D02*
X154274855Y-110950539D01*
X154274855Y-110950539D02*
X154273964Y-110947626D01*
X154273964Y-110947626D02*
X154273074Y-110944713D01*
X154273074Y-110944713D02*
X154272184Y-110941800D01*
X154272184Y-110941800D02*
X154271294Y-110938886D01*
X154271294Y-110938886D02*
X154270405Y-110935973D01*
X154270405Y-110935973D02*
X154269517Y-110933059D01*
X154269517Y-110933059D02*
X154268628Y-110930145D01*
X154268628Y-110930145D02*
X154267741Y-110927231D01*
X154267741Y-110927231D02*
X154266853Y-110924317D01*
X154266853Y-110924317D02*
X154265966Y-110921403D01*
X154265966Y-110921403D02*
X154265080Y-110918489D01*
X154265080Y-110918489D02*
X154264194Y-110915574D01*
X154264194Y-110915574D02*
X154263309Y-110912660D01*
X154263309Y-110912660D02*
X154262423Y-110909745D01*
X154262423Y-110909745D02*
X154261539Y-110906830D01*
X154261539Y-110906830D02*
X154260655Y-110903915D01*
X154260655Y-110903915D02*
X154259771Y-110901000D01*
X154259771Y-110901000D02*
X154258887Y-110898085D01*
X154258887Y-110898085D02*
X154258005Y-110895169D01*
X154258005Y-110895169D02*
X154257122Y-110892254D01*
X154257122Y-110892254D02*
X154256240Y-110889338D01*
X154256240Y-110889338D02*
X154255359Y-110886422D01*
X154255359Y-110886422D02*
X154254478Y-110883506D01*
X154254478Y-110883506D02*
X154253597Y-110880590D01*
X154253597Y-110880590D02*
X154252717Y-110877674D01*
X154252717Y-110877674D02*
X154251837Y-110874757D01*
X154251837Y-110874757D02*
X154250958Y-110871841D01*
X154250958Y-110871841D02*
X154250079Y-110868924D01*
X154250079Y-110868924D02*
X154249200Y-110866008D01*
X154249200Y-110866008D02*
X154248322Y-110863091D01*
X154248322Y-110863091D02*
X154247445Y-110860174D01*
X154247445Y-110860174D02*
X154246568Y-110857256D01*
X154246568Y-110857256D02*
X154245691Y-110854339D01*
X154245691Y-110854339D02*
X154244815Y-110851422D01*
X154244815Y-110851422D02*
X154243939Y-110848504D01*
X154243939Y-110848504D02*
X154243064Y-110845586D01*
X154243064Y-110845586D02*
X154242189Y-110842669D01*
X154242189Y-110842669D02*
X154241314Y-110839751D01*
X154241314Y-110839751D02*
X154240440Y-110836833D01*
X154240440Y-110836833D02*
X154239567Y-110833914D01*
X154239567Y-110833914D02*
X154238694Y-110830996D01*
X154238694Y-110830996D02*
X154237821Y-110828077D01*
X154237821Y-110828077D02*
X154236949Y-110825159D01*
X154236949Y-110825159D02*
X154236077Y-110822240D01*
X154236077Y-110822240D02*
X154235206Y-110819321D01*
X154235206Y-110819321D02*
X154234335Y-110816402D01*
X154234335Y-110816402D02*
X154233464Y-110813483D01*
X154233464Y-110813483D02*
X154232594Y-110810564D01*
X154232594Y-110810564D02*
X154231725Y-110807644D01*
X154231725Y-110807644D02*
X154230856Y-110804725D01*
X154230856Y-110804725D02*
X154229987Y-110801805D01*
X154229987Y-110801805D02*
X154229119Y-110798885D01*
X154229119Y-110798885D02*
X154228251Y-110795965D01*
X154228251Y-110795965D02*
X154227384Y-110793045D01*
X154227384Y-110793045D02*
X154226517Y-110790125D01*
X154226517Y-110790125D02*
X154225650Y-110787204D01*
X154225650Y-110787204D02*
X154224785Y-110784284D01*
X154224785Y-110784284D02*
X154223919Y-110781363D01*
X154223919Y-110781363D02*
X154223054Y-110778443D01*
X154223054Y-110778443D02*
X154222189Y-110775522D01*
X154222189Y-110775522D02*
X154221325Y-110772601D01*
X154221325Y-110772601D02*
X154220461Y-110769680D01*
X154220461Y-110769680D02*
X154219598Y-110766758D01*
X154219598Y-110766758D02*
X154218735Y-110763837D01*
X154218735Y-110763837D02*
X154217873Y-110760915D01*
X154217873Y-110760915D02*
X154217011Y-110757994D01*
X154217011Y-110757994D02*
X154216149Y-110755072D01*
X154216149Y-110755072D02*
X154215288Y-110752150D01*
X154215288Y-110752150D02*
X154214427Y-110749228D01*
X154214427Y-110749228D02*
X154213567Y-110746306D01*
X154213567Y-110746306D02*
X154212707Y-110743383D01*
X154212707Y-110743383D02*
X154211848Y-110740461D01*
X154211848Y-110740461D02*
X154210989Y-110737538D01*
X154210989Y-110737538D02*
X154210131Y-110734616D01*
X154210131Y-110734616D02*
X154209273Y-110731693D01*
X154209273Y-110731693D02*
X154208415Y-110728770D01*
X154208415Y-110728770D02*
X154207558Y-110725847D01*
X154207558Y-110725847D02*
X154206702Y-110722923D01*
X154206702Y-110722923D02*
X154205845Y-110720000D01*
X154205845Y-110720000D02*
X154204990Y-110717077D01*
X154204990Y-110717077D02*
X154204134Y-110714153D01*
X154204134Y-110714153D02*
X154203279Y-110711229D01*
X154203279Y-110711229D02*
X154202425Y-110708305D01*
X154202425Y-110708305D02*
X154201571Y-110705381D01*
X154201571Y-110705381D02*
X154200718Y-110702457D01*
X154200718Y-110702457D02*
X154199864Y-110699533D01*
X154199864Y-110699533D02*
X154199012Y-110696608D01*
X154199012Y-110696608D02*
X154198160Y-110693684D01*
X154198160Y-110693684D02*
X154197308Y-110690759D01*
X154197308Y-110690759D02*
X154196457Y-110687834D01*
X154196457Y-110687834D02*
X154195606Y-110684909D01*
X154195606Y-110684909D02*
X154194755Y-110681984D01*
X154194755Y-110681984D02*
X154193905Y-110679059D01*
X154193905Y-110679059D02*
X154193056Y-110676134D01*
X154193056Y-110676134D02*
X154192207Y-110673208D01*
X154192207Y-110673208D02*
X154191358Y-110670283D01*
X154191358Y-110670283D02*
X154190510Y-110667357D01*
X154190510Y-110667357D02*
X154189662Y-110664431D01*
X154189662Y-110664431D02*
X154188815Y-110661505D01*
X154188815Y-110661505D02*
X154187968Y-110658579D01*
X154187968Y-110658579D02*
X154187122Y-110655653D01*
X154187122Y-110655653D02*
X154186276Y-110652727D01*
X154186276Y-110652727D02*
X154185430Y-110649800D01*
X154185430Y-110649800D02*
X154184585Y-110646874D01*
X154184585Y-110646874D02*
X154183741Y-110643947D01*
X154183741Y-110643947D02*
X154182896Y-110641020D01*
X154182896Y-110641020D02*
X154182053Y-110638093D01*
X154182053Y-110638093D02*
X154181209Y-110635166D01*
X154181209Y-110635166D02*
X154180367Y-110632239D01*
X154180367Y-110632239D02*
X154179524Y-110629311D01*
X154179524Y-110629311D02*
X154178682Y-110626384D01*
X154178682Y-110626384D02*
X154177841Y-110623456D01*
X154177841Y-110623456D02*
X154177000Y-110620528D01*
X154177000Y-110620528D02*
X154176159Y-110617600D01*
X154176159Y-110617600D02*
X154175319Y-110614672D01*
X154175319Y-110614672D02*
X154174479Y-110611744D01*
X154174479Y-110611744D02*
X154173640Y-110608816D01*
X154173640Y-110608816D02*
X154172801Y-110605888D01*
X154172801Y-110605888D02*
X154171963Y-110602959D01*
X154171963Y-110602959D02*
X154171125Y-110600030D01*
X154171125Y-110600030D02*
X154170287Y-110597102D01*
X154170287Y-110597102D02*
X154169450Y-110594173D01*
X154169450Y-110594173D02*
X154168614Y-110591244D01*
X154168614Y-110591244D02*
X154167778Y-110588314D01*
X154167778Y-110588314D02*
X154166942Y-110585385D01*
X154166942Y-110585385D02*
X154166107Y-110582456D01*
X154166107Y-110582456D02*
X154165272Y-110579526D01*
X154165272Y-110579526D02*
X154164437Y-110576596D01*
X154164437Y-110576596D02*
X154163604Y-110573667D01*
X154163604Y-110573667D02*
X154162770Y-110570737D01*
X154162770Y-110570737D02*
X154161937Y-110567807D01*
X154161937Y-110567807D02*
X154161105Y-110564876D01*
X154161105Y-110564876D02*
X154160272Y-110561946D01*
X154160272Y-110561946D02*
X154159441Y-110559016D01*
X154159441Y-110559016D02*
X154158609Y-110556085D01*
X154158609Y-110556085D02*
X154157779Y-110553154D01*
X154157779Y-110553154D02*
X154156948Y-110550224D01*
X154156948Y-110550224D02*
X154156118Y-110547293D01*
X154156118Y-110547293D02*
X154155289Y-110544362D01*
X154155289Y-110544362D02*
X154154460Y-110541430D01*
X154154460Y-110541430D02*
X154153631Y-110538499D01*
X154153631Y-110538499D02*
X154152803Y-110535568D01*
X154152803Y-110535568D02*
X154151976Y-110532636D01*
X154151976Y-110532636D02*
X154151148Y-110529704D01*
X154151148Y-110529704D02*
X154150322Y-110526773D01*
X154150322Y-110526773D02*
X154149495Y-110523841D01*
X154149495Y-110523841D02*
X154148670Y-110520908D01*
X154148670Y-110520908D02*
X154147844Y-110517976D01*
X154147844Y-110517976D02*
X154147019Y-110515044D01*
X154147019Y-110515044D02*
X154146195Y-110512111D01*
X154146195Y-110512111D02*
X154145370Y-110509179D01*
X154145370Y-110509179D02*
X154144547Y-110506246D01*
X154144547Y-110506246D02*
X154143724Y-110503313D01*
X154143724Y-110503313D02*
X154142901Y-110500380D01*
X154142901Y-110500380D02*
X154142079Y-110497447D01*
X154142079Y-110497447D02*
X154141257Y-110494514D01*
X154141257Y-110494514D02*
X154140435Y-110491581D01*
X154140435Y-110491581D02*
X154139614Y-110488647D01*
X154139614Y-110488647D02*
X154138794Y-110485714D01*
X154138794Y-110485714D02*
X154137974Y-110482780D01*
X154137974Y-110482780D02*
X154137154Y-110479846D01*
X154137154Y-110479846D02*
X154136335Y-110476912D01*
X154136335Y-110476912D02*
X154135516Y-110473978D01*
X154135516Y-110473978D02*
X154134698Y-110471044D01*
X154134698Y-110471044D02*
X154133880Y-110468110D01*
X154133880Y-110468110D02*
X154133063Y-110465175D01*
X154133063Y-110465175D02*
X154132246Y-110462241D01*
X154132246Y-110462241D02*
X154131429Y-110459306D01*
X154131429Y-110459306D02*
X154130613Y-110456371D01*
X154130613Y-110456371D02*
X154129798Y-110453436D01*
X154129798Y-110453436D02*
X154128983Y-110450501D01*
X154128983Y-110450501D02*
X154128168Y-110447566D01*
X154128168Y-110447566D02*
X154127354Y-110444630D01*
X154127354Y-110444630D02*
X154126540Y-110441695D01*
X154126540Y-110441695D02*
X154125726Y-110438759D01*
X154125726Y-110438759D02*
X154124914Y-110435824D01*
X154124914Y-110435824D02*
X154124101Y-110432888D01*
X154124101Y-110432888D02*
X154123289Y-110429952D01*
X154123289Y-110429952D02*
X154122477Y-110427016D01*
X154122477Y-110427016D02*
X154121666Y-110424080D01*
X154121666Y-110424080D02*
X154120856Y-110421143D01*
X154120856Y-110421143D02*
X154120045Y-110418207D01*
X154120045Y-110418207D02*
X154119236Y-110415270D01*
X154119236Y-110415270D02*
X154118426Y-110412334D01*
X154118426Y-110412334D02*
X154117617Y-110409397D01*
X154117617Y-110409397D02*
X154116809Y-110406460D01*
X154116809Y-110406460D02*
X154116001Y-110403523D01*
X154116001Y-110403523D02*
X154115193Y-110400586D01*
X154115193Y-110400586D02*
X154114386Y-110397648D01*
X154114386Y-110397648D02*
X154113580Y-110394711D01*
X154113580Y-110394711D02*
X154112773Y-110391773D01*
X154112773Y-110391773D02*
X154111968Y-110388836D01*
X154111968Y-110388836D02*
X154111162Y-110385898D01*
X154111162Y-110385898D02*
X154110357Y-110382960D01*
X154110357Y-110382960D02*
X154109553Y-110380022D01*
X154109553Y-110380022D02*
X154108749Y-110377084D01*
X154108749Y-110377084D02*
X154107946Y-110374145D01*
X154107946Y-110374145D02*
X154107143Y-110371207D01*
X154107143Y-110371207D02*
X154106340Y-110368268D01*
X154106340Y-110368268D02*
X154105538Y-110365330D01*
X154105538Y-110365330D02*
X154104736Y-110362391D01*
X154104736Y-110362391D02*
X154103935Y-110359452D01*
X154103935Y-110359452D02*
X154103134Y-110356513D01*
X154103134Y-110356513D02*
X154102333Y-110353574D01*
X154102333Y-110353574D02*
X154101534Y-110350635D01*
X154101534Y-110350635D02*
X154100734Y-110347695D01*
X154100734Y-110347695D02*
X154099935Y-110344756D01*
X154099935Y-110344756D02*
X154099136Y-110341816D01*
X154099136Y-110341816D02*
X154098338Y-110338876D01*
X154098338Y-110338876D02*
X154097541Y-110335937D01*
X154097541Y-110335937D02*
X154096743Y-110332997D01*
X154096743Y-110332997D02*
X154095946Y-110330056D01*
X154095946Y-110330056D02*
X154095150Y-110327116D01*
X154095150Y-110327116D02*
X154094354Y-110324176D01*
X154094354Y-110324176D02*
X154093559Y-110321235D01*
X154093559Y-110321235D02*
X154092764Y-110318295D01*
X154092764Y-110318295D02*
X154091969Y-110315354D01*
X154091969Y-110315354D02*
X154091175Y-110312413D01*
X154091175Y-110312413D02*
X154090381Y-110309472D01*
X154090381Y-110309472D02*
X154089588Y-110306531D01*
X154089588Y-110306531D02*
X154088795Y-110303590D01*
X154088795Y-110303590D02*
X154088003Y-110300649D01*
X154088003Y-110300649D02*
X154087211Y-110297707D01*
X154087211Y-110297707D02*
X154086420Y-110294766D01*
X154086420Y-110294766D02*
X154085629Y-110291824D01*
X154085629Y-110291824D02*
X154084838Y-110288882D01*
X154084838Y-110288882D02*
X154084048Y-110285940D01*
X154084048Y-110285940D02*
X154083258Y-110282998D01*
X154083258Y-110282998D02*
X154082469Y-110280056D01*
X154082469Y-110280056D02*
X154081681Y-110277114D01*
X154081681Y-110277114D02*
X154080892Y-110274171D01*
X154080892Y-110274171D02*
X154080104Y-110271229D01*
X154080104Y-110271229D02*
X154079317Y-110268286D01*
X154079317Y-110268286D02*
X154078530Y-110265343D01*
X154078530Y-110265343D02*
X154077744Y-110262401D01*
X154077744Y-110262401D02*
X154076957Y-110259457D01*
X154076957Y-110259457D02*
X154076172Y-110256514D01*
X154076172Y-110256514D02*
X154075387Y-110253571D01*
X154075387Y-110253571D02*
X154074602Y-110250628D01*
X154074602Y-110250628D02*
X154073818Y-110247684D01*
X154073818Y-110247684D02*
X154073034Y-110244741D01*
X154073034Y-110244741D02*
X154072251Y-110241797D01*
X154072251Y-110241797D02*
X154071468Y-110238853D01*
X154071468Y-110238853D02*
X154070685Y-110235909D01*
X154070685Y-110235909D02*
X154069903Y-110232965D01*
X154069903Y-110232965D02*
X154069122Y-110230021D01*
X154069122Y-110230021D02*
X154068340Y-110227077D01*
X154068340Y-110227077D02*
X154067560Y-110224132D01*
X154067560Y-110224132D02*
X154066780Y-110221188D01*
X154066780Y-110221188D02*
X154066000Y-110218243D01*
X154066000Y-110218243D02*
X154065220Y-110215298D01*
X154065220Y-110215298D02*
X154064442Y-110212353D01*
X154064442Y-110212353D02*
X154063663Y-110209408D01*
X154063663Y-110209408D02*
X154062885Y-110206463D01*
X154062885Y-110206463D02*
X154062108Y-110203518D01*
X154062108Y-110203518D02*
X154061331Y-110200572D01*
X154061331Y-110200572D02*
X154060554Y-110197627D01*
X154060554Y-110197627D02*
X154059778Y-110194681D01*
X154059778Y-110194681D02*
X154059002Y-110191735D01*
X154059002Y-110191735D02*
X154058227Y-110188790D01*
X154058227Y-110188790D02*
X154057452Y-110185844D01*
X154057452Y-110185844D02*
X154056677Y-110182897D01*
X154056677Y-110182897D02*
X154055904Y-110179951D01*
X154055904Y-110179951D02*
X154055130Y-110177005D01*
X154055130Y-110177005D02*
X154054357Y-110174058D01*
X154054357Y-110174058D02*
X154053584Y-110171112D01*
X154053584Y-110171112D02*
X154052812Y-110168165D01*
X154052812Y-110168165D02*
X154052041Y-110165218D01*
X154052041Y-110165218D02*
X154051269Y-110162271D01*
X154051269Y-110162271D02*
X154050498Y-110159324D01*
X154050498Y-110159324D02*
X154049728Y-110156377D01*
X154049728Y-110156377D02*
X154048958Y-110153430D01*
X154048958Y-110153430D02*
X154048189Y-110150483D01*
X154048189Y-110150483D02*
X154047420Y-110147535D01*
X154047420Y-110147535D02*
X154046651Y-110144588D01*
X154046651Y-110144588D02*
X154045883Y-110141640D01*
X154045883Y-110141640D02*
X154045115Y-110138692D01*
X154045115Y-110138692D02*
X154044348Y-110135744D01*
X154044348Y-110135744D02*
X154043581Y-110132796D01*
X154043581Y-110132796D02*
X154042815Y-110129848D01*
X154042815Y-110129848D02*
X154042049Y-110126899D01*
X154042049Y-110126899D02*
X154041284Y-110123951D01*
X154041284Y-110123951D02*
X154040519Y-110121002D01*
X154040519Y-110121002D02*
X154039754Y-110118054D01*
X154039754Y-110118054D02*
X154038990Y-110115105D01*
X154038990Y-110115105D02*
X154038227Y-110112156D01*
X154038227Y-110112156D02*
X154037463Y-110109207D01*
X154037463Y-110109207D02*
X154036701Y-110106258D01*
X154036701Y-110106258D02*
X154035939Y-110103308D01*
X154035939Y-110103308D02*
X154035177Y-110100359D01*
X154035177Y-110100359D02*
X154034415Y-110097410D01*
X154034415Y-110097410D02*
X154033654Y-110094460D01*
X154033654Y-110094460D02*
X154032894Y-110091510D01*
X154032894Y-110091510D02*
X154032134Y-110088560D01*
X154032134Y-110088560D02*
X154031374Y-110085611D01*
X154031374Y-110085611D02*
X154030615Y-110082660D01*
X154030615Y-110082660D02*
X154029856Y-110079710D01*
X154029856Y-110079710D02*
X154029098Y-110076760D01*
X154029098Y-110076760D02*
X154028340Y-110073810D01*
X154028340Y-110073810D02*
X154027583Y-110070859D01*
X154027583Y-110070859D02*
X154026826Y-110067908D01*
X154026826Y-110067908D02*
X154026070Y-110064958D01*
X154026070Y-110064958D02*
X154025314Y-110062007D01*
X154025314Y-110062007D02*
X154024558Y-110059056D01*
X154024558Y-110059056D02*
X154023803Y-110056105D01*
X154023803Y-110056105D02*
X154023049Y-110053153D01*
X154023049Y-110053153D02*
X154022294Y-110050202D01*
X154022294Y-110050202D02*
X154021541Y-110047251D01*
X154021541Y-110047251D02*
X154020787Y-110044299D01*
X154020787Y-110044299D02*
X154020035Y-110041347D01*
X154020035Y-110041347D02*
X154019282Y-110038396D01*
X154019282Y-110038396D02*
X154018530Y-110035444D01*
X154018530Y-110035444D02*
X154017779Y-110032492D01*
X154017779Y-110032492D02*
X154017028Y-110029540D01*
X154017028Y-110029540D02*
X154016277Y-110026587D01*
X154016277Y-110026587D02*
X154015527Y-110023635D01*
X154015527Y-110023635D02*
X154014777Y-110020682D01*
X154014777Y-110020682D02*
X154014028Y-110017730D01*
X154014028Y-110017730D02*
X154013279Y-110014777D01*
X154013279Y-110014777D02*
X154012531Y-110011824D01*
X154012531Y-110011824D02*
X154011783Y-110008871D01*
X154011783Y-110008871D02*
X154011036Y-110005918D01*
X154011036Y-110005918D02*
X154010289Y-110002965D01*
X154010289Y-110002965D02*
X154009542Y-110000012D01*
X154009542Y-110000012D02*
X154008796Y-109997058D01*
X154008796Y-109997058D02*
X154008050Y-109994105D01*
X154008050Y-109994105D02*
X154007305Y-109991151D01*
X154007305Y-109991151D02*
X154006560Y-109988198D01*
X154006560Y-109988198D02*
X154005816Y-109985244D01*
X154005816Y-109985244D02*
X154005072Y-109982290D01*
X154005072Y-109982290D02*
X154004329Y-109979336D01*
X154004329Y-109979336D02*
X154003586Y-109976382D01*
X154003586Y-109976382D02*
X154002843Y-109973427D01*
X154002843Y-109973427D02*
X154002101Y-109970473D01*
X154002101Y-109970473D02*
X154001360Y-109967518D01*
X154001360Y-109967518D02*
X154000619Y-109964564D01*
X154000619Y-109964564D02*
X153999878Y-109961609D01*
X153999878Y-109961609D02*
X153999138Y-109958654D01*
X153999138Y-109958654D02*
X153998398Y-109955699D01*
X153998398Y-109955699D02*
X153997659Y-109952744D01*
X153997659Y-109952744D02*
X153996920Y-109949789D01*
X153996920Y-109949789D02*
X153996181Y-109946833D01*
X153996181Y-109946833D02*
X153995443Y-109943878D01*
X153995443Y-109943878D02*
X153994706Y-109940923D01*
X153994706Y-109940923D02*
X153993969Y-109937967D01*
X153993969Y-109937967D02*
X153993232Y-109935011D01*
X153993232Y-109935011D02*
X153992496Y-109932055D01*
X153992496Y-109932055D02*
X153991760Y-109929099D01*
X153991760Y-109929099D02*
X153991025Y-109926143D01*
X153991025Y-109926143D02*
X153990290Y-109923187D01*
X153990290Y-109923187D02*
X153989556Y-109920231D01*
X153989556Y-109920231D02*
X153988822Y-109917274D01*
X153988822Y-109917274D02*
X153988088Y-109914318D01*
X153988088Y-109914318D02*
X153987355Y-109911361D01*
X153987355Y-109911361D02*
X153986623Y-109908404D01*
X153986623Y-109908404D02*
X153985890Y-109905447D01*
X153985890Y-109905447D02*
X153985159Y-109902490D01*
X153985159Y-109902490D02*
X153984428Y-109899533D01*
X153984428Y-109899533D02*
X153983697Y-109896576D01*
X153983697Y-109896576D02*
X153982966Y-109893619D01*
X153982966Y-109893619D02*
X153982237Y-109890661D01*
X153982237Y-109890661D02*
X153981507Y-109887704D01*
X153981507Y-109887704D02*
X153980778Y-109884746D01*
X153980778Y-109884746D02*
X153980050Y-109881788D01*
X153980050Y-109881788D02*
X153979321Y-109878830D01*
X153979321Y-109878830D02*
X153978594Y-109875872D01*
X153978594Y-109875872D02*
X153977867Y-109872914D01*
X153977867Y-109872914D02*
X153977140Y-109869956D01*
X153977140Y-109869956D02*
X153976414Y-109866998D01*
X153976414Y-109866998D02*
X153975688Y-109864039D01*
X153975688Y-109864039D02*
X153974962Y-109861081D01*
X153974962Y-109861081D02*
X153974238Y-109858122D01*
X153974238Y-109858122D02*
X153973513Y-109855163D01*
X153973513Y-109855163D02*
X153972789Y-109852204D01*
X153972789Y-109852204D02*
X153972065Y-109849245D01*
X153972065Y-109849245D02*
X153971342Y-109846286D01*
X153971342Y-109846286D02*
X153970620Y-109843327D01*
X153970620Y-109843327D02*
X153969897Y-109840368D01*
X153969897Y-109840368D02*
X153969176Y-109837408D01*
X153969176Y-109837408D02*
X153968454Y-109834449D01*
X153968454Y-109834449D02*
X153967733Y-109831489D01*
X153967733Y-109831489D02*
X153967013Y-109828529D01*
X153967013Y-109828529D02*
X153966293Y-109825570D01*
X153966293Y-109825570D02*
X153965574Y-109822610D01*
X153965574Y-109822610D02*
X153964854Y-109819650D01*
X153964854Y-109819650D02*
X153964136Y-109816689D01*
X153964136Y-109816689D02*
X153963418Y-109813729D01*
X153963418Y-109813729D02*
X153962700Y-109810769D01*
X153962700Y-109810769D02*
X153961983Y-109807808D01*
X153961983Y-109807808D02*
X153961266Y-109804847D01*
X153961266Y-109804847D02*
X153960550Y-109801887D01*
X153960550Y-109801887D02*
X153959834Y-109798926D01*
X153959834Y-109798926D02*
X153959118Y-109795965D01*
X153959118Y-109795965D02*
X153958403Y-109793004D01*
X153958403Y-109793004D02*
X153957689Y-109790043D01*
X153957689Y-109790043D02*
X153956974Y-109787081D01*
X153956974Y-109787081D02*
X153956261Y-109784120D01*
X153956261Y-109784120D02*
X153955548Y-109781158D01*
X153955548Y-109781158D02*
X153954835Y-109778197D01*
X153954835Y-109778197D02*
X153954123Y-109775235D01*
X153954123Y-109775235D02*
X153953411Y-109772273D01*
X153953411Y-109772273D02*
X153952699Y-109769311D01*
X153952699Y-109769311D02*
X153951988Y-109766349D01*
X153951988Y-109766349D02*
X153951278Y-109763387D01*
X153951278Y-109763387D02*
X153950568Y-109760425D01*
X153950568Y-109760425D02*
X153949858Y-109757462D01*
X153949858Y-109757462D02*
X153949149Y-109754500D01*
X153949149Y-109754500D02*
X153948440Y-109751537D01*
X153948440Y-109751537D02*
X153947732Y-109748575D01*
X153947732Y-109748575D02*
X153947024Y-109745612D01*
X153947024Y-109745612D02*
X153946317Y-109742649D01*
X153946317Y-109742649D02*
X153945610Y-109739686D01*
X153945610Y-109739686D02*
X153944904Y-109736723D01*
X153944904Y-109736723D02*
X153944198Y-109733760D01*
X153944198Y-109733760D02*
X153943492Y-109730796D01*
X153943492Y-109730796D02*
X153942787Y-109727833D01*
X153942787Y-109727833D02*
X153942082Y-109724869D01*
X153942082Y-109724869D02*
X153941378Y-109721906D01*
X153941378Y-109721906D02*
X153940674Y-109718942D01*
X153940674Y-109718942D02*
X153939971Y-109715978D01*
X153939971Y-109715978D02*
X153939268Y-109713014D01*
X153939268Y-109713014D02*
X153938566Y-109710050D01*
X153938566Y-109710050D02*
X153937864Y-109707086D01*
X153937864Y-109707086D02*
X153937163Y-109704121D01*
X153937163Y-109704121D02*
X153936462Y-109701157D01*
X153936462Y-109701157D02*
X153935761Y-109698192D01*
X153935761Y-109698192D02*
X153935061Y-109695228D01*
X153935061Y-109695228D02*
X153934361Y-109692263D01*
X153934361Y-109692263D02*
X153933662Y-109689298D01*
X153933662Y-109689298D02*
X153932963Y-109686333D01*
X153932963Y-109686333D02*
X153932265Y-109683368D01*
X153932265Y-109683368D02*
X153931567Y-109680403D01*
X153931567Y-109680403D02*
X153930870Y-109677438D01*
X153930870Y-109677438D02*
X153930173Y-109674472D01*
X153930173Y-109674472D02*
X153929476Y-109671507D01*
X153929476Y-109671507D02*
X153928780Y-109668541D01*
X153928780Y-109668541D02*
X153928085Y-109665576D01*
X153928085Y-109665576D02*
X153927389Y-109662610D01*
X153927389Y-109662610D02*
X153926695Y-109659644D01*
X153926695Y-109659644D02*
X153926000Y-109656678D01*
X153926000Y-109656678D02*
X153925307Y-109653712D01*
X153925307Y-109653712D02*
X153924613Y-109650746D01*
X153924613Y-109650746D02*
X153923920Y-109647779D01*
X153923920Y-109647779D02*
X153923228Y-109644813D01*
X153923228Y-109644813D02*
X153922536Y-109641846D01*
X153922536Y-109641846D02*
X153921844Y-109638880D01*
X153921844Y-109638880D02*
X153921153Y-109635913D01*
X153921153Y-109635913D02*
X153920463Y-109632946D01*
X153920463Y-109632946D02*
X153919773Y-109629979D01*
X153919773Y-109629979D02*
X153919083Y-109627012D01*
X153919083Y-109627012D02*
X153918394Y-109624045D01*
X153918394Y-109624045D02*
X153917705Y-109621078D01*
X153917705Y-109621078D02*
X153917016Y-109618110D01*
X153917016Y-109618110D02*
X153916328Y-109615143D01*
X153916328Y-109615143D02*
X153915641Y-109612175D01*
X153915641Y-109612175D02*
X153914954Y-109609208D01*
X153914954Y-109609208D02*
X153914267Y-109606240D01*
X153914267Y-109606240D02*
X153913581Y-109603272D01*
X153913581Y-109603272D02*
X153912896Y-109600304D01*
X153912896Y-109600304D02*
X153912210Y-109597336D01*
X153912210Y-109597336D02*
X153911526Y-109594368D01*
X153911526Y-109594368D02*
X153910841Y-109591399D01*
X153910841Y-109591399D02*
X153910157Y-109588431D01*
X153910157Y-109588431D02*
X153909474Y-109585462D01*
X153909474Y-109585462D02*
X153908791Y-109582494D01*
X153908791Y-109582494D02*
X153908109Y-109579525D01*
X153908109Y-109579525D02*
X153907427Y-109576556D01*
X153907427Y-109576556D02*
X153906745Y-109573587D01*
X153906745Y-109573587D02*
X153906064Y-109570618D01*
X153906064Y-109570618D02*
X153905383Y-109567649D01*
X153905383Y-109567649D02*
X153904703Y-109564680D01*
X153904703Y-109564680D02*
X153904023Y-109561710D01*
X153904023Y-109561710D02*
X153903344Y-109558741D01*
X153903344Y-109558741D02*
X153902665Y-109555771D01*
X153902665Y-109555771D02*
X153901986Y-109552802D01*
X153901986Y-109552802D02*
X153901309Y-109549832D01*
X153901309Y-109549832D02*
X153900631Y-109546862D01*
X153900631Y-109546862D02*
X153899954Y-109543892D01*
X153899954Y-109543892D02*
X153899277Y-109540922D01*
X153899277Y-109540922D02*
X153898601Y-109537952D01*
X153898601Y-109537952D02*
X153897925Y-109534981D01*
X153897925Y-109534981D02*
X153897250Y-109532011D01*
X153897250Y-109532011D02*
X153896575Y-109529041D01*
X153896575Y-109529041D02*
X153895901Y-109526070D01*
X153895901Y-109526070D02*
X153895227Y-109523099D01*
X153895227Y-109523099D02*
X153894554Y-109520129D01*
X153894554Y-109520129D02*
X153893881Y-109517158D01*
X153893881Y-109517158D02*
X153893208Y-109514187D01*
X153893208Y-109514187D02*
X153892536Y-109511216D01*
X153892536Y-109511216D02*
X153891864Y-109508244D01*
X153891864Y-109508244D02*
X153891193Y-109505273D01*
X153891193Y-109505273D02*
X153890522Y-109502302D01*
X153890522Y-109502302D02*
X153889852Y-109499330D01*
X153889852Y-109499330D02*
X153889182Y-109496358D01*
X153889182Y-109496358D02*
X153888513Y-109493387D01*
X153888513Y-109493387D02*
X153887844Y-109490415D01*
X153887844Y-109490415D02*
X153887176Y-109487443D01*
X153887176Y-109487443D02*
X153886508Y-109484471D01*
X153886508Y-109484471D02*
X153885840Y-109481499D01*
X153885840Y-109481499D02*
X153885173Y-109478527D01*
X153885173Y-109478527D02*
X153884506Y-109475554D01*
X153884506Y-109475554D02*
X153883840Y-109472582D01*
X153883840Y-109472582D02*
X153883174Y-109469609D01*
X153883174Y-109469609D02*
X153882509Y-109466637D01*
X153882509Y-109466637D02*
X153881844Y-109463664D01*
X153881844Y-109463664D02*
X153881180Y-109460691D01*
X153881180Y-109460691D02*
X153880516Y-109457718D01*
X153880516Y-109457718D02*
X153879852Y-109454745D01*
X153879852Y-109454745D02*
X153879189Y-109451772D01*
X153879189Y-109451772D02*
X153878527Y-109448799D01*
X153878527Y-109448799D02*
X153877864Y-109445825D01*
X153877864Y-109445825D02*
X153877203Y-109442852D01*
X153877203Y-109442852D02*
X153876542Y-109439878D01*
X153876542Y-109439878D02*
X153875881Y-109436905D01*
X153875881Y-109436905D02*
X153875220Y-109433931D01*
X153875220Y-109433931D02*
X153874561Y-109430957D01*
X153874561Y-109430957D02*
X153873901Y-109427983D01*
X153873901Y-109427983D02*
X153873242Y-109425009D01*
X153873242Y-109425009D02*
X153872584Y-109422035D01*
X153872584Y-109422035D02*
X153871926Y-109419061D01*
X153871926Y-109419061D02*
X153871268Y-109416086D01*
X153871268Y-109416086D02*
X153870611Y-109413112D01*
X153870611Y-109413112D02*
X153869954Y-109410138D01*
X153869954Y-109410138D02*
X153869298Y-109407163D01*
X153869298Y-109407163D02*
X153868642Y-109404188D01*
X153868642Y-109404188D02*
X153867987Y-109401213D01*
X153867987Y-109401213D02*
X153867332Y-109398238D01*
X153867332Y-109398238D02*
X153866678Y-109395263D01*
X153866678Y-109395263D02*
X153866024Y-109392288D01*
X153866024Y-109392288D02*
X153865370Y-109389313D01*
X153865370Y-109389313D02*
X153864717Y-109386338D01*
X153864717Y-109386338D02*
X153864064Y-109383362D01*
X153864064Y-109383362D02*
X153863412Y-109380387D01*
X153863412Y-109380387D02*
X153862760Y-109377411D01*
X153862760Y-109377411D02*
X153862109Y-109374435D01*
X153862109Y-109374435D02*
X153861458Y-109371459D01*
X153861458Y-109371459D02*
X153860808Y-109368483D01*
X153860808Y-109368483D02*
X153860158Y-109365507D01*
X153860158Y-109365507D02*
X153859509Y-109362531D01*
X153859509Y-109362531D02*
X153858860Y-109359555D01*
X153858860Y-109359555D02*
X153858211Y-109356579D01*
X153858211Y-109356579D02*
X153857563Y-109353602D01*
X153857563Y-109353602D02*
X153856915Y-109350626D01*
X153856915Y-109350626D02*
X153856268Y-109347649D01*
X153856268Y-109347649D02*
X153855622Y-109344672D01*
X153855622Y-109344672D02*
X153854975Y-109341695D01*
X153854975Y-109341695D02*
X153854329Y-109338719D01*
X153854329Y-109338719D02*
X153853684Y-109335742D01*
X153853684Y-109335742D02*
X153853039Y-109332764D01*
X153853039Y-109332764D02*
X153852395Y-109329787D01*
X153852395Y-109329787D02*
X153851751Y-109326810D01*
X153851751Y-109326810D02*
X153851107Y-109323832D01*
X153851107Y-109323832D02*
X153850464Y-109320855D01*
X153850464Y-109320855D02*
X153849821Y-109317877D01*
X153849821Y-109317877D02*
X153849179Y-109314900D01*
X153849179Y-109314900D02*
X153848970Y-109313928D01*
X153631467Y-108133988D02*
X153631005Y-108130977D01*
X153631005Y-108130977D02*
X153630544Y-108127966D01*
X153630544Y-108127966D02*
X153630083Y-108124954D01*
X153630083Y-108124954D02*
X153629622Y-108121943D01*
X153629622Y-108121943D02*
X153629162Y-108118932D01*
X153629162Y-108118932D02*
X153628703Y-108115921D01*
X153628703Y-108115921D02*
X153628244Y-108112909D01*
X153628244Y-108112909D02*
X153627785Y-108109898D01*
X153627785Y-108109898D02*
X153627327Y-108106886D01*
X153627327Y-108106886D02*
X153626869Y-108103875D01*
X153626869Y-108103875D02*
X153626412Y-108100863D01*
X153626412Y-108100863D02*
X153625955Y-108097851D01*
X153625955Y-108097851D02*
X153625499Y-108094840D01*
X153625499Y-108094840D02*
X153625043Y-108091828D01*
X153625043Y-108091828D02*
X153624587Y-108088816D01*
X153624587Y-108088816D02*
X153624132Y-108085804D01*
X153624132Y-108085804D02*
X153623678Y-108082792D01*
X153623678Y-108082792D02*
X153623224Y-108079780D01*
X153623224Y-108079780D02*
X153622770Y-108076767D01*
X153622770Y-108076767D02*
X153622317Y-108073755D01*
X153622317Y-108073755D02*
X153621864Y-108070743D01*
X153621864Y-108070743D02*
X153621412Y-108067730D01*
X153621412Y-108067730D02*
X153620960Y-108064718D01*
X153620960Y-108064718D02*
X153620509Y-108061705D01*
X153620509Y-108061705D02*
X153620058Y-108058693D01*
X153620058Y-108058693D02*
X153619607Y-108055680D01*
X153619607Y-108055680D02*
X153619158Y-108052667D01*
X153619158Y-108052667D02*
X153618708Y-108049654D01*
X153618708Y-108049654D02*
X153618259Y-108046642D01*
X153618259Y-108046642D02*
X153617810Y-108043629D01*
X153617810Y-108043629D02*
X153617362Y-108040616D01*
X153617362Y-108040616D02*
X153616915Y-108037602D01*
X153616915Y-108037602D02*
X153616467Y-108034589D01*
X153616467Y-108034589D02*
X153616021Y-108031576D01*
X153616021Y-108031576D02*
X153615574Y-108028563D01*
X153615574Y-108028563D02*
X153615129Y-108025549D01*
X153615129Y-108025549D02*
X153614683Y-108022536D01*
X153614683Y-108022536D02*
X153614238Y-108019522D01*
X153614238Y-108019522D02*
X153613794Y-108016509D01*
X153613794Y-108016509D02*
X153613350Y-108013495D01*
X153613350Y-108013495D02*
X153612906Y-108010481D01*
X153612906Y-108010481D02*
X153612463Y-108007468D01*
X153612463Y-108007468D02*
X153612021Y-108004454D01*
X153612021Y-108004454D02*
X153611579Y-108001440D01*
X153611579Y-108001440D02*
X153611137Y-107998426D01*
X153611137Y-107998426D02*
X153610696Y-107995412D01*
X153610696Y-107995412D02*
X153610255Y-107992398D01*
X153610255Y-107992398D02*
X153609815Y-107989384D01*
X153609815Y-107989384D02*
X153609375Y-107986369D01*
X153609375Y-107986369D02*
X153608935Y-107983355D01*
X153608935Y-107983355D02*
X153608496Y-107980341D01*
X153608496Y-107980341D02*
X153608058Y-107977326D01*
X153608058Y-107977326D02*
X153607620Y-107974312D01*
X153607620Y-107974312D02*
X153607182Y-107971297D01*
X153607182Y-107971297D02*
X153606745Y-107968282D01*
X153606745Y-107968282D02*
X153606309Y-107965268D01*
X153606309Y-107965268D02*
X153605873Y-107962253D01*
X153605873Y-107962253D02*
X153605437Y-107959238D01*
X153605437Y-107959238D02*
X153605002Y-107956223D01*
X153605002Y-107956223D02*
X153604567Y-107953208D01*
X153604567Y-107953208D02*
X153604132Y-107950193D01*
X153604132Y-107950193D02*
X153603699Y-107947178D01*
X153603699Y-107947178D02*
X153603265Y-107944163D01*
X153603265Y-107944163D02*
X153602832Y-107941148D01*
X153602832Y-107941148D02*
X153602400Y-107938132D01*
X153602400Y-107938132D02*
X153601968Y-107935117D01*
X153601968Y-107935117D02*
X153601536Y-107932101D01*
X153601536Y-107932101D02*
X153601105Y-107929086D01*
X153601105Y-107929086D02*
X153600674Y-107926070D01*
X153600674Y-107926070D02*
X153600244Y-107923055D01*
X153600244Y-107923055D02*
X153599814Y-107920039D01*
X153599814Y-107920039D02*
X153599385Y-107917023D01*
X153599385Y-107917023D02*
X153598956Y-107914007D01*
X153598956Y-107914007D02*
X153598528Y-107910991D01*
X153598528Y-107910991D02*
X153598100Y-107907976D01*
X153598100Y-107907976D02*
X153597672Y-107904959D01*
X153597672Y-107904959D02*
X153597245Y-107901943D01*
X153597245Y-107901943D02*
X153596819Y-107898927D01*
X153596819Y-107898927D02*
X153596393Y-107895911D01*
X153596393Y-107895911D02*
X153595967Y-107892895D01*
X153595967Y-107892895D02*
X153595542Y-107889878D01*
X153595542Y-107889878D02*
X153595117Y-107886862D01*
X153595117Y-107886862D02*
X153594693Y-107883845D01*
X153594693Y-107883845D02*
X153594269Y-107880829D01*
X153594269Y-107880829D02*
X153593846Y-107877812D01*
X153593846Y-107877812D02*
X153593423Y-107874796D01*
X153593423Y-107874796D02*
X153593001Y-107871779D01*
X153593001Y-107871779D02*
X153592579Y-107868762D01*
X153592579Y-107868762D02*
X153592157Y-107865745D01*
X153592157Y-107865745D02*
X153591736Y-107862728D01*
X153591736Y-107862728D02*
X153591316Y-107859711D01*
X153591316Y-107859711D02*
X153590896Y-107856694D01*
X153590896Y-107856694D02*
X153590476Y-107853677D01*
X153590476Y-107853677D02*
X153590057Y-107850660D01*
X153590057Y-107850660D02*
X153589638Y-107847643D01*
X153589638Y-107847643D02*
X153589220Y-107844625D01*
X153589220Y-107844625D02*
X153588802Y-107841608D01*
X153588802Y-107841608D02*
X153588385Y-107838590D01*
X153588385Y-107838590D02*
X153587968Y-107835573D01*
X153587968Y-107835573D02*
X153587552Y-107832555D01*
X153587552Y-107832555D02*
X153587136Y-107829538D01*
X153587136Y-107829538D02*
X153586720Y-107826520D01*
X153586720Y-107826520D02*
X153586305Y-107823502D01*
X153586305Y-107823502D02*
X153585890Y-107820484D01*
X153585890Y-107820484D02*
X153585476Y-107817466D01*
X153585476Y-107817466D02*
X153585063Y-107814449D01*
X153585063Y-107814449D02*
X153584649Y-107811430D01*
X153584649Y-107811430D02*
X153584237Y-107808412D01*
X153584237Y-107808412D02*
X153583824Y-107805394D01*
X153583824Y-107805394D02*
X153583413Y-107802376D01*
X153583413Y-107802376D02*
X153583001Y-107799358D01*
X153583001Y-107799358D02*
X153582590Y-107796339D01*
X153582590Y-107796339D02*
X153582180Y-107793321D01*
X153582180Y-107793321D02*
X153581770Y-107790303D01*
X153581770Y-107790303D02*
X153581360Y-107787284D01*
X153581360Y-107787284D02*
X153580951Y-107784265D01*
X153580951Y-107784265D02*
X153580543Y-107781247D01*
X153580543Y-107781247D02*
X153580135Y-107778228D01*
X153580135Y-107778228D02*
X153579727Y-107775209D01*
X153579727Y-107775209D02*
X153579320Y-107772191D01*
X153579320Y-107772191D02*
X153578913Y-107769172D01*
X153578913Y-107769172D02*
X153578507Y-107766153D01*
X153578507Y-107766153D02*
X153578101Y-107763134D01*
X153578101Y-107763134D02*
X153577695Y-107760115D01*
X153577695Y-107760115D02*
X153577290Y-107757095D01*
X153577290Y-107757095D02*
X153576886Y-107754076D01*
X153576886Y-107754076D02*
X153576482Y-107751057D01*
X153576482Y-107751057D02*
X153576078Y-107748038D01*
X153576078Y-107748038D02*
X153575675Y-107745018D01*
X153575675Y-107745018D02*
X153575273Y-107741999D01*
X153575273Y-107741999D02*
X153574870Y-107738979D01*
X153574870Y-107738979D02*
X153574469Y-107735960D01*
X153574469Y-107735960D02*
X153574067Y-107732940D01*
X153574067Y-107732940D02*
X153573667Y-107729920D01*
X153573667Y-107729920D02*
X153573266Y-107726901D01*
X153573266Y-107726901D02*
X153572866Y-107723881D01*
X153572866Y-107723881D02*
X153572467Y-107720861D01*
X153572467Y-107720861D02*
X153572068Y-107717841D01*
X153572068Y-107717841D02*
X153571670Y-107714821D01*
X153571670Y-107714821D02*
X153571272Y-107711801D01*
X153571272Y-107711801D02*
X153570874Y-107708781D01*
X153570874Y-107708781D02*
X153570477Y-107705761D01*
X153570477Y-107705761D02*
X153570080Y-107702740D01*
X153570080Y-107702740D02*
X153569684Y-107699720D01*
X153569684Y-107699720D02*
X153569288Y-107696700D01*
X153569288Y-107696700D02*
X153568893Y-107693679D01*
X153568893Y-107693679D02*
X153568498Y-107690659D01*
X153568498Y-107690659D02*
X153568104Y-107687638D01*
X153568104Y-107687638D02*
X153567710Y-107684618D01*
X153567710Y-107684618D02*
X153567317Y-107681597D01*
X153567317Y-107681597D02*
X153566924Y-107678576D01*
X153566924Y-107678576D02*
X153566531Y-107675556D01*
X153566531Y-107675556D02*
X153566139Y-107672535D01*
X153566139Y-107672535D02*
X153565747Y-107669514D01*
X153565747Y-107669514D02*
X153565356Y-107666493D01*
X153565356Y-107666493D02*
X153564966Y-107663472D01*
X153564966Y-107663472D02*
X153564575Y-107660451D01*
X153564575Y-107660451D02*
X153564186Y-107657430D01*
X153564186Y-107657430D02*
X153563796Y-107654408D01*
X153563796Y-107654408D02*
X153563408Y-107651387D01*
X153563408Y-107651387D02*
X153563019Y-107648366D01*
X153563019Y-107648366D02*
X153562631Y-107645345D01*
X153562631Y-107645345D02*
X153562244Y-107642323D01*
X153562244Y-107642323D02*
X153561857Y-107639302D01*
X153561857Y-107639302D02*
X153561470Y-107636280D01*
X153561470Y-107636280D02*
X153561084Y-107633258D01*
X153561084Y-107633258D02*
X153560699Y-107630237D01*
X153560699Y-107630237D02*
X153560314Y-107627215D01*
X153560314Y-107627215D02*
X153559929Y-107624193D01*
X153559929Y-107624193D02*
X153559545Y-107621171D01*
X153559545Y-107621171D02*
X153559161Y-107618149D01*
X153559161Y-107618149D02*
X153558778Y-107615128D01*
X153558778Y-107615128D02*
X153558395Y-107612106D01*
X153558395Y-107612106D02*
X153558012Y-107609083D01*
X153558012Y-107609083D02*
X153557630Y-107606061D01*
X153557630Y-107606061D02*
X153557249Y-107603039D01*
X153557249Y-107603039D02*
X153556868Y-107600017D01*
X153556868Y-107600017D02*
X153556487Y-107596995D01*
X153556487Y-107596995D02*
X153556107Y-107593972D01*
X153556107Y-107593972D02*
X153555728Y-107590950D01*
X153555728Y-107590950D02*
X153555349Y-107587927D01*
X153555349Y-107587927D02*
X153554970Y-107584905D01*
X153554970Y-107584905D02*
X153554592Y-107581882D01*
X153554592Y-107581882D02*
X153554214Y-107578859D01*
X153554214Y-107578859D02*
X153553836Y-107575837D01*
X153553836Y-107575837D02*
X153553460Y-107572814D01*
X153553460Y-107572814D02*
X153553083Y-107569791D01*
X153553083Y-107569791D02*
X153552707Y-107566768D01*
X153552707Y-107566768D02*
X153552332Y-107563745D01*
X153552332Y-107563745D02*
X153551957Y-107560722D01*
X153551957Y-107560722D02*
X153551582Y-107557699D01*
X153551582Y-107557699D02*
X153551208Y-107554676D01*
X153551208Y-107554676D02*
X153550834Y-107551653D01*
X153550834Y-107551653D02*
X153550461Y-107548630D01*
X153550461Y-107548630D02*
X153550089Y-107545606D01*
X153550089Y-107545606D02*
X153549716Y-107542583D01*
X153549716Y-107542583D02*
X153549345Y-107539560D01*
X153549345Y-107539560D02*
X153548973Y-107536536D01*
X153548973Y-107536536D02*
X153548602Y-107533513D01*
X153548602Y-107533513D02*
X153548232Y-107530489D01*
X153548232Y-107530489D02*
X153547862Y-107527466D01*
X153547862Y-107527466D02*
X153547492Y-107524442D01*
X153547492Y-107524442D02*
X153547123Y-107521418D01*
X153547123Y-107521418D02*
X153546755Y-107518394D01*
X153546755Y-107518394D02*
X153546387Y-107515370D01*
X153546387Y-107515370D02*
X153546019Y-107512347D01*
X153546019Y-107512347D02*
X153545652Y-107509323D01*
X153545652Y-107509323D02*
X153545285Y-107506299D01*
X153545285Y-107506299D02*
X153544919Y-107503275D01*
X153544919Y-107503275D02*
X153544553Y-107500250D01*
X153544553Y-107500250D02*
X153544188Y-107497226D01*
X153544188Y-107497226D02*
X153543823Y-107494202D01*
X153543823Y-107494202D02*
X153543458Y-107491178D01*
X153543458Y-107491178D02*
X153543094Y-107488153D01*
X153543094Y-107488153D02*
X153542731Y-107485129D01*
X153542731Y-107485129D02*
X153542368Y-107482104D01*
X153542368Y-107482104D02*
X153542005Y-107479080D01*
X153542005Y-107479080D02*
X153541643Y-107476055D01*
X153541643Y-107476055D02*
X153541282Y-107473031D01*
X153541282Y-107473031D02*
X153540920Y-107470006D01*
X153540920Y-107470006D02*
X153540560Y-107466981D01*
X153540560Y-107466981D02*
X153540199Y-107463957D01*
X153540199Y-107463957D02*
X153539839Y-107460932D01*
X153539839Y-107460932D02*
X153539480Y-107457907D01*
X153539480Y-107457907D02*
X153539121Y-107454882D01*
X153539121Y-107454882D02*
X153538763Y-107451857D01*
X153538763Y-107451857D02*
X153538405Y-107448832D01*
X153538405Y-107448832D02*
X153538047Y-107445807D01*
X153538047Y-107445807D02*
X153537690Y-107442781D01*
X153537690Y-107442781D02*
X153537334Y-107439756D01*
X153537334Y-107439756D02*
X153536978Y-107436731D01*
X153536978Y-107436731D02*
X153536622Y-107433706D01*
X153536622Y-107433706D02*
X153536267Y-107430680D01*
X153536267Y-107430680D02*
X153535912Y-107427655D01*
X153535912Y-107427655D02*
X153535558Y-107424629D01*
X153535558Y-107424629D02*
X153535204Y-107421604D01*
X153535204Y-107421604D02*
X153534850Y-107418578D01*
X153534850Y-107418578D02*
X153534497Y-107415552D01*
X153534497Y-107415552D02*
X153534145Y-107412527D01*
X153534145Y-107412527D02*
X153533793Y-107409501D01*
X153533793Y-107409501D02*
X153533442Y-107406475D01*
X153533442Y-107406475D02*
X153533090Y-107403449D01*
X153533090Y-107403449D02*
X153532740Y-107400423D01*
X153532740Y-107400423D02*
X153532390Y-107397397D01*
X153532390Y-107397397D02*
X153532040Y-107394371D01*
X153532040Y-107394371D02*
X153531691Y-107391345D01*
X153531691Y-107391345D02*
X153531342Y-107388319D01*
X153531342Y-107388319D02*
X153530994Y-107385293D01*
X153530994Y-107385293D02*
X153530646Y-107382267D01*
X153530646Y-107382267D02*
X153530299Y-107379240D01*
X153530299Y-107379240D02*
X153529952Y-107376214D01*
X153529952Y-107376214D02*
X153529605Y-107373188D01*
X153529605Y-107373188D02*
X153529259Y-107370161D01*
X153529259Y-107370161D02*
X153528914Y-107367135D01*
X153528914Y-107367135D02*
X153528569Y-107364108D01*
X153528569Y-107364108D02*
X153528224Y-107361081D01*
X153528224Y-107361081D02*
X153527880Y-107358055D01*
X153527880Y-107358055D02*
X153527536Y-107355028D01*
X153527536Y-107355028D02*
X153527193Y-107352001D01*
X153527193Y-107352001D02*
X153526850Y-107348974D01*
X153526850Y-107348974D02*
X153526508Y-107345947D01*
X153526508Y-107345947D02*
X153526166Y-107342921D01*
X153526166Y-107342921D02*
X153525825Y-107339894D01*
X153525825Y-107339894D02*
X153525484Y-107336867D01*
X153525484Y-107336867D02*
X153525143Y-107333839D01*
X153525143Y-107333839D02*
X153524803Y-107330812D01*
X153524803Y-107330812D02*
X153524464Y-107327785D01*
X153524464Y-107327785D02*
X153524125Y-107324758D01*
X153524125Y-107324758D02*
X153523786Y-107321731D01*
X153523786Y-107321731D02*
X153523448Y-107318703D01*
X153523448Y-107318703D02*
X153523110Y-107315676D01*
X153523110Y-107315676D02*
X153522773Y-107312648D01*
X153522773Y-107312648D02*
X153522436Y-107309621D01*
X153522436Y-107309621D02*
X153522100Y-107306593D01*
X153522100Y-107306593D02*
X153521764Y-107303566D01*
X153521764Y-107303566D02*
X153521428Y-107300538D01*
X153521428Y-107300538D02*
X153521094Y-107297510D01*
X153521094Y-107297510D02*
X153520759Y-107294483D01*
X153520759Y-107294483D02*
X153520425Y-107291455D01*
X153520425Y-107291455D02*
X153520092Y-107288427D01*
X153520092Y-107288427D02*
X153519758Y-107285399D01*
X153519758Y-107285399D02*
X153519426Y-107282371D01*
X153519426Y-107282371D02*
X153519094Y-107279343D01*
X153519094Y-107279343D02*
X153518762Y-107276315D01*
X153518762Y-107276315D02*
X153518431Y-107273287D01*
X153518431Y-107273287D02*
X153518100Y-107270259D01*
X153518100Y-107270259D02*
X153517770Y-107267231D01*
X153517770Y-107267231D02*
X153517440Y-107264202D01*
X153517440Y-107264202D02*
X153517110Y-107261174D01*
X153517110Y-107261174D02*
X153516781Y-107258146D01*
X153516781Y-107258146D02*
X153516453Y-107255117D01*
X153516453Y-107255117D02*
X153516125Y-107252089D01*
X153516125Y-107252089D02*
X153515797Y-107249060D01*
X153515797Y-107249060D02*
X153515470Y-107246032D01*
X153515470Y-107246032D02*
X153515144Y-107243003D01*
X153515144Y-107243003D02*
X153514817Y-107239974D01*
X153514817Y-107239974D02*
X153514492Y-107236946D01*
X153514492Y-107236946D02*
X153514167Y-107233917D01*
X153514167Y-107233917D02*
X153513842Y-107230888D01*
X153513842Y-107230888D02*
X153513517Y-107227859D01*
X153513517Y-107227859D02*
X153513194Y-107224830D01*
X153513194Y-107224830D02*
X153512870Y-107221801D01*
X153512870Y-107221801D02*
X153512547Y-107218772D01*
X153512547Y-107218772D02*
X153512225Y-107215743D01*
X153512225Y-107215743D02*
X153511903Y-107212714D01*
X153511903Y-107212714D02*
X153511581Y-107209685D01*
X153511581Y-107209685D02*
X153511260Y-107206656D01*
X153511260Y-107206656D02*
X153510939Y-107203627D01*
X153510939Y-107203627D02*
X153510619Y-107200597D01*
X153510619Y-107200597D02*
X153510300Y-107197568D01*
X153510300Y-107197568D02*
X153509980Y-107194539D01*
X153509980Y-107194539D02*
X153509662Y-107191509D01*
X153509662Y-107191509D02*
X153509343Y-107188480D01*
X153509343Y-107188480D02*
X153509025Y-107185450D01*
X153509025Y-107185450D02*
X153508708Y-107182420D01*
X153508708Y-107182420D02*
X153508391Y-107179391D01*
X153508391Y-107179391D02*
X153508075Y-107176361D01*
X153508075Y-107176361D02*
X153507759Y-107173331D01*
X153507759Y-107173331D02*
X153507443Y-107170302D01*
X153507443Y-107170302D02*
X153507128Y-107167272D01*
X153507128Y-107167272D02*
X153506813Y-107164242D01*
X153506813Y-107164242D02*
X153506499Y-107161212D01*
X153506499Y-107161212D02*
X153506185Y-107158182D01*
X153506185Y-107158182D02*
X153505872Y-107155152D01*
X153505872Y-107155152D02*
X153505559Y-107152122D01*
X153505559Y-107152122D02*
X153505247Y-107149092D01*
X153505247Y-107149092D02*
X153504935Y-107146062D01*
X153504935Y-107146062D02*
X153504624Y-107143031D01*
X153504624Y-107143031D02*
X153504313Y-107140001D01*
X153504313Y-107140001D02*
X153504002Y-107136971D01*
X153504002Y-107136971D02*
X153503692Y-107133940D01*
X153503692Y-107133940D02*
X153503383Y-107130910D01*
X153503383Y-107130910D02*
X153503074Y-107127880D01*
X153503074Y-107127880D02*
X153502765Y-107124849D01*
X153502765Y-107124849D02*
X153502457Y-107121819D01*
X153502457Y-107121819D02*
X153502149Y-107118788D01*
X153502149Y-107118788D02*
X153501842Y-107115757D01*
X153501842Y-107115757D02*
X153501535Y-107112727D01*
X153501535Y-107112727D02*
X153501229Y-107109696D01*
X153501229Y-107109696D02*
X153500923Y-107106665D01*
X153500923Y-107106665D02*
X153500618Y-107103634D01*
X153500618Y-107103634D02*
X153500313Y-107100603D01*
X153500313Y-107100603D02*
X153500008Y-107097572D01*
X153500008Y-107097572D02*
X153499704Y-107094542D01*
X153499704Y-107094542D02*
X153499401Y-107091511D01*
X153499401Y-107091511D02*
X153499097Y-107088479D01*
X153499097Y-107088479D02*
X153498795Y-107085448D01*
X153498795Y-107085448D02*
X153498493Y-107082417D01*
X153498493Y-107082417D02*
X153498191Y-107079386D01*
X153498191Y-107079386D02*
X153497890Y-107076355D01*
X153497890Y-107076355D02*
X153497589Y-107073323D01*
X153497589Y-107073323D02*
X153497289Y-107070292D01*
X153497289Y-107070292D02*
X153496989Y-107067261D01*
X153496989Y-107067261D02*
X153496689Y-107064229D01*
X153496689Y-107064229D02*
X153496390Y-107061198D01*
X153496390Y-107061198D02*
X153496092Y-107058166D01*
X153496092Y-107058166D02*
X153495794Y-107055135D01*
X153495794Y-107055135D02*
X153495496Y-107052103D01*
X153495496Y-107052103D02*
X153495199Y-107049072D01*
X153495199Y-107049072D02*
X153494903Y-107046040D01*
X153494903Y-107046040D02*
X153494606Y-107043008D01*
X153494606Y-107043008D02*
X153494311Y-107039976D01*
X153494311Y-107039976D02*
X153494015Y-107036944D01*
X153494015Y-107036944D02*
X153493721Y-107033913D01*
X153493721Y-107033913D02*
X153493426Y-107030881D01*
X153493426Y-107030881D02*
X153493133Y-107027849D01*
X153493133Y-107027849D02*
X153492839Y-107024817D01*
X153492839Y-107024817D02*
X153492546Y-107021785D01*
X153492546Y-107021785D02*
X153492254Y-107018753D01*
X153492254Y-107018753D02*
X153491962Y-107015720D01*
X153491962Y-107015720D02*
X153491670Y-107012688D01*
X153491670Y-107012688D02*
X153491379Y-107009656D01*
X153491379Y-107009656D02*
X153491088Y-107006624D01*
X153491088Y-107006624D02*
X153490798Y-107003591D01*
X153490798Y-107003591D02*
X153490509Y-107000559D01*
X153490509Y-107000559D02*
X153490219Y-106997527D01*
X153490219Y-106997527D02*
X153489931Y-106994494D01*
X153489931Y-106994494D02*
X153489642Y-106991462D01*
X153489642Y-106991462D02*
X153489354Y-106988429D01*
X153489354Y-106988429D02*
X153489067Y-106985397D01*
X153489067Y-106985397D02*
X153488780Y-106982364D01*
X153488780Y-106982364D02*
X153488494Y-106979331D01*
X153488494Y-106979331D02*
X153488208Y-106976298D01*
X153488208Y-106976298D02*
X153487922Y-106973266D01*
X153487922Y-106973266D02*
X153487637Y-106970233D01*
X153487637Y-106970233D02*
X153487352Y-106967200D01*
X153487352Y-106967200D02*
X153487068Y-106964167D01*
X153487068Y-106964167D02*
X153486784Y-106961134D01*
X153486784Y-106961134D02*
X153486501Y-106958101D01*
X153486501Y-106958101D02*
X153486218Y-106955068D01*
X153486218Y-106955068D02*
X153485936Y-106952035D01*
X153485936Y-106952035D02*
X153485654Y-106949002D01*
X153485654Y-106949002D02*
X153485373Y-106945969D01*
X153485373Y-106945969D02*
X153485092Y-106942936D01*
X153485092Y-106942936D02*
X153484812Y-106939903D01*
X153484812Y-106939903D02*
X153484532Y-106936869D01*
X153484532Y-106936869D02*
X153484252Y-106933836D01*
X153484252Y-106933836D02*
X153483973Y-106930803D01*
X153483973Y-106930803D02*
X153483694Y-106927769D01*
X153483694Y-106927769D02*
X153483416Y-106924736D01*
X153483416Y-106924736D02*
X153483138Y-106921702D01*
X153483138Y-106921702D02*
X153482861Y-106918669D01*
X153482861Y-106918669D02*
X153482584Y-106915635D01*
X153482584Y-106915635D02*
X153482308Y-106912601D01*
X153482308Y-106912601D02*
X153482032Y-106909568D01*
X153482032Y-106909568D02*
X153481757Y-106906534D01*
X153481757Y-106906534D02*
X153481482Y-106903500D01*
X153481482Y-106903500D02*
X153481208Y-106900467D01*
X153481208Y-106900467D02*
X153480934Y-106897433D01*
X153480934Y-106897433D02*
X153480660Y-106894399D01*
X153480660Y-106894399D02*
X153480387Y-106891365D01*
X153480387Y-106891365D02*
X153480114Y-106888331D01*
X153480114Y-106888331D02*
X153479842Y-106885297D01*
X153479842Y-106885297D02*
X153479570Y-106882263D01*
X153479570Y-106882263D02*
X153479299Y-106879229D01*
X153479299Y-106879229D02*
X153479028Y-106876195D01*
X153479028Y-106876195D02*
X153478758Y-106873161D01*
X153478758Y-106873161D02*
X153478488Y-106870126D01*
X153478488Y-106870126D02*
X153478219Y-106867092D01*
X153478219Y-106867092D02*
X153477950Y-106864058D01*
X153477950Y-106864058D02*
X153477682Y-106861024D01*
X153477682Y-106861024D02*
X153477414Y-106857989D01*
X153477414Y-106857989D02*
X153477146Y-106854955D01*
X153477146Y-106854955D02*
X153476879Y-106851920D01*
X153476879Y-106851920D02*
X153476612Y-106848886D01*
X153476612Y-106848886D02*
X153476346Y-106845851D01*
X153476346Y-106845851D02*
X153476081Y-106842817D01*
X153476081Y-106842817D02*
X153475815Y-106839782D01*
X153475815Y-106839782D02*
X153475551Y-106836748D01*
X153475551Y-106836748D02*
X153475286Y-106833713D01*
X153475286Y-106833713D02*
X153475023Y-106830678D01*
X153475023Y-106830678D02*
X153474759Y-106827643D01*
X153474759Y-106827643D02*
X153474496Y-106824609D01*
X153474496Y-106824609D02*
X153474234Y-106821574D01*
X153474234Y-106821574D02*
X153473972Y-106818539D01*
X153473972Y-106818539D02*
X153473710Y-106815504D01*
X153473710Y-106815504D02*
X153473449Y-106812469D01*
X153473449Y-106812469D02*
X153473189Y-106809434D01*
X153473189Y-106809434D02*
X153472929Y-106806399D01*
X153472929Y-106806399D02*
X153472669Y-106803364D01*
X153472669Y-106803364D02*
X153472410Y-106800329D01*
X153472410Y-106800329D02*
X153472151Y-106797294D01*
X153472151Y-106797294D02*
X153471893Y-106794258D01*
X153471893Y-106794258D02*
X153471635Y-106791223D01*
X153471635Y-106791223D02*
X153471377Y-106788188D01*
X153471377Y-106788188D02*
X153471121Y-106785152D01*
X153471121Y-106785152D02*
X153470864Y-106782117D01*
X153470864Y-106782117D02*
X153470608Y-106779082D01*
X153470608Y-106779082D02*
X153470353Y-106776046D01*
X153470353Y-106776046D02*
X153470098Y-106773011D01*
X153470098Y-106773011D02*
X153469843Y-106769975D01*
X153469843Y-106769975D02*
X153469589Y-106766940D01*
X153469589Y-106766940D02*
X153469335Y-106763904D01*
X153469335Y-106763904D02*
X153469082Y-106760868D01*
X153469082Y-106760868D02*
X153468829Y-106757833D01*
X153468829Y-106757833D02*
X153468577Y-106754797D01*
X153468577Y-106754797D02*
X153468325Y-106751761D01*
X153468325Y-106751761D02*
X153468074Y-106748726D01*
X153468074Y-106748726D02*
X153467823Y-106745690D01*
X153467823Y-106745690D02*
X153467573Y-106742654D01*
X153467573Y-106742654D02*
X153467323Y-106739618D01*
X153467323Y-106739618D02*
X153467073Y-106736582D01*
X153467073Y-106736582D02*
X153466824Y-106733546D01*
X153466824Y-106733546D02*
X153466576Y-106730510D01*
X153466576Y-106730510D02*
X153466327Y-106727474D01*
X153466327Y-106727474D02*
X153466080Y-106724438D01*
X153466080Y-106724438D02*
X153465833Y-106721402D01*
X153465833Y-106721402D02*
X153465586Y-106718366D01*
X153465586Y-106718366D02*
X153465340Y-106715329D01*
X153465340Y-106715329D02*
X153465094Y-106712293D01*
X153465094Y-106712293D02*
X153464848Y-106709257D01*
X153464848Y-106709257D02*
X153464604Y-106706221D01*
X153464604Y-106706221D02*
X153464359Y-106703184D01*
X153464359Y-106703184D02*
X153464115Y-106700148D01*
X153464115Y-106700148D02*
X153463872Y-106697111D01*
X153463872Y-106697111D02*
X153463629Y-106694075D01*
X153463629Y-106694075D02*
X153463386Y-106691038D01*
X153463386Y-106691038D02*
X153463144Y-106688002D01*
X153463144Y-106688002D02*
X153462902Y-106684965D01*
X153462902Y-106684965D02*
X153462661Y-106681929D01*
X153462661Y-106681929D02*
X153462421Y-106678892D01*
X153462421Y-106678892D02*
X153462180Y-106675855D01*
X153462180Y-106675855D02*
X153461941Y-106672819D01*
X153461941Y-106672819D02*
X153461701Y-106669782D01*
X153461701Y-106669782D02*
X153461462Y-106666745D01*
X153461462Y-106666745D02*
X153461224Y-106663708D01*
X153461224Y-106663708D02*
X153460986Y-106660671D01*
X153460986Y-106660671D02*
X153460749Y-106657634D01*
X153460749Y-106657634D02*
X153460512Y-106654598D01*
X153460512Y-106654598D02*
X153460275Y-106651561D01*
X153460275Y-106651561D02*
X153460039Y-106648524D01*
X153460039Y-106648524D02*
X153459803Y-106645487D01*
X153459803Y-106645487D02*
X153459568Y-106642449D01*
X153459568Y-106642449D02*
X153459333Y-106639412D01*
X153459333Y-106639412D02*
X153459099Y-106636375D01*
X153459099Y-106636375D02*
X153458865Y-106633338D01*
X153458865Y-106633338D02*
X153458632Y-106630301D01*
X153458632Y-106630301D02*
X153458399Y-106627263D01*
X153458399Y-106627263D02*
X153458167Y-106624226D01*
X153458167Y-106624226D02*
X153457935Y-106621189D01*
X153457935Y-106621189D02*
X153457703Y-106618151D01*
X153457703Y-106618151D02*
X153457473Y-106615114D01*
X153457473Y-106615114D02*
X153457242Y-106612077D01*
X153457242Y-106612077D02*
X153457012Y-106609039D01*
X153457012Y-106609039D02*
X153456782Y-106606002D01*
X153456782Y-106606002D02*
X153456553Y-106602964D01*
X153456553Y-106602964D02*
X153456324Y-106599927D01*
X153456324Y-106599927D02*
X153456096Y-106596889D01*
X153456096Y-106596889D02*
X153455868Y-106593851D01*
X153455868Y-106593851D02*
X153455641Y-106590814D01*
X153455641Y-106590814D02*
X153455414Y-106587776D01*
X153455414Y-106587776D02*
X153455188Y-106584738D01*
X153455188Y-106584738D02*
X153454962Y-106581700D01*
X153454962Y-106581700D02*
X153454737Y-106578663D01*
X153454737Y-106578663D02*
X153454512Y-106575625D01*
X153454512Y-106575625D02*
X153454287Y-106572587D01*
X153454287Y-106572587D02*
X153454063Y-106569549D01*
X153454063Y-106569549D02*
X153453839Y-106566511D01*
X153453839Y-106566511D02*
X153453616Y-106563473D01*
X153453616Y-106563473D02*
X153453394Y-106560435D01*
X153453394Y-106560435D02*
X153453171Y-106557397D01*
X153453171Y-106557397D02*
X153452950Y-106554359D01*
X153452950Y-106554359D02*
X153452728Y-106551321D01*
X153452728Y-106551321D02*
X153452508Y-106548282D01*
X153452508Y-106548282D02*
X153452287Y-106545244D01*
X153452287Y-106545244D02*
X153452067Y-106542206D01*
X153452067Y-106542206D02*
X153451848Y-106539168D01*
X153451848Y-106539168D02*
X153451629Y-106536129D01*
X153451629Y-106536129D02*
X153451410Y-106533091D01*
X153451410Y-106533091D02*
X153451192Y-106530053D01*
X153451192Y-106530053D02*
X153450975Y-106527014D01*
X153450975Y-106527014D02*
X153450758Y-106523976D01*
X153450758Y-106523976D02*
X153450541Y-106520938D01*
X153450541Y-106520938D02*
X153450325Y-106517899D01*
X153450325Y-106517899D02*
X153450109Y-106514860D01*
X153450109Y-106514860D02*
X153449894Y-106511822D01*
X153449894Y-106511822D02*
X153449679Y-106508783D01*
X153449679Y-106508783D02*
X153449465Y-106505745D01*
X153449465Y-106505745D02*
X153449251Y-106502706D01*
X153449251Y-106502706D02*
X153449037Y-106499667D01*
X153449037Y-106499667D02*
X153448825Y-106496629D01*
X153448825Y-106496629D02*
X153448612Y-106493590D01*
X153448612Y-106493590D02*
X153448400Y-106490551D01*
X153448400Y-106490551D02*
X153448188Y-106487512D01*
X153448188Y-106487512D02*
X153447977Y-106484473D01*
X153447977Y-106484473D02*
X153447767Y-106481435D01*
X153447767Y-106481435D02*
X153447557Y-106478396D01*
X153447557Y-106478396D02*
X153447347Y-106475357D01*
X153447347Y-106475357D02*
X153447138Y-106472318D01*
X153447138Y-106472318D02*
X153446929Y-106469279D01*
X153446929Y-106469279D02*
X153446720Y-106466240D01*
X153446720Y-106466240D02*
X153446513Y-106463201D01*
X153446513Y-106463201D02*
X153446305Y-106460161D01*
X153446305Y-106460161D02*
X153446098Y-106457122D01*
X153446098Y-106457122D02*
X153445892Y-106454083D01*
X153445892Y-106454083D02*
X153445686Y-106451044D01*
X153445686Y-106451044D02*
X153445480Y-106448005D01*
X153445480Y-106448005D02*
X153445275Y-106444965D01*
X153445275Y-106444965D02*
X153445071Y-106441926D01*
X153445071Y-106441926D02*
X153444866Y-106438887D01*
X153444866Y-106438887D02*
X153444663Y-106435848D01*
X153444663Y-106435848D02*
X153444460Y-106432808D01*
X153444460Y-106432808D02*
X153444257Y-106429769D01*
X153444257Y-106429769D02*
X153444054Y-106426729D01*
X153444054Y-106426729D02*
X153443853Y-106423690D01*
X153443853Y-106423690D02*
X153443651Y-106420650D01*
X153443651Y-106420650D02*
X153443450Y-106417611D01*
X153443450Y-106417611D02*
X153443250Y-106414571D01*
X153443250Y-106414571D02*
X153443050Y-106411532D01*
X153443050Y-106411532D02*
X153442850Y-106408492D01*
X153442850Y-106408492D02*
X153442651Y-106405452D01*
X153442651Y-106405452D02*
X153442453Y-106402413D01*
X153442453Y-106402413D02*
X153442255Y-106399373D01*
X153442255Y-106399373D02*
X153442057Y-106396333D01*
X153442057Y-106396333D02*
X153441860Y-106393293D01*
X153441860Y-106393293D02*
X153441663Y-106390253D01*
X153441663Y-106390253D02*
X153441467Y-106387214D01*
X153441467Y-106387214D02*
X153441271Y-106384174D01*
X153441271Y-106384174D02*
X153441075Y-106381134D01*
X153441075Y-106381134D02*
X153440881Y-106378094D01*
X153440881Y-106378094D02*
X153440686Y-106375054D01*
X153440686Y-106375054D02*
X153440492Y-106372014D01*
X153440492Y-106372014D02*
X153440299Y-106368974D01*
X153440299Y-106368974D02*
X153440106Y-106365934D01*
X153440106Y-106365934D02*
X153439913Y-106362894D01*
X153439913Y-106362894D02*
X153439721Y-106359854D01*
X153439721Y-106359854D02*
X153439529Y-106356814D01*
X153439529Y-106356814D02*
X153439338Y-106353773D01*
X153439338Y-106353773D02*
X153439147Y-106350733D01*
X153439147Y-106350733D02*
X153438957Y-106347693D01*
X153438957Y-106347693D02*
X153438767Y-106344653D01*
X153438767Y-106344653D02*
X153438578Y-106341612D01*
X153438578Y-106341612D02*
X153438389Y-106338572D01*
X153438389Y-106338572D02*
X153438201Y-106335532D01*
X153438201Y-106335532D02*
X153438013Y-106332491D01*
X153438013Y-106332491D02*
X153437825Y-106329451D01*
X153437825Y-106329451D02*
X153437638Y-106326411D01*
X153437638Y-106326411D02*
X153437452Y-106323370D01*
X153437452Y-106323370D02*
X153437265Y-106320330D01*
X153437265Y-106320330D02*
X153437080Y-106317289D01*
X153437080Y-106317289D02*
X153436895Y-106314249D01*
X153436895Y-106314249D02*
X153436710Y-106311208D01*
X153436710Y-106311208D02*
X153436526Y-106308167D01*
X153436526Y-106308167D02*
X153436342Y-106305127D01*
X153436342Y-106305127D02*
X153436159Y-106302086D01*
X153436159Y-106302086D02*
X153435976Y-106299045D01*
X153435976Y-106299045D02*
X153435793Y-106296005D01*
X153435793Y-106296005D02*
X153435611Y-106292964D01*
X153435611Y-106292964D02*
X153435430Y-106289923D01*
X153435430Y-106289923D02*
X153435249Y-106286882D01*
X153435249Y-106286882D02*
X153435068Y-106283842D01*
X153435068Y-106283842D02*
X153434888Y-106280801D01*
X153434888Y-106280801D02*
X153434709Y-106277760D01*
X153434709Y-106277760D02*
X153434530Y-106274719D01*
X153434530Y-106274719D02*
X153434351Y-106271678D01*
X153434351Y-106271678D02*
X153434173Y-106268637D01*
X153434173Y-106268637D02*
X153433995Y-106265596D01*
X153433995Y-106265596D02*
X153433818Y-106262555D01*
X153433818Y-106262555D02*
X153433641Y-106259514D01*
X153433641Y-106259514D02*
X153433464Y-106256473D01*
X153433464Y-106256473D02*
X153433288Y-106253432D01*
X153433288Y-106253432D02*
X153433113Y-106250391D01*
X153433113Y-106250391D02*
X153432938Y-106247350D01*
X153432938Y-106247350D02*
X153432764Y-106244309D01*
X153432764Y-106244309D02*
X153432589Y-106241267D01*
X153432589Y-106241267D02*
X153432416Y-106238226D01*
X153432416Y-106238226D02*
X153432243Y-106235185D01*
X153432243Y-106235185D02*
X153432070Y-106232144D01*
X153432070Y-106232144D02*
X153431898Y-106229102D01*
X153431898Y-106229102D02*
X153431726Y-106226061D01*
X153431726Y-106226061D02*
X153431555Y-106223020D01*
X153431555Y-106223020D02*
X153431384Y-106219978D01*
X153431384Y-106219978D02*
X153431214Y-106216937D01*
X153431214Y-106216937D02*
X153431044Y-106213895D01*
X153431044Y-106213895D02*
X153430874Y-106210854D01*
X153430874Y-106210854D02*
X153430705Y-106207812D01*
X153430705Y-106207812D02*
X153430537Y-106204771D01*
X153430537Y-106204771D02*
X153430369Y-106201729D01*
X153430369Y-106201729D02*
X153430201Y-106198688D01*
X153430201Y-106198688D02*
X153430034Y-106195646D01*
X153430034Y-106195646D02*
X153429868Y-106192605D01*
X153429868Y-106192605D02*
X153429701Y-106189563D01*
X153429701Y-106189563D02*
X153429536Y-106186521D01*
X153429536Y-106186521D02*
X153429370Y-106183480D01*
X153429370Y-106183480D02*
X153429206Y-106180438D01*
X153429206Y-106180438D02*
X153429041Y-106177396D01*
X153429041Y-106177396D02*
X153428877Y-106174354D01*
X153428877Y-106174354D02*
X153428714Y-106171313D01*
X153428714Y-106171313D02*
X153428551Y-106168271D01*
X153428551Y-106168271D02*
X153428389Y-106165229D01*
X153428389Y-106165229D02*
X153428227Y-106162187D01*
X153428227Y-106162187D02*
X153428065Y-106159145D01*
X153428065Y-106159145D02*
X153427904Y-106156103D01*
X153427904Y-106156103D02*
X153427743Y-106153061D01*
X153427743Y-106153061D02*
X153427583Y-106150019D01*
X153427583Y-106150019D02*
X153427424Y-106146977D01*
X153427424Y-106146977D02*
X153427264Y-106143935D01*
X153427264Y-106143935D02*
X153427106Y-106140893D01*
X153427106Y-106140893D02*
X153426947Y-106137851D01*
X153426947Y-106137851D02*
X153426789Y-106134809D01*
X153426789Y-106134809D02*
X153426632Y-106131767D01*
X153426632Y-106131767D02*
X153426475Y-106128725D01*
X153426475Y-106128725D02*
X153426319Y-106125683D01*
X153426319Y-106125683D02*
X153426163Y-106122641D01*
X153426163Y-106122641D02*
X153426007Y-106119598D01*
X153426007Y-106119598D02*
X153425852Y-106116556D01*
X153425852Y-106116556D02*
X153425697Y-106113514D01*
X153425697Y-106113514D02*
X153425543Y-106110472D01*
X153425543Y-106110472D02*
X153425390Y-106107429D01*
X153425390Y-106107429D02*
X153425236Y-106104387D01*
X153425236Y-106104387D02*
X153425084Y-106101345D01*
X153425084Y-106101345D02*
X153424931Y-106098302D01*
X153424931Y-106098302D02*
X153424780Y-106095260D01*
X153424780Y-106095260D02*
X153424628Y-106092218D01*
X153424628Y-106092218D02*
X153424477Y-106089175D01*
X153424477Y-106089175D02*
X153424327Y-106086133D01*
X153424327Y-106086133D02*
X153424177Y-106083090D01*
X153424177Y-106083090D02*
X153424027Y-106080048D01*
X153424027Y-106080048D02*
X153423878Y-106077005D01*
X153423878Y-106077005D02*
X153423730Y-106073963D01*
X153423730Y-106073963D02*
X153423582Y-106070920D01*
X153423582Y-106070920D02*
X153423434Y-106067878D01*
X153423434Y-106067878D02*
X153423287Y-106064835D01*
X153423287Y-106064835D02*
X153423140Y-106061792D01*
X153423140Y-106061792D02*
X153422994Y-106058750D01*
X153422994Y-106058750D02*
X153422848Y-106055707D01*
X153422848Y-106055707D02*
X153422703Y-106052664D01*
X153422703Y-106052664D02*
X153422558Y-106049621D01*
X153422558Y-106049621D02*
X153422413Y-106046579D01*
X153422413Y-106046579D02*
X153422270Y-106043536D01*
X153422270Y-106043536D02*
X153422126Y-106040493D01*
X153422126Y-106040493D02*
X153421983Y-106037450D01*
X153421983Y-106037450D02*
X153421841Y-106034408D01*
X153421841Y-106034408D02*
X153421698Y-106031365D01*
X153421698Y-106031365D02*
X153421557Y-106028322D01*
X153421557Y-106028322D02*
X153421416Y-106025279D01*
X153421416Y-106025279D02*
X153421275Y-106022236D01*
X153421275Y-106022236D02*
X153421135Y-106019193D01*
X153421135Y-106019193D02*
X153420995Y-106016150D01*
X153420995Y-106016150D02*
X153420856Y-106013107D01*
X153420856Y-106013107D02*
X153420717Y-106010064D01*
X153420717Y-106010064D02*
X153420578Y-106007021D01*
X153420578Y-106007021D02*
X153420441Y-106003978D01*
X153420441Y-106003978D02*
X153420303Y-106000935D01*
X153420303Y-106000935D02*
X153420166Y-105997892D01*
X153420166Y-105997892D02*
X153420030Y-105994849D01*
X153420030Y-105994849D02*
X153419893Y-105991806D01*
X153419893Y-105991806D02*
X153419758Y-105988762D01*
X153419758Y-105988762D02*
X153419623Y-105985719D01*
X153419623Y-105985719D02*
X153419488Y-105982676D01*
X153419488Y-105982676D02*
X153419354Y-105979633D01*
X153419354Y-105979633D02*
X153419220Y-105976590D01*
X153419220Y-105976590D02*
X153419087Y-105973546D01*
X153419087Y-105973546D02*
X153418954Y-105970503D01*
X153418954Y-105970503D02*
X153418822Y-105967460D01*
X153418822Y-105967460D02*
X153418690Y-105964416D01*
X153418690Y-105964416D02*
X153418558Y-105961373D01*
X153418558Y-105961373D02*
X153418427Y-105958330D01*
X153418427Y-105958330D02*
X153418297Y-105955286D01*
X153418297Y-105955286D02*
X153418167Y-105952243D01*
X153418167Y-105952243D02*
X153418037Y-105949200D01*
X153418037Y-105949200D02*
X153417908Y-105946156D01*
X153417908Y-105946156D02*
X153417780Y-105943113D01*
X153417780Y-105943113D02*
X153417651Y-105940069D01*
X153417651Y-105940069D02*
X153417524Y-105937026D01*
X153417524Y-105937026D02*
X153417396Y-105933982D01*
X153417396Y-105933982D02*
X153417270Y-105930939D01*
X153417270Y-105930939D02*
X153417143Y-105927895D01*
X153417143Y-105927895D02*
X153417017Y-105924851D01*
X153417017Y-105924851D02*
X153416892Y-105921808D01*
X153416892Y-105921808D02*
X153416767Y-105918764D01*
X153416767Y-105918764D02*
X153416643Y-105915721D01*
X153416643Y-105915721D02*
X153416519Y-105912677D01*
X153416519Y-105912677D02*
X153416395Y-105909633D01*
X153416395Y-105909633D02*
X153416272Y-105906590D01*
X153416272Y-105906590D02*
X153416149Y-105903546D01*
X153416149Y-105903546D02*
X153416027Y-105900502D01*
X153416027Y-105900502D02*
X153415905Y-105897458D01*
X153415905Y-105897458D02*
X153415784Y-105894415D01*
X153415784Y-105894415D02*
X153415663Y-105891371D01*
X153415663Y-105891371D02*
X153415543Y-105888327D01*
X153415543Y-105888327D02*
X153415423Y-105885283D01*
X153415423Y-105885283D02*
X153415304Y-105882239D01*
X153415304Y-105882239D02*
X153415185Y-105879196D01*
X153415185Y-105879196D02*
X153415067Y-105876152D01*
X153415067Y-105876152D02*
X153414949Y-105873108D01*
X153414949Y-105873108D02*
X153414831Y-105870064D01*
X153414831Y-105870064D02*
X153414714Y-105867020D01*
X153414714Y-105867020D02*
X153414597Y-105863976D01*
X153414597Y-105863976D02*
X153414481Y-105860932D01*
X153414481Y-105860932D02*
X153414366Y-105857888D01*
X153414366Y-105857888D02*
X153414250Y-105854844D01*
X153414250Y-105854844D02*
X153414136Y-105851800D01*
X153414136Y-105851800D02*
X153414021Y-105848756D01*
X153414021Y-105848756D02*
X153413908Y-105845712D01*
X153413908Y-105845712D02*
X153413794Y-105842668D01*
X153413794Y-105842668D02*
X153413681Y-105839624D01*
X153413681Y-105839624D02*
X153413569Y-105836580D01*
X153413569Y-105836580D02*
X153413457Y-105833536D01*
X153413457Y-105833536D02*
X153413346Y-105830492D01*
X153413346Y-105830492D02*
X153413235Y-105827447D01*
X153413235Y-105827447D02*
X153413124Y-105824403D01*
X153413124Y-105824403D02*
X153413014Y-105821359D01*
X153413014Y-105821359D02*
X153412904Y-105818315D01*
X153412904Y-105818315D02*
X153412795Y-105815271D01*
X153412795Y-105815271D02*
X153412686Y-105812226D01*
X153412686Y-105812226D02*
X153412578Y-105809182D01*
X153412578Y-105809182D02*
X153412470Y-105806138D01*
X153412470Y-105806138D02*
X153412363Y-105803094D01*
X153412363Y-105803094D02*
X153412256Y-105800049D01*
X153412256Y-105800049D02*
X153412150Y-105797005D01*
X153412150Y-105797005D02*
X153412044Y-105793961D01*
X153412044Y-105793961D02*
X153411938Y-105790916D01*
X153411938Y-105790916D02*
X153411833Y-105787872D01*
X153411833Y-105787872D02*
X153411729Y-105784828D01*
X153411729Y-105784828D02*
X153411625Y-105781783D01*
X153411625Y-105781783D02*
X153411521Y-105778739D01*
X153411521Y-105778739D02*
X153411418Y-105775694D01*
X153411418Y-105775694D02*
X153411315Y-105772650D01*
X153411315Y-105772650D02*
X153411213Y-105769605D01*
X153411213Y-105769605D02*
X153411111Y-105766561D01*
X153411111Y-105766561D02*
X153411010Y-105763517D01*
X153411010Y-105763517D02*
X153410909Y-105760472D01*
X153410909Y-105760472D02*
X153410809Y-105757427D01*
X153410809Y-105757427D02*
X153410709Y-105754383D01*
X153410709Y-105754383D02*
X153410610Y-105751338D01*
X153410610Y-105751338D02*
X153410511Y-105748294D01*
X153410511Y-105748294D02*
X153410412Y-105745249D01*
X153410412Y-105745249D02*
X153410314Y-105742205D01*
X153410314Y-105742205D02*
X153410216Y-105739160D01*
X153410216Y-105739160D02*
X153410119Y-105736115D01*
X153410119Y-105736115D02*
X153410023Y-105733071D01*
X153410023Y-105733071D02*
X153409926Y-105730026D01*
X153409926Y-105730026D02*
X153409831Y-105726981D01*
X153409831Y-105726981D02*
X153409735Y-105723937D01*
X153409735Y-105723937D02*
X153409641Y-105720892D01*
X153409641Y-105720892D02*
X153409546Y-105717847D01*
X153409546Y-105717847D02*
X153409452Y-105714803D01*
X153409452Y-105714803D02*
X153409359Y-105711758D01*
X153409359Y-105711758D02*
X153409266Y-105708713D01*
X153409266Y-105708713D02*
X153409174Y-105705668D01*
X153409174Y-105705668D02*
X153409082Y-105702624D01*
X153409082Y-105702624D02*
X153408990Y-105699579D01*
X153408990Y-105699579D02*
X153408899Y-105696534D01*
X153408899Y-105696534D02*
X153408808Y-105693489D01*
X153408808Y-105693489D02*
X153408718Y-105690444D01*
X153408718Y-105690444D02*
X153408628Y-105687399D01*
X153408628Y-105687399D02*
X153408539Y-105684355D01*
X153408539Y-105684355D02*
X153408450Y-105681310D01*
X153408450Y-105681310D02*
X153408362Y-105678265D01*
X153408362Y-105678265D02*
X153408274Y-105675220D01*
X153408274Y-105675220D02*
X153408187Y-105672175D01*
X153408187Y-105672175D02*
X153408100Y-105669130D01*
X153408100Y-105669130D02*
X153408014Y-105666085D01*
X153408014Y-105666085D02*
X153407928Y-105663040D01*
X153407928Y-105663040D02*
X153407842Y-105659995D01*
X153407842Y-105659995D02*
X153407757Y-105656950D01*
X153407757Y-105656950D02*
X153407672Y-105653905D01*
X153407672Y-105653905D02*
X153407588Y-105650860D01*
X153407588Y-105650860D02*
X153407505Y-105647815D01*
X153407505Y-105647815D02*
X153407421Y-105644770D01*
X153407421Y-105644770D02*
X153407339Y-105641725D01*
X153407339Y-105641725D02*
X153407256Y-105638680D01*
X153407256Y-105638680D02*
X153407175Y-105635635D01*
X153407175Y-105635635D02*
X153407093Y-105632590D01*
X153407093Y-105632590D02*
X153407012Y-105629545D01*
X153407012Y-105629545D02*
X153406932Y-105626500D01*
X153406932Y-105626500D02*
X153406852Y-105623454D01*
X153406852Y-105623454D02*
X153406772Y-105620409D01*
X153406772Y-105620409D02*
X153406693Y-105617364D01*
X153406693Y-105617364D02*
X153406615Y-105614319D01*
X153406615Y-105614319D02*
X153406537Y-105611274D01*
X153406537Y-105611274D02*
X153406459Y-105608229D01*
X153406459Y-105608229D02*
X153406382Y-105605183D01*
X153406382Y-105605183D02*
X153406305Y-105602138D01*
X153406305Y-105602138D02*
X153406229Y-105599093D01*
X153406229Y-105599093D02*
X153406153Y-105596048D01*
X153406153Y-105596048D02*
X153406078Y-105593003D01*
X153406078Y-105593003D02*
X153406003Y-105589957D01*
X153406003Y-105589957D02*
X153405929Y-105586912D01*
X153405929Y-105586912D02*
X153405855Y-105583867D01*
X153405855Y-105583867D02*
X153405781Y-105580822D01*
X153405781Y-105580822D02*
X153405708Y-105577776D01*
X153405708Y-105577776D02*
X153405636Y-105574731D01*
X153405636Y-105574731D02*
X153405564Y-105571686D01*
X153405564Y-105571686D02*
X153405492Y-105568640D01*
X153405492Y-105568640D02*
X153405421Y-105565595D01*
X153405421Y-105565595D02*
X153405350Y-105562550D01*
X153405350Y-105562550D02*
X153405280Y-105559504D01*
X153405280Y-105559504D02*
X153405210Y-105556459D01*
X153405210Y-105556459D02*
X153405141Y-105553413D01*
X153405141Y-105553413D02*
X153405072Y-105550368D01*
X153405072Y-105550368D02*
X153405004Y-105547323D01*
X153405004Y-105547323D02*
X153404936Y-105544277D01*
X153404936Y-105544277D02*
X153404868Y-105541232D01*
X153404868Y-105541232D02*
X153404801Y-105538186D01*
X153404801Y-105538186D02*
X153404735Y-105535141D01*
X153404735Y-105535141D02*
X153404669Y-105532095D01*
X153404669Y-105532095D02*
X153404603Y-105529050D01*
X153404603Y-105529050D02*
X153404538Y-105526004D01*
X153404538Y-105526004D02*
X153404474Y-105522959D01*
X153404474Y-105522959D02*
X153404409Y-105519913D01*
X153404409Y-105519913D02*
X153404346Y-105516868D01*
X153404346Y-105516868D02*
X153404282Y-105513822D01*
X153404282Y-105513822D02*
X153404220Y-105510777D01*
X153404220Y-105510777D02*
X153404157Y-105507731D01*
X153404157Y-105507731D02*
X153404095Y-105504686D01*
X153404095Y-105504686D02*
X153404034Y-105501640D01*
X153404034Y-105501640D02*
X153403973Y-105498595D01*
X153403973Y-105498595D02*
X153403913Y-105495549D01*
X153403913Y-105495549D02*
X153403853Y-105492504D01*
X153403853Y-105492504D02*
X153403793Y-105489458D01*
X153403793Y-105489458D02*
X153403734Y-105486412D01*
X153403734Y-105486412D02*
X153403675Y-105483367D01*
X153403675Y-105483367D02*
X153403617Y-105480321D01*
X153403617Y-105480321D02*
X153403559Y-105477276D01*
X153403559Y-105477276D02*
X153403502Y-105474230D01*
X153403502Y-105474230D02*
X153403445Y-105471184D01*
X153403445Y-105471184D02*
X153403389Y-105468139D01*
X153403389Y-105468139D02*
X153403333Y-105465093D01*
X153403333Y-105465093D02*
X153403278Y-105462047D01*
X153403278Y-105462047D02*
X153403223Y-105459002D01*
X153403223Y-105459002D02*
X153403169Y-105455956D01*
X153403169Y-105455956D02*
X153403115Y-105452910D01*
X153403115Y-105452910D02*
X153403061Y-105449865D01*
X153403061Y-105449865D02*
X153403008Y-105446819D01*
X153403008Y-105446819D02*
X153402955Y-105443773D01*
X153402955Y-105443773D02*
X153402903Y-105440727D01*
X153402903Y-105440727D02*
X153402852Y-105437682D01*
X153402852Y-105437682D02*
X153402800Y-105434636D01*
X153402800Y-105434636D02*
X153402750Y-105431590D01*
X153402750Y-105431590D02*
X153402699Y-105428544D01*
X153402699Y-105428544D02*
X153402650Y-105425499D01*
X153402650Y-105425499D02*
X153402600Y-105422453D01*
X153402600Y-105422453D02*
X153402551Y-105419407D01*
X153402551Y-105419407D02*
X153402503Y-105416361D01*
X153402503Y-105416361D02*
X153402455Y-105413315D01*
X153402455Y-105413315D02*
X153402407Y-105410270D01*
X153402407Y-105410270D02*
X153402360Y-105407224D01*
X153402360Y-105407224D02*
X153402314Y-105404178D01*
X153402314Y-105404178D02*
X153402268Y-105401132D01*
X153402268Y-105401132D02*
X153402222Y-105398086D01*
X153402222Y-105398086D02*
X153402177Y-105395041D01*
X153402177Y-105395041D02*
X153402132Y-105391995D01*
X153402132Y-105391995D02*
X153402088Y-105388949D01*
X153402088Y-105388949D02*
X153402044Y-105385903D01*
X153402044Y-105385903D02*
X153402001Y-105382857D01*
X153402001Y-105382857D02*
X153401958Y-105379811D01*
X153401958Y-105379811D02*
X153401916Y-105376765D01*
X153401916Y-105376765D02*
X153401874Y-105373719D01*
X153401874Y-105373719D02*
X153401832Y-105370674D01*
X153401832Y-105370674D02*
X153401791Y-105367628D01*
X153401791Y-105367628D02*
X153401751Y-105364582D01*
X153401751Y-105364582D02*
X153401711Y-105361536D01*
X153401711Y-105361536D02*
X153401671Y-105358490D01*
X153401671Y-105358490D02*
X153401632Y-105355444D01*
X153401632Y-105355444D02*
X153401593Y-105352398D01*
X153401593Y-105352398D02*
X153401555Y-105349352D01*
X153401555Y-105349352D02*
X153401517Y-105346306D01*
X153401517Y-105346306D02*
X153401480Y-105343260D01*
X153401480Y-105343260D02*
X153401443Y-105340214D01*
X153401443Y-105340214D02*
X153401407Y-105337168D01*
X153401407Y-105337168D02*
X153401371Y-105334122D01*
X153401371Y-105334122D02*
X153401336Y-105331076D01*
X153401336Y-105331076D02*
X153401301Y-105328030D01*
X153401301Y-105328030D02*
X153401266Y-105324984D01*
X153401266Y-105324984D02*
X153401232Y-105321938D01*
X153401232Y-105321938D02*
X153401199Y-105318892D01*
X153401199Y-105318892D02*
X153401165Y-105315846D01*
X153401165Y-105315846D02*
X153401133Y-105312800D01*
X153401133Y-105312800D02*
X153401101Y-105309754D01*
X153401101Y-105309754D02*
X153401069Y-105306708D01*
X153401069Y-105306708D02*
X153401038Y-105303662D01*
X153401038Y-105303662D02*
X153401007Y-105300616D01*
X153401007Y-105300616D02*
X153400977Y-105297570D01*
X153400977Y-105297570D02*
X153400947Y-105294524D01*
X153400947Y-105294524D02*
X153400917Y-105291478D01*
X153400917Y-105291478D02*
X153400888Y-105288432D01*
X153400888Y-105288432D02*
X153400860Y-105285386D01*
X153400860Y-105285386D02*
X153400832Y-105282340D01*
X153400832Y-105282340D02*
X153400804Y-105279294D01*
X153400804Y-105279294D02*
X153400777Y-105276248D01*
X153400777Y-105276248D02*
X153400751Y-105273202D01*
X153400751Y-105273202D02*
X153400724Y-105270156D01*
X153400724Y-105270156D02*
X153400699Y-105267110D01*
X153400699Y-105267110D02*
X153400674Y-105264064D01*
X153400674Y-105264064D02*
X153400649Y-105261018D01*
X153400649Y-105261018D02*
X153400625Y-105257972D01*
X153400625Y-105257972D02*
X153400601Y-105254926D01*
X153400601Y-105254926D02*
X153400577Y-105251880D01*
X153400577Y-105251880D02*
X153400554Y-105248833D01*
X153400554Y-105248833D02*
X153400532Y-105245787D01*
X153400532Y-105245787D02*
X153400510Y-105242741D01*
X153400510Y-105242741D02*
X153400489Y-105239695D01*
X153400489Y-105239695D02*
X153400467Y-105236649D01*
X153400467Y-105236649D02*
X153400447Y-105233603D01*
X153400447Y-105233603D02*
X153400427Y-105230557D01*
X153400427Y-105230557D02*
X153400407Y-105227511D01*
X153400407Y-105227511D02*
X153400388Y-105224465D01*
X153400388Y-105224465D02*
X153400369Y-105221419D01*
X153400369Y-105221419D02*
X153400351Y-105218372D01*
X153400351Y-105218372D02*
X153400333Y-105215326D01*
X153400333Y-105215326D02*
X153400316Y-105212280D01*
X153400316Y-105212280D02*
X153400299Y-105209234D01*
X153400299Y-105209234D02*
X153400283Y-105206188D01*
X153400283Y-105206188D02*
X153400267Y-105203142D01*
X153400267Y-105203142D02*
X153400251Y-105200096D01*
X153400251Y-105200096D02*
X153400236Y-105197050D01*
X153400236Y-105197050D02*
X153400222Y-105194003D01*
X153400222Y-105194003D02*
X153400207Y-105190957D01*
X153400207Y-105190957D02*
X153400194Y-105187911D01*
X153400194Y-105187911D02*
X153400181Y-105184865D01*
X153400181Y-105184865D02*
X153400168Y-105181819D01*
X153400168Y-105181819D02*
X153400156Y-105178773D01*
X153400156Y-105178773D02*
X153400144Y-105175726D01*
X153400144Y-105175726D02*
X153400133Y-105172680D01*
X153400133Y-105172680D02*
X153400122Y-105169634D01*
X153400122Y-105169634D02*
X153400112Y-105166588D01*
X153400112Y-105166588D02*
X153400102Y-105163542D01*
X153400102Y-105163542D02*
X153400092Y-105160496D01*
X153400092Y-105160496D02*
X153400083Y-105157450D01*
X153400083Y-105157450D02*
X153400075Y-105154403D01*
X153400075Y-105154403D02*
X153400067Y-105151357D01*
X153400067Y-105151357D02*
X153400059Y-105148311D01*
X153400059Y-105148311D02*
X153400052Y-105145265D01*
X153400052Y-105145265D02*
X153400045Y-105142219D01*
X153400045Y-105142219D02*
X153400039Y-105139173D01*
X153400039Y-105139173D02*
X153400033Y-105136126D01*
X153400033Y-105136126D02*
X153400028Y-105133080D01*
X153400028Y-105133080D02*
X153400023Y-105130034D01*
X153400023Y-105130034D02*
X153400019Y-105126988D01*
X153400019Y-105126988D02*
X153400015Y-105123942D01*
X153400015Y-105123942D02*
X153400012Y-105120896D01*
X153400012Y-105120896D02*
X153400009Y-105117849D01*
X153400009Y-105117849D02*
X153400006Y-105114803D01*
X153400006Y-105114803D02*
X153400004Y-105111757D01*
X153400004Y-105111757D02*
X153400003Y-105108711D01*
X153400003Y-105108711D02*
X153400001Y-105105665D01*
X153400001Y-105105665D02*
X153400001Y-105102618D01*
X153400001Y-105102618D02*
X153400001Y-105100000D01*
G36*
X149400000Y-79100000D02*
G01*
X157400000Y-79100000D01*
X157400000Y-87100000D01*
X149400000Y-87100000D01*
X149400000Y-79100000D01*
G37*
X152400000Y-95100000D02*
X154400000Y-95100000D01*
X154400000Y-105100000D01*
X152400000Y-105100000D01*
X152400000Y-95100000D01*
D11*
X149542857Y-124467057D02*
X148542857Y-123038485D01*
X147828571Y-124467057D02*
X147828571Y-121467057D01*
X147828571Y-121467057D02*
X148971428Y-121467057D01*
X148971428Y-121467057D02*
X149257143Y-121609914D01*
X149257143Y-121609914D02*
X149400000Y-121752771D01*
X149400000Y-121752771D02*
X149542857Y-122038485D01*
X149542857Y-122038485D02*
X149542857Y-122467057D01*
X149542857Y-122467057D02*
X149400000Y-122752771D01*
X149400000Y-122752771D02*
X149257143Y-122895628D01*
X149257143Y-122895628D02*
X148971428Y-123038485D01*
X148971428Y-123038485D02*
X147828571Y-123038485D01*
X150828571Y-122895628D02*
X151828571Y-122895628D01*
X152257143Y-124467057D02*
X150828571Y-124467057D01*
X150828571Y-124467057D02*
X150828571Y-121467057D01*
X150828571Y-121467057D02*
X152257143Y-121467057D01*
X153114286Y-121467057D02*
X154114286Y-124467057D01*
X154114286Y-124467057D02*
X155114286Y-121467057D01*
X156114286Y-124181342D02*
X156257143Y-124324200D01*
X156257143Y-124324200D02*
X156114286Y-124467057D01*
X156114286Y-124467057D02*
X155971429Y-124324200D01*
X155971429Y-124324200D02*
X156114286Y-124181342D01*
X156114286Y-124181342D02*
X156114286Y-124467057D01*
X157400000Y-121752771D02*
X157542857Y-121609914D01*
X157542857Y-121609914D02*
X157828572Y-121467057D01*
X157828572Y-121467057D02*
X158542857Y-121467057D01*
X158542857Y-121467057D02*
X158828572Y-121609914D01*
X158828572Y-121609914D02*
X158971429Y-121752771D01*
X158971429Y-121752771D02*
X159114286Y-122038485D01*
X159114286Y-122038485D02*
X159114286Y-122324200D01*
X159114286Y-122324200D02*
X158971429Y-122752771D01*
X158971429Y-122752771D02*
X157257143Y-124467057D01*
X157257143Y-124467057D02*
X159114286Y-124467057D01*
M02*
