{"accessors":[{"bufferView":0,"byteOffset":0,"componentType":5126,"count":24,"max":[0.02705,0.008,0.07949689094841846],"min":[0.02395,0.0,0.077962667713503],"type":"VEC3"},{"bufferView":0,"byteOffset":288,"componentType":5126,"count":4,"max":[0.02395,0.008,0.077962667713503],"min":[0.02395,0.0,0.075962667713503],"type":"VEC3"},{"bufferView":0,"byteOffset":336,"componentType":5126,"count":24,"max":[0.02705,0.008,0.075962667713503],"min":[0.02395,0.0,0.07442844447858757],"type":"VEC3"},{"bufferView":0,"byteOffset":624,"componentType":5126,"count":24,"max":[0.05805,0.008,0.07949689094841846],"min":[0.05495,0.0,0.077962667713503],"type":"VEC3"},{"bufferView":0,"byteOffset":912,"componentType":5126,"count":4,"max":[0.05495,0.008,0.077962667713503],"min":[0.05495,0.0,0.075962667713503],"type":"VEC3"},{"bufferView":0,"byteOffset":960,"componentType":5126,"count":24,"max":[0.05805,0.008,0.075962667713503],"min":[0.05495,0.0,0.07442844447858757],"type":"VEC3"},{"bufferView":0,"byteOffset":1248,"componentType":5126,"count":10,"max":[-0.02295,0.008,0.110462667713503],"min":[-0.02395,0.0,0.109462667713503],"type":"VEC3"},{"bufferView":0,"byteOffset":1368,"componentType":5126,"count":4,"max":[0.02295,0.008,0.110462667713503],"min":[-0.02295,0.0,0.110462667713503],"type":"VEC3"},{"bufferView":0,"byteOffset":1416,"componentType":5126,"count":10,"max":[0.02395,0.008,0.110462667713503],"min":[0.02295,0.0,0.109462667713503],"type":"VEC3"},{"bufferView":0,"byteOffset":1536,"componentType":5126,"count":4,"max":[0.02395,0.008,0.109462667713503],"min":[0.02395,0.0,0.10696266771350302],"type":"VEC3"},{"bufferView":0,"byteOffset":1584,"componentType":5126,"count":24,"max":[0.02705,0.008,0.10696266771350302],"min":[0.02395,0.0,0.10542844447858757],"type":"VEC3"},{"bufferView":0,"byteOffset":1872,"componentType":5126,"count":4,"max":[0.02705,0.008,0.109462667713503],"min":[0.02705,0.0,0.10696266771350302],"type":"VEC3"},{"bufferView":0,"byteOffset":1920,"componentType":5126,"count":10,"max":[0.02805,0.008,0.110462667713503],"min":[0.02705,0.0,0.109462667713503],"type":"VEC3"},{"bufferView":0,"byteOffset":2040,"componentType":5126,"count":4,"max":[0.0365,0.008,0.110462667713503],"min":[0.02805,0.0,0.110462667713503],"type":"VEC3"},{"bufferView":0,"byteOffset":2088,"componentType":5126,"count":20,"max":[0.039,0.008,0.110462667713503],"min":[0.0365,0.0,0.107962667713503],"type":"VEC3"},{"bufferView":0,"byteOffset":2328,"componentType":5126,"count":4,"max":[0.039,0.008,0.107962667713503],"min":[0.039,0.0,0.107246716465593],"type":"VEC3"},{"bufferView":0,"byteOffset":2376,"componentType":5126,"count":16,"max":[0.039,0.008,0.107246716465593],"min":[0.0372758620689655,0.0,0.104870156335922],"type":"VEC3"},{"bufferView":0,"byteOffset":2568,"componentType":5126,"count":50,"max":[0.0372758620689655,0.008,0.104870156335922],"min":[0.029,0.0,0.093462667713503],"type":"VEC3"},{"bufferView":0,"byteOffset":3168,"componentType":5126,"count":4,"max":[0.029,0.008,0.093462667713503],"min":[0.029,0.0,0.09146266771350302],"type":"VEC3"},{"bufferView":0,"byteOffset":3216,"componentType":5126,"count":122,"max":[0.053,0.008,0.09146266771350302],"min":[0.029,0.0,0.07946266771350301],"type":"VEC3"},{"bufferView":0,"byteOffset":4680,"componentType":5126,"count":4,"max":[0.053,0.008,0.093462667713503],"min":[0.053,0.0,0.09146266771350302],"type":"VEC3"},{"bufferView":0,"byteOffset":4728,"componentType":5126,"count":50,"max":[0.053,0.008,0.104870156335922],"min":[0.0447241379310345,0.0,0.093462667713503],"type":"VEC3"},{"bufferView":0,"byteOffset":5328,"componentType":5126,"count":16,"max":[0.0447241379310345,0.008,0.107246716465593],"min":[0.043000000000000003,0.0,0.104870156335922],"type":"VEC3"},{"bufferView":0,"byteOffset":5520,"componentType":5126,"count":4,"max":[0.043000000000000003,0.008,0.107962667713503],"min":[0.043000000000000003,0.0,0.107246716465593],"type":"VEC3"},{"bufferView":0,"byteOffset":5568,"componentType":5126,"count":20,"max":[0.0455,0.008,0.110462667713503],"min":[0.043000000000000003,0.0,0.107962667713503],"type":"VEC3"},{"bufferView":0,"byteOffset":5808,"componentType":5126,"count":4,"max":[0.05395,0.008,0.110462667713503],"min":[0.0455,0.0,0.110462667713503],"type":"VEC3"},{"bufferView":0,"byteOffset":5856,"componentType":5126,"count":10,"max":[0.05495,0.008,0.110462667713503],"min":[0.05395,0.0,0.109462667713503],"type":"VEC3"},{"bufferView":0,"byteOffset":5976,"componentType":5126,"count":4,"max":[0.05495,0.008,0.109462667713503],"min":[0.05495,0.0,0.10696266771350302],"type":"VEC3"},{"bufferView":0,"byteOffset":6024,"componentType":5126,"count":24,"max":[0.05805,0.008,0.10696266771350302],"min":[0.05495,0.0,0.10542844447858757],"type":"VEC3"},{"bufferView":0,"byteOffset":6312,"componentType":5126,"count":4,"max":[0.05805,0.008,0.109462667713503],"min":[0.05805,0.0,0.10696266771350302],"type":"VEC3"},{"bufferView":0,"byteOffset":6360,"componentType":5126,"count":10,"max":[0.05905,0.008,0.110462667713503],"min":[0.05805,0.0,0.109462667713503],"type":"VEC3"},{"bufferView":0,"byteOffset":6480,"componentType":5126,"count":4,"max":[0.1,0.008,0.110462667713503],"min":[0.05905,0.0,0.110462667713503],"type":"VEC3"},{"bufferView":0,"byteOffset":6528,"componentType":5126,"count":56,"max":[0.1075,0.008,0.110462667713503],"min":[0.1,0.0,0.102962667713503],"type":"VEC3"},{"bufferView":0,"byteOffset":7200,"componentType":5126,"count":4,"max":[0.1075,0.008,0.102962667713503],"min":[0.1075,0.0,-0.112037332286497],"type":"VEC3"},{"bufferView":0,"byteOffset":7248,"componentType":5126,"count":56,"max":[0.1075,0.008,-0.112037332286497],"min":[0.1,0.0,-0.119537332286497],"type":"VEC3"},{"bufferView":0,"byteOffset":7920,"componentType":5126,"count":4,"max":[0.1,0.008,-0.119537332286497],"min":[-0.1,0.0,-0.119537332286497],"type":"VEC3"},{"bufferView":0,"byteOffset":7968,"componentType":5126,"count":56,"max":[-0.1,0.008,-0.112037332286497],"min":[-0.1075,0.0,-0.119537332286497],"type":"VEC3"},{"bufferView":0,"byteOffset":8640,"componentType":5126,"count":4,"max":[-0.1075,0.008,0.102962667713503],"min":[-0.1075,0.0,-0.112037332286497],"type":"VEC3"},{"bufferView":0,"byteOffset":8688,"componentType":5126,"count":56,"max":[-0.1,0.008,0.110462667713503],"min":[-0.1075,0.0,0.102962667713503],"type":"VEC3"},{"bufferView":0,"byteOffset":9360,"componentType":5126,"count":4,"max":[-0.05905,0.008,0.110462667713503],"min":[-0.1,0.0,0.110462667713503],"type":"VEC3"},{"bufferView":0,"byteOffset":9408,"componentType":5126,"count":10,"max":[-0.05805,0.008,0.110462667713503],"min":[-0.05905,0.0,0.109462667713503],"type":"VEC3"},{"bufferView":0,"byteOffset":9528,"componentType":5126,"count":4,"max":[-0.05805,0.008,0.109462667713503],"min":[-0.05805,0.0,0.10696266771350302],"type":"VEC3"},{"bufferView":0,"byteOffset":9576,"componentType":5126,"count":24,"max":[-0.05495,0.008,0.10696266771350302],"min":[-0.05805,0.0,0.10542844447858757],"type":"VEC3"},{"bufferView":0,"byteOffset":9864,"componentType":5126,"count":4,"max":[-0.05495,0.008,0.109462667713503],"min":[-0.05495,0.0,0.10696266771350302],"type":"VEC3"},{"bufferView":0,"byteOffset":9912,"componentType":5126,"count":10,"max":[-0.05395,0.008,0.110462667713503],"min":[-0.05495,0.0,0.109462667713503],"type":"VEC3"},{"bufferView":0,"byteOffset":10032,"componentType":5126,"count":4,"max":[-0.0455,0.008,0.110462667713503],"min":[-0.05395,0.0,0.110462667713503],"type":"VEC3"},{"bufferView":0,"byteOffset":10080,"componentType":5126,"count":20,"max":[-0.043000000000000003,0.008,0.110462667713503],"min":[-0.0455,0.0,0.107962667713503],"type":"VEC3"},{"bufferView":0,"byteOffset":10320,"componentType":5126,"count":4,"max":[-0.043000000000000003,0.008,0.107962667713503],"min":[-0.043000000000000003,0.0,0.107246716465593],"type":"VEC3"},{"bufferView":0,"byteOffset":10368,"componentType":5126,"count":16,"max":[-0.043000000000000003,0.008,0.107246716465593],"min":[-0.0447241379310345,0.0,0.104870156335922],"type":"VEC3"},{"bufferView":0,"byteOffset":10560,"componentType":5126,"count":50,"max":[-0.0447241379310345,0.008,0.104870156335922],"min":[-0.053,0.0,0.093462667713503],"type":"VEC3"},{"bufferView":0,"byteOffset":11160,"componentType":5126,"count":4,"max":[-0.053,0.008,0.093462667713503],"min":[-0.053,0.0,0.0914626677135029],"type":"VEC3"},{"bufferView":0,"byteOffset":11208,"componentType":5126,"count":122,"max":[-0.029,0.008,0.0914626677135029],"min":[-0.053,0.0,0.0794626677135029],"type":"VEC3"},{"bufferView":0,"byteOffset":12672,"componentType":5126,"count":4,"max":[-0.029,0.008,0.093462667713503],"min":[-0.029,0.0,0.0914626677135029],"type":"VEC3"},{"bufferView":0,"byteOffset":12720,"componentType":5126,"count":50,"max":[-0.029,0.008,0.104870156335922],"min":[-0.0372758620689655,0.0,0.093462667713503],"type":"VEC3"},{"bufferView":0,"byteOffset":13320,"componentType":5126,"count":16,"max":[-0.0372758620689655,0.008,0.107246716465593],"min":[-0.039,0.0,0.104870156335922],"type":"VEC3"},{"bufferView":0,"byteOffset":13512,"componentType":5126,"count":4,"max":[-0.039,0.008,0.107962667713503],"min":[-0.039,0.0,0.107246716465593],"type":"VEC3"},{"bufferView":0,"byteOffset":13560,"componentType":5126,"count":20,"max":[-0.0365,0.008,0.110462667713503],"min":[-0.039,0.0,0.107962667713503],"type":"VEC3"},{"bufferView":0,"byteOffset":13800,"componentType":5126,"count":4,"max":[-0.02805,0.008,0.110462667713503],"min":[-0.0365,0.0,0.110462667713503],"type":"VEC3"},{"bufferView":0,"byteOffset":13848,"componentType":5126,"count":10,"max":[-0.02705,0.008,0.110462667713503],"min":[-0.02805,0.0,0.109462667713503],"type":"VEC3"},{"bufferView":0,"byteOffset":13968,"componentType":5126,"count":4,"max":[-0.02705,0.008,0.109462667713503],"min":[-0.02705,0.0,0.10696266771350302],"type":"VEC3"},{"bufferView":0,"byteOffset":14016,"componentType":5126,"count":24,"max":[-0.02395,0.008,0.10696266771350302],"min":[-0.02705,0.0,0.10542844447858757],"type":"VEC3"},{"bufferView":0,"byteOffset":14304,"componentType":5126,"count":218,"max":[0.052996190799751514,0.008,-0.06254137965563449],"min":[0.02900392738213351,0.0,-0.08653363946299664],"type":"VEC3"},{"bufferView":0,"byteOffset":16920,"componentType":5126,"count":16,"max":[0.0444271680233151,0.008,-0.0865016434281551],"min":[0.0419248020899615,0.0,-0.0880374996684211],"type":"VEC3"},{"bufferView":0,"byteOffset":17112,"componentType":5126,"count":4,"max":[0.0479539598793745,0.008,-0.0880374996684211],"min":[0.0444271680233151,0.0,-0.09655192839898681],"type":"VEC3"},{"bufferView":0,"byteOffset":17160,"componentType":5126,"count":30,"max":[0.051798572574432725,0.008,-0.09502119466952649],"min":[0.0479539598793745,0.0,-0.09778341516429225],"type":"VEC3"},{"bufferView":0,"byteOffset":17520,"componentType":5126,"count":4,"max":[0.0516494780094196,0.008,-0.0865067659389608],"min":[0.0481226861533602,0.0,-0.09502119466952649],"type":"VEC3"},{"bufferView":0,"byteOffset":17568,"componentType":5126,"count":4,"max":[-0.05495,0.008,0.0779626677135029],"min":[-0.05495,0.0,0.0759626677135029],"type":"VEC3"},{"bufferView":0,"byteOffset":17616,"componentType":5126,"count":24,"max":[-0.05495,0.008,0.07949689094841834],"min":[-0.05805,0.0,0.0779626677135029],"type":"VEC3"},{"bufferView":0,"byteOffset":17904,"componentType":5126,"count":4,"max":[-0.05805,0.008,0.077962667713503],"min":[-0.05805,0.0,0.0759626677135029],"type":"VEC3"},{"bufferView":0,"byteOffset":17952,"componentType":5126,"count":4,"max":[-0.02395,0.008,0.077962667713503],"min":[-0.02395,0.0,0.075962667713503],"type":"VEC3"},{"bufferView":0,"byteOffset":18000,"componentType":5126,"count":24,"max":[-0.02395,0.008,0.07949689094841846],"min":[-0.02705,0.0,0.077962667713503],"type":"VEC3"},{"bufferView":0,"byteOffset":18288,"componentType":5126,"count":4,"max":[-0.02705,0.008,0.077962667713503],"min":[-0.02705,0.0,0.075962667713503],"type":"VEC3"},{"bufferView":0,"byteOffset":18336,"componentType":5126,"count":4,"max":[0.05805,0.008,0.077962667713503],"min":[0.05805,0.0,0.075962667713503],"type":"VEC3"},{"bufferView":0,"byteOffset":18384,"componentType":5126,"count":4,"max":[-0.02395,0.008,0.109462667713503],"min":[-0.02395,0.0,0.10696266771350302],"type":"VEC3"},{"bufferView":0,"byteOffset":18432,"componentType":5126,"count":16,"max":[0.0488061117114249,0.008,-0.0836513116560565],"min":[0.047933834856728426,0.0,-0.0865067659389608],"type":"VEC3"},{"bufferView":0,"byteOffset":18624,"componentType":5126,"count":60,"max":[0.01355,0.008,0.012509661211897803],"min":[0.009462017187833564,0.0,0.008415674215108197],"type":"VEC3"},{"bufferView":0,"byteOffset":19344,"componentType":5126,"count":60,"max":[-0.00945,0.008,0.012509661211897803],"min":[-0.013537982812166437,0.0,0.008415674215108197],"type":"VEC3"},{"bufferView":0,"byteOffset":20064,"componentType":5126,"count":60,"max":[0.01355,0.008,0.05250966121189781],"min":[0.009462017187833564,0.0,0.0484156742151082],"type":"VEC3"},{"bufferView":0,"byteOffset":20784,"componentType":5126,"count":60,"max":[-0.00945,0.008,0.05250966121189781],"min":[-0.013537982812166437,0.0,0.0484156742151082],"type":"VEC3"},{"bufferView":0,"byteOffset":21504,"componentType":5126,"count":60,"max":[0.01355,0.008,0.09250966121189781],"min":[0.009462017187833564,0.0,0.08841567421510821],"type":"VEC3"},{"bufferView":0,"byteOffset":22224,"componentType":5126,"count":60,"max":[-0.00945,0.008,0.09250966121189781],"min":[-0.013537982812166437,0.0,0.08841567421510821],"type":"VEC3"},{"bufferView":0,"byteOffset":22944,"componentType":5126,"count":60,"max":[0.01355,0.008,-0.027490338788102194],"min":[0.009462017187833564,0.0,-0.0315843257848918],"type":"VEC3"},{"bufferView":0,"byteOffset":23664,"componentType":5126,"count":60,"max":[-0.00945,0.008,-0.027490338788102194],"min":[-0.013537982812166437,0.0,-0.0315843257848918],"type":"VEC3"},{"bufferView":0,"byteOffset":24384,"componentType":5126,"count":60,"max":[0.01355,0.008,-0.0674903387881022],"min":[0.009462017187833564,0.0,-0.07158432578489181],"type":"VEC3"},{"bufferView":0,"byteOffset":25104,"componentType":5126,"count":46,"max":[0.09005000000000002,0.008,-0.03950310905158166],"min":[0.08695,0.0,-0.04257155552141254],"type":"VEC3"},{"bufferView":0,"byteOffset":25656,"componentType":5126,"count":46,"max":[0.09655,0.008,-0.04000310905158165],"min":[0.09345,0.0,-0.04307155552141254],"type":"VEC3"},{"bufferView":0,"byteOffset":26208,"componentType":5126,"count":46,"max":[0.09655,0.008,-0.050003109051581555],"min":[0.09345,0.0,-0.05307155552141244],"type":"VEC3"},{"bufferView":0,"byteOffset":26760,"componentType":5126,"count":46,"max":[-0.09345,0.008,-0.04000310905158165],"min":[-0.09655,0.0,-0.04307155552141254],"type":"VEC3"},{"bufferView":0,"byteOffset":27312,"componentType":5126,"count":46,"max":[-0.09345,0.008,-0.05000310905158166],"min":[-0.09655,0.0,-0.05307155552141255],"type":"VEC3"},{"bufferView":0,"byteOffset":27864,"componentType":5126,"count":46,"max":[-0.08695,0.008,-0.03950310905158166],"min":[-0.09005,0.0,-0.04257155552141254],"type":"VEC3"},{"bufferView":0,"byteOffset":28416,"componentType":5126,"count":60,"max":[-0.00945,0.008,-0.06749033878810229],"min":[-0.013537982812166437,0.0,-0.07158432578489189],"type":"VEC3"},{"bufferView":0,"byteOffset":29136,"componentType":5126,"count":242,"max":[0.095,0.008,-0.004537332286497098],"min":[0.07100000000000001,0.0,-0.0285373322864971],"type":"VEC3"},{"bufferView":0,"byteOffset":32040,"componentType":5126,"count":242,"max":[-0.07100000000000001,0.008,-0.004537332286497098],"min":[-0.095,0.0,-0.0285373322864971],"type":"VEC3"},{"bufferView":0,"byteOffset":34944,"componentType":5126,"count":88,"max":[0.0901,0.008,0.09306059954345075],"min":[0.083908269920643,0.0,0.08686473588355527],"type":"VEC3"},{"bufferView":0,"byteOffset":36000,"componentType":5126,"count":88,"max":[-0.0839,0.008,0.09306059954345075],"min":[-0.090091730079357,0.0,0.08686473588355527],"type":"VEC3"},{"bufferView":0,"byteOffset":37056,"componentType":5126,"count":46,"max":[0.08855,0.008,0.07199689094841843],"min":[0.08545,0.0,0.06892844447858755],"type":"VEC3"},{"bufferView":0,"byteOffset":37608,"componentType":5126,"count":46,"max":[-0.08545,0.008,0.07199689094841843],"min":[-0.08855,0.0,0.06892844447858755],"type":"VEC3"},{"bufferView":0,"byteOffset":38160,"componentType":5126,"count":60,"max":[0.10055,0.008,0.001009661211897774],"min":[0.09646201718783357,0.0,-0.003084325784891834],"type":"VEC3"},{"bufferView":0,"byteOffset":38880,"componentType":5126,"count":60,"max":[-0.09645,0.008,0.001009661211897614],"min":[-0.10053798281216643,0.0,-0.0030843257848919945],"type":"VEC3"},{"bufferView":0,"byteOffset":39600,"componentType":5126,"count":60,"max":[0.10055,0.008,-0.029990338788102294],"min":[0.09646201718783357,0.0,-0.0340843257848919],"type":"VEC3"},{"bufferView":0,"byteOffset":40320,"componentType":5126,"count":60,"max":[-0.09645,0.008,-0.029990338788102294],"min":[-0.10053798281216643,0.0,-0.0340843257848919],"type":"VEC3"},{"bufferView":0,"byteOffset":41040,"componentType":5126,"count":60,"max":[0.06955,0.008,-0.029990338788102294],"min":[0.06546201718783357,0.0,-0.0340843257848919],"type":"VEC3"},{"bufferView":0,"byteOffset":41760,"componentType":5126,"count":60,"max":[-0.06545,0.008,-0.029990338788102294],"min":[-0.06953798281216643,0.0,-0.0340843257848919],"type":"VEC3"},{"bufferView":0,"byteOffset":42480,"componentType":5126,"count":60,"max":[0.06955,0.008,0.001009661211897774],"min":[0.06546201718783357,0.0,-0.003084325784891834],"type":"VEC3"},{"bufferView":0,"byteOffset":43200,"componentType":5126,"count":60,"max":[-0.06545,0.008,0.0010096612118977242],"min":[-0.06953798281216643,0.0,-0.0030843257848918843],"type":"VEC3"},{"bufferView":0,"byteOffset":43920,"componentType":5126,"count":116,"max":[0.0851,0.008,-0.0704388890276947],"min":[0.0769062257826234,0.0,-0.07863577554529931],"type":"VEC3"},{"bufferView":0,"byteOffset":45312,"componentType":5126,"count":116,"max":[-0.0769,0.008,-0.0704388890276948],"min":[-0.0850937742173766,0.0,-0.07863577554529941],"type":"VEC3"},{"bufferView":0,"byteOffset":46704,"componentType":5126,"count":116,"max":[0.0851,0.008,-0.1004388890276947],"min":[0.0769062257826234,0.0,-0.10863577554529931],"type":"VEC3"},{"bufferView":0,"byteOffset":48096,"componentType":5126,"count":116,"max":[-0.0769,0.008,-0.1004388890276947],"min":[-0.0850937742173766,0.0,-0.10863577554529931],"type":"VEC3"},{"bufferView":0,"byteOffset":49488,"componentType":5126,"count":88,"max":[0.0831,0.008,-0.08643940045654927],"min":[0.076908269920643,0.0,-0.09263526411644475],"type":"VEC3"},{"bufferView":0,"byteOffset":50544,"componentType":5126,"count":88,"max":[-0.0769,0.008,-0.08643940045654927],"min":[-0.08309173007935701,0.0,-0.09263526411644475],"type":"VEC3"},{"bufferView":0,"byteOffset":51600,"componentType":5126,"count":52,"max":[0.0068,0.008,-0.0947408841753261],"min":[0.00321419353763394,0.0,-0.09833378039766788],"type":"VEC3"},{"bufferView":0,"byteOffset":52224,"componentType":5126,"count":52,"max":[-0.0032,0.008,-0.0947408841753261],"min":[-0.0067858064623660605,0.0,-0.09833378039766788],"type":"VEC3"},{"bufferView":0,"byteOffset":52848,"componentType":5126,"count":88,"max":[0.0561,0.008,0.04356059954345074],"min":[0.04990826992064299,0.0,0.03736473588355526],"type":"VEC3"},{"bufferView":0,"byteOffset":53904,"componentType":5126,"count":88,"max":[-0.0499,0.008,0.04356059954345074],"min":[-0.05609173007935701,0.0,0.03736473588355526],"type":"VEC3"},{"bufferView":0,"byteOffset":54960,"componentType":5126,"count":88,"max":[0.0561,0.008,-0.02643940045654926],"min":[0.04990826992064299,0.0,-0.03263526411644474],"type":"VEC3"},{"bufferView":0,"byteOffset":56016,"componentType":5126,"count":88,"max":[-0.0499,0.008,-0.02643940045654926],"min":[-0.05609173007935701,0.0,-0.03263526411644474],"type":"VEC3"},{"bufferView":0,"byteOffset":57072,"componentType":5126,"count":46,"max":[0.02705,0.008,-0.057503109051581555],"min":[0.02395,0.0,-0.06057155552141244],"type":"VEC3"},{"bufferView":0,"byteOffset":57624,"componentType":5126,"count":46,"max":[0.05805,0.008,-0.057503109051581555],"min":[0.054950000000000006,0.0,-0.06057155552141244],"type":"VEC3"},{"bufferView":0,"byteOffset":58176,"componentType":5126,"count":46,"max":[0.02705,0.008,-0.08850310905158157],"min":[0.02395,0.0,-0.09157155552141245],"type":"VEC3"},{"bufferView":0,"byteOffset":58728,"componentType":5126,"count":46,"max":[0.05805,0.008,-0.08850310905158157],"min":[0.054950000000000006,0.0,-0.09157155552141245],"type":"VEC3"},{"bufferView":0,"byteOffset":59280,"componentType":5126,"count":46,"max":[-0.05495,0.008,-0.05750310905158166],"min":[-0.05805,0.0,-0.06057155552141255],"type":"VEC3"},{"bufferView":0,"byteOffset":59832,"componentType":5126,"count":46,"max":[-0.02395,0.008,-0.05750310905158166],"min":[-0.02705,0.0,-0.06057155552141255],"type":"VEC3"},{"bufferView":0,"byteOffset":60384,"componentType":5126,"count":46,"max":[-0.05495,0.008,-0.08850310905158157],"min":[-0.05805,0.0,-0.09157155552141245],"type":"VEC3"},{"bufferView":0,"byteOffset":60936,"componentType":5126,"count":46,"max":[-0.02395,0.008,-0.08850310905158157],"min":[-0.02705,0.0,-0.09157155552141245],"type":"VEC3"},{"bufferView":0,"byteOffset":61488,"componentType":5126,"count":242,"max":[-0.029,0.008,-0.06253733228649701],"min":[-0.053,0.0,-0.086537332286497],"type":"VEC3"},{"bufferView":0,"byteOffset":64392,"componentType":5126,"count":24,"max":[-0.05495,0.008,0.0759626677135029],"min":[-0.05805,0.0,0.07442844447858746],"type":"VEC3"},{"bufferView":0,"byteOffset":64680,"componentType":5126,"count":24,"max":[-0.02395,0.008,0.075962667713503],"min":[-0.02705,0.0,0.07442844447858757],"type":"VEC3"},{"bufferView":0,"byteOffset":64968,"componentType":5126,"count":4,"max":[0.02705,0.008,0.077962667713503],"min":[0.02705,0.0,0.075962667713503],"type":"VEC3"},{"bufferView":0,"byteOffset":65016,"componentType":5126,"count":2580,"max":[0.1075,0.008,0.110462667713503],"min":[-0.1075,0.008,-0.119537332286497],"type":"VEC3"},{"bufferView":0,"byteOffset":95976,"componentType":5126,"count":2580,"max":[0.1075,0.0,0.110462667713503],"min":[-0.1075,0.0,-0.119537332286497],"type":"VEC3"},{"bufferView":1,"byteOffset":0,"componentType":5126,"count":24,"type":"VEC3"},{"bufferView":1,"byteOffset":288,"componentType":5126,"count":4,"type":"VEC3"},{"bufferView":1,"byteOffset":336,"componentType":5126,"count":24,"type":"VEC3"},{"bufferView":1,"byteOffset":624,"componentType":5126,"count":24,"type":"VEC3"},{"bufferView":1,"byteOffset":912,"componentType":5126,"count":4,"type":"VEC3"},{"bufferView":1,"byteOffset":960,"componentType":5126,"count":24,"type":"VEC3"},{"bufferView":1,"byteOffset":1248,"componentType":5126,"count":10,"type":"VEC3"},{"bufferView":1,"byteOffset":1368,"componentType":5126,"count":4,"type":"VEC3"},{"bufferView":1,"byteOffset":1416,"componentType":5126,"count":10,"type":"VEC3"},{"bufferView":1,"byteOffset":1536,"componentType":5126,"count":4,"type":"VEC3"},{"bufferView":1,"byteOffset":1584,"componentType":5126,"count":24,"type":"VEC3"},{"bufferView":1,"byteOffset":1872,"componentType":5126,"count":4,"type":"VEC3"},{"bufferView":1,"byteOffset":1920,"componentType":5126,"count":10,"type":"VEC3"},{"bufferView":1,"byteOffset":2040,"componentType":5126,"count":4,"type":"VEC3"},{"bufferView":1,"byteOffset":2088,"componentType":5126,"count":20,"type":"VEC3"},{"bufferView":1,"byteOffset":2328,"componentType":5126,"count":4,"type":"VEC3"},{"bufferView":1,"byteOffset":2376,"componentType":5126,"count":16,"type":"VEC3"},{"bufferView":1,"byteOffset":2568,"componentType":5126,"count":50,"type":"VEC3"},{"bufferView":1,"byteOffset":3168,"componentType":5126,"count":4,"type":"VEC3"},{"bufferView":1,"byteOffset":3216,"componentType":5126,"count":122,"type":"VEC3"},{"bufferView":1,"byteOffset":4680,"componentType":5126,"count":4,"type":"VEC3"},{"bufferView":1,"byteOffset":4728,"componentType":5126,"count":50,"type":"VEC3"},{"bufferView":1,"byteOffset":5328,"componentType":5126,"count":16,"type":"VEC3"},{"bufferView":1,"byteOffset":5520,"componentType":5126,"count":4,"type":"VEC3"},{"bufferView":1,"byteOffset":5568,"componentType":5126,"count":20,"type":"VEC3"},{"bufferView":1,"byteOffset":5808,"componentType":5126,"count":4,"type":"VEC3"},{"bufferView":1,"byteOffset":5856,"componentType":5126,"count":10,"type":"VEC3"},{"bufferView":1,"byteOffset":5976,"componentType":5126,"count":4,"type":"VEC3"},{"bufferView":1,"byteOffset":6024,"componentType":5126,"count":24,"type":"VEC3"},{"bufferView":1,"byteOffset":6312,"componentType":5126,"count":4,"type":"VEC3"},{"bufferView":1,"byteOffset":6360,"componentType":5126,"count":10,"type":"VEC3"},{"bufferView":1,"byteOffset":6480,"componentType":5126,"count":4,"type":"VEC3"},{"bufferView":1,"byteOffset":6528,"componentType":5126,"count":56,"type":"VEC3"},{"bufferView":1,"byteOffset":7200,"componentType":5126,"count":4,"type":"VEC3"},{"bufferView":1,"byteOffset":7248,"componentType":5126,"count":56,"type":"VEC3"},{"bufferView":1,"byteOffset":7920,"componentType":5126,"count":4,"type":"VEC3"},{"bufferView":1,"byteOffset":7968,"componentType":5126,"count":56,"type":"VEC3"},{"bufferView":1,"byteOffset":8640,"componentType":5126,"count":4,"type":"VEC3"},{"bufferView":1,"byteOffset":8688,"componentType":5126,"count":56,"type":"VEC3"},{"bufferView":1,"byteOffset":9360,"componentType":5126,"count":4,"type":"VEC3"},{"bufferView":1,"byteOffset":9408,"componentType":5126,"count":10,"type":"VEC3"},{"bufferView":1,"byteOffset":9528,"componentType":5126,"count":4,"type":"VEC3"},{"bufferView":1,"byteOffset":9576,"componentType":5126,"count":24,"type":"VEC3"},{"bufferView":1,"byteOffset":9864,"componentType":5126,"count":4,"type":"VEC3"},{"bufferView":1,"byteOffset":9912,"componentType":5126,"count":10,"type":"VEC3"},{"bufferView":1,"byteOffset":10032,"componentType":5126,"count":4,"type":"VEC3"},{"bufferView":1,"byteOffset":10080,"componentType":5126,"count":20,"type":"VEC3"},{"bufferView":1,"byteOffset":10320,"componentType":5126,"count":4,"type":"VEC3"},{"bufferView":1,"byteOffset":10368,"componentType":5126,"count":16,"type":"VEC3"},{"bufferView":1,"byteOffset":10560,"componentType":5126,"count":50,"type":"VEC3"},{"bufferView":1,"byteOffset":11160,"componentType":5126,"count":4,"type":"VEC3"},{"bufferView":1,"byteOffset":11208,"componentType":5126,"count":122,"type":"VEC3"},{"bufferView":1,"byteOffset":12672,"componentType":5126,"count":4,"type":"VEC3"},{"bufferView":1,"byteOffset":12720,"componentType":5126,"count":50,"type":"VEC3"},{"bufferView":1,"byteOffset":13320,"componentType":5126,"count":16,"type":"VEC3"},{"bufferView":1,"byteOffset":13512,"componentType":5126,"count":4,"type":"VEC3"},{"bufferView":1,"byteOffset":13560,"componentType":5126,"count":20,"type":"VEC3"},{"bufferView":1,"byteOffset":13800,"componentType":5126,"count":4,"type":"VEC3"},{"bufferView":1,"byteOffset":13848,"componentType":5126,"count":10,"type":"VEC3"},{"bufferView":1,"byteOffset":13968,"componentType":5126,"count":4,"type":"VEC3"},{"bufferView":1,"byteOffset":14016,"componentType":5126,"count":24,"type":"VEC3"},{"bufferView":1,"byteOffset":14304,"componentType":5126,"count":218,"type":"VEC3"},{"bufferView":1,"byteOffset":16920,"componentType":5126,"count":16,"type":"VEC3"},{"bufferView":1,"byteOffset":17112,"componentType":5126,"count":4,"type":"VEC3"},{"bufferView":1,"byteOffset":17160,"componentType":5126,"count":30,"type":"VEC3"},{"bufferView":1,"byteOffset":17520,"componentType":5126,"count":4,"type":"VEC3"},{"bufferView":1,"byteOffset":17568,"componentType":5126,"count":4,"type":"VEC3"},{"bufferView":1,"byteOffset":17616,"componentType":5126,"count":24,"type":"VEC3"},{"bufferView":1,"byteOffset":17904,"componentType":5126,"count":4,"type":"VEC3"},{"bufferView":1,"byteOffset":17952,"componentType":5126,"count":4,"type":"VEC3"},{"bufferView":1,"byteOffset":18000,"componentType":5126,"count":24,"type":"VEC3"},{"bufferView":1,"byteOffset":18288,"componentType":5126,"count":4,"type":"VEC3"},{"bufferView":1,"byteOffset":18336,"componentType":5126,"count":4,"type":"VEC3"},{"bufferView":1,"byteOffset":18384,"componentType":5126,"count":4,"type":"VEC3"},{"bufferView":1,"byteOffset":18432,"componentType":5126,"count":16,"type":"VEC3"},{"bufferView":1,"byteOffset":18624,"componentType":5126,"count":60,"type":"VEC3"},{"bufferView":1,"byteOffset":19344,"componentType":5126,"count":60,"type":"VEC3"},{"bufferView":1,"byteOffset":20064,"componentType":5126,"count":60,"type":"VEC3"},{"bufferView":1,"byteOffset":20784,"componentType":5126,"count":60,"type":"VEC3"},{"bufferView":1,"byteOffset":21504,"componentType":5126,"count":60,"type":"VEC3"},{"bufferView":1,"byteOffset":22224,"componentType":5126,"count":60,"type":"VEC3"},{"bufferView":1,"byteOffset":22944,"componentType":5126,"count":60,"type":"VEC3"},{"bufferView":1,"byteOffset":23664,"componentType":5126,"count":60,"type":"VEC3"},{"bufferView":1,"byteOffset":24384,"componentType":5126,"count":60,"type":"VEC3"},{"bufferView":1,"byteOffset":25104,"componentType":5126,"count":46,"type":"VEC3"},{"bufferView":1,"byteOffset":25656,"componentType":5126,"count":46,"type":"VEC3"},{"bufferView":1,"byteOffset":26208,"componentType":5126,"count":46,"type":"VEC3"},{"bufferView":1,"byteOffset":26760,"componentType":5126,"count":46,"type":"VEC3"},{"bufferView":1,"byteOffset":27312,"componentType":5126,"count":46,"type":"VEC3"},{"bufferView":1,"byteOffset":27864,"componentType":5126,"count":46,"type":"VEC3"},{"bufferView":1,"byteOffset":28416,"componentType":5126,"count":60,"type":"VEC3"},{"bufferView":1,"byteOffset":29136,"componentType":5126,"count":242,"type":"VEC3"},{"bufferView":1,"byteOffset":32040,"componentType":5126,"count":242,"type":"VEC3"},{"bufferView":1,"byteOffset":34944,"componentType":5126,"count":88,"type":"VEC3"},{"bufferView":1,"byteOffset":36000,"componentType":5126,"count":88,"type":"VEC3"},{"bufferView":1,"byteOffset":37056,"componentType":5126,"count":46,"type":"VEC3"},{"bufferView":1,"byteOffset":37608,"componentType":5126,"count":46,"type":"VEC3"},{"bufferView":1,"byteOffset":38160,"componentType":5126,"count":60,"type":"VEC3"},{"bufferView":1,"byteOffset":38880,"componentType":5126,"count":60,"type":"VEC3"},{"bufferView":1,"byteOffset":39600,"componentType":5126,"count":60,"type":"VEC3"},{"bufferView":1,"byteOffset":40320,"componentType":5126,"count":60,"type":"VEC3"},{"bufferView":1,"byteOffset":41040,"componentType":5126,"count":60,"type":"VEC3"},{"bufferView":1,"byteOffset":41760,"componentType":5126,"count":60,"type":"VEC3"},{"bufferView":1,"byteOffset":42480,"componentType":5126,"count":60,"type":"VEC3"},{"bufferView":1,"byteOffset":43200,"componentType":5126,"count":60,"type":"VEC3"},{"bufferView":1,"byteOffset":43920,"componentType":5126,"count":116,"type":"VEC3"},{"bufferView":1,"byteOffset":45312,"componentType":5126,"count":116,"type":"VEC3"},{"bufferView":1,"byteOffset":46704,"componentType":5126,"count":116,"type":"VEC3"},{"bufferView":1,"byteOffset":48096,"componentType":5126,"count":116,"type":"VEC3"},{"bufferView":1,"byteOffset":49488,"componentType":5126,"count":88,"type":"VEC3"},{"bufferView":1,"byteOffset":50544,"componentType":5126,"count":88,"type":"VEC3"},{"bufferView":1,"byteOffset":51600,"componentType":5126,"count":52,"type":"VEC3"},{"bufferView":1,"byteOffset":52224,"componentType":5126,"count":52,"type":"VEC3"},{"bufferView":1,"byteOffset":52848,"componentType":5126,"count":88,"type":"VEC3"},{"bufferView":1,"byteOffset":53904,"componentType":5126,"count":88,"type":"VEC3"},{"bufferView":1,"byteOffset":54960,"componentType":5126,"count":88,"type":"VEC3"},{"bufferView":1,"byteOffset":56016,"componentType":5126,"count":88,"type":"VEC3"},{"bufferView":1,"byteOffset":57072,"componentType":5126,"count":46,"type":"VEC3"},{"bufferView":1,"byteOffset":57624,"componentType":5126,"count":46,"type":"VEC3"},{"bufferView":1,"byteOffset":58176,"componentType":5126,"count":46,"type":"VEC3"},{"bufferView":1,"byteOffset":58728,"componentType":5126,"count":46,"type":"VEC3"},{"bufferView":1,"byteOffset":59280,"componentType":5126,"count":46,"type":"VEC3"},{"bufferView":1,"byteOffset":59832,"componentType":5126,"count":46,"type":"VEC3"},{"bufferView":1,"byteOffset":60384,"componentType":5126,"count":46,"type":"VEC3"},{"bufferView":1,"byteOffset":60936,"componentType":5126,"count":46,"type":"VEC3"},{"bufferView":1,"byteOffset":61488,"componentType":5126,"count":242,"type":"VEC3"},{"bufferView":1,"byteOffset":64392,"componentType":5126,"count":24,"type":"VEC3"},{"bufferView":1,"byteOffset":64680,"componentType":5126,"count":24,"type":"VEC3"},{"bufferView":1,"byteOffset":64968,"componentType":5126,"count":4,"type":"VEC3"},{"bufferView":1,"byteOffset":65016,"componentType":5126,"count":2580,"type":"VEC3"},{"bufferView":1,"byteOffset":95976,"componentType":5126,"count":2580,"type":"VEC3"},{"bufferView":2,"byteOffset":0,"componentType":5123,"count":66,"type":"SCALAR"},{"bufferView":2,"byteOffset":132,"componentType":5123,"count":6,"type":"SCALAR"},{"bufferView":2,"byteOffset":144,"componentType":5123,"count":66,"type":"SCALAR"},{"bufferView":2,"byteOffset":276,"componentType":5123,"count":66,"type":"SCALAR"},{"bufferView":2,"byteOffset":408,"componentType":5123,"count":6,"type":"SCALAR"},{"bufferView":2,"byteOffset":420,"componentType":5123,"count":66,"type":"SCALAR"},{"bufferView":2,"byteOffset":552,"componentType":5123,"count":24,"type":"SCALAR"},{"bufferView":2,"byteOffset":600,"componentType":5123,"count":6,"type":"SCALAR"},{"bufferView":2,"byteOffset":612,"componentType":5123,"count":24,"type":"SCALAR"},{"bufferView":2,"byteOffset":660,"componentType":5123,"count":6,"type":"SCALAR"},{"bufferView":2,"byteOffset":672,"componentType":5123,"count":66,"type":"SCALAR"},{"bufferView":2,"byteOffset":804,"componentType":5123,"count":6,"type":"SCALAR"},{"bufferView":2,"byteOffset":816,"componentType":5123,"count":24,"type":"SCALAR"},{"bufferView":2,"byteOffset":864,"componentType":5123,"count":6,"type":"SCALAR"},{"bufferView":2,"byteOffset":876,"componentType":5123,"count":54,"type":"SCALAR"},{"bufferView":2,"byteOffset":984,"componentType":5123,"count":6,"type":"SCALAR"},{"bufferView":2,"byteOffset":996,"componentType":5123,"count":42,"type":"SCALAR"},{"bufferView":2,"byteOffset":1080,"componentType":5123,"count":144,"type":"SCALAR"},{"bufferView":2,"byteOffset":1368,"componentType":5123,"count":6,"type":"SCALAR"},{"bufferView":2,"byteOffset":1380,"componentType":5123,"count":360,"type":"SCALAR"},{"bufferView":2,"byteOffset":2100,"componentType":5123,"count":6,"type":"SCALAR"},{"bufferView":2,"byteOffset":2112,"componentType":5123,"count":144,"type":"SCALAR"},{"bufferView":2,"byteOffset":2400,"componentType":5123,"count":42,"type":"SCALAR"},{"bufferView":2,"byteOffset":2484,"componentType":5123,"count":6,"type":"SCALAR"},{"bufferView":2,"byteOffset":2496,"componentType":5123,"count":54,"type":"SCALAR"},{"bufferView":2,"byteOffset":2604,"componentType":5123,"count":6,"type":"SCALAR"},{"bufferView":2,"byteOffset":2616,"componentType":5123,"count":24,"type":"SCALAR"},{"bufferView":2,"byteOffset":2664,"componentType":5123,"count":6,"type":"SCALAR"},{"bufferView":2,"byteOffset":2676,"componentType":5123,"count":66,"type":"SCALAR"},{"bufferView":2,"byteOffset":2808,"componentType":5123,"count":6,"type":"SCALAR"},{"bufferView":2,"byteOffset":2820,"componentType":5123,"count":24,"type":"SCALAR"},{"bufferView":2,"byteOffset":2868,"componentType":5123,"count":6,"type":"SCALAR"},{"bufferView":2,"byteOffset":2880,"componentType":5123,"count":162,"type":"SCALAR"},{"bufferView":2,"byteOffset":3204,"componentType":5123,"count":6,"type":"SCALAR"},{"bufferView":2,"byteOffset":3216,"componentType":5123,"count":162,"type":"SCALAR"},{"bufferView":2,"byteOffset":3540,"componentType":5123,"count":6,"type":"SCALAR"},{"bufferView":2,"byteOffset":3552,"componentType":5123,"count":162,"type":"SCALAR"},{"bufferView":2,"byteOffset":3876,"componentType":5123,"count":6,"type":"SCALAR"},{"bufferView":2,"byteOffset":3888,"componentType":5123,"count":162,"type":"SCALAR"},{"bufferView":2,"byteOffset":4212,"componentType":5123,"count":6,"type":"SCALAR"},{"bufferView":2,"byteOffset":4224,"componentType":5123,"count":24,"type":"SCALAR"},{"bufferView":2,"byteOffset":4272,"componentType":5123,"count":6,"type":"SCALAR"},{"bufferView":2,"byteOffset":4284,"componentType":5123,"count":66,"type":"SCALAR"},{"bufferView":2,"byteOffset":4416,"componentType":5123,"count":6,"type":"SCALAR"},{"bufferView":2,"byteOffset":4428,"componentType":5123,"count":24,"type":"SCALAR"},{"bufferView":2,"byteOffset":4476,"componentType":5123,"count":6,"type":"SCALAR"},{"bufferView":2,"byteOffset":4488,"componentType":5123,"count":54,"type":"SCALAR"},{"bufferView":2,"byteOffset":4596,"componentType":5123,"count":6,"type":"SCALAR"},{"bufferView":2,"byteOffset":4608,"componentType":5123,"count":42,"type":"SCALAR"},{"bufferView":2,"byteOffset":4692,"componentType":5123,"count":144,"type":"SCALAR"},{"bufferView":2,"byteOffset":4980,"componentType":5123,"count":6,"type":"SCALAR"},{"bufferView":2,"byteOffset":4992,"componentType":5123,"count":360,"type":"SCALAR"},{"bufferView":2,"byteOffset":5712,"componentType":5123,"count":6,"type":"SCALAR"},{"bufferView":2,"byteOffset":5724,"componentType":5123,"count":144,"type":"SCALAR"},{"bufferView":2,"byteOffset":6012,"componentType":5123,"count":42,"type":"SCALAR"},{"bufferView":2,"byteOffset":6096,"componentType":5123,"count":6,"type":"SCALAR"},{"bufferView":2,"byteOffset":6108,"componentType":5123,"count":54,"type":"SCALAR"},{"bufferView":2,"byteOffset":6216,"componentType":5123,"count":6,"type":"SCALAR"},{"bufferView":2,"byteOffset":6228,"componentType":5123,"count":24,"type":"SCALAR"},{"bufferView":2,"byteOffset":6276,"componentType":5123,"count":6,"type":"SCALAR"},{"bufferView":2,"byteOffset":6288,"componentType":5123,"count":66,"type":"SCALAR"},{"bufferView":2,"byteOffset":6420,"componentType":5123,"count":648,"type":"SCALAR"},{"bufferView":2,"byteOffset":7716,"componentType":5123,"count":42,"type":"SCALAR"},{"bufferView":2,"byteOffset":7800,"componentType":5123,"count":6,"type":"SCALAR"},{"bufferView":2,"byteOffset":7812,"componentType":5123,"count":84,"type":"SCALAR"},{"bufferView":2,"byteOffset":7980,"componentType":5123,"count":6,"type":"SCALAR"},{"bufferView":2,"byteOffset":7992,"componentType":5123,"count":6,"type":"SCALAR"},{"bufferView":2,"byteOffset":8004,"componentType":5123,"count":66,"type":"SCALAR"},{"bufferView":2,"byteOffset":8136,"componentType":5123,"count":6,"type":"SCALAR"},{"bufferView":2,"byteOffset":8148,"componentType":5123,"count":6,"type":"SCALAR"},{"bufferView":2,"byteOffset":8160,"componentType":5123,"count":66,"type":"SCALAR"},{"bufferView":2,"byteOffset":8292,"componentType":5123,"count":6,"type":"SCALAR"},{"bufferView":2,"byteOffset":8304,"componentType":5123,"count":6,"type":"SCALAR"},{"bufferView":2,"byteOffset":8316,"componentType":5123,"count":6,"type":"SCALAR"},{"bufferView":2,"byteOffset":8328,"componentType":5123,"count":42,"type":"SCALAR"},{"bufferView":2,"byteOffset":8412,"componentType":5123,"count":174,"type":"SCALAR"},{"bufferView":2,"byteOffset":8760,"componentType":5123,"count":174,"type":"SCALAR"},{"bufferView":2,"byteOffset":9108,"componentType":5123,"count":174,"type":"SCALAR"},{"bufferView":2,"byteOffset":9456,"componentType":5123,"count":174,"type":"SCALAR"},{"bufferView":2,"byteOffset":9804,"componentType":5123,"count":174,"type":"SCALAR"},{"bufferView":2,"byteOffset":10152,"componentType":5123,"count":174,"type":"SCALAR"},{"bufferView":2,"byteOffset":10500,"componentType":5123,"count":174,"type":"SCALAR"},{"bufferView":2,"byteOffset":10848,"componentType":5123,"count":174,"type":"SCALAR"},{"bufferView":2,"byteOffset":11196,"componentType":5123,"count":174,"type":"SCALAR"},{"bufferView":2,"byteOffset":11544,"componentType":5123,"count":132,"type":"SCALAR"},{"bufferView":2,"byteOffset":11808,"componentType":5123,"count":132,"type":"SCALAR"},{"bufferView":2,"byteOffset":12072,"componentType":5123,"count":132,"type":"SCALAR"},{"bufferView":2,"byteOffset":12336,"componentType":5123,"count":132,"type":"SCALAR"},{"bufferView":2,"byteOffset":12600,"componentType":5123,"count":132,"type":"SCALAR"},{"bufferView":2,"byteOffset":12864,"componentType":5123,"count":132,"type":"SCALAR"},{"bufferView":2,"byteOffset":13128,"componentType":5123,"count":174,"type":"SCALAR"},{"bufferView":2,"byteOffset":13476,"componentType":5123,"count":720,"type":"SCALAR"},{"bufferView":2,"byteOffset":14916,"componentType":5123,"count":720,"type":"SCALAR"},{"bufferView":2,"byteOffset":16356,"componentType":5123,"count":258,"type":"SCALAR"},{"bufferView":2,"byteOffset":16872,"componentType":5123,"count":258,"type":"SCALAR"},{"bufferView":2,"byteOffset":17388,"componentType":5123,"count":132,"type":"SCALAR"},{"bufferView":2,"byteOffset":17652,"componentType":5123,"count":132,"type":"SCALAR"},{"bufferView":2,"byteOffset":17916,"componentType":5123,"count":174,"type":"SCALAR"},{"bufferView":2,"byteOffset":18264,"componentType":5123,"count":174,"type":"SCALAR"},{"bufferView":2,"byteOffset":18612,"componentType":5123,"count":174,"type":"SCALAR"},{"bufferView":2,"byteOffset":18960,"componentType":5123,"count":174,"type":"SCALAR"},{"bufferView":2,"byteOffset":19308,"componentType":5123,"count":174,"type":"SCALAR"},{"bufferView":2,"byteOffset":19656,"componentType":5123,"count":174,"type":"SCALAR"},{"bufferView":2,"byteOffset":20004,"componentType":5123,"count":174,"type":"SCALAR"},{"bufferView":2,"byteOffset":20352,"componentType":5123,"count":174,"type":"SCALAR"},{"bufferView":2,"byteOffset":20700,"componentType":5123,"count":342,"type":"SCALAR"},{"bufferView":2,"byteOffset":21384,"componentType":5123,"count":342,"type":"SCALAR"},{"bufferView":2,"byteOffset":22068,"componentType":5123,"count":342,"type":"SCALAR"},{"bufferView":2,"byteOffset":22752,"componentType":5123,"count":342,"type":"SCALAR"},{"bufferView":2,"byteOffset":23436,"componentType":5123,"count":258,"type":"SCALAR"},{"bufferView":2,"byteOffset":23952,"componentType":5123,"count":258,"type":"SCALAR"},{"bufferView":2,"byteOffset":24468,"componentType":5123,"count":150,"type":"SCALAR"},{"bufferView":2,"byteOffset":24768,"componentType":5123,"count":150,"type":"SCALAR"},{"bufferView":2,"byteOffset":25068,"componentType":5123,"count":258,"type":"SCALAR"},{"bufferView":2,"byteOffset":25584,"componentType":5123,"count":258,"type":"SCALAR"},{"bufferView":2,"byteOffset":26100,"componentType":5123,"count":258,"type":"SCALAR"},{"bufferView":2,"byteOffset":26616,"componentType":5123,"count":258,"type":"SCALAR"},{"bufferView":2,"byteOffset":27132,"componentType":5123,"count":132,"type":"SCALAR"},{"bufferView":2,"byteOffset":27396,"componentType":5123,"count":132,"type":"SCALAR"},{"bufferView":2,"byteOffset":27660,"componentType":5123,"count":132,"type":"SCALAR"},{"bufferView":2,"byteOffset":27924,"componentType":5123,"count":132,"type":"SCALAR"},{"bufferView":2,"byteOffset":28188,"componentType":5123,"count":132,"type":"SCALAR"},{"bufferView":2,"byteOffset":28452,"componentType":5123,"count":132,"type":"SCALAR"},{"bufferView":2,"byteOffset":28716,"componentType":5123,"count":132,"type":"SCALAR"},{"bufferView":2,"byteOffset":28980,"componentType":5123,"count":132,"type":"SCALAR"},{"bufferView":2,"byteOffset":29244,"componentType":5123,"count":720,"type":"SCALAR"},{"bufferView":2,"byteOffset":30684,"componentType":5123,"count":66,"type":"SCALAR"},{"bufferView":2,"byteOffset":30816,"componentType":5123,"count":66,"type":"SCALAR"},{"bufferView":2,"byteOffset":30948,"componentType":5123,"count":6,"type":"SCALAR"},{"bufferView":2,"byteOffset":30960,"componentType":5123,"count":8070,"type":"SCALAR"},{"bufferView":2,"byteOffset":47100,"componentType":5123,"count":8070,"type":"SCALAR"}],"asset":{"generator":"Open CASCADE Technology 7.8 [dev.opencascade.org]","version":"2.0"},"bufferViews":[{"buffer":0,"byteLength":126936,"byteOffset":0,"byteStride":12,"target":34962},{"buffer":0,"byteLength":126936,"byteOffset":126936,"byteStride":12,"target":34962},{"buffer":0,"byteLength":63240,"byteOffset":253872,"target":34963}],"buffers":[{"byteLength":317112,"uri":"plate.bin"}],"materials":[{"name":"mat_0","pbrMetallicRoughness":{"baseColorFactor":[0.33716365694999695,0.6239604353904724,0.8468732237815857,1.0]},"doubleSided":true}],"meshes":[{"name":"Part 1","primitives":[{"attributes":{"NORMAL":131,"POSITION":0},"indices":262,"material":0,"mode":4},{"attributes":{"NORMAL":132,"POSITION":1},"indices":263,"material":0,"mode":4},{"attributes":{"NORMAL":133,"POSITION":2},"indices":264,"material":0,"mode":4},{"attributes":{"NORMAL":134,"POSITION":3},"indices":265,"material":0,"mode":4},{"attributes":{"NORMAL":135,"POSITION":4},"indices":266,"material":0,"mode":4},{"attributes":{"NORMAL":136,"POSITION":5},"indices":267,"material":0,"mode":4},{"attributes":{"NORMAL":137,"POSITION":6},"indices":268,"material":0,"mode":4},{"attributes":{"NORMAL":138,"POSITION":7},"indices":269,"material":0,"mode":4},{"attributes":{"NORMAL":139,"POSITION":8},"indices":270,"material":0,"mode":4},{"attributes":{"NORMAL":140,"POSITION":9},"indices":271,"material":0,"mode":4},{"attributes":{"NORMAL":141,"POSITION":10},"indices":272,"material":0,"mode":4},{"attributes":{"NORMAL":142,"POSITION":11},"indices":273,"material":0,"mode":4},{"attributes":{"NORMAL":143,"POSITION":12},"indices":274,"material":0,"mode":4},{"attributes":{"NORMAL":144,"POSITION":13},"indices":275,"material":0,"mode":4},{"attributes":{"NORMAL":145,"POSITION":14},"indices":276,"material":0,"mode":4},{"attributes":{"NORMAL":146,"POSITION":15},"indices":277,"material":0,"mode":4},{"attributes":{"NORMAL":147,"POSITION":16},"indices":278,"material":0,"mode":4},{"attributes":{"NORMAL":148,"POSITION":17},"indices":279,"material":0,"mode":4},{"attributes":{"NORMAL":149,"POSITION":18},"indices":280,"material":0,"mode":4},{"attributes":{"NORMAL":150,"POSITION":19},"indices":281,"material":0,"mode":4},{"attributes":{"NORMAL":151,"POSITION":20},"indices":282,"material":0,"mode":4},{"attributes":{"NORMAL":152,"POSITION":21},"indices":283,"material":0,"mode":4},{"attributes":{"NORMAL":153,"POSITION":22},"indices":284,"material":0,"mode":4},{"attributes":{"NORMAL":154,"POSITION":23},"indices":285,"material":0,"mode":4},{"attributes":{"NORMAL":155,"POSITION":24},"indices":286,"material":0,"mode":4},{"attributes":{"NORMAL":156,"POSITION":25},"indices":287,"material":0,"mode":4},{"attributes":{"NORMAL":157,"POSITION":26},"indices":288,"material":0,"mode":4},{"attributes":{"NORMAL":158,"POSITION":27},"indices":289,"material":0,"mode":4},{"attributes":{"NORMAL":159,"POSITION":28},"indices":290,"material":0,"mode":4},{"attributes":{"NORMAL":160,"POSITION":29},"indices":291,"material":0,"mode":4},{"attributes":{"NORMAL":161,"POSITION":30},"indices":292,"material":0,"mode":4},{"attributes":{"NORMAL":162,"POSITION":31},"indices":293,"material":0,"mode":4},{"attributes":{"NORMAL":163,"POSITION":32},"indices":294,"material":0,"mode":4},{"attributes":{"NORMAL":164,"POSITION":33},"indices":295,"material":0,"mode":4},{"attributes":{"NORMAL":165,"POSITION":34},"indices":296,"material":0,"mode":4},{"attributes":{"NORMAL":166,"POSITION":35},"indices":297,"material":0,"mode":4},{"attributes":{"NORMAL":167,"POSITION":36},"indices":298,"material":0,"mode":4},{"attributes":{"NORMAL":168,"POSITION":37},"indices":299,"material":0,"mode":4},{"attributes":{"NORMAL":169,"POSITION":38},"indices":300,"material":0,"mode":4},{"attributes":{"NORMAL":170,"POSITION":39},"indices":301,"material":0,"mode":4},{"attributes":{"NORMAL":171,"POSITION":40},"indices":302,"material":0,"mode":4},{"attributes":{"NORMAL":172,"POSITION":41},"indices":303,"material":0,"mode":4},{"attributes":{"NORMAL":173,"POSITION":42},"indices":304,"material":0,"mode":4},{"attributes":{"NORMAL":174,"POSITION":43},"indices":305,"material":0,"mode":4},{"attributes":{"NORMAL":175,"POSITION":44},"indices":306,"material":0,"mode":4},{"attributes":{"NORMAL":176,"POSITION":45},"indices":307,"material":0,"mode":4},{"attributes":{"NORMAL":177,"POSITION":46},"indices":308,"material":0,"mode":4},{"attributes":{"NORMAL":178,"POSITION":47},"indices":309,"material":0,"mode":4},{"attributes":{"NORMAL":179,"POSITION":48},"indices":310,"material":0,"mode":4},{"attributes":{"NORMAL":180,"POSITION":49},"indices":311,"material":0,"mode":4},{"attributes":{"NORMAL":181,"POSITION":50},"indices":312,"material":0,"mode":4},{"attributes":{"NORMAL":182,"POSITION":51},"indices":313,"material":0,"mode":4},{"attributes":{"NORMAL":183,"POSITION":52},"indices":314,"material":0,"mode":4},{"attributes":{"NORMAL":184,"POSITION":53},"indices":315,"material":0,"mode":4},{"attributes":{"NORMAL":185,"POSITION":54},"indices":316,"material":0,"mode":4},{"attributes":{"NORMAL":186,"POSITION":55},"indices":317,"material":0,"mode":4},{"attributes":{"NORMAL":187,"POSITION":56},"indices":318,"material":0,"mode":4},{"attributes":{"NORMAL":188,"POSITION":57},"indices":319,"material":0,"mode":4},{"attributes":{"NORMAL":189,"POSITION":58},"indices":320,"material":0,"mode":4},{"attributes":{"NORMAL":190,"POSITION":59},"indices":321,"material":0,"mode":4},{"attributes":{"NORMAL":191,"POSITION":60},"indices":322,"material":0,"mode":4},{"attributes":{"NORMAL":192,"POSITION":61},"indices":323,"material":0,"mode":4},{"attributes":{"NORMAL":193,"POSITION":62},"indices":324,"material":0,"mode":4},{"attributes":{"NORMAL":194,"POSITION":63},"indices":325,"material":0,"mode":4},{"attributes":{"NORMAL":195,"POSITION":64},"indices":326,"material":0,"mode":4},{"attributes":{"NORMAL":196,"POSITION":65},"indices":327,"material":0,"mode":4},{"attributes":{"NORMAL":197,"POSITION":66},"indices":328,"material":0,"mode":4},{"attributes":{"NORMAL":198,"POSITION":67},"indices":329,"material":0,"mode":4},{"attributes":{"NORMAL":199,"POSITION":68},"indices":330,"material":0,"mode":4},{"attributes":{"NORMAL":200,"POSITION":69},"indices":331,"material":0,"mode":4},{"attributes":{"NORMAL":201,"POSITION":70},"indices":332,"material":0,"mode":4},{"attributes":{"NORMAL":202,"POSITION":71},"indices":333,"material":0,"mode":4},{"attributes":{"NORMAL":203,"POSITION":72},"indices":334,"material":0,"mode":4},{"attributes":{"NORMAL":204,"POSITION":73},"indices":335,"material":0,"mode":4},{"attributes":{"NORMAL":205,"POSITION":74},"indices":336,"material":0,"mode":4},{"attributes":{"NORMAL":206,"POSITION":75},"indices":337,"material":0,"mode":4},{"attributes":{"NORMAL":207,"POSITION":76},"indices":338,"material":0,"mode":4},{"attributes":{"NORMAL":208,"POSITION":77},"indices":339,"material":0,"mode":4},{"attributes":{"NORMAL":209,"POSITION":78},"indices":340,"material":0,"mode":4},{"attributes":{"NORMAL":210,"POSITION":79},"indices":341,"material":0,"mode":4},{"attributes":{"NORMAL":211,"POSITION":80},"indices":342,"material":0,"mode":4},{"attributes":{"NORMAL":212,"POSITION":81},"indices":343,"material":0,"mode":4},{"attributes":{"NORMAL":213,"POSITION":82},"indices":344,"material":0,"mode":4},{"attributes":{"NORMAL":214,"POSITION":83},"indices":345,"material":0,"mode":4},{"attributes":{"NORMAL":215,"POSITION":84},"indices":346,"material":0,"mode":4},{"attributes":{"NORMAL":216,"POSITION":85},"indices":347,"material":0,"mode":4},{"attributes":{"NORMAL":217,"POSITION":86},"indices":348,"material":0,"mode":4},{"attributes":{"NORMAL":218,"POSITION":87},"indices":349,"material":0,"mode":4},{"attributes":{"NORMAL":219,"POSITION":88},"indices":350,"material":0,"mode":4},{"attributes":{"NORMAL":220,"POSITION":89},"indices":351,"material":0,"mode":4},{"attributes":{"NORMAL":221,"POSITION":90},"indices":352,"material":0,"mode":4},{"attributes":{"NORMAL":222,"POSITION":91},"indices":353,"material":0,"mode":4},{"attributes":{"NORMAL":223,"POSITION":92},"indices":354,"material":0,"mode":4},{"attributes":{"NORMAL":224,"POSITION":93},"indices":355,"material":0,"mode":4},{"attributes":{"NORMAL":225,"POSITION":94},"indices":356,"material":0,"mode":4},{"attributes":{"NORMAL":226,"POSITION":95},"indices":357,"material":0,"mode":4},{"attributes":{"NORMAL":227,"POSITION":96},"indices":358,"material":0,"mode":4},{"attributes":{"NORMAL":228,"POSITION":97},"indices":359,"material":0,"mode":4},{"attributes":{"NORMAL":229,"POSITION":98},"indices":360,"material":0,"mode":4},{"attributes":{"NORMAL":230,"POSITION":99},"indices":361,"material":0,"mode":4},{"attributes":{"NORMAL":231,"POSITION":100},"indices":362,"material":0,"mode":4},{"attributes":{"NORMAL":232,"POSITION":101},"indices":363,"material":0,"mode":4},{"attributes":{"NORMAL":233,"POSITION":102},"indices":364,"material":0,"mode":4},{"attributes":{"NORMAL":234,"POSITION":103},"indices":365,"material":0,"mode":4},{"attributes":{"NORMAL":235,"POSITION":104},"indices":366,"material":0,"mode":4},{"attributes":{"NORMAL":236,"POSITION":105},"indices":367,"material":0,"mode":4},{"attributes":{"NORMAL":237,"POSITION":106},"indices":368,"material":0,"mode":4},{"attributes":{"NORMAL":238,"POSITION":107},"indices":369,"material":0,"mode":4},{"attributes":{"NORMAL":239,"POSITION":108},"indices":370,"material":0,"mode":4},{"attributes":{"NORMAL":240,"POSITION":109},"indices":371,"material":0,"mode":4},{"attributes":{"NORMAL":241,"POSITION":110},"indices":372,"material":0,"mode":4},{"attributes":{"NORMAL":242,"POSITION":111},"indices":373,"material":0,"mode":4},{"attributes":{"NORMAL":243,"POSITION":112},"indices":374,"material":0,"mode":4},{"attributes":{"NORMAL":244,"POSITION":113},"indices":375,"material":0,"mode":4},{"attributes":{"NORMAL":245,"POSITION":114},"indices":376,"material":0,"mode":4},{"attributes":{"NORMAL":246,"POSITION":115},"indices":377,"material":0,"mode":4},{"attributes":{"NORMAL":247,"POSITION":116},"indices":378,"material":0,"mode":4},{"attributes":{"NORMAL":248,"POSITION":117},"indices":379,"material":0,"mode":4},{"attributes":{"NORMAL":249,"POSITION":118},"indices":380,"material":0,"mode":4},{"attributes":{"NORMAL":250,"POSITION":119},"indices":381,"material":0,"mode":4},{"attributes":{"NORMAL":251,"POSITION":120},"indices":382,"material":0,"mode":4},{"attributes":{"NORMAL":252,"POSITION":121},"indices":383,"material":0,"mode":4},{"attributes":{"NORMAL":253,"POSITION":122},"indices":384,"material":0,"mode":4},{"attributes":{"NORMAL":254,"POSITION":123},"indices":385,"material":0,"mode":4},{"attributes":{"NORMAL":255,"POSITION":124},"indices":386,"material":0,"mode":4},{"attributes":{"NORMAL":256,"POSITION":125},"indices":387,"material":0,"mode":4},{"attributes":{"NORMAL":257,"POSITION":126},"indices":388,"material":0,"mode":4},{"attributes":{"NORMAL":258,"POSITION":127},"indices":389,"material":0,"mode":4},{"attributes":{"NORMAL":259,"POSITION":128},"indices":390,"material":0,"mode":4},{"attributes":{"NORMAL":260,"POSITION":129},"indices":391,"material":0,"mode":4},{"attributes":{"NORMAL":261,"POSITION":130},"indices":392,"material":0,"mode":4}]}],"nodes":[{"mesh":0,"name":"Part 1"}],"scene":0,"scenes":[{"nodes":[0]}]}