M48
; DRILL file {KiCad 9.0.1} date 2025-11-01T16:21:11+0800
; FORMAT={-:-/ absolute / metric / decimal}
; #@! TF.CreationDate,2025-11-01T16:21:11+08:00
; #@! TF.GenerationSoftware,Kicad,Pcbnew,9.0.1
; #@! TF.FileFunction,Plated,1,2,PTH
FMAT,2
METRIC
; #@! TA.AperFunction,Plated,PTH,ViaDrill
T1C0.300
; #@! TA.AperFunction,Plated,PTH,ComponentDrill
T2C0.950
; #@! TA.AperFunction,Plated,PTH,ComponentDrill
T3C1.000
; #@! TA.AperFunction,Plated,PTH,ComponentDrill
T4C1.020
; #@! TA.AperFunction,Plated,PTH,ComponentDrill
T5C1.200
; #@! TA.AperFunction,Plated,PTH,ComponentDrill
T6C3.200
%
G90
G05
T1
X151.9Y-107.1
X152.9Y-107.1
X154.8Y-104.2
X155.8Y-104.2
X170.6Y-97.5
X174.45Y-105.237
X175.1Y-104.7
T2
X145.5Y-89.4
X145.5Y-91.9
X145.5Y-94.4
X145.5Y-96.9
X145.5Y-102.0
X145.5Y-104.5
X145.5Y-107.0
X145.5Y-109.5
X145.5Y-114.6
X145.5Y-117.1
X145.5Y-119.6
X145.5Y-122.1
X154.988Y-115.0
X154.988Y-121.0
X157.488Y-115.0
X157.488Y-121.0
X159.988Y-115.0
X159.988Y-121.0
X162.488Y-115.0
X162.488Y-121.0
X167.6Y-115.0
X167.6Y-121.0
X170.1Y-115.0
X170.1Y-121.0
X172.6Y-115.0
X172.6Y-121.0
X175.1Y-115.0
X175.1Y-121.0
X176.0Y-77.6
X176.0Y-85.0
X178.5Y-77.6
X178.5Y-85.0
X181.0Y-77.6
X181.0Y-85.0
X183.5Y-77.6
X183.5Y-85.0
T3
X153.2Y-85.0
X155.7Y-85.0
X160.8Y-85.0
X163.3Y-85.0
X168.4Y-77.6
X168.4Y-85.0
X170.9Y-77.6
X170.9Y-85.0
X180.975Y-113.4
X180.975Y-115.9
X186.9Y-113.4
X186.9Y-115.9
X188.5Y-77.6
X188.5Y-80.1
X188.5Y-85.2
X188.5Y-87.7
X194.5Y-77.6
X194.5Y-80.1
X194.5Y-85.2
X194.5Y-87.7
X194.7Y-102.4
X194.7Y-104.9
X195.7Y-110.8
X195.7Y-113.3
T4
X154.0Y-93.06
X154.0Y-96.06
X157.0Y-93.06
X157.0Y-96.06
X160.0Y-93.06
X160.0Y-96.06
X161.238Y-105.75
X161.238Y-108.75
X163.0Y-93.06
X163.0Y-96.06
X164.238Y-105.75
X164.238Y-108.75
X166.0Y-93.06
X166.0Y-96.06
X167.238Y-105.75
X167.238Y-108.75
X169.0Y-93.06
X169.0Y-96.06
X170.238Y-105.75
X170.238Y-108.75
X172.0Y-93.06
X172.0Y-96.06
X173.238Y-105.75
X173.238Y-108.75
X175.0Y-93.06
X175.0Y-96.06
X176.238Y-105.75
X176.238Y-108.75
X178.0Y-93.06
X178.0Y-96.06
X179.238Y-105.75
X179.238Y-108.75
X181.0Y-93.06
X181.0Y-96.06
X182.238Y-105.75
X182.238Y-108.75
X184.0Y-93.06
X184.0Y-96.06
X185.238Y-105.75
X185.238Y-108.75
X187.0Y-93.06
X187.0Y-96.06
X188.238Y-105.75
X188.238Y-108.75
T5
X145.1Y-78.8
X148.6Y-78.8
X159.4Y-78.8
X162.9Y-78.8
X194.1Y-118.9
X194.1Y-122.4
T6
X154.0Y-78.5
X184.0Y-121.7
M30
