%TF.GenerationSoftware,KiCad,Pcbnew,9.0.1*%
%TF.CreationDate,2025-11-01T16:21:08+08:00*%
%TF.ProjectId,breakout,62726561-6b6f-4757-942e-6b696361645f,rev?*%
%TF.SameCoordinates,Original*%
%TF.FileFunction,Copper,L2,Bot*%
%TF.FilePolarity,Positive*%
%FSLAX46Y46*%
G04 Gerber Fmt 4.6, Leading zero omitted, Abs format (unit mm)*
G04 Created by KiCad (PCBNEW 9.0.1) date 2025-11-01 16:21:08*
%MOMM*%
%LPD*%
G01*
G04 APERTURE LIST*
%TA.AperFunction,ComponentPad*%
%ADD10O,2.000000X1.700000*%
%TD*%
%TA.AperFunction,ComponentPad*%
%ADD11C,2.400000*%
%TD*%
%TA.AperFunction,ComponentPad*%
%ADD12O,1.700000X2.000000*%
%TD*%
%TA.AperFunction,ComponentPad*%
%ADD13O,1.950000X1.700000*%
%TD*%
%TA.AperFunction,ComponentPad*%
%ADD14O,1.700000X1.950000*%
%TD*%
%TA.AperFunction,ComponentPad*%
%ADD15C,3.600000*%
%TD*%
%TA.AperFunction,ConnectorPad*%
%ADD16C,5.600000*%
%TD*%
%TA.AperFunction,ComponentPad*%
%ADD17C,1.500000*%
%TD*%
%TA.AperFunction,ViaPad*%
%ADD18C,0.600000*%
%TD*%
%TA.AperFunction,Conductor*%
%ADD19C,0.300000*%
%TD*%
%TA.AperFunction,Conductor*%
%ADD20C,1.700000*%
%TD*%
G04 APERTURE END LIST*
D10*
%TO.P,YEND,2,2*%
%TO.N,Net-(JY1-Pin_14)*%
X194700000Y-102400000D03*
%TO.P,YEND,1,1*%
%TO.N,Net-(JY1-Pin_13)*%
X194700000Y-104900000D03*
%TD*%
D11*
%TO.P,YR,1*%
%TO.N,Net-(JY1-Pin_2)*%
X194100000Y-122400000D03*
%TO.P,YR,2*%
%TO.N,Net-(JY1-Pin_1)*%
X194100000Y-118900000D03*
%TD*%
%TO.P,XR1,1*%
%TO.N,Net-(JX1-Pin_6)*%
X162900000Y-78800000D03*
%TO.P,XR1,2*%
%TO.N,Net-(JX1-Pin_5)*%
X159400000Y-78800000D03*
%TD*%
%TO.P,XR0,1*%
%TO.N,Net-(JX1-Pin_4)*%
X148600000Y-78800000D03*
%TO.P,XR0,2*%
%TO.N,Net-(JX1-Pin_3)*%
X145100000Y-78800000D03*
%TD*%
D10*
%TO.P,ZEND0,1,1*%
%TO.N,Net-(JY1-Pin_14)*%
X180975000Y-115900000D03*
%TO.P,ZEND0,2,2*%
%TO.N,Net-(JY1-Pin_11)*%
X180975000Y-113400000D03*
%TD*%
%TO.P,FANPWM,1,Pin_1*%
%TO.N,Net-(FANPWM1-Pin_1)*%
X194500000Y-87700000D03*
%TO.P,FANPWM,2,Pin_2*%
X194500000Y-85200000D03*
%TD*%
D12*
%TO.P,XEND,1,1*%
%TO.N,Net-(JY1-Pin_14)*%
X160800000Y-85000000D03*
%TO.P,XEND,2,2*%
%TO.N,Net-(JX1-Pin_7)*%
X163300000Y-85000000D03*
%TD*%
D10*
%TO.P,AUXF1,1,+*%
%TO.N,Net-(AUXF1-+)*%
X194500000Y-80100000D03*
%TO.P,AUXF1,2,-*%
%TO.N,Net-(AUXF1--)*%
X194500000Y-77600000D03*
%TD*%
D12*
%TO.P,XTH1,1*%
%TO.N,Net-(JX1-Pin_17)*%
X168400000Y-85000000D03*
%TO.P,XTH1,2*%
%TO.N,Net-(JX1-Pin_18)*%
X170900000Y-85000000D03*
%TD*%
%TO.P,HEF1,1,+*%
%TO.N,Net-(HEF1-+)*%
X153200000Y-85000000D03*
%TO.P,HEF1,2,-*%
%TO.N,Net-(HEF1--)*%
X155700000Y-85000000D03*
%TD*%
D10*
%TO.P,YTH,1*%
%TO.N,Net-(JY1-Pin_3)*%
X195700000Y-110800000D03*
%TO.P,YTH,2*%
%TO.N,Net-(JY1-Pin_4)*%
X195700000Y-113300000D03*
%TD*%
%TO.P,AUXF3,1,+*%
%TO.N,Net-(AUXF1-+)*%
X188500000Y-80100000D03*
%TO.P,AUXF3,2,-*%
%TO.N,Net-(AUXF1--)*%
X188500000Y-77600000D03*
%TD*%
%TO.P,ZEND1,1,1*%
%TO.N,Net-(JY1-Pin_14)*%
X186900000Y-115900000D03*
%TO.P,ZEND1,2,2*%
%TO.N,Net-(JY1-Pin_12)*%
X186900000Y-113400000D03*
%TD*%
%TO.P,AUXF,1,+*%
%TO.N,Net-(AUXF1-+)*%
X188500000Y-87700000D03*
%TO.P,AUXF,2,-*%
%TO.N,Net-(AUXF1--)*%
X188500000Y-85200000D03*
%TD*%
D12*
%TO.P,XTH0,1*%
%TO.N,Net-(JX1-Pin_19)*%
X168400000Y-77600000D03*
%TO.P,XTH0,2*%
%TO.N,Net-(JX1-Pin_20)*%
X170900000Y-77600000D03*
%TD*%
D13*
%TO.P,ZM1,1,Pin_1*%
%TO.N,Net-(JY1-Pin_20)*%
X145500000Y-109500000D03*
%TO.P,ZM1,2,Pin_2*%
%TO.N,Net-(JY1-Pin_19)*%
X145500000Y-107000000D03*
%TO.P,ZM1,3,Pin_3*%
%TO.N,Net-(JY1-Pin_18)*%
X145500000Y-104500000D03*
%TO.P,ZM1,4,Pin_4*%
%TO.N,Net-(JY1-Pin_17)*%
X145500000Y-102000000D03*
%TD*%
D14*
%TO.P,YMR0,1,Pin_1*%
%TO.N,Net-(JY1-Pin_7)*%
X175100000Y-115000000D03*
%TO.P,YMR0,2,Pin_2*%
%TO.N,Net-(JY1-Pin_8)*%
X172600000Y-115000000D03*
%TO.P,YMR0,3,Pin_3*%
%TO.N,Net-(JY1-Pin_10)*%
X170100000Y-115000000D03*
%TO.P,YMR0,4,Pin_4*%
%TO.N,Net-(JY1-Pin_9)*%
X167600000Y-115000000D03*
%TD*%
%TO.P,YML1,1,Pin_1*%
%TO.N,Net-(JY1-Pin_7)*%
X162488349Y-121000000D03*
%TO.P,YML1,2,Pin_2*%
%TO.N,Net-(JY1-Pin_8)*%
X159988349Y-121000000D03*
%TO.P,YML1,3,Pin_3*%
%TO.N,Net-(JY1-Pin_9)*%
X157488349Y-121000000D03*
%TO.P,YML1,4,Pin_4*%
%TO.N,Net-(JY1-Pin_10)*%
X154988349Y-121000000D03*
%TD*%
%TO.P,YMR1,1,Pin_1*%
%TO.N,Net-(JY1-Pin_7)*%
X175100000Y-121000000D03*
%TO.P,YMR1,2,Pin_2*%
%TO.N,Net-(JY1-Pin_8)*%
X172600000Y-121000000D03*
%TO.P,YMR1,3,Pin_3*%
%TO.N,Net-(JY1-Pin_10)*%
X170100000Y-121000000D03*
%TO.P,YMR1,4,Pin_4*%
%TO.N,Net-(JY1-Pin_9)*%
X167600000Y-121000000D03*
%TD*%
D13*
%TO.P,ZM0,1,Pin_1*%
%TO.N,Net-(JY1-Pin_15)*%
X145500000Y-122100000D03*
%TO.P,ZM0,2,Pin_2*%
%TO.N,Net-(JY1-Pin_16)*%
X145500000Y-119600000D03*
%TO.P,ZM0,3,Pin_3*%
%TO.N,Net-(JY1-Pin_6)*%
X145500000Y-117100000D03*
%TO.P,ZM0,4,Pin_4*%
%TO.N,Net-(JY1-Pin_5)*%
X145500000Y-114600000D03*
%TD*%
%TO.P,EM,1,Pin_1*%
%TO.N,Net-(EM1-Pin_1)*%
X145500000Y-96900000D03*
%TO.P,EM,2,Pin_2*%
%TO.N,Net-(EM1-Pin_2)*%
X145500000Y-94400000D03*
%TO.P,EM,3,Pin_3*%
%TO.N,Net-(EM1-Pin_3)*%
X145500000Y-91900000D03*
%TO.P,EM,4,Pin_4*%
%TO.N,Net-(EM1-Pin_4)*%
X145500000Y-89400000D03*
%TD*%
D14*
%TO.P,XM1,1,Pin_1*%
%TO.N,Net-(JX1-Pin_8)*%
X176000000Y-77600000D03*
%TO.P,XM1,2,Pin_2*%
%TO.N,Net-(JX1-Pin_9)*%
X178500000Y-77600000D03*
%TO.P,XM1,3,Pin_3*%
%TO.N,Net-(JX1-Pin_10)*%
X181000000Y-77600000D03*
%TO.P,XM1,4,Pin_4*%
%TO.N,Net-(JX1-Pin_11)*%
X183500000Y-77600000D03*
%TD*%
%TO.P,YML0,1,Pin_1*%
%TO.N,Net-(JY1-Pin_7)*%
X162488349Y-115000000D03*
%TO.P,YML0,2,Pin_2*%
%TO.N,Net-(JY1-Pin_8)*%
X159988349Y-115000000D03*
%TO.P,YML0,3,Pin_3*%
%TO.N,Net-(JY1-Pin_9)*%
X157488349Y-115000000D03*
%TO.P,YML0,4,Pin_4*%
%TO.N,Net-(JY1-Pin_10)*%
X154988349Y-115000000D03*
%TD*%
%TO.P,XM0,1,Pin_1*%
%TO.N,Net-(JX1-Pin_8)*%
X176000000Y-85000000D03*
%TO.P,XM0,2,Pin_2*%
%TO.N,Net-(JX1-Pin_9)*%
X178500000Y-85000000D03*
%TO.P,XM0,3,Pin_3*%
%TO.N,Net-(JX1-Pin_10)*%
X181000000Y-85000000D03*
%TO.P,XM0,4,Pin_4*%
%TO.N,Net-(JX1-Pin_11)*%
X183500000Y-85000000D03*
%TD*%
D15*
%TO.P,H1,1,1*%
%TO.N,GND*%
X154000000Y-78500000D03*
D16*
X154000000Y-78500000D03*
%TD*%
D17*
%TO.P,JX1,1,Pin_1*%
%TO.N,Net-(EM1-Pin_4)*%
X154000000Y-93060000D03*
%TO.P,JX1,2,Pin_2*%
%TO.N,Net-(EM1-Pin_3)*%
X157000000Y-93060000D03*
%TO.P,JX1,3,Pin_3*%
%TO.N,Net-(JX1-Pin_3)*%
X160000000Y-93060000D03*
%TO.P,JX1,4,Pin_4*%
%TO.N,Net-(JX1-Pin_4)*%
X163000000Y-93060000D03*
%TO.P,JX1,5,Pin_5*%
%TO.N,Net-(JX1-Pin_5)*%
X166000000Y-93060000D03*
%TO.P,JX1,6,Pin_6*%
%TO.N,Net-(JX1-Pin_6)*%
X169000000Y-93060000D03*
%TO.P,JX1,7,Pin_7*%
%TO.N,Net-(JX1-Pin_7)*%
X172000000Y-93060000D03*
%TO.P,JX1,8,Pin_8*%
%TO.N,Net-(JX1-Pin_8)*%
X175000000Y-93060000D03*
%TO.P,JX1,9,Pin_9*%
%TO.N,Net-(JX1-Pin_9)*%
X178000000Y-93060000D03*
%TO.P,JX1,10,Pin_10*%
%TO.N,Net-(JX1-Pin_10)*%
X181000000Y-93060000D03*
%TO.P,JX1,11,Pin_11*%
%TO.N,Net-(JX1-Pin_11)*%
X184000000Y-93060000D03*
%TO.P,JX1,12,Pin_12*%
%TO.N,Net-(AUXF1--)*%
X187000000Y-93060000D03*
%TO.P,JX1,13,Pin_13*%
%TO.N,Net-(EM1-Pin_2)*%
X154000000Y-96060000D03*
%TO.P,JX1,14,Pin_14*%
%TO.N,Net-(EM1-Pin_1)*%
X157000000Y-96060000D03*
%TO.P,JX1,15,Pin_15*%
%TO.N,Net-(HEF1-+)*%
X160000000Y-96060000D03*
%TO.P,JX1,16,Pin_16*%
%TO.N,Net-(HEF1--)*%
X163000000Y-96060000D03*
%TO.P,JX1,17,Pin_17*%
%TO.N,Net-(JX1-Pin_17)*%
X166000000Y-96060000D03*
%TO.P,JX1,18,Pin_18*%
%TO.N,Net-(JX1-Pin_18)*%
X169000000Y-96060000D03*
%TO.P,JX1,19,Pin_19*%
%TO.N,Net-(JX1-Pin_19)*%
X172000000Y-96060000D03*
%TO.P,JX1,20,Pin_20*%
%TO.N,Net-(JX1-Pin_20)*%
X175000000Y-96060000D03*
%TO.P,JX1,21,Pin_21*%
%TO.N,GND*%
X178000000Y-96060000D03*
%TO.P,JX1,22,Pin_22*%
X181000000Y-96060000D03*
%TO.P,JX1,23,Pin_23*%
%TO.N,Net-(FANPWM1-Pin_1)*%
X184000000Y-96060000D03*
%TO.P,JX1,24,Pin_24*%
%TO.N,Net-(AUXF1-+)*%
X187000000Y-96060000D03*
%TD*%
%TO.P,JY1,1,Pin_1*%
%TO.N,Net-(JY1-Pin_1)*%
X188238349Y-108750000D03*
%TO.P,JY1,2,Pin_2*%
%TO.N,Net-(JY1-Pin_2)*%
X185238349Y-108750000D03*
%TO.P,JY1,3,Pin_3*%
%TO.N,Net-(JY1-Pin_3)*%
X182238349Y-108750000D03*
%TO.P,JY1,4,Pin_4*%
%TO.N,Net-(JY1-Pin_4)*%
X179238349Y-108750000D03*
%TO.P,JY1,5,Pin_5*%
%TO.N,Net-(JY1-Pin_5)*%
X176238349Y-108750000D03*
%TO.P,JY1,6,Pin_6*%
%TO.N,Net-(JY1-Pin_6)*%
X173238349Y-108750000D03*
%TO.P,JY1,7,Pin_7*%
%TO.N,Net-(JY1-Pin_7)*%
X170238349Y-108750000D03*
%TO.P,JY1,8,Pin_8*%
%TO.N,Net-(JY1-Pin_8)*%
X167238349Y-108750000D03*
%TO.P,JY1,9,Pin_9*%
%TO.N,Net-(JY1-Pin_9)*%
X164238349Y-108750000D03*
%TO.P,JY1,10,Pin_10*%
%TO.N,Net-(JY1-Pin_10)*%
X161238349Y-108750000D03*
%TO.P,JY1,11,Pin_11*%
%TO.N,Net-(JY1-Pin_11)*%
X188238349Y-105750000D03*
%TO.P,JY1,12,Pin_12*%
%TO.N,Net-(JY1-Pin_12)*%
X185238349Y-105750000D03*
%TO.P,JY1,13,Pin_13*%
%TO.N,Net-(JY1-Pin_13)*%
X182238349Y-105750000D03*
%TO.P,JY1,14,Pin_14*%
%TO.N,Net-(JY1-Pin_14)*%
X179238349Y-105750000D03*
%TO.P,JY1,15,Pin_15*%
%TO.N,Net-(JY1-Pin_15)*%
X176238349Y-105750000D03*
%TO.P,JY1,16,Pin_16*%
%TO.N,Net-(JY1-Pin_16)*%
X173238349Y-105750000D03*
%TO.P,JY1,17,Pin_17*%
%TO.N,Net-(JY1-Pin_17)*%
X170238349Y-105750000D03*
%TO.P,JY1,18,Pin_18*%
%TO.N,Net-(JY1-Pin_18)*%
X167238349Y-105750000D03*
%TO.P,JY1,19,Pin_19*%
%TO.N,Net-(JY1-Pin_19)*%
X164238349Y-105750000D03*
%TO.P,JY1,20,Pin_20*%
%TO.N,Net-(JY1-Pin_20)*%
X161238349Y-105750000D03*
%TD*%
D15*
%TO.P,H4,1,1*%
%TO.N,GND*%
X184000000Y-121700000D03*
D16*
X184000000Y-121700000D03*
%TD*%
D18*
%TO.N,Net-(JY1-Pin_6)*%
X155800000Y-104200000D03*
X152900000Y-107100000D03*
X174450000Y-105237043D03*
%TO.N,Net-(JY1-Pin_5)*%
X154800000Y-104200000D03*
X175100000Y-104699999D03*
X151900000Y-107100000D03*
%TO.N,Net-(JY1-Pin_14)*%
X170600000Y-97500000D03*
%TD*%
D19*
%TO.N,Net-(HEF1-+)*%
X161249000Y-91257520D02*
X161249000Y-94811000D01*
X161249000Y-94811000D02*
X160000000Y-96060000D01*
X156342480Y-86351000D02*
X161249000Y-91257520D01*
X153200000Y-85000000D02*
X153851530Y-85000000D01*
X155202530Y-86351000D02*
X156342480Y-86351000D01*
X153851530Y-85000000D02*
X155202530Y-86351000D01*
%TO.N,Net-(HEF1--)*%
X161750000Y-91050000D02*
X161750000Y-94810000D01*
X161750000Y-94810000D02*
X163000000Y-96060000D01*
X155700000Y-85000000D02*
X161750000Y-91050000D01*
D20*
%TO.N,Net-(JY1-Pin_8)*%
X167238349Y-108750000D02*
X172600000Y-114111651D01*
X172600000Y-114111651D02*
X172600000Y-115000000D01*
%TO.N,Net-(JY1-Pin_10)*%
X167913420Y-112500000D02*
X170100000Y-114686580D01*
X165050000Y-112500000D02*
X167913420Y-112500000D01*
X170100000Y-114686580D02*
X170100000Y-115000000D01*
X161250000Y-108700000D02*
X165050000Y-112500000D01*
D19*
%TO.N,Net-(JY1-Pin_6)*%
X155800000Y-104200000D02*
X152900000Y-107100000D01*
X174499000Y-107489349D02*
X173238349Y-108750000D01*
X155800000Y-104200000D02*
X155752000Y-104248000D01*
X174450000Y-105237043D02*
X174450000Y-105250000D01*
X174499000Y-105299000D02*
X174499000Y-107489349D01*
X174450000Y-105250000D02*
X174499000Y-105299000D01*
%TO.N,Net-(JY1-Pin_5)*%
X175100000Y-104699999D02*
X175100000Y-107611651D01*
X175100000Y-107611651D02*
X176238349Y-108750000D01*
X154800000Y-104200000D02*
X151900000Y-107100000D01*
%TO.N,Net-(JX1-Pin_7)*%
X164900000Y-85000000D02*
X172000000Y-92100000D01*
X163300000Y-85000000D02*
X164900000Y-85000000D01*
X172000000Y-92100000D02*
X172000000Y-93060000D01*
%TO.N,Net-(JY1-Pin_14)*%
X165300000Y-86500000D02*
X162300000Y-86500000D01*
X170600000Y-97500000D02*
X170600000Y-91800000D01*
X162300000Y-86500000D02*
X160800000Y-85000000D01*
X170600000Y-91800000D02*
X165300000Y-86500000D01*
%TD*%
%TA.AperFunction,Conductor*%
%TO.N,GND*%
G36*
X197742539Y-75520185D02*
G01*
X197788294Y-75572989D01*
X197799500Y-75624500D01*
X197799500Y-124375500D01*
X197779815Y-124442539D01*
X197727011Y-124488294D01*
X197675500Y-124499500D01*
X143424500Y-124499500D01*
X143357461Y-124479815D01*
X143311706Y-124427011D01*
X143300500Y-124375500D01*
X143300500Y-114493713D01*
X144024500Y-114493713D01*
X144024500Y-114706287D01*
X144057754Y-114916243D01*
X144091534Y-115020208D01*
X144123444Y-115118414D01*
X144219951Y-115307820D01*
X144344890Y-115479786D01*
X144495209Y-115630105D01*
X144495214Y-115630109D01*
X144659793Y-115749682D01*
X144702459Y-115805011D01*
X144708438Y-115874625D01*
X144675833Y-115936420D01*
X144659793Y-115950318D01*
X144495214Y-116069890D01*
X144495209Y-116069894D01*
X144344890Y-116220213D01*
X144219951Y-116392179D01*
X144123444Y-116581585D01*
X144057753Y-116783760D01*
X144034575Y-116930104D01*
X144024500Y-116993713D01*
X144024500Y-117206287D01*
X144028034Y-117228597D01*
X144057753Y-117416239D01*
X144123444Y-117618414D01*
X144219951Y-117807820D01*
X144344890Y-117979786D01*
X144495209Y-118130105D01*
X144495214Y-118130109D01*
X144659793Y-118249682D01*
X144702459Y-118305011D01*
X144708438Y-118374625D01*
X144675833Y-118436420D01*
X144659793Y-118450318D01*
X144495214Y-118569890D01*
X144495209Y-118569894D01*
X144344890Y-118720213D01*
X144219951Y-118892179D01*
X144123444Y-119081585D01*
X144057753Y-119283760D01*
X144024500Y-119493713D01*
X144024500Y-119706286D01*
X144046453Y-119844896D01*
X144057754Y-119916243D01*
X144092644Y-120023624D01*
X144123444Y-120118414D01*
X144219951Y-120307820D01*
X144344890Y-120479786D01*
X144495209Y-120630105D01*
X144495214Y-120630109D01*
X144659793Y-120749682D01*
X144702459Y-120805011D01*
X144708438Y-120874625D01*
X144675833Y-120936420D01*
X144659793Y-120950318D01*
X144495214Y-121069890D01*
X144495209Y-121069894D01*
X144344890Y-121220213D01*
X144219951Y-121392179D01*
X144123444Y-121581585D01*
X144057753Y-121783760D01*
X144024500Y-121993713D01*
X144024500Y-122206286D01*
X144057753Y-122416239D01*
X144123444Y-122618414D01*
X144219951Y-122807820D01*
X144344890Y-122979786D01*
X144495213Y-123130109D01*
X144667179Y-123255048D01*
X144667181Y-123255049D01*
X144667184Y-123255051D01*
X144856588Y-123351557D01*
X145058757Y-123417246D01*
X145268713Y-123450500D01*
X145268714Y-123450500D01*
X145731286Y-123450500D01*
X145731287Y-123450500D01*
X145941243Y-123417246D01*
X146143412Y-123351557D01*
X146332816Y-123255051D01*
X146354789Y-123239086D01*
X146504786Y-123130109D01*
X146504788Y-123130106D01*
X146504792Y-123130104D01*
X146655104Y-122979792D01*
X146655106Y-122979788D01*
X146655109Y-122979786D01*
X146780048Y-122807820D01*
X146780047Y-122807820D01*
X146780051Y-122807816D01*
X146876557Y-122618412D01*
X146942246Y-122416243D01*
X146975500Y-122206287D01*
X146975500Y-121993713D01*
X146942246Y-121783757D01*
X146876557Y-121581588D01*
X146780051Y-121392184D01*
X146780049Y-121392181D01*
X146780048Y-121392179D01*
X146655109Y-121220213D01*
X146504792Y-121069896D01*
X146504784Y-121069890D01*
X146340204Y-120950316D01*
X146323023Y-120928036D01*
X146303421Y-120907866D01*
X146301977Y-120900744D01*
X146297540Y-120894989D01*
X146295132Y-120866959D01*
X146289546Y-120839388D01*
X146292182Y-120832615D01*
X146291561Y-120825376D01*
X146304689Y-120800494D01*
X146314896Y-120774279D01*
X146320622Y-120768713D01*
X153637849Y-120768713D01*
X153637849Y-121231287D01*
X153644990Y-121276376D01*
X153671102Y-121441239D01*
X153736793Y-121643414D01*
X153833300Y-121832820D01*
X153958239Y-122004786D01*
X154108562Y-122155109D01*
X154280528Y-122280048D01*
X154280530Y-122280049D01*
X154280533Y-122280051D01*
X154469937Y-122376557D01*
X154672106Y-122442246D01*
X154882062Y-122475500D01*
X154882063Y-122475500D01*
X155094635Y-122475500D01*
X155094636Y-122475500D01*
X155304592Y-122442246D01*
X155506761Y-122376557D01*
X155696165Y-122280051D01*
X155718138Y-122264086D01*
X155868135Y-122155109D01*
X155868137Y-122155106D01*
X155868141Y-122155104D01*
X156018453Y-122004792D01*
X156138032Y-121840204D01*
X156193360Y-121797540D01*
X156262973Y-121791561D01*
X156324769Y-121824166D01*
X156338662Y-121840199D01*
X156450196Y-121993713D01*
X156458245Y-122004792D01*
X156608562Y-122155109D01*
X156780528Y-122280048D01*
X156780530Y-122280049D01*
X156780533Y-122280051D01*
X156969937Y-122376557D01*
X157172106Y-122442246D01*
X157382062Y-122475500D01*
X157382063Y-122475500D01*
X157594635Y-122475500D01*
X157594636Y-122475500D01*
X157804592Y-122442246D01*
X158006761Y-122376557D01*
X158196165Y-122280051D01*
X158218138Y-122264086D01*
X158368135Y-122155109D01*
X158368137Y-122155106D01*
X158368141Y-122155104D01*
X158518453Y-122004792D01*
X158638032Y-121840204D01*
X158693360Y-121797540D01*
X158762973Y-121791561D01*
X158824769Y-121824166D01*
X158838662Y-121840199D01*
X158950196Y-121993713D01*
X158958245Y-122004792D01*
X159108562Y-122155109D01*
X159280528Y-122280048D01*
X159280530Y-122280049D01*
X159280533Y-122280051D01*
X159469937Y-122376557D01*
X159672106Y-122442246D01*
X159882062Y-122475500D01*
X159882063Y-122475500D01*
X160094635Y-122475500D01*
X160094636Y-122475500D01*
X160304592Y-122442246D01*
X160506761Y-122376557D01*
X160696165Y-122280051D01*
X160718138Y-122264086D01*
X160868135Y-122155109D01*
X160868137Y-122155106D01*
X160868141Y-122155104D01*
X161018453Y-122004792D01*
X161138032Y-121840204D01*
X161193360Y-121797540D01*
X161262973Y-121791561D01*
X161324769Y-121824166D01*
X161338662Y-121840199D01*
X161450196Y-121993713D01*
X161458245Y-122004792D01*
X161608562Y-122155109D01*
X161780528Y-122280048D01*
X161780530Y-122280049D01*
X161780533Y-122280051D01*
X161969937Y-122376557D01*
X162172106Y-122442246D01*
X162382062Y-122475500D01*
X162382063Y-122475500D01*
X162594635Y-122475500D01*
X162594636Y-122475500D01*
X162804592Y-122442246D01*
X163006761Y-122376557D01*
X163196165Y-122280051D01*
X163218138Y-122264086D01*
X163368135Y-122155109D01*
X163368137Y-122155106D01*
X163368141Y-122155104D01*
X163518453Y-122004792D01*
X163518455Y-122004788D01*
X163518458Y-122004786D01*
X163643397Y-121832820D01*
X163643396Y-121832820D01*
X163643400Y-121832816D01*
X163739906Y-121643412D01*
X163805595Y-121441243D01*
X163838849Y-121231287D01*
X163838849Y-120768713D01*
X166249500Y-120768713D01*
X166249500Y-121231287D01*
X166256641Y-121276376D01*
X166282753Y-121441239D01*
X166348444Y-121643414D01*
X166444951Y-121832820D01*
X166569890Y-122004786D01*
X166720213Y-122155109D01*
X166892179Y-122280048D01*
X166892181Y-122280049D01*
X166892184Y-122280051D01*
X167081588Y-122376557D01*
X167283757Y-122442246D01*
X167493713Y-122475500D01*
X167493714Y-122475500D01*
X167706286Y-122475500D01*
X167706287Y-122475500D01*
X167916243Y-122442246D01*
X168118412Y-122376557D01*
X168307816Y-122280051D01*
X168329789Y-122264086D01*
X168479786Y-122155109D01*
X168479788Y-122155106D01*
X168479792Y-122155104D01*
X168630104Y-122004792D01*
X168749683Y-121840204D01*
X168805011Y-121797540D01*
X168874624Y-121791561D01*
X168936420Y-121824166D01*
X168950313Y-121840199D01*
X169061847Y-121993713D01*
X169069896Y-122004792D01*
X169220213Y-122155109D01*
X169392179Y-122280048D01*
X169392181Y-122280049D01*
X169392184Y-122280051D01*
X169581588Y-122376557D01*
X169783757Y-122442246D01*
X169993713Y-122475500D01*
X169993714Y-122475500D01*
X170206286Y-122475500D01*
X170206287Y-122475500D01*
X170416243Y-122442246D01*
X170618412Y-122376557D01*
X170807816Y-122280051D01*
X170829789Y-122264086D01*
X170979786Y-122155109D01*
X170979788Y-122155106D01*
X170979792Y-122155104D01*
X171130104Y-122004792D01*
X171249683Y-121840204D01*
X171305011Y-121797540D01*
X171374624Y-121791561D01*
X171436420Y-121824166D01*
X171450313Y-121840199D01*
X171561847Y-121993713D01*
X171569896Y-122004792D01*
X171720213Y-122155109D01*
X171892179Y-122280048D01*
X171892181Y-122280049D01*
X171892184Y-122280051D01*
X172081588Y-122376557D01*
X172283757Y-122442246D01*
X172493713Y-122475500D01*
X172493714Y-122475500D01*
X172706286Y-122475500D01*
X172706287Y-122475500D01*
X172916243Y-122442246D01*
X173118412Y-122376557D01*
X173307816Y-122280051D01*
X173329789Y-122264086D01*
X173479786Y-122155109D01*
X173479788Y-122155106D01*
X173479792Y-122155104D01*
X173630104Y-122004792D01*
X173749683Y-121840204D01*
X173805011Y-121797540D01*
X173874624Y-121791561D01*
X173936420Y-121824166D01*
X173950313Y-121840199D01*
X174061847Y-121993713D01*
X174069896Y-122004792D01*
X174220213Y-122155109D01*
X174392179Y-122280048D01*
X174392181Y-122280049D01*
X174392184Y-122280051D01*
X174581588Y-122376557D01*
X174783757Y-122442246D01*
X174993713Y-122475500D01*
X174993714Y-122475500D01*
X175206286Y-122475500D01*
X175206287Y-122475500D01*
X175416243Y-122442246D01*
X175618412Y-122376557D01*
X175807816Y-122280051D01*
X175829789Y-122264086D01*
X175979786Y-122155109D01*
X175979788Y-122155106D01*
X175979792Y-122155104D01*
X176130104Y-122004792D01*
X176130106Y-122004788D01*
X176130109Y-122004786D01*
X176255048Y-121832820D01*
X176255047Y-121832820D01*
X176255051Y-121832816D01*
X176351557Y-121643412D01*
X176417246Y-121441243D01*
X176450500Y-121231287D01*
X176450500Y-120768713D01*
X176417246Y-120558757D01*
X176351557Y-120356588D01*
X176255051Y-120167184D01*
X176255049Y-120167181D01*
X176255048Y-120167179D01*
X176130109Y-119995213D01*
X175979786Y-119844890D01*
X175807820Y-119719951D01*
X175618414Y-119623444D01*
X175618413Y-119623443D01*
X175618412Y-119623443D01*
X175416243Y-119557754D01*
X175416241Y-119557753D01*
X175416240Y-119557753D01*
X175254957Y-119532208D01*
X175206287Y-119524500D01*
X174993713Y-119524500D01*
X174945042Y-119532208D01*
X174783760Y-119557753D01*
X174581585Y-119623444D01*
X174392179Y-119719951D01*
X174220213Y-119844890D01*
X174069894Y-119995209D01*
X174069890Y-119995214D01*
X173950318Y-120159793D01*
X173894989Y-120202459D01*
X173825375Y-120208438D01*
X173763580Y-120175833D01*
X173749682Y-120159793D01*
X173630109Y-119995214D01*
X173630105Y-119995209D01*
X173479786Y-119844890D01*
X173307820Y-119719951D01*
X173118414Y-119623444D01*
X173118413Y-119623443D01*
X173118412Y-119623443D01*
X172916243Y-119557754D01*
X172916241Y-119557753D01*
X172916240Y-119557753D01*
X172754957Y-119532208D01*
X172706287Y-119524500D01*
X172493713Y-119524500D01*
X172445042Y-119532208D01*
X172283760Y-119557753D01*
X172081585Y-119623444D01*
X171892179Y-119719951D01*
X171720213Y-119844890D01*
X171569894Y-119995209D01*
X171569890Y-119995214D01*
X171450318Y-120159793D01*
X171394989Y-120202459D01*
X171325375Y-120208438D01*
X171263580Y-120175833D01*
X171249682Y-120159793D01*
X171130109Y-119995214D01*
X171130105Y-119995209D01*
X170979786Y-119844890D01*
X170807820Y-119719951D01*
X170618414Y-119623444D01*
X170618413Y-119623443D01*
X170618412Y-119623443D01*
X170416243Y-119557754D01*
X170416241Y-119557753D01*
X170416240Y-119557753D01*
X170254957Y-119532208D01*
X170206287Y-119524500D01*
X169993713Y-119524500D01*
X169945042Y-119532208D01*
X169783760Y-119557753D01*
X169581585Y-119623444D01*
X169392179Y-119719951D01*
X169220213Y-119844890D01*
X169069894Y-119995209D01*
X169069890Y-119995214D01*
X168950318Y-120159793D01*
X168894989Y-120202459D01*
X168825375Y-120208438D01*
X168763580Y-120175833D01*
X168749682Y-120159793D01*
X168630109Y-119995214D01*
X168630105Y-119995209D01*
X168479786Y-119844890D01*
X168307820Y-119719951D01*
X168118414Y-119623444D01*
X168118413Y-119623443D01*
X168118412Y-119623443D01*
X167916243Y-119557754D01*
X167916241Y-119557753D01*
X167916240Y-119557753D01*
X167754957Y-119532208D01*
X167706287Y-119524500D01*
X167493713Y-119524500D01*
X167445042Y-119532208D01*
X167283760Y-119557753D01*
X167081585Y-119623444D01*
X166892179Y-119719951D01*
X166720213Y-119844890D01*
X166569890Y-119995213D01*
X166444951Y-120167179D01*
X166348444Y-120356585D01*
X166282753Y-120558760D01*
X166260571Y-120698813D01*
X166249500Y-120768713D01*
X163838849Y-120768713D01*
X163805595Y-120558757D01*
X163739906Y-120356588D01*
X163643400Y-120167184D01*
X163643398Y-120167181D01*
X163643397Y-120167179D01*
X163518458Y-119995213D01*
X163368135Y-119844890D01*
X163196169Y-119719951D01*
X163006763Y-119623444D01*
X163006762Y-119623443D01*
X163006761Y-119623443D01*
X162804592Y-119557754D01*
X162804590Y-119557753D01*
X162804589Y-119557753D01*
X162643306Y-119532208D01*
X162594636Y-119524500D01*
X162382062Y-119524500D01*
X162333391Y-119532208D01*
X162172109Y-119557753D01*
X161969934Y-119623444D01*
X161780528Y-119719951D01*
X161608562Y-119844890D01*
X161458243Y-119995209D01*
X161458239Y-119995214D01*
X161338667Y-120159793D01*
X161283338Y-120202459D01*
X161213724Y-120208438D01*
X161151929Y-120175833D01*
X161138031Y-120159793D01*
X161018458Y-119995214D01*
X161018454Y-119995209D01*
X160868135Y-119844890D01*
X160696169Y-119719951D01*
X160506763Y-119623444D01*
X160506762Y-119623443D01*
X160506761Y-119623443D01*
X160304592Y-119557754D01*
X160304590Y-119557753D01*
X160304589Y-119557753D01*
X160143306Y-119532208D01*
X160094636Y-119524500D01*
X159882062Y-119524500D01*
X159833391Y-119532208D01*
X159672109Y-119557753D01*
X159469934Y-119623444D01*
X159280528Y-119719951D01*
X159108562Y-119844890D01*
X158958243Y-119995209D01*
X158958239Y-119995214D01*
X158838667Y-120159793D01*
X158783338Y-120202459D01*
X158713724Y-120208438D01*
X158651929Y-120175833D01*
X158638031Y-120159793D01*
X158518458Y-119995214D01*
X158518454Y-119995209D01*
X158368135Y-119844890D01*
X158196169Y-119719951D01*
X158006763Y-119623444D01*
X158006762Y-119623443D01*
X158006761Y-119623443D01*
X157804592Y-119557754D01*
X157804590Y-119557753D01*
X157804589Y-119557753D01*
X157643306Y-119532208D01*
X157594636Y-119524500D01*
X157382062Y-119524500D01*
X157333391Y-119532208D01*
X157172109Y-119557753D01*
X156969934Y-119623444D01*
X156780528Y-119719951D01*
X156608562Y-119844890D01*
X156458243Y-119995209D01*
X156458239Y-119995214D01*
X156338667Y-120159793D01*
X156283338Y-120202459D01*
X156213724Y-120208438D01*
X156151929Y-120175833D01*
X156138031Y-120159793D01*
X156018458Y-119995214D01*
X156018454Y-119995209D01*
X155868135Y-119844890D01*
X155696169Y-119719951D01*
X155506763Y-119623444D01*
X155506762Y-119623443D01*
X155506761Y-119623443D01*
X155304592Y-119557754D01*
X155304590Y-119557753D01*
X155304589Y-119557753D01*
X155143306Y-119532208D01*
X155094636Y-119524500D01*
X154882062Y-119524500D01*
X154833391Y-119532208D01*
X154672109Y-119557753D01*
X154469934Y-119623444D01*
X154280528Y-119719951D01*
X154108562Y-119844890D01*
X153958239Y-119995213D01*
X153833300Y-120167179D01*
X153736793Y-120356585D01*
X153671102Y-120558760D01*
X153648920Y-120698813D01*
X153637849Y-120768713D01*
X146320622Y-120768713D01*
X146322335Y-120767048D01*
X146324166Y-120763580D01*
X146340206Y-120749682D01*
X146458795Y-120663523D01*
X146458796Y-120663522D01*
X146504788Y-120630107D01*
X146504788Y-120630106D01*
X146504792Y-120630104D01*
X146655104Y-120479792D01*
X146655106Y-120479788D01*
X146655109Y-120479786D01*
X146780048Y-120307820D01*
X146780047Y-120307820D01*
X146780051Y-120307816D01*
X146876557Y-120118412D01*
X146942246Y-119916243D01*
X146975500Y-119706287D01*
X146975500Y-119493713D01*
X146942246Y-119283757D01*
X146876557Y-119081588D01*
X146780051Y-118892184D01*
X146704756Y-118788549D01*
X192399500Y-118788549D01*
X192399500Y-119011450D01*
X192399501Y-119011466D01*
X192428594Y-119232452D01*
X192428595Y-119232457D01*
X192428596Y-119232463D01*
X192442341Y-119283760D01*
X192486290Y-119447780D01*
X192486293Y-119447790D01*
X192571593Y-119653722D01*
X192571595Y-119653726D01*
X192683052Y-119846774D01*
X192683057Y-119846780D01*
X192683058Y-119846782D01*
X192818751Y-120023622D01*
X192818757Y-120023629D01*
X192976370Y-120181242D01*
X192976376Y-120181247D01*
X193153226Y-120316948D01*
X193346274Y-120428405D01*
X193552219Y-120513710D01*
X193613857Y-120530225D01*
X193673516Y-120566590D01*
X193704045Y-120629437D01*
X193695750Y-120698813D01*
X193651265Y-120752691D01*
X193613858Y-120769773D01*
X193552219Y-120786290D01*
X193552217Y-120786290D01*
X193552216Y-120786291D01*
X193552209Y-120786293D01*
X193346277Y-120871593D01*
X193346273Y-120871595D01*
X193153226Y-120983052D01*
X193153217Y-120983058D01*
X192976377Y-121118751D01*
X192976370Y-121118757D01*
X192818757Y-121276370D01*
X192818751Y-121276377D01*
X192683058Y-121453217D01*
X192683052Y-121453226D01*
X192571595Y-121646273D01*
X192571593Y-121646277D01*
X192486293Y-121852209D01*
X192486290Y-121852219D01*
X192445409Y-122004792D01*
X192428597Y-122067534D01*
X192428594Y-122067547D01*
X192399501Y-122288533D01*
X192399500Y-122288549D01*
X192399500Y-122511450D01*
X192399501Y-122511466D01*
X192428594Y-122732452D01*
X192428595Y-122732457D01*
X192428596Y-122732463D01*
X192428597Y-122732465D01*
X192486290Y-122947780D01*
X192486293Y-122947790D01*
X192571593Y-123153722D01*
X192571595Y-123153726D01*
X192683052Y-123346774D01*
X192683057Y-123346780D01*
X192683058Y-123346782D01*
X192818751Y-123523622D01*
X192818757Y-123523629D01*
X192976370Y-123681242D01*
X192976376Y-123681247D01*
X193153226Y-123816948D01*
X193346274Y-123928405D01*
X193552219Y-124013710D01*
X193767537Y-124071404D01*
X193988543Y-124100500D01*
X193988550Y-124100500D01*
X194211450Y-124100500D01*
X194211457Y-124100500D01*
X194432463Y-124071404D01*
X194647781Y-124013710D01*
X194853726Y-123928405D01*
X195046774Y-123816948D01*
X195223624Y-123681247D01*
X195381247Y-123523624D01*
X195516948Y-123346774D01*
X195628405Y-123153726D01*
X195713710Y-122947781D01*
X195771404Y-122732463D01*
X195800500Y-122511457D01*
X195800500Y-122288543D01*
X195771404Y-122067537D01*
X195713710Y-121852219D01*
X195628405Y-121646274D01*
X195516948Y-121453226D01*
X195381247Y-121276376D01*
X195381242Y-121276370D01*
X195223629Y-121118757D01*
X195223622Y-121118751D01*
X195046782Y-120983058D01*
X195046780Y-120983057D01*
X195046774Y-120983052D01*
X194853726Y-120871595D01*
X194853722Y-120871593D01*
X194647790Y-120786293D01*
X194647783Y-120786291D01*
X194647781Y-120786290D01*
X194586142Y-120769774D01*
X194526483Y-120733410D01*
X194495954Y-120670563D01*
X194504249Y-120601188D01*
X194548734Y-120547310D01*
X194586141Y-120530226D01*
X194647781Y-120513710D01*
X194853726Y-120428405D01*
X195046774Y-120316948D01*
X195223624Y-120181247D01*
X195381247Y-120023624D01*
X195516948Y-119846774D01*
X195628405Y-119653726D01*
X195713710Y-119447781D01*
X195771404Y-119232463D01*
X195800500Y-119011457D01*
X195800500Y-118788543D01*
X195771404Y-118567537D01*
X195713710Y-118352219D01*
X195628405Y-118146274D01*
X195516948Y-117953226D01*
X195381247Y-117776376D01*
X195381242Y-117776370D01*
X195223629Y-117618757D01*
X195223622Y-117618751D01*
X195046782Y-117483058D01*
X195046780Y-117483057D01*
X195046774Y-117483052D01*
X194853726Y-117371595D01*
X194853722Y-117371593D01*
X194647790Y-117286293D01*
X194647783Y-117286291D01*
X194647781Y-117286290D01*
X194432463Y-117228596D01*
X194432457Y-117228595D01*
X194432452Y-117228594D01*
X194211466Y-117199501D01*
X194211463Y-117199500D01*
X194211457Y-117199500D01*
X193988543Y-117199500D01*
X193988537Y-117199500D01*
X193988533Y-117199501D01*
X193767547Y-117228594D01*
X193767540Y-117228595D01*
X193767537Y-117228596D01*
X193685790Y-117250500D01*
X193552219Y-117286290D01*
X193552209Y-117286293D01*
X193346277Y-117371593D01*
X193346273Y-117371595D01*
X193153226Y-117483052D01*
X193153217Y-117483058D01*
X192976377Y-117618751D01*
X192976370Y-117618757D01*
X192818757Y-117776370D01*
X192818751Y-117776377D01*
X192683058Y-117953217D01*
X192683052Y-117953226D01*
X192571595Y-118146273D01*
X192571593Y-118146277D01*
X192486293Y-118352209D01*
X192486290Y-118352219D01*
X192428597Y-118567534D01*
X192428594Y-118567547D01*
X192399501Y-118788533D01*
X192399500Y-118788549D01*
X146704756Y-118788549D01*
X146655104Y-118720208D01*
X146504792Y-118569896D01*
X146340204Y-118450316D01*
X146297540Y-118394989D01*
X146291561Y-118325376D01*
X146324166Y-118263580D01*
X146340199Y-118249686D01*
X146504792Y-118130104D01*
X146655104Y-117979792D01*
X146655106Y-117979788D01*
X146655109Y-117979786D01*
X146780048Y-117807820D01*
X146780047Y-117807820D01*
X146780051Y-117807816D01*
X146876557Y-117618412D01*
X146942246Y-117416243D01*
X146975500Y-117206287D01*
X146975500Y-116993713D01*
X146942246Y-116783757D01*
X146876557Y-116581588D01*
X146780051Y-116392184D01*
X146780049Y-116392181D01*
X146780048Y-116392179D01*
X146655109Y-116220213D01*
X146504792Y-116069896D01*
X146504784Y-116069890D01*
X146340204Y-115950316D01*
X146297540Y-115894989D01*
X146291561Y-115825376D01*
X146324166Y-115763580D01*
X146340199Y-115749686D01*
X146504792Y-115630104D01*
X146655104Y-115479792D01*
X146655106Y-115479788D01*
X146655109Y-115479786D01*
X146780048Y-115307820D01*
X146780047Y-115307820D01*
X146780051Y-115307816D01*
X146876557Y-115118412D01*
X146942246Y-114916243D01*
X146965613Y-114768713D01*
X153637849Y-114768713D01*
X153637849Y-115231286D01*
X153661654Y-115381588D01*
X153671103Y-115441243D01*
X153732468Y-115630105D01*
X153736793Y-115643414D01*
X153833300Y-115832820D01*
X153958239Y-116004786D01*
X154108562Y-116155109D01*
X154280528Y-116280048D01*
X154280530Y-116280049D01*
X154280533Y-116280051D01*
X154469937Y-116376557D01*
X154672106Y-116442246D01*
X154882062Y-116475500D01*
X154882063Y-116475500D01*
X155094635Y-116475500D01*
X155094636Y-116475500D01*
X155304592Y-116442246D01*
X155506761Y-116376557D01*
X155696165Y-116280051D01*
X155778526Y-116220213D01*
X155868135Y-116155109D01*
X155868137Y-116155106D01*
X155868141Y-116155104D01*
X156018453Y-116004792D01*
X156138032Y-115840204D01*
X156193360Y-115797540D01*
X156262973Y-115791561D01*
X156324769Y-115824166D01*
X156338662Y-115840199D01*
X156458241Y-116004786D01*
X156458245Y-116004792D01*
X156608562Y-116155109D01*
X156780528Y-116280048D01*
X156780530Y-116280049D01*
X156780533Y-116280051D01*
X156969937Y-116376557D01*
X157172106Y-116442246D01*
X157382062Y-116475500D01*
X157382063Y-116475500D01*
X157594635Y-116475500D01*
X157594636Y-116475500D01*
X157804592Y-116442246D01*
X158006761Y-116376557D01*
X158196165Y-116280051D01*
X158278526Y-116220213D01*
X158368135Y-116155109D01*
X158368137Y-116155106D01*
X158368141Y-116155104D01*
X158518453Y-116004792D01*
X158638032Y-115840204D01*
X158693360Y-115797540D01*
X158762973Y-115791561D01*
X158824769Y-115824166D01*
X158838662Y-115840199D01*
X158958241Y-116004786D01*
X158958245Y-116004792D01*
X159108562Y-116155109D01*
X159280528Y-116280048D01*
X159280530Y-116280049D01*
X159280533Y-116280051D01*
X159469937Y-116376557D01*
X159672106Y-116442246D01*
X159882062Y-116475500D01*
X159882063Y-116475500D01*
X160094635Y-116475500D01*
X160094636Y-116475500D01*
X160304592Y-116442246D01*
X160506761Y-116376557D01*
X160696165Y-116280051D01*
X160778526Y-116220213D01*
X160868135Y-116155109D01*
X160868137Y-116155106D01*
X160868141Y-116155104D01*
X161018453Y-116004792D01*
X161138032Y-115840204D01*
X161193360Y-115797540D01*
X161262973Y-115791561D01*
X161324769Y-115824166D01*
X161338662Y-115840199D01*
X161458241Y-116004786D01*
X161458245Y-116004792D01*
X161608562Y-116155109D01*
X161780528Y-116280048D01*
X161780530Y-116280049D01*
X161780533Y-116280051D01*
X161969937Y-116376557D01*
X162172106Y-116442246D01*
X162382062Y-116475500D01*
X162382063Y-116475500D01*
X162594635Y-116475500D01*
X162594636Y-116475500D01*
X162804592Y-116442246D01*
X163006761Y-116376557D01*
X163196165Y-116280051D01*
X163278526Y-116220213D01*
X163368135Y-116155109D01*
X163368137Y-116155106D01*
X163368141Y-116155104D01*
X163518453Y-116004792D01*
X163518455Y-116004788D01*
X163518458Y-116004786D01*
X163643397Y-115832820D01*
X163643396Y-115832820D01*
X163643400Y-115832816D01*
X163739906Y-115643412D01*
X163805595Y-115441243D01*
X163838849Y-115231287D01*
X163838849Y-114768713D01*
X163805595Y-114558757D01*
X163739906Y-114356588D01*
X163643400Y-114167184D01*
X163643398Y-114167181D01*
X163643397Y-114167179D01*
X163518458Y-113995213D01*
X163368135Y-113844890D01*
X163196167Y-113719950D01*
X163006763Y-113623444D01*
X163006762Y-113623443D01*
X163006761Y-113623443D01*
X162804592Y-113557754D01*
X162804590Y-113557753D01*
X162804589Y-113557753D01*
X162630018Y-113530104D01*
X162594636Y-113524500D01*
X162382062Y-113524500D01*
X162346680Y-113530104D01*
X162172109Y-113557753D01*
X161969934Y-113623444D01*
X161780531Y-113719950D01*
X161608562Y-113844890D01*
X161458243Y-113995209D01*
X161458239Y-113995214D01*
X161338667Y-114159793D01*
X161283338Y-114202459D01*
X161213724Y-114208438D01*
X161151929Y-114175833D01*
X161138031Y-114159793D01*
X161018458Y-113995214D01*
X161018454Y-113995209D01*
X160868135Y-113844890D01*
X160696167Y-113719950D01*
X160506763Y-113623444D01*
X160506762Y-113623443D01*
X160506761Y-113623443D01*
X160304592Y-113557754D01*
X160304590Y-113557753D01*
X160304589Y-113557753D01*
X160130018Y-113530104D01*
X160094636Y-113524500D01*
X159882062Y-113524500D01*
X159846680Y-113530104D01*
X159672109Y-113557753D01*
X159469934Y-113623444D01*
X159280531Y-113719950D01*
X159108562Y-113844890D01*
X158958243Y-113995209D01*
X158958239Y-113995214D01*
X158838667Y-114159793D01*
X158783338Y-114202459D01*
X158713724Y-114208438D01*
X158651929Y-114175833D01*
X158638031Y-114159793D01*
X158518458Y-113995214D01*
X158518454Y-113995209D01*
X158368135Y-113844890D01*
X158196167Y-113719950D01*
X158006763Y-113623444D01*
X158006762Y-113623443D01*
X158006761Y-113623443D01*
X157804592Y-113557754D01*
X157804590Y-113557753D01*
X157804589Y-113557753D01*
X157630018Y-113530104D01*
X157594636Y-113524500D01*
X157382062Y-113524500D01*
X157346680Y-113530104D01*
X157172109Y-113557753D01*
X156969934Y-113623444D01*
X156780531Y-113719950D01*
X156608562Y-113844890D01*
X156458243Y-113995209D01*
X156458239Y-113995214D01*
X156338667Y-114159793D01*
X156283338Y-114202459D01*
X156213724Y-114208438D01*
X156151929Y-114175833D01*
X156138031Y-114159793D01*
X156018458Y-113995214D01*
X156018454Y-113995209D01*
X155868135Y-113844890D01*
X155696167Y-113719950D01*
X155506763Y-113623444D01*
X155506762Y-113623443D01*
X155506761Y-113623443D01*
X155304592Y-113557754D01*
X155304590Y-113557753D01*
X155304589Y-113557753D01*
X155130018Y-113530104D01*
X155094636Y-113524500D01*
X154882062Y-113524500D01*
X154846680Y-113530104D01*
X154672109Y-113557753D01*
X154469934Y-113623444D01*
X154280531Y-113719950D01*
X154108562Y-113844890D01*
X153958239Y-113995213D01*
X153833300Y-114167179D01*
X153736793Y-114356585D01*
X153671102Y-114558760D01*
X153637849Y-114768713D01*
X146965613Y-114768713D01*
X146968526Y-114750318D01*
X146969439Y-114744555D01*
X146969456Y-114744444D01*
X146970727Y-114736420D01*
X146975500Y-114706287D01*
X146975500Y-114493713D01*
X146942246Y-114283757D01*
X146876557Y-114081588D01*
X146780051Y-113892184D01*
X146780049Y-113892181D01*
X146780048Y-113892179D01*
X146655109Y-113720213D01*
X146504786Y-113569890D01*
X146332820Y-113444951D01*
X146143414Y-113348444D01*
X146143413Y-113348443D01*
X146143412Y-113348443D01*
X145941243Y-113282754D01*
X145941241Y-113282753D01*
X145941240Y-113282753D01*
X145779957Y-113257208D01*
X145731287Y-113249500D01*
X145268713Y-113249500D01*
X145220042Y-113257208D01*
X145058760Y-113282753D01*
X144856585Y-113348444D01*
X144667179Y-113444951D01*
X144495213Y-113569890D01*
X144344890Y-113720213D01*
X144219951Y-113892179D01*
X144123444Y-114081585D01*
X144057753Y-114283760D01*
X144024500Y-114493713D01*
X143300500Y-114493713D01*
X143300500Y-101893713D01*
X144024500Y-101893713D01*
X144024500Y-102106286D01*
X144057753Y-102316239D01*
X144057753Y-102316241D01*
X144057754Y-102316243D01*
X144119503Y-102506287D01*
X144123444Y-102518414D01*
X144219951Y-102707820D01*
X144344890Y-102879786D01*
X144495209Y-103030105D01*
X144495214Y-103030109D01*
X144659793Y-103149682D01*
X144702459Y-103205011D01*
X144708438Y-103274625D01*
X144675833Y-103336420D01*
X144659793Y-103350318D01*
X144495214Y-103469890D01*
X144495209Y-103469894D01*
X144344890Y-103620213D01*
X144219951Y-103792179D01*
X144123444Y-103981585D01*
X144123443Y-103981587D01*
X144123443Y-103981588D01*
X144120513Y-103990605D01*
X144057753Y-104183760D01*
X144042693Y-104278846D01*
X144024500Y-104393713D01*
X144024500Y-104606287D01*
X144028750Y-104633119D01*
X144054185Y-104793713D01*
X144057754Y-104816243D01*
X144119503Y-105006287D01*
X144123444Y-105018414D01*
X144219951Y-105207820D01*
X144344890Y-105379786D01*
X144495209Y-105530105D01*
X144495214Y-105530109D01*
X144659793Y-105649682D01*
X144702459Y-105705011D01*
X144708438Y-105774625D01*
X144675833Y-105836420D01*
X144659793Y-105850318D01*
X144495214Y-105969890D01*
X144495209Y-105969894D01*
X144344890Y-106120213D01*
X144219951Y-106292179D01*
X144123444Y-106481585D01*
X144057753Y-106683760D01*
X144024500Y-106893713D01*
X144024500Y-107106286D01*
X144044019Y-107229528D01*
X144057754Y-107316243D01*
X144120244Y-107508568D01*
X144123444Y-107518414D01*
X144219951Y-107707820D01*
X144344890Y-107879786D01*
X144495209Y-108030105D01*
X144495214Y-108030109D01*
X144659793Y-108149682D01*
X144702459Y-108205011D01*
X144708438Y-108274625D01*
X144675833Y-108336420D01*
X144659793Y-108350318D01*
X144495214Y-108469890D01*
X144495209Y-108469894D01*
X144344890Y-108620213D01*
X144219951Y-108792179D01*
X144123444Y-108981585D01*
X144057753Y-109183760D01*
X144024500Y-109393713D01*
X144024500Y-109606287D01*
X144057754Y-109816243D01*
X144114869Y-109992025D01*
X144123444Y-110018414D01*
X144219951Y-110207820D01*
X144344890Y-110379786D01*
X144495213Y-110530109D01*
X144667179Y-110655048D01*
X144667181Y-110655049D01*
X144667184Y-110655051D01*
X144856588Y-110751557D01*
X145058757Y-110817246D01*
X145268713Y-110850500D01*
X145268714Y-110850500D01*
X145731286Y-110850500D01*
X145731287Y-110850500D01*
X145941243Y-110817246D01*
X146143412Y-110751557D01*
X146332816Y-110655051D01*
X146354789Y-110639086D01*
X146504786Y-110530109D01*
X146504788Y-110530106D01*
X146504792Y-110530104D01*
X146655104Y-110379792D01*
X146655106Y-110379788D01*
X146655109Y-110379786D01*
X146780048Y-110207820D01*
X146780047Y-110207820D01*
X146780051Y-110207816D01*
X146876557Y-110018412D01*
X146942246Y-109816243D01*
X146975500Y-109606287D01*
X146975500Y-109393713D01*
X146942246Y-109183757D01*
X146876557Y-108981588D01*
X146780051Y-108792184D01*
X146767574Y-108775010D01*
X146685269Y-108661726D01*
X146685268Y-108661725D01*
X146655107Y-108620211D01*
X146628609Y-108593713D01*
X159899500Y-108593713D01*
X159899500Y-108806286D01*
X159927264Y-108981585D01*
X159932754Y-109016243D01*
X159998443Y-109218412D01*
X160094949Y-109407816D01*
X160219896Y-109579791D01*
X160219898Y-109579793D01*
X164016770Y-113376665D01*
X164016784Y-113376680D01*
X164019895Y-113379791D01*
X164019896Y-113379792D01*
X164170208Y-113530104D01*
X164170211Y-113530106D01*
X164170215Y-113530110D01*
X164342179Y-113655048D01*
X164342181Y-113655049D01*
X164342184Y-113655051D01*
X164531588Y-113751557D01*
X164666547Y-113795408D01*
X164733757Y-113817246D01*
X164943714Y-113850501D01*
X164943715Y-113850501D01*
X165161398Y-113850501D01*
X165161422Y-113850500D01*
X166431669Y-113850500D01*
X166498708Y-113870185D01*
X166544463Y-113922989D01*
X166554407Y-113992147D01*
X166531987Y-114047385D01*
X166444951Y-114167180D01*
X166348444Y-114356585D01*
X166282753Y-114558760D01*
X166249500Y-114768713D01*
X166249500Y-115231286D01*
X166273305Y-115381588D01*
X166282754Y-115441243D01*
X166344119Y-115630105D01*
X166348444Y-115643414D01*
X166444951Y-115832820D01*
X166569890Y-116004786D01*
X166720213Y-116155109D01*
X166892179Y-116280048D01*
X166892181Y-116280049D01*
X166892184Y-116280051D01*
X167081588Y-116376557D01*
X167283757Y-116442246D01*
X167493713Y-116475500D01*
X167493714Y-116475500D01*
X167706286Y-116475500D01*
X167706287Y-116475500D01*
X167916243Y-116442246D01*
X168118412Y-116376557D01*
X168307816Y-116280051D01*
X168390177Y-116220213D01*
X168479786Y-116155109D01*
X168479788Y-116155106D01*
X168479792Y-116155104D01*
X168630104Y-116004792D01*
X168749683Y-115840204D01*
X168805011Y-115797540D01*
X168874624Y-115791561D01*
X168936420Y-115824166D01*
X168950313Y-115840199D01*
X169069892Y-116004786D01*
X169069896Y-116004792D01*
X169220213Y-116155109D01*
X169392179Y-116280048D01*
X169392181Y-116280049D01*
X169392184Y-116280051D01*
X169581588Y-116376557D01*
X169783757Y-116442246D01*
X169993713Y-116475500D01*
X169993714Y-116475500D01*
X170206286Y-116475500D01*
X170206287Y-116475500D01*
X170416243Y-116442246D01*
X170618412Y-116376557D01*
X170807816Y-116280051D01*
X170890177Y-116220213D01*
X170979786Y-116155109D01*
X170979788Y-116155106D01*
X170979792Y-116155104D01*
X171130104Y-116004792D01*
X171249683Y-115840204D01*
X171305011Y-115797540D01*
X171374624Y-115791561D01*
X171436420Y-115824166D01*
X171450313Y-115840199D01*
X171569892Y-116004786D01*
X171569896Y-116004792D01*
X171720213Y-116155109D01*
X171892179Y-116280048D01*
X171892181Y-116280049D01*
X171892184Y-116280051D01*
X172081588Y-116376557D01*
X172283757Y-116442246D01*
X172493713Y-116475500D01*
X172493714Y-116475500D01*
X172706286Y-116475500D01*
X172706287Y-116475500D01*
X172916243Y-116442246D01*
X173118412Y-116376557D01*
X173307816Y-116280051D01*
X173390177Y-116220213D01*
X173479786Y-116155109D01*
X173479788Y-116155106D01*
X173479792Y-116155104D01*
X173630104Y-116004792D01*
X173749683Y-115840204D01*
X173805011Y-115797540D01*
X173874624Y-115791561D01*
X173936420Y-115824166D01*
X173950313Y-115840199D01*
X174069892Y-116004786D01*
X174069896Y-116004792D01*
X174220213Y-116155109D01*
X174392179Y-116280048D01*
X174392181Y-116280049D01*
X174392184Y-116280051D01*
X174581588Y-116376557D01*
X174783757Y-116442246D01*
X174993713Y-116475500D01*
X174993714Y-116475500D01*
X175206286Y-116475500D01*
X175206287Y-116475500D01*
X175416243Y-116442246D01*
X175618412Y-116376557D01*
X175807816Y-116280051D01*
X175890177Y-116220213D01*
X175979786Y-116155109D01*
X175979788Y-116155106D01*
X175979792Y-116155104D01*
X176130104Y-116004792D01*
X176130106Y-116004788D01*
X176130109Y-116004786D01*
X176255048Y-115832820D01*
X176255047Y-115832820D01*
X176255051Y-115832816D01*
X176351557Y-115643412D01*
X176417246Y-115441243D01*
X176450500Y-115231287D01*
X176450500Y-114768713D01*
X176417246Y-114558757D01*
X176351557Y-114356588D01*
X176255051Y-114167184D01*
X176255049Y-114167181D01*
X176255048Y-114167179D01*
X176130109Y-113995213D01*
X175979786Y-113844890D01*
X175807818Y-113719950D01*
X175618414Y-113623444D01*
X175618413Y-113623443D01*
X175618412Y-113623443D01*
X175416243Y-113557754D01*
X175416241Y-113557753D01*
X175416240Y-113557753D01*
X175241669Y-113530104D01*
X175206287Y-113524500D01*
X174993713Y-113524500D01*
X174958331Y-113530104D01*
X174783760Y-113557753D01*
X174581585Y-113623444D01*
X174392182Y-113719950D01*
X174220215Y-113844889D01*
X174137520Y-113927584D01*
X174131135Y-113931070D01*
X174126945Y-113937013D01*
X174100883Y-113947588D01*
X174076196Y-113961068D01*
X174068942Y-113960549D01*
X174062203Y-113963284D01*
X174034561Y-113958090D01*
X174006505Y-113956084D01*
X174000682Y-113951725D01*
X173993534Y-113950382D01*
X173973088Y-113931068D01*
X173950571Y-113914212D01*
X173946782Y-113906218D01*
X173942743Y-113902403D01*
X173935955Y-113883378D01*
X173929472Y-113869699D01*
X173928197Y-113864550D01*
X173917246Y-113795408D01*
X173892728Y-113719949D01*
X173851557Y-113593239D01*
X173851555Y-113593236D01*
X173851555Y-113593234D01*
X173807252Y-113506286D01*
X173755051Y-113403835D01*
X173735311Y-113376665D01*
X173724458Y-113361726D01*
X173675044Y-113293713D01*
X179474500Y-113293713D01*
X179474500Y-113506287D01*
X179482652Y-113557754D01*
X179498061Y-113655048D01*
X179507754Y-113716243D01*
X179572078Y-113914212D01*
X179573444Y-113918414D01*
X179669951Y-114107820D01*
X179794890Y-114279786D01*
X179945209Y-114430105D01*
X179945214Y-114430109D01*
X180109793Y-114549682D01*
X180152459Y-114605011D01*
X180158438Y-114674625D01*
X180125833Y-114736420D01*
X180109793Y-114750318D01*
X179945214Y-114869890D01*
X179945209Y-114869894D01*
X179794890Y-115020213D01*
X179669951Y-115192179D01*
X179573444Y-115381585D01*
X179507753Y-115583760D01*
X179479273Y-115763580D01*
X179474500Y-115793713D01*
X179474500Y-116006287D01*
X179507754Y-116216243D01*
X179564919Y-116392179D01*
X179573444Y-116418414D01*
X179669951Y-116607820D01*
X179794890Y-116779786D01*
X179945213Y-116930109D01*
X180117179Y-117055048D01*
X180117181Y-117055049D01*
X180117184Y-117055051D01*
X180306588Y-117151557D01*
X180508757Y-117217246D01*
X180718713Y-117250500D01*
X180718714Y-117250500D01*
X181231286Y-117250500D01*
X181231287Y-117250500D01*
X181441243Y-117217246D01*
X181643412Y-117151557D01*
X181832816Y-117055051D01*
X181917241Y-116993713D01*
X182004786Y-116930109D01*
X182004788Y-116930106D01*
X182004792Y-116930104D01*
X182155104Y-116779792D01*
X182155106Y-116779788D01*
X182155109Y-116779786D01*
X182280048Y-116607820D01*
X182280047Y-116607820D01*
X182280051Y-116607816D01*
X182376557Y-116418412D01*
X182442246Y-116216243D01*
X182475500Y-116006287D01*
X182475500Y-115793713D01*
X182442246Y-115583757D01*
X182376557Y-115381588D01*
X182280051Y-115192184D01*
X182280049Y-115192181D01*
X182280048Y-115192179D01*
X182155109Y-115020213D01*
X182004792Y-114869896D01*
X182004784Y-114869890D01*
X181840204Y-114750316D01*
X181797540Y-114694989D01*
X181791561Y-114625376D01*
X181824166Y-114563580D01*
X181840199Y-114549686D01*
X182004792Y-114430104D01*
X182155104Y-114279792D01*
X182155106Y-114279788D01*
X182155109Y-114279786D01*
X182280048Y-114107820D01*
X182280047Y-114107820D01*
X182280051Y-114107816D01*
X182376557Y-113918412D01*
X182442246Y-113716243D01*
X182475500Y-113506287D01*
X182475500Y-113293713D01*
X185399500Y-113293713D01*
X185399500Y-113506287D01*
X185407652Y-113557754D01*
X185423061Y-113655048D01*
X185432754Y-113716243D01*
X185497078Y-113914212D01*
X185498444Y-113918414D01*
X185594951Y-114107820D01*
X185719890Y-114279786D01*
X185870209Y-114430105D01*
X185870214Y-114430109D01*
X186034793Y-114549682D01*
X186077459Y-114605011D01*
X186083438Y-114674625D01*
X186050833Y-114736420D01*
X186034793Y-114750318D01*
X185870214Y-114869890D01*
X185870209Y-114869894D01*
X185719890Y-115020213D01*
X185594951Y-115192179D01*
X185498444Y-115381585D01*
X185432753Y-115583760D01*
X185404273Y-115763580D01*
X185399500Y-115793713D01*
X185399500Y-116006287D01*
X185432754Y-116216243D01*
X185489919Y-116392179D01*
X185498444Y-116418414D01*
X185594951Y-116607820D01*
X185719890Y-116779786D01*
X185870213Y-116930109D01*
X186042179Y-117055048D01*
X186042181Y-117055049D01*
X186042184Y-117055051D01*
X186231588Y-117151557D01*
X186433757Y-117217246D01*
X186643713Y-117250500D01*
X186643714Y-117250500D01*
X187156286Y-117250500D01*
X187156287Y-117250500D01*
X187366243Y-117217246D01*
X187568412Y-117151557D01*
X187757816Y-117055051D01*
X187842241Y-116993713D01*
X187929786Y-116930109D01*
X187929788Y-116930106D01*
X187929792Y-116930104D01*
X188080104Y-116779792D01*
X188080106Y-116779788D01*
X188080109Y-116779786D01*
X188205048Y-116607820D01*
X188205047Y-116607820D01*
X188205051Y-116607816D01*
X188301557Y-116418412D01*
X188367246Y-116216243D01*
X188400500Y-116006287D01*
X188400500Y-115793713D01*
X188367246Y-115583757D01*
X188301557Y-115381588D01*
X188205051Y-115192184D01*
X188205049Y-115192181D01*
X188205048Y-115192179D01*
X188080109Y-115020213D01*
X187929792Y-114869896D01*
X187929784Y-114869890D01*
X187765204Y-114750316D01*
X187722540Y-114694989D01*
X187716561Y-114625376D01*
X187749166Y-114563580D01*
X187765199Y-114549686D01*
X187929792Y-114430104D01*
X188080104Y-114279792D01*
X188080106Y-114279788D01*
X188080109Y-114279786D01*
X188205048Y-114107820D01*
X188205047Y-114107820D01*
X188205051Y-114107816D01*
X188301557Y-113918412D01*
X188367246Y-113716243D01*
X188400500Y-113506287D01*
X188400500Y-113293713D01*
X188367246Y-113083757D01*
X188301557Y-112881588D01*
X188205051Y-112692184D01*
X188205049Y-112692181D01*
X188205048Y-112692179D01*
X188080109Y-112520213D01*
X187929786Y-112369890D01*
X187757820Y-112244951D01*
X187568414Y-112148444D01*
X187568413Y-112148443D01*
X187568412Y-112148443D01*
X187366243Y-112082754D01*
X187366241Y-112082753D01*
X187366240Y-112082753D01*
X187204957Y-112057208D01*
X187156287Y-112049500D01*
X186643713Y-112049500D01*
X186595042Y-112057208D01*
X186433760Y-112082753D01*
X186231585Y-112148444D01*
X186042179Y-112244951D01*
X185870213Y-112369890D01*
X185719890Y-112520213D01*
X185594951Y-112692179D01*
X185498444Y-112881585D01*
X185432753Y-113083760D01*
X185409297Y-113231859D01*
X185399500Y-113293713D01*
X182475500Y-113293713D01*
X182442246Y-113083757D01*
X182376557Y-112881588D01*
X182280051Y-112692184D01*
X182280049Y-112692181D01*
X182280048Y-112692179D01*
X182155109Y-112520213D01*
X182004786Y-112369890D01*
X181832820Y-112244951D01*
X181643414Y-112148444D01*
X181643413Y-112148443D01*
X181643412Y-112148443D01*
X181441243Y-112082754D01*
X181441241Y-112082753D01*
X181441240Y-112082753D01*
X181279957Y-112057208D01*
X181231287Y-112049500D01*
X180718713Y-112049500D01*
X180670042Y-112057208D01*
X180508760Y-112082753D01*
X180306585Y-112148444D01*
X180117179Y-112244951D01*
X179945213Y-112369890D01*
X179794890Y-112520213D01*
X179669951Y-112692179D01*
X179573444Y-112881585D01*
X179507753Y-113083760D01*
X179484297Y-113231859D01*
X179474500Y-113293713D01*
X173675044Y-113293713D01*
X173630110Y-113231866D01*
X173630106Y-113231862D01*
X173630104Y-113231859D01*
X173479792Y-113081547D01*
X173479791Y-113081546D01*
X173476680Y-113078435D01*
X173476665Y-113078421D01*
X171091957Y-110693713D01*
X194199500Y-110693713D01*
X194199500Y-110906287D01*
X194232754Y-111116243D01*
X194243457Y-111149184D01*
X194298444Y-111318414D01*
X194394951Y-111507820D01*
X194519890Y-111679786D01*
X194670209Y-111830105D01*
X194670214Y-111830109D01*
X194834793Y-111949682D01*
X194877459Y-112005011D01*
X194883438Y-112074625D01*
X194850833Y-112136420D01*
X194834793Y-112150318D01*
X194670214Y-112269890D01*
X194670209Y-112269894D01*
X194519890Y-112420213D01*
X194394951Y-112592179D01*
X194298444Y-112781585D01*
X194232753Y-112983760D01*
X194199500Y-113193713D01*
X194199500Y-113406286D01*
X194229109Y-113593234D01*
X194232754Y-113616243D01*
X194276720Y-113751557D01*
X194298444Y-113818414D01*
X194394951Y-114007820D01*
X194519890Y-114179786D01*
X194670213Y-114330109D01*
X194842179Y-114455048D01*
X194842181Y-114455049D01*
X194842184Y-114455051D01*
X195031588Y-114551557D01*
X195233757Y-114617246D01*
X195443713Y-114650500D01*
X195443714Y-114650500D01*
X195956286Y-114650500D01*
X195956287Y-114650500D01*
X196166243Y-114617246D01*
X196368412Y-114551557D01*
X196557816Y-114455051D01*
X196592146Y-114430109D01*
X196729786Y-114330109D01*
X196729788Y-114330106D01*
X196729792Y-114330104D01*
X196880104Y-114179792D01*
X196880106Y-114179788D01*
X196880109Y-114179786D01*
X197005048Y-114007820D01*
X197005047Y-114007820D01*
X197005051Y-114007816D01*
X197101557Y-113818412D01*
X197167246Y-113616243D01*
X197200500Y-113406287D01*
X197200500Y-113193713D01*
X197167246Y-112983757D01*
X197101557Y-112781588D01*
X197005051Y-112592184D01*
X197005049Y-112592181D01*
X197005048Y-112592179D01*
X196880109Y-112420213D01*
X196729792Y-112269896D01*
X196695455Y-112244949D01*
X196565204Y-112150316D01*
X196522540Y-112094989D01*
X196516561Y-112025376D01*
X196549166Y-111963580D01*
X196565199Y-111949686D01*
X196729792Y-111830104D01*
X196880104Y-111679792D01*
X196880106Y-111679788D01*
X196880109Y-111679786D01*
X197005048Y-111507820D01*
X197005047Y-111507820D01*
X197005051Y-111507816D01*
X197101557Y-111318412D01*
X197167246Y-111116243D01*
X197200500Y-110906287D01*
X197200500Y-110693713D01*
X197167246Y-110483757D01*
X197101557Y-110281588D01*
X197005051Y-110092184D01*
X197005049Y-110092181D01*
X197005048Y-110092179D01*
X196880109Y-109920213D01*
X196729786Y-109769890D01*
X196557820Y-109644951D01*
X196368414Y-109548444D01*
X196368413Y-109548443D01*
X196368412Y-109548443D01*
X196166243Y-109482754D01*
X196166241Y-109482753D01*
X196166240Y-109482753D01*
X196004957Y-109457208D01*
X195956287Y-109449500D01*
X195443713Y-109449500D01*
X195395042Y-109457208D01*
X195233760Y-109482753D01*
X195031585Y-109548444D01*
X194842179Y-109644951D01*
X194670213Y-109769890D01*
X194519890Y-109920213D01*
X194394951Y-110092179D01*
X194298444Y-110281585D01*
X194232753Y-110483760D01*
X194199500Y-110693713D01*
X171091957Y-110693713D01*
X170551063Y-110152819D01*
X170517578Y-110091496D01*
X170522562Y-110021804D01*
X170564434Y-109965871D01*
X170600421Y-109947209D01*
X170718374Y-109908884D01*
X170893754Y-109819524D01*
X171052995Y-109703828D01*
X171192177Y-109564646D01*
X171307873Y-109405405D01*
X171397233Y-109230025D01*
X171458058Y-109042826D01*
X171487603Y-108856286D01*
X171488849Y-108848422D01*
X171488849Y-108651577D01*
X171458058Y-108457173D01*
X171429836Y-108370317D01*
X171397233Y-108269975D01*
X171397231Y-108269972D01*
X171397231Y-108269970D01*
X171335941Y-108149682D01*
X171307873Y-108094595D01*
X171192177Y-107935354D01*
X171052995Y-107796172D01*
X170893754Y-107680476D01*
X170718378Y-107591117D01*
X170531175Y-107530290D01*
X170336771Y-107499500D01*
X170336766Y-107499500D01*
X170139932Y-107499500D01*
X170139927Y-107499500D01*
X169945522Y-107530290D01*
X169758319Y-107591117D01*
X169582943Y-107680476D01*
X169492090Y-107746485D01*
X169423703Y-107796172D01*
X169423701Y-107796174D01*
X169423700Y-107796174D01*
X169284523Y-107935351D01*
X169284523Y-107935352D01*
X169284521Y-107935354D01*
X169243232Y-107992183D01*
X169168825Y-108094594D01*
X169079466Y-108269970D01*
X169041141Y-108387923D01*
X169001703Y-108445598D01*
X168937344Y-108472796D01*
X168868498Y-108460881D01*
X168835529Y-108437285D01*
X168118142Y-107719898D01*
X168118140Y-107719896D01*
X167946165Y-107594949D01*
X167774956Y-107507714D01*
X167756763Y-107498444D01*
X167756762Y-107498443D01*
X167756761Y-107498443D01*
X167554592Y-107432754D01*
X167554590Y-107432753D01*
X167554589Y-107432753D01*
X167393306Y-107407208D01*
X167344636Y-107399500D01*
X167132062Y-107399500D01*
X167083391Y-107407208D01*
X166922109Y-107432753D01*
X166719934Y-107498444D01*
X166530532Y-107594949D01*
X166358555Y-107719898D01*
X166208247Y-107870206D01*
X166083298Y-108042183D01*
X165986793Y-108231585D01*
X165921102Y-108433760D01*
X165887849Y-108643713D01*
X165887849Y-108856286D01*
X165913183Y-109016243D01*
X165921103Y-109066243D01*
X165986792Y-109268412D01*
X166083298Y-109457816D01*
X166208245Y-109629791D01*
X166208247Y-109629793D01*
X167516273Y-110937819D01*
X167549758Y-110999142D01*
X167544774Y-111068834D01*
X167502902Y-111124767D01*
X167437438Y-111149184D01*
X167428592Y-111149500D01*
X165660757Y-111149500D01*
X165593718Y-111129815D01*
X165573076Y-111113181D01*
X164597595Y-110137700D01*
X164564110Y-110076377D01*
X164569094Y-110006685D01*
X164610966Y-109950752D01*
X164646954Y-109932089D01*
X164718374Y-109908884D01*
X164893754Y-109819524D01*
X165052995Y-109703828D01*
X165192177Y-109564646D01*
X165307873Y-109405405D01*
X165397233Y-109230025D01*
X165458058Y-109042826D01*
X165487603Y-108856286D01*
X165488849Y-108848422D01*
X165488849Y-108651577D01*
X165458058Y-108457173D01*
X165429836Y-108370317D01*
X165397233Y-108269975D01*
X165397231Y-108269972D01*
X165397231Y-108269970D01*
X165335941Y-108149682D01*
X165307873Y-108094595D01*
X165192177Y-107935354D01*
X165052995Y-107796172D01*
X164893754Y-107680476D01*
X164718378Y-107591117D01*
X164531175Y-107530290D01*
X164336771Y-107499500D01*
X164336766Y-107499500D01*
X164139932Y-107499500D01*
X164139927Y-107499500D01*
X163945522Y-107530290D01*
X163758319Y-107591117D01*
X163582943Y-107680476D01*
X163492090Y-107746485D01*
X163423703Y-107796172D01*
X163423701Y-107796174D01*
X163423700Y-107796174D01*
X163284523Y-107935351D01*
X163284523Y-107935352D01*
X163284521Y-107935354D01*
X163243232Y-107992183D01*
X163168825Y-108094594D01*
X163079464Y-108269974D01*
X163056259Y-108341392D01*
X163016821Y-108399067D01*
X162952462Y-108426264D01*
X162883616Y-108414349D01*
X162850648Y-108390753D01*
X162129793Y-107669898D01*
X162129791Y-107669896D01*
X161957816Y-107544949D01*
X161768412Y-107448443D01*
X161566243Y-107382754D01*
X161566241Y-107382753D01*
X161566240Y-107382753D01*
X161404957Y-107357208D01*
X161356287Y-107349500D01*
X161143713Y-107349500D01*
X161095042Y-107357208D01*
X160933760Y-107382753D01*
X160731585Y-107448444D01*
X160542183Y-107544949D01*
X160370206Y-107669898D01*
X160219898Y-107820206D01*
X160094949Y-107992183D01*
X159998444Y-108181585D01*
X159932753Y-108383760D01*
X159899500Y-108593713D01*
X146628609Y-108593713D01*
X146504792Y-108469896D01*
X146492384Y-108460881D01*
X146340204Y-108350316D01*
X146297540Y-108294989D01*
X146291561Y-108225376D01*
X146324166Y-108163580D01*
X146340199Y-108149686D01*
X146504792Y-108030104D01*
X146655104Y-107879792D01*
X146655106Y-107879788D01*
X146655109Y-107879786D01*
X146780048Y-107707820D01*
X146780047Y-107707820D01*
X146780051Y-107707816D01*
X146876557Y-107518412D01*
X146942246Y-107316243D01*
X146975500Y-107106287D01*
X146975500Y-107021153D01*
X151099500Y-107021153D01*
X151099500Y-107178846D01*
X151130261Y-107333489D01*
X151130264Y-107333501D01*
X151190602Y-107479172D01*
X151190609Y-107479185D01*
X151278210Y-107610288D01*
X151278213Y-107610292D01*
X151389707Y-107721786D01*
X151389711Y-107721789D01*
X151520814Y-107809390D01*
X151520827Y-107809397D01*
X151666498Y-107869735D01*
X151666503Y-107869737D01*
X151821153Y-107900499D01*
X151821156Y-107900500D01*
X151821158Y-107900500D01*
X151978844Y-107900500D01*
X151978845Y-107900499D01*
X152133497Y-107869737D01*
X152279179Y-107809394D01*
X152331110Y-107774694D01*
X152397785Y-107753816D01*
X152465165Y-107772300D01*
X152468863Y-107774676D01*
X152520821Y-107809394D01*
X152520823Y-107809395D01*
X152520825Y-107809396D01*
X152666498Y-107869735D01*
X152666503Y-107869737D01*
X152821153Y-107900499D01*
X152821156Y-107900500D01*
X152821158Y-107900500D01*
X152978844Y-107900500D01*
X152978845Y-107900499D01*
X153133497Y-107869737D01*
X153279179Y-107809394D01*
X153410289Y-107721789D01*
X153521789Y-107610289D01*
X153609394Y-107479179D01*
X153669737Y-107333497D01*
X153683079Y-107266416D01*
X153715463Y-107204509D01*
X153716959Y-107202985D01*
X155268367Y-105651577D01*
X159987849Y-105651577D01*
X159987849Y-105848422D01*
X160018639Y-106042826D01*
X160079466Y-106230029D01*
X160161286Y-106390609D01*
X160168825Y-106405405D01*
X160284521Y-106564646D01*
X160423703Y-106703828D01*
X160582944Y-106819524D01*
X160665804Y-106861743D01*
X160758319Y-106908882D01*
X160758321Y-106908882D01*
X160758324Y-106908884D01*
X160829083Y-106931875D01*
X160945522Y-106969709D01*
X161139927Y-107000500D01*
X161139932Y-107000500D01*
X161336771Y-107000500D01*
X161531175Y-106969709D01*
X161563878Y-106959083D01*
X161718374Y-106908884D01*
X161893754Y-106819524D01*
X162052995Y-106703828D01*
X162192177Y-106564646D01*
X162307873Y-106405405D01*
X162397233Y-106230025D01*
X162458058Y-106042826D01*
X162469610Y-105969890D01*
X162488849Y-105848422D01*
X162488849Y-105651577D01*
X162987849Y-105651577D01*
X162987849Y-105848422D01*
X163018639Y-106042826D01*
X163079466Y-106230029D01*
X163161286Y-106390609D01*
X163168825Y-106405405D01*
X163284521Y-106564646D01*
X163423703Y-106703828D01*
X163582944Y-106819524D01*
X163665804Y-106861743D01*
X163758319Y-106908882D01*
X163758321Y-106908882D01*
X163758324Y-106908884D01*
X163829083Y-106931875D01*
X163945522Y-106969709D01*
X164139927Y-107000500D01*
X164139932Y-107000500D01*
X164336771Y-107000500D01*
X164531175Y-106969709D01*
X164563878Y-106959083D01*
X164718374Y-106908884D01*
X164893754Y-106819524D01*
X165052995Y-106703828D01*
X165192177Y-106564646D01*
X165307873Y-106405405D01*
X165397233Y-106230025D01*
X165458058Y-106042826D01*
X165469610Y-105969890D01*
X165488849Y-105848422D01*
X165488849Y-105651577D01*
X165987849Y-105651577D01*
X165987849Y-105848422D01*
X166018639Y-106042826D01*
X166079466Y-106230029D01*
X166161286Y-106390609D01*
X166168825Y-106405405D01*
X166284521Y-106564646D01*
X166423703Y-106703828D01*
X166582944Y-106819524D01*
X166665804Y-106861743D01*
X166758319Y-106908882D01*
X166758321Y-106908882D01*
X166758324Y-106908884D01*
X166829083Y-106931875D01*
X166945522Y-106969709D01*
X167139927Y-107000500D01*
X167139932Y-107000500D01*
X167336771Y-107000500D01*
X167531175Y-106969709D01*
X167563878Y-106959083D01*
X167718374Y-106908884D01*
X167893754Y-106819524D01*
X168052995Y-106703828D01*
X168192177Y-106564646D01*
X168307873Y-106405405D01*
X168397233Y-106230025D01*
X168458058Y-106042826D01*
X168469610Y-105969890D01*
X168488849Y-105848422D01*
X168488849Y-105651577D01*
X168987849Y-105651577D01*
X168987849Y-105848422D01*
X169018639Y-106042826D01*
X169079466Y-106230029D01*
X169161286Y-106390609D01*
X169168825Y-106405405D01*
X169284521Y-106564646D01*
X169423703Y-106703828D01*
X169582944Y-106819524D01*
X169665804Y-106861743D01*
X169758319Y-106908882D01*
X169758321Y-106908882D01*
X169758324Y-106908884D01*
X169829083Y-106931875D01*
X169945522Y-106969709D01*
X170139927Y-107000500D01*
X170139932Y-107000500D01*
X170336771Y-107000500D01*
X170531175Y-106969709D01*
X170563878Y-106959083D01*
X170718374Y-106908884D01*
X170893754Y-106819524D01*
X171052995Y-106703828D01*
X171192177Y-106564646D01*
X171307873Y-106405405D01*
X171397233Y-106230025D01*
X171458058Y-106042826D01*
X171469610Y-105969890D01*
X171488849Y-105848422D01*
X171488849Y-105651577D01*
X171987849Y-105651577D01*
X171987849Y-105848422D01*
X172018639Y-106042826D01*
X172079466Y-106230029D01*
X172161286Y-106390609D01*
X172168825Y-106405405D01*
X172284521Y-106564646D01*
X172423703Y-106703828D01*
X172582944Y-106819524D01*
X172665804Y-106861743D01*
X172758319Y-106908882D01*
X172758321Y-106908882D01*
X172758324Y-106908884D01*
X172829083Y-106931875D01*
X172945522Y-106969709D01*
X173139927Y-107000500D01*
X173139932Y-107000500D01*
X173336771Y-107000500D01*
X173531175Y-106969709D01*
X173548071Y-106964219D01*
X173686185Y-106919342D01*
X173714305Y-106918539D01*
X173742147Y-106914536D01*
X173748756Y-106917554D01*
X173756022Y-106917347D01*
X173780115Y-106931875D01*
X173805703Y-106943561D01*
X173809631Y-106949674D01*
X173815855Y-106953427D01*
X173828268Y-106978673D01*
X173843477Y-107002339D01*
X173844953Y-107012608D01*
X173846684Y-107016128D01*
X173848500Y-107037274D01*
X173848500Y-107168540D01*
X173828815Y-107235579D01*
X173812181Y-107256221D01*
X173581838Y-107486563D01*
X173520515Y-107520048D01*
X173474759Y-107521355D01*
X173336771Y-107499500D01*
X173336766Y-107499500D01*
X173139932Y-107499500D01*
X173139927Y-107499500D01*
X172945522Y-107530290D01*
X172758319Y-107591117D01*
X172582943Y-107680476D01*
X172492090Y-107746485D01*
X172423703Y-107796172D01*
X172423701Y-107796174D01*
X172423700Y-107796174D01*
X172284523Y-107935351D01*
X172284523Y-107935352D01*
X172284521Y-107935354D01*
X172243232Y-107992183D01*
X172168825Y-108094594D01*
X172079466Y-108269970D01*
X172018639Y-108457173D01*
X171987849Y-108651577D01*
X171987849Y-108848422D01*
X172018639Y-109042826D01*
X172079466Y-109230029D01*
X172162868Y-109393713D01*
X172168825Y-109405405D01*
X172284521Y-109564646D01*
X172423703Y-109703828D01*
X172582944Y-109819524D01*
X172665804Y-109861743D01*
X172758319Y-109908882D01*
X172758321Y-109908882D01*
X172758324Y-109908884D01*
X172829738Y-109932088D01*
X172945522Y-109969709D01*
X173139927Y-110000500D01*
X173139932Y-110000500D01*
X173336771Y-110000500D01*
X173531175Y-109969709D01*
X173589518Y-109950752D01*
X173718374Y-109908884D01*
X173893754Y-109819524D01*
X174052995Y-109703828D01*
X174192177Y-109564646D01*
X174307873Y-109405405D01*
X174397233Y-109230025D01*
X174458058Y-109042826D01*
X174487603Y-108856286D01*
X174488849Y-108848422D01*
X174488849Y-108651577D01*
X174466993Y-108513587D01*
X174467694Y-108508161D01*
X174465782Y-108503035D01*
X174472123Y-108473884D01*
X174475947Y-108444294D01*
X174479779Y-108438688D01*
X174480634Y-108434762D01*
X174501781Y-108406512D01*
X174650670Y-108257623D01*
X174711990Y-108224141D01*
X174781682Y-108229125D01*
X174826029Y-108257626D01*
X174974912Y-108406509D01*
X175008397Y-108467832D01*
X175009704Y-108513588D01*
X174987849Y-108651577D01*
X174987849Y-108848422D01*
X175018639Y-109042826D01*
X175079466Y-109230029D01*
X175162868Y-109393713D01*
X175168825Y-109405405D01*
X175284521Y-109564646D01*
X175423703Y-109703828D01*
X175582944Y-109819524D01*
X175665804Y-109861743D01*
X175758319Y-109908882D01*
X175758321Y-109908882D01*
X175758324Y-109908884D01*
X175829738Y-109932088D01*
X175945522Y-109969709D01*
X176139927Y-110000500D01*
X176139932Y-110000500D01*
X176336771Y-110000500D01*
X176531175Y-109969709D01*
X176589518Y-109950752D01*
X176718374Y-109908884D01*
X176893754Y-109819524D01*
X177052995Y-109703828D01*
X177192177Y-109564646D01*
X177307873Y-109405405D01*
X177397233Y-109230025D01*
X177458058Y-109042826D01*
X177487603Y-108856286D01*
X177488849Y-108848422D01*
X177488849Y-108651577D01*
X177987849Y-108651577D01*
X177987849Y-108848422D01*
X178018639Y-109042826D01*
X178079466Y-109230029D01*
X178162868Y-109393713D01*
X178168825Y-109405405D01*
X178284521Y-109564646D01*
X178423703Y-109703828D01*
X178582944Y-109819524D01*
X178665804Y-109861743D01*
X178758319Y-109908882D01*
X178758321Y-109908882D01*
X178758324Y-109908884D01*
X178829738Y-109932088D01*
X178945522Y-109969709D01*
X179139927Y-110000500D01*
X179139932Y-110000500D01*
X179336771Y-110000500D01*
X179531175Y-109969709D01*
X179589518Y-109950752D01*
X179718374Y-109908884D01*
X179893754Y-109819524D01*
X180052995Y-109703828D01*
X180192177Y-109564646D01*
X180307873Y-109405405D01*
X180397233Y-109230025D01*
X180458058Y-109042826D01*
X180487603Y-108856286D01*
X180488849Y-108848422D01*
X180488849Y-108651577D01*
X180987849Y-108651577D01*
X180987849Y-108848422D01*
X181018639Y-109042826D01*
X181079466Y-109230029D01*
X181162868Y-109393713D01*
X181168825Y-109405405D01*
X181284521Y-109564646D01*
X181423703Y-109703828D01*
X181582944Y-109819524D01*
X181665804Y-109861743D01*
X181758319Y-109908882D01*
X181758321Y-109908882D01*
X181758324Y-109908884D01*
X181829738Y-109932088D01*
X181945522Y-109969709D01*
X182139927Y-110000500D01*
X182139932Y-110000500D01*
X182336771Y-110000500D01*
X182531175Y-109969709D01*
X182589518Y-109950752D01*
X182718374Y-109908884D01*
X182893754Y-109819524D01*
X183052995Y-109703828D01*
X183192177Y-109564646D01*
X183307873Y-109405405D01*
X183397233Y-109230025D01*
X183458058Y-109042826D01*
X183487603Y-108856286D01*
X183488849Y-108848422D01*
X183488849Y-108651577D01*
X183987849Y-108651577D01*
X183987849Y-108848422D01*
X184018639Y-109042826D01*
X184079466Y-109230029D01*
X184162868Y-109393713D01*
X184168825Y-109405405D01*
X184284521Y-109564646D01*
X184423703Y-109703828D01*
X184582944Y-109819524D01*
X184665804Y-109861743D01*
X184758319Y-109908882D01*
X184758321Y-109908882D01*
X184758324Y-109908884D01*
X184829738Y-109932088D01*
X184945522Y-109969709D01*
X185139927Y-110000500D01*
X185139932Y-110000500D01*
X185336771Y-110000500D01*
X185531175Y-109969709D01*
X185589518Y-109950752D01*
X185718374Y-109908884D01*
X185893754Y-109819524D01*
X186052995Y-109703828D01*
X186192177Y-109564646D01*
X186307873Y-109405405D01*
X186397233Y-109230025D01*
X186458058Y-109042826D01*
X186487603Y-108856286D01*
X186488849Y-108848422D01*
X186488849Y-108651577D01*
X186987849Y-108651577D01*
X186987849Y-108848422D01*
X187018639Y-109042826D01*
X187079466Y-109230029D01*
X187162868Y-109393713D01*
X187168825Y-109405405D01*
X187284521Y-109564646D01*
X187423703Y-109703828D01*
X187582944Y-109819524D01*
X187665804Y-109861743D01*
X187758319Y-109908882D01*
X187758321Y-109908882D01*
X187758324Y-109908884D01*
X187829738Y-109932088D01*
X187945522Y-109969709D01*
X188139927Y-110000500D01*
X188139932Y-110000500D01*
X188336771Y-110000500D01*
X188531175Y-109969709D01*
X188589518Y-109950752D01*
X188718374Y-109908884D01*
X188893754Y-109819524D01*
X189052995Y-109703828D01*
X189192177Y-109564646D01*
X189307873Y-109405405D01*
X189397233Y-109230025D01*
X189458058Y-109042826D01*
X189487603Y-108856286D01*
X189488849Y-108848422D01*
X189488849Y-108651577D01*
X189458058Y-108457173D01*
X189429836Y-108370317D01*
X189397233Y-108269975D01*
X189397231Y-108269972D01*
X189397231Y-108269970D01*
X189335941Y-108149682D01*
X189307873Y-108094595D01*
X189192177Y-107935354D01*
X189052995Y-107796172D01*
X188893754Y-107680476D01*
X188718378Y-107591117D01*
X188531175Y-107530290D01*
X188336771Y-107499500D01*
X188336766Y-107499500D01*
X188139932Y-107499500D01*
X188139927Y-107499500D01*
X187945522Y-107530290D01*
X187758319Y-107591117D01*
X187582943Y-107680476D01*
X187492090Y-107746485D01*
X187423703Y-107796172D01*
X187423701Y-107796174D01*
X187423700Y-107796174D01*
X187284523Y-107935351D01*
X187284523Y-107935352D01*
X187284521Y-107935354D01*
X187243232Y-107992183D01*
X187168825Y-108094594D01*
X187079466Y-108269970D01*
X187018639Y-108457173D01*
X186987849Y-108651577D01*
X186488849Y-108651577D01*
X186458058Y-108457173D01*
X186429836Y-108370317D01*
X186397233Y-108269975D01*
X186397231Y-108269972D01*
X186397231Y-108269970D01*
X186335941Y-108149682D01*
X186307873Y-108094595D01*
X186192177Y-107935354D01*
X186052995Y-107796172D01*
X185893754Y-107680476D01*
X185718378Y-107591117D01*
X185531175Y-107530290D01*
X185336771Y-107499500D01*
X185336766Y-107499500D01*
X185139932Y-107499500D01*
X185139927Y-107499500D01*
X184945522Y-107530290D01*
X184758319Y-107591117D01*
X184582943Y-107680476D01*
X184492090Y-107746485D01*
X184423703Y-107796172D01*
X184423701Y-107796174D01*
X184423700Y-107796174D01*
X184284523Y-107935351D01*
X184284523Y-107935352D01*
X184284521Y-107935354D01*
X184243232Y-107992183D01*
X184168825Y-108094594D01*
X184079466Y-108269970D01*
X184018639Y-108457173D01*
X183987849Y-108651577D01*
X183488849Y-108651577D01*
X183458058Y-108457173D01*
X183429836Y-108370317D01*
X183397233Y-108269975D01*
X183397231Y-108269972D01*
X183397231Y-108269970D01*
X183335941Y-108149682D01*
X183307873Y-108094595D01*
X183192177Y-107935354D01*
X183052995Y-107796172D01*
X182893754Y-107680476D01*
X182718378Y-107591117D01*
X182531175Y-107530290D01*
X182336771Y-107499500D01*
X182336766Y-107499500D01*
X182139932Y-107499500D01*
X182139927Y-107499500D01*
X181945522Y-107530290D01*
X181758319Y-107591117D01*
X181582943Y-107680476D01*
X181492090Y-107746485D01*
X181423703Y-107796172D01*
X181423701Y-107796174D01*
X181423700Y-107796174D01*
X181284523Y-107935351D01*
X181284523Y-107935352D01*
X181284521Y-107935354D01*
X181243232Y-107992183D01*
X181168825Y-108094594D01*
X181079466Y-108269970D01*
X181018639Y-108457173D01*
X180987849Y-108651577D01*
X180488849Y-108651577D01*
X180458058Y-108457173D01*
X180429836Y-108370317D01*
X180397233Y-108269975D01*
X180397231Y-108269972D01*
X180397231Y-108269970D01*
X180335941Y-108149682D01*
X180307873Y-108094595D01*
X180192177Y-107935354D01*
X180052995Y-107796172D01*
X179893754Y-107680476D01*
X179718378Y-107591117D01*
X179531175Y-107530290D01*
X179336771Y-107499500D01*
X179336766Y-107499500D01*
X179139932Y-107499500D01*
X179139927Y-107499500D01*
X178945522Y-107530290D01*
X178758319Y-107591117D01*
X178582943Y-107680476D01*
X178492090Y-107746485D01*
X178423703Y-107796172D01*
X178423701Y-107796174D01*
X178423700Y-107796174D01*
X178284523Y-107935351D01*
X178284523Y-107935352D01*
X178284521Y-107935354D01*
X178243232Y-107992183D01*
X178168825Y-108094594D01*
X178079466Y-108269970D01*
X178018639Y-108457173D01*
X177987849Y-108651577D01*
X177488849Y-108651577D01*
X177458058Y-108457173D01*
X177429836Y-108370317D01*
X177397233Y-108269975D01*
X177397231Y-108269972D01*
X177397231Y-108269970D01*
X177335941Y-108149682D01*
X177307873Y-108094595D01*
X177192177Y-107935354D01*
X177052995Y-107796172D01*
X176893754Y-107680476D01*
X176718378Y-107591117D01*
X176531175Y-107530290D01*
X176336771Y-107499500D01*
X176336766Y-107499500D01*
X176139932Y-107499500D01*
X176139927Y-107499500D01*
X176001937Y-107521355D01*
X175996511Y-107520653D01*
X175991385Y-107522566D01*
X175962229Y-107516223D01*
X175932643Y-107512400D01*
X175927039Y-107508568D01*
X175923112Y-107507714D01*
X175894858Y-107486563D01*
X175786819Y-107378524D01*
X175753334Y-107317201D01*
X175750500Y-107290843D01*
X175750500Y-107077013D01*
X175770185Y-107009974D01*
X175822989Y-106964219D01*
X175892147Y-106954275D01*
X175912816Y-106959081D01*
X175945523Y-106969709D01*
X176023009Y-106981981D01*
X176139927Y-107000500D01*
X176139932Y-107000500D01*
X176336771Y-107000500D01*
X176531175Y-106969709D01*
X176563878Y-106959083D01*
X176718374Y-106908884D01*
X176893754Y-106819524D01*
X177052995Y-106703828D01*
X177192177Y-106564646D01*
X177307873Y-106405405D01*
X177397233Y-106230025D01*
X177458058Y-106042826D01*
X177469610Y-105969890D01*
X177488849Y-105848422D01*
X177488849Y-105651577D01*
X177987849Y-105651577D01*
X177987849Y-105848422D01*
X178018639Y-106042826D01*
X178079466Y-106230029D01*
X178161286Y-106390609D01*
X178168825Y-106405405D01*
X178284521Y-106564646D01*
X178423703Y-106703828D01*
X178582944Y-106819524D01*
X178665804Y-106861743D01*
X178758319Y-106908882D01*
X178758321Y-106908882D01*
X178758324Y-106908884D01*
X178829083Y-106931875D01*
X178945522Y-106969709D01*
X179139927Y-107000500D01*
X179139932Y-107000500D01*
X179336771Y-107000500D01*
X179531175Y-106969709D01*
X179563878Y-106959083D01*
X179718374Y-106908884D01*
X179893754Y-106819524D01*
X180052995Y-106703828D01*
X180192177Y-106564646D01*
X180307873Y-106405405D01*
X180397233Y-106230025D01*
X180458058Y-106042826D01*
X180469610Y-105969890D01*
X180488849Y-105848422D01*
X180488849Y-105651577D01*
X180987849Y-105651577D01*
X180987849Y-105848422D01*
X181018639Y-106042826D01*
X181079466Y-106230029D01*
X181161286Y-106390609D01*
X181168825Y-106405405D01*
X181284521Y-106564646D01*
X181423703Y-106703828D01*
X181582944Y-106819524D01*
X181665804Y-106861743D01*
X181758319Y-106908882D01*
X181758321Y-106908882D01*
X181758324Y-106908884D01*
X181829083Y-106931875D01*
X181945522Y-106969709D01*
X182139927Y-107000500D01*
X182139932Y-107000500D01*
X182336771Y-107000500D01*
X182531175Y-106969709D01*
X182563878Y-106959083D01*
X182718374Y-106908884D01*
X182893754Y-106819524D01*
X183052995Y-106703828D01*
X183192177Y-106564646D01*
X183307873Y-106405405D01*
X183397233Y-106230025D01*
X183458058Y-106042826D01*
X183469610Y-105969890D01*
X183488849Y-105848422D01*
X183488849Y-105651577D01*
X183987849Y-105651577D01*
X183987849Y-105848422D01*
X184018639Y-106042826D01*
X184079466Y-106230029D01*
X184161286Y-106390609D01*
X184168825Y-106405405D01*
X184284521Y-106564646D01*
X184423703Y-106703828D01*
X184582944Y-106819524D01*
X184665804Y-106861743D01*
X184758319Y-106908882D01*
X184758321Y-106908882D01*
X184758324Y-106908884D01*
X184829083Y-106931875D01*
X184945522Y-106969709D01*
X185139927Y-107000500D01*
X185139932Y-107000500D01*
X185336771Y-107000500D01*
X185531175Y-106969709D01*
X185563878Y-106959083D01*
X185718374Y-106908884D01*
X185893754Y-106819524D01*
X186052995Y-106703828D01*
X186192177Y-106564646D01*
X186307873Y-106405405D01*
X186397233Y-106230025D01*
X186458058Y-106042826D01*
X186469610Y-105969890D01*
X186488849Y-105848422D01*
X186488849Y-105651577D01*
X186987849Y-105651577D01*
X186987849Y-105848422D01*
X187018639Y-106042826D01*
X187079466Y-106230029D01*
X187161286Y-106390609D01*
X187168825Y-106405405D01*
X187284521Y-106564646D01*
X187423703Y-106703828D01*
X187582944Y-106819524D01*
X187665804Y-106861743D01*
X187758319Y-106908882D01*
X187758321Y-106908882D01*
X187758324Y-106908884D01*
X187829083Y-106931875D01*
X187945522Y-106969709D01*
X188139927Y-107000500D01*
X188139932Y-107000500D01*
X188336771Y-107000500D01*
X188531175Y-106969709D01*
X188563878Y-106959083D01*
X188718374Y-106908884D01*
X188893754Y-106819524D01*
X189052995Y-106703828D01*
X189192177Y-106564646D01*
X189307873Y-106405405D01*
X189397233Y-106230025D01*
X189458058Y-106042826D01*
X189469610Y-105969890D01*
X189488849Y-105848422D01*
X189488849Y-105651577D01*
X189458058Y-105457173D01*
X189397231Y-105269970D01*
X189307872Y-105094594D01*
X189262265Y-105031822D01*
X189192177Y-104935354D01*
X189052995Y-104796172D01*
X188968926Y-104735092D01*
X190477849Y-104735092D01*
X190477849Y-104884907D01*
X190507072Y-105031822D01*
X190507074Y-105031830D01*
X190564400Y-105170229D01*
X190564405Y-105170238D01*
X190647629Y-105294790D01*
X190647632Y-105294794D01*
X190753554Y-105400716D01*
X190753558Y-105400719D01*
X190878110Y-105483943D01*
X190878116Y-105483946D01*
X190878117Y-105483947D01*
X191016519Y-105541275D01*
X191163441Y-105570499D01*
X191163445Y-105570500D01*
X191163446Y-105570500D01*
X191313253Y-105570500D01*
X191313254Y-105570499D01*
X191460179Y-105541275D01*
X191598581Y-105483947D01*
X191723140Y-105400719D01*
X191829068Y-105294791D01*
X191912296Y-105170232D01*
X191969624Y-105031830D01*
X191998849Y-104884903D01*
X191998849Y-104735097D01*
X191969624Y-104588170D01*
X191920007Y-104468384D01*
X191912297Y-104449770D01*
X191912292Y-104449761D01*
X191829068Y-104325209D01*
X191829065Y-104325205D01*
X191723143Y-104219283D01*
X191723139Y-104219280D01*
X191598587Y-104136056D01*
X191598578Y-104136051D01*
X191460179Y-104078725D01*
X191460171Y-104078723D01*
X191313256Y-104049500D01*
X191313252Y-104049500D01*
X191163446Y-104049500D01*
X191163441Y-104049500D01*
X191016526Y-104078723D01*
X191016518Y-104078725D01*
X190878119Y-104136051D01*
X190878110Y-104136056D01*
X190753558Y-104219280D01*
X190753554Y-104219283D01*
X190647632Y-104325205D01*
X190647629Y-104325209D01*
X190564405Y-104449761D01*
X190564400Y-104449770D01*
X190507074Y-104588169D01*
X190507072Y-104588177D01*
X190477849Y-104735092D01*
X188968926Y-104735092D01*
X188893754Y-104680476D01*
X188853793Y-104660115D01*
X188718378Y-104591117D01*
X188531175Y-104530290D01*
X188336771Y-104499500D01*
X188336766Y-104499500D01*
X188139932Y-104499500D01*
X188139927Y-104499500D01*
X187945522Y-104530290D01*
X187758319Y-104591117D01*
X187582943Y-104680476D01*
X187507772Y-104735092D01*
X187423703Y-104796172D01*
X187423701Y-104796174D01*
X187423700Y-104796174D01*
X187284523Y-104935351D01*
X187284523Y-104935352D01*
X187284521Y-104935354D01*
X187259542Y-104969735D01*
X187168825Y-105094594D01*
X187079466Y-105269970D01*
X187018639Y-105457173D01*
X186987849Y-105651577D01*
X186488849Y-105651577D01*
X186458058Y-105457173D01*
X186397231Y-105269970D01*
X186307872Y-105094594D01*
X186262265Y-105031822D01*
X186192177Y-104935354D01*
X186052995Y-104796172D01*
X185893754Y-104680476D01*
X185853793Y-104660115D01*
X185718378Y-104591117D01*
X185531175Y-104530290D01*
X185336771Y-104499500D01*
X185336766Y-104499500D01*
X185139932Y-104499500D01*
X185139927Y-104499500D01*
X184945522Y-104530290D01*
X184758319Y-104591117D01*
X184582943Y-104680476D01*
X184507772Y-104735092D01*
X184423703Y-104796172D01*
X184423701Y-104796174D01*
X184423700Y-104796174D01*
X184284523Y-104935351D01*
X184284523Y-104935352D01*
X184284521Y-104935354D01*
X184259542Y-104969735D01*
X184168825Y-105094594D01*
X184079466Y-105269970D01*
X184018639Y-105457173D01*
X183987849Y-105651577D01*
X183488849Y-105651577D01*
X183458058Y-105457173D01*
X183397231Y-105269970D01*
X183307872Y-105094594D01*
X183262265Y-105031822D01*
X183192177Y-104935354D01*
X183052995Y-104796172D01*
X182893754Y-104680476D01*
X182853793Y-104660115D01*
X182718378Y-104591117D01*
X182531175Y-104530290D01*
X182336771Y-104499500D01*
X182336766Y-104499500D01*
X182139932Y-104499500D01*
X182139927Y-104499500D01*
X181945522Y-104530290D01*
X181758319Y-104591117D01*
X181582943Y-104680476D01*
X181507772Y-104735092D01*
X181423703Y-104796172D01*
X181423701Y-104796174D01*
X181423700Y-104796174D01*
X181284523Y-104935351D01*
X181284523Y-104935352D01*
X181284521Y-104935354D01*
X181259542Y-104969735D01*
X181168825Y-105094594D01*
X181079466Y-105269970D01*
X181018639Y-105457173D01*
X180987849Y-105651577D01*
X180488849Y-105651577D01*
X180458058Y-105457173D01*
X180397231Y-105269970D01*
X180307872Y-105094594D01*
X180262265Y-105031822D01*
X180192177Y-104935354D01*
X180052995Y-104796172D01*
X179893754Y-104680476D01*
X179853793Y-104660115D01*
X179718378Y-104591117D01*
X179531175Y-104530290D01*
X179336771Y-104499500D01*
X179336766Y-104499500D01*
X179139932Y-104499500D01*
X179139927Y-104499500D01*
X178945522Y-104530290D01*
X178758319Y-104591117D01*
X178582943Y-104680476D01*
X178507772Y-104735092D01*
X178423703Y-104796172D01*
X178423701Y-104796174D01*
X178423700Y-104796174D01*
X178284523Y-104935351D01*
X178284523Y-104935352D01*
X178284521Y-104935354D01*
X178259542Y-104969735D01*
X178168825Y-105094594D01*
X178079466Y-105269970D01*
X178018639Y-105457173D01*
X177987849Y-105651577D01*
X177488849Y-105651577D01*
X177458058Y-105457173D01*
X177397231Y-105269970D01*
X177307872Y-105094594D01*
X177262265Y-105031822D01*
X177192177Y-104935354D01*
X177052995Y-104796172D01*
X176893754Y-104680476D01*
X176853793Y-104660115D01*
X176718378Y-104591117D01*
X176531175Y-104530290D01*
X176336771Y-104499500D01*
X176336766Y-104499500D01*
X176139932Y-104499500D01*
X176139925Y-104499500D01*
X175995747Y-104522335D01*
X175926454Y-104513380D01*
X175873002Y-104468384D01*
X175861789Y-104447314D01*
X175809397Y-104320826D01*
X175809390Y-104320813D01*
X175721789Y-104189710D01*
X175721786Y-104189706D01*
X175610292Y-104078212D01*
X175610288Y-104078209D01*
X175479185Y-103990608D01*
X175479172Y-103990601D01*
X175333501Y-103930263D01*
X175333489Y-103930260D01*
X175178845Y-103899499D01*
X175178842Y-103899499D01*
X175021158Y-103899499D01*
X175021155Y-103899499D01*
X174866510Y-103930260D01*
X174866498Y-103930263D01*
X174720827Y-103990601D01*
X174720814Y-103990608D01*
X174589711Y-104078209D01*
X174589707Y-104078212D01*
X174478213Y-104189706D01*
X174478210Y-104189710D01*
X174390609Y-104320813D01*
X174390603Y-104320825D01*
X174365476Y-104381485D01*
X174321634Y-104435887D01*
X174275109Y-104455647D01*
X174216507Y-104467304D01*
X174216500Y-104467306D01*
X174070827Y-104527645D01*
X174070814Y-104527652D01*
X173939711Y-104615253D01*
X173935770Y-104618488D01*
X173871460Y-104645800D01*
X173802593Y-104634009D01*
X173800812Y-104633119D01*
X173718381Y-104591118D01*
X173531175Y-104530290D01*
X173336771Y-104499500D01*
X173336766Y-104499500D01*
X173139932Y-104499500D01*
X173139927Y-104499500D01*
X172945522Y-104530290D01*
X172758319Y-104591117D01*
X172582943Y-104680476D01*
X172507772Y-104735092D01*
X172423703Y-104796172D01*
X172423701Y-104796174D01*
X172423700Y-104796174D01*
X172284523Y-104935351D01*
X172284523Y-104935352D01*
X172284521Y-104935354D01*
X172259542Y-104969735D01*
X172168825Y-105094594D01*
X172079466Y-105269970D01*
X172018639Y-105457173D01*
X171987849Y-105651577D01*
X171488849Y-105651577D01*
X171458058Y-105457173D01*
X171397231Y-105269970D01*
X171307872Y-105094594D01*
X171262265Y-105031822D01*
X171192177Y-104935354D01*
X171052995Y-104796172D01*
X170893754Y-104680476D01*
X170853793Y-104660115D01*
X170718378Y-104591117D01*
X170531175Y-104530290D01*
X170336771Y-104499500D01*
X170336766Y-104499500D01*
X170139932Y-104499500D01*
X170139927Y-104499500D01*
X169945522Y-104530290D01*
X169758319Y-104591117D01*
X169582943Y-104680476D01*
X169507772Y-104735092D01*
X169423703Y-104796172D01*
X169423701Y-104796174D01*
X169423700Y-104796174D01*
X169284523Y-104935351D01*
X169284523Y-104935352D01*
X169284521Y-104935354D01*
X169259542Y-104969735D01*
X169168825Y-105094594D01*
X169079466Y-105269970D01*
X169018639Y-105457173D01*
X168987849Y-105651577D01*
X168488849Y-105651577D01*
X168458058Y-105457173D01*
X168397231Y-105269970D01*
X168307872Y-105094594D01*
X168262265Y-105031822D01*
X168192177Y-104935354D01*
X168052995Y-104796172D01*
X167893754Y-104680476D01*
X167853793Y-104660115D01*
X167718378Y-104591117D01*
X167531175Y-104530290D01*
X167336771Y-104499500D01*
X167336766Y-104499500D01*
X167139932Y-104499500D01*
X167139927Y-104499500D01*
X166945522Y-104530290D01*
X166758319Y-104591117D01*
X166582943Y-104680476D01*
X166507772Y-104735092D01*
X166423703Y-104796172D01*
X166423701Y-104796174D01*
X166423700Y-104796174D01*
X166284523Y-104935351D01*
X166284523Y-104935352D01*
X166284521Y-104935354D01*
X166259542Y-104969735D01*
X166168825Y-105094594D01*
X166079466Y-105269970D01*
X166018639Y-105457173D01*
X165987849Y-105651577D01*
X165488849Y-105651577D01*
X165458058Y-105457173D01*
X165397231Y-105269970D01*
X165307872Y-105094594D01*
X165262265Y-105031822D01*
X165192177Y-104935354D01*
X165052995Y-104796172D01*
X164893754Y-104680476D01*
X164853793Y-104660115D01*
X164718378Y-104591117D01*
X164531175Y-104530290D01*
X164336771Y-104499500D01*
X164336766Y-104499500D01*
X164139932Y-104499500D01*
X164139927Y-104499500D01*
X163945522Y-104530290D01*
X163758319Y-104591117D01*
X163582943Y-104680476D01*
X163507772Y-104735092D01*
X163423703Y-104796172D01*
X163423701Y-104796174D01*
X163423700Y-104796174D01*
X163284523Y-104935351D01*
X163284523Y-104935352D01*
X163284521Y-104935354D01*
X163259542Y-104969735D01*
X163168825Y-105094594D01*
X163079466Y-105269970D01*
X163018639Y-105457173D01*
X162987849Y-105651577D01*
X162488849Y-105651577D01*
X162458058Y-105457173D01*
X162397231Y-105269970D01*
X162307872Y-105094594D01*
X162262265Y-105031822D01*
X162192177Y-104935354D01*
X162052995Y-104796172D01*
X161893754Y-104680476D01*
X161853793Y-104660115D01*
X161718378Y-104591117D01*
X161531175Y-104530290D01*
X161336771Y-104499500D01*
X161336766Y-104499500D01*
X161139932Y-104499500D01*
X161139927Y-104499500D01*
X160945522Y-104530290D01*
X160758319Y-104591117D01*
X160582943Y-104680476D01*
X160507772Y-104735092D01*
X160423703Y-104796172D01*
X160423701Y-104796174D01*
X160423700Y-104796174D01*
X160284523Y-104935351D01*
X160284523Y-104935352D01*
X160284521Y-104935354D01*
X160259542Y-104969735D01*
X160168825Y-105094594D01*
X160079466Y-105269970D01*
X160018639Y-105457173D01*
X159987849Y-105651577D01*
X155268367Y-105651577D01*
X155902931Y-105017013D01*
X155964252Y-104983530D01*
X155966317Y-104983099D01*
X156033497Y-104969737D01*
X156179179Y-104909394D01*
X156310289Y-104821789D01*
X156396986Y-104735092D01*
X157477849Y-104735092D01*
X157477849Y-104884907D01*
X157507072Y-105031822D01*
X157507074Y-105031830D01*
X157564400Y-105170229D01*
X157564405Y-105170238D01*
X157647629Y-105294790D01*
X157647632Y-105294794D01*
X157753554Y-105400716D01*
X157753558Y-105400719D01*
X157878110Y-105483943D01*
X157878116Y-105483946D01*
X157878117Y-105483947D01*
X158016519Y-105541275D01*
X158163441Y-105570499D01*
X158163445Y-105570500D01*
X158163446Y-105570500D01*
X158313253Y-105570500D01*
X158313254Y-105570499D01*
X158460179Y-105541275D01*
X158598581Y-105483947D01*
X158723140Y-105400719D01*
X158829068Y-105294791D01*
X158912296Y-105170232D01*
X158969624Y-105031830D01*
X158998849Y-104884903D01*
X158998849Y-104735097D01*
X158969624Y-104588170D01*
X158920007Y-104468384D01*
X158912297Y-104449770D01*
X158912292Y-104449761D01*
X158829068Y-104325209D01*
X158829065Y-104325205D01*
X158723143Y-104219283D01*
X158723139Y-104219280D01*
X158598587Y-104136056D01*
X158598578Y-104136051D01*
X158460179Y-104078725D01*
X158460171Y-104078723D01*
X158313256Y-104049500D01*
X158313252Y-104049500D01*
X158163446Y-104049500D01*
X158163441Y-104049500D01*
X158016526Y-104078723D01*
X158016518Y-104078725D01*
X157878119Y-104136051D01*
X157878110Y-104136056D01*
X157753558Y-104219280D01*
X157753554Y-104219283D01*
X157647632Y-104325205D01*
X157647629Y-104325209D01*
X157564405Y-104449761D01*
X157564400Y-104449770D01*
X157507074Y-104588169D01*
X157507072Y-104588177D01*
X157477849Y-104735092D01*
X156396986Y-104735092D01*
X156421789Y-104710289D01*
X156432104Y-104694850D01*
X156455315Y-104660115D01*
X156455315Y-104660114D01*
X156473352Y-104633119D01*
X156509394Y-104579179D01*
X156569737Y-104433497D01*
X156600500Y-104278842D01*
X156600500Y-104121158D01*
X156600500Y-104121155D01*
X156600499Y-104121153D01*
X156583079Y-104033579D01*
X156569737Y-103966503D01*
X156554725Y-103930260D01*
X156509397Y-103820827D01*
X156509390Y-103820814D01*
X156421789Y-103689711D01*
X156421786Y-103689707D01*
X156310292Y-103578213D01*
X156310288Y-103578210D01*
X156179185Y-103490609D01*
X156179172Y-103490602D01*
X156033501Y-103430264D01*
X156033489Y-103430261D01*
X155878845Y-103399500D01*
X155878842Y-103399500D01*
X155721158Y-103399500D01*
X155721155Y-103399500D01*
X155566510Y-103430261D01*
X155566498Y-103430264D01*
X155420827Y-103490602D01*
X155420814Y-103490609D01*
X155368891Y-103525304D01*
X155302214Y-103546182D01*
X155234833Y-103527698D01*
X155231109Y-103525304D01*
X155179185Y-103490609D01*
X155179172Y-103490602D01*
X155033501Y-103430264D01*
X155033489Y-103430261D01*
X154878845Y-103399500D01*
X154878842Y-103399500D01*
X154721158Y-103399500D01*
X154721155Y-103399500D01*
X154566510Y-103430261D01*
X154566498Y-103430264D01*
X154420827Y-103490602D01*
X154420814Y-103490609D01*
X154289711Y-103578210D01*
X154289707Y-103578213D01*
X154178213Y-103689707D01*
X154178210Y-103689711D01*
X154090609Y-103820814D01*
X154090602Y-103820827D01*
X154030264Y-103966498D01*
X154030261Y-103966508D01*
X154016920Y-104033579D01*
X153984535Y-104095490D01*
X153982984Y-104097068D01*
X151797068Y-106282984D01*
X151735745Y-106316469D01*
X151733579Y-106316920D01*
X151666508Y-106330261D01*
X151666498Y-106330264D01*
X151520827Y-106390602D01*
X151520814Y-106390609D01*
X151389711Y-106478210D01*
X151389707Y-106478213D01*
X151278213Y-106589707D01*
X151278210Y-106589711D01*
X151190609Y-106720814D01*
X151190602Y-106720827D01*
X151130264Y-106866498D01*
X151130261Y-106866510D01*
X151099500Y-107021153D01*
X146975500Y-107021153D01*
X146975500Y-106893713D01*
X146942246Y-106683757D01*
X146876557Y-106481588D01*
X146780051Y-106292184D01*
X146780049Y-106292181D01*
X146780048Y-106292179D01*
X146655109Y-106120213D01*
X146504792Y-105969896D01*
X146504784Y-105969890D01*
X146340204Y-105850316D01*
X146297540Y-105794989D01*
X146291561Y-105725376D01*
X146324166Y-105663580D01*
X146340199Y-105649686D01*
X146504792Y-105530104D01*
X146655104Y-105379792D01*
X146655106Y-105379788D01*
X146655109Y-105379786D01*
X146780048Y-105207820D01*
X146780047Y-105207820D01*
X146780051Y-105207816D01*
X146876557Y-105018412D01*
X146942246Y-104816243D01*
X146975500Y-104606287D01*
X146975500Y-104393713D01*
X146942246Y-104183757D01*
X146876557Y-103981588D01*
X146780051Y-103792184D01*
X146780049Y-103792181D01*
X146780048Y-103792179D01*
X146655109Y-103620213D01*
X146504792Y-103469896D01*
X146504784Y-103469890D01*
X146340204Y-103350316D01*
X146297540Y-103294989D01*
X146291561Y-103225376D01*
X146324166Y-103163580D01*
X146340199Y-103149686D01*
X146504792Y-103030104D01*
X146655104Y-102879792D01*
X146655106Y-102879788D01*
X146655109Y-102879786D01*
X146780048Y-102707820D01*
X146780047Y-102707820D01*
X146780051Y-102707816D01*
X146876557Y-102518412D01*
X146942246Y-102316243D01*
X146945814Y-102293713D01*
X193199500Y-102293713D01*
X193199500Y-102506287D01*
X193201421Y-102518414D01*
X193232753Y-102716239D01*
X193298444Y-102918414D01*
X193394951Y-103107820D01*
X193519890Y-103279786D01*
X193670209Y-103430105D01*
X193670214Y-103430109D01*
X193834793Y-103549682D01*
X193877459Y-103605011D01*
X193883438Y-103674625D01*
X193850833Y-103736420D01*
X193834793Y-103750318D01*
X193670214Y-103869890D01*
X193670209Y-103869894D01*
X193519890Y-104020213D01*
X193394951Y-104192179D01*
X193298444Y-104381585D01*
X193232753Y-104583760D01*
X193208785Y-104735092D01*
X193199500Y-104793713D01*
X193199500Y-105006287D01*
X193201421Y-105018414D01*
X193225466Y-105170232D01*
X193232754Y-105216243D01*
X193292694Y-105400719D01*
X193298444Y-105418414D01*
X193394951Y-105607820D01*
X193519890Y-105779786D01*
X193670213Y-105930109D01*
X193842179Y-106055048D01*
X193842181Y-106055049D01*
X193842184Y-106055051D01*
X194031588Y-106151557D01*
X194233757Y-106217246D01*
X194443713Y-106250500D01*
X194443714Y-106250500D01*
X194956286Y-106250500D01*
X194956287Y-106250500D01*
X195166243Y-106217246D01*
X195368412Y-106151557D01*
X195557816Y-106055051D01*
X195675023Y-105969896D01*
X195729786Y-105930109D01*
X195729788Y-105930106D01*
X195729792Y-105930104D01*
X195880104Y-105779792D01*
X195880106Y-105779788D01*
X195880109Y-105779786D01*
X196005048Y-105607820D01*
X196005047Y-105607820D01*
X196005051Y-105607816D01*
X196101557Y-105418412D01*
X196167246Y-105216243D01*
X196200500Y-105006287D01*
X196200500Y-104793713D01*
X196167246Y-104583757D01*
X196101557Y-104381588D01*
X196005051Y-104192184D01*
X196005049Y-104192181D01*
X196005048Y-104192179D01*
X195880109Y-104020213D01*
X195729792Y-103869896D01*
X195729784Y-103869890D01*
X195565204Y-103750316D01*
X195522540Y-103694989D01*
X195516561Y-103625376D01*
X195549166Y-103563580D01*
X195565199Y-103549686D01*
X195729792Y-103430104D01*
X195880104Y-103279792D01*
X195880106Y-103279788D01*
X195880109Y-103279786D01*
X196005048Y-103107820D01*
X196005047Y-103107820D01*
X196005051Y-103107816D01*
X196101557Y-102918412D01*
X196167246Y-102716243D01*
X196200500Y-102506287D01*
X196200500Y-102293713D01*
X196167246Y-102083757D01*
X196101557Y-101881588D01*
X196005051Y-101692184D01*
X196005049Y-101692181D01*
X196005048Y-101692179D01*
X195880109Y-101520213D01*
X195729786Y-101369890D01*
X195557820Y-101244951D01*
X195368414Y-101148444D01*
X195368413Y-101148443D01*
X195368412Y-101148443D01*
X195166243Y-101082754D01*
X195166241Y-101082753D01*
X195166240Y-101082753D01*
X195004957Y-101057208D01*
X194956287Y-101049500D01*
X194443713Y-101049500D01*
X194395042Y-101057208D01*
X194233760Y-101082753D01*
X194031585Y-101148444D01*
X193842179Y-101244951D01*
X193670213Y-101369890D01*
X193519890Y-101520213D01*
X193394951Y-101692179D01*
X193298444Y-101881585D01*
X193232753Y-102083760D01*
X193203344Y-102269441D01*
X193199500Y-102293713D01*
X146945814Y-102293713D01*
X146975500Y-102106287D01*
X146975500Y-101893713D01*
X146942246Y-101683757D01*
X146876557Y-101481588D01*
X146780051Y-101292184D01*
X146780049Y-101292181D01*
X146780048Y-101292179D01*
X146655109Y-101120213D01*
X146504786Y-100969890D01*
X146332820Y-100844951D01*
X146143414Y-100748444D01*
X146143413Y-100748443D01*
X146143412Y-100748443D01*
X145941243Y-100682754D01*
X145941241Y-100682753D01*
X145941240Y-100682753D01*
X145779957Y-100657208D01*
X145731287Y-100649500D01*
X145268713Y-100649500D01*
X145220042Y-100657208D01*
X145058760Y-100682753D01*
X144856585Y-100748444D01*
X144667179Y-100844951D01*
X144495213Y-100969890D01*
X144344890Y-101120213D01*
X144219951Y-101292179D01*
X144123444Y-101481585D01*
X144057753Y-101683760D01*
X144024500Y-101893713D01*
X143300500Y-101893713D01*
X143300500Y-89293713D01*
X144024500Y-89293713D01*
X144024500Y-89506286D01*
X144057753Y-89716239D01*
X144123444Y-89918414D01*
X144219951Y-90107820D01*
X144344890Y-90279786D01*
X144495209Y-90430105D01*
X144495214Y-90430109D01*
X144659793Y-90549682D01*
X144702459Y-90605011D01*
X144708438Y-90674625D01*
X144675833Y-90736420D01*
X144659793Y-90750318D01*
X144495214Y-90869890D01*
X144495209Y-90869894D01*
X144344890Y-91020213D01*
X144219951Y-91192179D01*
X144123444Y-91381585D01*
X144057753Y-91583760D01*
X144042377Y-91680840D01*
X144024500Y-91793713D01*
X144024500Y-92006287D01*
X144057754Y-92216243D01*
X144118953Y-92404594D01*
X144123444Y-92418414D01*
X144219951Y-92607820D01*
X144344890Y-92779786D01*
X144495209Y-92930105D01*
X144495214Y-92930109D01*
X144659793Y-93049682D01*
X144702459Y-93105011D01*
X144708438Y-93174625D01*
X144675833Y-93236420D01*
X144659793Y-93250318D01*
X144495214Y-93369890D01*
X144495209Y-93369894D01*
X144344890Y-93520213D01*
X144219951Y-93692179D01*
X144123444Y-93881585D01*
X144057753Y-94083760D01*
X144033333Y-94237941D01*
X144024500Y-94293713D01*
X144024500Y-94506287D01*
X144057754Y-94716243D01*
X144117974Y-94901581D01*
X144123444Y-94918414D01*
X144219951Y-95107820D01*
X144344890Y-95279786D01*
X144495209Y-95430105D01*
X144495214Y-95430109D01*
X144659793Y-95549682D01*
X144702459Y-95605011D01*
X144708438Y-95674625D01*
X144675833Y-95736420D01*
X144659793Y-95750318D01*
X144495214Y-95869890D01*
X144495209Y-95869894D01*
X144344890Y-96020213D01*
X144219951Y-96192179D01*
X144123444Y-96381585D01*
X144057753Y-96583760D01*
X144026962Y-96778169D01*
X144024500Y-96793713D01*
X144024500Y-97006287D01*
X144028680Y-97032679D01*
X144042640Y-97120821D01*
X144057754Y-97216243D01*
X144085395Y-97301314D01*
X144123444Y-97418414D01*
X144219951Y-97607820D01*
X144344890Y-97779786D01*
X144495213Y-97930109D01*
X144667179Y-98055048D01*
X144667181Y-98055049D01*
X144667184Y-98055051D01*
X144856588Y-98151557D01*
X145058757Y-98217246D01*
X145268713Y-98250500D01*
X145268714Y-98250500D01*
X145731286Y-98250500D01*
X145731287Y-98250500D01*
X145941243Y-98217246D01*
X146143412Y-98151557D01*
X146332816Y-98055051D01*
X146394426Y-98010289D01*
X146504786Y-97930109D01*
X146504788Y-97930106D01*
X146504792Y-97930104D01*
X146655104Y-97779792D01*
X146655106Y-97779788D01*
X146655109Y-97779786D01*
X146780048Y-97607820D01*
X146780047Y-97607820D01*
X146780051Y-97607816D01*
X146876557Y-97418412D01*
X146942246Y-97216243D01*
X146975500Y-97006287D01*
X146975500Y-96925092D01*
X150239500Y-96925092D01*
X150239500Y-97074907D01*
X150268723Y-97221822D01*
X150268725Y-97221830D01*
X150326051Y-97360229D01*
X150326056Y-97360238D01*
X150409280Y-97484790D01*
X150409283Y-97484794D01*
X150515205Y-97590716D01*
X150515209Y-97590719D01*
X150639761Y-97673943D01*
X150639767Y-97673946D01*
X150639768Y-97673947D01*
X150778170Y-97731275D01*
X150925092Y-97760499D01*
X150925096Y-97760500D01*
X150925097Y-97760500D01*
X151074904Y-97760500D01*
X151074905Y-97760499D01*
X151221830Y-97731275D01*
X151360232Y-97673947D01*
X151484791Y-97590719D01*
X151590719Y-97484791D01*
X151673947Y-97360232D01*
X151731275Y-97221830D01*
X151760500Y-97074903D01*
X151760500Y-96925097D01*
X151731275Y-96778170D01*
X151673947Y-96639768D01*
X151673946Y-96639767D01*
X151673943Y-96639761D01*
X151590719Y-96515209D01*
X151590716Y-96515205D01*
X151484794Y-96409283D01*
X151484790Y-96409280D01*
X151360238Y-96326056D01*
X151360229Y-96326051D01*
X151221830Y-96268725D01*
X151221822Y-96268723D01*
X151074907Y-96239500D01*
X151074903Y-96239500D01*
X150925097Y-96239500D01*
X150925092Y-96239500D01*
X150778177Y-96268723D01*
X150778169Y-96268725D01*
X150639770Y-96326051D01*
X150639761Y-96326056D01*
X150515209Y-96409280D01*
X150515205Y-96409283D01*
X150409283Y-96515205D01*
X150409280Y-96515209D01*
X150326056Y-96639761D01*
X150326051Y-96639770D01*
X150268725Y-96778169D01*
X150268723Y-96778177D01*
X150239500Y-96925092D01*
X146975500Y-96925092D01*
X146975500Y-96793713D01*
X146942246Y-96583757D01*
X146876557Y-96381588D01*
X146780051Y-96192184D01*
X146684015Y-96060001D01*
X146661925Y-96029596D01*
X146661923Y-96029592D01*
X146655111Y-96020216D01*
X146655105Y-96020209D01*
X146596473Y-95961577D01*
X152749500Y-95961577D01*
X152749500Y-96158422D01*
X152780290Y-96352826D01*
X152841117Y-96540029D01*
X152891937Y-96639768D01*
X152930476Y-96715405D01*
X153046172Y-96874646D01*
X153185354Y-97013828D01*
X153344595Y-97129524D01*
X153427455Y-97171743D01*
X153519970Y-97218882D01*
X153519972Y-97218882D01*
X153519975Y-97218884D01*
X153603848Y-97246136D01*
X153707173Y-97279709D01*
X153901578Y-97310500D01*
X153901583Y-97310500D01*
X154098422Y-97310500D01*
X154292826Y-97279709D01*
X154294328Y-97279221D01*
X154480025Y-97218884D01*
X154655405Y-97129524D01*
X154814646Y-97013828D01*
X154953828Y-96874646D01*
X155069524Y-96715405D01*
X155158884Y-96540025D01*
X155219709Y-96352826D01*
X155233029Y-96268725D01*
X155250500Y-96158422D01*
X155250500Y-95961577D01*
X155749500Y-95961577D01*
X155749500Y-96158422D01*
X155780290Y-96352826D01*
X155841117Y-96540029D01*
X155891937Y-96639768D01*
X155930476Y-96715405D01*
X156046172Y-96874646D01*
X156185354Y-97013828D01*
X156344595Y-97129524D01*
X156427455Y-97171743D01*
X156519970Y-97218882D01*
X156519972Y-97218882D01*
X156519975Y-97218884D01*
X156603848Y-97246136D01*
X156707173Y-97279709D01*
X156901578Y-97310500D01*
X156901583Y-97310500D01*
X157098422Y-97310500D01*
X157292826Y-97279709D01*
X157294328Y-97279221D01*
X157480025Y-97218884D01*
X157655405Y-97129524D01*
X157814646Y-97013828D01*
X157953828Y-96874646D01*
X158069524Y-96715405D01*
X158158884Y-96540025D01*
X158219709Y-96352826D01*
X158233029Y-96268725D01*
X158250500Y-96158422D01*
X158250500Y-95961577D01*
X158219709Y-95767173D01*
X158173636Y-95625376D01*
X158158884Y-95579975D01*
X158158882Y-95579972D01*
X158158882Y-95579970D01*
X158082521Y-95430103D01*
X158069524Y-95404595D01*
X157953828Y-95245354D01*
X157814646Y-95106172D01*
X157655405Y-94990476D01*
X157594515Y-94959451D01*
X157480029Y-94901117D01*
X157292826Y-94840290D01*
X157098422Y-94809500D01*
X157098417Y-94809500D01*
X156901583Y-94809500D01*
X156901578Y-94809500D01*
X156707173Y-94840290D01*
X156519970Y-94901117D01*
X156344594Y-94990476D01*
X156293190Y-95027824D01*
X156185354Y-95106172D01*
X156185352Y-95106174D01*
X156185351Y-95106174D01*
X156046174Y-95245351D01*
X156046174Y-95245352D01*
X156046172Y-95245354D01*
X156021156Y-95279786D01*
X155930476Y-95404594D01*
X155841117Y-95579970D01*
X155780290Y-95767173D01*
X155749500Y-95961577D01*
X155250500Y-95961577D01*
X155219709Y-95767173D01*
X155173636Y-95625376D01*
X155158884Y-95579975D01*
X155158882Y-95579972D01*
X155158882Y-95579970D01*
X155082521Y-95430103D01*
X155069524Y-95404595D01*
X154953828Y-95245354D01*
X154814646Y-95106172D01*
X154655405Y-94990476D01*
X154594515Y-94959451D01*
X154480029Y-94901117D01*
X154292826Y-94840290D01*
X154098422Y-94809500D01*
X154098417Y-94809500D01*
X153901583Y-94809500D01*
X153901578Y-94809500D01*
X153707173Y-94840290D01*
X153519970Y-94901117D01*
X153344594Y-94990476D01*
X153293190Y-95027824D01*
X153185354Y-95106172D01*
X153185352Y-95106174D01*
X153185351Y-95106174D01*
X153046174Y-95245351D01*
X153046174Y-95245352D01*
X153046172Y-95245354D01*
X153021156Y-95279786D01*
X152930476Y-95404594D01*
X152841117Y-95579970D01*
X152780290Y-95767173D01*
X152749500Y-95961577D01*
X146596473Y-95961577D01*
X146504792Y-95869896D01*
X146441054Y-95823588D01*
X146340204Y-95750316D01*
X146297540Y-95694989D01*
X146291561Y-95625376D01*
X146324166Y-95563580D01*
X146340199Y-95549686D01*
X146504792Y-95430104D01*
X146655104Y-95279792D01*
X146655106Y-95279788D01*
X146655109Y-95279786D01*
X146780048Y-95107820D01*
X146780047Y-95107820D01*
X146780051Y-95107816D01*
X146876557Y-94918412D01*
X146942246Y-94716243D01*
X146975500Y-94506287D01*
X146975500Y-94293713D01*
X146942246Y-94083757D01*
X146876557Y-93881588D01*
X146780051Y-93692184D01*
X146780049Y-93692181D01*
X146780048Y-93692179D01*
X146655109Y-93520213D01*
X146504792Y-93369896D01*
X146481297Y-93352826D01*
X146340204Y-93250316D01*
X146297540Y-93194989D01*
X146291561Y-93125376D01*
X146324166Y-93063580D01*
X146340199Y-93049686D01*
X146461472Y-92961577D01*
X152749500Y-92961577D01*
X152749500Y-93158422D01*
X152780290Y-93352826D01*
X152841117Y-93540029D01*
X152918642Y-93692179D01*
X152930476Y-93715405D01*
X153046172Y-93874646D01*
X153185354Y-94013828D01*
X153344595Y-94129524D01*
X153426262Y-94171135D01*
X153519970Y-94218882D01*
X153519972Y-94218882D01*
X153519975Y-94218884D01*
X153620317Y-94251487D01*
X153707173Y-94279709D01*
X153901578Y-94310500D01*
X153901583Y-94310500D01*
X154098422Y-94310500D01*
X154292826Y-94279709D01*
X154480025Y-94218884D01*
X154655405Y-94129524D01*
X154814646Y-94013828D01*
X154953828Y-93874646D01*
X155069524Y-93715405D01*
X155158884Y-93540025D01*
X155219709Y-93352826D01*
X155250500Y-93158422D01*
X155250500Y-92961577D01*
X155749500Y-92961577D01*
X155749500Y-93158422D01*
X155780290Y-93352826D01*
X155841117Y-93540029D01*
X155918642Y-93692179D01*
X155930476Y-93715405D01*
X156046172Y-93874646D01*
X156185354Y-94013828D01*
X156344595Y-94129524D01*
X156426262Y-94171135D01*
X156519970Y-94218882D01*
X156519972Y-94218882D01*
X156519975Y-94218884D01*
X156620317Y-94251487D01*
X156707173Y-94279709D01*
X156901578Y-94310500D01*
X156901583Y-94310500D01*
X157098422Y-94310500D01*
X157292826Y-94279709D01*
X157480025Y-94218884D01*
X157655405Y-94129524D01*
X157814646Y-94013828D01*
X157953828Y-93874646D01*
X158069524Y-93715405D01*
X158158884Y-93540025D01*
X158219709Y-93352826D01*
X158250500Y-93158422D01*
X158250500Y-92961577D01*
X158219709Y-92767173D01*
X158158882Y-92579970D01*
X158069523Y-92404594D01*
X157953828Y-92245354D01*
X157814646Y-92106172D01*
X157655405Y-91990476D01*
X157579554Y-91951828D01*
X157480029Y-91901117D01*
X157292826Y-91840290D01*
X157098422Y-91809500D01*
X157098417Y-91809500D01*
X156901583Y-91809500D01*
X156901578Y-91809500D01*
X156707173Y-91840290D01*
X156519970Y-91901117D01*
X156344594Y-91990476D01*
X156321634Y-92007158D01*
X156185354Y-92106172D01*
X156185352Y-92106174D01*
X156185351Y-92106174D01*
X156046174Y-92245351D01*
X156046174Y-92245352D01*
X156046172Y-92245354D01*
X155996485Y-92313741D01*
X155930476Y-92404594D01*
X155841117Y-92579970D01*
X155780290Y-92767173D01*
X155749500Y-92961577D01*
X155250500Y-92961577D01*
X155219709Y-92767173D01*
X155158882Y-92579970D01*
X155069523Y-92404594D01*
X154953828Y-92245354D01*
X154814646Y-92106172D01*
X154655405Y-91990476D01*
X154579554Y-91951828D01*
X154480029Y-91901117D01*
X154292826Y-91840290D01*
X154098422Y-91809500D01*
X154098417Y-91809500D01*
X153901583Y-91809500D01*
X153901578Y-91809500D01*
X153707173Y-91840290D01*
X153519970Y-91901117D01*
X153344594Y-91990476D01*
X153321634Y-92007158D01*
X153185354Y-92106172D01*
X153185352Y-92106174D01*
X153185351Y-92106174D01*
X153046174Y-92245351D01*
X153046174Y-92245352D01*
X153046172Y-92245354D01*
X152996485Y-92313741D01*
X152930476Y-92404594D01*
X152841117Y-92579970D01*
X152780290Y-92767173D01*
X152749500Y-92961577D01*
X146461472Y-92961577D01*
X146504792Y-92930104D01*
X146655104Y-92779792D01*
X146655106Y-92779788D01*
X146655109Y-92779786D01*
X146780048Y-92607820D01*
X146780047Y-92607820D01*
X146780051Y-92607816D01*
X146876557Y-92418412D01*
X146942246Y-92216243D01*
X146975500Y-92006287D01*
X146975500Y-91793713D01*
X146942246Y-91583757D01*
X146876557Y-91381588D01*
X146780051Y-91192184D01*
X146780049Y-91192181D01*
X146780048Y-91192179D01*
X146655109Y-91020213D01*
X146504792Y-90869896D01*
X146491530Y-90860261D01*
X146340204Y-90750316D01*
X146297540Y-90694989D01*
X146291561Y-90625376D01*
X146324166Y-90563580D01*
X146340199Y-90549686D01*
X146504792Y-90430104D01*
X146655104Y-90279792D01*
X146655106Y-90279788D01*
X146655109Y-90279786D01*
X146780048Y-90107820D01*
X146780047Y-90107820D01*
X146780051Y-90107816D01*
X146876557Y-89918412D01*
X146942246Y-89716243D01*
X146975500Y-89506287D01*
X146975500Y-89293713D01*
X146942246Y-89083757D01*
X146876557Y-88881588D01*
X146780051Y-88692184D01*
X146780049Y-88692181D01*
X146780048Y-88692179D01*
X146655109Y-88520213D01*
X146504786Y-88369890D01*
X146332820Y-88244951D01*
X146143414Y-88148444D01*
X146143413Y-88148443D01*
X146143412Y-88148443D01*
X145941243Y-88082754D01*
X145941241Y-88082753D01*
X145941240Y-88082753D01*
X145779957Y-88057208D01*
X145731287Y-88049500D01*
X145268713Y-88049500D01*
X145220042Y-88057208D01*
X145058760Y-88082753D01*
X144856585Y-88148444D01*
X144667179Y-88244951D01*
X144495213Y-88369890D01*
X144344890Y-88520213D01*
X144219951Y-88692179D01*
X144123444Y-88881585D01*
X144057753Y-89083760D01*
X144024500Y-89293713D01*
X143300500Y-89293713D01*
X143300500Y-84743713D01*
X151849500Y-84743713D01*
X151849500Y-85256286D01*
X151882753Y-85466239D01*
X151948444Y-85668414D01*
X152044951Y-85857820D01*
X152169890Y-86029786D01*
X152320213Y-86180109D01*
X152492179Y-86305048D01*
X152492181Y-86305049D01*
X152492184Y-86305051D01*
X152681588Y-86401557D01*
X152883757Y-86467246D01*
X153093713Y-86500500D01*
X153093714Y-86500500D01*
X153306286Y-86500500D01*
X153306287Y-86500500D01*
X153516243Y-86467246D01*
X153718412Y-86401557D01*
X153907816Y-86305051D01*
X154012588Y-86228929D01*
X154078391Y-86205451D01*
X154146445Y-86221276D01*
X154173152Y-86241568D01*
X154787855Y-86856272D01*
X154787861Y-86856277D01*
X154894404Y-86927466D01*
X154963751Y-86956189D01*
X155012786Y-86976501D01*
X155012789Y-86976501D01*
X155012790Y-86976502D01*
X155138458Y-87001500D01*
X155138461Y-87001500D01*
X155138462Y-87001500D01*
X155266599Y-87001500D01*
X156021672Y-87001500D01*
X156088711Y-87021185D01*
X156109353Y-87037819D01*
X160562181Y-91490646D01*
X160576884Y-91517573D01*
X160593477Y-91543392D01*
X160594368Y-91549592D01*
X160595666Y-91551969D01*
X160598500Y-91578327D01*
X160598500Y-91768939D01*
X160578815Y-91835978D01*
X160526011Y-91881733D01*
X160456853Y-91891677D01*
X160436182Y-91886870D01*
X160292828Y-91840291D01*
X160098422Y-91809500D01*
X160098417Y-91809500D01*
X159901583Y-91809500D01*
X159901578Y-91809500D01*
X159707173Y-91840290D01*
X159519970Y-91901117D01*
X159344594Y-91990476D01*
X159321634Y-92007158D01*
X159185354Y-92106172D01*
X159185352Y-92106174D01*
X159185351Y-92106174D01*
X159046174Y-92245351D01*
X159046174Y-92245352D01*
X159046172Y-92245354D01*
X158996485Y-92313741D01*
X158930476Y-92404594D01*
X158841117Y-92579970D01*
X158780290Y-92767173D01*
X158749500Y-92961577D01*
X158749500Y-93158422D01*
X158780290Y-93352826D01*
X158841117Y-93540029D01*
X158918642Y-93692179D01*
X158930476Y-93715405D01*
X159046172Y-93874646D01*
X159185354Y-94013828D01*
X159344595Y-94129524D01*
X159426262Y-94171135D01*
X159519970Y-94218882D01*
X159519972Y-94218882D01*
X159519975Y-94218884D01*
X159620317Y-94251487D01*
X159707173Y-94279709D01*
X159901578Y-94310500D01*
X159901583Y-94310500D01*
X160098422Y-94310500D01*
X160292826Y-94279709D01*
X160436183Y-94233128D01*
X160464302Y-94232325D01*
X160492147Y-94228322D01*
X160498758Y-94231341D01*
X160506022Y-94231134D01*
X160530110Y-94245659D01*
X160555703Y-94257347D01*
X160559631Y-94263460D01*
X160565855Y-94267213D01*
X160578268Y-94292459D01*
X160593477Y-94316125D01*
X160594953Y-94326394D01*
X160596684Y-94329914D01*
X160598500Y-94351060D01*
X160598500Y-94490191D01*
X160578815Y-94557230D01*
X160562181Y-94577872D01*
X160343489Y-94796563D01*
X160282166Y-94830048D01*
X160236410Y-94831355D01*
X160098422Y-94809500D01*
X160098417Y-94809500D01*
X159901583Y-94809500D01*
X159901578Y-94809500D01*
X159707173Y-94840290D01*
X159519970Y-94901117D01*
X159344594Y-94990476D01*
X159293190Y-95027824D01*
X159185354Y-95106172D01*
X159185352Y-95106174D01*
X159185351Y-95106174D01*
X159046174Y-95245351D01*
X159046174Y-95245352D01*
X159046172Y-95245354D01*
X159021156Y-95279786D01*
X158930476Y-95404594D01*
X158841117Y-95579970D01*
X158780290Y-95767173D01*
X158749500Y-95961577D01*
X158749500Y-96158422D01*
X158780290Y-96352826D01*
X158841117Y-96540029D01*
X158891937Y-96639768D01*
X158930476Y-96715405D01*
X159046172Y-96874646D01*
X159185354Y-97013828D01*
X159344595Y-97129524D01*
X159427455Y-97171743D01*
X159519970Y-97218882D01*
X159519972Y-97218882D01*
X159519975Y-97218884D01*
X159603848Y-97246136D01*
X159707173Y-97279709D01*
X159901578Y-97310500D01*
X159901583Y-97310500D01*
X160098422Y-97310500D01*
X160292826Y-97279709D01*
X160294328Y-97279221D01*
X160480025Y-97218884D01*
X160655405Y-97129524D01*
X160814646Y-97013828D01*
X160953828Y-96874646D01*
X161069524Y-96715405D01*
X161158884Y-96540025D01*
X161219709Y-96352826D01*
X161233029Y-96268725D01*
X161250500Y-96158422D01*
X161250500Y-95961577D01*
X161228644Y-95823587D01*
X161229345Y-95818161D01*
X161227433Y-95813035D01*
X161233774Y-95783884D01*
X161237598Y-95754294D01*
X161241430Y-95748688D01*
X161242285Y-95744762D01*
X161263432Y-95716512D01*
X161412321Y-95567623D01*
X161473641Y-95534141D01*
X161543333Y-95539125D01*
X161587680Y-95567626D01*
X161736563Y-95716509D01*
X161770048Y-95777832D01*
X161771355Y-95823588D01*
X161749500Y-95961577D01*
X161749500Y-96158422D01*
X161780290Y-96352826D01*
X161841117Y-96540029D01*
X161891937Y-96639768D01*
X161930476Y-96715405D01*
X162046172Y-96874646D01*
X162185354Y-97013828D01*
X162344595Y-97129524D01*
X162427455Y-97171743D01*
X162519970Y-97218882D01*
X162519972Y-97218882D01*
X162519975Y-97218884D01*
X162603848Y-97246136D01*
X162707173Y-97279709D01*
X162901578Y-97310500D01*
X162901583Y-97310500D01*
X163098422Y-97310500D01*
X163292826Y-97279709D01*
X163294328Y-97279221D01*
X163480025Y-97218884D01*
X163655405Y-97129524D01*
X163814646Y-97013828D01*
X163953828Y-96874646D01*
X164069524Y-96715405D01*
X164158884Y-96540025D01*
X164219709Y-96352826D01*
X164233029Y-96268725D01*
X164250500Y-96158422D01*
X164250500Y-95961577D01*
X164749500Y-95961577D01*
X164749500Y-96158422D01*
X164780290Y-96352826D01*
X164841117Y-96540029D01*
X164891937Y-96639768D01*
X164930476Y-96715405D01*
X165046172Y-96874646D01*
X165185354Y-97013828D01*
X165344595Y-97129524D01*
X165427455Y-97171743D01*
X165519970Y-97218882D01*
X165519972Y-97218882D01*
X165519975Y-97218884D01*
X165603848Y-97246136D01*
X165707173Y-97279709D01*
X165901578Y-97310500D01*
X165901583Y-97310500D01*
X166098422Y-97310500D01*
X166292826Y-97279709D01*
X166294328Y-97279221D01*
X166480025Y-97218884D01*
X166655405Y-97129524D01*
X166814646Y-97013828D01*
X166953828Y-96874646D01*
X167069524Y-96715405D01*
X167158884Y-96540025D01*
X167219709Y-96352826D01*
X167233029Y-96268725D01*
X167250500Y-96158422D01*
X167250500Y-95961577D01*
X167219709Y-95767173D01*
X167173636Y-95625376D01*
X167158884Y-95579975D01*
X167158882Y-95579972D01*
X167158882Y-95579970D01*
X167082521Y-95430103D01*
X167069524Y-95404595D01*
X166953828Y-95245354D01*
X166814646Y-95106172D01*
X166655405Y-94990476D01*
X166594515Y-94959451D01*
X166480029Y-94901117D01*
X166292826Y-94840290D01*
X166098422Y-94809500D01*
X166098417Y-94809500D01*
X165901583Y-94809500D01*
X165901578Y-94809500D01*
X165707173Y-94840290D01*
X165519970Y-94901117D01*
X165344594Y-94990476D01*
X165293190Y-95027824D01*
X165185354Y-95106172D01*
X165185352Y-95106174D01*
X165185351Y-95106174D01*
X165046174Y-95245351D01*
X165046174Y-95245352D01*
X165046172Y-95245354D01*
X165021156Y-95279786D01*
X164930476Y-95404594D01*
X164841117Y-95579970D01*
X164780290Y-95767173D01*
X164749500Y-95961577D01*
X164250500Y-95961577D01*
X164219709Y-95767173D01*
X164173636Y-95625376D01*
X164158884Y-95579975D01*
X164158882Y-95579972D01*
X164158882Y-95579970D01*
X164082521Y-95430103D01*
X164069524Y-95404595D01*
X163953828Y-95245354D01*
X163814646Y-95106172D01*
X163655405Y-94990476D01*
X163594515Y-94959451D01*
X163480029Y-94901117D01*
X163292826Y-94840290D01*
X163098422Y-94809500D01*
X163098417Y-94809500D01*
X162901583Y-94809500D01*
X162901578Y-94809500D01*
X162763588Y-94831355D01*
X162694294Y-94822400D01*
X162656509Y-94796563D01*
X162436819Y-94576873D01*
X162422115Y-94549945D01*
X162405523Y-94524127D01*
X162404631Y-94517926D01*
X162403334Y-94515550D01*
X162400500Y-94489192D01*
X162400500Y-94350735D01*
X162420185Y-94283696D01*
X162472989Y-94237941D01*
X162542147Y-94227997D01*
X162562808Y-94232801D01*
X162670132Y-94267673D01*
X162707173Y-94279709D01*
X162901578Y-94310500D01*
X162901583Y-94310500D01*
X163098422Y-94310500D01*
X163292826Y-94279709D01*
X163480025Y-94218884D01*
X163655405Y-94129524D01*
X163814646Y-94013828D01*
X163953828Y-93874646D01*
X164069524Y-93715405D01*
X164158884Y-93540025D01*
X164219709Y-93352826D01*
X164250500Y-93158422D01*
X164250500Y-92961577D01*
X164749500Y-92961577D01*
X164749500Y-93158422D01*
X164780290Y-93352826D01*
X164841117Y-93540029D01*
X164918642Y-93692179D01*
X164930476Y-93715405D01*
X165046172Y-93874646D01*
X165185354Y-94013828D01*
X165344595Y-94129524D01*
X165426262Y-94171135D01*
X165519970Y-94218882D01*
X165519972Y-94218882D01*
X165519975Y-94218884D01*
X165620317Y-94251487D01*
X165707173Y-94279709D01*
X165901578Y-94310500D01*
X165901583Y-94310500D01*
X166098422Y-94310500D01*
X166292826Y-94279709D01*
X166480025Y-94218884D01*
X166655405Y-94129524D01*
X166814646Y-94013828D01*
X166953828Y-93874646D01*
X167069524Y-93715405D01*
X167158884Y-93540025D01*
X167219709Y-93352826D01*
X167250500Y-93158422D01*
X167250500Y-92961577D01*
X167219709Y-92767173D01*
X167158882Y-92579970D01*
X167069523Y-92404594D01*
X166953828Y-92245354D01*
X166814646Y-92106172D01*
X166655405Y-91990476D01*
X166579554Y-91951828D01*
X166480029Y-91901117D01*
X166292826Y-91840290D01*
X166098422Y-91809500D01*
X166098417Y-91809500D01*
X165901583Y-91809500D01*
X165901578Y-91809500D01*
X165707173Y-91840290D01*
X165519970Y-91901117D01*
X165344594Y-91990476D01*
X165321634Y-92007158D01*
X165185354Y-92106172D01*
X165185352Y-92106174D01*
X165185351Y-92106174D01*
X165046174Y-92245351D01*
X165046174Y-92245352D01*
X165046172Y-92245354D01*
X164996485Y-92313741D01*
X164930476Y-92404594D01*
X164841117Y-92579970D01*
X164780290Y-92767173D01*
X164749500Y-92961577D01*
X164250500Y-92961577D01*
X164219709Y-92767173D01*
X164158882Y-92579970D01*
X164069523Y-92404594D01*
X163953828Y-92245354D01*
X163814646Y-92106172D01*
X163655405Y-91990476D01*
X163579554Y-91951828D01*
X163480029Y-91901117D01*
X163292826Y-91840290D01*
X163098422Y-91809500D01*
X163098417Y-91809500D01*
X162901583Y-91809500D01*
X162901578Y-91809500D01*
X162707172Y-91840291D01*
X162707169Y-91840291D01*
X162562818Y-91887195D01*
X162492977Y-91889190D01*
X162433144Y-91853110D01*
X162402316Y-91790409D01*
X162400500Y-91769264D01*
X162400500Y-90985928D01*
X162375502Y-90860261D01*
X162375501Y-90860260D01*
X162375501Y-90860256D01*
X162326465Y-90741873D01*
X162285828Y-90681055D01*
X162265078Y-90650000D01*
X162255279Y-90635333D01*
X157071348Y-85451402D01*
X157037863Y-85390079D01*
X157036556Y-85344323D01*
X157036669Y-85343604D01*
X157050500Y-85256287D01*
X157050500Y-84743713D01*
X159449500Y-84743713D01*
X159449500Y-85256286D01*
X159482753Y-85466239D01*
X159548444Y-85668414D01*
X159644951Y-85857820D01*
X159769890Y-86029786D01*
X159920213Y-86180109D01*
X160092179Y-86305048D01*
X160092181Y-86305049D01*
X160092184Y-86305051D01*
X160281588Y-86401557D01*
X160483757Y-86467246D01*
X160693713Y-86500500D01*
X160693714Y-86500500D01*
X160906286Y-86500500D01*
X160906287Y-86500500D01*
X161116243Y-86467246D01*
X161218369Y-86434062D01*
X161288209Y-86432068D01*
X161344367Y-86464313D01*
X161885324Y-87005271D01*
X161885327Y-87005274D01*
X161970552Y-87062219D01*
X161970551Y-87062219D01*
X161986559Y-87072914D01*
X161991873Y-87076465D01*
X162110256Y-87125501D01*
X162110260Y-87125501D01*
X162110261Y-87125502D01*
X162235928Y-87150500D01*
X162235931Y-87150500D01*
X164979192Y-87150500D01*
X165046231Y-87170185D01*
X165066873Y-87186819D01*
X169560894Y-91680840D01*
X169594379Y-91742163D01*
X169589395Y-91811855D01*
X169547523Y-91867788D01*
X169482059Y-91892205D01*
X169434894Y-91886452D01*
X169292826Y-91840290D01*
X169098422Y-91809500D01*
X169098417Y-91809500D01*
X168901583Y-91809500D01*
X168901578Y-91809500D01*
X168707173Y-91840290D01*
X168519970Y-91901117D01*
X168344594Y-91990476D01*
X168321634Y-92007158D01*
X168185354Y-92106172D01*
X168185352Y-92106174D01*
X168185351Y-92106174D01*
X168046174Y-92245351D01*
X168046174Y-92245352D01*
X168046172Y-92245354D01*
X167996485Y-92313741D01*
X167930476Y-92404594D01*
X167841117Y-92579970D01*
X167780290Y-92767173D01*
X167749500Y-92961577D01*
X167749500Y-93158422D01*
X167780290Y-93352826D01*
X167841117Y-93540029D01*
X167918642Y-93692179D01*
X167930476Y-93715405D01*
X168046172Y-93874646D01*
X168185354Y-94013828D01*
X168344595Y-94129524D01*
X168426262Y-94171135D01*
X168519970Y-94218882D01*
X168519972Y-94218882D01*
X168519975Y-94218884D01*
X168620317Y-94251487D01*
X168707173Y-94279709D01*
X168901578Y-94310500D01*
X168901583Y-94310500D01*
X169098422Y-94310500D01*
X169292826Y-94279709D01*
X169480025Y-94218884D01*
X169483939Y-94216890D01*
X169486709Y-94215478D01*
X169655405Y-94129524D01*
X169752614Y-94058896D01*
X169818420Y-94035416D01*
X169886474Y-94051241D01*
X169935169Y-94101346D01*
X169949500Y-94159214D01*
X169949500Y-94960785D01*
X169929815Y-95027824D01*
X169877011Y-95073579D01*
X169807853Y-95083523D01*
X169752614Y-95061103D01*
X169655405Y-94990476D01*
X169480029Y-94901117D01*
X169292826Y-94840290D01*
X169098422Y-94809500D01*
X169098417Y-94809500D01*
X168901583Y-94809500D01*
X168901578Y-94809500D01*
X168707173Y-94840290D01*
X168519970Y-94901117D01*
X168344594Y-94990476D01*
X168293190Y-95027824D01*
X168185354Y-95106172D01*
X168185352Y-95106174D01*
X168185351Y-95106174D01*
X168046174Y-95245351D01*
X168046174Y-95245352D01*
X168046172Y-95245354D01*
X168021156Y-95279786D01*
X167930476Y-95404594D01*
X167841117Y-95579970D01*
X167780290Y-95767173D01*
X167749500Y-95961577D01*
X167749500Y-96158422D01*
X167780290Y-96352826D01*
X167841117Y-96540029D01*
X167891937Y-96639768D01*
X167930476Y-96715405D01*
X168046172Y-96874646D01*
X168185354Y-97013828D01*
X168344595Y-97129524D01*
X168427455Y-97171743D01*
X168519970Y-97218882D01*
X168519972Y-97218882D01*
X168519975Y-97218884D01*
X168603848Y-97246136D01*
X168707173Y-97279709D01*
X168901578Y-97310500D01*
X168901583Y-97310500D01*
X169098422Y-97310500D01*
X169292826Y-97279709D01*
X169294328Y-97279221D01*
X169480025Y-97218884D01*
X169652519Y-97130994D01*
X169721184Y-97118099D01*
X169785924Y-97144375D01*
X169826182Y-97201481D01*
X169830427Y-97265671D01*
X169799500Y-97421153D01*
X169799500Y-97578846D01*
X169830261Y-97733489D01*
X169830264Y-97733501D01*
X169890602Y-97879172D01*
X169890609Y-97879185D01*
X169978210Y-98010288D01*
X169978213Y-98010292D01*
X170089707Y-98121786D01*
X170089711Y-98121789D01*
X170220814Y-98209390D01*
X170220827Y-98209397D01*
X170320060Y-98250500D01*
X170366503Y-98269737D01*
X170521153Y-98300499D01*
X170521156Y-98300500D01*
X170521158Y-98300500D01*
X170678844Y-98300500D01*
X170678845Y-98300499D01*
X170833497Y-98269737D01*
X170946166Y-98223067D01*
X170979172Y-98209397D01*
X170979172Y-98209396D01*
X170979179Y-98209394D01*
X171110289Y-98121789D01*
X171221789Y-98010289D01*
X171309394Y-97879179D01*
X171369737Y-97733497D01*
X171400500Y-97578842D01*
X171400500Y-97421158D01*
X171400500Y-97421155D01*
X171390504Y-97370905D01*
X171396731Y-97301314D01*
X171439593Y-97246136D01*
X171505483Y-97222891D01*
X171550436Y-97228781D01*
X171659206Y-97264123D01*
X171707173Y-97279709D01*
X171901578Y-97310500D01*
X171901583Y-97310500D01*
X172098422Y-97310500D01*
X172292826Y-97279709D01*
X172294328Y-97279221D01*
X172480025Y-97218884D01*
X172655405Y-97129524D01*
X172814646Y-97013828D01*
X172953828Y-96874646D01*
X173069524Y-96715405D01*
X173158884Y-96540025D01*
X173219709Y-96352826D01*
X173233029Y-96268725D01*
X173250500Y-96158422D01*
X173250500Y-95961577D01*
X173749500Y-95961577D01*
X173749500Y-96158422D01*
X173780290Y-96352826D01*
X173841117Y-96540029D01*
X173891937Y-96639768D01*
X173930476Y-96715405D01*
X174046172Y-96874646D01*
X174185354Y-97013828D01*
X174344595Y-97129524D01*
X174427455Y-97171743D01*
X174519970Y-97218882D01*
X174519972Y-97218882D01*
X174519975Y-97218884D01*
X174603848Y-97246136D01*
X174707173Y-97279709D01*
X174901578Y-97310500D01*
X174901583Y-97310500D01*
X175098422Y-97310500D01*
X175292826Y-97279709D01*
X175294328Y-97279221D01*
X175480025Y-97218884D01*
X175655405Y-97129524D01*
X175814646Y-97013828D01*
X175953828Y-96874646D01*
X176069524Y-96715405D01*
X176158884Y-96540025D01*
X176219709Y-96352826D01*
X176233029Y-96268725D01*
X176250500Y-96158422D01*
X176250500Y-95961617D01*
X176750000Y-95961617D01*
X176750000Y-96158382D01*
X176780778Y-96352705D01*
X176841581Y-96539835D01*
X176930905Y-96715145D01*
X176956319Y-96750125D01*
X176956320Y-96750125D01*
X177508871Y-96197574D01*
X177524755Y-96256853D01*
X177591898Y-96373147D01*
X177686853Y-96468102D01*
X177803147Y-96535245D01*
X177862424Y-96551128D01*
X177309873Y-97103677D01*
X177309873Y-97103678D01*
X177344858Y-97129096D01*
X177520164Y-97218418D01*
X177707294Y-97279221D01*
X177901618Y-97310000D01*
X178098382Y-97310000D01*
X178292705Y-97279221D01*
X178479835Y-97218418D01*
X178655143Y-97129095D01*
X178690125Y-97103678D01*
X178690126Y-97103678D01*
X178137575Y-96551127D01*
X178196853Y-96535245D01*
X178313147Y-96468102D01*
X178408102Y-96373147D01*
X178475245Y-96256853D01*
X178491127Y-96197575D01*
X179043678Y-96750126D01*
X179043678Y-96750125D01*
X179069095Y-96715143D01*
X179158418Y-96539835D01*
X179219221Y-96352705D01*
X179250000Y-96158382D01*
X179250000Y-95961617D01*
X179750000Y-95961617D01*
X179750000Y-96158382D01*
X179780778Y-96352705D01*
X179841581Y-96539835D01*
X179930905Y-96715145D01*
X179956319Y-96750125D01*
X179956320Y-96750125D01*
X180508871Y-96197574D01*
X180524755Y-96256853D01*
X180591898Y-96373147D01*
X180686853Y-96468102D01*
X180803147Y-96535245D01*
X180862424Y-96551128D01*
X180309873Y-97103677D01*
X180309873Y-97103678D01*
X180344858Y-97129096D01*
X180520164Y-97218418D01*
X180707294Y-97279221D01*
X180901618Y-97310000D01*
X181098382Y-97310000D01*
X181292705Y-97279221D01*
X181479835Y-97218418D01*
X181655143Y-97129095D01*
X181690125Y-97103678D01*
X181690126Y-97103678D01*
X181137575Y-96551127D01*
X181196853Y-96535245D01*
X181313147Y-96468102D01*
X181408102Y-96373147D01*
X181475245Y-96256853D01*
X181491127Y-96197575D01*
X182043678Y-96750126D01*
X182043678Y-96750125D01*
X182069095Y-96715143D01*
X182158418Y-96539835D01*
X182219221Y-96352705D01*
X182250000Y-96158382D01*
X182250000Y-95961617D01*
X182249994Y-95961577D01*
X182749500Y-95961577D01*
X182749500Y-96158422D01*
X182780290Y-96352826D01*
X182841117Y-96540029D01*
X182891937Y-96639768D01*
X182930476Y-96715405D01*
X183046172Y-96874646D01*
X183185354Y-97013828D01*
X183344595Y-97129524D01*
X183427455Y-97171743D01*
X183519970Y-97218882D01*
X183519972Y-97218882D01*
X183519975Y-97218884D01*
X183603848Y-97246136D01*
X183707173Y-97279709D01*
X183901578Y-97310500D01*
X183901583Y-97310500D01*
X184098422Y-97310500D01*
X184292826Y-97279709D01*
X184294328Y-97279221D01*
X184480025Y-97218884D01*
X184655405Y-97129524D01*
X184814646Y-97013828D01*
X184953828Y-96874646D01*
X185069524Y-96715405D01*
X185158884Y-96540025D01*
X185219709Y-96352826D01*
X185233029Y-96268725D01*
X185250500Y-96158422D01*
X185250500Y-95961577D01*
X185749500Y-95961577D01*
X185749500Y-96158422D01*
X185780290Y-96352826D01*
X185841117Y-96540029D01*
X185891937Y-96639768D01*
X185930476Y-96715405D01*
X186046172Y-96874646D01*
X186185354Y-97013828D01*
X186344595Y-97129524D01*
X186427455Y-97171743D01*
X186519970Y-97218882D01*
X186519972Y-97218882D01*
X186519975Y-97218884D01*
X186603848Y-97246136D01*
X186707173Y-97279709D01*
X186901578Y-97310500D01*
X186901583Y-97310500D01*
X187098422Y-97310500D01*
X187292826Y-97279709D01*
X187294328Y-97279221D01*
X187480025Y-97218884D01*
X187655405Y-97129524D01*
X187814646Y-97013828D01*
X187903382Y-96925092D01*
X189239500Y-96925092D01*
X189239500Y-97074907D01*
X189268723Y-97221822D01*
X189268725Y-97221830D01*
X189326051Y-97360229D01*
X189326056Y-97360238D01*
X189409280Y-97484790D01*
X189409283Y-97484794D01*
X189515205Y-97590716D01*
X189515209Y-97590719D01*
X189639761Y-97673943D01*
X189639767Y-97673946D01*
X189639768Y-97673947D01*
X189778170Y-97731275D01*
X189925092Y-97760499D01*
X189925096Y-97760500D01*
X189925097Y-97760500D01*
X190074904Y-97760500D01*
X190074905Y-97760499D01*
X190221830Y-97731275D01*
X190360232Y-97673947D01*
X190484791Y-97590719D01*
X190590719Y-97484791D01*
X190673947Y-97360232D01*
X190731275Y-97221830D01*
X190760500Y-97074903D01*
X190760500Y-96925097D01*
X190731275Y-96778170D01*
X190673947Y-96639768D01*
X190673946Y-96639767D01*
X190673943Y-96639761D01*
X190590719Y-96515209D01*
X190590716Y-96515205D01*
X190484794Y-96409283D01*
X190484790Y-96409280D01*
X190360238Y-96326056D01*
X190360229Y-96326051D01*
X190221830Y-96268725D01*
X190221822Y-96268723D01*
X190074907Y-96239500D01*
X190074903Y-96239500D01*
X189925097Y-96239500D01*
X189925092Y-96239500D01*
X189778177Y-96268723D01*
X189778169Y-96268725D01*
X189639770Y-96326051D01*
X189639761Y-96326056D01*
X189515209Y-96409280D01*
X189515205Y-96409283D01*
X189409283Y-96515205D01*
X189409280Y-96515209D01*
X189326056Y-96639761D01*
X189326051Y-96639770D01*
X189268725Y-96778169D01*
X189268723Y-96778177D01*
X189239500Y-96925092D01*
X187903382Y-96925092D01*
X187953828Y-96874646D01*
X188069524Y-96715405D01*
X188158884Y-96540025D01*
X188219709Y-96352826D01*
X188233029Y-96268725D01*
X188250500Y-96158422D01*
X188250500Y-95961577D01*
X188219709Y-95767173D01*
X188173636Y-95625376D01*
X188158884Y-95579975D01*
X188158882Y-95579972D01*
X188158882Y-95579970D01*
X188082521Y-95430103D01*
X188069524Y-95404595D01*
X187953828Y-95245354D01*
X187814646Y-95106172D01*
X187655405Y-94990476D01*
X187594515Y-94959451D01*
X187480029Y-94901117D01*
X187292826Y-94840290D01*
X187098422Y-94809500D01*
X187098417Y-94809500D01*
X186901583Y-94809500D01*
X186901578Y-94809500D01*
X186707173Y-94840290D01*
X186519970Y-94901117D01*
X186344594Y-94990476D01*
X186293190Y-95027824D01*
X186185354Y-95106172D01*
X186185352Y-95106174D01*
X186185351Y-95106174D01*
X186046174Y-95245351D01*
X186046174Y-95245352D01*
X186046172Y-95245354D01*
X186021156Y-95279786D01*
X185930476Y-95404594D01*
X185841117Y-95579970D01*
X185780290Y-95767173D01*
X185749500Y-95961577D01*
X185250500Y-95961577D01*
X185219709Y-95767173D01*
X185173636Y-95625376D01*
X185158884Y-95579975D01*
X185158882Y-95579972D01*
X185158882Y-95579970D01*
X185082521Y-95430103D01*
X185069524Y-95404595D01*
X184953828Y-95245354D01*
X184814646Y-95106172D01*
X184655405Y-94990476D01*
X184594515Y-94959451D01*
X184480029Y-94901117D01*
X184292826Y-94840290D01*
X184098422Y-94809500D01*
X184098417Y-94809500D01*
X183901583Y-94809500D01*
X183901578Y-94809500D01*
X183707173Y-94840290D01*
X183519970Y-94901117D01*
X183344594Y-94990476D01*
X183293190Y-95027824D01*
X183185354Y-95106172D01*
X183185352Y-95106174D01*
X183185351Y-95106174D01*
X183046174Y-95245351D01*
X183046174Y-95245352D01*
X183046172Y-95245354D01*
X183021156Y-95279786D01*
X182930476Y-95404594D01*
X182841117Y-95579970D01*
X182780290Y-95767173D01*
X182749500Y-95961577D01*
X182249994Y-95961577D01*
X182219221Y-95767294D01*
X182158418Y-95580164D01*
X182069096Y-95404858D01*
X182043678Y-95369873D01*
X182043677Y-95369873D01*
X181491127Y-95922423D01*
X181475245Y-95863147D01*
X181408102Y-95746853D01*
X181313147Y-95651898D01*
X181196853Y-95584755D01*
X181137574Y-95568871D01*
X181690125Y-95016320D01*
X181690125Y-95016319D01*
X181655145Y-94990905D01*
X181479835Y-94901581D01*
X181292705Y-94840778D01*
X181098382Y-94810000D01*
X180901618Y-94810000D01*
X180707294Y-94840778D01*
X180520161Y-94901582D01*
X180344863Y-94990899D01*
X180344859Y-94990902D01*
X180309873Y-95016320D01*
X180309872Y-95016320D01*
X180862425Y-95568871D01*
X180803147Y-95584755D01*
X180686853Y-95651898D01*
X180591898Y-95746853D01*
X180524755Y-95863147D01*
X180508871Y-95922424D01*
X179956320Y-95369872D01*
X179956320Y-95369873D01*
X179930902Y-95404859D01*
X179930899Y-95404863D01*
X179841582Y-95580161D01*
X179780778Y-95767294D01*
X179750000Y-95961617D01*
X179250000Y-95961617D01*
X179219221Y-95767294D01*
X179158418Y-95580164D01*
X179069096Y-95404858D01*
X179043678Y-95369873D01*
X179043677Y-95369873D01*
X178491127Y-95922423D01*
X178475245Y-95863147D01*
X178408102Y-95746853D01*
X178313147Y-95651898D01*
X178196853Y-95584755D01*
X178137574Y-95568871D01*
X178690125Y-95016320D01*
X178690125Y-95016319D01*
X178655145Y-94990905D01*
X178479835Y-94901581D01*
X178292705Y-94840778D01*
X178098382Y-94810000D01*
X177901618Y-94810000D01*
X177707294Y-94840778D01*
X177520161Y-94901582D01*
X177344863Y-94990899D01*
X177344859Y-94990902D01*
X177309873Y-95016320D01*
X177309872Y-95016320D01*
X177862425Y-95568871D01*
X177803147Y-95584755D01*
X177686853Y-95651898D01*
X177591898Y-95746853D01*
X177524755Y-95863147D01*
X177508871Y-95922424D01*
X176956320Y-95369872D01*
X176956320Y-95369873D01*
X176930902Y-95404859D01*
X176930899Y-95404863D01*
X176841582Y-95580161D01*
X176780778Y-95767294D01*
X176750000Y-95961617D01*
X176250500Y-95961617D01*
X176250500Y-95961577D01*
X176219709Y-95767173D01*
X176173636Y-95625376D01*
X176158884Y-95579975D01*
X176158882Y-95579972D01*
X176158882Y-95579970D01*
X176082521Y-95430103D01*
X176069524Y-95404595D01*
X175953828Y-95245354D01*
X175814646Y-95106172D01*
X175655405Y-94990476D01*
X175594515Y-94959451D01*
X175480029Y-94901117D01*
X175292826Y-94840290D01*
X175098422Y-94809500D01*
X175098417Y-94809500D01*
X174901583Y-94809500D01*
X174901578Y-94809500D01*
X174707173Y-94840290D01*
X174519970Y-94901117D01*
X174344594Y-94990476D01*
X174293190Y-95027824D01*
X174185354Y-95106172D01*
X174185352Y-95106174D01*
X174185351Y-95106174D01*
X174046174Y-95245351D01*
X174046174Y-95245352D01*
X174046172Y-95245354D01*
X174021156Y-95279786D01*
X173930476Y-95404594D01*
X173841117Y-95579970D01*
X173780290Y-95767173D01*
X173749500Y-95961577D01*
X173250500Y-95961577D01*
X173219709Y-95767173D01*
X173173636Y-95625376D01*
X173158884Y-95579975D01*
X173158882Y-95579972D01*
X173158882Y-95579970D01*
X173082521Y-95430103D01*
X173069524Y-95404595D01*
X172953828Y-95245354D01*
X172814646Y-95106172D01*
X172655405Y-94990476D01*
X172594515Y-94959451D01*
X172480029Y-94901117D01*
X172292826Y-94840290D01*
X172098422Y-94809500D01*
X172098417Y-94809500D01*
X171901583Y-94809500D01*
X171901578Y-94809500D01*
X171707173Y-94840290D01*
X171519970Y-94901117D01*
X171430795Y-94946555D01*
X171362125Y-94959451D01*
X171297385Y-94933174D01*
X171257128Y-94876068D01*
X171250500Y-94836070D01*
X171250500Y-94283929D01*
X171270185Y-94216890D01*
X171322989Y-94171135D01*
X171392147Y-94161191D01*
X171430795Y-94173445D01*
X171519966Y-94218880D01*
X171519964Y-94218880D01*
X171519972Y-94218882D01*
X171519975Y-94218884D01*
X171626153Y-94253383D01*
X171707173Y-94279709D01*
X171901578Y-94310500D01*
X171901583Y-94310500D01*
X172098422Y-94310500D01*
X172292826Y-94279709D01*
X172480025Y-94218884D01*
X172655405Y-94129524D01*
X172814646Y-94013828D01*
X172953828Y-93874646D01*
X173069524Y-93715405D01*
X173158884Y-93540025D01*
X173219709Y-93352826D01*
X173250500Y-93158422D01*
X173250500Y-92961577D01*
X173749500Y-92961577D01*
X173749500Y-93158422D01*
X173780290Y-93352826D01*
X173841117Y-93540029D01*
X173918642Y-93692179D01*
X173930476Y-93715405D01*
X174046172Y-93874646D01*
X174185354Y-94013828D01*
X174344595Y-94129524D01*
X174426262Y-94171135D01*
X174519970Y-94218882D01*
X174519972Y-94218882D01*
X174519975Y-94218884D01*
X174620317Y-94251487D01*
X174707173Y-94279709D01*
X174901578Y-94310500D01*
X174901583Y-94310500D01*
X175098422Y-94310500D01*
X175292826Y-94279709D01*
X175480025Y-94218884D01*
X175655405Y-94129524D01*
X175814646Y-94013828D01*
X175953828Y-93874646D01*
X176069524Y-93715405D01*
X176158884Y-93540025D01*
X176219709Y-93352826D01*
X176250500Y-93158422D01*
X176250500Y-92961577D01*
X176749500Y-92961577D01*
X176749500Y-93158422D01*
X176780290Y-93352826D01*
X176841117Y-93540029D01*
X176918642Y-93692179D01*
X176930476Y-93715405D01*
X177046172Y-93874646D01*
X177185354Y-94013828D01*
X177344595Y-94129524D01*
X177426262Y-94171135D01*
X177519970Y-94218882D01*
X177519972Y-94218882D01*
X177519975Y-94218884D01*
X177620317Y-94251487D01*
X177707173Y-94279709D01*
X177901578Y-94310500D01*
X177901583Y-94310500D01*
X178098422Y-94310500D01*
X178292826Y-94279709D01*
X178480025Y-94218884D01*
X178655405Y-94129524D01*
X178814646Y-94013828D01*
X178953828Y-93874646D01*
X179069524Y-93715405D01*
X179158884Y-93540025D01*
X179219709Y-93352826D01*
X179250500Y-93158422D01*
X179250500Y-92961577D01*
X179749500Y-92961577D01*
X179749500Y-93158422D01*
X179780290Y-93352826D01*
X179841117Y-93540029D01*
X179918642Y-93692179D01*
X179930476Y-93715405D01*
X180046172Y-93874646D01*
X180185354Y-94013828D01*
X180344595Y-94129524D01*
X180426262Y-94171135D01*
X180519970Y-94218882D01*
X180519972Y-94218882D01*
X180519975Y-94218884D01*
X180620317Y-94251487D01*
X180707173Y-94279709D01*
X180901578Y-94310500D01*
X180901583Y-94310500D01*
X181098422Y-94310500D01*
X181292826Y-94279709D01*
X181480025Y-94218884D01*
X181655405Y-94129524D01*
X181814646Y-94013828D01*
X181953828Y-93874646D01*
X182069524Y-93715405D01*
X182158884Y-93540025D01*
X182219709Y-93352826D01*
X182250500Y-93158422D01*
X182250500Y-92961577D01*
X182749500Y-92961577D01*
X182749500Y-93158422D01*
X182780290Y-93352826D01*
X182841117Y-93540029D01*
X182918642Y-93692179D01*
X182930476Y-93715405D01*
X183046172Y-93874646D01*
X183185354Y-94013828D01*
X183344595Y-94129524D01*
X183426262Y-94171135D01*
X183519970Y-94218882D01*
X183519972Y-94218882D01*
X183519975Y-94218884D01*
X183620317Y-94251487D01*
X183707173Y-94279709D01*
X183901578Y-94310500D01*
X183901583Y-94310500D01*
X184098422Y-94310500D01*
X184292826Y-94279709D01*
X184480025Y-94218884D01*
X184655405Y-94129524D01*
X184814646Y-94013828D01*
X184953828Y-93874646D01*
X185069524Y-93715405D01*
X185158884Y-93540025D01*
X185219709Y-93352826D01*
X185250500Y-93158422D01*
X185250500Y-92961577D01*
X185749500Y-92961577D01*
X185749500Y-93158422D01*
X185780290Y-93352826D01*
X185841117Y-93540029D01*
X185918642Y-93692179D01*
X185930476Y-93715405D01*
X186046172Y-93874646D01*
X186185354Y-94013828D01*
X186344595Y-94129524D01*
X186426262Y-94171135D01*
X186519970Y-94218882D01*
X186519972Y-94218882D01*
X186519975Y-94218884D01*
X186620317Y-94251487D01*
X186707173Y-94279709D01*
X186901578Y-94310500D01*
X186901583Y-94310500D01*
X187098422Y-94310500D01*
X187292826Y-94279709D01*
X187480025Y-94218884D01*
X187655405Y-94129524D01*
X187814646Y-94013828D01*
X187953828Y-93874646D01*
X188069524Y-93715405D01*
X188158884Y-93540025D01*
X188219709Y-93352826D01*
X188250500Y-93158422D01*
X188250500Y-92961577D01*
X188219709Y-92767173D01*
X188158882Y-92579970D01*
X188069523Y-92404594D01*
X187953828Y-92245354D01*
X187814646Y-92106172D01*
X187655405Y-91990476D01*
X187579554Y-91951828D01*
X187480029Y-91901117D01*
X187292826Y-91840290D01*
X187098422Y-91809500D01*
X187098417Y-91809500D01*
X186901583Y-91809500D01*
X186901578Y-91809500D01*
X186707173Y-91840290D01*
X186519970Y-91901117D01*
X186344594Y-91990476D01*
X186321634Y-92007158D01*
X186185354Y-92106172D01*
X186185352Y-92106174D01*
X186185351Y-92106174D01*
X186046174Y-92245351D01*
X186046174Y-92245352D01*
X186046172Y-92245354D01*
X185996485Y-92313741D01*
X185930476Y-92404594D01*
X185841117Y-92579970D01*
X185780290Y-92767173D01*
X185749500Y-92961577D01*
X185250500Y-92961577D01*
X185219709Y-92767173D01*
X185158882Y-92579970D01*
X185069523Y-92404594D01*
X184953828Y-92245354D01*
X184814646Y-92106172D01*
X184655405Y-91990476D01*
X184579554Y-91951828D01*
X184480029Y-91901117D01*
X184292826Y-91840290D01*
X184098422Y-91809500D01*
X184098417Y-91809500D01*
X183901583Y-91809500D01*
X183901578Y-91809500D01*
X183707173Y-91840290D01*
X183519970Y-91901117D01*
X183344594Y-91990476D01*
X183321634Y-92007158D01*
X183185354Y-92106172D01*
X183185352Y-92106174D01*
X183185351Y-92106174D01*
X183046174Y-92245351D01*
X183046174Y-92245352D01*
X183046172Y-92245354D01*
X182996485Y-92313741D01*
X182930476Y-92404594D01*
X182841117Y-92579970D01*
X182780290Y-92767173D01*
X182749500Y-92961577D01*
X182250500Y-92961577D01*
X182219709Y-92767173D01*
X182158882Y-92579970D01*
X182069523Y-92404594D01*
X181953828Y-92245354D01*
X181814646Y-92106172D01*
X181655405Y-91990476D01*
X181579554Y-91951828D01*
X181480029Y-91901117D01*
X181292826Y-91840290D01*
X181098422Y-91809500D01*
X181098417Y-91809500D01*
X180901583Y-91809500D01*
X180901578Y-91809500D01*
X180707173Y-91840290D01*
X180519970Y-91901117D01*
X180344594Y-91990476D01*
X180321634Y-92007158D01*
X180185354Y-92106172D01*
X180185352Y-92106174D01*
X180185351Y-92106174D01*
X180046174Y-92245351D01*
X180046174Y-92245352D01*
X180046172Y-92245354D01*
X179996485Y-92313741D01*
X179930476Y-92404594D01*
X179841117Y-92579970D01*
X179780290Y-92767173D01*
X179749500Y-92961577D01*
X179250500Y-92961577D01*
X179219709Y-92767173D01*
X179158882Y-92579970D01*
X179069523Y-92404594D01*
X178953828Y-92245354D01*
X178814646Y-92106172D01*
X178655405Y-91990476D01*
X178579554Y-91951828D01*
X178480029Y-91901117D01*
X178292826Y-91840290D01*
X178098422Y-91809500D01*
X178098417Y-91809500D01*
X177901583Y-91809500D01*
X177901578Y-91809500D01*
X177707173Y-91840290D01*
X177519970Y-91901117D01*
X177344594Y-91990476D01*
X177321634Y-92007158D01*
X177185354Y-92106172D01*
X177185352Y-92106174D01*
X177185351Y-92106174D01*
X177046174Y-92245351D01*
X177046174Y-92245352D01*
X177046172Y-92245354D01*
X176996485Y-92313741D01*
X176930476Y-92404594D01*
X176841117Y-92579970D01*
X176780290Y-92767173D01*
X176749500Y-92961577D01*
X176250500Y-92961577D01*
X176219709Y-92767173D01*
X176158882Y-92579970D01*
X176069523Y-92404594D01*
X175953828Y-92245354D01*
X175814646Y-92106172D01*
X175655405Y-91990476D01*
X175579554Y-91951828D01*
X175480029Y-91901117D01*
X175292826Y-91840290D01*
X175098422Y-91809500D01*
X175098417Y-91809500D01*
X174901583Y-91809500D01*
X174901578Y-91809500D01*
X174707173Y-91840290D01*
X174519970Y-91901117D01*
X174344594Y-91990476D01*
X174321634Y-92007158D01*
X174185354Y-92106172D01*
X174185352Y-92106174D01*
X174185351Y-92106174D01*
X174046174Y-92245351D01*
X174046174Y-92245352D01*
X174046172Y-92245354D01*
X173996485Y-92313741D01*
X173930476Y-92404594D01*
X173841117Y-92579970D01*
X173780290Y-92767173D01*
X173749500Y-92961577D01*
X173250500Y-92961577D01*
X173219709Y-92767173D01*
X173158882Y-92579970D01*
X173069523Y-92404594D01*
X172953828Y-92245354D01*
X172814646Y-92106172D01*
X172678364Y-92007156D01*
X172635699Y-91951828D01*
X172629634Y-91931034D01*
X172625501Y-91910256D01*
X172576465Y-91791873D01*
X172576464Y-91791870D01*
X172505277Y-91685331D01*
X172505271Y-91685324D01*
X165563660Y-84743713D01*
X167049500Y-84743713D01*
X167049500Y-85256286D01*
X167082753Y-85466239D01*
X167148444Y-85668414D01*
X167244951Y-85857820D01*
X167369890Y-86029786D01*
X167520213Y-86180109D01*
X167692179Y-86305048D01*
X167692181Y-86305049D01*
X167692184Y-86305051D01*
X167881588Y-86401557D01*
X168083757Y-86467246D01*
X168293713Y-86500500D01*
X168293714Y-86500500D01*
X168506286Y-86500500D01*
X168506287Y-86500500D01*
X168716243Y-86467246D01*
X168918412Y-86401557D01*
X169107816Y-86305051D01*
X169142230Y-86280048D01*
X169279786Y-86180109D01*
X169279788Y-86180106D01*
X169279792Y-86180104D01*
X169430104Y-86029792D01*
X169549683Y-85865204D01*
X169605011Y-85822540D01*
X169674624Y-85816561D01*
X169736420Y-85849166D01*
X169750313Y-85865199D01*
X169781279Y-85907820D01*
X169869896Y-86029792D01*
X170020213Y-86180109D01*
X170192179Y-86305048D01*
X170192181Y-86305049D01*
X170192184Y-86305051D01*
X170381588Y-86401557D01*
X170583757Y-86467246D01*
X170793713Y-86500500D01*
X170793714Y-86500500D01*
X171006286Y-86500500D01*
X171006287Y-86500500D01*
X171216243Y-86467246D01*
X171418412Y-86401557D01*
X171607816Y-86305051D01*
X171642230Y-86280048D01*
X171779786Y-86180109D01*
X171779788Y-86180106D01*
X171779792Y-86180104D01*
X171930104Y-86029792D01*
X171930106Y-86029788D01*
X171930109Y-86029786D01*
X172055048Y-85857820D01*
X172055047Y-85857820D01*
X172055051Y-85857816D01*
X172151557Y-85668412D01*
X172217246Y-85466243D01*
X172250500Y-85256287D01*
X172250500Y-84768713D01*
X174649500Y-84768713D01*
X174649500Y-85231287D01*
X174653460Y-85256287D01*
X174682753Y-85441239D01*
X174748444Y-85643414D01*
X174844951Y-85832820D01*
X174969890Y-86004786D01*
X175120213Y-86155109D01*
X175292179Y-86280048D01*
X175292181Y-86280049D01*
X175292184Y-86280051D01*
X175481588Y-86376557D01*
X175683757Y-86442246D01*
X175893713Y-86475500D01*
X175893714Y-86475500D01*
X176106286Y-86475500D01*
X176106287Y-86475500D01*
X176316243Y-86442246D01*
X176518412Y-86376557D01*
X176707816Y-86280051D01*
X176776556Y-86230109D01*
X176879786Y-86155109D01*
X176879788Y-86155106D01*
X176879792Y-86155104D01*
X177030104Y-86004792D01*
X177149683Y-85840204D01*
X177205011Y-85797540D01*
X177274624Y-85791561D01*
X177336420Y-85824166D01*
X177350313Y-85840199D01*
X177469892Y-86004786D01*
X177469896Y-86004792D01*
X177620213Y-86155109D01*
X177792179Y-86280048D01*
X177792181Y-86280049D01*
X177792184Y-86280051D01*
X177981588Y-86376557D01*
X178183757Y-86442246D01*
X178393713Y-86475500D01*
X178393714Y-86475500D01*
X178606286Y-86475500D01*
X178606287Y-86475500D01*
X178816243Y-86442246D01*
X179018412Y-86376557D01*
X179207816Y-86280051D01*
X179276556Y-86230109D01*
X179379786Y-86155109D01*
X179379788Y-86155106D01*
X179379792Y-86155104D01*
X179530104Y-86004792D01*
X179649683Y-85840204D01*
X179705011Y-85797540D01*
X179774624Y-85791561D01*
X179836420Y-85824166D01*
X179850313Y-85840199D01*
X179969892Y-86004786D01*
X179969896Y-86004792D01*
X180120213Y-86155109D01*
X180292179Y-86280048D01*
X180292181Y-86280049D01*
X180292184Y-86280051D01*
X180481588Y-86376557D01*
X180683757Y-86442246D01*
X180893713Y-86475500D01*
X180893714Y-86475500D01*
X181106286Y-86475500D01*
X181106287Y-86475500D01*
X181316243Y-86442246D01*
X181518412Y-86376557D01*
X181707816Y-86280051D01*
X181776556Y-86230109D01*
X181879786Y-86155109D01*
X181879788Y-86155106D01*
X181879792Y-86155104D01*
X182030104Y-86004792D01*
X182149683Y-85840204D01*
X182205011Y-85797540D01*
X182274624Y-85791561D01*
X182336420Y-85824166D01*
X182350313Y-85840199D01*
X182469892Y-86004786D01*
X182469896Y-86004792D01*
X182620213Y-86155109D01*
X182792179Y-86280048D01*
X182792181Y-86280049D01*
X182792184Y-86280051D01*
X182981588Y-86376557D01*
X183183757Y-86442246D01*
X183393713Y-86475500D01*
X183393714Y-86475500D01*
X183606286Y-86475500D01*
X183606287Y-86475500D01*
X183816243Y-86442246D01*
X184018412Y-86376557D01*
X184207816Y-86280051D01*
X184276556Y-86230109D01*
X184379786Y-86155109D01*
X184379788Y-86155106D01*
X184379792Y-86155104D01*
X184530104Y-86004792D01*
X184530106Y-86004788D01*
X184530109Y-86004786D01*
X184655048Y-85832820D01*
X184655047Y-85832820D01*
X184655051Y-85832816D01*
X184751557Y-85643412D01*
X184817246Y-85441243D01*
X184850500Y-85231287D01*
X184850500Y-85093713D01*
X186999500Y-85093713D01*
X186999500Y-85306286D01*
X187032753Y-85516239D01*
X187098444Y-85718414D01*
X187194951Y-85907820D01*
X187319890Y-86079786D01*
X187470209Y-86230105D01*
X187470214Y-86230109D01*
X187634793Y-86349682D01*
X187677459Y-86405011D01*
X187683438Y-86474625D01*
X187650833Y-86536420D01*
X187634793Y-86550318D01*
X187470214Y-86669890D01*
X187470209Y-86669894D01*
X187319890Y-86820213D01*
X187194951Y-86992179D01*
X187098444Y-87181585D01*
X187032753Y-87383760D01*
X186999500Y-87593713D01*
X186999500Y-87806286D01*
X187032753Y-88016239D01*
X187098444Y-88218414D01*
X187194951Y-88407820D01*
X187319890Y-88579786D01*
X187470213Y-88730109D01*
X187642179Y-88855048D01*
X187642181Y-88855049D01*
X187642184Y-88855051D01*
X187831588Y-88951557D01*
X188033757Y-89017246D01*
X188243713Y-89050500D01*
X188243714Y-89050500D01*
X188756286Y-89050500D01*
X188756287Y-89050500D01*
X188966243Y-89017246D01*
X189168412Y-88951557D01*
X189357816Y-88855051D01*
X189379789Y-88839086D01*
X189529786Y-88730109D01*
X189529788Y-88730106D01*
X189529792Y-88730104D01*
X189680104Y-88579792D01*
X189680106Y-88579788D01*
X189680109Y-88579786D01*
X189805048Y-88407820D01*
X189805047Y-88407820D01*
X189805051Y-88407816D01*
X189901557Y-88218412D01*
X189967246Y-88016243D01*
X190000500Y-87806287D01*
X190000500Y-87593713D01*
X189967246Y-87383757D01*
X189901557Y-87181588D01*
X189805051Y-86992184D01*
X189805049Y-86992181D01*
X189805048Y-86992179D01*
X189680109Y-86820213D01*
X189529792Y-86669896D01*
X189529784Y-86669890D01*
X189365204Y-86550316D01*
X189322540Y-86494989D01*
X189316561Y-86425376D01*
X189349166Y-86363580D01*
X189365199Y-86349686D01*
X189529792Y-86230104D01*
X189680104Y-86079792D01*
X189680106Y-86079788D01*
X189680109Y-86079786D01*
X189805048Y-85907820D01*
X189805047Y-85907820D01*
X189805051Y-85907816D01*
X189901557Y-85718412D01*
X189967246Y-85516243D01*
X190000500Y-85306287D01*
X190000500Y-85093713D01*
X192999500Y-85093713D01*
X192999500Y-85306286D01*
X193032753Y-85516239D01*
X193098444Y-85718414D01*
X193194951Y-85907820D01*
X193319890Y-86079786D01*
X193470209Y-86230105D01*
X193470214Y-86230109D01*
X193634793Y-86349682D01*
X193677459Y-86405011D01*
X193683438Y-86474625D01*
X193650833Y-86536420D01*
X193634793Y-86550318D01*
X193470214Y-86669890D01*
X193470209Y-86669894D01*
X193319890Y-86820213D01*
X193194951Y-86992179D01*
X193098444Y-87181585D01*
X193032753Y-87383760D01*
X192999500Y-87593713D01*
X192999500Y-87806286D01*
X193032753Y-88016239D01*
X193098444Y-88218414D01*
X193194951Y-88407820D01*
X193319890Y-88579786D01*
X193470213Y-88730109D01*
X193642179Y-88855048D01*
X193642181Y-88855049D01*
X193642184Y-88855051D01*
X193831588Y-88951557D01*
X194033757Y-89017246D01*
X194243713Y-89050500D01*
X194243714Y-89050500D01*
X194756286Y-89050500D01*
X194756287Y-89050500D01*
X194966243Y-89017246D01*
X195168412Y-88951557D01*
X195357816Y-88855051D01*
X195379789Y-88839086D01*
X195529786Y-88730109D01*
X195529788Y-88730106D01*
X195529792Y-88730104D01*
X195680104Y-88579792D01*
X195680106Y-88579788D01*
X195680109Y-88579786D01*
X195805048Y-88407820D01*
X195805047Y-88407820D01*
X195805051Y-88407816D01*
X195901557Y-88218412D01*
X195967246Y-88016243D01*
X196000500Y-87806287D01*
X196000500Y-87593713D01*
X195967246Y-87383757D01*
X195901557Y-87181588D01*
X195805051Y-86992184D01*
X195805049Y-86992181D01*
X195805048Y-86992179D01*
X195680109Y-86820213D01*
X195529792Y-86669896D01*
X195529784Y-86669890D01*
X195365204Y-86550316D01*
X195322540Y-86494989D01*
X195316561Y-86425376D01*
X195349166Y-86363580D01*
X195365199Y-86349686D01*
X195529792Y-86230104D01*
X195680104Y-86079792D01*
X195680106Y-86079788D01*
X195680109Y-86079786D01*
X195805048Y-85907820D01*
X195805047Y-85907820D01*
X195805051Y-85907816D01*
X195901557Y-85718412D01*
X195967246Y-85516243D01*
X196000500Y-85306287D01*
X196000500Y-85093713D01*
X195967246Y-84883757D01*
X195901557Y-84681588D01*
X195805051Y-84492184D01*
X195805049Y-84492181D01*
X195805048Y-84492179D01*
X195680109Y-84320213D01*
X195529786Y-84169890D01*
X195357820Y-84044951D01*
X195168414Y-83948444D01*
X195168413Y-83948443D01*
X195168412Y-83948443D01*
X194966243Y-83882754D01*
X194966241Y-83882753D01*
X194966240Y-83882753D01*
X194804957Y-83857208D01*
X194756287Y-83849500D01*
X194243713Y-83849500D01*
X194195042Y-83857208D01*
X194033760Y-83882753D01*
X193831585Y-83948444D01*
X193642179Y-84044951D01*
X193470213Y-84169890D01*
X193319890Y-84320213D01*
X193194951Y-84492179D01*
X193098444Y-84681585D01*
X193032753Y-84883760D01*
X192999500Y-85093713D01*
X190000500Y-85093713D01*
X189967246Y-84883757D01*
X189901557Y-84681588D01*
X189805051Y-84492184D01*
X189805049Y-84492181D01*
X189805048Y-84492179D01*
X189680109Y-84320213D01*
X189529786Y-84169890D01*
X189357820Y-84044951D01*
X189168414Y-83948444D01*
X189168413Y-83948443D01*
X189168412Y-83948443D01*
X188966243Y-83882754D01*
X188966241Y-83882753D01*
X188966240Y-83882753D01*
X188804957Y-83857208D01*
X188756287Y-83849500D01*
X188243713Y-83849500D01*
X188195042Y-83857208D01*
X188033760Y-83882753D01*
X187831585Y-83948444D01*
X187642179Y-84044951D01*
X187470213Y-84169890D01*
X187319890Y-84320213D01*
X187194951Y-84492179D01*
X187098444Y-84681585D01*
X187032753Y-84883760D01*
X186999500Y-85093713D01*
X184850500Y-85093713D01*
X184850500Y-84768713D01*
X184817246Y-84558757D01*
X184751557Y-84356588D01*
X184655051Y-84167184D01*
X184655049Y-84167181D01*
X184655048Y-84167179D01*
X184530109Y-83995213D01*
X184379786Y-83844890D01*
X184207820Y-83719951D01*
X184018414Y-83623444D01*
X184018413Y-83623443D01*
X184018412Y-83623443D01*
X183816243Y-83557754D01*
X183816241Y-83557753D01*
X183816240Y-83557753D01*
X183654957Y-83532208D01*
X183606287Y-83524500D01*
X183393713Y-83524500D01*
X183345042Y-83532208D01*
X183183760Y-83557753D01*
X182981585Y-83623444D01*
X182792179Y-83719951D01*
X182620213Y-83844890D01*
X182469894Y-83995209D01*
X182469890Y-83995214D01*
X182350318Y-84159793D01*
X182294989Y-84202459D01*
X182225375Y-84208438D01*
X182163580Y-84175833D01*
X182149682Y-84159793D01*
X182030109Y-83995214D01*
X182030105Y-83995209D01*
X181879786Y-83844890D01*
X181707820Y-83719951D01*
X181518414Y-83623444D01*
X181518413Y-83623443D01*
X181518412Y-83623443D01*
X181316243Y-83557754D01*
X181316241Y-83557753D01*
X181316240Y-83557753D01*
X181154957Y-83532208D01*
X181106287Y-83524500D01*
X180893713Y-83524500D01*
X180845042Y-83532208D01*
X180683760Y-83557753D01*
X180481585Y-83623444D01*
X180292179Y-83719951D01*
X180120213Y-83844890D01*
X179969894Y-83995209D01*
X179969890Y-83995214D01*
X179850318Y-84159793D01*
X179794989Y-84202459D01*
X179725375Y-84208438D01*
X179663580Y-84175833D01*
X179649682Y-84159793D01*
X179530109Y-83995214D01*
X179530105Y-83995209D01*
X179379786Y-83844890D01*
X179207820Y-83719951D01*
X179018414Y-83623444D01*
X179018413Y-83623443D01*
X179018412Y-83623443D01*
X178816243Y-83557754D01*
X178816241Y-83557753D01*
X178816240Y-83557753D01*
X178654957Y-83532208D01*
X178606287Y-83524500D01*
X178393713Y-83524500D01*
X178345042Y-83532208D01*
X178183760Y-83557753D01*
X177981585Y-83623444D01*
X177792179Y-83719951D01*
X177620213Y-83844890D01*
X177469894Y-83995209D01*
X177469890Y-83995214D01*
X177350318Y-84159793D01*
X177294989Y-84202459D01*
X177225375Y-84208438D01*
X177163580Y-84175833D01*
X177149682Y-84159793D01*
X177030109Y-83995214D01*
X177030105Y-83995209D01*
X176879786Y-83844890D01*
X176707820Y-83719951D01*
X176518414Y-83623444D01*
X176518413Y-83623443D01*
X176518412Y-83623443D01*
X176316243Y-83557754D01*
X176316241Y-83557753D01*
X176316240Y-83557753D01*
X176154957Y-83532208D01*
X176106287Y-83524500D01*
X175893713Y-83524500D01*
X175845042Y-83532208D01*
X175683760Y-83557753D01*
X175481585Y-83623444D01*
X175292179Y-83719951D01*
X175120213Y-83844890D01*
X174969890Y-83995213D01*
X174844951Y-84167179D01*
X174748444Y-84356585D01*
X174748443Y-84356587D01*
X174748443Y-84356588D01*
X174715598Y-84457672D01*
X174682753Y-84558760D01*
X174663300Y-84681585D01*
X174649500Y-84768713D01*
X172250500Y-84768713D01*
X172250500Y-84743713D01*
X172217246Y-84533757D01*
X172151557Y-84331588D01*
X172055051Y-84142184D01*
X172055049Y-84142181D01*
X172055048Y-84142179D01*
X171930109Y-83970213D01*
X171779786Y-83819890D01*
X171607820Y-83694951D01*
X171418414Y-83598444D01*
X171418413Y-83598443D01*
X171418412Y-83598443D01*
X171216243Y-83532754D01*
X171216241Y-83532753D01*
X171216240Y-83532753D01*
X171054957Y-83507208D01*
X171006287Y-83499500D01*
X170793713Y-83499500D01*
X170745042Y-83507208D01*
X170583760Y-83532753D01*
X170381585Y-83598444D01*
X170192179Y-83694951D01*
X170020213Y-83819890D01*
X169869894Y-83970209D01*
X169869890Y-83970214D01*
X169750318Y-84134793D01*
X169694989Y-84177459D01*
X169625375Y-84183438D01*
X169563580Y-84150833D01*
X169549682Y-84134793D01*
X169430109Y-83970214D01*
X169430105Y-83970209D01*
X169279786Y-83819890D01*
X169107820Y-83694951D01*
X168918414Y-83598444D01*
X168918413Y-83598443D01*
X168918412Y-83598443D01*
X168716243Y-83532754D01*
X168716241Y-83532753D01*
X168716240Y-83532753D01*
X168554957Y-83507208D01*
X168506287Y-83499500D01*
X168293713Y-83499500D01*
X168245042Y-83507208D01*
X168083760Y-83532753D01*
X167881585Y-83598444D01*
X167692179Y-83694951D01*
X167520213Y-83819890D01*
X167369890Y-83970213D01*
X167244951Y-84142179D01*
X167148444Y-84331585D01*
X167082753Y-84533760D01*
X167049500Y-84743713D01*
X165563660Y-84743713D01*
X165314673Y-84494726D01*
X165310869Y-84492184D01*
X165208127Y-84423535D01*
X165089744Y-84374499D01*
X165089738Y-84374497D01*
X164964071Y-84349500D01*
X164964069Y-84349500D01*
X164636671Y-84349500D01*
X164569632Y-84329815D01*
X164526186Y-84281795D01*
X164488809Y-84208438D01*
X164455051Y-84142184D01*
X164455049Y-84142181D01*
X164455048Y-84142179D01*
X164330109Y-83970213D01*
X164179786Y-83819890D01*
X164007820Y-83694951D01*
X163818414Y-83598444D01*
X163818413Y-83598443D01*
X163818412Y-83598443D01*
X163616243Y-83532754D01*
X163616241Y-83532753D01*
X163616240Y-83532753D01*
X163454957Y-83507208D01*
X163406287Y-83499500D01*
X163193713Y-83499500D01*
X163145042Y-83507208D01*
X162983760Y-83532753D01*
X162781585Y-83598444D01*
X162592179Y-83694951D01*
X162420213Y-83819890D01*
X162269894Y-83970209D01*
X162269890Y-83970214D01*
X162150318Y-84134793D01*
X162094989Y-84177459D01*
X162025375Y-84183438D01*
X161963580Y-84150833D01*
X161949682Y-84134793D01*
X161830109Y-83970214D01*
X161830105Y-83970209D01*
X161679786Y-83819890D01*
X161507820Y-83694951D01*
X161318414Y-83598444D01*
X161318413Y-83598443D01*
X161318412Y-83598443D01*
X161116243Y-83532754D01*
X161116241Y-83532753D01*
X161116240Y-83532753D01*
X160954957Y-83507208D01*
X160906287Y-83499500D01*
X160693713Y-83499500D01*
X160645042Y-83507208D01*
X160483760Y-83532753D01*
X160281585Y-83598444D01*
X160092179Y-83694951D01*
X159920213Y-83819890D01*
X159769890Y-83970213D01*
X159644951Y-84142179D01*
X159548444Y-84331585D01*
X159482753Y-84533760D01*
X159449500Y-84743713D01*
X157050500Y-84743713D01*
X157017246Y-84533757D01*
X156951557Y-84331588D01*
X156855051Y-84142184D01*
X156855049Y-84142181D01*
X156855048Y-84142179D01*
X156730109Y-83970213D01*
X156579786Y-83819890D01*
X156407820Y-83694951D01*
X156218414Y-83598444D01*
X156218413Y-83598443D01*
X156218412Y-83598443D01*
X156016243Y-83532754D01*
X156016241Y-83532753D01*
X156016240Y-83532753D01*
X155854957Y-83507208D01*
X155806287Y-83499500D01*
X155593713Y-83499500D01*
X155545042Y-83507208D01*
X155383760Y-83532753D01*
X155181585Y-83598444D01*
X154992179Y-83694951D01*
X154820213Y-83819890D01*
X154669894Y-83970209D01*
X154669890Y-83970214D01*
X154550318Y-84134793D01*
X154494989Y-84177459D01*
X154425375Y-84183438D01*
X154363580Y-84150833D01*
X154349682Y-84134793D01*
X154230109Y-83970214D01*
X154230105Y-83970209D01*
X154079786Y-83819890D01*
X153907820Y-83694951D01*
X153718414Y-83598444D01*
X153718413Y-83598443D01*
X153718412Y-83598443D01*
X153516243Y-83532754D01*
X153516241Y-83532753D01*
X153516240Y-83532753D01*
X153354957Y-83507208D01*
X153306287Y-83499500D01*
X153093713Y-83499500D01*
X153045042Y-83507208D01*
X152883760Y-83532753D01*
X152681585Y-83598444D01*
X152492179Y-83694951D01*
X152320213Y-83819890D01*
X152169890Y-83970213D01*
X152044951Y-84142179D01*
X151948444Y-84331585D01*
X151882753Y-84533760D01*
X151849500Y-84743713D01*
X143300500Y-84743713D01*
X143300500Y-79522635D01*
X143320185Y-79455596D01*
X143372989Y-79409841D01*
X143442147Y-79399897D01*
X143505703Y-79428922D01*
X143539061Y-79475183D01*
X143571590Y-79553717D01*
X143571593Y-79553722D01*
X143571595Y-79553726D01*
X143683052Y-79746774D01*
X143683057Y-79746780D01*
X143683058Y-79746782D01*
X143818751Y-79923622D01*
X143818757Y-79923629D01*
X143976370Y-80081242D01*
X143976376Y-80081247D01*
X144153226Y-80216948D01*
X144346274Y-80328405D01*
X144552219Y-80413710D01*
X144767537Y-80471404D01*
X144988543Y-80500500D01*
X144988550Y-80500500D01*
X145211450Y-80500500D01*
X145211457Y-80500500D01*
X145432463Y-80471404D01*
X145647781Y-80413710D01*
X145853726Y-80328405D01*
X146046774Y-80216948D01*
X146223624Y-80081247D01*
X146381247Y-79923624D01*
X146516948Y-79746774D01*
X146628405Y-79553726D01*
X146713710Y-79347781D01*
X146730225Y-79286142D01*
X146766590Y-79226483D01*
X146829437Y-79195954D01*
X146898812Y-79204249D01*
X146952690Y-79248734D01*
X146969773Y-79286141D01*
X146986290Y-79347780D01*
X146986293Y-79347790D01*
X147071591Y-79553717D01*
X147071595Y-79553726D01*
X147183052Y-79746774D01*
X147183057Y-79746780D01*
X147183058Y-79746782D01*
X147318751Y-79923622D01*
X147318757Y-79923629D01*
X147476370Y-80081242D01*
X147476376Y-80081247D01*
X147653226Y-80216948D01*
X147846274Y-80328405D01*
X148052219Y-80413710D01*
X148267537Y-80471404D01*
X148488543Y-80500500D01*
X148488550Y-80500500D01*
X148711450Y-80500500D01*
X148711457Y-80500500D01*
X148932463Y-80471404D01*
X149147781Y-80413710D01*
X149353726Y-80328405D01*
X149546774Y-80216948D01*
X149723624Y-80081247D01*
X149881247Y-79923624D01*
X150016948Y-79746774D01*
X150128405Y-79553726D01*
X150213710Y-79347781D01*
X150271404Y-79132463D01*
X150300500Y-78911457D01*
X150300500Y-78688549D01*
X157699500Y-78688549D01*
X157699500Y-78911450D01*
X157699501Y-78911466D01*
X157728594Y-79132452D01*
X157728595Y-79132457D01*
X157728596Y-79132463D01*
X157786290Y-79347780D01*
X157786293Y-79347790D01*
X157871591Y-79553717D01*
X157871595Y-79553726D01*
X157983052Y-79746774D01*
X157983057Y-79746780D01*
X157983058Y-79746782D01*
X158118751Y-79923622D01*
X158118757Y-79923629D01*
X158276370Y-80081242D01*
X158276376Y-80081247D01*
X158453226Y-80216948D01*
X158646274Y-80328405D01*
X158852219Y-80413710D01*
X159067537Y-80471404D01*
X159288543Y-80500500D01*
X159288550Y-80500500D01*
X159511450Y-80500500D01*
X159511457Y-80500500D01*
X159732463Y-80471404D01*
X159947781Y-80413710D01*
X160153726Y-80328405D01*
X160346774Y-80216948D01*
X160523624Y-80081247D01*
X160681247Y-79923624D01*
X160816948Y-79746774D01*
X160928405Y-79553726D01*
X161013710Y-79347781D01*
X161030225Y-79286142D01*
X161066590Y-79226483D01*
X161129437Y-79195954D01*
X161198812Y-79204249D01*
X161252690Y-79248734D01*
X161269773Y-79286141D01*
X161286290Y-79347780D01*
X161286293Y-79347790D01*
X161371591Y-79553717D01*
X161371595Y-79553726D01*
X161483052Y-79746774D01*
X161483057Y-79746780D01*
X161483058Y-79746782D01*
X161618751Y-79923622D01*
X161618757Y-79923629D01*
X161776370Y-80081242D01*
X161776376Y-80081247D01*
X161953226Y-80216948D01*
X162146274Y-80328405D01*
X162352219Y-80413710D01*
X162567537Y-80471404D01*
X162788543Y-80500500D01*
X162788550Y-80500500D01*
X163011450Y-80500500D01*
X163011457Y-80500500D01*
X163232463Y-80471404D01*
X163447781Y-80413710D01*
X163653726Y-80328405D01*
X163846774Y-80216948D01*
X164023624Y-80081247D01*
X164181247Y-79923624D01*
X164316948Y-79746774D01*
X164428405Y-79553726D01*
X164513710Y-79347781D01*
X164571404Y-79132463D01*
X164600500Y-78911457D01*
X164600500Y-78688543D01*
X164571404Y-78467537D01*
X164513710Y-78252219D01*
X164511327Y-78246467D01*
X164428406Y-78046277D01*
X164428405Y-78046274D01*
X164316948Y-77853226D01*
X164277867Y-77802294D01*
X164181248Y-77676377D01*
X164181242Y-77676370D01*
X164023629Y-77518757D01*
X164023622Y-77518751D01*
X163917364Y-77437217D01*
X163846782Y-77383058D01*
X163846780Y-77383057D01*
X163846774Y-77383052D01*
X163778637Y-77343713D01*
X167049500Y-77343713D01*
X167049500Y-77856286D01*
X167079591Y-78046277D01*
X167082754Y-78066243D01*
X167143178Y-78252209D01*
X167148444Y-78268414D01*
X167244951Y-78457820D01*
X167369890Y-78629786D01*
X167520213Y-78780109D01*
X167692179Y-78905048D01*
X167692181Y-78905049D01*
X167692184Y-78905051D01*
X167881588Y-79001557D01*
X168083757Y-79067246D01*
X168293713Y-79100500D01*
X168293714Y-79100500D01*
X168506286Y-79100500D01*
X168506287Y-79100500D01*
X168716243Y-79067246D01*
X168918412Y-79001557D01*
X169107816Y-78905051D01*
X169183588Y-78850000D01*
X169279786Y-78780109D01*
X169279788Y-78780106D01*
X169279792Y-78780104D01*
X169430104Y-78629792D01*
X169549683Y-78465204D01*
X169605011Y-78422540D01*
X169674624Y-78416561D01*
X169736420Y-78449166D01*
X169750313Y-78465199D01*
X169851728Y-78604786D01*
X169869896Y-78629792D01*
X170020213Y-78780109D01*
X170192179Y-78905048D01*
X170192181Y-78905049D01*
X170192184Y-78905051D01*
X170381588Y-79001557D01*
X170583757Y-79067246D01*
X170793713Y-79100500D01*
X170793714Y-79100500D01*
X171006286Y-79100500D01*
X171006287Y-79100500D01*
X171216243Y-79067246D01*
X171418412Y-79001557D01*
X171607816Y-78905051D01*
X171683588Y-78850000D01*
X171779786Y-78780109D01*
X171779788Y-78780106D01*
X171779792Y-78780104D01*
X171930104Y-78629792D01*
X171930106Y-78629788D01*
X171930109Y-78629786D01*
X172047988Y-78467537D01*
X172055051Y-78457816D01*
X172151557Y-78268412D01*
X172217246Y-78066243D01*
X172250500Y-77856287D01*
X172250500Y-77368713D01*
X174649500Y-77368713D01*
X174649500Y-77831287D01*
X174682754Y-78041243D01*
X174707828Y-78118414D01*
X174748444Y-78243414D01*
X174844951Y-78432820D01*
X174969890Y-78604786D01*
X175120213Y-78755109D01*
X175292179Y-78880048D01*
X175292181Y-78880049D01*
X175292184Y-78880051D01*
X175481588Y-78976557D01*
X175683757Y-79042246D01*
X175893713Y-79075500D01*
X175893714Y-79075500D01*
X176106286Y-79075500D01*
X176106287Y-79075500D01*
X176316243Y-79042246D01*
X176518412Y-78976557D01*
X176707816Y-78880051D01*
X176749178Y-78850000D01*
X176879786Y-78755109D01*
X176879788Y-78755106D01*
X176879792Y-78755104D01*
X177030104Y-78604792D01*
X177149683Y-78440204D01*
X177205011Y-78397540D01*
X177274624Y-78391561D01*
X177336420Y-78424166D01*
X177350313Y-78440199D01*
X177379079Y-78479792D01*
X177469896Y-78604792D01*
X177620213Y-78755109D01*
X177792179Y-78880048D01*
X177792181Y-78880049D01*
X177792184Y-78880051D01*
X177981588Y-78976557D01*
X178183757Y-79042246D01*
X178393713Y-79075500D01*
X178393714Y-79075500D01*
X178606286Y-79075500D01*
X178606287Y-79075500D01*
X178816243Y-79042246D01*
X179018412Y-78976557D01*
X179207816Y-78880051D01*
X179249178Y-78850000D01*
X179379786Y-78755109D01*
X179379788Y-78755106D01*
X179379792Y-78755104D01*
X179530104Y-78604792D01*
X179649683Y-78440204D01*
X179705011Y-78397540D01*
X179774624Y-78391561D01*
X179836420Y-78424166D01*
X179850313Y-78440199D01*
X179879079Y-78479792D01*
X179969896Y-78604792D01*
X180120213Y-78755109D01*
X180292179Y-78880048D01*
X180292181Y-78880049D01*
X180292184Y-78880051D01*
X180481588Y-78976557D01*
X180683757Y-79042246D01*
X180893713Y-79075500D01*
X180893714Y-79075500D01*
X181106286Y-79075500D01*
X181106287Y-79075500D01*
X181316243Y-79042246D01*
X181518412Y-78976557D01*
X181707816Y-78880051D01*
X181749178Y-78850000D01*
X181879786Y-78755109D01*
X181879788Y-78755106D01*
X181879792Y-78755104D01*
X182030104Y-78604792D01*
X182149683Y-78440204D01*
X182205011Y-78397540D01*
X182274624Y-78391561D01*
X182336420Y-78424166D01*
X182350313Y-78440199D01*
X182379079Y-78479792D01*
X182469896Y-78604792D01*
X182620213Y-78755109D01*
X182792179Y-78880048D01*
X182792181Y-78880049D01*
X182792184Y-78880051D01*
X182981588Y-78976557D01*
X183183757Y-79042246D01*
X183393713Y-79075500D01*
X183393714Y-79075500D01*
X183606286Y-79075500D01*
X183606287Y-79075500D01*
X183816243Y-79042246D01*
X184018412Y-78976557D01*
X184207816Y-78880051D01*
X184249178Y-78850000D01*
X184379786Y-78755109D01*
X184379788Y-78755106D01*
X184379792Y-78755104D01*
X184530104Y-78604792D01*
X184530106Y-78604788D01*
X184530109Y-78604786D01*
X184655048Y-78432820D01*
X184655047Y-78432820D01*
X184655051Y-78432816D01*
X184751557Y-78243412D01*
X184817246Y-78041243D01*
X184850500Y-77831287D01*
X184850500Y-77493713D01*
X186999500Y-77493713D01*
X186999500Y-77706286D01*
X187023257Y-77856286D01*
X187032754Y-77916243D01*
X187081492Y-78066243D01*
X187098444Y-78118414D01*
X187194951Y-78307820D01*
X187319890Y-78479786D01*
X187470209Y-78630105D01*
X187470214Y-78630109D01*
X187634793Y-78749682D01*
X187677459Y-78805011D01*
X187683438Y-78874625D01*
X187650833Y-78936420D01*
X187634793Y-78950318D01*
X187470214Y-79069890D01*
X187470209Y-79069894D01*
X187319890Y-79220213D01*
X187194951Y-79392179D01*
X187098444Y-79581585D01*
X187032753Y-79783760D01*
X187010601Y-79923622D01*
X186999500Y-79993713D01*
X186999500Y-80206287D01*
X187001189Y-80216948D01*
X187032352Y-80413710D01*
X187032754Y-80416243D01*
X187060130Y-80500498D01*
X187098444Y-80618414D01*
X187194951Y-80807820D01*
X187319890Y-80979786D01*
X187470213Y-81130109D01*
X187642179Y-81255048D01*
X187642181Y-81255049D01*
X187642184Y-81255051D01*
X187831588Y-81351557D01*
X188033757Y-81417246D01*
X188243713Y-81450500D01*
X188243714Y-81450500D01*
X188756286Y-81450500D01*
X188756287Y-81450500D01*
X188966243Y-81417246D01*
X189168412Y-81351557D01*
X189357816Y-81255051D01*
X189379789Y-81239086D01*
X189529786Y-81130109D01*
X189529788Y-81130106D01*
X189529792Y-81130104D01*
X189680104Y-80979792D01*
X189680106Y-80979788D01*
X189680109Y-80979786D01*
X189805048Y-80807820D01*
X189805047Y-80807820D01*
X189805051Y-80807816D01*
X189901557Y-80618412D01*
X189967246Y-80416243D01*
X190000500Y-80206287D01*
X190000500Y-79993713D01*
X189967246Y-79783757D01*
X189901557Y-79581588D01*
X189805051Y-79392184D01*
X189805049Y-79392181D01*
X189805048Y-79392179D01*
X189680109Y-79220213D01*
X189529792Y-79069896D01*
X189526145Y-79067246D01*
X189365204Y-78950316D01*
X189322540Y-78894989D01*
X189316561Y-78825376D01*
X189349166Y-78763580D01*
X189365199Y-78749686D01*
X189529792Y-78630104D01*
X189680104Y-78479792D01*
X189680106Y-78479788D01*
X189680109Y-78479786D01*
X189805048Y-78307820D01*
X189805047Y-78307820D01*
X189805051Y-78307816D01*
X189901557Y-78118412D01*
X189967246Y-77916243D01*
X190000500Y-77706287D01*
X190000500Y-77493713D01*
X192999500Y-77493713D01*
X192999500Y-77706286D01*
X193023257Y-77856286D01*
X193032754Y-77916243D01*
X193081492Y-78066243D01*
X193098444Y-78118414D01*
X193194951Y-78307820D01*
X193319890Y-78479786D01*
X193470209Y-78630105D01*
X193470214Y-78630109D01*
X193634793Y-78749682D01*
X193677459Y-78805011D01*
X193683438Y-78874625D01*
X193650833Y-78936420D01*
X193634793Y-78950318D01*
X193470214Y-79069890D01*
X193470209Y-79069894D01*
X193319890Y-79220213D01*
X193194951Y-79392179D01*
X193098444Y-79581585D01*
X193032753Y-79783760D01*
X193010601Y-79923622D01*
X192999500Y-79993713D01*
X192999500Y-80206287D01*
X193001189Y-80216948D01*
X193032352Y-80413710D01*
X193032754Y-80416243D01*
X193060130Y-80500498D01*
X193098444Y-80618414D01*
X193194951Y-80807820D01*
X193319890Y-80979786D01*
X193470213Y-81130109D01*
X193642179Y-81255048D01*
X193642181Y-81255049D01*
X193642184Y-81255051D01*
X193831588Y-81351557D01*
X194033757Y-81417246D01*
X194243713Y-81450500D01*
X194243714Y-81450500D01*
X194756286Y-81450500D01*
X194756287Y-81450500D01*
X194966243Y-81417246D01*
X195168412Y-81351557D01*
X195357816Y-81255051D01*
X195379789Y-81239086D01*
X195529786Y-81130109D01*
X195529788Y-81130106D01*
X195529792Y-81130104D01*
X195680104Y-80979792D01*
X195680106Y-80979788D01*
X195680109Y-80979786D01*
X195805048Y-80807820D01*
X195805047Y-80807820D01*
X195805051Y-80807816D01*
X195901557Y-80618412D01*
X195967246Y-80416243D01*
X196000500Y-80206287D01*
X196000500Y-79993713D01*
X195967246Y-79783757D01*
X195901557Y-79581588D01*
X195805051Y-79392184D01*
X195805049Y-79392181D01*
X195805048Y-79392179D01*
X195680109Y-79220213D01*
X195529792Y-79069896D01*
X195526145Y-79067246D01*
X195365204Y-78950316D01*
X195322540Y-78894989D01*
X195316561Y-78825376D01*
X195349166Y-78763580D01*
X195365199Y-78749686D01*
X195529792Y-78630104D01*
X195680104Y-78479792D01*
X195680106Y-78479788D01*
X195680109Y-78479786D01*
X195805048Y-78307820D01*
X195805047Y-78307820D01*
X195805051Y-78307816D01*
X195901557Y-78118412D01*
X195967246Y-77916243D01*
X196000500Y-77706287D01*
X196000500Y-77493713D01*
X195967246Y-77283757D01*
X195901557Y-77081588D01*
X195805051Y-76892184D01*
X195805049Y-76892181D01*
X195805048Y-76892179D01*
X195680109Y-76720213D01*
X195529786Y-76569890D01*
X195357820Y-76444951D01*
X195168414Y-76348444D01*
X195168413Y-76348443D01*
X195168412Y-76348443D01*
X194966243Y-76282754D01*
X194966241Y-76282753D01*
X194966240Y-76282753D01*
X194804957Y-76257208D01*
X194756287Y-76249500D01*
X194243713Y-76249500D01*
X194195042Y-76257208D01*
X194033760Y-76282753D01*
X193831585Y-76348444D01*
X193642179Y-76444951D01*
X193470213Y-76569890D01*
X193319890Y-76720213D01*
X193194951Y-76892179D01*
X193098444Y-77081585D01*
X193032753Y-77283760D01*
X192999500Y-77493713D01*
X190000500Y-77493713D01*
X189967246Y-77283757D01*
X189901557Y-77081588D01*
X189805051Y-76892184D01*
X189805049Y-76892181D01*
X189805048Y-76892179D01*
X189680109Y-76720213D01*
X189529786Y-76569890D01*
X189357820Y-76444951D01*
X189168414Y-76348444D01*
X189168413Y-76348443D01*
X189168412Y-76348443D01*
X188966243Y-76282754D01*
X188966241Y-76282753D01*
X188966240Y-76282753D01*
X188804957Y-76257208D01*
X188756287Y-76249500D01*
X188243713Y-76249500D01*
X188195042Y-76257208D01*
X188033760Y-76282753D01*
X187831585Y-76348444D01*
X187642179Y-76444951D01*
X187470213Y-76569890D01*
X187319890Y-76720213D01*
X187194951Y-76892179D01*
X187098444Y-77081585D01*
X187032753Y-77283760D01*
X186999500Y-77493713D01*
X184850500Y-77493713D01*
X184850500Y-77368713D01*
X184817246Y-77158757D01*
X184751557Y-76956588D01*
X184655051Y-76767184D01*
X184655049Y-76767181D01*
X184655048Y-76767179D01*
X184530109Y-76595213D01*
X184379786Y-76444890D01*
X184207820Y-76319951D01*
X184018414Y-76223444D01*
X184018413Y-76223443D01*
X184018412Y-76223443D01*
X183816243Y-76157754D01*
X183816241Y-76157753D01*
X183816240Y-76157753D01*
X183654957Y-76132208D01*
X183606287Y-76124500D01*
X183393713Y-76124500D01*
X183345042Y-76132208D01*
X183183760Y-76157753D01*
X182981585Y-76223444D01*
X182792179Y-76319951D01*
X182620213Y-76444890D01*
X182469894Y-76595209D01*
X182469890Y-76595214D01*
X182350318Y-76759793D01*
X182294989Y-76802459D01*
X182225375Y-76808438D01*
X182163580Y-76775833D01*
X182149682Y-76759793D01*
X182030109Y-76595214D01*
X182030105Y-76595209D01*
X181879786Y-76444890D01*
X181707820Y-76319951D01*
X181518414Y-76223444D01*
X181518413Y-76223443D01*
X181518412Y-76223443D01*
X181316243Y-76157754D01*
X181316241Y-76157753D01*
X181316240Y-76157753D01*
X181154957Y-76132208D01*
X181106287Y-76124500D01*
X180893713Y-76124500D01*
X180845042Y-76132208D01*
X180683760Y-76157753D01*
X180481585Y-76223444D01*
X180292179Y-76319951D01*
X180120213Y-76444890D01*
X179969894Y-76595209D01*
X179969890Y-76595214D01*
X179850318Y-76759793D01*
X179794989Y-76802459D01*
X179725375Y-76808438D01*
X179663580Y-76775833D01*
X179649682Y-76759793D01*
X179530109Y-76595214D01*
X179530105Y-76595209D01*
X179379786Y-76444890D01*
X179207820Y-76319951D01*
X179018414Y-76223444D01*
X179018413Y-76223443D01*
X179018412Y-76223443D01*
X178816243Y-76157754D01*
X178816241Y-76157753D01*
X178816240Y-76157753D01*
X178654957Y-76132208D01*
X178606287Y-76124500D01*
X178393713Y-76124500D01*
X178345042Y-76132208D01*
X178183760Y-76157753D01*
X177981585Y-76223444D01*
X177792179Y-76319951D01*
X177620213Y-76444890D01*
X177469894Y-76595209D01*
X177469890Y-76595214D01*
X177350318Y-76759793D01*
X177294989Y-76802459D01*
X177225375Y-76808438D01*
X177163580Y-76775833D01*
X177149682Y-76759793D01*
X177030109Y-76595214D01*
X177030105Y-76595209D01*
X176879786Y-76444890D01*
X176707820Y-76319951D01*
X176518414Y-76223444D01*
X176518413Y-76223443D01*
X176518412Y-76223443D01*
X176316243Y-76157754D01*
X176316241Y-76157753D01*
X176316240Y-76157753D01*
X176154957Y-76132208D01*
X176106287Y-76124500D01*
X175893713Y-76124500D01*
X175845042Y-76132208D01*
X175683760Y-76157753D01*
X175481585Y-76223444D01*
X175292179Y-76319951D01*
X175120213Y-76444890D01*
X174969890Y-76595213D01*
X174844951Y-76767179D01*
X174748444Y-76956585D01*
X174682753Y-77158760D01*
X174664882Y-77271593D01*
X174649500Y-77368713D01*
X172250500Y-77368713D01*
X172250500Y-77343713D01*
X172217246Y-77133757D01*
X172151557Y-76931588D01*
X172055051Y-76742184D01*
X172055049Y-76742181D01*
X172055048Y-76742179D01*
X171930109Y-76570213D01*
X171779786Y-76419890D01*
X171607820Y-76294951D01*
X171418414Y-76198444D01*
X171418413Y-76198443D01*
X171418412Y-76198443D01*
X171216243Y-76132754D01*
X171216241Y-76132753D01*
X171216240Y-76132753D01*
X171054957Y-76107208D01*
X171006287Y-76099500D01*
X170793713Y-76099500D01*
X170745042Y-76107208D01*
X170583760Y-76132753D01*
X170381585Y-76198444D01*
X170192179Y-76294951D01*
X170020213Y-76419890D01*
X169869894Y-76570209D01*
X169869890Y-76570214D01*
X169750318Y-76734793D01*
X169694989Y-76777459D01*
X169625375Y-76783438D01*
X169563580Y-76750833D01*
X169549682Y-76734793D01*
X169430109Y-76570214D01*
X169430105Y-76570209D01*
X169279786Y-76419890D01*
X169107820Y-76294951D01*
X168918414Y-76198444D01*
X168918413Y-76198443D01*
X168918412Y-76198443D01*
X168716243Y-76132754D01*
X168716241Y-76132753D01*
X168716240Y-76132753D01*
X168554957Y-76107208D01*
X168506287Y-76099500D01*
X168293713Y-76099500D01*
X168245042Y-76107208D01*
X168083760Y-76132753D01*
X167881585Y-76198444D01*
X167692179Y-76294951D01*
X167520213Y-76419890D01*
X167369890Y-76570213D01*
X167244951Y-76742179D01*
X167148444Y-76931585D01*
X167082753Y-77133760D01*
X167049500Y-77343713D01*
X163778637Y-77343713D01*
X163653726Y-77271595D01*
X163653722Y-77271593D01*
X163447790Y-77186293D01*
X163447783Y-77186291D01*
X163447781Y-77186290D01*
X163232463Y-77128596D01*
X163232457Y-77128595D01*
X163232452Y-77128594D01*
X163011466Y-77099501D01*
X163011463Y-77099500D01*
X163011457Y-77099500D01*
X162788543Y-77099500D01*
X162788537Y-77099500D01*
X162788533Y-77099501D01*
X162567547Y-77128594D01*
X162567540Y-77128595D01*
X162567537Y-77128596D01*
X162548276Y-77133757D01*
X162352219Y-77186290D01*
X162352209Y-77186293D01*
X162146277Y-77271593D01*
X162146273Y-77271595D01*
X161953226Y-77383052D01*
X161953217Y-77383058D01*
X161776377Y-77518751D01*
X161776370Y-77518757D01*
X161618757Y-77676370D01*
X161618751Y-77676377D01*
X161483058Y-77853217D01*
X161483052Y-77853226D01*
X161371595Y-78046273D01*
X161371593Y-78046277D01*
X161286293Y-78252209D01*
X161286291Y-78252216D01*
X161286290Y-78252219D01*
X161269774Y-78313857D01*
X161233410Y-78373516D01*
X161170563Y-78404045D01*
X161101187Y-78395750D01*
X161047309Y-78351265D01*
X161030226Y-78313858D01*
X161013710Y-78252219D01*
X161011327Y-78246467D01*
X160928406Y-78046277D01*
X160928405Y-78046274D01*
X160816948Y-77853226D01*
X160777867Y-77802294D01*
X160681248Y-77676377D01*
X160681242Y-77676370D01*
X160523629Y-77518757D01*
X160523622Y-77518751D01*
X160346782Y-77383058D01*
X160346780Y-77383057D01*
X160346774Y-77383052D01*
X160153726Y-77271595D01*
X160153722Y-77271593D01*
X159947790Y-77186293D01*
X159947783Y-77186291D01*
X159947781Y-77186290D01*
X159732463Y-77128596D01*
X159732457Y-77128595D01*
X159732452Y-77128594D01*
X159511466Y-77099501D01*
X159511463Y-77099500D01*
X159511457Y-77099500D01*
X159288543Y-77099500D01*
X159288537Y-77099500D01*
X159288533Y-77099501D01*
X159067547Y-77128594D01*
X159067540Y-77128595D01*
X159067537Y-77128596D01*
X159048276Y-77133757D01*
X158852219Y-77186290D01*
X158852209Y-77186293D01*
X158646277Y-77271593D01*
X158646273Y-77271595D01*
X158453226Y-77383052D01*
X158453217Y-77383058D01*
X158276377Y-77518751D01*
X158276370Y-77518757D01*
X158118757Y-77676370D01*
X158118751Y-77676377D01*
X157983058Y-77853217D01*
X157983052Y-77853226D01*
X157871595Y-78046273D01*
X157871593Y-78046277D01*
X157786293Y-78252209D01*
X157786291Y-78252216D01*
X157786290Y-78252219D01*
X157733519Y-78449166D01*
X157728597Y-78467534D01*
X157728594Y-78467547D01*
X157699501Y-78688533D01*
X157699500Y-78688549D01*
X150300500Y-78688549D01*
X150300500Y-78688543D01*
X150271404Y-78467537D01*
X150213710Y-78252219D01*
X150211327Y-78246467D01*
X150128406Y-78046277D01*
X150128405Y-78046274D01*
X150016948Y-77853226D01*
X149977867Y-77802294D01*
X149881248Y-77676377D01*
X149881242Y-77676370D01*
X149723629Y-77518757D01*
X149723622Y-77518751D01*
X149546782Y-77383058D01*
X149546780Y-77383057D01*
X149546774Y-77383052D01*
X149353726Y-77271595D01*
X149353722Y-77271593D01*
X149147790Y-77186293D01*
X149147783Y-77186291D01*
X149147781Y-77186290D01*
X148932463Y-77128596D01*
X148932457Y-77128595D01*
X148932452Y-77128594D01*
X148711466Y-77099501D01*
X148711463Y-77099500D01*
X148711457Y-77099500D01*
X148488543Y-77099500D01*
X148488537Y-77099500D01*
X148488533Y-77099501D01*
X148267547Y-77128594D01*
X148267540Y-77128595D01*
X148267537Y-77128596D01*
X148248276Y-77133757D01*
X148052219Y-77186290D01*
X148052209Y-77186293D01*
X147846277Y-77271593D01*
X147846273Y-77271595D01*
X147653226Y-77383052D01*
X147653217Y-77383058D01*
X147476377Y-77518751D01*
X147476370Y-77518757D01*
X147318757Y-77676370D01*
X147318751Y-77676377D01*
X147183058Y-77853217D01*
X147183052Y-77853226D01*
X147071595Y-78046273D01*
X147071593Y-78046277D01*
X146986293Y-78252209D01*
X146986291Y-78252216D01*
X146986290Y-78252219D01*
X146969774Y-78313857D01*
X146933410Y-78373516D01*
X146870563Y-78404045D01*
X146801187Y-78395750D01*
X146747309Y-78351265D01*
X146730226Y-78313858D01*
X146713710Y-78252219D01*
X146711327Y-78246467D01*
X146628406Y-78046277D01*
X146628405Y-78046274D01*
X146516948Y-77853226D01*
X146477867Y-77802294D01*
X146381248Y-77676377D01*
X146381242Y-77676370D01*
X146223629Y-77518757D01*
X146223622Y-77518751D01*
X146046782Y-77383058D01*
X146046780Y-77383057D01*
X146046774Y-77383052D01*
X145853726Y-77271595D01*
X145853722Y-77271593D01*
X145647790Y-77186293D01*
X145647783Y-77186291D01*
X145647781Y-77186290D01*
X145432463Y-77128596D01*
X145432457Y-77128595D01*
X145432452Y-77128594D01*
X145211466Y-77099501D01*
X145211463Y-77099500D01*
X145211457Y-77099500D01*
X144988543Y-77099500D01*
X144988537Y-77099500D01*
X144988533Y-77099501D01*
X144767547Y-77128594D01*
X144767540Y-77128595D01*
X144767537Y-77128596D01*
X144748276Y-77133757D01*
X144552219Y-77186290D01*
X144552209Y-77186293D01*
X144346277Y-77271593D01*
X144346273Y-77271595D01*
X144153226Y-77383052D01*
X144153217Y-77383058D01*
X143976377Y-77518751D01*
X143976370Y-77518757D01*
X143818757Y-77676370D01*
X143818751Y-77676377D01*
X143683058Y-77853217D01*
X143683052Y-77853226D01*
X143571595Y-78046273D01*
X143571593Y-78046277D01*
X143539061Y-78124817D01*
X143495220Y-78179220D01*
X143428926Y-78201285D01*
X143361226Y-78184006D01*
X143313616Y-78132868D01*
X143300500Y-78077364D01*
X143300500Y-75624500D01*
X143320185Y-75557461D01*
X143372989Y-75511706D01*
X143424500Y-75500500D01*
X197675500Y-75500500D01*
X197742539Y-75520185D01*
G37*
%TD.AperFunction*%
%TD*%
M02*
