%TF.GenerationSoftware,KiCad,Pcbnew,9.0.1*%
%TF.CreationDate,2025-11-01T16:21:08+08:00*%
%TF.ProjectId,breakout,62726561-6b6f-4757-942e-6b696361645f,rev?*%
%TF.SameCoordinates,Original*%
%TF.FileFunction,Soldermask,Bot*%
%TF.FilePolarity,Negative*%
%FSLAX46Y46*%
G04 Gerber Fmt 4.6, Leading zero omitted, Abs format (unit mm)*
G04 Created by KiCad (PCBNEW 9.0.1) date 2025-11-01 16:21:08*
%MOMM*%
%LPD*%
G01*
G04 APERTURE LIST*
%ADD10O,2.000000X1.700000*%
%ADD11C,2.400000*%
%ADD12O,1.700000X2.000000*%
%ADD13O,1.950000X1.700000*%
%ADD14O,1.700000X1.950000*%
%ADD15C,3.600000*%
%ADD16C,5.600000*%
%ADD17C,1.020000*%
%ADD18C,1.500000*%
G04 APERTURE END LIST*
D10*
%TO.C,YEND*%
X194700000Y-102400000D03*
X194700000Y-104900000D03*
%TD*%
D11*
%TO.C,YR*%
X194100000Y-122400000D03*
X194100000Y-118900000D03*
%TD*%
%TO.C,XR1*%
X162900000Y-78800000D03*
X159400000Y-78800000D03*
%TD*%
%TO.C,XR0*%
X148600000Y-78800000D03*
X145100000Y-78800000D03*
%TD*%
D10*
%TO.C,ZEND0*%
X180975000Y-115900000D03*
X180975000Y-113400000D03*
%TD*%
%TO.C,FANPWM*%
X194500000Y-87700000D03*
X194500000Y-85200000D03*
%TD*%
D12*
%TO.C,XEND*%
X160800000Y-85000000D03*
X163300000Y-85000000D03*
%TD*%
D10*
%TO.C,AUXF1*%
X194500000Y-80100000D03*
X194500000Y-77600000D03*
%TD*%
D12*
%TO.C,XTH1*%
X168400000Y-85000000D03*
X170900000Y-85000000D03*
%TD*%
%TO.C,HEF1*%
X153200000Y-85000000D03*
X155700000Y-85000000D03*
%TD*%
D10*
%TO.C,YTH*%
X195700000Y-110800000D03*
X195700000Y-113300000D03*
%TD*%
%TO.C,AUXF3*%
X188500000Y-80100000D03*
X188500000Y-77600000D03*
%TD*%
%TO.C,ZEND1*%
X186900000Y-115900000D03*
X186900000Y-113400000D03*
%TD*%
%TO.C,AUXF*%
X188500000Y-87700000D03*
X188500000Y-85200000D03*
%TD*%
D12*
%TO.C,XTH0*%
X168400000Y-77600000D03*
X170900000Y-77600000D03*
%TD*%
D13*
%TO.C,ZM1*%
X145500000Y-109500000D03*
X145500000Y-107000000D03*
X145500000Y-104500000D03*
X145500000Y-102000000D03*
%TD*%
D14*
%TO.C,YMR0*%
X175100000Y-115000000D03*
X172600000Y-115000000D03*
X170100000Y-115000000D03*
X167600000Y-115000000D03*
%TD*%
%TO.C,YML1*%
X162488349Y-121000000D03*
X159988349Y-121000000D03*
X157488349Y-121000000D03*
X154988349Y-121000000D03*
%TD*%
%TO.C,YMR1*%
X175100000Y-121000000D03*
X172600000Y-121000000D03*
X170100000Y-121000000D03*
X167600000Y-121000000D03*
%TD*%
D13*
%TO.C,ZM0*%
X145500000Y-122100000D03*
X145500000Y-119600000D03*
X145500000Y-117100000D03*
X145500000Y-114600000D03*
%TD*%
%TO.C,EM*%
X145500000Y-96900000D03*
X145500000Y-94400000D03*
X145500000Y-91900000D03*
X145500000Y-89400000D03*
%TD*%
D14*
%TO.C,XM1*%
X176000000Y-77600000D03*
X178500000Y-77600000D03*
X181000000Y-77600000D03*
X183500000Y-77600000D03*
%TD*%
%TO.C,YML0*%
X162488349Y-115000000D03*
X159988349Y-115000000D03*
X157488349Y-115000000D03*
X154988349Y-115000000D03*
%TD*%
%TO.C,XM0*%
X176000000Y-85000000D03*
X178500000Y-85000000D03*
X181000000Y-85000000D03*
X183500000Y-85000000D03*
%TD*%
D15*
%TO.C,H1*%
X154000000Y-78500000D03*
D16*
X154000000Y-78500000D03*
%TD*%
D17*
%TO.C,JX1*%
X151000000Y-97000000D03*
X190000000Y-97000000D03*
D18*
X154000000Y-93060000D03*
X157000000Y-93060000D03*
X160000000Y-93060000D03*
X163000000Y-93060000D03*
X166000000Y-93060000D03*
X169000000Y-93060000D03*
X172000000Y-93060000D03*
X175000000Y-93060000D03*
X178000000Y-93060000D03*
X181000000Y-93060000D03*
X184000000Y-93060000D03*
X187000000Y-93060000D03*
X154000000Y-96060000D03*
X157000000Y-96060000D03*
X160000000Y-96060000D03*
X163000000Y-96060000D03*
X166000000Y-96060000D03*
X169000000Y-96060000D03*
X172000000Y-96060000D03*
X175000000Y-96060000D03*
X178000000Y-96060000D03*
X181000000Y-96060000D03*
X184000000Y-96060000D03*
X187000000Y-96060000D03*
%TD*%
D17*
%TO.C,JY1*%
X191238349Y-104810000D03*
X158238349Y-104810000D03*
D18*
X188238349Y-108750000D03*
X185238349Y-108750000D03*
X182238349Y-108750000D03*
X179238349Y-108750000D03*
X176238349Y-108750000D03*
X173238349Y-108750000D03*
X170238349Y-108750000D03*
X167238349Y-108750000D03*
X164238349Y-108750000D03*
X161238349Y-108750000D03*
X188238349Y-105750000D03*
X185238349Y-105750000D03*
X182238349Y-105750000D03*
X179238349Y-105750000D03*
X176238349Y-105750000D03*
X173238349Y-105750000D03*
X170238349Y-105750000D03*
X167238349Y-105750000D03*
X164238349Y-105750000D03*
X161238349Y-105750000D03*
%TD*%
D15*
%TO.C,H4*%
X184000000Y-121700000D03*
D16*
X184000000Y-121700000D03*
%TD*%
M02*
