%TF.GenerationSoftware,KiCad,Pcbnew,9.0.1*%
%TF.CreationDate,2025-08-04T14:01:18+08:00*%
%TF.ProjectId,breakout,62726561-6b6f-4757-942e-6b696361645f,rev?*%
%TF.SameCoordinates,Original*%
%TF.FileFunction,Soldermask,Top*%
%TF.FilePolarity,Negative*%
%FSLAX46Y46*%
G04 Gerber Fmt 4.6, Leading zero omitted, Abs format (unit mm)*
G04 Created by KiCad (PCBNEW 9.0.1) date 2025-08-04 14:01:18*
%MOMM*%
%LPD*%
G01*
G04 APERTURE LIST*
G04 Aperture macros list*
%AMRoundRect*
0 Rectangle with rounded corners*
0 $1 Rounding radius*
0 $2 $3 $4 $5 $6 $7 $8 $9 X,Y pos of 4 corners*
0 Add a 4 corners polygon primitive as box body*
4,1,4,$2,$3,$4,$5,$6,$7,$8,$9,$2,$3,0*
0 Add four circle primitives for the rounded corners*
1,1,$1+$1,$2,$3*
1,1,$1+$1,$4,$5*
1,1,$1+$1,$6,$7*
1,1,$1+$1,$8,$9*
0 Add four rect primitives between the rounded corners*
20,1,$1+$1,$2,$3,$4,$5,0*
20,1,$1+$1,$4,$5,$6,$7,0*
20,1,$1+$1,$6,$7,$8,$9,0*
20,1,$1+$1,$8,$9,$2,$3,0*%
G04 Aperture macros list end*
%ADD10C,3.600000*%
%ADD11C,5.600000*%
%ADD12C,2.400000*%
%ADD13O,1.700000X1.950000*%
%ADD14O,2.000000X1.700000*%
%ADD15O,1.700000X2.000000*%
%ADD16O,1.950000X1.700000*%
%ADD17C,1.020000*%
%ADD18C,1.500000*%
%ADD19RoundRect,0.250000X0.725000X-0.600000X0.725000X0.600000X-0.725000X0.600000X-0.725000X-0.600000X0*%
%ADD20RoundRect,0.250000X-0.600000X-0.725000X0.600000X-0.725000X0.600000X0.725000X-0.600000X0.725000X0*%
G04 APERTURE END LIST*
D10*
%TO.C,H1*%
X154000000Y-81500000D03*
D11*
X154000000Y-81500000D03*
%TD*%
D12*
%TO.C,XR0*%
X148600000Y-81800000D03*
X145100000Y-81800000D03*
%TD*%
D13*
%TO.C,YMR0*%
X175100000Y-115000000D03*
X172600000Y-115000000D03*
X170100000Y-115000000D03*
X167600000Y-115000000D03*
%TD*%
%TO.C,YML1*%
X162488349Y-121000000D03*
X159988349Y-121000000D03*
X157488349Y-121000000D03*
X154988349Y-121000000D03*
%TD*%
D14*
%TO.C,FANPWM1*%
X194500000Y-90700000D03*
X194500000Y-88200000D03*
%TD*%
D15*
%TO.C,XEND1*%
X160800000Y-88000000D03*
X163300000Y-88000000D03*
%TD*%
D16*
%TO.C,ZM1*%
X145500000Y-109500000D03*
X145500000Y-107000000D03*
X145500000Y-104500000D03*
X145500000Y-102000000D03*
%TD*%
D12*
%TO.C,XR1*%
X162900000Y-81800000D03*
X159400000Y-81800000D03*
%TD*%
D14*
%TO.C,AUXF1*%
X194500000Y-83100000D03*
X194500000Y-80600000D03*
%TD*%
D17*
%TO.C,JX1*%
X151000000Y-100000000D03*
X190000000Y-100000000D03*
D18*
X154000000Y-96060000D03*
X157000000Y-96060000D03*
X160000000Y-96060000D03*
X163000000Y-96060000D03*
X166000000Y-96060000D03*
X169000000Y-96060000D03*
X172000000Y-96060000D03*
X175000000Y-96060000D03*
X178000000Y-96060000D03*
X181000000Y-96060000D03*
X184000000Y-96060000D03*
X187000000Y-96060000D03*
X154000000Y-99060000D03*
X157000000Y-99060000D03*
X160000000Y-99060000D03*
X163000000Y-99060000D03*
X166000000Y-99060000D03*
X169000000Y-99060000D03*
X172000000Y-99060000D03*
X175000000Y-99060000D03*
X178000000Y-99060000D03*
X181000000Y-99060000D03*
X184000000Y-99060000D03*
X187000000Y-99060000D03*
%TD*%
D13*
%TO.C,YMR1*%
X175100000Y-121000000D03*
X172600000Y-121000000D03*
X170100000Y-121000000D03*
X167600000Y-121000000D03*
%TD*%
D15*
%TO.C,XTH1*%
X168400000Y-88000000D03*
X170900000Y-88000000D03*
%TD*%
%TO.C,HEF1*%
X153200000Y-88000000D03*
X155700000Y-88000000D03*
%TD*%
D19*
%TO.C,ZM0*%
X145500000Y-122100000D03*
D16*
X145500000Y-119600000D03*
X145500000Y-117100000D03*
X145500000Y-114600000D03*
%TD*%
%TO.C,EM1*%
X145500000Y-96900000D03*
X145500000Y-94400000D03*
X145500000Y-91900000D03*
X145500000Y-89400000D03*
%TD*%
D12*
%TO.C,YR1*%
X194100000Y-122400000D03*
X194100000Y-118900000D03*
%TD*%
D14*
%TO.C,YTH1*%
X195600000Y-110800000D03*
X195600000Y-113300000D03*
%TD*%
%TO.C,AUXF3*%
X188600000Y-83100000D03*
X188600000Y-80600000D03*
%TD*%
%TO.C,ZEND1*%
X186900000Y-115900000D03*
X186900000Y-113400000D03*
%TD*%
%TO.C,AUXF*%
X188500000Y-90700000D03*
X188500000Y-88200000D03*
%TD*%
D15*
%TO.C,XTH0*%
X168400000Y-80600000D03*
X170900000Y-80600000D03*
%TD*%
D17*
%TO.C,JY1*%
X191238349Y-104810000D03*
X158238349Y-104810000D03*
D18*
X188238349Y-108750000D03*
X185238349Y-108750000D03*
X182238349Y-108750000D03*
X179238349Y-108750000D03*
X176238349Y-108750000D03*
X173238349Y-108750000D03*
X170238349Y-108750000D03*
X167238349Y-108750000D03*
X164238349Y-108750000D03*
X161238349Y-108750000D03*
X188238349Y-105750000D03*
X185238349Y-105750000D03*
X182238349Y-105750000D03*
X179238349Y-105750000D03*
X176238349Y-105750000D03*
X173238349Y-105750000D03*
X170238349Y-105750000D03*
X167238349Y-105750000D03*
X164238349Y-105750000D03*
X161238349Y-105750000D03*
%TD*%
D14*
%TO.C,ZEND0*%
X180975000Y-115900000D03*
X180975000Y-113400000D03*
%TD*%
D20*
%TO.C,XM1*%
X176000000Y-80600000D03*
D13*
X178500000Y-80600000D03*
X181000000Y-80600000D03*
X183500000Y-80600000D03*
%TD*%
D10*
%TO.C,H4*%
X184000000Y-121700000D03*
D11*
X184000000Y-121700000D03*
%TD*%
D13*
%TO.C,YML0*%
X162488349Y-115000000D03*
X159988349Y-115000000D03*
X157488349Y-115000000D03*
X154988349Y-115000000D03*
%TD*%
D14*
%TO.C,YEND1*%
X194488349Y-104900000D03*
X194488349Y-102400000D03*
%TD*%
D20*
%TO.C,XM0*%
X176000000Y-88000000D03*
D13*
X178500000Y-88000000D03*
X181000000Y-88000000D03*
X183500000Y-88000000D03*
%TD*%
M02*
