%TF.GenerationSoftware,KiCad,Pcbnew,9.0.1*%
%TF.CreationDate,2025-11-01T16:21:08+08:00*%
%TF.ProjectId,breakout,62726561-6b6f-4757-942e-6b696361645f,rev?*%
%TF.SameCoordinates,Original*%
%TF.FileFunction,Copper,L1,Top*%
%TF.FilePolarity,Positive*%
%FSLAX46Y46*%
G04 Gerber Fmt 4.6, Leading zero omitted, Abs format (unit mm)*
G04 Created by KiCad (PCBNEW 9.0.1) date 2025-11-01 16:21:08*
%MOMM*%
%LPD*%
G01*
G04 APERTURE LIST*
%TA.AperFunction,ComponentPad*%
%ADD10O,2.000000X1.700000*%
%TD*%
%TA.AperFunction,ComponentPad*%
%ADD11C,2.400000*%
%TD*%
%TA.AperFunction,ComponentPad*%
%ADD12O,1.700000X2.000000*%
%TD*%
%TA.AperFunction,ComponentPad*%
%ADD13O,1.950000X1.700000*%
%TD*%
%TA.AperFunction,ComponentPad*%
%ADD14O,1.700000X1.950000*%
%TD*%
%TA.AperFunction,ComponentPad*%
%ADD15C,3.600000*%
%TD*%
%TA.AperFunction,ConnectorPad*%
%ADD16C,5.600000*%
%TD*%
%TA.AperFunction,ComponentPad*%
%ADD17C,1.500000*%
%TD*%
%TA.AperFunction,ViaPad*%
%ADD18C,0.600000*%
%TD*%
%TA.AperFunction,Conductor*%
%ADD19C,0.300000*%
%TD*%
%TA.AperFunction,Conductor*%
%ADD20C,2.000000*%
%TD*%
%TA.AperFunction,Conductor*%
%ADD21C,1.700000*%
%TD*%
%TA.AperFunction,Conductor*%
%ADD22C,1.000000*%
%TD*%
G04 APERTURE END LIST*
D10*
%TO.P,YEND,2,2*%
%TO.N,Net-(JY1-Pin_14)*%
X194700000Y-102400000D03*
%TO.P,YEND,1,1*%
%TO.N,Net-(JY1-Pin_13)*%
X194700000Y-104900000D03*
%TD*%
D11*
%TO.P,YR,1*%
%TO.N,Net-(JY1-Pin_2)*%
X194100000Y-122400000D03*
%TO.P,YR,2*%
%TO.N,Net-(JY1-Pin_1)*%
X194100000Y-118900000D03*
%TD*%
%TO.P,XR1,1*%
%TO.N,Net-(JX1-Pin_6)*%
X162900000Y-78800000D03*
%TO.P,XR1,2*%
%TO.N,Net-(JX1-Pin_5)*%
X159400000Y-78800000D03*
%TD*%
%TO.P,XR0,1*%
%TO.N,Net-(JX1-Pin_4)*%
X148600000Y-78800000D03*
%TO.P,XR0,2*%
%TO.N,Net-(JX1-Pin_3)*%
X145100000Y-78800000D03*
%TD*%
D10*
%TO.P,ZEND0,1,1*%
%TO.N,Net-(JY1-Pin_14)*%
X180975000Y-115900000D03*
%TO.P,ZEND0,2,2*%
%TO.N,Net-(JY1-Pin_11)*%
X180975000Y-113400000D03*
%TD*%
%TO.P,FANPWM,1,Pin_1*%
%TO.N,Net-(FANPWM1-Pin_1)*%
X194500000Y-87700000D03*
%TO.P,FANPWM,2,Pin_2*%
X194500000Y-85200000D03*
%TD*%
D12*
%TO.P,XEND,1,1*%
%TO.N,Net-(JY1-Pin_14)*%
X160800000Y-85000000D03*
%TO.P,XEND,2,2*%
%TO.N,Net-(JX1-Pin_7)*%
X163300000Y-85000000D03*
%TD*%
D10*
%TO.P,AUXF1,1,+*%
%TO.N,Net-(AUXF1-+)*%
X194500000Y-80100000D03*
%TO.P,AUXF1,2,-*%
%TO.N,Net-(AUXF1--)*%
X194500000Y-77600000D03*
%TD*%
D12*
%TO.P,XTH1,1*%
%TO.N,Net-(JX1-Pin_17)*%
X168400000Y-85000000D03*
%TO.P,XTH1,2*%
%TO.N,Net-(JX1-Pin_18)*%
X170900000Y-85000000D03*
%TD*%
%TO.P,HEF1,1,+*%
%TO.N,Net-(HEF1-+)*%
X153200000Y-85000000D03*
%TO.P,HEF1,2,-*%
%TO.N,Net-(HEF1--)*%
X155700000Y-85000000D03*
%TD*%
D10*
%TO.P,YTH,1*%
%TO.N,Net-(JY1-Pin_3)*%
X195700000Y-110800000D03*
%TO.P,YTH,2*%
%TO.N,Net-(JY1-Pin_4)*%
X195700000Y-113300000D03*
%TD*%
%TO.P,AUXF3,1,+*%
%TO.N,Net-(AUXF1-+)*%
X188500000Y-80100000D03*
%TO.P,AUXF3,2,-*%
%TO.N,Net-(AUXF1--)*%
X188500000Y-77600000D03*
%TD*%
%TO.P,ZEND1,1,1*%
%TO.N,Net-(JY1-Pin_14)*%
X186900000Y-115900000D03*
%TO.P,ZEND1,2,2*%
%TO.N,Net-(JY1-Pin_12)*%
X186900000Y-113400000D03*
%TD*%
%TO.P,AUXF,1,+*%
%TO.N,Net-(AUXF1-+)*%
X188500000Y-87700000D03*
%TO.P,AUXF,2,-*%
%TO.N,Net-(AUXF1--)*%
X188500000Y-85200000D03*
%TD*%
D12*
%TO.P,XTH0,1*%
%TO.N,Net-(JX1-Pin_19)*%
X168400000Y-77600000D03*
%TO.P,XTH0,2*%
%TO.N,Net-(JX1-Pin_20)*%
X170900000Y-77600000D03*
%TD*%
D13*
%TO.P,ZM1,1,Pin_1*%
%TO.N,Net-(JY1-Pin_20)*%
X145500000Y-109500000D03*
%TO.P,ZM1,2,Pin_2*%
%TO.N,Net-(JY1-Pin_19)*%
X145500000Y-107000000D03*
%TO.P,ZM1,3,Pin_3*%
%TO.N,Net-(JY1-Pin_18)*%
X145500000Y-104500000D03*
%TO.P,ZM1,4,Pin_4*%
%TO.N,Net-(JY1-Pin_17)*%
X145500000Y-102000000D03*
%TD*%
D14*
%TO.P,YMR0,1,Pin_1*%
%TO.N,Net-(JY1-Pin_7)*%
X175100000Y-115000000D03*
%TO.P,YMR0,2,Pin_2*%
%TO.N,Net-(JY1-Pin_8)*%
X172600000Y-115000000D03*
%TO.P,YMR0,3,Pin_3*%
%TO.N,Net-(JY1-Pin_10)*%
X170100000Y-115000000D03*
%TO.P,YMR0,4,Pin_4*%
%TO.N,Net-(JY1-Pin_9)*%
X167600000Y-115000000D03*
%TD*%
%TO.P,YML1,1,Pin_1*%
%TO.N,Net-(JY1-Pin_7)*%
X162488349Y-121000000D03*
%TO.P,YML1,2,Pin_2*%
%TO.N,Net-(JY1-Pin_8)*%
X159988349Y-121000000D03*
%TO.P,YML1,3,Pin_3*%
%TO.N,Net-(JY1-Pin_9)*%
X157488349Y-121000000D03*
%TO.P,YML1,4,Pin_4*%
%TO.N,Net-(JY1-Pin_10)*%
X154988349Y-121000000D03*
%TD*%
%TO.P,YMR1,1,Pin_1*%
%TO.N,Net-(JY1-Pin_7)*%
X175100000Y-121000000D03*
%TO.P,YMR1,2,Pin_2*%
%TO.N,Net-(JY1-Pin_8)*%
X172600000Y-121000000D03*
%TO.P,YMR1,3,Pin_3*%
%TO.N,Net-(JY1-Pin_10)*%
X170100000Y-121000000D03*
%TO.P,YMR1,4,Pin_4*%
%TO.N,Net-(JY1-Pin_9)*%
X167600000Y-121000000D03*
%TD*%
D13*
%TO.P,ZM0,1,Pin_1*%
%TO.N,Net-(JY1-Pin_15)*%
X145500000Y-122100000D03*
%TO.P,ZM0,2,Pin_2*%
%TO.N,Net-(JY1-Pin_16)*%
X145500000Y-119600000D03*
%TO.P,ZM0,3,Pin_3*%
%TO.N,Net-(JY1-Pin_6)*%
X145500000Y-117100000D03*
%TO.P,ZM0,4,Pin_4*%
%TO.N,Net-(JY1-Pin_5)*%
X145500000Y-114600000D03*
%TD*%
%TO.P,EM,1,Pin_1*%
%TO.N,Net-(EM1-Pin_1)*%
X145500000Y-96900000D03*
%TO.P,EM,2,Pin_2*%
%TO.N,Net-(EM1-Pin_2)*%
X145500000Y-94400000D03*
%TO.P,EM,3,Pin_3*%
%TO.N,Net-(EM1-Pin_3)*%
X145500000Y-91900000D03*
%TO.P,EM,4,Pin_4*%
%TO.N,Net-(EM1-Pin_4)*%
X145500000Y-89400000D03*
%TD*%
D14*
%TO.P,XM1,1,Pin_1*%
%TO.N,Net-(JX1-Pin_8)*%
X176000000Y-77600000D03*
%TO.P,XM1,2,Pin_2*%
%TO.N,Net-(JX1-Pin_9)*%
X178500000Y-77600000D03*
%TO.P,XM1,3,Pin_3*%
%TO.N,Net-(JX1-Pin_10)*%
X181000000Y-77600000D03*
%TO.P,XM1,4,Pin_4*%
%TO.N,Net-(JX1-Pin_11)*%
X183500000Y-77600000D03*
%TD*%
%TO.P,YML0,1,Pin_1*%
%TO.N,Net-(JY1-Pin_7)*%
X162488349Y-115000000D03*
%TO.P,YML0,2,Pin_2*%
%TO.N,Net-(JY1-Pin_8)*%
X159988349Y-115000000D03*
%TO.P,YML0,3,Pin_3*%
%TO.N,Net-(JY1-Pin_9)*%
X157488349Y-115000000D03*
%TO.P,YML0,4,Pin_4*%
%TO.N,Net-(JY1-Pin_10)*%
X154988349Y-115000000D03*
%TD*%
%TO.P,XM0,1,Pin_1*%
%TO.N,Net-(JX1-Pin_8)*%
X176000000Y-85000000D03*
%TO.P,XM0,2,Pin_2*%
%TO.N,Net-(JX1-Pin_9)*%
X178500000Y-85000000D03*
%TO.P,XM0,3,Pin_3*%
%TO.N,Net-(JX1-Pin_10)*%
X181000000Y-85000000D03*
%TO.P,XM0,4,Pin_4*%
%TO.N,Net-(JX1-Pin_11)*%
X183500000Y-85000000D03*
%TD*%
D15*
%TO.P,H1,1,1*%
%TO.N,GND*%
X154000000Y-78500000D03*
D16*
X154000000Y-78500000D03*
%TD*%
D17*
%TO.P,JX1,1,Pin_1*%
%TO.N,Net-(EM1-Pin_4)*%
X154000000Y-93060000D03*
%TO.P,JX1,2,Pin_2*%
%TO.N,Net-(EM1-Pin_3)*%
X157000000Y-93060000D03*
%TO.P,JX1,3,Pin_3*%
%TO.N,Net-(JX1-Pin_3)*%
X160000000Y-93060000D03*
%TO.P,JX1,4,Pin_4*%
%TO.N,Net-(JX1-Pin_4)*%
X163000000Y-93060000D03*
%TO.P,JX1,5,Pin_5*%
%TO.N,Net-(JX1-Pin_5)*%
X166000000Y-93060000D03*
%TO.P,JX1,6,Pin_6*%
%TO.N,Net-(JX1-Pin_6)*%
X169000000Y-93060000D03*
%TO.P,JX1,7,Pin_7*%
%TO.N,Net-(JX1-Pin_7)*%
X172000000Y-93060000D03*
%TO.P,JX1,8,Pin_8*%
%TO.N,Net-(JX1-Pin_8)*%
X175000000Y-93060000D03*
%TO.P,JX1,9,Pin_9*%
%TO.N,Net-(JX1-Pin_9)*%
X178000000Y-93060000D03*
%TO.P,JX1,10,Pin_10*%
%TO.N,Net-(JX1-Pin_10)*%
X181000000Y-93060000D03*
%TO.P,JX1,11,Pin_11*%
%TO.N,Net-(JX1-Pin_11)*%
X184000000Y-93060000D03*
%TO.P,JX1,12,Pin_12*%
%TO.N,Net-(AUXF1--)*%
X187000000Y-93060000D03*
%TO.P,JX1,13,Pin_13*%
%TO.N,Net-(EM1-Pin_2)*%
X154000000Y-96060000D03*
%TO.P,JX1,14,Pin_14*%
%TO.N,Net-(EM1-Pin_1)*%
X157000000Y-96060000D03*
%TO.P,JX1,15,Pin_15*%
%TO.N,Net-(HEF1-+)*%
X160000000Y-96060000D03*
%TO.P,JX1,16,Pin_16*%
%TO.N,Net-(HEF1--)*%
X163000000Y-96060000D03*
%TO.P,JX1,17,Pin_17*%
%TO.N,Net-(JX1-Pin_17)*%
X166000000Y-96060000D03*
%TO.P,JX1,18,Pin_18*%
%TO.N,Net-(JX1-Pin_18)*%
X169000000Y-96060000D03*
%TO.P,JX1,19,Pin_19*%
%TO.N,Net-(JX1-Pin_19)*%
X172000000Y-96060000D03*
%TO.P,JX1,20,Pin_20*%
%TO.N,Net-(JX1-Pin_20)*%
X175000000Y-96060000D03*
%TO.P,JX1,21,Pin_21*%
%TO.N,GND*%
X178000000Y-96060000D03*
%TO.P,JX1,22,Pin_22*%
X181000000Y-96060000D03*
%TO.P,JX1,23,Pin_23*%
%TO.N,Net-(FANPWM1-Pin_1)*%
X184000000Y-96060000D03*
%TO.P,JX1,24,Pin_24*%
%TO.N,Net-(AUXF1-+)*%
X187000000Y-96060000D03*
%TD*%
%TO.P,JY1,1,Pin_1*%
%TO.N,Net-(JY1-Pin_1)*%
X188238349Y-108750000D03*
%TO.P,JY1,2,Pin_2*%
%TO.N,Net-(JY1-Pin_2)*%
X185238349Y-108750000D03*
%TO.P,JY1,3,Pin_3*%
%TO.N,Net-(JY1-Pin_3)*%
X182238349Y-108750000D03*
%TO.P,JY1,4,Pin_4*%
%TO.N,Net-(JY1-Pin_4)*%
X179238349Y-108750000D03*
%TO.P,JY1,5,Pin_5*%
%TO.N,Net-(JY1-Pin_5)*%
X176238349Y-108750000D03*
%TO.P,JY1,6,Pin_6*%
%TO.N,Net-(JY1-Pin_6)*%
X173238349Y-108750000D03*
%TO.P,JY1,7,Pin_7*%
%TO.N,Net-(JY1-Pin_7)*%
X170238349Y-108750000D03*
%TO.P,JY1,8,Pin_8*%
%TO.N,Net-(JY1-Pin_8)*%
X167238349Y-108750000D03*
%TO.P,JY1,9,Pin_9*%
%TO.N,Net-(JY1-Pin_9)*%
X164238349Y-108750000D03*
%TO.P,JY1,10,Pin_10*%
%TO.N,Net-(JY1-Pin_10)*%
X161238349Y-108750000D03*
%TO.P,JY1,11,Pin_11*%
%TO.N,Net-(JY1-Pin_11)*%
X188238349Y-105750000D03*
%TO.P,JY1,12,Pin_12*%
%TO.N,Net-(JY1-Pin_12)*%
X185238349Y-105750000D03*
%TO.P,JY1,13,Pin_13*%
%TO.N,Net-(JY1-Pin_13)*%
X182238349Y-105750000D03*
%TO.P,JY1,14,Pin_14*%
%TO.N,Net-(JY1-Pin_14)*%
X179238349Y-105750000D03*
%TO.P,JY1,15,Pin_15*%
%TO.N,Net-(JY1-Pin_15)*%
X176238349Y-105750000D03*
%TO.P,JY1,16,Pin_16*%
%TO.N,Net-(JY1-Pin_16)*%
X173238349Y-105750000D03*
%TO.P,JY1,17,Pin_17*%
%TO.N,Net-(JY1-Pin_17)*%
X170238349Y-105750000D03*
%TO.P,JY1,18,Pin_18*%
%TO.N,Net-(JY1-Pin_18)*%
X167238349Y-105750000D03*
%TO.P,JY1,19,Pin_19*%
%TO.N,Net-(JY1-Pin_19)*%
X164238349Y-105750000D03*
%TO.P,JY1,20,Pin_20*%
%TO.N,Net-(JY1-Pin_20)*%
X161238349Y-105750000D03*
%TD*%
D15*
%TO.P,H4,1,1*%
%TO.N,GND*%
X184000000Y-121700000D03*
D16*
X184000000Y-121700000D03*
%TD*%
D18*
%TO.N,Net-(JY1-Pin_6)*%
X155800000Y-104200000D03*
X152900000Y-107100000D03*
X174450000Y-105237043D03*
%TO.N,Net-(JY1-Pin_5)*%
X154800000Y-104200000D03*
X175100000Y-104699999D03*
X151900000Y-107100000D03*
%TO.N,Net-(JY1-Pin_14)*%
X170600000Y-97500000D03*
%TD*%
D19*
%TO.N,Net-(JY1-Pin_13)*%
X193000000Y-103200000D02*
X184788349Y-103200000D01*
X184788349Y-103200000D02*
X182238349Y-105750000D01*
X194488349Y-104688349D02*
X193000000Y-103200000D01*
X194488349Y-104900000D02*
X194488349Y-104688349D01*
%TO.N,Net-(JY1-Pin_4)*%
X195700000Y-113300000D02*
X195600000Y-113300000D01*
X194601000Y-112001000D02*
X195700000Y-113100000D01*
X194594130Y-112001000D02*
X194601000Y-112001000D01*
X194249000Y-111655870D02*
X194594130Y-112001000D01*
X184548000Y-107352000D02*
X191543480Y-107352000D01*
X183800000Y-108100000D02*
X184548000Y-107352000D01*
X191543480Y-107352000D02*
X194249000Y-110057520D01*
X183800000Y-109200000D02*
X183800000Y-108100000D01*
X195700000Y-113100000D02*
X195700000Y-113300000D01*
X180488349Y-110000000D02*
X183000000Y-110000000D01*
X183000000Y-110000000D02*
X183800000Y-109200000D01*
X179238349Y-108750000D02*
X180488349Y-110000000D01*
X194249000Y-110057520D02*
X194249000Y-111655870D01*
%TO.N,Net-(JY1-Pin_3)*%
X182350000Y-108750000D02*
X182238349Y-108750000D01*
X184249000Y-106851000D02*
X182350000Y-108750000D01*
X191751000Y-106851000D02*
X184249000Y-106851000D01*
X195600000Y-110800000D02*
X195600000Y-110700000D01*
X195600000Y-110700000D02*
X191751000Y-106851000D01*
D20*
%TO.N,Net-(AUXF1-+)*%
X190100000Y-87700000D02*
X188500000Y-87700000D01*
X191400000Y-86400000D02*
X191400000Y-82200000D01*
X191400000Y-82200000D02*
X193400000Y-80200000D01*
X189400000Y-80200000D02*
X191400000Y-82200000D01*
X194500000Y-80100000D02*
X188600000Y-80100000D01*
X187600000Y-96060000D02*
X187000000Y-96060000D01*
X189800000Y-90600000D02*
X189800000Y-93860000D01*
X189800000Y-88000000D02*
X191400000Y-86400000D01*
X188500000Y-87700000D02*
X189800000Y-89000000D01*
X189800000Y-89000000D02*
X189800000Y-90600000D01*
X191400000Y-86400000D02*
X190100000Y-87700000D01*
X189800000Y-90600000D02*
X189800000Y-88000000D01*
X189800000Y-93860000D02*
X187600000Y-96060000D01*
%TO.N,Net-(AUXF1--)*%
X186100000Y-92160000D02*
X187000000Y-93060000D01*
X188500000Y-85200000D02*
X187000000Y-85200000D01*
X186100000Y-82800000D02*
X188500000Y-85200000D01*
X187000000Y-85200000D02*
X186100000Y-86100000D01*
X186100000Y-82800000D02*
X186100000Y-86100000D01*
X186100000Y-78950000D02*
X187450000Y-77600000D01*
X188600000Y-77600000D02*
X194500000Y-77600000D01*
X186100000Y-86100000D02*
X186100000Y-92160000D01*
X187450000Y-77600000D02*
X188600000Y-77600000D01*
X186100000Y-82800000D02*
X186100000Y-78950000D01*
D21*
%TO.N,Net-(JX1-Pin_8)*%
X176000000Y-85000000D02*
X176000000Y-92060000D01*
X176000000Y-77600000D02*
X176000000Y-85000000D01*
X176000000Y-92060000D02*
X175000000Y-93060000D01*
%TO.N,Net-(JX1-Pin_9)*%
X178500000Y-85000000D02*
X178500000Y-92560000D01*
X178500000Y-92560000D02*
X178000000Y-93060000D01*
X178500000Y-77600000D02*
X178500000Y-85000000D01*
%TO.N,Net-(JX1-Pin_10)*%
X181000000Y-77600000D02*
X181000000Y-85000000D01*
X181000000Y-85000000D02*
X181000000Y-93060000D01*
%TO.N,Net-(JY1-Pin_8)*%
X161436349Y-112552000D02*
X163436349Y-112552000D01*
X159988349Y-114000000D02*
X161436349Y-112552000D01*
X163436349Y-112552000D02*
X167238349Y-108750000D01*
X172600000Y-115000000D02*
X172600000Y-121000000D01*
X159988349Y-119511651D02*
X159988349Y-114000000D01*
X159988349Y-115000000D02*
X159988349Y-119511651D01*
X159988349Y-119511651D02*
X159988349Y-121000000D01*
D19*
%TO.N,Net-(JY1-Pin_19)*%
X164238349Y-105750000D02*
X163137349Y-104649000D01*
X146600000Y-105900000D02*
X145500000Y-107000000D01*
X159531299Y-105900000D02*
X146600000Y-105900000D01*
X160782299Y-104649000D02*
X159531299Y-105900000D01*
X163137349Y-104649000D02*
X160782299Y-104649000D01*
D20*
%TO.N,Net-(JY1-Pin_2)*%
X185238349Y-109810660D02*
X186527689Y-111100000D01*
X190100000Y-118700000D02*
X193800000Y-122400000D01*
X186527689Y-111100000D02*
X188400000Y-111100000D01*
X193800000Y-122400000D02*
X194100000Y-122400000D01*
X190100000Y-112800000D02*
X190100000Y-118700000D01*
X188400000Y-111100000D02*
X190100000Y-112800000D01*
X185238349Y-108750000D02*
X185238349Y-109810660D01*
D21*
%TO.N,Net-(JY1-Pin_9)*%
X159249000Y-123649000D02*
X165351000Y-123649000D01*
X162337349Y-110651000D02*
X164238349Y-108750000D01*
X157488349Y-115000000D02*
X157488349Y-121888349D01*
X157488349Y-113250000D02*
X160087349Y-110651000D01*
X157488349Y-115000000D02*
X157488349Y-113250000D01*
X157488349Y-121888349D02*
X159249000Y-123649000D01*
X160087349Y-110651000D02*
X162337349Y-110651000D01*
X165351000Y-123649000D02*
X167600000Y-121400000D01*
X167600000Y-121400000D02*
X167600000Y-115000000D01*
D19*
%TO.N,Net-(JY1-Pin_17)*%
X148398000Y-104898000D02*
X145500000Y-102000000D01*
X170238349Y-105750000D02*
X167388349Y-102900000D01*
X156093480Y-104898000D02*
X148398000Y-104898000D01*
X167388349Y-102900000D02*
X158091480Y-102900000D01*
X158091480Y-102900000D02*
X156093480Y-104898000D01*
D20*
%TO.N,Net-(JY1-Pin_1)*%
X188238349Y-108750000D02*
X189750000Y-108750000D01*
X189750000Y-108750000D02*
X192700000Y-111700000D01*
X192700000Y-111700000D02*
X192700000Y-117500000D01*
X192700000Y-117500000D02*
X194100000Y-118900000D01*
D21*
%TO.N,Net-(JY1-Pin_10)*%
X154988349Y-112575000D02*
X158813349Y-108750000D01*
X154988349Y-121000000D02*
X154988349Y-115000000D01*
X154988349Y-115000000D02*
X154988349Y-112575000D01*
X170100000Y-115000000D02*
X170100000Y-121000000D01*
X158813349Y-108750000D02*
X161238349Y-108750000D01*
D19*
%TO.N,Net-(JY1-Pin_18)*%
X158299000Y-103401000D02*
X156301000Y-105399000D01*
X167238349Y-105750000D02*
X164889349Y-103401000D01*
X146399000Y-105399000D02*
X145500000Y-104500000D01*
X164889349Y-103401000D02*
X158299000Y-103401000D01*
X156301000Y-105399000D02*
X146399000Y-105399000D01*
%TO.N,Net-(JY1-Pin_20)*%
X148600000Y-106400000D02*
X145500000Y-109500000D01*
X161238349Y-105750000D02*
X160588349Y-106400000D01*
X160588349Y-106400000D02*
X148600000Y-106400000D01*
%TO.N,Net-(JY1-Pin_6)*%
X152900000Y-107100000D02*
X146900000Y-113100000D01*
X146900000Y-113100000D02*
X146900000Y-115700000D01*
X157800000Y-102200000D02*
X155752000Y-104248000D01*
X174450000Y-105237043D02*
X174450000Y-105207241D01*
X146900000Y-115700000D02*
X145500000Y-117100000D01*
X174450000Y-105207241D02*
X171442759Y-102200000D01*
X171442759Y-102200000D02*
X157800000Y-102200000D01*
D21*
%TO.N,Net-(JY1-Pin_7)*%
X164100000Y-115000000D02*
X164088349Y-115000000D01*
X170238349Y-108750000D02*
X168394174Y-110594174D01*
X168394174Y-110594174D02*
X164100000Y-114888349D01*
X164088349Y-115000000D02*
X162488349Y-116600000D01*
X164100000Y-114888349D02*
X164100000Y-115000000D01*
X175100000Y-113611651D02*
X175100000Y-115000000D01*
X162488349Y-116600000D02*
X162488349Y-121000000D01*
X172244175Y-110755825D02*
X175100000Y-113611651D01*
X168744174Y-110244174D02*
X171732524Y-110244174D01*
X162488349Y-115000000D02*
X162488349Y-116600000D01*
X175100000Y-121000000D02*
X175100000Y-115000000D01*
X168394174Y-110594174D02*
X168744174Y-110244174D01*
X170238349Y-108750000D02*
X172244175Y-110755825D01*
X164100000Y-115000000D02*
X162488349Y-115000000D01*
X171732524Y-110244174D02*
X172244175Y-110755825D01*
D19*
%TO.N,Net-(JY1-Pin_5)*%
X172000001Y-101600000D02*
X157400000Y-101600000D01*
X175100000Y-104699999D02*
X172000001Y-101600000D01*
X151900000Y-107100000D02*
X145500000Y-113500000D01*
X145500000Y-113500000D02*
X145500000Y-114600000D01*
X157400000Y-101600000D02*
X154800000Y-104200000D01*
%TO.N,Net-(FANPWM1-Pin_1)*%
X194500000Y-84600000D02*
X194500000Y-94000000D01*
X186440000Y-98500000D02*
X184000000Y-96060000D01*
X190000000Y-98500000D02*
X186440000Y-98500000D01*
X194500000Y-94000000D02*
X190000000Y-98500000D01*
D21*
%TO.N,Net-(JX1-Pin_4)*%
X163000000Y-93000000D02*
X163000000Y-93060000D01*
X157500000Y-88000000D02*
X160400000Y-90900000D01*
X150400000Y-82600000D02*
X150400000Y-85426080D01*
X150400000Y-85426080D02*
X152973920Y-88000000D01*
X152973920Y-88000000D02*
X157500000Y-88000000D01*
X148600000Y-78800000D02*
X148600000Y-80800000D01*
X148600000Y-80800000D02*
X150400000Y-82600000D01*
X160900000Y-90900000D02*
X163000000Y-93000000D01*
X160400000Y-90900000D02*
X160900000Y-90900000D01*
%TO.N,Net-(JX1-Pin_11)*%
X183500000Y-85000000D02*
X183500000Y-92560000D01*
X183500000Y-92560000D02*
X184000000Y-93060000D01*
X183500000Y-77600000D02*
X183500000Y-85000000D01*
D19*
%TO.N,Net-(JX1-Pin_18)*%
X170900000Y-94160000D02*
X169000000Y-96060000D01*
X170900000Y-85000000D02*
X170900000Y-94160000D01*
%TO.N,Net-(JX1-Pin_17)*%
X170399000Y-93952480D02*
X169392480Y-94959000D01*
X170399000Y-86999000D02*
X170399000Y-93952480D01*
X167101000Y-94959000D02*
X166000000Y-96060000D01*
X169392480Y-94959000D02*
X167101000Y-94959000D01*
X168400000Y-85000000D02*
X170399000Y-86999000D01*
X168400000Y-85000000D02*
X168900000Y-85000000D01*
%TO.N,Net-(JX1-Pin_19)*%
X168400000Y-77600000D02*
X169051530Y-77600000D01*
X169051530Y-77600000D02*
X170402530Y-78951000D01*
X171542480Y-78951000D02*
X173199000Y-80607520D01*
X173199000Y-94861000D02*
X172000000Y-96060000D01*
X170402530Y-78951000D02*
X171542480Y-78951000D01*
X173199000Y-80607520D02*
X173199000Y-94861000D01*
%TO.N,Net-(JX1-Pin_20)*%
X170900000Y-77600000D02*
X173700000Y-80400000D01*
X173700000Y-94760000D02*
X175000000Y-96060000D01*
X173700000Y-80400000D02*
X173700000Y-94760000D01*
%TO.N,Net-(JY1-Pin_15)*%
X154599000Y-107401000D02*
X148300000Y-113700000D01*
X148300000Y-119300000D02*
X145500000Y-122100000D01*
X148300000Y-113700000D02*
X148300000Y-119300000D01*
X173199000Y-107401000D02*
X154599000Y-107401000D01*
X176238349Y-105750000D02*
X174850000Y-105750000D01*
X174850000Y-105750000D02*
X173199000Y-107401000D01*
%TO.N,Net-(JY1-Pin_16)*%
X154100000Y-106900000D02*
X172088349Y-106900000D01*
X147600000Y-117500000D02*
X147600000Y-113400000D01*
X147600000Y-113400000D02*
X154100000Y-106900000D01*
X172088349Y-106900000D02*
X173238349Y-105750000D01*
X145500000Y-119600000D02*
X147600000Y-117500000D01*
%TO.N,Net-(JY1-Pin_14)*%
X170600000Y-99400000D02*
X173600000Y-102400000D01*
X180975000Y-115900000D02*
X186900000Y-115900000D01*
X176794174Y-106900000D02*
X175100000Y-106900000D01*
X180000000Y-115900000D02*
X180975000Y-115900000D01*
X174400000Y-110300000D02*
X180000000Y-115900000D01*
X182588350Y-102400000D02*
X181994175Y-102994175D01*
X179238349Y-105750000D02*
X177944174Y-105750000D01*
X177944174Y-105750000D02*
X176794174Y-106900000D01*
X174400000Y-107600000D02*
X174400000Y-110300000D01*
X173600000Y-102400000D02*
X182588350Y-102400000D01*
X175100000Y-106900000D02*
X174400000Y-107600000D01*
X181994175Y-102994175D02*
X179238349Y-105750000D01*
X194488349Y-102400000D02*
X182588350Y-102400000D01*
X170600000Y-97500000D02*
X170600000Y-99400000D01*
%TO.N,Net-(JY1-Pin_12)*%
X184638349Y-106350000D02*
X184041479Y-106350000D01*
X184500000Y-113400000D02*
X186900000Y-113400000D01*
X183901000Y-106352920D02*
X182901919Y-107352000D01*
X178548000Y-107352000D02*
X177700000Y-108200000D01*
X177700000Y-110200000D02*
X178900000Y-111400000D01*
X185238349Y-105750000D02*
X184638349Y-106350000D01*
X184041479Y-106350000D02*
X184038560Y-106352920D01*
X184038560Y-106352920D02*
X183901000Y-106352920D01*
X177700000Y-108200000D02*
X177700000Y-110200000D01*
X182901919Y-107352000D02*
X178548000Y-107352000D01*
X178900000Y-111400000D02*
X182500000Y-111400000D01*
X182500000Y-111400000D02*
X184500000Y-113400000D01*
%TO.N,Net-(JY1-Pin_11)*%
X183800000Y-105200000D02*
X183800000Y-105745399D01*
X184900000Y-104100000D02*
X183800000Y-105200000D01*
X183800000Y-105745399D02*
X182694399Y-106851000D01*
X174901000Y-110092480D02*
X178208520Y-113400000D01*
X175500000Y-107400000D02*
X174901000Y-107999000D01*
X188238349Y-105750000D02*
X186588349Y-104100000D01*
X174901000Y-107999000D02*
X174901000Y-110092480D01*
X177749000Y-106851000D02*
X177200000Y-107400000D01*
X177200000Y-107400000D02*
X175500000Y-107400000D01*
X182694399Y-106851000D02*
X177749000Y-106851000D01*
X186588349Y-104100000D02*
X184900000Y-104100000D01*
X178208520Y-113400000D02*
X180975000Y-113400000D01*
D21*
%TO.N,Net-(JX1-Pin_6)*%
X162900000Y-78800000D02*
X165900000Y-81800000D01*
X169000000Y-89800000D02*
X169000000Y-93060000D01*
X165900000Y-86700000D02*
X169000000Y-89800000D01*
X165900000Y-81800000D02*
X165900000Y-86700000D01*
%TO.N,Net-(JX1-Pin_5)*%
X162100000Y-88800000D02*
X166000000Y-92700000D01*
X158200000Y-80000000D02*
X158200000Y-85600000D01*
X158200000Y-85600000D02*
X161400000Y-88800000D01*
X166000000Y-92700000D02*
X166000000Y-93060000D01*
X161400000Y-88800000D02*
X162100000Y-88800000D01*
X159400000Y-78800000D02*
X158200000Y-80000000D01*
%TO.N,Net-(JX1-Pin_3)*%
X157729000Y-91259000D02*
X157745999Y-91259000D01*
X145100000Y-78800000D02*
X145100000Y-80500000D01*
X148200000Y-86286580D02*
X151962420Y-90049000D01*
X145100000Y-80500000D02*
X148200000Y-83600000D01*
X151962420Y-90049000D02*
X156519000Y-90049000D01*
X158801000Y-92331000D02*
X159530000Y-93060000D01*
X158801000Y-92314001D02*
X158801000Y-92331000D01*
X148200000Y-83600000D02*
X148200000Y-86286580D01*
X159530000Y-93060000D02*
X160000000Y-93060000D01*
X156519000Y-90049000D02*
X157729000Y-91259000D01*
X157745999Y-91259000D02*
X158801000Y-92314001D01*
D22*
%TO.N,Net-(EM1-Pin_3)*%
X155460000Y-94600000D02*
X148200000Y-94600000D01*
X148200000Y-94600000D02*
X145500000Y-91900000D01*
X157000000Y-93060000D02*
X155460000Y-94600000D01*
%TO.N,Net-(EM1-Pin_2)*%
X149361000Y-98261000D02*
X145500000Y-94400000D01*
X154000000Y-96060000D02*
X151799000Y-98261000D01*
X151799000Y-98261000D02*
X149361000Y-98261000D01*
%TO.N,Net-(EM1-Pin_1)*%
X148600000Y-100000000D02*
X153060000Y-100000000D01*
X145500000Y-96900000D02*
X148600000Y-100000000D01*
X153060000Y-100000000D02*
X157000000Y-96060000D01*
%TO.N,Net-(EM1-Pin_4)*%
X145500000Y-89400000D02*
X149160000Y-93060000D01*
X149160000Y-93060000D02*
X154000000Y-93060000D01*
%TD*%
M02*
