%TF.GenerationSoftware,KiCad,Pcbnew,9.0.1*%
%TF.CreationDate,2025-08-04T14:01:18+08:00*%
%TF.ProjectId,breakout,62726561-6b6f-4757-942e-6b696361645f,rev?*%
%TF.SameCoordinates,Original*%
%TF.FileFunction,Legend,Top*%
%TF.FilePolarity,Positive*%
%FSLAX46Y46*%
G04 Gerber Fmt 4.6, Leading zero omitted, Abs format (unit mm)*
G04 Created by KiCad (PCBNEW 9.0.1) date 2025-08-04 14:01:18*
%MOMM*%
%LPD*%
G01*
G04 APERTURE LIST*
%ADD10C,0.300000*%
%ADD11C,0.150000*%
%ADD12C,0.120000*%
G04 APERTURE END LIST*
D10*
X152322368Y-103200828D02*
X152322368Y-101700828D01*
X152322368Y-101700828D02*
X153197368Y-102772257D01*
X153197368Y-102772257D02*
X154072368Y-101700828D01*
X154072368Y-101700828D02*
X154072368Y-103200828D01*
X155322368Y-103200828D02*
X155322368Y-101700828D01*
X158072368Y-103057971D02*
X157947368Y-103129400D01*
X157947368Y-103129400D02*
X157572368Y-103200828D01*
X157572368Y-103200828D02*
X157322368Y-103200828D01*
X157322368Y-103200828D02*
X156947368Y-103129400D01*
X156947368Y-103129400D02*
X156697368Y-102986542D01*
X156697368Y-102986542D02*
X156572368Y-102843685D01*
X156572368Y-102843685D02*
X156447368Y-102557971D01*
X156447368Y-102557971D02*
X156447368Y-102343685D01*
X156447368Y-102343685D02*
X156572368Y-102057971D01*
X156572368Y-102057971D02*
X156697368Y-101915114D01*
X156697368Y-101915114D02*
X156947368Y-101772257D01*
X156947368Y-101772257D02*
X157322368Y-101700828D01*
X157322368Y-101700828D02*
X157572368Y-101700828D01*
X157572368Y-101700828D02*
X157947368Y-101772257D01*
X157947368Y-101772257D02*
X158072368Y-101843685D01*
X160697368Y-103200828D02*
X159822368Y-102486542D01*
X159197368Y-103200828D02*
X159197368Y-101700828D01*
X159197368Y-101700828D02*
X160197368Y-101700828D01*
X160197368Y-101700828D02*
X160447368Y-101772257D01*
X160447368Y-101772257D02*
X160572368Y-101843685D01*
X160572368Y-101843685D02*
X160697368Y-101986542D01*
X160697368Y-101986542D02*
X160697368Y-102200828D01*
X160697368Y-102200828D02*
X160572368Y-102343685D01*
X160572368Y-102343685D02*
X160447368Y-102415114D01*
X160447368Y-102415114D02*
X160197368Y-102486542D01*
X160197368Y-102486542D02*
X159197368Y-102486542D01*
X162322368Y-101700828D02*
X162822368Y-101700828D01*
X162822368Y-101700828D02*
X163072368Y-101772257D01*
X163072368Y-101772257D02*
X163322368Y-101915114D01*
X163322368Y-101915114D02*
X163447368Y-102200828D01*
X163447368Y-102200828D02*
X163447368Y-102700828D01*
X163447368Y-102700828D02*
X163322368Y-102986542D01*
X163322368Y-102986542D02*
X163072368Y-103129400D01*
X163072368Y-103129400D02*
X162822368Y-103200828D01*
X162822368Y-103200828D02*
X162322368Y-103200828D01*
X162322368Y-103200828D02*
X162072368Y-103129400D01*
X162072368Y-103129400D02*
X161822368Y-102986542D01*
X161822368Y-102986542D02*
X161697368Y-102700828D01*
X161697368Y-102700828D02*
X161697368Y-102200828D01*
X161697368Y-102200828D02*
X161822368Y-101915114D01*
X161822368Y-101915114D02*
X162072368Y-101772257D01*
X162072368Y-101772257D02*
X162322368Y-101700828D01*
X165447368Y-102415114D02*
X165822368Y-102486542D01*
X165822368Y-102486542D02*
X165947368Y-102557971D01*
X165947368Y-102557971D02*
X166072368Y-102700828D01*
X166072368Y-102700828D02*
X166072368Y-102915114D01*
X166072368Y-102915114D02*
X165947368Y-103057971D01*
X165947368Y-103057971D02*
X165822368Y-103129400D01*
X165822368Y-103129400D02*
X165572368Y-103200828D01*
X165572368Y-103200828D02*
X164572368Y-103200828D01*
X164572368Y-103200828D02*
X164572368Y-101700828D01*
X164572368Y-101700828D02*
X165447368Y-101700828D01*
X165447368Y-101700828D02*
X165697368Y-101772257D01*
X165697368Y-101772257D02*
X165822368Y-101843685D01*
X165822368Y-101843685D02*
X165947368Y-101986542D01*
X165947368Y-101986542D02*
X165947368Y-102129400D01*
X165947368Y-102129400D02*
X165822368Y-102272257D01*
X165822368Y-102272257D02*
X165697368Y-102343685D01*
X165697368Y-102343685D02*
X165447368Y-102415114D01*
X165447368Y-102415114D02*
X164572368Y-102415114D01*
X168697368Y-103200828D02*
X167822368Y-102486542D01*
X167197368Y-103200828D02*
X167197368Y-101700828D01*
X167197368Y-101700828D02*
X168197368Y-101700828D01*
X168197368Y-101700828D02*
X168447368Y-101772257D01*
X168447368Y-101772257D02*
X168572368Y-101843685D01*
X168572368Y-101843685D02*
X168697368Y-101986542D01*
X168697368Y-101986542D02*
X168697368Y-102200828D01*
X168697368Y-102200828D02*
X168572368Y-102343685D01*
X168572368Y-102343685D02*
X168447368Y-102415114D01*
X168447368Y-102415114D02*
X168197368Y-102486542D01*
X168197368Y-102486542D02*
X167197368Y-102486542D01*
X169822368Y-102415114D02*
X170697368Y-102415114D01*
X171072368Y-103200828D02*
X169822368Y-103200828D01*
X169822368Y-103200828D02*
X169822368Y-101700828D01*
X169822368Y-101700828D02*
X171072368Y-101700828D01*
X172072368Y-102772257D02*
X173322368Y-102772257D01*
X171822368Y-103200828D02*
X172697368Y-101700828D01*
X172697368Y-101700828D02*
X173572368Y-103200828D01*
X174447368Y-103200828D02*
X174447368Y-101700828D01*
X175947368Y-103200828D02*
X174822368Y-102343685D01*
X175947368Y-101700828D02*
X174447368Y-102557971D01*
X180572368Y-103200828D02*
X179697368Y-102486542D01*
X179072368Y-103200828D02*
X179072368Y-101700828D01*
X179072368Y-101700828D02*
X180072368Y-101700828D01*
X180072368Y-101700828D02*
X180322368Y-101772257D01*
X180322368Y-101772257D02*
X180447368Y-101843685D01*
X180447368Y-101843685D02*
X180572368Y-101986542D01*
X180572368Y-101986542D02*
X180572368Y-102200828D01*
X180572368Y-102200828D02*
X180447368Y-102343685D01*
X180447368Y-102343685D02*
X180322368Y-102415114D01*
X180322368Y-102415114D02*
X180072368Y-102486542D01*
X180072368Y-102486542D02*
X179072368Y-102486542D01*
X181697368Y-102415114D02*
X182572368Y-102415114D01*
X182947368Y-103200828D02*
X181697368Y-103200828D01*
X181697368Y-103200828D02*
X181697368Y-101700828D01*
X181697368Y-101700828D02*
X182947368Y-101700828D01*
X183697368Y-101700828D02*
X184572368Y-103200828D01*
X184572368Y-103200828D02*
X185447368Y-101700828D01*
X186322368Y-103057971D02*
X186447368Y-103129400D01*
X186447368Y-103129400D02*
X186322368Y-103200828D01*
X186322368Y-103200828D02*
X186197368Y-103129400D01*
X186197368Y-103129400D02*
X186322368Y-103057971D01*
X186322368Y-103057971D02*
X186322368Y-103200828D01*
X187322368Y-101700828D02*
X188947368Y-101700828D01*
X188947368Y-101700828D02*
X188072368Y-102272257D01*
X188072368Y-102272257D02*
X188447368Y-102272257D01*
X188447368Y-102272257D02*
X188697368Y-102343685D01*
X188697368Y-102343685D02*
X188822368Y-102415114D01*
X188822368Y-102415114D02*
X188947368Y-102557971D01*
X188947368Y-102557971D02*
X188947368Y-102915114D01*
X188947368Y-102915114D02*
X188822368Y-103057971D01*
X188822368Y-103057971D02*
X188697368Y-103129400D01*
X188697368Y-103129400D02*
X188447368Y-103200828D01*
X188447368Y-103200828D02*
X187697368Y-103200828D01*
X187697368Y-103200828D02*
X187447368Y-103129400D01*
X187447368Y-103129400D02*
X187322368Y-103057971D01*
D11*
X151014285Y-84669771D02*
X151414285Y-85269771D01*
X151414285Y-84669771D02*
X151014285Y-85269771D01*
X151985714Y-85269771D02*
X151785714Y-84984057D01*
X151642857Y-85269771D02*
X151642857Y-84669771D01*
X151642857Y-84669771D02*
X151871428Y-84669771D01*
X151871428Y-84669771D02*
X151928571Y-84698342D01*
X151928571Y-84698342D02*
X151957142Y-84726914D01*
X151957142Y-84726914D02*
X151985714Y-84784057D01*
X151985714Y-84784057D02*
X151985714Y-84869771D01*
X151985714Y-84869771D02*
X151957142Y-84926914D01*
X151957142Y-84926914D02*
X151928571Y-84955485D01*
X151928571Y-84955485D02*
X151871428Y-84984057D01*
X151871428Y-84984057D02*
X151642857Y-84984057D01*
X152357142Y-84669771D02*
X152414285Y-84669771D01*
X152414285Y-84669771D02*
X152471428Y-84698342D01*
X152471428Y-84698342D02*
X152500000Y-84726914D01*
X152500000Y-84726914D02*
X152528571Y-84784057D01*
X152528571Y-84784057D02*
X152557142Y-84898342D01*
X152557142Y-84898342D02*
X152557142Y-85041200D01*
X152557142Y-85041200D02*
X152528571Y-85155485D01*
X152528571Y-85155485D02*
X152500000Y-85212628D01*
X152500000Y-85212628D02*
X152471428Y-85241200D01*
X152471428Y-85241200D02*
X152414285Y-85269771D01*
X152414285Y-85269771D02*
X152357142Y-85269771D01*
X152357142Y-85269771D02*
X152300000Y-85241200D01*
X152300000Y-85241200D02*
X152271428Y-85212628D01*
X152271428Y-85212628D02*
X152242857Y-85155485D01*
X152242857Y-85155485D02*
X152214285Y-85041200D01*
X152214285Y-85041200D02*
X152214285Y-84898342D01*
X152214285Y-84898342D02*
X152242857Y-84784057D01*
X152242857Y-84784057D02*
X152271428Y-84726914D01*
X152271428Y-84726914D02*
X152300000Y-84698342D01*
X152300000Y-84698342D02*
X152357142Y-84669771D01*
X178084057Y-115628571D02*
X178369771Y-115628571D01*
X177769771Y-115828571D02*
X178084057Y-115628571D01*
X178084057Y-115628571D02*
X177769771Y-115428571D01*
X178369771Y-115228570D02*
X177769771Y-115228570D01*
X177769771Y-115228570D02*
X178198342Y-115028570D01*
X178198342Y-115028570D02*
X177769771Y-114828570D01*
X177769771Y-114828570D02*
X178369771Y-114828570D01*
X178369771Y-114199999D02*
X178084057Y-114399999D01*
X178369771Y-114542856D02*
X177769771Y-114542856D01*
X177769771Y-114542856D02*
X177769771Y-114314285D01*
X177769771Y-114314285D02*
X177798342Y-114257142D01*
X177798342Y-114257142D02*
X177826914Y-114228571D01*
X177826914Y-114228571D02*
X177884057Y-114199999D01*
X177884057Y-114199999D02*
X177969771Y-114199999D01*
X177969771Y-114199999D02*
X178026914Y-114228571D01*
X178026914Y-114228571D02*
X178055485Y-114257142D01*
X178055485Y-114257142D02*
X178084057Y-114314285D01*
X178084057Y-114314285D02*
X178084057Y-114542856D01*
X177769771Y-113828571D02*
X177769771Y-113771428D01*
X177769771Y-113771428D02*
X177798342Y-113714285D01*
X177798342Y-113714285D02*
X177826914Y-113685714D01*
X177826914Y-113685714D02*
X177884057Y-113657142D01*
X177884057Y-113657142D02*
X177998342Y-113628571D01*
X177998342Y-113628571D02*
X178141200Y-113628571D01*
X178141200Y-113628571D02*
X178255485Y-113657142D01*
X178255485Y-113657142D02*
X178312628Y-113685714D01*
X178312628Y-113685714D02*
X178341200Y-113714285D01*
X178341200Y-113714285D02*
X178369771Y-113771428D01*
X178369771Y-113771428D02*
X178369771Y-113828571D01*
X178369771Y-113828571D02*
X178341200Y-113885714D01*
X178341200Y-113885714D02*
X178312628Y-113914285D01*
X178312628Y-113914285D02*
X178255485Y-113942856D01*
X178255485Y-113942856D02*
X178141200Y-113971428D01*
X178141200Y-113971428D02*
X177998342Y-113971428D01*
X177998342Y-113971428D02*
X177884057Y-113942856D01*
X177884057Y-113942856D02*
X177826914Y-113914285D01*
X177826914Y-113914285D02*
X177798342Y-113885714D01*
X177798342Y-113885714D02*
X177769771Y-113828571D01*
X151784057Y-121371428D02*
X152069771Y-121371428D01*
X151469771Y-121571428D02*
X151784057Y-121371428D01*
X151784057Y-121371428D02*
X151469771Y-121171428D01*
X152069771Y-120971427D02*
X151469771Y-120971427D01*
X151469771Y-120971427D02*
X151898342Y-120771427D01*
X151898342Y-120771427D02*
X151469771Y-120571427D01*
X151469771Y-120571427D02*
X152069771Y-120571427D01*
X152069771Y-119999999D02*
X152069771Y-120285713D01*
X152069771Y-120285713D02*
X151469771Y-120285713D01*
X152069771Y-119485714D02*
X152069771Y-119828571D01*
X152069771Y-119657142D02*
X151469771Y-119657142D01*
X151469771Y-119657142D02*
X151555485Y-119714285D01*
X151555485Y-119714285D02*
X151612628Y-119771428D01*
X151612628Y-119771428D02*
X151641200Y-119828571D01*
X193042857Y-94155485D02*
X192842857Y-94155485D01*
X192842857Y-94469771D02*
X192842857Y-93869771D01*
X192842857Y-93869771D02*
X193128571Y-93869771D01*
X193328571Y-94298342D02*
X193614286Y-94298342D01*
X193271428Y-94469771D02*
X193471428Y-93869771D01*
X193471428Y-93869771D02*
X193671428Y-94469771D01*
X193871429Y-94469771D02*
X193871429Y-93869771D01*
X193871429Y-93869771D02*
X194214286Y-94469771D01*
X194214286Y-94469771D02*
X194214286Y-93869771D01*
X194500000Y-94469771D02*
X194500000Y-93869771D01*
X194500000Y-93869771D02*
X194728571Y-93869771D01*
X194728571Y-93869771D02*
X194785714Y-93898342D01*
X194785714Y-93898342D02*
X194814285Y-93926914D01*
X194814285Y-93926914D02*
X194842857Y-93984057D01*
X194842857Y-93984057D02*
X194842857Y-94069771D01*
X194842857Y-94069771D02*
X194814285Y-94126914D01*
X194814285Y-94126914D02*
X194785714Y-94155485D01*
X194785714Y-94155485D02*
X194728571Y-94184057D01*
X194728571Y-94184057D02*
X194500000Y-94184057D01*
X195042857Y-93869771D02*
X195185714Y-94469771D01*
X195185714Y-94469771D02*
X195300000Y-94041200D01*
X195300000Y-94041200D02*
X195414285Y-94469771D01*
X195414285Y-94469771D02*
X195557143Y-93869771D01*
X195785714Y-94469771D02*
X195785714Y-93869771D01*
X195785714Y-93869771D02*
X195985714Y-94298342D01*
X195985714Y-94298342D02*
X196185714Y-93869771D01*
X196185714Y-93869771D02*
X196185714Y-94469771D01*
X196785713Y-94469771D02*
X196442856Y-94469771D01*
X196614285Y-94469771D02*
X196614285Y-93869771D01*
X196614285Y-93869771D02*
X196557142Y-93955485D01*
X196557142Y-93955485D02*
X196499999Y-94012628D01*
X196499999Y-94012628D02*
X196442856Y-94041200D01*
X160628571Y-91869771D02*
X161028571Y-92469771D01*
X161028571Y-91869771D02*
X160628571Y-92469771D01*
X161257143Y-92155485D02*
X161457143Y-92155485D01*
X161542857Y-92469771D02*
X161257143Y-92469771D01*
X161257143Y-92469771D02*
X161257143Y-91869771D01*
X161257143Y-91869771D02*
X161542857Y-91869771D01*
X161800000Y-92469771D02*
X161800000Y-91869771D01*
X161800000Y-91869771D02*
X162142857Y-92469771D01*
X162142857Y-92469771D02*
X162142857Y-91869771D01*
X162428571Y-92469771D02*
X162428571Y-91869771D01*
X162428571Y-91869771D02*
X162571428Y-91869771D01*
X162571428Y-91869771D02*
X162657142Y-91898342D01*
X162657142Y-91898342D02*
X162714285Y-91955485D01*
X162714285Y-91955485D02*
X162742856Y-92012628D01*
X162742856Y-92012628D02*
X162771428Y-92126914D01*
X162771428Y-92126914D02*
X162771428Y-92212628D01*
X162771428Y-92212628D02*
X162742856Y-92326914D01*
X162742856Y-92326914D02*
X162714285Y-92384057D01*
X162714285Y-92384057D02*
X162657142Y-92441200D01*
X162657142Y-92441200D02*
X162571428Y-92469771D01*
X162571428Y-92469771D02*
X162428571Y-92469771D01*
X163342856Y-92469771D02*
X162999999Y-92469771D01*
X163171428Y-92469771D02*
X163171428Y-91869771D01*
X163171428Y-91869771D02*
X163114285Y-91955485D01*
X163114285Y-91955485D02*
X163057142Y-92012628D01*
X163057142Y-92012628D02*
X162999999Y-92041200D01*
X149369771Y-106578571D02*
X149369771Y-106178571D01*
X149369771Y-106178571D02*
X149969771Y-106578571D01*
X149969771Y-106578571D02*
X149969771Y-106178571D01*
X149969771Y-105949999D02*
X149369771Y-105949999D01*
X149369771Y-105949999D02*
X149798342Y-105749999D01*
X149798342Y-105749999D02*
X149369771Y-105549999D01*
X149369771Y-105549999D02*
X149969771Y-105549999D01*
X149969771Y-104950000D02*
X149969771Y-105292857D01*
X149969771Y-105121428D02*
X149369771Y-105121428D01*
X149369771Y-105121428D02*
X149455485Y-105178571D01*
X149455485Y-105178571D02*
X149512628Y-105235714D01*
X149512628Y-105235714D02*
X149541200Y-105292857D01*
X155414285Y-84669771D02*
X155814285Y-85269771D01*
X155814285Y-84669771D02*
X155414285Y-85269771D01*
X156385714Y-85269771D02*
X156185714Y-84984057D01*
X156042857Y-85269771D02*
X156042857Y-84669771D01*
X156042857Y-84669771D02*
X156271428Y-84669771D01*
X156271428Y-84669771D02*
X156328571Y-84698342D01*
X156328571Y-84698342D02*
X156357142Y-84726914D01*
X156357142Y-84726914D02*
X156385714Y-84784057D01*
X156385714Y-84784057D02*
X156385714Y-84869771D01*
X156385714Y-84869771D02*
X156357142Y-84926914D01*
X156357142Y-84926914D02*
X156328571Y-84955485D01*
X156328571Y-84955485D02*
X156271428Y-84984057D01*
X156271428Y-84984057D02*
X156042857Y-84984057D01*
X156957142Y-85269771D02*
X156614285Y-85269771D01*
X156785714Y-85269771D02*
X156785714Y-84669771D01*
X156785714Y-84669771D02*
X156728571Y-84755485D01*
X156728571Y-84755485D02*
X156671428Y-84812628D01*
X156671428Y-84812628D02*
X156614285Y-84841200D01*
X178084057Y-121428571D02*
X178369771Y-121428571D01*
X177769771Y-121628571D02*
X178084057Y-121428571D01*
X178084057Y-121428571D02*
X177769771Y-121228571D01*
X178369771Y-121028570D02*
X177769771Y-121028570D01*
X177769771Y-121028570D02*
X178198342Y-120828570D01*
X178198342Y-120828570D02*
X177769771Y-120628570D01*
X177769771Y-120628570D02*
X178369771Y-120628570D01*
X178369771Y-119999999D02*
X178084057Y-120199999D01*
X178369771Y-120342856D02*
X177769771Y-120342856D01*
X177769771Y-120342856D02*
X177769771Y-120114285D01*
X177769771Y-120114285D02*
X177798342Y-120057142D01*
X177798342Y-120057142D02*
X177826914Y-120028571D01*
X177826914Y-120028571D02*
X177884057Y-119999999D01*
X177884057Y-119999999D02*
X177969771Y-119999999D01*
X177969771Y-119999999D02*
X178026914Y-120028571D01*
X178026914Y-120028571D02*
X178055485Y-120057142D01*
X178055485Y-120057142D02*
X178084057Y-120114285D01*
X178084057Y-120114285D02*
X178084057Y-120342856D01*
X178369771Y-119428571D02*
X178369771Y-119771428D01*
X178369771Y-119599999D02*
X177769771Y-119599999D01*
X177769771Y-119599999D02*
X177855485Y-119657142D01*
X177855485Y-119657142D02*
X177912628Y-119714285D01*
X177912628Y-119714285D02*
X177941200Y-119771428D01*
X168621428Y-91869771D02*
X169021428Y-92469771D01*
X169021428Y-91869771D02*
X168621428Y-92469771D01*
X169164285Y-91869771D02*
X169507143Y-91869771D01*
X169335714Y-92469771D02*
X169335714Y-91869771D01*
X169707143Y-92469771D02*
X169707143Y-91869771D01*
X169707143Y-92155485D02*
X170050000Y-92155485D01*
X170050000Y-92469771D02*
X170050000Y-91869771D01*
X170649999Y-92469771D02*
X170307142Y-92469771D01*
X170478571Y-92469771D02*
X170478571Y-91869771D01*
X170478571Y-91869771D02*
X170421428Y-91955485D01*
X170421428Y-91955485D02*
X170364285Y-92012628D01*
X170364285Y-92012628D02*
X170307142Y-92041200D01*
X153314286Y-92469771D02*
X153314286Y-91869771D01*
X153314286Y-92155485D02*
X153657143Y-92155485D01*
X153657143Y-92469771D02*
X153657143Y-91869771D01*
X153942857Y-92155485D02*
X154142857Y-92155485D01*
X154228571Y-92469771D02*
X153942857Y-92469771D01*
X153942857Y-92469771D02*
X153942857Y-91869771D01*
X153942857Y-91869771D02*
X154228571Y-91869771D01*
X154685714Y-92155485D02*
X154485714Y-92155485D01*
X154485714Y-92469771D02*
X154485714Y-91869771D01*
X154485714Y-91869771D02*
X154771428Y-91869771D01*
X155314285Y-92469771D02*
X154971428Y-92469771D01*
X155142857Y-92469771D02*
X155142857Y-91869771D01*
X155142857Y-91869771D02*
X155085714Y-91955485D01*
X155085714Y-91955485D02*
X155028571Y-92012628D01*
X155028571Y-92012628D02*
X154971428Y-92041200D01*
X149369771Y-119128571D02*
X149369771Y-118728571D01*
X149369771Y-118728571D02*
X149969771Y-119128571D01*
X149969771Y-119128571D02*
X149969771Y-118728571D01*
X149969771Y-118499999D02*
X149369771Y-118499999D01*
X149369771Y-118499999D02*
X149798342Y-118299999D01*
X149798342Y-118299999D02*
X149369771Y-118099999D01*
X149369771Y-118099999D02*
X149969771Y-118099999D01*
X149369771Y-117700000D02*
X149369771Y-117642857D01*
X149369771Y-117642857D02*
X149398342Y-117585714D01*
X149398342Y-117585714D02*
X149426914Y-117557143D01*
X149426914Y-117557143D02*
X149484057Y-117528571D01*
X149484057Y-117528571D02*
X149598342Y-117500000D01*
X149598342Y-117500000D02*
X149741200Y-117500000D01*
X149741200Y-117500000D02*
X149855485Y-117528571D01*
X149855485Y-117528571D02*
X149912628Y-117557143D01*
X149912628Y-117557143D02*
X149941200Y-117585714D01*
X149941200Y-117585714D02*
X149969771Y-117642857D01*
X149969771Y-117642857D02*
X149969771Y-117700000D01*
X149969771Y-117700000D02*
X149941200Y-117757143D01*
X149941200Y-117757143D02*
X149912628Y-117785714D01*
X149912628Y-117785714D02*
X149855485Y-117814285D01*
X149855485Y-117814285D02*
X149741200Y-117842857D01*
X149741200Y-117842857D02*
X149598342Y-117842857D01*
X149598342Y-117842857D02*
X149484057Y-117814285D01*
X149484057Y-117814285D02*
X149426914Y-117785714D01*
X149426914Y-117785714D02*
X149398342Y-117757143D01*
X149398342Y-117757143D02*
X149369771Y-117700000D01*
X149655485Y-93957142D02*
X149655485Y-93757142D01*
X149969771Y-93671428D02*
X149969771Y-93957142D01*
X149969771Y-93957142D02*
X149369771Y-93957142D01*
X149369771Y-93957142D02*
X149369771Y-93671428D01*
X149969771Y-93414285D02*
X149369771Y-93414285D01*
X149369771Y-93414285D02*
X149798342Y-93214285D01*
X149798342Y-93214285D02*
X149369771Y-93014285D01*
X149369771Y-93014285D02*
X149969771Y-93014285D01*
X149969771Y-92414286D02*
X149969771Y-92757143D01*
X149969771Y-92585714D02*
X149369771Y-92585714D01*
X149369771Y-92585714D02*
X149455485Y-92642857D01*
X149455485Y-92642857D02*
X149512628Y-92700000D01*
X149512628Y-92700000D02*
X149541200Y-92757143D01*
X189884057Y-121585714D02*
X190169771Y-121585714D01*
X189569771Y-121785714D02*
X189884057Y-121585714D01*
X189884057Y-121585714D02*
X189569771Y-121385714D01*
X190169771Y-120842856D02*
X189884057Y-121042856D01*
X190169771Y-121185713D02*
X189569771Y-121185713D01*
X189569771Y-121185713D02*
X189569771Y-120957142D01*
X189569771Y-120957142D02*
X189598342Y-120899999D01*
X189598342Y-120899999D02*
X189626914Y-120871428D01*
X189626914Y-120871428D02*
X189684057Y-120842856D01*
X189684057Y-120842856D02*
X189769771Y-120842856D01*
X189769771Y-120842856D02*
X189826914Y-120871428D01*
X189826914Y-120871428D02*
X189855485Y-120899999D01*
X189855485Y-120899999D02*
X189884057Y-120957142D01*
X189884057Y-120957142D02*
X189884057Y-121185713D01*
X190169771Y-120271428D02*
X190169771Y-120614285D01*
X190169771Y-120442856D02*
X189569771Y-120442856D01*
X189569771Y-120442856D02*
X189655485Y-120499999D01*
X189655485Y-120499999D02*
X189712628Y-120557142D01*
X189712628Y-120557142D02*
X189741200Y-120614285D01*
X191384057Y-114728571D02*
X191669771Y-114728571D01*
X191069771Y-114928571D02*
X191384057Y-114728571D01*
X191384057Y-114728571D02*
X191069771Y-114528571D01*
X191069771Y-114414285D02*
X191069771Y-114071428D01*
X191669771Y-114242856D02*
X191069771Y-114242856D01*
X191669771Y-113871427D02*
X191069771Y-113871427D01*
X191355485Y-113871427D02*
X191355485Y-113528570D01*
X191669771Y-113528570D02*
X191069771Y-113528570D01*
X191669771Y-112928571D02*
X191669771Y-113271428D01*
X191669771Y-113099999D02*
X191069771Y-113099999D01*
X191069771Y-113099999D02*
X191155485Y-113157142D01*
X191155485Y-113157142D02*
X191212628Y-113214285D01*
X191212628Y-113214285D02*
X191241200Y-113271428D01*
X187528571Y-118769771D02*
X187928571Y-118769771D01*
X187928571Y-118769771D02*
X187528571Y-119369771D01*
X187528571Y-119369771D02*
X187928571Y-119369771D01*
X188157143Y-119055485D02*
X188357143Y-119055485D01*
X188442857Y-119369771D02*
X188157143Y-119369771D01*
X188157143Y-119369771D02*
X188157143Y-118769771D01*
X188157143Y-118769771D02*
X188442857Y-118769771D01*
X188700000Y-119369771D02*
X188700000Y-118769771D01*
X188700000Y-118769771D02*
X189042857Y-119369771D01*
X189042857Y-119369771D02*
X189042857Y-118769771D01*
X189328571Y-119369771D02*
X189328571Y-118769771D01*
X189328571Y-118769771D02*
X189471428Y-118769771D01*
X189471428Y-118769771D02*
X189557142Y-118798342D01*
X189557142Y-118798342D02*
X189614285Y-118855485D01*
X189614285Y-118855485D02*
X189642856Y-118912628D01*
X189642856Y-118912628D02*
X189671428Y-119026914D01*
X189671428Y-119026914D02*
X189671428Y-119112628D01*
X189671428Y-119112628D02*
X189642856Y-119226914D01*
X189642856Y-119226914D02*
X189614285Y-119284057D01*
X189614285Y-119284057D02*
X189557142Y-119341200D01*
X189557142Y-119341200D02*
X189471428Y-119369771D01*
X189471428Y-119369771D02*
X189328571Y-119369771D01*
X190242856Y-119369771D02*
X189899999Y-119369771D01*
X190071428Y-119369771D02*
X190071428Y-118769771D01*
X190071428Y-118769771D02*
X190014285Y-118855485D01*
X190014285Y-118855485D02*
X189957142Y-118912628D01*
X189957142Y-118912628D02*
X189899999Y-118941200D01*
X183599999Y-92598342D02*
X183885714Y-92598342D01*
X183542856Y-92769771D02*
X183742856Y-92169771D01*
X183742856Y-92169771D02*
X183942856Y-92769771D01*
X184142857Y-92169771D02*
X184142857Y-92655485D01*
X184142857Y-92655485D02*
X184171428Y-92712628D01*
X184171428Y-92712628D02*
X184200000Y-92741200D01*
X184200000Y-92741200D02*
X184257142Y-92769771D01*
X184257142Y-92769771D02*
X184371428Y-92769771D01*
X184371428Y-92769771D02*
X184428571Y-92741200D01*
X184428571Y-92741200D02*
X184457142Y-92712628D01*
X184457142Y-92712628D02*
X184485714Y-92655485D01*
X184485714Y-92655485D02*
X184485714Y-92169771D01*
X184714285Y-92169771D02*
X185114285Y-92769771D01*
X185114285Y-92169771D02*
X184714285Y-92769771D01*
X185542857Y-92455485D02*
X185342857Y-92455485D01*
X185342857Y-92769771D02*
X185342857Y-92169771D01*
X185342857Y-92169771D02*
X185628571Y-92169771D01*
X168621428Y-84469771D02*
X169021428Y-85069771D01*
X169021428Y-84469771D02*
X168621428Y-85069771D01*
X169164285Y-84469771D02*
X169507143Y-84469771D01*
X169335714Y-85069771D02*
X169335714Y-84469771D01*
X169707143Y-85069771D02*
X169707143Y-84469771D01*
X169707143Y-84755485D02*
X170050000Y-84755485D01*
X170050000Y-85069771D02*
X170050000Y-84469771D01*
X170449999Y-84469771D02*
X170507142Y-84469771D01*
X170507142Y-84469771D02*
X170564285Y-84498342D01*
X170564285Y-84498342D02*
X170592857Y-84526914D01*
X170592857Y-84526914D02*
X170621428Y-84584057D01*
X170621428Y-84584057D02*
X170649999Y-84698342D01*
X170649999Y-84698342D02*
X170649999Y-84841200D01*
X170649999Y-84841200D02*
X170621428Y-84955485D01*
X170621428Y-84955485D02*
X170592857Y-85012628D01*
X170592857Y-85012628D02*
X170564285Y-85041200D01*
X170564285Y-85041200D02*
X170507142Y-85069771D01*
X170507142Y-85069771D02*
X170449999Y-85069771D01*
X170449999Y-85069771D02*
X170392857Y-85041200D01*
X170392857Y-85041200D02*
X170364285Y-85012628D01*
X170364285Y-85012628D02*
X170335714Y-84955485D01*
X170335714Y-84955485D02*
X170307142Y-84841200D01*
X170307142Y-84841200D02*
X170307142Y-84698342D01*
X170307142Y-84698342D02*
X170335714Y-84584057D01*
X170335714Y-84584057D02*
X170364285Y-84526914D01*
X170364285Y-84526914D02*
X170392857Y-84498342D01*
X170392857Y-84498342D02*
X170449999Y-84469771D01*
X178728571Y-118969771D02*
X179128571Y-118969771D01*
X179128571Y-118969771D02*
X178728571Y-119569771D01*
X178728571Y-119569771D02*
X179128571Y-119569771D01*
X179357143Y-119255485D02*
X179557143Y-119255485D01*
X179642857Y-119569771D02*
X179357143Y-119569771D01*
X179357143Y-119569771D02*
X179357143Y-118969771D01*
X179357143Y-118969771D02*
X179642857Y-118969771D01*
X179900000Y-119569771D02*
X179900000Y-118969771D01*
X179900000Y-118969771D02*
X180242857Y-119569771D01*
X180242857Y-119569771D02*
X180242857Y-118969771D01*
X180528571Y-119569771D02*
X180528571Y-118969771D01*
X180528571Y-118969771D02*
X180671428Y-118969771D01*
X180671428Y-118969771D02*
X180757142Y-118998342D01*
X180757142Y-118998342D02*
X180814285Y-119055485D01*
X180814285Y-119055485D02*
X180842856Y-119112628D01*
X180842856Y-119112628D02*
X180871428Y-119226914D01*
X180871428Y-119226914D02*
X180871428Y-119312628D01*
X180871428Y-119312628D02*
X180842856Y-119426914D01*
X180842856Y-119426914D02*
X180814285Y-119484057D01*
X180814285Y-119484057D02*
X180757142Y-119541200D01*
X180757142Y-119541200D02*
X180671428Y-119569771D01*
X180671428Y-119569771D02*
X180528571Y-119569771D01*
X181242856Y-118969771D02*
X181299999Y-118969771D01*
X181299999Y-118969771D02*
X181357142Y-118998342D01*
X181357142Y-118998342D02*
X181385714Y-119026914D01*
X181385714Y-119026914D02*
X181414285Y-119084057D01*
X181414285Y-119084057D02*
X181442856Y-119198342D01*
X181442856Y-119198342D02*
X181442856Y-119341200D01*
X181442856Y-119341200D02*
X181414285Y-119455485D01*
X181414285Y-119455485D02*
X181385714Y-119512628D01*
X181385714Y-119512628D02*
X181357142Y-119541200D01*
X181357142Y-119541200D02*
X181299999Y-119569771D01*
X181299999Y-119569771D02*
X181242856Y-119569771D01*
X181242856Y-119569771D02*
X181185714Y-119541200D01*
X181185714Y-119541200D02*
X181157142Y-119512628D01*
X181157142Y-119512628D02*
X181128571Y-119455485D01*
X181128571Y-119455485D02*
X181099999Y-119341200D01*
X181099999Y-119341200D02*
X181099999Y-119198342D01*
X181099999Y-119198342D02*
X181128571Y-119084057D01*
X181128571Y-119084057D02*
X181157142Y-119026914D01*
X181157142Y-119026914D02*
X181185714Y-118998342D01*
X181185714Y-118998342D02*
X181242856Y-118969771D01*
X178871428Y-84469771D02*
X179271428Y-85069771D01*
X179271428Y-84469771D02*
X178871428Y-85069771D01*
X179500000Y-85069771D02*
X179500000Y-84469771D01*
X179500000Y-84469771D02*
X179700000Y-84898342D01*
X179700000Y-84898342D02*
X179900000Y-84469771D01*
X179900000Y-84469771D02*
X179900000Y-85069771D01*
X180499999Y-85069771D02*
X180157142Y-85069771D01*
X180328571Y-85069771D02*
X180328571Y-84469771D01*
X180328571Y-84469771D02*
X180271428Y-84555485D01*
X180271428Y-84555485D02*
X180214285Y-84612628D01*
X180214285Y-84612628D02*
X180157142Y-84641200D01*
X151784057Y-115371428D02*
X152069771Y-115371428D01*
X151469771Y-115571428D02*
X151784057Y-115371428D01*
X151784057Y-115371428D02*
X151469771Y-115171428D01*
X152069771Y-114971427D02*
X151469771Y-114971427D01*
X151469771Y-114971427D02*
X151898342Y-114771427D01*
X151898342Y-114771427D02*
X151469771Y-114571427D01*
X151469771Y-114571427D02*
X152069771Y-114571427D01*
X152069771Y-113999999D02*
X152069771Y-114285713D01*
X152069771Y-114285713D02*
X151469771Y-114285713D01*
X151469771Y-113685714D02*
X151469771Y-113628571D01*
X151469771Y-113628571D02*
X151498342Y-113571428D01*
X151498342Y-113571428D02*
X151526914Y-113542857D01*
X151526914Y-113542857D02*
X151584057Y-113514285D01*
X151584057Y-113514285D02*
X151698342Y-113485714D01*
X151698342Y-113485714D02*
X151841200Y-113485714D01*
X151841200Y-113485714D02*
X151955485Y-113514285D01*
X151955485Y-113514285D02*
X152012628Y-113542857D01*
X152012628Y-113542857D02*
X152041200Y-113571428D01*
X152041200Y-113571428D02*
X152069771Y-113628571D01*
X152069771Y-113628571D02*
X152069771Y-113685714D01*
X152069771Y-113685714D02*
X152041200Y-113742857D01*
X152041200Y-113742857D02*
X152012628Y-113771428D01*
X152012628Y-113771428D02*
X151955485Y-113799999D01*
X151955485Y-113799999D02*
X151841200Y-113828571D01*
X151841200Y-113828571D02*
X151698342Y-113828571D01*
X151698342Y-113828571D02*
X151584057Y-113799999D01*
X151584057Y-113799999D02*
X151526914Y-113771428D01*
X151526914Y-113771428D02*
X151498342Y-113742857D01*
X151498342Y-113742857D02*
X151469771Y-113685714D01*
X193828571Y-99084057D02*
X193828571Y-99369771D01*
X193628571Y-98769771D02*
X193828571Y-99084057D01*
X193828571Y-99084057D02*
X194028571Y-98769771D01*
X194228572Y-99055485D02*
X194428572Y-99055485D01*
X194514286Y-99369771D02*
X194228572Y-99369771D01*
X194228572Y-99369771D02*
X194228572Y-98769771D01*
X194228572Y-98769771D02*
X194514286Y-98769771D01*
X194771429Y-99369771D02*
X194771429Y-98769771D01*
X194771429Y-98769771D02*
X195114286Y-99369771D01*
X195114286Y-99369771D02*
X195114286Y-98769771D01*
X195400000Y-99369771D02*
X195400000Y-98769771D01*
X195400000Y-98769771D02*
X195542857Y-98769771D01*
X195542857Y-98769771D02*
X195628571Y-98798342D01*
X195628571Y-98798342D02*
X195685714Y-98855485D01*
X195685714Y-98855485D02*
X195714285Y-98912628D01*
X195714285Y-98912628D02*
X195742857Y-99026914D01*
X195742857Y-99026914D02*
X195742857Y-99112628D01*
X195742857Y-99112628D02*
X195714285Y-99226914D01*
X195714285Y-99226914D02*
X195685714Y-99284057D01*
X195685714Y-99284057D02*
X195628571Y-99341200D01*
X195628571Y-99341200D02*
X195542857Y-99369771D01*
X195542857Y-99369771D02*
X195400000Y-99369771D01*
X196314285Y-99369771D02*
X195971428Y-99369771D01*
X196142857Y-99369771D02*
X196142857Y-98769771D01*
X196142857Y-98769771D02*
X196085714Y-98855485D01*
X196085714Y-98855485D02*
X196028571Y-98912628D01*
X196028571Y-98912628D02*
X195971428Y-98941200D01*
X178921428Y-91869771D02*
X179321428Y-92469771D01*
X179321428Y-91869771D02*
X178921428Y-92469771D01*
X179550000Y-92469771D02*
X179550000Y-91869771D01*
X179550000Y-91869771D02*
X179750000Y-92298342D01*
X179750000Y-92298342D02*
X179950000Y-91869771D01*
X179950000Y-91869771D02*
X179950000Y-92469771D01*
X180349999Y-91869771D02*
X180407142Y-91869771D01*
X180407142Y-91869771D02*
X180464285Y-91898342D01*
X180464285Y-91898342D02*
X180492857Y-91926914D01*
X180492857Y-91926914D02*
X180521428Y-91984057D01*
X180521428Y-91984057D02*
X180549999Y-92098342D01*
X180549999Y-92098342D02*
X180549999Y-92241200D01*
X180549999Y-92241200D02*
X180521428Y-92355485D01*
X180521428Y-92355485D02*
X180492857Y-92412628D01*
X180492857Y-92412628D02*
X180464285Y-92441200D01*
X180464285Y-92441200D02*
X180407142Y-92469771D01*
X180407142Y-92469771D02*
X180349999Y-92469771D01*
X180349999Y-92469771D02*
X180292857Y-92441200D01*
X180292857Y-92441200D02*
X180264285Y-92412628D01*
X180264285Y-92412628D02*
X180235714Y-92355485D01*
X180235714Y-92355485D02*
X180207142Y-92241200D01*
X180207142Y-92241200D02*
X180207142Y-92098342D01*
X180207142Y-92098342D02*
X180235714Y-91984057D01*
X180235714Y-91984057D02*
X180264285Y-91926914D01*
X180264285Y-91926914D02*
X180292857Y-91898342D01*
X180292857Y-91898342D02*
X180349999Y-91869771D01*
D12*
%TO.C,XR0*%
X142880000Y-85320000D02*
X142880000Y-78080000D01*
X148300000Y-78080000D02*
X142880000Y-78080000D01*
X150820000Y-78080000D02*
X148900000Y-78080000D01*
X150820000Y-79700000D02*
X142880000Y-79700000D01*
X150820000Y-85320000D02*
X142880000Y-85320000D01*
X150820000Y-85320000D02*
X150820000Y-78080000D01*
X148600000Y-78080000D02*
X148160000Y-77470000D01*
X149040000Y-77470000D01*
X148600000Y-78080000D01*
G36*
X148600000Y-78080000D02*
G01*
X148160000Y-77470000D01*
X149040000Y-77470000D01*
X148600000Y-78080000D01*
G37*
%TO.C,YMR0*%
X165040000Y-111490000D02*
X165040000Y-117460000D01*
X165040000Y-117460000D02*
X177660000Y-117460000D01*
X165050000Y-115200000D02*
X165800000Y-115200000D01*
X165050000Y-116700000D02*
X165050000Y-117450000D01*
X165050000Y-117450000D02*
X166850000Y-117450000D01*
X165800000Y-112250000D02*
X171350000Y-112250000D01*
X165800000Y-115200000D02*
X165800000Y-112250000D01*
X166850000Y-116700000D02*
X165050000Y-116700000D01*
X166850000Y-117450000D02*
X166850000Y-116700000D01*
X168350000Y-116700000D02*
X168350000Y-117450000D01*
X168350000Y-117450000D02*
X174350000Y-117450000D01*
X174350000Y-116700000D02*
X168350000Y-116700000D01*
X174350000Y-117450000D02*
X174350000Y-116700000D01*
X175850000Y-116700000D02*
X175850000Y-117450000D01*
X175850000Y-117450000D02*
X177650000Y-117450000D01*
X176700000Y-117750000D02*
X177950000Y-117750000D01*
X176900000Y-112250000D02*
X171350000Y-112250000D01*
X176900000Y-115200000D02*
X176900000Y-112250000D01*
X177650000Y-115200000D02*
X176900000Y-115200000D01*
X177650000Y-116700000D02*
X175850000Y-116700000D01*
X177650000Y-117450000D02*
X177650000Y-116700000D01*
X177660000Y-111490000D02*
X165040000Y-111490000D01*
X177660000Y-117460000D02*
X177660000Y-111490000D01*
X177950000Y-117750000D02*
X177950000Y-116500000D01*
%TO.C,YML1*%
X152428349Y-117490000D02*
X152428349Y-123460000D01*
X152428349Y-123460000D02*
X165048349Y-123460000D01*
X152438349Y-121200000D02*
X153188349Y-121200000D01*
X152438349Y-122700000D02*
X152438349Y-123450000D01*
X152438349Y-123450000D02*
X154238349Y-123450000D01*
X153188349Y-118250000D02*
X158738349Y-118250000D01*
X153188349Y-121200000D02*
X153188349Y-118250000D01*
X154238349Y-122700000D02*
X152438349Y-122700000D01*
X154238349Y-123450000D02*
X154238349Y-122700000D01*
X155738349Y-122700000D02*
X155738349Y-123450000D01*
X155738349Y-123450000D02*
X161738349Y-123450000D01*
X161738349Y-122700000D02*
X155738349Y-122700000D01*
X161738349Y-123450000D02*
X161738349Y-122700000D01*
X163238349Y-122700000D02*
X163238349Y-123450000D01*
X163238349Y-123450000D02*
X165038349Y-123450000D01*
X164088349Y-123750000D02*
X165338349Y-123750000D01*
X164288349Y-118250000D02*
X158738349Y-118250000D01*
X164288349Y-121200000D02*
X164288349Y-118250000D01*
X165038349Y-121200000D02*
X164288349Y-121200000D01*
X165038349Y-122700000D02*
X163238349Y-122700000D01*
X165038349Y-123450000D02*
X165038349Y-122700000D01*
X165048349Y-117490000D02*
X152428349Y-117490000D01*
X165048349Y-123460000D02*
X165048349Y-117490000D01*
X165338349Y-123750000D02*
X165338349Y-122500000D01*
%TO.C,FANPWM1*%
X191750000Y-92300000D02*
X191750000Y-93550000D01*
X191750000Y-93550000D02*
X193000000Y-93550000D01*
X192040000Y-85640000D02*
X192040000Y-93260000D01*
X192040000Y-93260000D02*
X198010000Y-93260000D01*
X192050000Y-85650000D02*
X192050000Y-87450000D01*
X192050000Y-87450000D02*
X192800000Y-87450000D01*
X192050000Y-88950000D02*
X192050000Y-89950000D01*
X192050000Y-89950000D02*
X192800000Y-89950000D01*
X192050000Y-91450000D02*
X192050000Y-93250000D01*
X192050000Y-93250000D02*
X192800000Y-93250000D01*
X192800000Y-85650000D02*
X192050000Y-85650000D01*
X192800000Y-87450000D02*
X192800000Y-85650000D01*
X192800000Y-88950000D02*
X192050000Y-88950000D01*
X192800000Y-89950000D02*
X192800000Y-88950000D01*
X192800000Y-91450000D02*
X192050000Y-91450000D01*
X192800000Y-93250000D02*
X192800000Y-91450000D01*
X194300000Y-85650000D02*
X194300000Y-86400000D01*
X194300000Y-86400000D02*
X197250000Y-86400000D01*
X194300000Y-92500000D02*
X197250000Y-92500000D01*
X194300000Y-93250000D02*
X194300000Y-92500000D01*
X197250000Y-86400000D02*
X197250000Y-89450000D01*
X197250000Y-92500000D02*
X197250000Y-89450000D01*
X198010000Y-85640000D02*
X192040000Y-85640000D01*
X198010000Y-93260000D02*
X198010000Y-85640000D01*
%TO.C,XEND1*%
X157950000Y-85250000D02*
X157950000Y-86500000D01*
X158240000Y-85540000D02*
X158240000Y-91510000D01*
X158240000Y-91510000D02*
X165860000Y-91510000D01*
X158250000Y-85550000D02*
X158250000Y-86300000D01*
X158250000Y-86300000D02*
X160050000Y-86300000D01*
X158250000Y-87800000D02*
X159000000Y-87800000D01*
X159000000Y-87800000D02*
X159000000Y-90750000D01*
X159000000Y-90750000D02*
X162050000Y-90750000D01*
X159200000Y-85250000D02*
X157950000Y-85250000D01*
X160050000Y-85550000D02*
X158250000Y-85550000D01*
X160050000Y-86300000D02*
X160050000Y-85550000D01*
X161550000Y-85550000D02*
X161550000Y-86300000D01*
X161550000Y-86300000D02*
X162550000Y-86300000D01*
X162550000Y-85550000D02*
X161550000Y-85550000D01*
X162550000Y-86300000D02*
X162550000Y-85550000D01*
X164050000Y-85550000D02*
X164050000Y-86300000D01*
X164050000Y-86300000D02*
X165850000Y-86300000D01*
X165100000Y-87800000D02*
X165100000Y-90750000D01*
X165100000Y-90750000D02*
X162050000Y-90750000D01*
X165850000Y-85550000D02*
X164050000Y-85550000D01*
X165850000Y-86300000D02*
X165850000Y-85550000D01*
X165850000Y-87800000D02*
X165100000Y-87800000D01*
X165860000Y-85540000D02*
X158240000Y-85540000D01*
X165860000Y-91510000D02*
X165860000Y-85540000D01*
%TO.C,ZM1*%
X142750000Y-111100000D02*
X142750000Y-112350000D01*
X142750000Y-112350000D02*
X144000000Y-112350000D01*
X143040000Y-99440000D02*
X143040000Y-112060000D01*
X143040000Y-112060000D02*
X149010000Y-112060000D01*
X143050000Y-99450000D02*
X143050000Y-101250000D01*
X143050000Y-101250000D02*
X143800000Y-101250000D01*
X143050000Y-102750000D02*
X143050000Y-108750000D01*
X143050000Y-108750000D02*
X143800000Y-108750000D01*
X143050000Y-110250000D02*
X143050000Y-112050000D01*
X143050000Y-112050000D02*
X143800000Y-112050000D01*
X143800000Y-99450000D02*
X143050000Y-99450000D01*
X143800000Y-101250000D02*
X143800000Y-99450000D01*
X143800000Y-102750000D02*
X143050000Y-102750000D01*
X143800000Y-108750000D02*
X143800000Y-102750000D01*
X143800000Y-110250000D02*
X143050000Y-110250000D01*
X143800000Y-112050000D02*
X143800000Y-110250000D01*
X145300000Y-99450000D02*
X145300000Y-100200000D01*
X145300000Y-100200000D02*
X148250000Y-100200000D01*
X145300000Y-111300000D02*
X148250000Y-111300000D01*
X145300000Y-112050000D02*
X145300000Y-111300000D01*
X148250000Y-100200000D02*
X148250000Y-105750000D01*
X148250000Y-111300000D02*
X148250000Y-105750000D01*
X149010000Y-99440000D02*
X143040000Y-99440000D01*
X149010000Y-112060000D02*
X149010000Y-99440000D01*
%TO.C,XR1*%
X157180000Y-85320000D02*
X157180000Y-78080000D01*
X162600000Y-78080000D02*
X157180000Y-78080000D01*
X165120000Y-78080000D02*
X163200000Y-78080000D01*
X165120000Y-79700000D02*
X157180000Y-79700000D01*
X165120000Y-85320000D02*
X157180000Y-85320000D01*
X165120000Y-85320000D02*
X165120000Y-78080000D01*
X162900000Y-78080000D02*
X162460000Y-77470000D01*
X163340000Y-77470000D01*
X162900000Y-78080000D01*
G36*
X162900000Y-78080000D02*
G01*
X162460000Y-77470000D01*
X163340000Y-77470000D01*
X162900000Y-78080000D01*
G37*
%TO.C,AUXF1*%
X191750000Y-84700000D02*
X191750000Y-85950000D01*
X191750000Y-85950000D02*
X193000000Y-85950000D01*
X192040000Y-78040000D02*
X192040000Y-85660000D01*
X192040000Y-85660000D02*
X198010000Y-85660000D01*
X192050000Y-78050000D02*
X192050000Y-79850000D01*
X192050000Y-79850000D02*
X192800000Y-79850000D01*
X192050000Y-81350000D02*
X192050000Y-82350000D01*
X192050000Y-82350000D02*
X192800000Y-82350000D01*
X192050000Y-83850000D02*
X192050000Y-85650000D01*
X192050000Y-85650000D02*
X192800000Y-85650000D01*
X192800000Y-78050000D02*
X192050000Y-78050000D01*
X192800000Y-79850000D02*
X192800000Y-78050000D01*
X192800000Y-81350000D02*
X192050000Y-81350000D01*
X192800000Y-82350000D02*
X192800000Y-81350000D01*
X192800000Y-83850000D02*
X192050000Y-83850000D01*
X192800000Y-85650000D02*
X192800000Y-83850000D01*
X194300000Y-78050000D02*
X194300000Y-78800000D01*
X194300000Y-78800000D02*
X197250000Y-78800000D01*
X194300000Y-84900000D02*
X197250000Y-84900000D01*
X194300000Y-85650000D02*
X194300000Y-84900000D01*
X197250000Y-78800000D02*
X197250000Y-81850000D01*
X197250000Y-84900000D02*
X197250000Y-81850000D01*
X198010000Y-78040000D02*
X192040000Y-78040000D01*
X198010000Y-85660000D02*
X198010000Y-78040000D01*
%TO.C,JX1*%
X150315000Y-93480000D02*
X151735000Y-93480000D01*
X150315000Y-99230000D02*
X150315000Y-93480000D01*
X150315000Y-100770000D02*
X150315000Y-101070000D01*
X150315000Y-101070000D02*
X190685000Y-101070000D01*
X151735000Y-93480000D02*
X151735000Y-93980000D01*
X151735000Y-93980000D02*
X189265000Y-93980000D01*
X189265000Y-93480000D02*
X190685000Y-93480000D01*
X189265000Y-93980000D02*
X189265000Y-93480000D01*
X190685000Y-93480000D02*
X190685000Y-99230000D01*
X190685000Y-101070000D02*
X190685000Y-100770000D01*
%TO.C,YMR1*%
X165040000Y-117490000D02*
X165040000Y-123460000D01*
X165040000Y-123460000D02*
X177660000Y-123460000D01*
X165050000Y-121200000D02*
X165800000Y-121200000D01*
X165050000Y-122700000D02*
X165050000Y-123450000D01*
X165050000Y-123450000D02*
X166850000Y-123450000D01*
X165800000Y-118250000D02*
X171350000Y-118250000D01*
X165800000Y-121200000D02*
X165800000Y-118250000D01*
X166850000Y-122700000D02*
X165050000Y-122700000D01*
X166850000Y-123450000D02*
X166850000Y-122700000D01*
X168350000Y-122700000D02*
X168350000Y-123450000D01*
X168350000Y-123450000D02*
X174350000Y-123450000D01*
X174350000Y-122700000D02*
X168350000Y-122700000D01*
X174350000Y-123450000D02*
X174350000Y-122700000D01*
X175850000Y-122700000D02*
X175850000Y-123450000D01*
X175850000Y-123450000D02*
X177650000Y-123450000D01*
X176700000Y-123750000D02*
X177950000Y-123750000D01*
X176900000Y-118250000D02*
X171350000Y-118250000D01*
X176900000Y-121200000D02*
X176900000Y-118250000D01*
X177650000Y-121200000D02*
X176900000Y-121200000D01*
X177650000Y-122700000D02*
X175850000Y-122700000D01*
X177650000Y-123450000D02*
X177650000Y-122700000D01*
X177660000Y-117490000D02*
X165040000Y-117490000D01*
X177660000Y-123460000D02*
X177660000Y-117490000D01*
X177950000Y-123750000D02*
X177950000Y-122500000D01*
%TO.C,XTH1*%
X165550000Y-85250000D02*
X165550000Y-86500000D01*
X165840000Y-85540000D02*
X165840000Y-91510000D01*
X165840000Y-91510000D02*
X173460000Y-91510000D01*
X165850000Y-85550000D02*
X165850000Y-86300000D01*
X165850000Y-86300000D02*
X167650000Y-86300000D01*
X165850000Y-87800000D02*
X166600000Y-87800000D01*
X166600000Y-87800000D02*
X166600000Y-90750000D01*
X166600000Y-90750000D02*
X169650000Y-90750000D01*
X166800000Y-85250000D02*
X165550000Y-85250000D01*
X167650000Y-85550000D02*
X165850000Y-85550000D01*
X167650000Y-86300000D02*
X167650000Y-85550000D01*
X169150000Y-85550000D02*
X169150000Y-86300000D01*
X169150000Y-86300000D02*
X170150000Y-86300000D01*
X170150000Y-85550000D02*
X169150000Y-85550000D01*
X170150000Y-86300000D02*
X170150000Y-85550000D01*
X171650000Y-85550000D02*
X171650000Y-86300000D01*
X171650000Y-86300000D02*
X173450000Y-86300000D01*
X172700000Y-87800000D02*
X172700000Y-90750000D01*
X172700000Y-90750000D02*
X169650000Y-90750000D01*
X173450000Y-85550000D02*
X171650000Y-85550000D01*
X173450000Y-86300000D02*
X173450000Y-85550000D01*
X173450000Y-87800000D02*
X172700000Y-87800000D01*
X173460000Y-85540000D02*
X165840000Y-85540000D01*
X173460000Y-91510000D02*
X173460000Y-85540000D01*
%TO.C,HEF1*%
X150350000Y-85250000D02*
X150350000Y-86500000D01*
X150640000Y-85540000D02*
X150640000Y-91510000D01*
X150640000Y-91510000D02*
X158260000Y-91510000D01*
X150650000Y-85550000D02*
X150650000Y-86300000D01*
X150650000Y-86300000D02*
X152450000Y-86300000D01*
X150650000Y-87800000D02*
X151400000Y-87800000D01*
X151400000Y-87800000D02*
X151400000Y-90750000D01*
X151400000Y-90750000D02*
X154450000Y-90750000D01*
X151600000Y-85250000D02*
X150350000Y-85250000D01*
X152450000Y-85550000D02*
X150650000Y-85550000D01*
X152450000Y-86300000D02*
X152450000Y-85550000D01*
X153950000Y-85550000D02*
X153950000Y-86300000D01*
X153950000Y-86300000D02*
X154950000Y-86300000D01*
X154950000Y-85550000D02*
X153950000Y-85550000D01*
X154950000Y-86300000D02*
X154950000Y-85550000D01*
X156450000Y-85550000D02*
X156450000Y-86300000D01*
X156450000Y-86300000D02*
X158250000Y-86300000D01*
X157500000Y-87800000D02*
X157500000Y-90750000D01*
X157500000Y-90750000D02*
X154450000Y-90750000D01*
X158250000Y-85550000D02*
X156450000Y-85550000D01*
X158250000Y-86300000D02*
X158250000Y-85550000D01*
X158250000Y-87800000D02*
X157500000Y-87800000D01*
X158260000Y-85540000D02*
X150640000Y-85540000D01*
X158260000Y-91510000D02*
X158260000Y-85540000D01*
%TO.C,ZM0*%
X142750000Y-123700000D02*
X142750000Y-124950000D01*
X142750000Y-124950000D02*
X144000000Y-124950000D01*
X143040000Y-112040000D02*
X143040000Y-124660000D01*
X143040000Y-124660000D02*
X149010000Y-124660000D01*
X143050000Y-112050000D02*
X143050000Y-113850000D01*
X143050000Y-113850000D02*
X143800000Y-113850000D01*
X143050000Y-115350000D02*
X143050000Y-121350000D01*
X143050000Y-121350000D02*
X143800000Y-121350000D01*
X143050000Y-122850000D02*
X143050000Y-124650000D01*
X143050000Y-124650000D02*
X143800000Y-124650000D01*
X143800000Y-112050000D02*
X143050000Y-112050000D01*
X143800000Y-113850000D02*
X143800000Y-112050000D01*
X143800000Y-115350000D02*
X143050000Y-115350000D01*
X143800000Y-121350000D02*
X143800000Y-115350000D01*
X143800000Y-122850000D02*
X143050000Y-122850000D01*
X143800000Y-124650000D02*
X143800000Y-122850000D01*
X145300000Y-112050000D02*
X145300000Y-112800000D01*
X145300000Y-112800000D02*
X148250000Y-112800000D01*
X145300000Y-123900000D02*
X148250000Y-123900000D01*
X145300000Y-124650000D02*
X145300000Y-123900000D01*
X148250000Y-112800000D02*
X148250000Y-118350000D01*
X148250000Y-123900000D02*
X148250000Y-118350000D01*
X149010000Y-112040000D02*
X143040000Y-112040000D01*
X149010000Y-124660000D02*
X149010000Y-112040000D01*
%TO.C,EM1*%
X142750000Y-98500000D02*
X142750000Y-99750000D01*
X142750000Y-99750000D02*
X144000000Y-99750000D01*
X143040000Y-86840000D02*
X143040000Y-99460000D01*
X143040000Y-99460000D02*
X149010000Y-99460000D01*
X143050000Y-86850000D02*
X143050000Y-88650000D01*
X143050000Y-88650000D02*
X143800000Y-88650000D01*
X143050000Y-90150000D02*
X143050000Y-96150000D01*
X143050000Y-96150000D02*
X143800000Y-96150000D01*
X143050000Y-97650000D02*
X143050000Y-99450000D01*
X143050000Y-99450000D02*
X143800000Y-99450000D01*
X143800000Y-86850000D02*
X143050000Y-86850000D01*
X143800000Y-88650000D02*
X143800000Y-86850000D01*
X143800000Y-90150000D02*
X143050000Y-90150000D01*
X143800000Y-96150000D02*
X143800000Y-90150000D01*
X143800000Y-97650000D02*
X143050000Y-97650000D01*
X143800000Y-99450000D02*
X143800000Y-97650000D01*
X145300000Y-86850000D02*
X145300000Y-87600000D01*
X145300000Y-87600000D02*
X148250000Y-87600000D01*
X145300000Y-98700000D02*
X148250000Y-98700000D01*
X145300000Y-99450000D02*
X145300000Y-98700000D01*
X148250000Y-87600000D02*
X148250000Y-93150000D01*
X148250000Y-98700000D02*
X148250000Y-93150000D01*
X149010000Y-86840000D02*
X143040000Y-86840000D01*
X149010000Y-99460000D02*
X149010000Y-86840000D01*
%TO.C,YR1*%
X190580000Y-116680000D02*
X197820000Y-116680000D01*
X190580000Y-124620000D02*
X190580000Y-116680000D01*
X190580000Y-124620000D02*
X197820000Y-124620000D01*
X196200000Y-124620000D02*
X196200000Y-116680000D01*
X197820000Y-122100000D02*
X197820000Y-116680000D01*
X197820000Y-124620000D02*
X197820000Y-122700000D01*
X198430000Y-122840000D02*
X197820000Y-122400000D01*
X198430000Y-121960000D01*
X198430000Y-122840000D01*
G36*
X198430000Y-122840000D02*
G01*
X197820000Y-122400000D01*
X198430000Y-121960000D01*
X198430000Y-122840000D01*
G37*
%TO.C,YTH1*%
X192090000Y-108240000D02*
X192090000Y-115860000D01*
X192090000Y-115860000D02*
X198060000Y-115860000D01*
X192850000Y-109000000D02*
X192850000Y-112050000D01*
X192850000Y-115100000D02*
X192850000Y-112050000D01*
X195800000Y-108250000D02*
X195800000Y-109000000D01*
X195800000Y-109000000D02*
X192850000Y-109000000D01*
X195800000Y-115100000D02*
X192850000Y-115100000D01*
X195800000Y-115850000D02*
X195800000Y-115100000D01*
X197300000Y-108250000D02*
X197300000Y-110050000D01*
X197300000Y-110050000D02*
X198050000Y-110050000D01*
X197300000Y-111550000D02*
X197300000Y-112550000D01*
X197300000Y-112550000D02*
X198050000Y-112550000D01*
X197300000Y-114050000D02*
X197300000Y-115850000D01*
X197300000Y-115850000D02*
X198050000Y-115850000D01*
X198050000Y-108250000D02*
X197300000Y-108250000D01*
X198050000Y-110050000D02*
X198050000Y-108250000D01*
X198050000Y-111550000D02*
X197300000Y-111550000D01*
X198050000Y-112550000D02*
X198050000Y-111550000D01*
X198050000Y-114050000D02*
X197300000Y-114050000D01*
X198050000Y-115850000D02*
X198050000Y-114050000D01*
X198060000Y-108240000D02*
X192090000Y-108240000D01*
X198060000Y-115860000D02*
X198060000Y-108240000D01*
X198350000Y-107950000D02*
X197100000Y-107950000D01*
X198350000Y-109200000D02*
X198350000Y-107950000D01*
%TO.C,AUXF3*%
X185850000Y-84700000D02*
X185850000Y-85950000D01*
X185850000Y-85950000D02*
X187100000Y-85950000D01*
X186140000Y-78040000D02*
X186140000Y-85660000D01*
X186140000Y-85660000D02*
X192110000Y-85660000D01*
X186150000Y-78050000D02*
X186150000Y-79850000D01*
X186150000Y-79850000D02*
X186900000Y-79850000D01*
X186150000Y-81350000D02*
X186150000Y-82350000D01*
X186150000Y-82350000D02*
X186900000Y-82350000D01*
X186150000Y-83850000D02*
X186150000Y-85650000D01*
X186150000Y-85650000D02*
X186900000Y-85650000D01*
X186900000Y-78050000D02*
X186150000Y-78050000D01*
X186900000Y-79850000D02*
X186900000Y-78050000D01*
X186900000Y-81350000D02*
X186150000Y-81350000D01*
X186900000Y-82350000D02*
X186900000Y-81350000D01*
X186900000Y-83850000D02*
X186150000Y-83850000D01*
X186900000Y-85650000D02*
X186900000Y-83850000D01*
X188400000Y-78050000D02*
X188400000Y-78800000D01*
X188400000Y-78800000D02*
X191350000Y-78800000D01*
X188400000Y-84900000D02*
X191350000Y-84900000D01*
X188400000Y-85650000D02*
X188400000Y-84900000D01*
X191350000Y-78800000D02*
X191350000Y-81850000D01*
X191350000Y-84900000D02*
X191350000Y-81850000D01*
X192110000Y-78040000D02*
X186140000Y-78040000D01*
X192110000Y-85660000D02*
X192110000Y-78040000D01*
%TO.C,ZEND1*%
X184150000Y-117500000D02*
X184150000Y-118750000D01*
X184150000Y-118750000D02*
X185400000Y-118750000D01*
X184440000Y-110840000D02*
X184440000Y-118460000D01*
X184440000Y-118460000D02*
X190410000Y-118460000D01*
X184450000Y-110850000D02*
X184450000Y-112650000D01*
X184450000Y-112650000D02*
X185200000Y-112650000D01*
X184450000Y-114150000D02*
X184450000Y-115150000D01*
X184450000Y-115150000D02*
X185200000Y-115150000D01*
X184450000Y-116650000D02*
X184450000Y-118450000D01*
X184450000Y-118450000D02*
X185200000Y-118450000D01*
X185200000Y-110850000D02*
X184450000Y-110850000D01*
X185200000Y-112650000D02*
X185200000Y-110850000D01*
X185200000Y-114150000D02*
X184450000Y-114150000D01*
X185200000Y-115150000D02*
X185200000Y-114150000D01*
X185200000Y-116650000D02*
X184450000Y-116650000D01*
X185200000Y-118450000D02*
X185200000Y-116650000D01*
X186700000Y-110850000D02*
X186700000Y-111600000D01*
X186700000Y-111600000D02*
X189650000Y-111600000D01*
X186700000Y-117700000D02*
X189650000Y-117700000D01*
X186700000Y-118450000D02*
X186700000Y-117700000D01*
X189650000Y-111600000D02*
X189650000Y-114650000D01*
X189650000Y-117700000D02*
X189650000Y-114650000D01*
X190410000Y-110840000D02*
X184440000Y-110840000D01*
X190410000Y-118460000D02*
X190410000Y-110840000D01*
%TO.C,AUXF*%
X185750000Y-92300000D02*
X185750000Y-93550000D01*
X185750000Y-93550000D02*
X187000000Y-93550000D01*
X186040000Y-85640000D02*
X186040000Y-93260000D01*
X186040000Y-93260000D02*
X192010000Y-93260000D01*
X186050000Y-85650000D02*
X186050000Y-87450000D01*
X186050000Y-87450000D02*
X186800000Y-87450000D01*
X186050000Y-88950000D02*
X186050000Y-89950000D01*
X186050000Y-89950000D02*
X186800000Y-89950000D01*
X186050000Y-91450000D02*
X186050000Y-93250000D01*
X186050000Y-93250000D02*
X186800000Y-93250000D01*
X186800000Y-85650000D02*
X186050000Y-85650000D01*
X186800000Y-87450000D02*
X186800000Y-85650000D01*
X186800000Y-88950000D02*
X186050000Y-88950000D01*
X186800000Y-89950000D02*
X186800000Y-88950000D01*
X186800000Y-91450000D02*
X186050000Y-91450000D01*
X186800000Y-93250000D02*
X186800000Y-91450000D01*
X188300000Y-85650000D02*
X188300000Y-86400000D01*
X188300000Y-86400000D02*
X191250000Y-86400000D01*
X188300000Y-92500000D02*
X191250000Y-92500000D01*
X188300000Y-93250000D02*
X188300000Y-92500000D01*
X191250000Y-86400000D02*
X191250000Y-89450000D01*
X191250000Y-92500000D02*
X191250000Y-89450000D01*
X192010000Y-85640000D02*
X186040000Y-85640000D01*
X192010000Y-93260000D02*
X192010000Y-85640000D01*
%TO.C,XTH0*%
X165550000Y-77850000D02*
X165550000Y-79100000D01*
X165840000Y-78140000D02*
X165840000Y-84110000D01*
X165840000Y-84110000D02*
X173460000Y-84110000D01*
X165850000Y-78150000D02*
X165850000Y-78900000D01*
X165850000Y-78900000D02*
X167650000Y-78900000D01*
X165850000Y-80400000D02*
X166600000Y-80400000D01*
X166600000Y-80400000D02*
X166600000Y-83350000D01*
X166600000Y-83350000D02*
X169650000Y-83350000D01*
X166800000Y-77850000D02*
X165550000Y-77850000D01*
X167650000Y-78150000D02*
X165850000Y-78150000D01*
X167650000Y-78900000D02*
X167650000Y-78150000D01*
X169150000Y-78150000D02*
X169150000Y-78900000D01*
X169150000Y-78900000D02*
X170150000Y-78900000D01*
X170150000Y-78150000D02*
X169150000Y-78150000D01*
X170150000Y-78900000D02*
X170150000Y-78150000D01*
X171650000Y-78150000D02*
X171650000Y-78900000D01*
X171650000Y-78900000D02*
X173450000Y-78900000D01*
X172700000Y-80400000D02*
X172700000Y-83350000D01*
X172700000Y-83350000D02*
X169650000Y-83350000D01*
X173450000Y-78150000D02*
X171650000Y-78150000D01*
X173450000Y-78900000D02*
X173450000Y-78150000D01*
X173450000Y-80400000D02*
X172700000Y-80400000D01*
X173460000Y-78140000D02*
X165840000Y-78140000D01*
X173460000Y-84110000D02*
X173460000Y-78140000D01*
%TO.C,JY1*%
X157553349Y-103740000D02*
X157553349Y-104040000D01*
X157553349Y-111330000D02*
X157553349Y-105580000D01*
X158973349Y-110830000D02*
X158973349Y-111330000D01*
X158973349Y-111330000D02*
X157553349Y-111330000D01*
X190503349Y-110830000D02*
X158973349Y-110830000D01*
X190503349Y-111330000D02*
X190503349Y-110830000D01*
X191923349Y-103740000D02*
X157553349Y-103740000D01*
X191923349Y-104040000D02*
X191923349Y-103740000D01*
X191923349Y-105580000D02*
X191923349Y-111330000D01*
X191923349Y-111330000D02*
X190503349Y-111330000D01*
%TO.C,ZEND0*%
X178225000Y-117500000D02*
X178225000Y-118750000D01*
X178225000Y-118750000D02*
X179475000Y-118750000D01*
X178515000Y-110840000D02*
X178515000Y-118460000D01*
X178515000Y-118460000D02*
X184485000Y-118460000D01*
X178525000Y-110850000D02*
X178525000Y-112650000D01*
X178525000Y-112650000D02*
X179275000Y-112650000D01*
X178525000Y-114150000D02*
X178525000Y-115150000D01*
X178525000Y-115150000D02*
X179275000Y-115150000D01*
X178525000Y-116650000D02*
X178525000Y-118450000D01*
X178525000Y-118450000D02*
X179275000Y-118450000D01*
X179275000Y-110850000D02*
X178525000Y-110850000D01*
X179275000Y-112650000D02*
X179275000Y-110850000D01*
X179275000Y-114150000D02*
X178525000Y-114150000D01*
X179275000Y-115150000D02*
X179275000Y-114150000D01*
X179275000Y-116650000D02*
X178525000Y-116650000D01*
X179275000Y-118450000D02*
X179275000Y-116650000D01*
X180775000Y-110850000D02*
X180775000Y-111600000D01*
X180775000Y-111600000D02*
X183725000Y-111600000D01*
X180775000Y-117700000D02*
X183725000Y-117700000D01*
X180775000Y-118450000D02*
X180775000Y-117700000D01*
X183725000Y-111600000D02*
X183725000Y-114650000D01*
X183725000Y-117700000D02*
X183725000Y-114650000D01*
X184485000Y-110840000D02*
X178515000Y-110840000D01*
X184485000Y-118460000D02*
X184485000Y-110840000D01*
%TO.C,XM1*%
X173150000Y-77850000D02*
X173150000Y-79100000D01*
X173440000Y-78140000D02*
X173440000Y-84110000D01*
X173440000Y-84110000D02*
X186060000Y-84110000D01*
X173450000Y-78150000D02*
X173450000Y-78900000D01*
X173450000Y-78900000D02*
X175250000Y-78900000D01*
X173450000Y-80400000D02*
X174200000Y-80400000D01*
X174200000Y-80400000D02*
X174200000Y-83350000D01*
X174200000Y-83350000D02*
X179750000Y-83350000D01*
X174400000Y-77850000D02*
X173150000Y-77850000D01*
X175250000Y-78150000D02*
X173450000Y-78150000D01*
X175250000Y-78900000D02*
X175250000Y-78150000D01*
X176750000Y-78150000D02*
X176750000Y-78900000D01*
X176750000Y-78900000D02*
X182750000Y-78900000D01*
X182750000Y-78150000D02*
X176750000Y-78150000D01*
X182750000Y-78900000D02*
X182750000Y-78150000D01*
X184250000Y-78150000D02*
X184250000Y-78900000D01*
X184250000Y-78900000D02*
X186050000Y-78900000D01*
X185300000Y-80400000D02*
X185300000Y-83350000D01*
X185300000Y-83350000D02*
X179750000Y-83350000D01*
X186050000Y-78150000D02*
X184250000Y-78150000D01*
X186050000Y-78900000D02*
X186050000Y-78150000D01*
X186050000Y-80400000D02*
X185300000Y-80400000D01*
X186060000Y-78140000D02*
X173440000Y-78140000D01*
X186060000Y-84110000D02*
X186060000Y-78140000D01*
%TO.C,YML0*%
X152428349Y-111490000D02*
X152428349Y-117460000D01*
X152428349Y-117460000D02*
X165048349Y-117460000D01*
X152438349Y-115200000D02*
X153188349Y-115200000D01*
X152438349Y-116700000D02*
X152438349Y-117450000D01*
X152438349Y-117450000D02*
X154238349Y-117450000D01*
X153188349Y-112250000D02*
X158738349Y-112250000D01*
X153188349Y-115200000D02*
X153188349Y-112250000D01*
X154238349Y-116700000D02*
X152438349Y-116700000D01*
X154238349Y-117450000D02*
X154238349Y-116700000D01*
X155738349Y-116700000D02*
X155738349Y-117450000D01*
X155738349Y-117450000D02*
X161738349Y-117450000D01*
X161738349Y-116700000D02*
X155738349Y-116700000D01*
X161738349Y-117450000D02*
X161738349Y-116700000D01*
X163238349Y-116700000D02*
X163238349Y-117450000D01*
X163238349Y-117450000D02*
X165038349Y-117450000D01*
X164088349Y-117750000D02*
X165338349Y-117750000D01*
X164288349Y-112250000D02*
X158738349Y-112250000D01*
X164288349Y-115200000D02*
X164288349Y-112250000D01*
X165038349Y-115200000D02*
X164288349Y-115200000D01*
X165038349Y-116700000D02*
X163238349Y-116700000D01*
X165038349Y-117450000D02*
X165038349Y-116700000D01*
X165048349Y-111490000D02*
X152428349Y-111490000D01*
X165048349Y-117460000D02*
X165048349Y-111490000D01*
X165338349Y-117750000D02*
X165338349Y-116500000D01*
%TO.C,YEND1*%
X191738349Y-106500000D02*
X191738349Y-107750000D01*
X191738349Y-107750000D02*
X192988349Y-107750000D01*
X192028349Y-99840000D02*
X192028349Y-107460000D01*
X192028349Y-107460000D02*
X197998349Y-107460000D01*
X192038349Y-99850000D02*
X192038349Y-101650000D01*
X192038349Y-101650000D02*
X192788349Y-101650000D01*
X192038349Y-103150000D02*
X192038349Y-104150000D01*
X192038349Y-104150000D02*
X192788349Y-104150000D01*
X192038349Y-105650000D02*
X192038349Y-107450000D01*
X192038349Y-107450000D02*
X192788349Y-107450000D01*
X192788349Y-99850000D02*
X192038349Y-99850000D01*
X192788349Y-101650000D02*
X192788349Y-99850000D01*
X192788349Y-103150000D02*
X192038349Y-103150000D01*
X192788349Y-104150000D02*
X192788349Y-103150000D01*
X192788349Y-105650000D02*
X192038349Y-105650000D01*
X192788349Y-107450000D02*
X192788349Y-105650000D01*
X194288349Y-99850000D02*
X194288349Y-100600000D01*
X194288349Y-100600000D02*
X197238349Y-100600000D01*
X194288349Y-106700000D02*
X197238349Y-106700000D01*
X194288349Y-107450000D02*
X194288349Y-106700000D01*
X197238349Y-100600000D02*
X197238349Y-103650000D01*
X197238349Y-106700000D02*
X197238349Y-103650000D01*
X197998349Y-99840000D02*
X192028349Y-99840000D01*
X197998349Y-107460000D02*
X197998349Y-99840000D01*
%TO.C,XM0*%
X173150000Y-85250000D02*
X173150000Y-86500000D01*
X173440000Y-85540000D02*
X173440000Y-91510000D01*
X173440000Y-91510000D02*
X186060000Y-91510000D01*
X173450000Y-85550000D02*
X173450000Y-86300000D01*
X173450000Y-86300000D02*
X175250000Y-86300000D01*
X173450000Y-87800000D02*
X174200000Y-87800000D01*
X174200000Y-87800000D02*
X174200000Y-90750000D01*
X174200000Y-90750000D02*
X179750000Y-90750000D01*
X174400000Y-85250000D02*
X173150000Y-85250000D01*
X175250000Y-85550000D02*
X173450000Y-85550000D01*
X175250000Y-86300000D02*
X175250000Y-85550000D01*
X176750000Y-85550000D02*
X176750000Y-86300000D01*
X176750000Y-86300000D02*
X182750000Y-86300000D01*
X182750000Y-85550000D02*
X176750000Y-85550000D01*
X182750000Y-86300000D02*
X182750000Y-85550000D01*
X184250000Y-85550000D02*
X184250000Y-86300000D01*
X184250000Y-86300000D02*
X186050000Y-86300000D01*
X185300000Y-87800000D02*
X185300000Y-90750000D01*
X185300000Y-90750000D02*
X179750000Y-90750000D01*
X186050000Y-85550000D02*
X184250000Y-85550000D01*
X186050000Y-86300000D02*
X186050000Y-85550000D01*
X186050000Y-87800000D02*
X185300000Y-87800000D01*
X186060000Y-85540000D02*
X173440000Y-85540000D01*
X186060000Y-91510000D02*
X186060000Y-85540000D01*
%TD*%
M02*
