%TF.GenerationSoftware,KiCad,Pcbnew,9.0.1*%
%TF.CreationDate,2025-08-04T14:01:18+08:00*%
%TF.ProjectId,breakout,62726561-6b6f-4757-942e-6b696361645f,rev?*%
%TF.SameCoordinates,Original*%
%TF.FileFunction,Copper,L2,Bot*%
%TF.FilePolarity,Positive*%
%FSLAX46Y46*%
G04 Gerber Fmt 4.6, Leading zero omitted, Abs format (unit mm)*
G04 Created by KiCad (PCBNEW 9.0.1) date 2025-08-04 14:01:18*
%MOMM*%
%LPD*%
G01*
G04 APERTURE LIST*
G04 Aperture macros list*
%AMRoundRect*
0 Rectangle with rounded corners*
0 $1 Rounding radius*
0 $2 $3 $4 $5 $6 $7 $8 $9 X,Y pos of 4 corners*
0 Add a 4 corners polygon primitive as box body*
4,1,4,$2,$3,$4,$5,$6,$7,$8,$9,$2,$3,0*
0 Add four circle primitives for the rounded corners*
1,1,$1+$1,$2,$3*
1,1,$1+$1,$4,$5*
1,1,$1+$1,$6,$7*
1,1,$1+$1,$8,$9*
0 Add four rect primitives between the rounded corners*
20,1,$1+$1,$2,$3,$4,$5,0*
20,1,$1+$1,$4,$5,$6,$7,0*
20,1,$1+$1,$6,$7,$8,$9,0*
20,1,$1+$1,$8,$9,$2,$3,0*%
G04 Aperture macros list end*
%TA.AperFunction,ComponentPad*%
%ADD10C,3.600000*%
%TD*%
%TA.AperFunction,ConnectorPad*%
%ADD11C,5.600000*%
%TD*%
%TA.AperFunction,ComponentPad*%
%ADD12C,2.400000*%
%TD*%
%TA.AperFunction,ComponentPad*%
%ADD13O,1.700000X1.950000*%
%TD*%
%TA.AperFunction,ComponentPad*%
%ADD14O,2.000000X1.700000*%
%TD*%
%TA.AperFunction,ComponentPad*%
%ADD15O,1.700000X2.000000*%
%TD*%
%TA.AperFunction,ComponentPad*%
%ADD16O,1.950000X1.700000*%
%TD*%
%TA.AperFunction,ComponentPad*%
%ADD17C,1.500000*%
%TD*%
%TA.AperFunction,ComponentPad*%
%ADD18RoundRect,0.250000X0.725000X-0.600000X0.725000X0.600000X-0.725000X0.600000X-0.725000X-0.600000X0*%
%TD*%
%TA.AperFunction,ComponentPad*%
%ADD19RoundRect,0.250000X-0.600000X-0.725000X0.600000X-0.725000X0.600000X0.725000X-0.600000X0.725000X0*%
%TD*%
%TA.AperFunction,ViaPad*%
%ADD20C,0.600000*%
%TD*%
%TA.AperFunction,Conductor*%
%ADD21C,0.300000*%
%TD*%
%TA.AperFunction,Conductor*%
%ADD22C,1.700000*%
%TD*%
G04 APERTURE END LIST*
D10*
%TO.P,H1,1,1*%
%TO.N,GND*%
X154000000Y-81500000D03*
D11*
X154000000Y-81500000D03*
%TD*%
D12*
%TO.P,XR0,1*%
%TO.N,Net-(JX1-Pin_4)*%
X148600000Y-81800000D03*
%TO.P,XR0,2*%
%TO.N,Net-(JX1-Pin_3)*%
X145100000Y-81800000D03*
%TD*%
D13*
%TO.P,YMR0,1,Pin_1*%
%TO.N,Net-(JY1-Pin_7)*%
X175100000Y-115000000D03*
%TO.P,YMR0,2,Pin_2*%
%TO.N,Net-(JY1-Pin_8)*%
X172600000Y-115000000D03*
%TO.P,YMR0,3,Pin_3*%
%TO.N,Net-(JY1-Pin_10)*%
X170100000Y-115000000D03*
%TO.P,YMR0,4,Pin_4*%
%TO.N,Net-(JY1-Pin_9)*%
X167600000Y-115000000D03*
%TD*%
%TO.P,YML1,1,Pin_1*%
%TO.N,Net-(JY1-Pin_7)*%
X162488349Y-121000000D03*
%TO.P,YML1,2,Pin_2*%
%TO.N,Net-(JY1-Pin_8)*%
X159988349Y-121000000D03*
%TO.P,YML1,3,Pin_3*%
%TO.N,Net-(JY1-Pin_9)*%
X157488349Y-121000000D03*
%TO.P,YML1,4,Pin_4*%
%TO.N,Net-(JY1-Pin_10)*%
X154988349Y-121000000D03*
%TD*%
D14*
%TO.P,FANPWM1,1,Pin_1*%
%TO.N,Net-(FANPWM1-Pin_1)*%
X194500000Y-90700000D03*
%TO.P,FANPWM1,2,Pin_2*%
X194500000Y-88200000D03*
%TD*%
D15*
%TO.P,XEND1,1,1*%
%TO.N,Net-(JY1-Pin_14)*%
X160800000Y-88000000D03*
%TO.P,XEND1,2,2*%
%TO.N,Net-(JX1-Pin_7)*%
X163300000Y-88000000D03*
%TD*%
D16*
%TO.P,ZM1,1,Pin_1*%
%TO.N,Net-(JY1-Pin_20)*%
X145500000Y-109500000D03*
%TO.P,ZM1,2,Pin_2*%
%TO.N,Net-(JY1-Pin_19)*%
X145500000Y-107000000D03*
%TO.P,ZM1,3,Pin_3*%
%TO.N,Net-(JY1-Pin_18)*%
X145500000Y-104500000D03*
%TO.P,ZM1,4,Pin_4*%
%TO.N,Net-(JY1-Pin_17)*%
X145500000Y-102000000D03*
%TD*%
D12*
%TO.P,XR1,1*%
%TO.N,Net-(JX1-Pin_6)*%
X162900000Y-81800000D03*
%TO.P,XR1,2*%
%TO.N,Net-(JX1-Pin_5)*%
X159400000Y-81800000D03*
%TD*%
D14*
%TO.P,AUXF1,1,+*%
%TO.N,Net-(AUXF1-+)*%
X194500000Y-83100000D03*
%TO.P,AUXF1,2,-*%
%TO.N,Net-(AUXF1--)*%
X194500000Y-80600000D03*
%TD*%
D17*
%TO.P,JX1,1,Pin_1*%
%TO.N,Net-(EM1-Pin_4)*%
X154000000Y-96060000D03*
%TO.P,JX1,2,Pin_2*%
%TO.N,Net-(EM1-Pin_3)*%
X157000000Y-96060000D03*
%TO.P,JX1,3,Pin_3*%
%TO.N,Net-(JX1-Pin_3)*%
X160000000Y-96060000D03*
%TO.P,JX1,4,Pin_4*%
%TO.N,Net-(JX1-Pin_4)*%
X163000000Y-96060000D03*
%TO.P,JX1,5,Pin_5*%
%TO.N,Net-(JX1-Pin_5)*%
X166000000Y-96060000D03*
%TO.P,JX1,6,Pin_6*%
%TO.N,Net-(JX1-Pin_6)*%
X169000000Y-96060000D03*
%TO.P,JX1,7,Pin_7*%
%TO.N,Net-(JX1-Pin_7)*%
X172000000Y-96060000D03*
%TO.P,JX1,8,Pin_8*%
%TO.N,Net-(JX1-Pin_8)*%
X175000000Y-96060000D03*
%TO.P,JX1,9,Pin_9*%
%TO.N,Net-(JX1-Pin_9)*%
X178000000Y-96060000D03*
%TO.P,JX1,10,Pin_10*%
%TO.N,Net-(JX1-Pin_10)*%
X181000000Y-96060000D03*
%TO.P,JX1,11,Pin_11*%
%TO.N,Net-(JX1-Pin_11)*%
X184000000Y-96060000D03*
%TO.P,JX1,12,Pin_12*%
%TO.N,Net-(AUXF1--)*%
X187000000Y-96060000D03*
%TO.P,JX1,13,Pin_13*%
%TO.N,Net-(EM1-Pin_2)*%
X154000000Y-99060000D03*
%TO.P,JX1,14,Pin_14*%
%TO.N,Net-(EM1-Pin_1)*%
X157000000Y-99060000D03*
%TO.P,JX1,15,Pin_15*%
%TO.N,Net-(HEF1-+)*%
X160000000Y-99060000D03*
%TO.P,JX1,16,Pin_16*%
%TO.N,Net-(HEF1--)*%
X163000000Y-99060000D03*
%TO.P,JX1,17,Pin_17*%
%TO.N,Net-(JX1-Pin_17)*%
X166000000Y-99060000D03*
%TO.P,JX1,18,Pin_18*%
%TO.N,Net-(JX1-Pin_18)*%
X169000000Y-99060000D03*
%TO.P,JX1,19,Pin_19*%
%TO.N,Net-(JX1-Pin_19)*%
X172000000Y-99060000D03*
%TO.P,JX1,20,Pin_20*%
%TO.N,Net-(JX1-Pin_20)*%
X175000000Y-99060000D03*
%TO.P,JX1,21,Pin_21*%
%TO.N,GND*%
X178000000Y-99060000D03*
%TO.P,JX1,22,Pin_22*%
X181000000Y-99060000D03*
%TO.P,JX1,23,Pin_23*%
%TO.N,Net-(FANPWM1-Pin_1)*%
X184000000Y-99060000D03*
%TO.P,JX1,24,Pin_24*%
%TO.N,Net-(AUXF1-+)*%
X187000000Y-99060000D03*
%TD*%
D13*
%TO.P,YMR1,1,Pin_1*%
%TO.N,Net-(JY1-Pin_7)*%
X175100000Y-121000000D03*
%TO.P,YMR1,2,Pin_2*%
%TO.N,Net-(JY1-Pin_8)*%
X172600000Y-121000000D03*
%TO.P,YMR1,3,Pin_3*%
%TO.N,Net-(JY1-Pin_10)*%
X170100000Y-121000000D03*
%TO.P,YMR1,4,Pin_4*%
%TO.N,Net-(JY1-Pin_9)*%
X167600000Y-121000000D03*
%TD*%
D15*
%TO.P,XTH1,1*%
%TO.N,Net-(JX1-Pin_17)*%
X168400000Y-88000000D03*
%TO.P,XTH1,2*%
%TO.N,Net-(JX1-Pin_18)*%
X170900000Y-88000000D03*
%TD*%
%TO.P,HEF1,1,+*%
%TO.N,Net-(HEF1-+)*%
X153200000Y-88000000D03*
%TO.P,HEF1,2,-*%
%TO.N,Net-(HEF1--)*%
X155700000Y-88000000D03*
%TD*%
D18*
%TO.P,ZM0,1,Pin_1*%
%TO.N,Net-(JY1-Pin_15)*%
X145500000Y-122100000D03*
D16*
%TO.P,ZM0,2,Pin_2*%
%TO.N,Net-(JY1-Pin_16)*%
X145500000Y-119600000D03*
%TO.P,ZM0,3,Pin_3*%
%TO.N,Net-(JY1-Pin_6)*%
X145500000Y-117100000D03*
%TO.P,ZM0,4,Pin_4*%
%TO.N,Net-(JY1-Pin_5)*%
X145500000Y-114600000D03*
%TD*%
%TO.P,EM1,1,Pin_1*%
%TO.N,Net-(EM1-Pin_1)*%
X145500000Y-96900000D03*
%TO.P,EM1,2,Pin_2*%
%TO.N,Net-(EM1-Pin_2)*%
X145500000Y-94400000D03*
%TO.P,EM1,3,Pin_3*%
%TO.N,Net-(EM1-Pin_3)*%
X145500000Y-91900000D03*
%TO.P,EM1,4,Pin_4*%
%TO.N,Net-(EM1-Pin_4)*%
X145500000Y-89400000D03*
%TD*%
D12*
%TO.P,YR1,1*%
%TO.N,Net-(JY1-Pin_2)*%
X194100000Y-122400000D03*
%TO.P,YR1,2*%
%TO.N,Net-(JY1-Pin_1)*%
X194100000Y-118900000D03*
%TD*%
D14*
%TO.P,YTH1,1*%
%TO.N,Net-(JY1-Pin_3)*%
X195600000Y-110800000D03*
%TO.P,YTH1,2*%
%TO.N,Net-(JY1-Pin_4)*%
X195600000Y-113300000D03*
%TD*%
%TO.P,AUXF3,1,+*%
%TO.N,Net-(AUXF1-+)*%
X188600000Y-83100000D03*
%TO.P,AUXF3,2,-*%
%TO.N,Net-(AUXF1--)*%
X188600000Y-80600000D03*
%TD*%
%TO.P,ZEND1,1,1*%
%TO.N,Net-(JY1-Pin_14)*%
X186900000Y-115900000D03*
%TO.P,ZEND1,2,2*%
%TO.N,Net-(JY1-Pin_12)*%
X186900000Y-113400000D03*
%TD*%
%TO.P,AUXF,1,+*%
%TO.N,Net-(AUXF1-+)*%
X188500000Y-90700000D03*
%TO.P,AUXF,2,-*%
%TO.N,Net-(AUXF1--)*%
X188500000Y-88200000D03*
%TD*%
D15*
%TO.P,XTH0,1*%
%TO.N,Net-(JX1-Pin_19)*%
X168400000Y-80600000D03*
%TO.P,XTH0,2*%
%TO.N,Net-(JX1-Pin_20)*%
X170900000Y-80600000D03*
%TD*%
D17*
%TO.P,JY1,1,Pin_1*%
%TO.N,Net-(JY1-Pin_1)*%
X188238349Y-108750000D03*
%TO.P,JY1,2,Pin_2*%
%TO.N,Net-(JY1-Pin_2)*%
X185238349Y-108750000D03*
%TO.P,JY1,3,Pin_3*%
%TO.N,Net-(JY1-Pin_3)*%
X182238349Y-108750000D03*
%TO.P,JY1,4,Pin_4*%
%TO.N,Net-(JY1-Pin_4)*%
X179238349Y-108750000D03*
%TO.P,JY1,5,Pin_5*%
%TO.N,Net-(JY1-Pin_5)*%
X176238349Y-108750000D03*
%TO.P,JY1,6,Pin_6*%
%TO.N,Net-(JY1-Pin_6)*%
X173238349Y-108750000D03*
%TO.P,JY1,7,Pin_7*%
%TO.N,Net-(JY1-Pin_7)*%
X170238349Y-108750000D03*
%TO.P,JY1,8,Pin_8*%
%TO.N,Net-(JY1-Pin_8)*%
X167238349Y-108750000D03*
%TO.P,JY1,9,Pin_9*%
%TO.N,Net-(JY1-Pin_9)*%
X164238349Y-108750000D03*
%TO.P,JY1,10,Pin_10*%
%TO.N,Net-(JY1-Pin_10)*%
X161238349Y-108750000D03*
%TO.P,JY1,11,Pin_11*%
%TO.N,Net-(JY1-Pin_11)*%
X188238349Y-105750000D03*
%TO.P,JY1,12,Pin_12*%
%TO.N,Net-(JY1-Pin_12)*%
X185238349Y-105750000D03*
%TO.P,JY1,13,Pin_13*%
%TO.N,Net-(JY1-Pin_13)*%
X182238349Y-105750000D03*
%TO.P,JY1,14,Pin_14*%
%TO.N,Net-(JY1-Pin_14)*%
X179238349Y-105750000D03*
%TO.P,JY1,15,Pin_15*%
%TO.N,Net-(JY1-Pin_15)*%
X176238349Y-105750000D03*
%TO.P,JY1,16,Pin_16*%
%TO.N,Net-(JY1-Pin_16)*%
X173238349Y-105750000D03*
%TO.P,JY1,17,Pin_17*%
%TO.N,Net-(JY1-Pin_17)*%
X170238349Y-105750000D03*
%TO.P,JY1,18,Pin_18*%
%TO.N,Net-(JY1-Pin_18)*%
X167238349Y-105750000D03*
%TO.P,JY1,19,Pin_19*%
%TO.N,Net-(JY1-Pin_19)*%
X164238349Y-105750000D03*
%TO.P,JY1,20,Pin_20*%
%TO.N,Net-(JY1-Pin_20)*%
X161238349Y-105750000D03*
%TD*%
D14*
%TO.P,ZEND0,1,1*%
%TO.N,Net-(JY1-Pin_14)*%
X180975000Y-115900000D03*
%TO.P,ZEND0,2,2*%
%TO.N,Net-(JY1-Pin_11)*%
X180975000Y-113400000D03*
%TD*%
D19*
%TO.P,XM1,1,Pin_1*%
%TO.N,Net-(JX1-Pin_8)*%
X176000000Y-80600000D03*
D13*
%TO.P,XM1,2,Pin_2*%
%TO.N,Net-(JX1-Pin_9)*%
X178500000Y-80600000D03*
%TO.P,XM1,3,Pin_3*%
%TO.N,Net-(JX1-Pin_10)*%
X181000000Y-80600000D03*
%TO.P,XM1,4,Pin_4*%
%TO.N,Net-(JX1-Pin_11)*%
X183500000Y-80600000D03*
%TD*%
D10*
%TO.P,H4,1,1*%
%TO.N,GND*%
X184000000Y-121700000D03*
D11*
X184000000Y-121700000D03*
%TD*%
D13*
%TO.P,YML0,1,Pin_1*%
%TO.N,Net-(JY1-Pin_7)*%
X162488349Y-115000000D03*
%TO.P,YML0,2,Pin_2*%
%TO.N,Net-(JY1-Pin_8)*%
X159988349Y-115000000D03*
%TO.P,YML0,3,Pin_3*%
%TO.N,Net-(JY1-Pin_9)*%
X157488349Y-115000000D03*
%TO.P,YML0,4,Pin_4*%
%TO.N,Net-(JY1-Pin_10)*%
X154988349Y-115000000D03*
%TD*%
D14*
%TO.P,YEND1,1,1*%
%TO.N,Net-(JY1-Pin_13)*%
X194488349Y-104900000D03*
%TO.P,YEND1,2,2*%
%TO.N,Net-(JY1-Pin_14)*%
X194488349Y-102400000D03*
%TD*%
D19*
%TO.P,XM0,1,Pin_1*%
%TO.N,Net-(JX1-Pin_8)*%
X176000000Y-88000000D03*
D13*
%TO.P,XM0,2,Pin_2*%
%TO.N,Net-(JX1-Pin_9)*%
X178500000Y-88000000D03*
%TO.P,XM0,3,Pin_3*%
%TO.N,Net-(JX1-Pin_10)*%
X181000000Y-88000000D03*
%TO.P,XM0,4,Pin_4*%
%TO.N,Net-(JX1-Pin_11)*%
X183500000Y-88000000D03*
%TD*%
D20*
%TO.N,Net-(JY1-Pin_6)*%
X155800000Y-104200000D03*
X152900000Y-107100000D03*
X174450000Y-105237043D03*
%TO.N,Net-(JY1-Pin_5)*%
X154800000Y-104200000D03*
X175100000Y-104699999D03*
X151900000Y-107100000D03*
%TO.N,Net-(JY1-Pin_14)*%
X170600000Y-98800000D03*
%TD*%
D21*
%TO.N,Net-(HEF1-+)*%
X161249000Y-94257520D02*
X161249000Y-97811000D01*
X161249000Y-97811000D02*
X160000000Y-99060000D01*
X156342480Y-89351000D02*
X161249000Y-94257520D01*
X153200000Y-88000000D02*
X153851530Y-88000000D01*
X155202530Y-89351000D02*
X156342480Y-89351000D01*
X153851530Y-88000000D02*
X155202530Y-89351000D01*
%TO.N,Net-(HEF1--)*%
X161750000Y-94050000D02*
X161750000Y-97810000D01*
X161750000Y-97810000D02*
X163000000Y-99060000D01*
X155700000Y-88000000D02*
X161750000Y-94050000D01*
D22*
%TO.N,Net-(JY1-Pin_8)*%
X167238349Y-108750000D02*
X172600000Y-114111651D01*
X172600000Y-114111651D02*
X172600000Y-115000000D01*
%TO.N,Net-(JY1-Pin_10)*%
X167913420Y-112500000D02*
X170100000Y-114686580D01*
X165050000Y-112500000D02*
X167913420Y-112500000D01*
X170100000Y-114686580D02*
X170100000Y-115000000D01*
X161250000Y-108700000D02*
X165050000Y-112500000D01*
D21*
%TO.N,Net-(JY1-Pin_6)*%
X155800000Y-104200000D02*
X152900000Y-107100000D01*
X174499000Y-107489349D02*
X173238349Y-108750000D01*
X155800000Y-104200000D02*
X155752000Y-104248000D01*
X174450000Y-105237043D02*
X174450000Y-105250000D01*
X174499000Y-105299000D02*
X174499000Y-107489349D01*
X174450000Y-105250000D02*
X174499000Y-105299000D01*
%TO.N,Net-(JY1-Pin_5)*%
X175100000Y-104699999D02*
X175100000Y-107611651D01*
X175100000Y-107611651D02*
X176238349Y-108750000D01*
X154800000Y-104200000D02*
X151900000Y-107100000D01*
%TO.N,Net-(JX1-Pin_7)*%
X164900000Y-88000000D02*
X172000000Y-95100000D01*
X163300000Y-88000000D02*
X164900000Y-88000000D01*
X172000000Y-95100000D02*
X172000000Y-96060000D01*
%TO.N,Net-(JY1-Pin_14)*%
X165300000Y-89500000D02*
X162300000Y-89500000D01*
X170600000Y-94800000D02*
X165300000Y-89500000D01*
X162300000Y-89500000D02*
X160800000Y-88000000D01*
X170600000Y-98800000D02*
X170600000Y-94800000D01*
%TD*%
%TA.AperFunction,Conductor*%
%TO.N,GND*%
G36*
X197742539Y-78520185D02*
G01*
X197788294Y-78572989D01*
X197799500Y-78624500D01*
X197799500Y-124375500D01*
X197779815Y-124442539D01*
X197727011Y-124488294D01*
X197675500Y-124499500D01*
X143424500Y-124499500D01*
X143357461Y-124479815D01*
X143311706Y-124427011D01*
X143300500Y-124375500D01*
X143300500Y-114493713D01*
X144024500Y-114493713D01*
X144024500Y-114706287D01*
X144057754Y-114916243D01*
X144091534Y-115020208D01*
X144123444Y-115118414D01*
X144219951Y-115307820D01*
X144344890Y-115479786D01*
X144495209Y-115630105D01*
X144495214Y-115630109D01*
X144659793Y-115749682D01*
X144702459Y-115805011D01*
X144708438Y-115874625D01*
X144675833Y-115936420D01*
X144659793Y-115950318D01*
X144495214Y-116069890D01*
X144495209Y-116069894D01*
X144344890Y-116220213D01*
X144219951Y-116392179D01*
X144123444Y-116581585D01*
X144057753Y-116783760D01*
X144034575Y-116930104D01*
X144024500Y-116993713D01*
X144024500Y-117206287D01*
X144028034Y-117228597D01*
X144057753Y-117416239D01*
X144123444Y-117618414D01*
X144219951Y-117807820D01*
X144344890Y-117979786D01*
X144495209Y-118130105D01*
X144495214Y-118130109D01*
X144659793Y-118249682D01*
X144702459Y-118305011D01*
X144708438Y-118374625D01*
X144675833Y-118436420D01*
X144659793Y-118450318D01*
X144495214Y-118569890D01*
X144495209Y-118569894D01*
X144344890Y-118720213D01*
X144219951Y-118892179D01*
X144123444Y-119081585D01*
X144057753Y-119283760D01*
X144024500Y-119493713D01*
X144024500Y-119706286D01*
X144046453Y-119844896D01*
X144057754Y-119916243D01*
X144092644Y-120023624D01*
X144123444Y-120118414D01*
X144219951Y-120307820D01*
X144344890Y-120479786D01*
X144483705Y-120618601D01*
X144517190Y-120679924D01*
X144512206Y-120749616D01*
X144470334Y-120805549D01*
X144461121Y-120811821D01*
X144306342Y-120907289D01*
X144182289Y-121031342D01*
X144090187Y-121180663D01*
X144090186Y-121180666D01*
X144035001Y-121347203D01*
X144035001Y-121347204D01*
X144035000Y-121347204D01*
X144024500Y-121449983D01*
X144024500Y-122750001D01*
X144024501Y-122750018D01*
X144035000Y-122852796D01*
X144035001Y-122852799D01*
X144090185Y-123019331D01*
X144090186Y-123019334D01*
X144182288Y-123168656D01*
X144306344Y-123292712D01*
X144455666Y-123384814D01*
X144622203Y-123439999D01*
X144724991Y-123450500D01*
X146275008Y-123450499D01*
X146377797Y-123439999D01*
X146544334Y-123384814D01*
X146693656Y-123292712D01*
X146817712Y-123168656D01*
X146909814Y-123019334D01*
X146964999Y-122852797D01*
X146975500Y-122750009D01*
X146975499Y-121449992D01*
X146964999Y-121347203D01*
X146909814Y-121180666D01*
X146817712Y-121031344D01*
X146693656Y-120907288D01*
X146693655Y-120907287D01*
X146632197Y-120869380D01*
X146544334Y-120815186D01*
X146544332Y-120815185D01*
X146538878Y-120811821D01*
X146500105Y-120768713D01*
X153637849Y-120768713D01*
X153637849Y-121231287D01*
X153644990Y-121276376D01*
X153656208Y-121347204D01*
X153671103Y-121441243D01*
X153673945Y-121449991D01*
X153736793Y-121643414D01*
X153833300Y-121832820D01*
X153958239Y-122004786D01*
X154108562Y-122155109D01*
X154280528Y-122280048D01*
X154280530Y-122280049D01*
X154280533Y-122280051D01*
X154469937Y-122376557D01*
X154672106Y-122442246D01*
X154882062Y-122475500D01*
X154882063Y-122475500D01*
X155094635Y-122475500D01*
X155094636Y-122475500D01*
X155304592Y-122442246D01*
X155506761Y-122376557D01*
X155696165Y-122280051D01*
X155718138Y-122264086D01*
X155868135Y-122155109D01*
X155868137Y-122155106D01*
X155868141Y-122155104D01*
X156018453Y-122004792D01*
X156138032Y-121840204D01*
X156193360Y-121797540D01*
X156262973Y-121791561D01*
X156324769Y-121824166D01*
X156338662Y-121840199D01*
X156458241Y-122004786D01*
X156458245Y-122004792D01*
X156608562Y-122155109D01*
X156780528Y-122280048D01*
X156780530Y-122280049D01*
X156780533Y-122280051D01*
X156969937Y-122376557D01*
X157172106Y-122442246D01*
X157382062Y-122475500D01*
X157382063Y-122475500D01*
X157594635Y-122475500D01*
X157594636Y-122475500D01*
X157804592Y-122442246D01*
X158006761Y-122376557D01*
X158196165Y-122280051D01*
X158218138Y-122264086D01*
X158368135Y-122155109D01*
X158368137Y-122155106D01*
X158368141Y-122155104D01*
X158518453Y-122004792D01*
X158638032Y-121840204D01*
X158693360Y-121797540D01*
X158762973Y-121791561D01*
X158824769Y-121824166D01*
X158838662Y-121840199D01*
X158958241Y-122004786D01*
X158958245Y-122004792D01*
X159108562Y-122155109D01*
X159280528Y-122280048D01*
X159280530Y-122280049D01*
X159280533Y-122280051D01*
X159469937Y-122376557D01*
X159672106Y-122442246D01*
X159882062Y-122475500D01*
X159882063Y-122475500D01*
X160094635Y-122475500D01*
X160094636Y-122475500D01*
X160304592Y-122442246D01*
X160506761Y-122376557D01*
X160696165Y-122280051D01*
X160718138Y-122264086D01*
X160868135Y-122155109D01*
X160868137Y-122155106D01*
X160868141Y-122155104D01*
X161018453Y-122004792D01*
X161138032Y-121840204D01*
X161193360Y-121797540D01*
X161262973Y-121791561D01*
X161324769Y-121824166D01*
X161338662Y-121840199D01*
X161458241Y-122004786D01*
X161458245Y-122004792D01*
X161608562Y-122155109D01*
X161780528Y-122280048D01*
X161780530Y-122280049D01*
X161780533Y-122280051D01*
X161969937Y-122376557D01*
X162172106Y-122442246D01*
X162382062Y-122475500D01*
X162382063Y-122475500D01*
X162594635Y-122475500D01*
X162594636Y-122475500D01*
X162804592Y-122442246D01*
X163006761Y-122376557D01*
X163196165Y-122280051D01*
X163218138Y-122264086D01*
X163368135Y-122155109D01*
X163368137Y-122155106D01*
X163368141Y-122155104D01*
X163518453Y-122004792D01*
X163518455Y-122004788D01*
X163518458Y-122004786D01*
X163643397Y-121832820D01*
X163643396Y-121832820D01*
X163643400Y-121832816D01*
X163739906Y-121643412D01*
X163805595Y-121441243D01*
X163838849Y-121231287D01*
X163838849Y-120768713D01*
X166249500Y-120768713D01*
X166249500Y-121231287D01*
X166256641Y-121276376D01*
X166267859Y-121347204D01*
X166282754Y-121441243D01*
X166285596Y-121449991D01*
X166348444Y-121643414D01*
X166444951Y-121832820D01*
X166569890Y-122004786D01*
X166720213Y-122155109D01*
X166892179Y-122280048D01*
X166892181Y-122280049D01*
X166892184Y-122280051D01*
X167081588Y-122376557D01*
X167283757Y-122442246D01*
X167493713Y-122475500D01*
X167493714Y-122475500D01*
X167706286Y-122475500D01*
X167706287Y-122475500D01*
X167916243Y-122442246D01*
X168118412Y-122376557D01*
X168307816Y-122280051D01*
X168329789Y-122264086D01*
X168479786Y-122155109D01*
X168479788Y-122155106D01*
X168479792Y-122155104D01*
X168630104Y-122004792D01*
X168749683Y-121840204D01*
X168805011Y-121797540D01*
X168874624Y-121791561D01*
X168936420Y-121824166D01*
X168950313Y-121840199D01*
X169069892Y-122004786D01*
X169069896Y-122004792D01*
X169220213Y-122155109D01*
X169392179Y-122280048D01*
X169392181Y-122280049D01*
X169392184Y-122280051D01*
X169581588Y-122376557D01*
X169783757Y-122442246D01*
X169993713Y-122475500D01*
X169993714Y-122475500D01*
X170206286Y-122475500D01*
X170206287Y-122475500D01*
X170416243Y-122442246D01*
X170618412Y-122376557D01*
X170807816Y-122280051D01*
X170829789Y-122264086D01*
X170979786Y-122155109D01*
X170979788Y-122155106D01*
X170979792Y-122155104D01*
X171130104Y-122004792D01*
X171249683Y-121840204D01*
X171305011Y-121797540D01*
X171374624Y-121791561D01*
X171436420Y-121824166D01*
X171450313Y-121840199D01*
X171569892Y-122004786D01*
X171569896Y-122004792D01*
X171720213Y-122155109D01*
X171892179Y-122280048D01*
X171892181Y-122280049D01*
X171892184Y-122280051D01*
X172081588Y-122376557D01*
X172283757Y-122442246D01*
X172493713Y-122475500D01*
X172493714Y-122475500D01*
X172706286Y-122475500D01*
X172706287Y-122475500D01*
X172916243Y-122442246D01*
X173118412Y-122376557D01*
X173307816Y-122280051D01*
X173329789Y-122264086D01*
X173479786Y-122155109D01*
X173479788Y-122155106D01*
X173479792Y-122155104D01*
X173630104Y-122004792D01*
X173749683Y-121840204D01*
X173805011Y-121797540D01*
X173874624Y-121791561D01*
X173936420Y-121824166D01*
X173950313Y-121840199D01*
X174069892Y-122004786D01*
X174069896Y-122004792D01*
X174220213Y-122155109D01*
X174392179Y-122280048D01*
X174392181Y-122280049D01*
X174392184Y-122280051D01*
X174581588Y-122376557D01*
X174783757Y-122442246D01*
X174993713Y-122475500D01*
X174993714Y-122475500D01*
X175206286Y-122475500D01*
X175206287Y-122475500D01*
X175416243Y-122442246D01*
X175618412Y-122376557D01*
X175807816Y-122280051D01*
X175829789Y-122264086D01*
X175979786Y-122155109D01*
X175979788Y-122155106D01*
X175979792Y-122155104D01*
X176130104Y-122004792D01*
X176130106Y-122004788D01*
X176130109Y-122004786D01*
X176255048Y-121832820D01*
X176255047Y-121832820D01*
X176255051Y-121832816D01*
X176351557Y-121643412D01*
X176417246Y-121441243D01*
X176450500Y-121231287D01*
X176450500Y-120768713D01*
X176417246Y-120558757D01*
X176351557Y-120356588D01*
X176255051Y-120167184D01*
X176255049Y-120167181D01*
X176255048Y-120167179D01*
X176130109Y-119995213D01*
X175979786Y-119844890D01*
X175807820Y-119719951D01*
X175618414Y-119623444D01*
X175618413Y-119623443D01*
X175618412Y-119623443D01*
X175416243Y-119557754D01*
X175416241Y-119557753D01*
X175416240Y-119557753D01*
X175254957Y-119532208D01*
X175206287Y-119524500D01*
X174993713Y-119524500D01*
X174945042Y-119532208D01*
X174783760Y-119557753D01*
X174581585Y-119623444D01*
X174392179Y-119719951D01*
X174220213Y-119844890D01*
X174069894Y-119995209D01*
X174069890Y-119995214D01*
X173950318Y-120159793D01*
X173894989Y-120202459D01*
X173825375Y-120208438D01*
X173763580Y-120175833D01*
X173749682Y-120159793D01*
X173630109Y-119995214D01*
X173630105Y-119995209D01*
X173479786Y-119844890D01*
X173307820Y-119719951D01*
X173118414Y-119623444D01*
X173118413Y-119623443D01*
X173118412Y-119623443D01*
X172916243Y-119557754D01*
X172916241Y-119557753D01*
X172916240Y-119557753D01*
X172754957Y-119532208D01*
X172706287Y-119524500D01*
X172493713Y-119524500D01*
X172445042Y-119532208D01*
X172283760Y-119557753D01*
X172081585Y-119623444D01*
X171892179Y-119719951D01*
X171720213Y-119844890D01*
X171569894Y-119995209D01*
X171569890Y-119995214D01*
X171450318Y-120159793D01*
X171394989Y-120202459D01*
X171325375Y-120208438D01*
X171263580Y-120175833D01*
X171249682Y-120159793D01*
X171130109Y-119995214D01*
X171130105Y-119995209D01*
X170979786Y-119844890D01*
X170807820Y-119719951D01*
X170618414Y-119623444D01*
X170618413Y-119623443D01*
X170618412Y-119623443D01*
X170416243Y-119557754D01*
X170416241Y-119557753D01*
X170416240Y-119557753D01*
X170254957Y-119532208D01*
X170206287Y-119524500D01*
X169993713Y-119524500D01*
X169945042Y-119532208D01*
X169783760Y-119557753D01*
X169581585Y-119623444D01*
X169392179Y-119719951D01*
X169220213Y-119844890D01*
X169069894Y-119995209D01*
X169069890Y-119995214D01*
X168950318Y-120159793D01*
X168894989Y-120202459D01*
X168825375Y-120208438D01*
X168763580Y-120175833D01*
X168749682Y-120159793D01*
X168630109Y-119995214D01*
X168630105Y-119995209D01*
X168479786Y-119844890D01*
X168307820Y-119719951D01*
X168118414Y-119623444D01*
X168118413Y-119623443D01*
X168118412Y-119623443D01*
X167916243Y-119557754D01*
X167916241Y-119557753D01*
X167916240Y-119557753D01*
X167754957Y-119532208D01*
X167706287Y-119524500D01*
X167493713Y-119524500D01*
X167445042Y-119532208D01*
X167283760Y-119557753D01*
X167081585Y-119623444D01*
X166892179Y-119719951D01*
X166720213Y-119844890D01*
X166569890Y-119995213D01*
X166444951Y-120167179D01*
X166348444Y-120356585D01*
X166282753Y-120558760D01*
X166263563Y-120679924D01*
X166249500Y-120768713D01*
X163838849Y-120768713D01*
X163805595Y-120558757D01*
X163739906Y-120356588D01*
X163643400Y-120167184D01*
X163643398Y-120167181D01*
X163643397Y-120167179D01*
X163518458Y-119995213D01*
X163368135Y-119844890D01*
X163196169Y-119719951D01*
X163006763Y-119623444D01*
X163006762Y-119623443D01*
X163006761Y-119623443D01*
X162804592Y-119557754D01*
X162804590Y-119557753D01*
X162804589Y-119557753D01*
X162643306Y-119532208D01*
X162594636Y-119524500D01*
X162382062Y-119524500D01*
X162333391Y-119532208D01*
X162172109Y-119557753D01*
X161969934Y-119623444D01*
X161780528Y-119719951D01*
X161608562Y-119844890D01*
X161458243Y-119995209D01*
X161458239Y-119995214D01*
X161338667Y-120159793D01*
X161283338Y-120202459D01*
X161213724Y-120208438D01*
X161151929Y-120175833D01*
X161138031Y-120159793D01*
X161018458Y-119995214D01*
X161018454Y-119995209D01*
X160868135Y-119844890D01*
X160696169Y-119719951D01*
X160506763Y-119623444D01*
X160506762Y-119623443D01*
X160506761Y-119623443D01*
X160304592Y-119557754D01*
X160304590Y-119557753D01*
X160304589Y-119557753D01*
X160143306Y-119532208D01*
X160094636Y-119524500D01*
X159882062Y-119524500D01*
X159833391Y-119532208D01*
X159672109Y-119557753D01*
X159469934Y-119623444D01*
X159280528Y-119719951D01*
X159108562Y-119844890D01*
X158958243Y-119995209D01*
X158958239Y-119995214D01*
X158838667Y-120159793D01*
X158783338Y-120202459D01*
X158713724Y-120208438D01*
X158651929Y-120175833D01*
X158638031Y-120159793D01*
X158518458Y-119995214D01*
X158518454Y-119995209D01*
X158368135Y-119844890D01*
X158196169Y-119719951D01*
X158006763Y-119623444D01*
X158006762Y-119623443D01*
X158006761Y-119623443D01*
X157804592Y-119557754D01*
X157804590Y-119557753D01*
X157804589Y-119557753D01*
X157643306Y-119532208D01*
X157594636Y-119524500D01*
X157382062Y-119524500D01*
X157333391Y-119532208D01*
X157172109Y-119557753D01*
X156969934Y-119623444D01*
X156780528Y-119719951D01*
X156608562Y-119844890D01*
X156458243Y-119995209D01*
X156458239Y-119995214D01*
X156338667Y-120159793D01*
X156283338Y-120202459D01*
X156213724Y-120208438D01*
X156151929Y-120175833D01*
X156138031Y-120159793D01*
X156018458Y-119995214D01*
X156018454Y-119995209D01*
X155868135Y-119844890D01*
X155696169Y-119719951D01*
X155506763Y-119623444D01*
X155506762Y-119623443D01*
X155506761Y-119623443D01*
X155304592Y-119557754D01*
X155304590Y-119557753D01*
X155304589Y-119557753D01*
X155143306Y-119532208D01*
X155094636Y-119524500D01*
X154882062Y-119524500D01*
X154833391Y-119532208D01*
X154672109Y-119557753D01*
X154469934Y-119623444D01*
X154280528Y-119719951D01*
X154108562Y-119844890D01*
X153958239Y-119995213D01*
X153833300Y-120167179D01*
X153736793Y-120356585D01*
X153671102Y-120558760D01*
X153651912Y-120679924D01*
X153637849Y-120768713D01*
X146500105Y-120768713D01*
X146492154Y-120759873D01*
X146480931Y-120690910D01*
X146508775Y-120626828D01*
X146516272Y-120618623D01*
X146655104Y-120479792D01*
X146780051Y-120307816D01*
X146876557Y-120118412D01*
X146942246Y-119916243D01*
X146975500Y-119706287D01*
X146975500Y-119493713D01*
X146942246Y-119283757D01*
X146876557Y-119081588D01*
X146780051Y-118892184D01*
X146704756Y-118788549D01*
X192399500Y-118788549D01*
X192399500Y-119011450D01*
X192399501Y-119011466D01*
X192428594Y-119232452D01*
X192428595Y-119232457D01*
X192428596Y-119232463D01*
X192442341Y-119283760D01*
X192486290Y-119447780D01*
X192486293Y-119447790D01*
X192571593Y-119653722D01*
X192571595Y-119653726D01*
X192683052Y-119846774D01*
X192683057Y-119846780D01*
X192683058Y-119846782D01*
X192818751Y-120023622D01*
X192818757Y-120023629D01*
X192976370Y-120181242D01*
X192976376Y-120181247D01*
X193153226Y-120316948D01*
X193346274Y-120428405D01*
X193552219Y-120513710D01*
X193613857Y-120530225D01*
X193673516Y-120566590D01*
X193704045Y-120629437D01*
X193695750Y-120698813D01*
X193651265Y-120752691D01*
X193613858Y-120769773D01*
X193552219Y-120786290D01*
X193552217Y-120786290D01*
X193552216Y-120786291D01*
X193552209Y-120786293D01*
X193346277Y-120871593D01*
X193346273Y-120871595D01*
X193153226Y-120983052D01*
X193153217Y-120983058D01*
X192976377Y-121118751D01*
X192976370Y-121118757D01*
X192818757Y-121276370D01*
X192818751Y-121276377D01*
X192683058Y-121453217D01*
X192683052Y-121453226D01*
X192571595Y-121646273D01*
X192571593Y-121646277D01*
X192486293Y-121852209D01*
X192486290Y-121852219D01*
X192445409Y-122004792D01*
X192428597Y-122067534D01*
X192428594Y-122067547D01*
X192399501Y-122288533D01*
X192399500Y-122288549D01*
X192399500Y-122511450D01*
X192399501Y-122511466D01*
X192428594Y-122732452D01*
X192428595Y-122732457D01*
X192428596Y-122732463D01*
X192460840Y-122852799D01*
X192486290Y-122947780D01*
X192486293Y-122947790D01*
X192571593Y-123153722D01*
X192571595Y-123153726D01*
X192683052Y-123346774D01*
X192683057Y-123346780D01*
X192683058Y-123346782D01*
X192818751Y-123523622D01*
X192818757Y-123523629D01*
X192976370Y-123681242D01*
X192976376Y-123681247D01*
X193153226Y-123816948D01*
X193346274Y-123928405D01*
X193552219Y-124013710D01*
X193767537Y-124071404D01*
X193988543Y-124100500D01*
X193988550Y-124100500D01*
X194211450Y-124100500D01*
X194211457Y-124100500D01*
X194432463Y-124071404D01*
X194647781Y-124013710D01*
X194853726Y-123928405D01*
X195046774Y-123816948D01*
X195223624Y-123681247D01*
X195381247Y-123523624D01*
X195516948Y-123346774D01*
X195628405Y-123153726D01*
X195713710Y-122947781D01*
X195771404Y-122732463D01*
X195800500Y-122511457D01*
X195800500Y-122288543D01*
X195771404Y-122067537D01*
X195713710Y-121852219D01*
X195628405Y-121646274D01*
X195516948Y-121453226D01*
X195381247Y-121276376D01*
X195381242Y-121276370D01*
X195223629Y-121118757D01*
X195223622Y-121118751D01*
X195046782Y-120983058D01*
X195046780Y-120983057D01*
X195046774Y-120983052D01*
X194853726Y-120871595D01*
X194853722Y-120871593D01*
X194647790Y-120786293D01*
X194647783Y-120786291D01*
X194647781Y-120786290D01*
X194586142Y-120769774D01*
X194526483Y-120733410D01*
X194495954Y-120670563D01*
X194504249Y-120601188D01*
X194548734Y-120547310D01*
X194586141Y-120530226D01*
X194647781Y-120513710D01*
X194853726Y-120428405D01*
X195046774Y-120316948D01*
X195223624Y-120181247D01*
X195381247Y-120023624D01*
X195516948Y-119846774D01*
X195628405Y-119653726D01*
X195713710Y-119447781D01*
X195771404Y-119232463D01*
X195800500Y-119011457D01*
X195800500Y-118788543D01*
X195771404Y-118567537D01*
X195713710Y-118352219D01*
X195628405Y-118146274D01*
X195516948Y-117953226D01*
X195381247Y-117776376D01*
X195381242Y-117776370D01*
X195223629Y-117618757D01*
X195223622Y-117618751D01*
X195046782Y-117483058D01*
X195046780Y-117483057D01*
X195046774Y-117483052D01*
X194853726Y-117371595D01*
X194853722Y-117371593D01*
X194647790Y-117286293D01*
X194647783Y-117286291D01*
X194647781Y-117286290D01*
X194432463Y-117228596D01*
X194432457Y-117228595D01*
X194432452Y-117228594D01*
X194211466Y-117199501D01*
X194211463Y-117199500D01*
X194211457Y-117199500D01*
X193988543Y-117199500D01*
X193988537Y-117199500D01*
X193988533Y-117199501D01*
X193767547Y-117228594D01*
X193767540Y-117228595D01*
X193767537Y-117228596D01*
X193685790Y-117250500D01*
X193552219Y-117286290D01*
X193552209Y-117286293D01*
X193346277Y-117371593D01*
X193346273Y-117371595D01*
X193153226Y-117483052D01*
X193153217Y-117483058D01*
X192976377Y-117618751D01*
X192976370Y-117618757D01*
X192818757Y-117776370D01*
X192818751Y-117776377D01*
X192683058Y-117953217D01*
X192683052Y-117953226D01*
X192571595Y-118146273D01*
X192571593Y-118146277D01*
X192486293Y-118352209D01*
X192486290Y-118352219D01*
X192428597Y-118567534D01*
X192428594Y-118567547D01*
X192399501Y-118788533D01*
X192399500Y-118788549D01*
X146704756Y-118788549D01*
X146655104Y-118720208D01*
X146504792Y-118569896D01*
X146340204Y-118450316D01*
X146297540Y-118394989D01*
X146291561Y-118325376D01*
X146324166Y-118263580D01*
X146340199Y-118249686D01*
X146504792Y-118130104D01*
X146655104Y-117979792D01*
X146655106Y-117979788D01*
X146655109Y-117979786D01*
X146780048Y-117807820D01*
X146780047Y-117807820D01*
X146780051Y-117807816D01*
X146876557Y-117618412D01*
X146942246Y-117416243D01*
X146975500Y-117206287D01*
X146975500Y-116993713D01*
X146942246Y-116783757D01*
X146876557Y-116581588D01*
X146780051Y-116392184D01*
X146780049Y-116392181D01*
X146780048Y-116392179D01*
X146655109Y-116220213D01*
X146504792Y-116069896D01*
X146504784Y-116069890D01*
X146340204Y-115950316D01*
X146297540Y-115894989D01*
X146291561Y-115825376D01*
X146324166Y-115763580D01*
X146340199Y-115749686D01*
X146504792Y-115630104D01*
X146655104Y-115479792D01*
X146655106Y-115479788D01*
X146655109Y-115479786D01*
X146780048Y-115307820D01*
X146780047Y-115307820D01*
X146780051Y-115307816D01*
X146876557Y-115118412D01*
X146942246Y-114916243D01*
X146965613Y-114768713D01*
X153637849Y-114768713D01*
X153637849Y-115231286D01*
X153661654Y-115381588D01*
X153671103Y-115441243D01*
X153732468Y-115630105D01*
X153736793Y-115643414D01*
X153833300Y-115832820D01*
X153958239Y-116004786D01*
X154108562Y-116155109D01*
X154280528Y-116280048D01*
X154280530Y-116280049D01*
X154280533Y-116280051D01*
X154469937Y-116376557D01*
X154672106Y-116442246D01*
X154882062Y-116475500D01*
X154882063Y-116475500D01*
X155094635Y-116475500D01*
X155094636Y-116475500D01*
X155304592Y-116442246D01*
X155506761Y-116376557D01*
X155696165Y-116280051D01*
X155778526Y-116220213D01*
X155868135Y-116155109D01*
X155868137Y-116155106D01*
X155868141Y-116155104D01*
X156018453Y-116004792D01*
X156138032Y-115840204D01*
X156193360Y-115797540D01*
X156262973Y-115791561D01*
X156324769Y-115824166D01*
X156338662Y-115840199D01*
X156458241Y-116004786D01*
X156458245Y-116004792D01*
X156608562Y-116155109D01*
X156780528Y-116280048D01*
X156780530Y-116280049D01*
X156780533Y-116280051D01*
X156969937Y-116376557D01*
X157172106Y-116442246D01*
X157382062Y-116475500D01*
X157382063Y-116475500D01*
X157594635Y-116475500D01*
X157594636Y-116475500D01*
X157804592Y-116442246D01*
X158006761Y-116376557D01*
X158196165Y-116280051D01*
X158278526Y-116220213D01*
X158368135Y-116155109D01*
X158368137Y-116155106D01*
X158368141Y-116155104D01*
X158518453Y-116004792D01*
X158638032Y-115840204D01*
X158693360Y-115797540D01*
X158762973Y-115791561D01*
X158824769Y-115824166D01*
X158838662Y-115840199D01*
X158958241Y-116004786D01*
X158958245Y-116004792D01*
X159108562Y-116155109D01*
X159280528Y-116280048D01*
X159280530Y-116280049D01*
X159280533Y-116280051D01*
X159469937Y-116376557D01*
X159672106Y-116442246D01*
X159882062Y-116475500D01*
X159882063Y-116475500D01*
X160094635Y-116475500D01*
X160094636Y-116475500D01*
X160304592Y-116442246D01*
X160506761Y-116376557D01*
X160696165Y-116280051D01*
X160778526Y-116220213D01*
X160868135Y-116155109D01*
X160868137Y-116155106D01*
X160868141Y-116155104D01*
X161018453Y-116004792D01*
X161138032Y-115840204D01*
X161193360Y-115797540D01*
X161262973Y-115791561D01*
X161324769Y-115824166D01*
X161338662Y-115840199D01*
X161458241Y-116004786D01*
X161458245Y-116004792D01*
X161608562Y-116155109D01*
X161780528Y-116280048D01*
X161780530Y-116280049D01*
X161780533Y-116280051D01*
X161969937Y-116376557D01*
X162172106Y-116442246D01*
X162382062Y-116475500D01*
X162382063Y-116475500D01*
X162594635Y-116475500D01*
X162594636Y-116475500D01*
X162804592Y-116442246D01*
X163006761Y-116376557D01*
X163196165Y-116280051D01*
X163278526Y-116220213D01*
X163368135Y-116155109D01*
X163368137Y-116155106D01*
X163368141Y-116155104D01*
X163518453Y-116004792D01*
X163518455Y-116004788D01*
X163518458Y-116004786D01*
X163643397Y-115832820D01*
X163643396Y-115832820D01*
X163643400Y-115832816D01*
X163739906Y-115643412D01*
X163805595Y-115441243D01*
X163838849Y-115231287D01*
X163838849Y-114768713D01*
X163805595Y-114558757D01*
X163739906Y-114356588D01*
X163643400Y-114167184D01*
X163643398Y-114167181D01*
X163643397Y-114167179D01*
X163518458Y-113995213D01*
X163368135Y-113844890D01*
X163196167Y-113719950D01*
X163006763Y-113623444D01*
X163006762Y-113623443D01*
X163006761Y-113623443D01*
X162804592Y-113557754D01*
X162804590Y-113557753D01*
X162804589Y-113557753D01*
X162630018Y-113530104D01*
X162594636Y-113524500D01*
X162382062Y-113524500D01*
X162346680Y-113530104D01*
X162172109Y-113557753D01*
X161969934Y-113623444D01*
X161780531Y-113719950D01*
X161608562Y-113844890D01*
X161458243Y-113995209D01*
X161458239Y-113995214D01*
X161338667Y-114159793D01*
X161283338Y-114202459D01*
X161213724Y-114208438D01*
X161151929Y-114175833D01*
X161138031Y-114159793D01*
X161018458Y-113995214D01*
X161018454Y-113995209D01*
X160868135Y-113844890D01*
X160696167Y-113719950D01*
X160506763Y-113623444D01*
X160506762Y-113623443D01*
X160506761Y-113623443D01*
X160304592Y-113557754D01*
X160304590Y-113557753D01*
X160304589Y-113557753D01*
X160130018Y-113530104D01*
X160094636Y-113524500D01*
X159882062Y-113524500D01*
X159846680Y-113530104D01*
X159672109Y-113557753D01*
X159469934Y-113623444D01*
X159280531Y-113719950D01*
X159108562Y-113844890D01*
X158958243Y-113995209D01*
X158958239Y-113995214D01*
X158838667Y-114159793D01*
X158783338Y-114202459D01*
X158713724Y-114208438D01*
X158651929Y-114175833D01*
X158638031Y-114159793D01*
X158518458Y-113995214D01*
X158518454Y-113995209D01*
X158368135Y-113844890D01*
X158196167Y-113719950D01*
X158006763Y-113623444D01*
X158006762Y-113623443D01*
X158006761Y-113623443D01*
X157804592Y-113557754D01*
X157804590Y-113557753D01*
X157804589Y-113557753D01*
X157630018Y-113530104D01*
X157594636Y-113524500D01*
X157382062Y-113524500D01*
X157346680Y-113530104D01*
X157172109Y-113557753D01*
X156969934Y-113623444D01*
X156780531Y-113719950D01*
X156608562Y-113844890D01*
X156458243Y-113995209D01*
X156458239Y-113995214D01*
X156338667Y-114159793D01*
X156283338Y-114202459D01*
X156213724Y-114208438D01*
X156151929Y-114175833D01*
X156138031Y-114159793D01*
X156018458Y-113995214D01*
X156018454Y-113995209D01*
X155868135Y-113844890D01*
X155696167Y-113719950D01*
X155506763Y-113623444D01*
X155506762Y-113623443D01*
X155506761Y-113623443D01*
X155304592Y-113557754D01*
X155304590Y-113557753D01*
X155304589Y-113557753D01*
X155130018Y-113530104D01*
X155094636Y-113524500D01*
X154882062Y-113524500D01*
X154846680Y-113530104D01*
X154672109Y-113557753D01*
X154469934Y-113623444D01*
X154280531Y-113719950D01*
X154108562Y-113844890D01*
X153958239Y-113995213D01*
X153833300Y-114167179D01*
X153736793Y-114356585D01*
X153671102Y-114558760D01*
X153637849Y-114768713D01*
X146965613Y-114768713D01*
X146968526Y-114750318D01*
X146969439Y-114744555D01*
X146969456Y-114744444D01*
X146970727Y-114736420D01*
X146975500Y-114706287D01*
X146975500Y-114493713D01*
X146942246Y-114283757D01*
X146876557Y-114081588D01*
X146780051Y-113892184D01*
X146780049Y-113892181D01*
X146780048Y-113892179D01*
X146655109Y-113720213D01*
X146504786Y-113569890D01*
X146332820Y-113444951D01*
X146143414Y-113348444D01*
X146143413Y-113348443D01*
X146143412Y-113348443D01*
X145941243Y-113282754D01*
X145941241Y-113282753D01*
X145941240Y-113282753D01*
X145779957Y-113257208D01*
X145731287Y-113249500D01*
X145268713Y-113249500D01*
X145220042Y-113257208D01*
X145058760Y-113282753D01*
X144856585Y-113348444D01*
X144667179Y-113444951D01*
X144495213Y-113569890D01*
X144344890Y-113720213D01*
X144219951Y-113892179D01*
X144123444Y-114081585D01*
X144057753Y-114283760D01*
X144024500Y-114493713D01*
X143300500Y-114493713D01*
X143300500Y-101893713D01*
X144024500Y-101893713D01*
X144024500Y-102106286D01*
X144057753Y-102316239D01*
X144057753Y-102316241D01*
X144057754Y-102316243D01*
X144119503Y-102506287D01*
X144123444Y-102518414D01*
X144219951Y-102707820D01*
X144344890Y-102879786D01*
X144495209Y-103030105D01*
X144495214Y-103030109D01*
X144659793Y-103149682D01*
X144702459Y-103205011D01*
X144708438Y-103274625D01*
X144675833Y-103336420D01*
X144659793Y-103350318D01*
X144495214Y-103469890D01*
X144495209Y-103469894D01*
X144344890Y-103620213D01*
X144219951Y-103792179D01*
X144123444Y-103981585D01*
X144123443Y-103981587D01*
X144123443Y-103981588D01*
X144120513Y-103990605D01*
X144057753Y-104183760D01*
X144042693Y-104278846D01*
X144024500Y-104393713D01*
X144024500Y-104606287D01*
X144028750Y-104633119D01*
X144054185Y-104793713D01*
X144057754Y-104816243D01*
X144119503Y-105006287D01*
X144123444Y-105018414D01*
X144219951Y-105207820D01*
X144344890Y-105379786D01*
X144495209Y-105530105D01*
X144495214Y-105530109D01*
X144659793Y-105649682D01*
X144702459Y-105705011D01*
X144708438Y-105774625D01*
X144675833Y-105836420D01*
X144659793Y-105850318D01*
X144495214Y-105969890D01*
X144495209Y-105969894D01*
X144344890Y-106120213D01*
X144219951Y-106292179D01*
X144123444Y-106481585D01*
X144057753Y-106683760D01*
X144024500Y-106893713D01*
X144024500Y-107106286D01*
X144044019Y-107229528D01*
X144057754Y-107316243D01*
X144120244Y-107508568D01*
X144123444Y-107518414D01*
X144219951Y-107707820D01*
X144344890Y-107879786D01*
X144495209Y-108030105D01*
X144495214Y-108030109D01*
X144659793Y-108149682D01*
X144702459Y-108205011D01*
X144708438Y-108274625D01*
X144675833Y-108336420D01*
X144659793Y-108350318D01*
X144495214Y-108469890D01*
X144495209Y-108469894D01*
X144344890Y-108620213D01*
X144219951Y-108792179D01*
X144123444Y-108981585D01*
X144057753Y-109183760D01*
X144024500Y-109393713D01*
X144024500Y-109606287D01*
X144057754Y-109816243D01*
X144114869Y-109992025D01*
X144123444Y-110018414D01*
X144219951Y-110207820D01*
X144344890Y-110379786D01*
X144495213Y-110530109D01*
X144667179Y-110655048D01*
X144667181Y-110655049D01*
X144667184Y-110655051D01*
X144856588Y-110751557D01*
X145058757Y-110817246D01*
X145268713Y-110850500D01*
X145268714Y-110850500D01*
X145731286Y-110850500D01*
X145731287Y-110850500D01*
X145941243Y-110817246D01*
X146143412Y-110751557D01*
X146332816Y-110655051D01*
X146354789Y-110639086D01*
X146504786Y-110530109D01*
X146504788Y-110530106D01*
X146504792Y-110530104D01*
X146655104Y-110379792D01*
X146655106Y-110379788D01*
X146655109Y-110379786D01*
X146780048Y-110207820D01*
X146780047Y-110207820D01*
X146780051Y-110207816D01*
X146876557Y-110018412D01*
X146942246Y-109816243D01*
X146975500Y-109606287D01*
X146975500Y-109393713D01*
X146942246Y-109183757D01*
X146876557Y-108981588D01*
X146780051Y-108792184D01*
X146767574Y-108775010D01*
X146685269Y-108661726D01*
X146685268Y-108661725D01*
X146655107Y-108620211D01*
X146628609Y-108593713D01*
X159899500Y-108593713D01*
X159899500Y-108806286D01*
X159927264Y-108981585D01*
X159932754Y-109016243D01*
X159998443Y-109218412D01*
X160094949Y-109407816D01*
X160219896Y-109579791D01*
X160219898Y-109579793D01*
X164016770Y-113376665D01*
X164016784Y-113376680D01*
X164019895Y-113379791D01*
X164019896Y-113379792D01*
X164170208Y-113530104D01*
X164170211Y-113530106D01*
X164170215Y-113530110D01*
X164342179Y-113655048D01*
X164342181Y-113655049D01*
X164342184Y-113655051D01*
X164531588Y-113751557D01*
X164666547Y-113795408D01*
X164733757Y-113817246D01*
X164943714Y-113850501D01*
X164943715Y-113850501D01*
X165161398Y-113850501D01*
X165161422Y-113850500D01*
X166431669Y-113850500D01*
X166498708Y-113870185D01*
X166544463Y-113922989D01*
X166554407Y-113992147D01*
X166531987Y-114047385D01*
X166444951Y-114167180D01*
X166348444Y-114356585D01*
X166282753Y-114558760D01*
X166249500Y-114768713D01*
X166249500Y-115231286D01*
X166273305Y-115381588D01*
X166282754Y-115441243D01*
X166344119Y-115630105D01*
X166348444Y-115643414D01*
X166444951Y-115832820D01*
X166569890Y-116004786D01*
X166720213Y-116155109D01*
X166892179Y-116280048D01*
X166892181Y-116280049D01*
X166892184Y-116280051D01*
X167081588Y-116376557D01*
X167283757Y-116442246D01*
X167493713Y-116475500D01*
X167493714Y-116475500D01*
X167706286Y-116475500D01*
X167706287Y-116475500D01*
X167916243Y-116442246D01*
X168118412Y-116376557D01*
X168307816Y-116280051D01*
X168390177Y-116220213D01*
X168479786Y-116155109D01*
X168479788Y-116155106D01*
X168479792Y-116155104D01*
X168630104Y-116004792D01*
X168749683Y-115840204D01*
X168805011Y-115797540D01*
X168874624Y-115791561D01*
X168936420Y-115824166D01*
X168950313Y-115840199D01*
X169069892Y-116004786D01*
X169069896Y-116004792D01*
X169220213Y-116155109D01*
X169392179Y-116280048D01*
X169392181Y-116280049D01*
X169392184Y-116280051D01*
X169581588Y-116376557D01*
X169783757Y-116442246D01*
X169993713Y-116475500D01*
X169993714Y-116475500D01*
X170206286Y-116475500D01*
X170206287Y-116475500D01*
X170416243Y-116442246D01*
X170618412Y-116376557D01*
X170807816Y-116280051D01*
X170890177Y-116220213D01*
X170979786Y-116155109D01*
X170979788Y-116155106D01*
X170979792Y-116155104D01*
X171130104Y-116004792D01*
X171249683Y-115840204D01*
X171305011Y-115797540D01*
X171374624Y-115791561D01*
X171436420Y-115824166D01*
X171450313Y-115840199D01*
X171569892Y-116004786D01*
X171569896Y-116004792D01*
X171720213Y-116155109D01*
X171892179Y-116280048D01*
X171892181Y-116280049D01*
X171892184Y-116280051D01*
X172081588Y-116376557D01*
X172283757Y-116442246D01*
X172493713Y-116475500D01*
X172493714Y-116475500D01*
X172706286Y-116475500D01*
X172706287Y-116475500D01*
X172916243Y-116442246D01*
X173118412Y-116376557D01*
X173307816Y-116280051D01*
X173390177Y-116220213D01*
X173479786Y-116155109D01*
X173479788Y-116155106D01*
X173479792Y-116155104D01*
X173630104Y-116004792D01*
X173749683Y-115840204D01*
X173805011Y-115797540D01*
X173874624Y-115791561D01*
X173936420Y-115824166D01*
X173950313Y-115840199D01*
X174069892Y-116004786D01*
X174069896Y-116004792D01*
X174220213Y-116155109D01*
X174392179Y-116280048D01*
X174392181Y-116280049D01*
X174392184Y-116280051D01*
X174581588Y-116376557D01*
X174783757Y-116442246D01*
X174993713Y-116475500D01*
X174993714Y-116475500D01*
X175206286Y-116475500D01*
X175206287Y-116475500D01*
X175416243Y-116442246D01*
X175618412Y-116376557D01*
X175807816Y-116280051D01*
X175890177Y-116220213D01*
X175979786Y-116155109D01*
X175979788Y-116155106D01*
X175979792Y-116155104D01*
X176130104Y-116004792D01*
X176130106Y-116004788D01*
X176130109Y-116004786D01*
X176255048Y-115832820D01*
X176255047Y-115832820D01*
X176255051Y-115832816D01*
X176351557Y-115643412D01*
X176417246Y-115441243D01*
X176450500Y-115231287D01*
X176450500Y-114768713D01*
X176417246Y-114558757D01*
X176351557Y-114356588D01*
X176255051Y-114167184D01*
X176255049Y-114167181D01*
X176255048Y-114167179D01*
X176130109Y-113995213D01*
X175979786Y-113844890D01*
X175807818Y-113719950D01*
X175618414Y-113623444D01*
X175618413Y-113623443D01*
X175618412Y-113623443D01*
X175416243Y-113557754D01*
X175416241Y-113557753D01*
X175416240Y-113557753D01*
X175241669Y-113530104D01*
X175206287Y-113524500D01*
X174993713Y-113524500D01*
X174958331Y-113530104D01*
X174783760Y-113557753D01*
X174581585Y-113623444D01*
X174392182Y-113719950D01*
X174220215Y-113844889D01*
X174137520Y-113927584D01*
X174131135Y-113931070D01*
X174126945Y-113937013D01*
X174100883Y-113947588D01*
X174076196Y-113961068D01*
X174068942Y-113960549D01*
X174062203Y-113963284D01*
X174034561Y-113958090D01*
X174006505Y-113956084D01*
X174000682Y-113951725D01*
X173993534Y-113950382D01*
X173973088Y-113931068D01*
X173950571Y-113914212D01*
X173946782Y-113906218D01*
X173942743Y-113902403D01*
X173935955Y-113883378D01*
X173929472Y-113869699D01*
X173928197Y-113864550D01*
X173917246Y-113795408D01*
X173892728Y-113719949D01*
X173851557Y-113593239D01*
X173851555Y-113593236D01*
X173851555Y-113593234D01*
X173807252Y-113506286D01*
X173755051Y-113403835D01*
X173735311Y-113376665D01*
X173724458Y-113361726D01*
X173675044Y-113293713D01*
X179474500Y-113293713D01*
X179474500Y-113506287D01*
X179482652Y-113557754D01*
X179498061Y-113655048D01*
X179507754Y-113716243D01*
X179572078Y-113914212D01*
X179573444Y-113918414D01*
X179669951Y-114107820D01*
X179794890Y-114279786D01*
X179945209Y-114430105D01*
X179945214Y-114430109D01*
X180109793Y-114549682D01*
X180152459Y-114605011D01*
X180158438Y-114674625D01*
X180125833Y-114736420D01*
X180109793Y-114750318D01*
X179945214Y-114869890D01*
X179945209Y-114869894D01*
X179794890Y-115020213D01*
X179669951Y-115192179D01*
X179573444Y-115381585D01*
X179507753Y-115583760D01*
X179479273Y-115763580D01*
X179474500Y-115793713D01*
X179474500Y-116006287D01*
X179507754Y-116216243D01*
X179564919Y-116392179D01*
X179573444Y-116418414D01*
X179669951Y-116607820D01*
X179794890Y-116779786D01*
X179945213Y-116930109D01*
X180117179Y-117055048D01*
X180117181Y-117055049D01*
X180117184Y-117055051D01*
X180306588Y-117151557D01*
X180508757Y-117217246D01*
X180718713Y-117250500D01*
X180718714Y-117250500D01*
X181231286Y-117250500D01*
X181231287Y-117250500D01*
X181441243Y-117217246D01*
X181643412Y-117151557D01*
X181832816Y-117055051D01*
X181917241Y-116993713D01*
X182004786Y-116930109D01*
X182004788Y-116930106D01*
X182004792Y-116930104D01*
X182155104Y-116779792D01*
X182155106Y-116779788D01*
X182155109Y-116779786D01*
X182280048Y-116607820D01*
X182280047Y-116607820D01*
X182280051Y-116607816D01*
X182376557Y-116418412D01*
X182442246Y-116216243D01*
X182475500Y-116006287D01*
X182475500Y-115793713D01*
X182442246Y-115583757D01*
X182376557Y-115381588D01*
X182280051Y-115192184D01*
X182280049Y-115192181D01*
X182280048Y-115192179D01*
X182155109Y-115020213D01*
X182004792Y-114869896D01*
X182004784Y-114869890D01*
X181840204Y-114750316D01*
X181797540Y-114694989D01*
X181791561Y-114625376D01*
X181824166Y-114563580D01*
X181840199Y-114549686D01*
X182004792Y-114430104D01*
X182155104Y-114279792D01*
X182155106Y-114279788D01*
X182155109Y-114279786D01*
X182280048Y-114107820D01*
X182280047Y-114107820D01*
X182280051Y-114107816D01*
X182376557Y-113918412D01*
X182442246Y-113716243D01*
X182475500Y-113506287D01*
X182475500Y-113293713D01*
X185399500Y-113293713D01*
X185399500Y-113506287D01*
X185407652Y-113557754D01*
X185423061Y-113655048D01*
X185432754Y-113716243D01*
X185497078Y-113914212D01*
X185498444Y-113918414D01*
X185594951Y-114107820D01*
X185719890Y-114279786D01*
X185870209Y-114430105D01*
X185870214Y-114430109D01*
X186034793Y-114549682D01*
X186077459Y-114605011D01*
X186083438Y-114674625D01*
X186050833Y-114736420D01*
X186034793Y-114750318D01*
X185870214Y-114869890D01*
X185870209Y-114869894D01*
X185719890Y-115020213D01*
X185594951Y-115192179D01*
X185498444Y-115381585D01*
X185432753Y-115583760D01*
X185404273Y-115763580D01*
X185399500Y-115793713D01*
X185399500Y-116006287D01*
X185432754Y-116216243D01*
X185489919Y-116392179D01*
X185498444Y-116418414D01*
X185594951Y-116607820D01*
X185719890Y-116779786D01*
X185870213Y-116930109D01*
X186042179Y-117055048D01*
X186042181Y-117055049D01*
X186042184Y-117055051D01*
X186231588Y-117151557D01*
X186433757Y-117217246D01*
X186643713Y-117250500D01*
X186643714Y-117250500D01*
X187156286Y-117250500D01*
X187156287Y-117250500D01*
X187366243Y-117217246D01*
X187568412Y-117151557D01*
X187757816Y-117055051D01*
X187842241Y-116993713D01*
X187929786Y-116930109D01*
X187929788Y-116930106D01*
X187929792Y-116930104D01*
X188080104Y-116779792D01*
X188080106Y-116779788D01*
X188080109Y-116779786D01*
X188205048Y-116607820D01*
X188205047Y-116607820D01*
X188205051Y-116607816D01*
X188301557Y-116418412D01*
X188367246Y-116216243D01*
X188400500Y-116006287D01*
X188400500Y-115793713D01*
X188367246Y-115583757D01*
X188301557Y-115381588D01*
X188205051Y-115192184D01*
X188205049Y-115192181D01*
X188205048Y-115192179D01*
X188080109Y-115020213D01*
X187929792Y-114869896D01*
X187929784Y-114869890D01*
X187765204Y-114750316D01*
X187722540Y-114694989D01*
X187716561Y-114625376D01*
X187749166Y-114563580D01*
X187765199Y-114549686D01*
X187929792Y-114430104D01*
X188080104Y-114279792D01*
X188080106Y-114279788D01*
X188080109Y-114279786D01*
X188205048Y-114107820D01*
X188205047Y-114107820D01*
X188205051Y-114107816D01*
X188301557Y-113918412D01*
X188367246Y-113716243D01*
X188400500Y-113506287D01*
X188400500Y-113293713D01*
X188367246Y-113083757D01*
X188301557Y-112881588D01*
X188205051Y-112692184D01*
X188205049Y-112692181D01*
X188205048Y-112692179D01*
X188080109Y-112520213D01*
X187929786Y-112369890D01*
X187757820Y-112244951D01*
X187568414Y-112148444D01*
X187568413Y-112148443D01*
X187568412Y-112148443D01*
X187366243Y-112082754D01*
X187366241Y-112082753D01*
X187366240Y-112082753D01*
X187204957Y-112057208D01*
X187156287Y-112049500D01*
X186643713Y-112049500D01*
X186595042Y-112057208D01*
X186433760Y-112082753D01*
X186231585Y-112148444D01*
X186042179Y-112244951D01*
X185870213Y-112369890D01*
X185719890Y-112520213D01*
X185594951Y-112692179D01*
X185498444Y-112881585D01*
X185432753Y-113083760D01*
X185409297Y-113231859D01*
X185399500Y-113293713D01*
X182475500Y-113293713D01*
X182442246Y-113083757D01*
X182376557Y-112881588D01*
X182280051Y-112692184D01*
X182280049Y-112692181D01*
X182280048Y-112692179D01*
X182155109Y-112520213D01*
X182004786Y-112369890D01*
X181832820Y-112244951D01*
X181643414Y-112148444D01*
X181643413Y-112148443D01*
X181643412Y-112148443D01*
X181441243Y-112082754D01*
X181441241Y-112082753D01*
X181441240Y-112082753D01*
X181279957Y-112057208D01*
X181231287Y-112049500D01*
X180718713Y-112049500D01*
X180670042Y-112057208D01*
X180508760Y-112082753D01*
X180306585Y-112148444D01*
X180117179Y-112244951D01*
X179945213Y-112369890D01*
X179794890Y-112520213D01*
X179669951Y-112692179D01*
X179573444Y-112881585D01*
X179507753Y-113083760D01*
X179484297Y-113231859D01*
X179474500Y-113293713D01*
X173675044Y-113293713D01*
X173630110Y-113231866D01*
X173630106Y-113231862D01*
X173630104Y-113231859D01*
X173479792Y-113081547D01*
X173479791Y-113081546D01*
X173476680Y-113078435D01*
X173476665Y-113078421D01*
X171091957Y-110693713D01*
X194099500Y-110693713D01*
X194099500Y-110906287D01*
X194132754Y-111116243D01*
X194143457Y-111149184D01*
X194198444Y-111318414D01*
X194294951Y-111507820D01*
X194419890Y-111679786D01*
X194570209Y-111830105D01*
X194570214Y-111830109D01*
X194734793Y-111949682D01*
X194777459Y-112005011D01*
X194783438Y-112074625D01*
X194750833Y-112136420D01*
X194734793Y-112150318D01*
X194570214Y-112269890D01*
X194570209Y-112269894D01*
X194419890Y-112420213D01*
X194294951Y-112592179D01*
X194198444Y-112781585D01*
X194132753Y-112983760D01*
X194099500Y-113193713D01*
X194099500Y-113406286D01*
X194129109Y-113593234D01*
X194132754Y-113616243D01*
X194176720Y-113751557D01*
X194198444Y-113818414D01*
X194294951Y-114007820D01*
X194419890Y-114179786D01*
X194570213Y-114330109D01*
X194742179Y-114455048D01*
X194742181Y-114455049D01*
X194742184Y-114455051D01*
X194931588Y-114551557D01*
X195133757Y-114617246D01*
X195343713Y-114650500D01*
X195343714Y-114650500D01*
X195856286Y-114650500D01*
X195856287Y-114650500D01*
X196066243Y-114617246D01*
X196268412Y-114551557D01*
X196457816Y-114455051D01*
X196492146Y-114430109D01*
X196629786Y-114330109D01*
X196629788Y-114330106D01*
X196629792Y-114330104D01*
X196780104Y-114179792D01*
X196780106Y-114179788D01*
X196780109Y-114179786D01*
X196905048Y-114007820D01*
X196905047Y-114007820D01*
X196905051Y-114007816D01*
X197001557Y-113818412D01*
X197067246Y-113616243D01*
X197100500Y-113406287D01*
X197100500Y-113193713D01*
X197067246Y-112983757D01*
X197001557Y-112781588D01*
X196905051Y-112592184D01*
X196905049Y-112592181D01*
X196905048Y-112592179D01*
X196780109Y-112420213D01*
X196629792Y-112269896D01*
X196595455Y-112244949D01*
X196465204Y-112150316D01*
X196422540Y-112094989D01*
X196416561Y-112025376D01*
X196449166Y-111963580D01*
X196465199Y-111949686D01*
X196629792Y-111830104D01*
X196780104Y-111679792D01*
X196780106Y-111679788D01*
X196780109Y-111679786D01*
X196905048Y-111507820D01*
X196905047Y-111507820D01*
X196905051Y-111507816D01*
X197001557Y-111318412D01*
X197067246Y-111116243D01*
X197100500Y-110906287D01*
X197100500Y-110693713D01*
X197067246Y-110483757D01*
X197001557Y-110281588D01*
X196905051Y-110092184D01*
X196905049Y-110092181D01*
X196905048Y-110092179D01*
X196780109Y-109920213D01*
X196629786Y-109769890D01*
X196457820Y-109644951D01*
X196268414Y-109548444D01*
X196268413Y-109548443D01*
X196268412Y-109548443D01*
X196066243Y-109482754D01*
X196066241Y-109482753D01*
X196066240Y-109482753D01*
X195904957Y-109457208D01*
X195856287Y-109449500D01*
X195343713Y-109449500D01*
X195295042Y-109457208D01*
X195133760Y-109482753D01*
X194931585Y-109548444D01*
X194742179Y-109644951D01*
X194570213Y-109769890D01*
X194419890Y-109920213D01*
X194294951Y-110092179D01*
X194198444Y-110281585D01*
X194132753Y-110483760D01*
X194099500Y-110693713D01*
X171091957Y-110693713D01*
X170551063Y-110152819D01*
X170517578Y-110091496D01*
X170522562Y-110021804D01*
X170564434Y-109965871D01*
X170600421Y-109947209D01*
X170718374Y-109908884D01*
X170893754Y-109819524D01*
X171052995Y-109703828D01*
X171192177Y-109564646D01*
X171307873Y-109405405D01*
X171397233Y-109230025D01*
X171458058Y-109042826D01*
X171487603Y-108856286D01*
X171488849Y-108848422D01*
X171488849Y-108651577D01*
X171458058Y-108457173D01*
X171429836Y-108370317D01*
X171397233Y-108269975D01*
X171397231Y-108269972D01*
X171397231Y-108269970D01*
X171335941Y-108149682D01*
X171307873Y-108094595D01*
X171192177Y-107935354D01*
X171052995Y-107796172D01*
X170893754Y-107680476D01*
X170718378Y-107591117D01*
X170531175Y-107530290D01*
X170336771Y-107499500D01*
X170336766Y-107499500D01*
X170139932Y-107499500D01*
X170139927Y-107499500D01*
X169945522Y-107530290D01*
X169758319Y-107591117D01*
X169582943Y-107680476D01*
X169492090Y-107746485D01*
X169423703Y-107796172D01*
X169423701Y-107796174D01*
X169423700Y-107796174D01*
X169284523Y-107935351D01*
X169284523Y-107935352D01*
X169284521Y-107935354D01*
X169243232Y-107992183D01*
X169168825Y-108094594D01*
X169079466Y-108269970D01*
X169041141Y-108387923D01*
X169001703Y-108445598D01*
X168937344Y-108472796D01*
X168868498Y-108460881D01*
X168835529Y-108437285D01*
X168118142Y-107719898D01*
X168118140Y-107719896D01*
X167946165Y-107594949D01*
X167774956Y-107507714D01*
X167756763Y-107498444D01*
X167756762Y-107498443D01*
X167756761Y-107498443D01*
X167554592Y-107432754D01*
X167554590Y-107432753D01*
X167554589Y-107432753D01*
X167393306Y-107407208D01*
X167344636Y-107399500D01*
X167132062Y-107399500D01*
X167083391Y-107407208D01*
X166922109Y-107432753D01*
X166719934Y-107498444D01*
X166530532Y-107594949D01*
X166358555Y-107719898D01*
X166208247Y-107870206D01*
X166083298Y-108042183D01*
X165986793Y-108231585D01*
X165921102Y-108433760D01*
X165887849Y-108643713D01*
X165887849Y-108856286D01*
X165913183Y-109016243D01*
X165921103Y-109066243D01*
X165986792Y-109268412D01*
X166083298Y-109457816D01*
X166208245Y-109629791D01*
X166208247Y-109629793D01*
X167516273Y-110937819D01*
X167549758Y-110999142D01*
X167544774Y-111068834D01*
X167502902Y-111124767D01*
X167437438Y-111149184D01*
X167428592Y-111149500D01*
X165660757Y-111149500D01*
X165593718Y-111129815D01*
X165573076Y-111113181D01*
X164597595Y-110137700D01*
X164564110Y-110076377D01*
X164569094Y-110006685D01*
X164610966Y-109950752D01*
X164646954Y-109932089D01*
X164718374Y-109908884D01*
X164893754Y-109819524D01*
X165052995Y-109703828D01*
X165192177Y-109564646D01*
X165307873Y-109405405D01*
X165397233Y-109230025D01*
X165458058Y-109042826D01*
X165487603Y-108856286D01*
X165488849Y-108848422D01*
X165488849Y-108651577D01*
X165458058Y-108457173D01*
X165429836Y-108370317D01*
X165397233Y-108269975D01*
X165397231Y-108269972D01*
X165397231Y-108269970D01*
X165335941Y-108149682D01*
X165307873Y-108094595D01*
X165192177Y-107935354D01*
X165052995Y-107796172D01*
X164893754Y-107680476D01*
X164718378Y-107591117D01*
X164531175Y-107530290D01*
X164336771Y-107499500D01*
X164336766Y-107499500D01*
X164139932Y-107499500D01*
X164139927Y-107499500D01*
X163945522Y-107530290D01*
X163758319Y-107591117D01*
X163582943Y-107680476D01*
X163492090Y-107746485D01*
X163423703Y-107796172D01*
X163423701Y-107796174D01*
X163423700Y-107796174D01*
X163284523Y-107935351D01*
X163284523Y-107935352D01*
X163284521Y-107935354D01*
X163243232Y-107992183D01*
X163168825Y-108094594D01*
X163079464Y-108269974D01*
X163056259Y-108341392D01*
X163016821Y-108399067D01*
X162952462Y-108426264D01*
X162883616Y-108414349D01*
X162850648Y-108390753D01*
X162129793Y-107669898D01*
X162129791Y-107669896D01*
X161957816Y-107544949D01*
X161768412Y-107448443D01*
X161566243Y-107382754D01*
X161566241Y-107382753D01*
X161566240Y-107382753D01*
X161404957Y-107357208D01*
X161356287Y-107349500D01*
X161143713Y-107349500D01*
X161095042Y-107357208D01*
X160933760Y-107382753D01*
X160731585Y-107448444D01*
X160542183Y-107544949D01*
X160370206Y-107669898D01*
X160219898Y-107820206D01*
X160094949Y-107992183D01*
X159998444Y-108181585D01*
X159932753Y-108383760D01*
X159899500Y-108593713D01*
X146628609Y-108593713D01*
X146504792Y-108469896D01*
X146492384Y-108460881D01*
X146340204Y-108350316D01*
X146297540Y-108294989D01*
X146291561Y-108225376D01*
X146324166Y-108163580D01*
X146340199Y-108149686D01*
X146504792Y-108030104D01*
X146655104Y-107879792D01*
X146655106Y-107879788D01*
X146655109Y-107879786D01*
X146780048Y-107707820D01*
X146780047Y-107707820D01*
X146780051Y-107707816D01*
X146876557Y-107518412D01*
X146942246Y-107316243D01*
X146975500Y-107106287D01*
X146975500Y-107021153D01*
X151099500Y-107021153D01*
X151099500Y-107178846D01*
X151130261Y-107333489D01*
X151130264Y-107333501D01*
X151190602Y-107479172D01*
X151190609Y-107479185D01*
X151278210Y-107610288D01*
X151278213Y-107610292D01*
X151389707Y-107721786D01*
X151389711Y-107721789D01*
X151520814Y-107809390D01*
X151520827Y-107809397D01*
X151666498Y-107869735D01*
X151666503Y-107869737D01*
X151821153Y-107900499D01*
X151821156Y-107900500D01*
X151821158Y-107900500D01*
X151978844Y-107900500D01*
X151978845Y-107900499D01*
X152133497Y-107869737D01*
X152279179Y-107809394D01*
X152331110Y-107774694D01*
X152397785Y-107753816D01*
X152465165Y-107772300D01*
X152468863Y-107774676D01*
X152520821Y-107809394D01*
X152520823Y-107809395D01*
X152520825Y-107809396D01*
X152666498Y-107869735D01*
X152666503Y-107869737D01*
X152821153Y-107900499D01*
X152821156Y-107900500D01*
X152821158Y-107900500D01*
X152978844Y-107900500D01*
X152978845Y-107900499D01*
X153133497Y-107869737D01*
X153279179Y-107809394D01*
X153410289Y-107721789D01*
X153521789Y-107610289D01*
X153609394Y-107479179D01*
X153669737Y-107333497D01*
X153683079Y-107266416D01*
X153715463Y-107204509D01*
X153716959Y-107202985D01*
X155268367Y-105651577D01*
X159987849Y-105651577D01*
X159987849Y-105848422D01*
X160018639Y-106042826D01*
X160079466Y-106230029D01*
X160161286Y-106390609D01*
X160168825Y-106405405D01*
X160284521Y-106564646D01*
X160423703Y-106703828D01*
X160582944Y-106819524D01*
X160665804Y-106861743D01*
X160758319Y-106908882D01*
X160758321Y-106908882D01*
X160758324Y-106908884D01*
X160829083Y-106931875D01*
X160945522Y-106969709D01*
X161139927Y-107000500D01*
X161139932Y-107000500D01*
X161336771Y-107000500D01*
X161531175Y-106969709D01*
X161563878Y-106959083D01*
X161718374Y-106908884D01*
X161893754Y-106819524D01*
X162052995Y-106703828D01*
X162192177Y-106564646D01*
X162307873Y-106405405D01*
X162397233Y-106230025D01*
X162458058Y-106042826D01*
X162469610Y-105969890D01*
X162488849Y-105848422D01*
X162488849Y-105651577D01*
X162987849Y-105651577D01*
X162987849Y-105848422D01*
X163018639Y-106042826D01*
X163079466Y-106230029D01*
X163161286Y-106390609D01*
X163168825Y-106405405D01*
X163284521Y-106564646D01*
X163423703Y-106703828D01*
X163582944Y-106819524D01*
X163665804Y-106861743D01*
X163758319Y-106908882D01*
X163758321Y-106908882D01*
X163758324Y-106908884D01*
X163829083Y-106931875D01*
X163945522Y-106969709D01*
X164139927Y-107000500D01*
X164139932Y-107000500D01*
X164336771Y-107000500D01*
X164531175Y-106969709D01*
X164563878Y-106959083D01*
X164718374Y-106908884D01*
X164893754Y-106819524D01*
X165052995Y-106703828D01*
X165192177Y-106564646D01*
X165307873Y-106405405D01*
X165397233Y-106230025D01*
X165458058Y-106042826D01*
X165469610Y-105969890D01*
X165488849Y-105848422D01*
X165488849Y-105651577D01*
X165987849Y-105651577D01*
X165987849Y-105848422D01*
X166018639Y-106042826D01*
X166079466Y-106230029D01*
X166161286Y-106390609D01*
X166168825Y-106405405D01*
X166284521Y-106564646D01*
X166423703Y-106703828D01*
X166582944Y-106819524D01*
X166665804Y-106861743D01*
X166758319Y-106908882D01*
X166758321Y-106908882D01*
X166758324Y-106908884D01*
X166829083Y-106931875D01*
X166945522Y-106969709D01*
X167139927Y-107000500D01*
X167139932Y-107000500D01*
X167336771Y-107000500D01*
X167531175Y-106969709D01*
X167563878Y-106959083D01*
X167718374Y-106908884D01*
X167893754Y-106819524D01*
X168052995Y-106703828D01*
X168192177Y-106564646D01*
X168307873Y-106405405D01*
X168397233Y-106230025D01*
X168458058Y-106042826D01*
X168469610Y-105969890D01*
X168488849Y-105848422D01*
X168488849Y-105651577D01*
X168987849Y-105651577D01*
X168987849Y-105848422D01*
X169018639Y-106042826D01*
X169079466Y-106230029D01*
X169161286Y-106390609D01*
X169168825Y-106405405D01*
X169284521Y-106564646D01*
X169423703Y-106703828D01*
X169582944Y-106819524D01*
X169665804Y-106861743D01*
X169758319Y-106908882D01*
X169758321Y-106908882D01*
X169758324Y-106908884D01*
X169829083Y-106931875D01*
X169945522Y-106969709D01*
X170139927Y-107000500D01*
X170139932Y-107000500D01*
X170336771Y-107000500D01*
X170531175Y-106969709D01*
X170563878Y-106959083D01*
X170718374Y-106908884D01*
X170893754Y-106819524D01*
X171052995Y-106703828D01*
X171192177Y-106564646D01*
X171307873Y-106405405D01*
X171397233Y-106230025D01*
X171458058Y-106042826D01*
X171469610Y-105969890D01*
X171488849Y-105848422D01*
X171488849Y-105651577D01*
X171987849Y-105651577D01*
X171987849Y-105848422D01*
X172018639Y-106042826D01*
X172079466Y-106230029D01*
X172161286Y-106390609D01*
X172168825Y-106405405D01*
X172284521Y-106564646D01*
X172423703Y-106703828D01*
X172582944Y-106819524D01*
X172665804Y-106861743D01*
X172758319Y-106908882D01*
X172758321Y-106908882D01*
X172758324Y-106908884D01*
X172829083Y-106931875D01*
X172945522Y-106969709D01*
X173139927Y-107000500D01*
X173139932Y-107000500D01*
X173336771Y-107000500D01*
X173531175Y-106969709D01*
X173548071Y-106964219D01*
X173686185Y-106919342D01*
X173714305Y-106918539D01*
X173742147Y-106914536D01*
X173748756Y-106917554D01*
X173756022Y-106917347D01*
X173780115Y-106931875D01*
X173805703Y-106943561D01*
X173809631Y-106949674D01*
X173815855Y-106953427D01*
X173828268Y-106978673D01*
X173843477Y-107002339D01*
X173844953Y-107012608D01*
X173846684Y-107016128D01*
X173848500Y-107037274D01*
X173848500Y-107168540D01*
X173828815Y-107235579D01*
X173812181Y-107256221D01*
X173581838Y-107486563D01*
X173520515Y-107520048D01*
X173474759Y-107521355D01*
X173336771Y-107499500D01*
X173336766Y-107499500D01*
X173139932Y-107499500D01*
X173139927Y-107499500D01*
X172945522Y-107530290D01*
X172758319Y-107591117D01*
X172582943Y-107680476D01*
X172492090Y-107746485D01*
X172423703Y-107796172D01*
X172423701Y-107796174D01*
X172423700Y-107796174D01*
X172284523Y-107935351D01*
X172284523Y-107935352D01*
X172284521Y-107935354D01*
X172243232Y-107992183D01*
X172168825Y-108094594D01*
X172079466Y-108269970D01*
X172018639Y-108457173D01*
X171987849Y-108651577D01*
X171987849Y-108848422D01*
X172018639Y-109042826D01*
X172079466Y-109230029D01*
X172162868Y-109393713D01*
X172168825Y-109405405D01*
X172284521Y-109564646D01*
X172423703Y-109703828D01*
X172582944Y-109819524D01*
X172665804Y-109861743D01*
X172758319Y-109908882D01*
X172758321Y-109908882D01*
X172758324Y-109908884D01*
X172829738Y-109932088D01*
X172945522Y-109969709D01*
X173139927Y-110000500D01*
X173139932Y-110000500D01*
X173336771Y-110000500D01*
X173531175Y-109969709D01*
X173589518Y-109950752D01*
X173718374Y-109908884D01*
X173893754Y-109819524D01*
X174052995Y-109703828D01*
X174192177Y-109564646D01*
X174307873Y-109405405D01*
X174397233Y-109230025D01*
X174458058Y-109042826D01*
X174487603Y-108856286D01*
X174488849Y-108848422D01*
X174488849Y-108651577D01*
X174466993Y-108513587D01*
X174467694Y-108508161D01*
X174465782Y-108503035D01*
X174472123Y-108473884D01*
X174475947Y-108444294D01*
X174479779Y-108438688D01*
X174480634Y-108434762D01*
X174501781Y-108406512D01*
X174650670Y-108257623D01*
X174711990Y-108224141D01*
X174781682Y-108229125D01*
X174826029Y-108257626D01*
X174974912Y-108406509D01*
X175008397Y-108467832D01*
X175009704Y-108513588D01*
X174987849Y-108651577D01*
X174987849Y-108848422D01*
X175018639Y-109042826D01*
X175079466Y-109230029D01*
X175162868Y-109393713D01*
X175168825Y-109405405D01*
X175284521Y-109564646D01*
X175423703Y-109703828D01*
X175582944Y-109819524D01*
X175665804Y-109861743D01*
X175758319Y-109908882D01*
X175758321Y-109908882D01*
X175758324Y-109908884D01*
X175829738Y-109932088D01*
X175945522Y-109969709D01*
X176139927Y-110000500D01*
X176139932Y-110000500D01*
X176336771Y-110000500D01*
X176531175Y-109969709D01*
X176589518Y-109950752D01*
X176718374Y-109908884D01*
X176893754Y-109819524D01*
X177052995Y-109703828D01*
X177192177Y-109564646D01*
X177307873Y-109405405D01*
X177397233Y-109230025D01*
X177458058Y-109042826D01*
X177487603Y-108856286D01*
X177488849Y-108848422D01*
X177488849Y-108651577D01*
X177987849Y-108651577D01*
X177987849Y-108848422D01*
X178018639Y-109042826D01*
X178079466Y-109230029D01*
X178162868Y-109393713D01*
X178168825Y-109405405D01*
X178284521Y-109564646D01*
X178423703Y-109703828D01*
X178582944Y-109819524D01*
X178665804Y-109861743D01*
X178758319Y-109908882D01*
X178758321Y-109908882D01*
X178758324Y-109908884D01*
X178829738Y-109932088D01*
X178945522Y-109969709D01*
X179139927Y-110000500D01*
X179139932Y-110000500D01*
X179336771Y-110000500D01*
X179531175Y-109969709D01*
X179589518Y-109950752D01*
X179718374Y-109908884D01*
X179893754Y-109819524D01*
X180052995Y-109703828D01*
X180192177Y-109564646D01*
X180307873Y-109405405D01*
X180397233Y-109230025D01*
X180458058Y-109042826D01*
X180487603Y-108856286D01*
X180488849Y-108848422D01*
X180488849Y-108651577D01*
X180987849Y-108651577D01*
X180987849Y-108848422D01*
X181018639Y-109042826D01*
X181079466Y-109230029D01*
X181162868Y-109393713D01*
X181168825Y-109405405D01*
X181284521Y-109564646D01*
X181423703Y-109703828D01*
X181582944Y-109819524D01*
X181665804Y-109861743D01*
X181758319Y-109908882D01*
X181758321Y-109908882D01*
X181758324Y-109908884D01*
X181829738Y-109932088D01*
X181945522Y-109969709D01*
X182139927Y-110000500D01*
X182139932Y-110000500D01*
X182336771Y-110000500D01*
X182531175Y-109969709D01*
X182589518Y-109950752D01*
X182718374Y-109908884D01*
X182893754Y-109819524D01*
X183052995Y-109703828D01*
X183192177Y-109564646D01*
X183307873Y-109405405D01*
X183397233Y-109230025D01*
X183458058Y-109042826D01*
X183487603Y-108856286D01*
X183488849Y-108848422D01*
X183488849Y-108651577D01*
X183987849Y-108651577D01*
X183987849Y-108848422D01*
X184018639Y-109042826D01*
X184079466Y-109230029D01*
X184162868Y-109393713D01*
X184168825Y-109405405D01*
X184284521Y-109564646D01*
X184423703Y-109703828D01*
X184582944Y-109819524D01*
X184665804Y-109861743D01*
X184758319Y-109908882D01*
X184758321Y-109908882D01*
X184758324Y-109908884D01*
X184829738Y-109932088D01*
X184945522Y-109969709D01*
X185139927Y-110000500D01*
X185139932Y-110000500D01*
X185336771Y-110000500D01*
X185531175Y-109969709D01*
X185589518Y-109950752D01*
X185718374Y-109908884D01*
X185893754Y-109819524D01*
X186052995Y-109703828D01*
X186192177Y-109564646D01*
X186307873Y-109405405D01*
X186397233Y-109230025D01*
X186458058Y-109042826D01*
X186487603Y-108856286D01*
X186488849Y-108848422D01*
X186488849Y-108651577D01*
X186987849Y-108651577D01*
X186987849Y-108848422D01*
X187018639Y-109042826D01*
X187079466Y-109230029D01*
X187162868Y-109393713D01*
X187168825Y-109405405D01*
X187284521Y-109564646D01*
X187423703Y-109703828D01*
X187582944Y-109819524D01*
X187665804Y-109861743D01*
X187758319Y-109908882D01*
X187758321Y-109908882D01*
X187758324Y-109908884D01*
X187829738Y-109932088D01*
X187945522Y-109969709D01*
X188139927Y-110000500D01*
X188139932Y-110000500D01*
X188336771Y-110000500D01*
X188531175Y-109969709D01*
X188589518Y-109950752D01*
X188718374Y-109908884D01*
X188893754Y-109819524D01*
X189052995Y-109703828D01*
X189192177Y-109564646D01*
X189307873Y-109405405D01*
X189397233Y-109230025D01*
X189458058Y-109042826D01*
X189487603Y-108856286D01*
X189488849Y-108848422D01*
X189488849Y-108651577D01*
X189458058Y-108457173D01*
X189429836Y-108370317D01*
X189397233Y-108269975D01*
X189397231Y-108269972D01*
X189397231Y-108269970D01*
X189335941Y-108149682D01*
X189307873Y-108094595D01*
X189192177Y-107935354D01*
X189052995Y-107796172D01*
X188893754Y-107680476D01*
X188718378Y-107591117D01*
X188531175Y-107530290D01*
X188336771Y-107499500D01*
X188336766Y-107499500D01*
X188139932Y-107499500D01*
X188139927Y-107499500D01*
X187945522Y-107530290D01*
X187758319Y-107591117D01*
X187582943Y-107680476D01*
X187492090Y-107746485D01*
X187423703Y-107796172D01*
X187423701Y-107796174D01*
X187423700Y-107796174D01*
X187284523Y-107935351D01*
X187284523Y-107935352D01*
X187284521Y-107935354D01*
X187243232Y-107992183D01*
X187168825Y-108094594D01*
X187079466Y-108269970D01*
X187018639Y-108457173D01*
X186987849Y-108651577D01*
X186488849Y-108651577D01*
X186458058Y-108457173D01*
X186429836Y-108370317D01*
X186397233Y-108269975D01*
X186397231Y-108269972D01*
X186397231Y-108269970D01*
X186335941Y-108149682D01*
X186307873Y-108094595D01*
X186192177Y-107935354D01*
X186052995Y-107796172D01*
X185893754Y-107680476D01*
X185718378Y-107591117D01*
X185531175Y-107530290D01*
X185336771Y-107499500D01*
X185336766Y-107499500D01*
X185139932Y-107499500D01*
X185139927Y-107499500D01*
X184945522Y-107530290D01*
X184758319Y-107591117D01*
X184582943Y-107680476D01*
X184492090Y-107746485D01*
X184423703Y-107796172D01*
X184423701Y-107796174D01*
X184423700Y-107796174D01*
X184284523Y-107935351D01*
X184284523Y-107935352D01*
X184284521Y-107935354D01*
X184243232Y-107992183D01*
X184168825Y-108094594D01*
X184079466Y-108269970D01*
X184018639Y-108457173D01*
X183987849Y-108651577D01*
X183488849Y-108651577D01*
X183458058Y-108457173D01*
X183429836Y-108370317D01*
X183397233Y-108269975D01*
X183397231Y-108269972D01*
X183397231Y-108269970D01*
X183335941Y-108149682D01*
X183307873Y-108094595D01*
X183192177Y-107935354D01*
X183052995Y-107796172D01*
X182893754Y-107680476D01*
X182718378Y-107591117D01*
X182531175Y-107530290D01*
X182336771Y-107499500D01*
X182336766Y-107499500D01*
X182139932Y-107499500D01*
X182139927Y-107499500D01*
X181945522Y-107530290D01*
X181758319Y-107591117D01*
X181582943Y-107680476D01*
X181492090Y-107746485D01*
X181423703Y-107796172D01*
X181423701Y-107796174D01*
X181423700Y-107796174D01*
X181284523Y-107935351D01*
X181284523Y-107935352D01*
X181284521Y-107935354D01*
X181243232Y-107992183D01*
X181168825Y-108094594D01*
X181079466Y-108269970D01*
X181018639Y-108457173D01*
X180987849Y-108651577D01*
X180488849Y-108651577D01*
X180458058Y-108457173D01*
X180429836Y-108370317D01*
X180397233Y-108269975D01*
X180397231Y-108269972D01*
X180397231Y-108269970D01*
X180335941Y-108149682D01*
X180307873Y-108094595D01*
X180192177Y-107935354D01*
X180052995Y-107796172D01*
X179893754Y-107680476D01*
X179718378Y-107591117D01*
X179531175Y-107530290D01*
X179336771Y-107499500D01*
X179336766Y-107499500D01*
X179139932Y-107499500D01*
X179139927Y-107499500D01*
X178945522Y-107530290D01*
X178758319Y-107591117D01*
X178582943Y-107680476D01*
X178492090Y-107746485D01*
X178423703Y-107796172D01*
X178423701Y-107796174D01*
X178423700Y-107796174D01*
X178284523Y-107935351D01*
X178284523Y-107935352D01*
X178284521Y-107935354D01*
X178243232Y-107992183D01*
X178168825Y-108094594D01*
X178079466Y-108269970D01*
X178018639Y-108457173D01*
X177987849Y-108651577D01*
X177488849Y-108651577D01*
X177458058Y-108457173D01*
X177429836Y-108370317D01*
X177397233Y-108269975D01*
X177397231Y-108269972D01*
X177397231Y-108269970D01*
X177335941Y-108149682D01*
X177307873Y-108094595D01*
X177192177Y-107935354D01*
X177052995Y-107796172D01*
X176893754Y-107680476D01*
X176718378Y-107591117D01*
X176531175Y-107530290D01*
X176336771Y-107499500D01*
X176336766Y-107499500D01*
X176139932Y-107499500D01*
X176139927Y-107499500D01*
X176001937Y-107521355D01*
X175996511Y-107520653D01*
X175991385Y-107522566D01*
X175962229Y-107516223D01*
X175932643Y-107512400D01*
X175927039Y-107508568D01*
X175923112Y-107507714D01*
X175894858Y-107486563D01*
X175786819Y-107378524D01*
X175753334Y-107317201D01*
X175750500Y-107290843D01*
X175750500Y-107077013D01*
X175770185Y-107009974D01*
X175822989Y-106964219D01*
X175892147Y-106954275D01*
X175912816Y-106959081D01*
X175945523Y-106969709D01*
X176023009Y-106981981D01*
X176139927Y-107000500D01*
X176139932Y-107000500D01*
X176336771Y-107000500D01*
X176531175Y-106969709D01*
X176563878Y-106959083D01*
X176718374Y-106908884D01*
X176893754Y-106819524D01*
X177052995Y-106703828D01*
X177192177Y-106564646D01*
X177307873Y-106405405D01*
X177397233Y-106230025D01*
X177458058Y-106042826D01*
X177469610Y-105969890D01*
X177488849Y-105848422D01*
X177488849Y-105651577D01*
X177987849Y-105651577D01*
X177987849Y-105848422D01*
X178018639Y-106042826D01*
X178079466Y-106230029D01*
X178161286Y-106390609D01*
X178168825Y-106405405D01*
X178284521Y-106564646D01*
X178423703Y-106703828D01*
X178582944Y-106819524D01*
X178665804Y-106861743D01*
X178758319Y-106908882D01*
X178758321Y-106908882D01*
X178758324Y-106908884D01*
X178829083Y-106931875D01*
X178945522Y-106969709D01*
X179139927Y-107000500D01*
X179139932Y-107000500D01*
X179336771Y-107000500D01*
X179531175Y-106969709D01*
X179563878Y-106959083D01*
X179718374Y-106908884D01*
X179893754Y-106819524D01*
X180052995Y-106703828D01*
X180192177Y-106564646D01*
X180307873Y-106405405D01*
X180397233Y-106230025D01*
X180458058Y-106042826D01*
X180469610Y-105969890D01*
X180488849Y-105848422D01*
X180488849Y-105651577D01*
X180987849Y-105651577D01*
X180987849Y-105848422D01*
X181018639Y-106042826D01*
X181079466Y-106230029D01*
X181161286Y-106390609D01*
X181168825Y-106405405D01*
X181284521Y-106564646D01*
X181423703Y-106703828D01*
X181582944Y-106819524D01*
X181665804Y-106861743D01*
X181758319Y-106908882D01*
X181758321Y-106908882D01*
X181758324Y-106908884D01*
X181829083Y-106931875D01*
X181945522Y-106969709D01*
X182139927Y-107000500D01*
X182139932Y-107000500D01*
X182336771Y-107000500D01*
X182531175Y-106969709D01*
X182563878Y-106959083D01*
X182718374Y-106908884D01*
X182893754Y-106819524D01*
X183052995Y-106703828D01*
X183192177Y-106564646D01*
X183307873Y-106405405D01*
X183397233Y-106230025D01*
X183458058Y-106042826D01*
X183469610Y-105969890D01*
X183488849Y-105848422D01*
X183488849Y-105651577D01*
X183987849Y-105651577D01*
X183987849Y-105848422D01*
X184018639Y-106042826D01*
X184079466Y-106230029D01*
X184161286Y-106390609D01*
X184168825Y-106405405D01*
X184284521Y-106564646D01*
X184423703Y-106703828D01*
X184582944Y-106819524D01*
X184665804Y-106861743D01*
X184758319Y-106908882D01*
X184758321Y-106908882D01*
X184758324Y-106908884D01*
X184829083Y-106931875D01*
X184945522Y-106969709D01*
X185139927Y-107000500D01*
X185139932Y-107000500D01*
X185336771Y-107000500D01*
X185531175Y-106969709D01*
X185563878Y-106959083D01*
X185718374Y-106908884D01*
X185893754Y-106819524D01*
X186052995Y-106703828D01*
X186192177Y-106564646D01*
X186307873Y-106405405D01*
X186397233Y-106230025D01*
X186458058Y-106042826D01*
X186469610Y-105969890D01*
X186488849Y-105848422D01*
X186488849Y-105651577D01*
X186987849Y-105651577D01*
X186987849Y-105848422D01*
X187018639Y-106042826D01*
X187079466Y-106230029D01*
X187161286Y-106390609D01*
X187168825Y-106405405D01*
X187284521Y-106564646D01*
X187423703Y-106703828D01*
X187582944Y-106819524D01*
X187665804Y-106861743D01*
X187758319Y-106908882D01*
X187758321Y-106908882D01*
X187758324Y-106908884D01*
X187829083Y-106931875D01*
X187945522Y-106969709D01*
X188139927Y-107000500D01*
X188139932Y-107000500D01*
X188336771Y-107000500D01*
X188531175Y-106969709D01*
X188563878Y-106959083D01*
X188718374Y-106908884D01*
X188893754Y-106819524D01*
X189052995Y-106703828D01*
X189192177Y-106564646D01*
X189307873Y-106405405D01*
X189397233Y-106230025D01*
X189458058Y-106042826D01*
X189469610Y-105969890D01*
X189488849Y-105848422D01*
X189488849Y-105651577D01*
X189458058Y-105457173D01*
X189397231Y-105269970D01*
X189307872Y-105094594D01*
X189262265Y-105031822D01*
X189192177Y-104935354D01*
X189052995Y-104796172D01*
X188968926Y-104735092D01*
X190477849Y-104735092D01*
X190477849Y-104884907D01*
X190507072Y-105031822D01*
X190507074Y-105031830D01*
X190564400Y-105170229D01*
X190564405Y-105170238D01*
X190647629Y-105294790D01*
X190647632Y-105294794D01*
X190753554Y-105400716D01*
X190753558Y-105400719D01*
X190878110Y-105483943D01*
X190878116Y-105483946D01*
X190878117Y-105483947D01*
X191016519Y-105541275D01*
X191163441Y-105570499D01*
X191163445Y-105570500D01*
X191163446Y-105570500D01*
X191313253Y-105570500D01*
X191313254Y-105570499D01*
X191460179Y-105541275D01*
X191598581Y-105483947D01*
X191723140Y-105400719D01*
X191829068Y-105294791D01*
X191912296Y-105170232D01*
X191969624Y-105031830D01*
X191998849Y-104884903D01*
X191998849Y-104735097D01*
X191969624Y-104588170D01*
X191920007Y-104468384D01*
X191912297Y-104449770D01*
X191912292Y-104449761D01*
X191829068Y-104325209D01*
X191829065Y-104325205D01*
X191723143Y-104219283D01*
X191723139Y-104219280D01*
X191598587Y-104136056D01*
X191598578Y-104136051D01*
X191460179Y-104078725D01*
X191460171Y-104078723D01*
X191313256Y-104049500D01*
X191313252Y-104049500D01*
X191163446Y-104049500D01*
X191163441Y-104049500D01*
X191016526Y-104078723D01*
X191016518Y-104078725D01*
X190878119Y-104136051D01*
X190878110Y-104136056D01*
X190753558Y-104219280D01*
X190753554Y-104219283D01*
X190647632Y-104325205D01*
X190647629Y-104325209D01*
X190564405Y-104449761D01*
X190564400Y-104449770D01*
X190507074Y-104588169D01*
X190507072Y-104588177D01*
X190477849Y-104735092D01*
X188968926Y-104735092D01*
X188893754Y-104680476D01*
X188853793Y-104660115D01*
X188718378Y-104591117D01*
X188531175Y-104530290D01*
X188336771Y-104499500D01*
X188336766Y-104499500D01*
X188139932Y-104499500D01*
X188139927Y-104499500D01*
X187945522Y-104530290D01*
X187758319Y-104591117D01*
X187582943Y-104680476D01*
X187507772Y-104735092D01*
X187423703Y-104796172D01*
X187423701Y-104796174D01*
X187423700Y-104796174D01*
X187284523Y-104935351D01*
X187284523Y-104935352D01*
X187284521Y-104935354D01*
X187259542Y-104969735D01*
X187168825Y-105094594D01*
X187079466Y-105269970D01*
X187018639Y-105457173D01*
X186987849Y-105651577D01*
X186488849Y-105651577D01*
X186458058Y-105457173D01*
X186397231Y-105269970D01*
X186307872Y-105094594D01*
X186262265Y-105031822D01*
X186192177Y-104935354D01*
X186052995Y-104796172D01*
X185893754Y-104680476D01*
X185853793Y-104660115D01*
X185718378Y-104591117D01*
X185531175Y-104530290D01*
X185336771Y-104499500D01*
X185336766Y-104499500D01*
X185139932Y-104499500D01*
X185139927Y-104499500D01*
X184945522Y-104530290D01*
X184758319Y-104591117D01*
X184582943Y-104680476D01*
X184507772Y-104735092D01*
X184423703Y-104796172D01*
X184423701Y-104796174D01*
X184423700Y-104796174D01*
X184284523Y-104935351D01*
X184284523Y-104935352D01*
X184284521Y-104935354D01*
X184259542Y-104969735D01*
X184168825Y-105094594D01*
X184079466Y-105269970D01*
X184018639Y-105457173D01*
X183987849Y-105651577D01*
X183488849Y-105651577D01*
X183458058Y-105457173D01*
X183397231Y-105269970D01*
X183307872Y-105094594D01*
X183262265Y-105031822D01*
X183192177Y-104935354D01*
X183052995Y-104796172D01*
X182893754Y-104680476D01*
X182853793Y-104660115D01*
X182718378Y-104591117D01*
X182531175Y-104530290D01*
X182336771Y-104499500D01*
X182336766Y-104499500D01*
X182139932Y-104499500D01*
X182139927Y-104499500D01*
X181945522Y-104530290D01*
X181758319Y-104591117D01*
X181582943Y-104680476D01*
X181507772Y-104735092D01*
X181423703Y-104796172D01*
X181423701Y-104796174D01*
X181423700Y-104796174D01*
X181284523Y-104935351D01*
X181284523Y-104935352D01*
X181284521Y-104935354D01*
X181259542Y-104969735D01*
X181168825Y-105094594D01*
X181079466Y-105269970D01*
X181018639Y-105457173D01*
X180987849Y-105651577D01*
X180488849Y-105651577D01*
X180458058Y-105457173D01*
X180397231Y-105269970D01*
X180307872Y-105094594D01*
X180262265Y-105031822D01*
X180192177Y-104935354D01*
X180052995Y-104796172D01*
X179893754Y-104680476D01*
X179853793Y-104660115D01*
X179718378Y-104591117D01*
X179531175Y-104530290D01*
X179336771Y-104499500D01*
X179336766Y-104499500D01*
X179139932Y-104499500D01*
X179139927Y-104499500D01*
X178945522Y-104530290D01*
X178758319Y-104591117D01*
X178582943Y-104680476D01*
X178507772Y-104735092D01*
X178423703Y-104796172D01*
X178423701Y-104796174D01*
X178423700Y-104796174D01*
X178284523Y-104935351D01*
X178284523Y-104935352D01*
X178284521Y-104935354D01*
X178259542Y-104969735D01*
X178168825Y-105094594D01*
X178079466Y-105269970D01*
X178018639Y-105457173D01*
X177987849Y-105651577D01*
X177488849Y-105651577D01*
X177458058Y-105457173D01*
X177397231Y-105269970D01*
X177307872Y-105094594D01*
X177262265Y-105031822D01*
X177192177Y-104935354D01*
X177052995Y-104796172D01*
X176893754Y-104680476D01*
X176853793Y-104660115D01*
X176718378Y-104591117D01*
X176531175Y-104530290D01*
X176336771Y-104499500D01*
X176336766Y-104499500D01*
X176139932Y-104499500D01*
X176139925Y-104499500D01*
X175995747Y-104522335D01*
X175926454Y-104513380D01*
X175873002Y-104468384D01*
X175861789Y-104447314D01*
X175809397Y-104320826D01*
X175809390Y-104320813D01*
X175721789Y-104189710D01*
X175721786Y-104189706D01*
X175610292Y-104078212D01*
X175610288Y-104078209D01*
X175479185Y-103990608D01*
X175479172Y-103990601D01*
X175333501Y-103930263D01*
X175333489Y-103930260D01*
X175178845Y-103899499D01*
X175178842Y-103899499D01*
X175021158Y-103899499D01*
X175021155Y-103899499D01*
X174866510Y-103930260D01*
X174866498Y-103930263D01*
X174720827Y-103990601D01*
X174720814Y-103990608D01*
X174589711Y-104078209D01*
X174589707Y-104078212D01*
X174478213Y-104189706D01*
X174478210Y-104189710D01*
X174390609Y-104320813D01*
X174390603Y-104320825D01*
X174365476Y-104381485D01*
X174321634Y-104435887D01*
X174275109Y-104455647D01*
X174216507Y-104467304D01*
X174216500Y-104467306D01*
X174070827Y-104527645D01*
X174070814Y-104527652D01*
X173939711Y-104615253D01*
X173935770Y-104618488D01*
X173871460Y-104645800D01*
X173802593Y-104634009D01*
X173800812Y-104633119D01*
X173718381Y-104591118D01*
X173531175Y-104530290D01*
X173336771Y-104499500D01*
X173336766Y-104499500D01*
X173139932Y-104499500D01*
X173139927Y-104499500D01*
X172945522Y-104530290D01*
X172758319Y-104591117D01*
X172582943Y-104680476D01*
X172507772Y-104735092D01*
X172423703Y-104796172D01*
X172423701Y-104796174D01*
X172423700Y-104796174D01*
X172284523Y-104935351D01*
X172284523Y-104935352D01*
X172284521Y-104935354D01*
X172259542Y-104969735D01*
X172168825Y-105094594D01*
X172079466Y-105269970D01*
X172018639Y-105457173D01*
X171987849Y-105651577D01*
X171488849Y-105651577D01*
X171458058Y-105457173D01*
X171397231Y-105269970D01*
X171307872Y-105094594D01*
X171262265Y-105031822D01*
X171192177Y-104935354D01*
X171052995Y-104796172D01*
X170893754Y-104680476D01*
X170853793Y-104660115D01*
X170718378Y-104591117D01*
X170531175Y-104530290D01*
X170336771Y-104499500D01*
X170336766Y-104499500D01*
X170139932Y-104499500D01*
X170139927Y-104499500D01*
X169945522Y-104530290D01*
X169758319Y-104591117D01*
X169582943Y-104680476D01*
X169507772Y-104735092D01*
X169423703Y-104796172D01*
X169423701Y-104796174D01*
X169423700Y-104796174D01*
X169284523Y-104935351D01*
X169284523Y-104935352D01*
X169284521Y-104935354D01*
X169259542Y-104969735D01*
X169168825Y-105094594D01*
X169079466Y-105269970D01*
X169018639Y-105457173D01*
X168987849Y-105651577D01*
X168488849Y-105651577D01*
X168458058Y-105457173D01*
X168397231Y-105269970D01*
X168307872Y-105094594D01*
X168262265Y-105031822D01*
X168192177Y-104935354D01*
X168052995Y-104796172D01*
X167893754Y-104680476D01*
X167853793Y-104660115D01*
X167718378Y-104591117D01*
X167531175Y-104530290D01*
X167336771Y-104499500D01*
X167336766Y-104499500D01*
X167139932Y-104499500D01*
X167139927Y-104499500D01*
X166945522Y-104530290D01*
X166758319Y-104591117D01*
X166582943Y-104680476D01*
X166507772Y-104735092D01*
X166423703Y-104796172D01*
X166423701Y-104796174D01*
X166423700Y-104796174D01*
X166284523Y-104935351D01*
X166284523Y-104935352D01*
X166284521Y-104935354D01*
X166259542Y-104969735D01*
X166168825Y-105094594D01*
X166079466Y-105269970D01*
X166018639Y-105457173D01*
X165987849Y-105651577D01*
X165488849Y-105651577D01*
X165458058Y-105457173D01*
X165397231Y-105269970D01*
X165307872Y-105094594D01*
X165262265Y-105031822D01*
X165192177Y-104935354D01*
X165052995Y-104796172D01*
X164893754Y-104680476D01*
X164853793Y-104660115D01*
X164718378Y-104591117D01*
X164531175Y-104530290D01*
X164336771Y-104499500D01*
X164336766Y-104499500D01*
X164139932Y-104499500D01*
X164139927Y-104499500D01*
X163945522Y-104530290D01*
X163758319Y-104591117D01*
X163582943Y-104680476D01*
X163507772Y-104735092D01*
X163423703Y-104796172D01*
X163423701Y-104796174D01*
X163423700Y-104796174D01*
X163284523Y-104935351D01*
X163284523Y-104935352D01*
X163284521Y-104935354D01*
X163259542Y-104969735D01*
X163168825Y-105094594D01*
X163079466Y-105269970D01*
X163018639Y-105457173D01*
X162987849Y-105651577D01*
X162488849Y-105651577D01*
X162458058Y-105457173D01*
X162397231Y-105269970D01*
X162307872Y-105094594D01*
X162262265Y-105031822D01*
X162192177Y-104935354D01*
X162052995Y-104796172D01*
X161893754Y-104680476D01*
X161853793Y-104660115D01*
X161718378Y-104591117D01*
X161531175Y-104530290D01*
X161336771Y-104499500D01*
X161336766Y-104499500D01*
X161139932Y-104499500D01*
X161139927Y-104499500D01*
X160945522Y-104530290D01*
X160758319Y-104591117D01*
X160582943Y-104680476D01*
X160507772Y-104735092D01*
X160423703Y-104796172D01*
X160423701Y-104796174D01*
X160423700Y-104796174D01*
X160284523Y-104935351D01*
X160284523Y-104935352D01*
X160284521Y-104935354D01*
X160259542Y-104969735D01*
X160168825Y-105094594D01*
X160079466Y-105269970D01*
X160018639Y-105457173D01*
X159987849Y-105651577D01*
X155268367Y-105651577D01*
X155902931Y-105017013D01*
X155964252Y-104983530D01*
X155966317Y-104983099D01*
X156033497Y-104969737D01*
X156179179Y-104909394D01*
X156310289Y-104821789D01*
X156396986Y-104735092D01*
X157477849Y-104735092D01*
X157477849Y-104884907D01*
X157507072Y-105031822D01*
X157507074Y-105031830D01*
X157564400Y-105170229D01*
X157564405Y-105170238D01*
X157647629Y-105294790D01*
X157647632Y-105294794D01*
X157753554Y-105400716D01*
X157753558Y-105400719D01*
X157878110Y-105483943D01*
X157878116Y-105483946D01*
X157878117Y-105483947D01*
X158016519Y-105541275D01*
X158163441Y-105570499D01*
X158163445Y-105570500D01*
X158163446Y-105570500D01*
X158313253Y-105570500D01*
X158313254Y-105570499D01*
X158460179Y-105541275D01*
X158598581Y-105483947D01*
X158723140Y-105400719D01*
X158829068Y-105294791D01*
X158912296Y-105170232D01*
X158969624Y-105031830D01*
X158998849Y-104884903D01*
X158998849Y-104735097D01*
X158969624Y-104588170D01*
X158920007Y-104468384D01*
X158912297Y-104449770D01*
X158912292Y-104449761D01*
X158829068Y-104325209D01*
X158829065Y-104325205D01*
X158723143Y-104219283D01*
X158723139Y-104219280D01*
X158598587Y-104136056D01*
X158598578Y-104136051D01*
X158460179Y-104078725D01*
X158460171Y-104078723D01*
X158313256Y-104049500D01*
X158313252Y-104049500D01*
X158163446Y-104049500D01*
X158163441Y-104049500D01*
X158016526Y-104078723D01*
X158016518Y-104078725D01*
X157878119Y-104136051D01*
X157878110Y-104136056D01*
X157753558Y-104219280D01*
X157753554Y-104219283D01*
X157647632Y-104325205D01*
X157647629Y-104325209D01*
X157564405Y-104449761D01*
X157564400Y-104449770D01*
X157507074Y-104588169D01*
X157507072Y-104588177D01*
X157477849Y-104735092D01*
X156396986Y-104735092D01*
X156421789Y-104710289D01*
X156432104Y-104694850D01*
X156455315Y-104660115D01*
X156455315Y-104660114D01*
X156473352Y-104633119D01*
X156509394Y-104579179D01*
X156569737Y-104433497D01*
X156600500Y-104278842D01*
X156600500Y-104121158D01*
X156600500Y-104121155D01*
X156600499Y-104121153D01*
X156583079Y-104033579D01*
X156569737Y-103966503D01*
X156554725Y-103930260D01*
X156509397Y-103820827D01*
X156509390Y-103820814D01*
X156421789Y-103689711D01*
X156421786Y-103689707D01*
X156310292Y-103578213D01*
X156310288Y-103578210D01*
X156179185Y-103490609D01*
X156179172Y-103490602D01*
X156033501Y-103430264D01*
X156033489Y-103430261D01*
X155878845Y-103399500D01*
X155878842Y-103399500D01*
X155721158Y-103399500D01*
X155721155Y-103399500D01*
X155566510Y-103430261D01*
X155566498Y-103430264D01*
X155420827Y-103490602D01*
X155420814Y-103490609D01*
X155368891Y-103525304D01*
X155302214Y-103546182D01*
X155234833Y-103527698D01*
X155231109Y-103525304D01*
X155179185Y-103490609D01*
X155179172Y-103490602D01*
X155033501Y-103430264D01*
X155033489Y-103430261D01*
X154878845Y-103399500D01*
X154878842Y-103399500D01*
X154721158Y-103399500D01*
X154721155Y-103399500D01*
X154566510Y-103430261D01*
X154566498Y-103430264D01*
X154420827Y-103490602D01*
X154420814Y-103490609D01*
X154289711Y-103578210D01*
X154289707Y-103578213D01*
X154178213Y-103689707D01*
X154178210Y-103689711D01*
X154090609Y-103820814D01*
X154090602Y-103820827D01*
X154030264Y-103966498D01*
X154030261Y-103966508D01*
X154016920Y-104033579D01*
X153984535Y-104095490D01*
X153982984Y-104097068D01*
X151797068Y-106282984D01*
X151735745Y-106316469D01*
X151733579Y-106316920D01*
X151666508Y-106330261D01*
X151666498Y-106330264D01*
X151520827Y-106390602D01*
X151520814Y-106390609D01*
X151389711Y-106478210D01*
X151389707Y-106478213D01*
X151278213Y-106589707D01*
X151278210Y-106589711D01*
X151190609Y-106720814D01*
X151190602Y-106720827D01*
X151130264Y-106866498D01*
X151130261Y-106866510D01*
X151099500Y-107021153D01*
X146975500Y-107021153D01*
X146975500Y-106893713D01*
X146942246Y-106683757D01*
X146876557Y-106481588D01*
X146780051Y-106292184D01*
X146780049Y-106292181D01*
X146780048Y-106292179D01*
X146655109Y-106120213D01*
X146504792Y-105969896D01*
X146504784Y-105969890D01*
X146340204Y-105850316D01*
X146297540Y-105794989D01*
X146291561Y-105725376D01*
X146324166Y-105663580D01*
X146340199Y-105649686D01*
X146504792Y-105530104D01*
X146655104Y-105379792D01*
X146655106Y-105379788D01*
X146655109Y-105379786D01*
X146780048Y-105207820D01*
X146780047Y-105207820D01*
X146780051Y-105207816D01*
X146876557Y-105018412D01*
X146942246Y-104816243D01*
X146975500Y-104606287D01*
X146975500Y-104393713D01*
X146942246Y-104183757D01*
X146876557Y-103981588D01*
X146780051Y-103792184D01*
X146780049Y-103792181D01*
X146780048Y-103792179D01*
X146655109Y-103620213D01*
X146504792Y-103469896D01*
X146504784Y-103469890D01*
X146340204Y-103350316D01*
X146297540Y-103294989D01*
X146291561Y-103225376D01*
X146324166Y-103163580D01*
X146340199Y-103149686D01*
X146504792Y-103030104D01*
X146655104Y-102879792D01*
X146655106Y-102879788D01*
X146655109Y-102879786D01*
X146780048Y-102707820D01*
X146780047Y-102707820D01*
X146780051Y-102707816D01*
X146876557Y-102518412D01*
X146942246Y-102316243D01*
X146945814Y-102293713D01*
X192987849Y-102293713D01*
X192987849Y-102506287D01*
X192989770Y-102518414D01*
X193021102Y-102716239D01*
X193086793Y-102918414D01*
X193183300Y-103107820D01*
X193308239Y-103279786D01*
X193458558Y-103430105D01*
X193458563Y-103430109D01*
X193623142Y-103549682D01*
X193665808Y-103605011D01*
X193671787Y-103674625D01*
X193639182Y-103736420D01*
X193623142Y-103750318D01*
X193458563Y-103869890D01*
X193458558Y-103869894D01*
X193308239Y-104020213D01*
X193183300Y-104192179D01*
X193086793Y-104381585D01*
X193021102Y-104583760D01*
X192997134Y-104735092D01*
X192987849Y-104793713D01*
X192987849Y-105006287D01*
X192989770Y-105018414D01*
X193013815Y-105170232D01*
X193021103Y-105216243D01*
X193081043Y-105400719D01*
X193086793Y-105418414D01*
X193183300Y-105607820D01*
X193308239Y-105779786D01*
X193458562Y-105930109D01*
X193630528Y-106055048D01*
X193630530Y-106055049D01*
X193630533Y-106055051D01*
X193819937Y-106151557D01*
X194022106Y-106217246D01*
X194232062Y-106250500D01*
X194232063Y-106250500D01*
X194744635Y-106250500D01*
X194744636Y-106250500D01*
X194954592Y-106217246D01*
X195156761Y-106151557D01*
X195346165Y-106055051D01*
X195463372Y-105969896D01*
X195518135Y-105930109D01*
X195518137Y-105930106D01*
X195518141Y-105930104D01*
X195668453Y-105779792D01*
X195668455Y-105779788D01*
X195668458Y-105779786D01*
X195793397Y-105607820D01*
X195793396Y-105607820D01*
X195793400Y-105607816D01*
X195889906Y-105418412D01*
X195955595Y-105216243D01*
X195988849Y-105006287D01*
X195988849Y-104793713D01*
X195955595Y-104583757D01*
X195889906Y-104381588D01*
X195793400Y-104192184D01*
X195793398Y-104192181D01*
X195793397Y-104192179D01*
X195668458Y-104020213D01*
X195518141Y-103869896D01*
X195518133Y-103869890D01*
X195353553Y-103750316D01*
X195310889Y-103694989D01*
X195304910Y-103625376D01*
X195337515Y-103563580D01*
X195353548Y-103549686D01*
X195518141Y-103430104D01*
X195668453Y-103279792D01*
X195668455Y-103279788D01*
X195668458Y-103279786D01*
X195793397Y-103107820D01*
X195793396Y-103107820D01*
X195793400Y-103107816D01*
X195889906Y-102918412D01*
X195955595Y-102716243D01*
X195988849Y-102506287D01*
X195988849Y-102293713D01*
X195955595Y-102083757D01*
X195889906Y-101881588D01*
X195793400Y-101692184D01*
X195793398Y-101692181D01*
X195793397Y-101692179D01*
X195668458Y-101520213D01*
X195518135Y-101369890D01*
X195346169Y-101244951D01*
X195156763Y-101148444D01*
X195156762Y-101148443D01*
X195156761Y-101148443D01*
X194954592Y-101082754D01*
X194954590Y-101082753D01*
X194954589Y-101082753D01*
X194793306Y-101057208D01*
X194744636Y-101049500D01*
X194232062Y-101049500D01*
X194183391Y-101057208D01*
X194022109Y-101082753D01*
X193819934Y-101148444D01*
X193630528Y-101244951D01*
X193458562Y-101369890D01*
X193308239Y-101520213D01*
X193183300Y-101692179D01*
X193086793Y-101881585D01*
X193021102Y-102083760D01*
X192991693Y-102269441D01*
X192987849Y-102293713D01*
X146945814Y-102293713D01*
X146975500Y-102106287D01*
X146975500Y-101893713D01*
X146942246Y-101683757D01*
X146876557Y-101481588D01*
X146780051Y-101292184D01*
X146780049Y-101292181D01*
X146780048Y-101292179D01*
X146655109Y-101120213D01*
X146504786Y-100969890D01*
X146332820Y-100844951D01*
X146143414Y-100748444D01*
X146143413Y-100748443D01*
X146143412Y-100748443D01*
X145941243Y-100682754D01*
X145941241Y-100682753D01*
X145941240Y-100682753D01*
X145779957Y-100657208D01*
X145731287Y-100649500D01*
X145268713Y-100649500D01*
X145220042Y-100657208D01*
X145058760Y-100682753D01*
X145058757Y-100682754D01*
X144909429Y-100731274D01*
X144856585Y-100748444D01*
X144667179Y-100844951D01*
X144495213Y-100969890D01*
X144344890Y-101120213D01*
X144219951Y-101292179D01*
X144123444Y-101481585D01*
X144057753Y-101683760D01*
X144024500Y-101893713D01*
X143300500Y-101893713D01*
X143300500Y-99925092D01*
X150239500Y-99925092D01*
X150239500Y-100074907D01*
X150268723Y-100221822D01*
X150268725Y-100221830D01*
X150326051Y-100360229D01*
X150326056Y-100360238D01*
X150409280Y-100484790D01*
X150409283Y-100484794D01*
X150515205Y-100590716D01*
X150515209Y-100590719D01*
X150639761Y-100673943D01*
X150639770Y-100673948D01*
X150661030Y-100682754D01*
X150778170Y-100731275D01*
X150925092Y-100760499D01*
X150925096Y-100760500D01*
X150925097Y-100760500D01*
X151074904Y-100760500D01*
X151074905Y-100760499D01*
X151221830Y-100731275D01*
X151360232Y-100673947D01*
X151484791Y-100590719D01*
X151590719Y-100484791D01*
X151673947Y-100360232D01*
X151731275Y-100221830D01*
X151760500Y-100074903D01*
X151760500Y-99925097D01*
X151731275Y-99778170D01*
X151673947Y-99639768D01*
X151673946Y-99639767D01*
X151673943Y-99639761D01*
X151590719Y-99515209D01*
X151590716Y-99515205D01*
X151484794Y-99409283D01*
X151484790Y-99409280D01*
X151360238Y-99326056D01*
X151360229Y-99326051D01*
X151221830Y-99268725D01*
X151221822Y-99268723D01*
X151074907Y-99239500D01*
X151074903Y-99239500D01*
X150925097Y-99239500D01*
X150925092Y-99239500D01*
X150778177Y-99268723D01*
X150778169Y-99268725D01*
X150639770Y-99326051D01*
X150639761Y-99326056D01*
X150515209Y-99409280D01*
X150515205Y-99409283D01*
X150409283Y-99515205D01*
X150409280Y-99515209D01*
X150326056Y-99639761D01*
X150326051Y-99639770D01*
X150268725Y-99778169D01*
X150268723Y-99778177D01*
X150239500Y-99925092D01*
X143300500Y-99925092D01*
X143300500Y-98961577D01*
X152749500Y-98961577D01*
X152749500Y-99158422D01*
X152780290Y-99352826D01*
X152841117Y-99540029D01*
X152891937Y-99639768D01*
X152930476Y-99715405D01*
X153046172Y-99874646D01*
X153185354Y-100013828D01*
X153344595Y-100129524D01*
X153427455Y-100171743D01*
X153519970Y-100218882D01*
X153519972Y-100218882D01*
X153519975Y-100218884D01*
X153620317Y-100251487D01*
X153707173Y-100279709D01*
X153901578Y-100310500D01*
X153901583Y-100310500D01*
X154098422Y-100310500D01*
X154292826Y-100279709D01*
X154294328Y-100279221D01*
X154480025Y-100218884D01*
X154655405Y-100129524D01*
X154814646Y-100013828D01*
X154953828Y-99874646D01*
X155069524Y-99715405D01*
X155158884Y-99540025D01*
X155219709Y-99352826D01*
X155233029Y-99268725D01*
X155250500Y-99158422D01*
X155250500Y-98961577D01*
X155749500Y-98961577D01*
X155749500Y-99158422D01*
X155780290Y-99352826D01*
X155841117Y-99540029D01*
X155891937Y-99639768D01*
X155930476Y-99715405D01*
X156046172Y-99874646D01*
X156185354Y-100013828D01*
X156344595Y-100129524D01*
X156427455Y-100171743D01*
X156519970Y-100218882D01*
X156519972Y-100218882D01*
X156519975Y-100218884D01*
X156620317Y-100251487D01*
X156707173Y-100279709D01*
X156901578Y-100310500D01*
X156901583Y-100310500D01*
X157098422Y-100310500D01*
X157292826Y-100279709D01*
X157294328Y-100279221D01*
X157480025Y-100218884D01*
X157655405Y-100129524D01*
X157814646Y-100013828D01*
X157953828Y-99874646D01*
X158069524Y-99715405D01*
X158158884Y-99540025D01*
X158219709Y-99352826D01*
X158233029Y-99268725D01*
X158250500Y-99158422D01*
X158250500Y-98961577D01*
X158219709Y-98767173D01*
X158158882Y-98579970D01*
X158107917Y-98479946D01*
X158069524Y-98404595D01*
X157953828Y-98245354D01*
X157814646Y-98106172D01*
X157655405Y-97990476D01*
X157594515Y-97959451D01*
X157480029Y-97901117D01*
X157292826Y-97840290D01*
X157098422Y-97809500D01*
X157098417Y-97809500D01*
X156901583Y-97809500D01*
X156901578Y-97809500D01*
X156707173Y-97840290D01*
X156519970Y-97901117D01*
X156344594Y-97990476D01*
X156293190Y-98027824D01*
X156185354Y-98106172D01*
X156185352Y-98106174D01*
X156185351Y-98106174D01*
X156046174Y-98245351D01*
X156046174Y-98245352D01*
X156046172Y-98245354D01*
X155996485Y-98313741D01*
X155930476Y-98404594D01*
X155841117Y-98579970D01*
X155780290Y-98767173D01*
X155749500Y-98961577D01*
X155250500Y-98961577D01*
X155219709Y-98767173D01*
X155158882Y-98579970D01*
X155107917Y-98479946D01*
X155069524Y-98404595D01*
X154953828Y-98245354D01*
X154814646Y-98106172D01*
X154655405Y-97990476D01*
X154594515Y-97959451D01*
X154480029Y-97901117D01*
X154292826Y-97840290D01*
X154098422Y-97809500D01*
X154098417Y-97809500D01*
X153901583Y-97809500D01*
X153901578Y-97809500D01*
X153707173Y-97840290D01*
X153519970Y-97901117D01*
X153344594Y-97990476D01*
X153293190Y-98027824D01*
X153185354Y-98106172D01*
X153185352Y-98106174D01*
X153185351Y-98106174D01*
X153046174Y-98245351D01*
X153046174Y-98245352D01*
X153046172Y-98245354D01*
X152996485Y-98313741D01*
X152930476Y-98404594D01*
X152841117Y-98579970D01*
X152780290Y-98767173D01*
X152749500Y-98961577D01*
X143300500Y-98961577D01*
X143300500Y-89293713D01*
X144024500Y-89293713D01*
X144024500Y-89506287D01*
X144057754Y-89716243D01*
X144103254Y-89856278D01*
X144123444Y-89918414D01*
X144219951Y-90107820D01*
X144344890Y-90279786D01*
X144495209Y-90430105D01*
X144495214Y-90430109D01*
X144659793Y-90549682D01*
X144702459Y-90605011D01*
X144708438Y-90674625D01*
X144675833Y-90736420D01*
X144659793Y-90750318D01*
X144495214Y-90869890D01*
X144495209Y-90869894D01*
X144344890Y-91020213D01*
X144219951Y-91192179D01*
X144123444Y-91381585D01*
X144057753Y-91583760D01*
X144024500Y-91793713D01*
X144024500Y-92006286D01*
X144057753Y-92216239D01*
X144123444Y-92418414D01*
X144219951Y-92607820D01*
X144344890Y-92779786D01*
X144495209Y-92930105D01*
X144495214Y-92930109D01*
X144659793Y-93049682D01*
X144702459Y-93105011D01*
X144708438Y-93174625D01*
X144675833Y-93236420D01*
X144659793Y-93250318D01*
X144495214Y-93369890D01*
X144495209Y-93369894D01*
X144344890Y-93520213D01*
X144219951Y-93692179D01*
X144123444Y-93881585D01*
X144057753Y-94083760D01*
X144024500Y-94293713D01*
X144024500Y-94506286D01*
X144052146Y-94680840D01*
X144057754Y-94716243D01*
X144117823Y-94901117D01*
X144123444Y-94918414D01*
X144219951Y-95107820D01*
X144344890Y-95279786D01*
X144495209Y-95430105D01*
X144495214Y-95430109D01*
X144659793Y-95549682D01*
X144702459Y-95605011D01*
X144708438Y-95674625D01*
X144675833Y-95736420D01*
X144659793Y-95750318D01*
X144495214Y-95869890D01*
X144495209Y-95869894D01*
X144344890Y-96020213D01*
X144219951Y-96192179D01*
X144123444Y-96381585D01*
X144057753Y-96583760D01*
X144036903Y-96715405D01*
X144024500Y-96793713D01*
X144024500Y-97006287D01*
X144029114Y-97035416D01*
X144050609Y-97171135D01*
X144057754Y-97216243D01*
X144101453Y-97350735D01*
X144123444Y-97418414D01*
X144219951Y-97607820D01*
X144344890Y-97779786D01*
X144495213Y-97930109D01*
X144667179Y-98055048D01*
X144667181Y-98055049D01*
X144667184Y-98055051D01*
X144856588Y-98151557D01*
X145058757Y-98217246D01*
X145268713Y-98250500D01*
X145268714Y-98250500D01*
X145731286Y-98250500D01*
X145731287Y-98250500D01*
X145941243Y-98217246D01*
X146143412Y-98151557D01*
X146332816Y-98055051D01*
X146386125Y-98016320D01*
X146504786Y-97930109D01*
X146504788Y-97930106D01*
X146504792Y-97930104D01*
X146655104Y-97779792D01*
X146655106Y-97779788D01*
X146655109Y-97779786D01*
X146780048Y-97607820D01*
X146780047Y-97607820D01*
X146780051Y-97607816D01*
X146876557Y-97418412D01*
X146942246Y-97216243D01*
X146975500Y-97006287D01*
X146975500Y-96793713D01*
X146942246Y-96583757D01*
X146876557Y-96381588D01*
X146780051Y-96192184D01*
X146661925Y-96029596D01*
X146661923Y-96029592D01*
X146655111Y-96020216D01*
X146655105Y-96020209D01*
X146596473Y-95961577D01*
X152749500Y-95961577D01*
X152749500Y-96158422D01*
X152780290Y-96352826D01*
X152841117Y-96540029D01*
X152930476Y-96715405D01*
X153046172Y-96874646D01*
X153185354Y-97013828D01*
X153344595Y-97129524D01*
X153426262Y-97171135D01*
X153519970Y-97218882D01*
X153519972Y-97218882D01*
X153519975Y-97218884D01*
X153620317Y-97251487D01*
X153707173Y-97279709D01*
X153901578Y-97310500D01*
X153901583Y-97310500D01*
X154098422Y-97310500D01*
X154292826Y-97279709D01*
X154480025Y-97218884D01*
X154655405Y-97129524D01*
X154814646Y-97013828D01*
X154953828Y-96874646D01*
X155069524Y-96715405D01*
X155158884Y-96540025D01*
X155219709Y-96352826D01*
X155250500Y-96158422D01*
X155250500Y-95961577D01*
X155749500Y-95961577D01*
X155749500Y-96158422D01*
X155780290Y-96352826D01*
X155841117Y-96540029D01*
X155930476Y-96715405D01*
X156046172Y-96874646D01*
X156185354Y-97013828D01*
X156344595Y-97129524D01*
X156426262Y-97171135D01*
X156519970Y-97218882D01*
X156519972Y-97218882D01*
X156519975Y-97218884D01*
X156620317Y-97251487D01*
X156707173Y-97279709D01*
X156901578Y-97310500D01*
X156901583Y-97310500D01*
X157098422Y-97310500D01*
X157292826Y-97279709D01*
X157480025Y-97218884D01*
X157655405Y-97129524D01*
X157814646Y-97013828D01*
X157953828Y-96874646D01*
X158069524Y-96715405D01*
X158158884Y-96540025D01*
X158219709Y-96352826D01*
X158250500Y-96158422D01*
X158250500Y-95961577D01*
X158219709Y-95767173D01*
X158173636Y-95625376D01*
X158158884Y-95579975D01*
X158158882Y-95579972D01*
X158158882Y-95579970D01*
X158069523Y-95404594D01*
X157953828Y-95245354D01*
X157814646Y-95106172D01*
X157655405Y-94990476D01*
X157579554Y-94951828D01*
X157480029Y-94901117D01*
X157292826Y-94840290D01*
X157098422Y-94809500D01*
X157098417Y-94809500D01*
X156901583Y-94809500D01*
X156901578Y-94809500D01*
X156707173Y-94840290D01*
X156519970Y-94901117D01*
X156344594Y-94990476D01*
X156321634Y-95007158D01*
X156185354Y-95106172D01*
X156185352Y-95106174D01*
X156185351Y-95106174D01*
X156046174Y-95245351D01*
X156046174Y-95245352D01*
X156046172Y-95245354D01*
X156021156Y-95279786D01*
X155930476Y-95404594D01*
X155841117Y-95579970D01*
X155780290Y-95767173D01*
X155749500Y-95961577D01*
X155250500Y-95961577D01*
X155219709Y-95767173D01*
X155173636Y-95625376D01*
X155158884Y-95579975D01*
X155158882Y-95579972D01*
X155158882Y-95579970D01*
X155069523Y-95404594D01*
X154953828Y-95245354D01*
X154814646Y-95106172D01*
X154655405Y-94990476D01*
X154579554Y-94951828D01*
X154480029Y-94901117D01*
X154292826Y-94840290D01*
X154098422Y-94809500D01*
X154098417Y-94809500D01*
X153901583Y-94809500D01*
X153901578Y-94809500D01*
X153707173Y-94840290D01*
X153519970Y-94901117D01*
X153344594Y-94990476D01*
X153321634Y-95007158D01*
X153185354Y-95106172D01*
X153185352Y-95106174D01*
X153185351Y-95106174D01*
X153046174Y-95245351D01*
X153046174Y-95245352D01*
X153046172Y-95245354D01*
X153021156Y-95279786D01*
X152930476Y-95404594D01*
X152841117Y-95579970D01*
X152780290Y-95767173D01*
X152749500Y-95961577D01*
X146596473Y-95961577D01*
X146504792Y-95869896D01*
X146504784Y-95869890D01*
X146340204Y-95750316D01*
X146297540Y-95694989D01*
X146291561Y-95625376D01*
X146324166Y-95563580D01*
X146340199Y-95549686D01*
X146504792Y-95430104D01*
X146655104Y-95279792D01*
X146655106Y-95279788D01*
X146655109Y-95279786D01*
X146780048Y-95107820D01*
X146780047Y-95107820D01*
X146780051Y-95107816D01*
X146876557Y-94918412D01*
X146942246Y-94716243D01*
X146975500Y-94506287D01*
X146975500Y-94293713D01*
X146942246Y-94083757D01*
X146876557Y-93881588D01*
X146780051Y-93692184D01*
X146780049Y-93692181D01*
X146780048Y-93692179D01*
X146655109Y-93520213D01*
X146504792Y-93369896D01*
X146504784Y-93369890D01*
X146340204Y-93250316D01*
X146297540Y-93194989D01*
X146291561Y-93125376D01*
X146324166Y-93063580D01*
X146340199Y-93049686D01*
X146504792Y-92930104D01*
X146655104Y-92779792D01*
X146655106Y-92779788D01*
X146655109Y-92779786D01*
X146780048Y-92607820D01*
X146780047Y-92607820D01*
X146780051Y-92607816D01*
X146876557Y-92418412D01*
X146942246Y-92216243D01*
X146975500Y-92006287D01*
X146975500Y-91793713D01*
X146942246Y-91583757D01*
X146876557Y-91381588D01*
X146780051Y-91192184D01*
X146780049Y-91192181D01*
X146780048Y-91192179D01*
X146655109Y-91020213D01*
X146504792Y-90869896D01*
X146504784Y-90869890D01*
X146340204Y-90750316D01*
X146297540Y-90694989D01*
X146291561Y-90625376D01*
X146324166Y-90563580D01*
X146340199Y-90549686D01*
X146504792Y-90430104D01*
X146655104Y-90279792D01*
X146655106Y-90279788D01*
X146655109Y-90279786D01*
X146780048Y-90107820D01*
X146780047Y-90107820D01*
X146780051Y-90107816D01*
X146876557Y-89918412D01*
X146942246Y-89716243D01*
X146975500Y-89506287D01*
X146975500Y-89293713D01*
X146942246Y-89083757D01*
X146876557Y-88881588D01*
X146780051Y-88692184D01*
X146780049Y-88692181D01*
X146780048Y-88692179D01*
X146655109Y-88520213D01*
X146504786Y-88369890D01*
X146332820Y-88244951D01*
X146143414Y-88148444D01*
X146143413Y-88148443D01*
X146143412Y-88148443D01*
X145941243Y-88082754D01*
X145941241Y-88082753D01*
X145941240Y-88082753D01*
X145779957Y-88057208D01*
X145731287Y-88049500D01*
X145268713Y-88049500D01*
X145220042Y-88057208D01*
X145058760Y-88082753D01*
X144856585Y-88148444D01*
X144667179Y-88244951D01*
X144495213Y-88369890D01*
X144344890Y-88520213D01*
X144219951Y-88692179D01*
X144123444Y-88881585D01*
X144057753Y-89083760D01*
X144034574Y-89230109D01*
X144024500Y-89293713D01*
X143300500Y-89293713D01*
X143300500Y-87743713D01*
X151849500Y-87743713D01*
X151849500Y-88256286D01*
X151878793Y-88441239D01*
X151882754Y-88466243D01*
X151900288Y-88520208D01*
X151948444Y-88668414D01*
X152044951Y-88857820D01*
X152169890Y-89029786D01*
X152320213Y-89180109D01*
X152492179Y-89305048D01*
X152492181Y-89305049D01*
X152492184Y-89305051D01*
X152681588Y-89401557D01*
X152883757Y-89467246D01*
X153093713Y-89500500D01*
X153093714Y-89500500D01*
X153306286Y-89500500D01*
X153306287Y-89500500D01*
X153516243Y-89467246D01*
X153718412Y-89401557D01*
X153907816Y-89305051D01*
X154012588Y-89228929D01*
X154078391Y-89205451D01*
X154146445Y-89221276D01*
X154173152Y-89241568D01*
X154787855Y-89856272D01*
X154787861Y-89856277D01*
X154894404Y-89927466D01*
X154963751Y-89956189D01*
X155012786Y-89976501D01*
X155012789Y-89976501D01*
X155012790Y-89976502D01*
X155138458Y-90001500D01*
X155138461Y-90001500D01*
X155138462Y-90001500D01*
X155266599Y-90001500D01*
X156021672Y-90001500D01*
X156088711Y-90021185D01*
X156109353Y-90037819D01*
X160562181Y-94490646D01*
X160576884Y-94517573D01*
X160593477Y-94543392D01*
X160594368Y-94549592D01*
X160595666Y-94551969D01*
X160598500Y-94578327D01*
X160598500Y-94768939D01*
X160578815Y-94835978D01*
X160526011Y-94881733D01*
X160456853Y-94891677D01*
X160436182Y-94886870D01*
X160292828Y-94840291D01*
X160098422Y-94809500D01*
X160098417Y-94809500D01*
X159901583Y-94809500D01*
X159901578Y-94809500D01*
X159707173Y-94840290D01*
X159519970Y-94901117D01*
X159344594Y-94990476D01*
X159321634Y-95007158D01*
X159185354Y-95106172D01*
X159185352Y-95106174D01*
X159185351Y-95106174D01*
X159046174Y-95245351D01*
X159046174Y-95245352D01*
X159046172Y-95245354D01*
X159021156Y-95279786D01*
X158930476Y-95404594D01*
X158841117Y-95579970D01*
X158780290Y-95767173D01*
X158749500Y-95961577D01*
X158749500Y-96158422D01*
X158780290Y-96352826D01*
X158841117Y-96540029D01*
X158930476Y-96715405D01*
X159046172Y-96874646D01*
X159185354Y-97013828D01*
X159344595Y-97129524D01*
X159426262Y-97171135D01*
X159519970Y-97218882D01*
X159519972Y-97218882D01*
X159519975Y-97218884D01*
X159620317Y-97251487D01*
X159707173Y-97279709D01*
X159901578Y-97310500D01*
X159901583Y-97310500D01*
X160098422Y-97310500D01*
X160292826Y-97279709D01*
X160436183Y-97233128D01*
X160464302Y-97232325D01*
X160492147Y-97228322D01*
X160498758Y-97231341D01*
X160506022Y-97231134D01*
X160530110Y-97245659D01*
X160555703Y-97257347D01*
X160559631Y-97263460D01*
X160565855Y-97267213D01*
X160578268Y-97292459D01*
X160593477Y-97316125D01*
X160594953Y-97326394D01*
X160596684Y-97329914D01*
X160598500Y-97351060D01*
X160598500Y-97490191D01*
X160578815Y-97557230D01*
X160562181Y-97577872D01*
X160343489Y-97796563D01*
X160282166Y-97830048D01*
X160236410Y-97831355D01*
X160098422Y-97809500D01*
X160098417Y-97809500D01*
X159901583Y-97809500D01*
X159901578Y-97809500D01*
X159707173Y-97840290D01*
X159519970Y-97901117D01*
X159344594Y-97990476D01*
X159293190Y-98027824D01*
X159185354Y-98106172D01*
X159185352Y-98106174D01*
X159185351Y-98106174D01*
X159046174Y-98245351D01*
X159046174Y-98245352D01*
X159046172Y-98245354D01*
X158996485Y-98313741D01*
X158930476Y-98404594D01*
X158841117Y-98579970D01*
X158780290Y-98767173D01*
X158749500Y-98961577D01*
X158749500Y-99158422D01*
X158780290Y-99352826D01*
X158841117Y-99540029D01*
X158891937Y-99639768D01*
X158930476Y-99715405D01*
X159046172Y-99874646D01*
X159185354Y-100013828D01*
X159344595Y-100129524D01*
X159427455Y-100171743D01*
X159519970Y-100218882D01*
X159519972Y-100218882D01*
X159519975Y-100218884D01*
X159620317Y-100251487D01*
X159707173Y-100279709D01*
X159901578Y-100310500D01*
X159901583Y-100310500D01*
X160098422Y-100310500D01*
X160292826Y-100279709D01*
X160294328Y-100279221D01*
X160480025Y-100218884D01*
X160655405Y-100129524D01*
X160814646Y-100013828D01*
X160953828Y-99874646D01*
X161069524Y-99715405D01*
X161158884Y-99540025D01*
X161219709Y-99352826D01*
X161233029Y-99268725D01*
X161250500Y-99158422D01*
X161250500Y-98961577D01*
X161228644Y-98823587D01*
X161229345Y-98818161D01*
X161227433Y-98813035D01*
X161233774Y-98783884D01*
X161237598Y-98754294D01*
X161241430Y-98748688D01*
X161242285Y-98744762D01*
X161263432Y-98716512D01*
X161412321Y-98567623D01*
X161473641Y-98534141D01*
X161543333Y-98539125D01*
X161587680Y-98567626D01*
X161736563Y-98716509D01*
X161770048Y-98777832D01*
X161771355Y-98823588D01*
X161749500Y-98961577D01*
X161749500Y-99158422D01*
X161780290Y-99352826D01*
X161841117Y-99540029D01*
X161891937Y-99639768D01*
X161930476Y-99715405D01*
X162046172Y-99874646D01*
X162185354Y-100013828D01*
X162344595Y-100129524D01*
X162427455Y-100171743D01*
X162519970Y-100218882D01*
X162519972Y-100218882D01*
X162519975Y-100218884D01*
X162620317Y-100251487D01*
X162707173Y-100279709D01*
X162901578Y-100310500D01*
X162901583Y-100310500D01*
X163098422Y-100310500D01*
X163292826Y-100279709D01*
X163294328Y-100279221D01*
X163480025Y-100218884D01*
X163655405Y-100129524D01*
X163814646Y-100013828D01*
X163953828Y-99874646D01*
X164069524Y-99715405D01*
X164158884Y-99540025D01*
X164219709Y-99352826D01*
X164233029Y-99268725D01*
X164250500Y-99158422D01*
X164250500Y-98961577D01*
X164749500Y-98961577D01*
X164749500Y-99158422D01*
X164780290Y-99352826D01*
X164841117Y-99540029D01*
X164891937Y-99639768D01*
X164930476Y-99715405D01*
X165046172Y-99874646D01*
X165185354Y-100013828D01*
X165344595Y-100129524D01*
X165427455Y-100171743D01*
X165519970Y-100218882D01*
X165519972Y-100218882D01*
X165519975Y-100218884D01*
X165620317Y-100251487D01*
X165707173Y-100279709D01*
X165901578Y-100310500D01*
X165901583Y-100310500D01*
X166098422Y-100310500D01*
X166292826Y-100279709D01*
X166294328Y-100279221D01*
X166480025Y-100218884D01*
X166655405Y-100129524D01*
X166814646Y-100013828D01*
X166953828Y-99874646D01*
X167069524Y-99715405D01*
X167158884Y-99540025D01*
X167219709Y-99352826D01*
X167233029Y-99268725D01*
X167250500Y-99158422D01*
X167250500Y-98961577D01*
X167219709Y-98767173D01*
X167158882Y-98579970D01*
X167107917Y-98479946D01*
X167069524Y-98404595D01*
X166953828Y-98245354D01*
X166814646Y-98106172D01*
X166655405Y-97990476D01*
X166594515Y-97959451D01*
X166480029Y-97901117D01*
X166292826Y-97840290D01*
X166098422Y-97809500D01*
X166098417Y-97809500D01*
X165901583Y-97809500D01*
X165901578Y-97809500D01*
X165707173Y-97840290D01*
X165519970Y-97901117D01*
X165344594Y-97990476D01*
X165293190Y-98027824D01*
X165185354Y-98106172D01*
X165185352Y-98106174D01*
X165185351Y-98106174D01*
X165046174Y-98245351D01*
X165046174Y-98245352D01*
X165046172Y-98245354D01*
X164996485Y-98313741D01*
X164930476Y-98404594D01*
X164841117Y-98579970D01*
X164780290Y-98767173D01*
X164749500Y-98961577D01*
X164250500Y-98961577D01*
X164219709Y-98767173D01*
X164158882Y-98579970D01*
X164107917Y-98479946D01*
X164069524Y-98404595D01*
X163953828Y-98245354D01*
X163814646Y-98106172D01*
X163655405Y-97990476D01*
X163594515Y-97959451D01*
X163480029Y-97901117D01*
X163292826Y-97840290D01*
X163098422Y-97809500D01*
X163098417Y-97809500D01*
X162901583Y-97809500D01*
X162901578Y-97809500D01*
X162763588Y-97831355D01*
X162694294Y-97822400D01*
X162656509Y-97796563D01*
X162436819Y-97576873D01*
X162422115Y-97549945D01*
X162405523Y-97524127D01*
X162404631Y-97517926D01*
X162403334Y-97515550D01*
X162400500Y-97489192D01*
X162400500Y-97350735D01*
X162420185Y-97283696D01*
X162472989Y-97237941D01*
X162542147Y-97227997D01*
X162562808Y-97232801D01*
X162670132Y-97267673D01*
X162707173Y-97279709D01*
X162901578Y-97310500D01*
X162901583Y-97310500D01*
X163098422Y-97310500D01*
X163292826Y-97279709D01*
X163480025Y-97218884D01*
X163655405Y-97129524D01*
X163814646Y-97013828D01*
X163953828Y-96874646D01*
X164069524Y-96715405D01*
X164158884Y-96540025D01*
X164219709Y-96352826D01*
X164250500Y-96158422D01*
X164250500Y-95961577D01*
X164749500Y-95961577D01*
X164749500Y-96158422D01*
X164780290Y-96352826D01*
X164841117Y-96540029D01*
X164930476Y-96715405D01*
X165046172Y-96874646D01*
X165185354Y-97013828D01*
X165344595Y-97129524D01*
X165426262Y-97171135D01*
X165519970Y-97218882D01*
X165519972Y-97218882D01*
X165519975Y-97218884D01*
X165620317Y-97251487D01*
X165707173Y-97279709D01*
X165901578Y-97310500D01*
X165901583Y-97310500D01*
X166098422Y-97310500D01*
X166292826Y-97279709D01*
X166480025Y-97218884D01*
X166655405Y-97129524D01*
X166814646Y-97013828D01*
X166953828Y-96874646D01*
X167069524Y-96715405D01*
X167158884Y-96540025D01*
X167219709Y-96352826D01*
X167250500Y-96158422D01*
X167250500Y-95961577D01*
X167219709Y-95767173D01*
X167173636Y-95625376D01*
X167158884Y-95579975D01*
X167158882Y-95579972D01*
X167158882Y-95579970D01*
X167069523Y-95404594D01*
X166953828Y-95245354D01*
X166814646Y-95106172D01*
X166655405Y-94990476D01*
X166579554Y-94951828D01*
X166480029Y-94901117D01*
X166292826Y-94840290D01*
X166098422Y-94809500D01*
X166098417Y-94809500D01*
X165901583Y-94809500D01*
X165901578Y-94809500D01*
X165707173Y-94840290D01*
X165519970Y-94901117D01*
X165344594Y-94990476D01*
X165321634Y-95007158D01*
X165185354Y-95106172D01*
X165185352Y-95106174D01*
X165185351Y-95106174D01*
X165046174Y-95245351D01*
X165046174Y-95245352D01*
X165046172Y-95245354D01*
X165021156Y-95279786D01*
X164930476Y-95404594D01*
X164841117Y-95579970D01*
X164780290Y-95767173D01*
X164749500Y-95961577D01*
X164250500Y-95961577D01*
X164219709Y-95767173D01*
X164173636Y-95625376D01*
X164158884Y-95579975D01*
X164158882Y-95579972D01*
X164158882Y-95579970D01*
X164069523Y-95404594D01*
X163953828Y-95245354D01*
X163814646Y-95106172D01*
X163655405Y-94990476D01*
X163579554Y-94951828D01*
X163480029Y-94901117D01*
X163292826Y-94840290D01*
X163098422Y-94809500D01*
X163098417Y-94809500D01*
X162901583Y-94809500D01*
X162901578Y-94809500D01*
X162707172Y-94840291D01*
X162707169Y-94840291D01*
X162562818Y-94887195D01*
X162492977Y-94889190D01*
X162433144Y-94853110D01*
X162402316Y-94790409D01*
X162400500Y-94769264D01*
X162400500Y-93985928D01*
X162375502Y-93860261D01*
X162375501Y-93860260D01*
X162375501Y-93860256D01*
X162326465Y-93741873D01*
X162285828Y-93681055D01*
X162270552Y-93658193D01*
X162255279Y-93635333D01*
X157071348Y-88451402D01*
X157037863Y-88390079D01*
X157036556Y-88344323D01*
X157036669Y-88343604D01*
X157050500Y-88256287D01*
X157050500Y-87743713D01*
X159449500Y-87743713D01*
X159449500Y-88256286D01*
X159478793Y-88441239D01*
X159482754Y-88466243D01*
X159500288Y-88520208D01*
X159548444Y-88668414D01*
X159644951Y-88857820D01*
X159769890Y-89029786D01*
X159920213Y-89180109D01*
X160092179Y-89305048D01*
X160092181Y-89305049D01*
X160092184Y-89305051D01*
X160281588Y-89401557D01*
X160483757Y-89467246D01*
X160693713Y-89500500D01*
X160693714Y-89500500D01*
X160906286Y-89500500D01*
X160906287Y-89500500D01*
X161116243Y-89467246D01*
X161218369Y-89434062D01*
X161288209Y-89432068D01*
X161344367Y-89464313D01*
X161885330Y-90005276D01*
X161910128Y-90021845D01*
X161991873Y-90076465D01*
X162110256Y-90125501D01*
X162110260Y-90125501D01*
X162110261Y-90125502D01*
X162235928Y-90150500D01*
X162235931Y-90150500D01*
X164979192Y-90150500D01*
X165046231Y-90170185D01*
X165066873Y-90186819D01*
X169560894Y-94680840D01*
X169594379Y-94742163D01*
X169589395Y-94811855D01*
X169547523Y-94867788D01*
X169482059Y-94892205D01*
X169434894Y-94886452D01*
X169292826Y-94840290D01*
X169098422Y-94809500D01*
X169098417Y-94809500D01*
X168901583Y-94809500D01*
X168901578Y-94809500D01*
X168707173Y-94840290D01*
X168519970Y-94901117D01*
X168344594Y-94990476D01*
X168321634Y-95007158D01*
X168185354Y-95106172D01*
X168185352Y-95106174D01*
X168185351Y-95106174D01*
X168046174Y-95245351D01*
X168046174Y-95245352D01*
X168046172Y-95245354D01*
X168021156Y-95279786D01*
X167930476Y-95404594D01*
X167841117Y-95579970D01*
X167780290Y-95767173D01*
X167749500Y-95961577D01*
X167749500Y-96158422D01*
X167780290Y-96352826D01*
X167841117Y-96540029D01*
X167930476Y-96715405D01*
X168046172Y-96874646D01*
X168185354Y-97013828D01*
X168344595Y-97129524D01*
X168426262Y-97171135D01*
X168519970Y-97218882D01*
X168519972Y-97218882D01*
X168519975Y-97218884D01*
X168620317Y-97251487D01*
X168707173Y-97279709D01*
X168901578Y-97310500D01*
X168901583Y-97310500D01*
X169098422Y-97310500D01*
X169292826Y-97279709D01*
X169480025Y-97218884D01*
X169483939Y-97216890D01*
X169486709Y-97215478D01*
X169655405Y-97129524D01*
X169752614Y-97058896D01*
X169818420Y-97035416D01*
X169886474Y-97051241D01*
X169935169Y-97101346D01*
X169949500Y-97159214D01*
X169949500Y-97960785D01*
X169929815Y-98027824D01*
X169877011Y-98073579D01*
X169807853Y-98083523D01*
X169752614Y-98061103D01*
X169655405Y-97990476D01*
X169480029Y-97901117D01*
X169292826Y-97840290D01*
X169098422Y-97809500D01*
X169098417Y-97809500D01*
X168901583Y-97809500D01*
X168901578Y-97809500D01*
X168707173Y-97840290D01*
X168519970Y-97901117D01*
X168344594Y-97990476D01*
X168293190Y-98027824D01*
X168185354Y-98106172D01*
X168185352Y-98106174D01*
X168185351Y-98106174D01*
X168046174Y-98245351D01*
X168046174Y-98245352D01*
X168046172Y-98245354D01*
X167996485Y-98313741D01*
X167930476Y-98404594D01*
X167841117Y-98579970D01*
X167780290Y-98767173D01*
X167749500Y-98961577D01*
X167749500Y-99158422D01*
X167780290Y-99352826D01*
X167841117Y-99540029D01*
X167891937Y-99639768D01*
X167930476Y-99715405D01*
X168046172Y-99874646D01*
X168185354Y-100013828D01*
X168344595Y-100129524D01*
X168427455Y-100171743D01*
X168519970Y-100218882D01*
X168519972Y-100218882D01*
X168519975Y-100218884D01*
X168620317Y-100251487D01*
X168707173Y-100279709D01*
X168901578Y-100310500D01*
X168901583Y-100310500D01*
X169098422Y-100310500D01*
X169292826Y-100279709D01*
X169294328Y-100279221D01*
X169480025Y-100218884D01*
X169655405Y-100129524D01*
X169814646Y-100013828D01*
X169953828Y-99874646D01*
X170069524Y-99715405D01*
X170130528Y-99595676D01*
X170178499Y-99544883D01*
X170246320Y-99528087D01*
X170288461Y-99537411D01*
X170366503Y-99569737D01*
X170521153Y-99600499D01*
X170521156Y-99600500D01*
X170521158Y-99600500D01*
X170678843Y-99600500D01*
X170698632Y-99596563D01*
X170762098Y-99583939D01*
X170831688Y-99590166D01*
X170886866Y-99633028D01*
X170896772Y-99649259D01*
X170930476Y-99715405D01*
X171046172Y-99874646D01*
X171185354Y-100013828D01*
X171344595Y-100129524D01*
X171427455Y-100171743D01*
X171519970Y-100218882D01*
X171519972Y-100218882D01*
X171519975Y-100218884D01*
X171620317Y-100251487D01*
X171707173Y-100279709D01*
X171901578Y-100310500D01*
X171901583Y-100310500D01*
X172098422Y-100310500D01*
X172292826Y-100279709D01*
X172294328Y-100279221D01*
X172480025Y-100218884D01*
X172655405Y-100129524D01*
X172814646Y-100013828D01*
X172953828Y-99874646D01*
X173069524Y-99715405D01*
X173158884Y-99540025D01*
X173219709Y-99352826D01*
X173233029Y-99268725D01*
X173250500Y-99158422D01*
X173250500Y-98961577D01*
X173749500Y-98961577D01*
X173749500Y-99158422D01*
X173780290Y-99352826D01*
X173841117Y-99540029D01*
X173891937Y-99639768D01*
X173930476Y-99715405D01*
X174046172Y-99874646D01*
X174185354Y-100013828D01*
X174344595Y-100129524D01*
X174427455Y-100171743D01*
X174519970Y-100218882D01*
X174519972Y-100218882D01*
X174519975Y-100218884D01*
X174620317Y-100251487D01*
X174707173Y-100279709D01*
X174901578Y-100310500D01*
X174901583Y-100310500D01*
X175098422Y-100310500D01*
X175292826Y-100279709D01*
X175294328Y-100279221D01*
X175480025Y-100218884D01*
X175655405Y-100129524D01*
X175814646Y-100013828D01*
X175953828Y-99874646D01*
X176069524Y-99715405D01*
X176158884Y-99540025D01*
X176219709Y-99352826D01*
X176233029Y-99268725D01*
X176250500Y-99158422D01*
X176250500Y-98961617D01*
X176750000Y-98961617D01*
X176750000Y-99158382D01*
X176780778Y-99352705D01*
X176841581Y-99539835D01*
X176930905Y-99715145D01*
X176956319Y-99750125D01*
X176956320Y-99750125D01*
X177508871Y-99197574D01*
X177524755Y-99256853D01*
X177591898Y-99373147D01*
X177686853Y-99468102D01*
X177803147Y-99535245D01*
X177862424Y-99551128D01*
X177309873Y-100103677D01*
X177309873Y-100103678D01*
X177344858Y-100129096D01*
X177520164Y-100218418D01*
X177707294Y-100279221D01*
X177901618Y-100310000D01*
X178098382Y-100310000D01*
X178292705Y-100279221D01*
X178479835Y-100218418D01*
X178655143Y-100129095D01*
X178690125Y-100103678D01*
X178690126Y-100103678D01*
X178137575Y-99551127D01*
X178196853Y-99535245D01*
X178313147Y-99468102D01*
X178408102Y-99373147D01*
X178475245Y-99256853D01*
X178491127Y-99197575D01*
X179043678Y-99750126D01*
X179043678Y-99750125D01*
X179069095Y-99715143D01*
X179158418Y-99539835D01*
X179219221Y-99352705D01*
X179250000Y-99158382D01*
X179250000Y-98961617D01*
X179750000Y-98961617D01*
X179750000Y-99158382D01*
X179780778Y-99352705D01*
X179841581Y-99539835D01*
X179930905Y-99715145D01*
X179956319Y-99750125D01*
X179956320Y-99750125D01*
X180508871Y-99197574D01*
X180524755Y-99256853D01*
X180591898Y-99373147D01*
X180686853Y-99468102D01*
X180803147Y-99535245D01*
X180862424Y-99551128D01*
X180309873Y-100103677D01*
X180309873Y-100103678D01*
X180344858Y-100129096D01*
X180520164Y-100218418D01*
X180707294Y-100279221D01*
X180901618Y-100310000D01*
X181098382Y-100310000D01*
X181292705Y-100279221D01*
X181479835Y-100218418D01*
X181655143Y-100129095D01*
X181690125Y-100103678D01*
X181690126Y-100103678D01*
X181137575Y-99551127D01*
X181196853Y-99535245D01*
X181313147Y-99468102D01*
X181408102Y-99373147D01*
X181475245Y-99256853D01*
X181491127Y-99197575D01*
X182043678Y-99750126D01*
X182043678Y-99750125D01*
X182069095Y-99715143D01*
X182158418Y-99539835D01*
X182219221Y-99352705D01*
X182250000Y-99158382D01*
X182250000Y-98961617D01*
X182249994Y-98961577D01*
X182749500Y-98961577D01*
X182749500Y-99158422D01*
X182780290Y-99352826D01*
X182841117Y-99540029D01*
X182891937Y-99639768D01*
X182930476Y-99715405D01*
X183046172Y-99874646D01*
X183185354Y-100013828D01*
X183344595Y-100129524D01*
X183427455Y-100171743D01*
X183519970Y-100218882D01*
X183519972Y-100218882D01*
X183519975Y-100218884D01*
X183620317Y-100251487D01*
X183707173Y-100279709D01*
X183901578Y-100310500D01*
X183901583Y-100310500D01*
X184098422Y-100310500D01*
X184292826Y-100279709D01*
X184294328Y-100279221D01*
X184480025Y-100218884D01*
X184655405Y-100129524D01*
X184814646Y-100013828D01*
X184953828Y-99874646D01*
X185069524Y-99715405D01*
X185158884Y-99540025D01*
X185219709Y-99352826D01*
X185233029Y-99268725D01*
X185250500Y-99158422D01*
X185250500Y-98961577D01*
X185749500Y-98961577D01*
X185749500Y-99158422D01*
X185780290Y-99352826D01*
X185841117Y-99540029D01*
X185891937Y-99639768D01*
X185930476Y-99715405D01*
X186046172Y-99874646D01*
X186185354Y-100013828D01*
X186344595Y-100129524D01*
X186427455Y-100171743D01*
X186519970Y-100218882D01*
X186519972Y-100218882D01*
X186519975Y-100218884D01*
X186620317Y-100251487D01*
X186707173Y-100279709D01*
X186901578Y-100310500D01*
X186901583Y-100310500D01*
X187098422Y-100310500D01*
X187292826Y-100279709D01*
X187294328Y-100279221D01*
X187480025Y-100218884D01*
X187655405Y-100129524D01*
X187814646Y-100013828D01*
X187903382Y-99925092D01*
X189239500Y-99925092D01*
X189239500Y-100074907D01*
X189268723Y-100221822D01*
X189268725Y-100221830D01*
X189326051Y-100360229D01*
X189326056Y-100360238D01*
X189409280Y-100484790D01*
X189409283Y-100484794D01*
X189515205Y-100590716D01*
X189515209Y-100590719D01*
X189639761Y-100673943D01*
X189639770Y-100673948D01*
X189661030Y-100682754D01*
X189778170Y-100731275D01*
X189925092Y-100760499D01*
X189925096Y-100760500D01*
X189925097Y-100760500D01*
X190074904Y-100760500D01*
X190074905Y-100760499D01*
X190221830Y-100731275D01*
X190360232Y-100673947D01*
X190484791Y-100590719D01*
X190590719Y-100484791D01*
X190673947Y-100360232D01*
X190731275Y-100221830D01*
X190760500Y-100074903D01*
X190760500Y-99925097D01*
X190731275Y-99778170D01*
X190673947Y-99639768D01*
X190673946Y-99639767D01*
X190673943Y-99639761D01*
X190590719Y-99515209D01*
X190590716Y-99515205D01*
X190484794Y-99409283D01*
X190484790Y-99409280D01*
X190360238Y-99326056D01*
X190360229Y-99326051D01*
X190221830Y-99268725D01*
X190221822Y-99268723D01*
X190074907Y-99239500D01*
X190074903Y-99239500D01*
X189925097Y-99239500D01*
X189925092Y-99239500D01*
X189778177Y-99268723D01*
X189778169Y-99268725D01*
X189639770Y-99326051D01*
X189639761Y-99326056D01*
X189515209Y-99409280D01*
X189515205Y-99409283D01*
X189409283Y-99515205D01*
X189409280Y-99515209D01*
X189326056Y-99639761D01*
X189326051Y-99639770D01*
X189268725Y-99778169D01*
X189268723Y-99778177D01*
X189239500Y-99925092D01*
X187903382Y-99925092D01*
X187953828Y-99874646D01*
X188069524Y-99715405D01*
X188158884Y-99540025D01*
X188219709Y-99352826D01*
X188233029Y-99268725D01*
X188250500Y-99158422D01*
X188250500Y-98961577D01*
X188219709Y-98767173D01*
X188158882Y-98579970D01*
X188107917Y-98479946D01*
X188069524Y-98404595D01*
X187953828Y-98245354D01*
X187814646Y-98106172D01*
X187655405Y-97990476D01*
X187594515Y-97959451D01*
X187480029Y-97901117D01*
X187292826Y-97840290D01*
X187098422Y-97809500D01*
X187098417Y-97809500D01*
X186901583Y-97809500D01*
X186901578Y-97809500D01*
X186707173Y-97840290D01*
X186519970Y-97901117D01*
X186344594Y-97990476D01*
X186293190Y-98027824D01*
X186185354Y-98106172D01*
X186185352Y-98106174D01*
X186185351Y-98106174D01*
X186046174Y-98245351D01*
X186046174Y-98245352D01*
X186046172Y-98245354D01*
X185996485Y-98313741D01*
X185930476Y-98404594D01*
X185841117Y-98579970D01*
X185780290Y-98767173D01*
X185749500Y-98961577D01*
X185250500Y-98961577D01*
X185219709Y-98767173D01*
X185158882Y-98579970D01*
X185107917Y-98479946D01*
X185069524Y-98404595D01*
X184953828Y-98245354D01*
X184814646Y-98106172D01*
X184655405Y-97990476D01*
X184594515Y-97959451D01*
X184480029Y-97901117D01*
X184292826Y-97840290D01*
X184098422Y-97809500D01*
X184098417Y-97809500D01*
X183901583Y-97809500D01*
X183901578Y-97809500D01*
X183707173Y-97840290D01*
X183519970Y-97901117D01*
X183344594Y-97990476D01*
X183293190Y-98027824D01*
X183185354Y-98106172D01*
X183185352Y-98106174D01*
X183185351Y-98106174D01*
X183046174Y-98245351D01*
X183046174Y-98245352D01*
X183046172Y-98245354D01*
X182996485Y-98313741D01*
X182930476Y-98404594D01*
X182841117Y-98579970D01*
X182780290Y-98767173D01*
X182749500Y-98961577D01*
X182249994Y-98961577D01*
X182219221Y-98767294D01*
X182158418Y-98580164D01*
X182069096Y-98404858D01*
X182043678Y-98369873D01*
X182043677Y-98369873D01*
X181491127Y-98922423D01*
X181475245Y-98863147D01*
X181408102Y-98746853D01*
X181313147Y-98651898D01*
X181196853Y-98584755D01*
X181137574Y-98568871D01*
X181690125Y-98016320D01*
X181690125Y-98016319D01*
X181655145Y-97990905D01*
X181479835Y-97901581D01*
X181292705Y-97840778D01*
X181098382Y-97810000D01*
X180901618Y-97810000D01*
X180707294Y-97840778D01*
X180520161Y-97901582D01*
X180344863Y-97990899D01*
X180344859Y-97990902D01*
X180309873Y-98016320D01*
X180309872Y-98016320D01*
X180862425Y-98568871D01*
X180803147Y-98584755D01*
X180686853Y-98651898D01*
X180591898Y-98746853D01*
X180524755Y-98863147D01*
X180508871Y-98922424D01*
X179956320Y-98369872D01*
X179956320Y-98369873D01*
X179930902Y-98404859D01*
X179930899Y-98404863D01*
X179841582Y-98580161D01*
X179780778Y-98767294D01*
X179750000Y-98961617D01*
X179250000Y-98961617D01*
X179219221Y-98767294D01*
X179158418Y-98580164D01*
X179069096Y-98404858D01*
X179043678Y-98369873D01*
X179043677Y-98369873D01*
X178491127Y-98922423D01*
X178475245Y-98863147D01*
X178408102Y-98746853D01*
X178313147Y-98651898D01*
X178196853Y-98584755D01*
X178137574Y-98568871D01*
X178690125Y-98016320D01*
X178690125Y-98016319D01*
X178655145Y-97990905D01*
X178479835Y-97901581D01*
X178292705Y-97840778D01*
X178098382Y-97810000D01*
X177901618Y-97810000D01*
X177707294Y-97840778D01*
X177520161Y-97901582D01*
X177344863Y-97990899D01*
X177344859Y-97990902D01*
X177309873Y-98016320D01*
X177309872Y-98016320D01*
X177862425Y-98568871D01*
X177803147Y-98584755D01*
X177686853Y-98651898D01*
X177591898Y-98746853D01*
X177524755Y-98863147D01*
X177508871Y-98922424D01*
X176956320Y-98369872D01*
X176956320Y-98369873D01*
X176930902Y-98404859D01*
X176930899Y-98404863D01*
X176841582Y-98580161D01*
X176780778Y-98767294D01*
X176750000Y-98961617D01*
X176250500Y-98961617D01*
X176250500Y-98961577D01*
X176219709Y-98767173D01*
X176158882Y-98579970D01*
X176107917Y-98479946D01*
X176069524Y-98404595D01*
X175953828Y-98245354D01*
X175814646Y-98106172D01*
X175655405Y-97990476D01*
X175594515Y-97959451D01*
X175480029Y-97901117D01*
X175292826Y-97840290D01*
X175098422Y-97809500D01*
X175098417Y-97809500D01*
X174901583Y-97809500D01*
X174901578Y-97809500D01*
X174707173Y-97840290D01*
X174519970Y-97901117D01*
X174344594Y-97990476D01*
X174293190Y-98027824D01*
X174185354Y-98106172D01*
X174185352Y-98106174D01*
X174185351Y-98106174D01*
X174046174Y-98245351D01*
X174046174Y-98245352D01*
X174046172Y-98245354D01*
X173996485Y-98313741D01*
X173930476Y-98404594D01*
X173841117Y-98579970D01*
X173780290Y-98767173D01*
X173749500Y-98961577D01*
X173250500Y-98961577D01*
X173219709Y-98767173D01*
X173158882Y-98579970D01*
X173107917Y-98479946D01*
X173069524Y-98404595D01*
X172953828Y-98245354D01*
X172814646Y-98106172D01*
X172655405Y-97990476D01*
X172594515Y-97959451D01*
X172480029Y-97901117D01*
X172292826Y-97840290D01*
X172098422Y-97809500D01*
X172098417Y-97809500D01*
X171901583Y-97809500D01*
X171901578Y-97809500D01*
X171707173Y-97840290D01*
X171519970Y-97901117D01*
X171430795Y-97946555D01*
X171362125Y-97959451D01*
X171297385Y-97933174D01*
X171257128Y-97876068D01*
X171250500Y-97836070D01*
X171250500Y-97283929D01*
X171270185Y-97216890D01*
X171322989Y-97171135D01*
X171392147Y-97161191D01*
X171430795Y-97173445D01*
X171519966Y-97218880D01*
X171519964Y-97218880D01*
X171519972Y-97218882D01*
X171519975Y-97218884D01*
X171626153Y-97253383D01*
X171707173Y-97279709D01*
X171901578Y-97310500D01*
X171901583Y-97310500D01*
X172098422Y-97310500D01*
X172292826Y-97279709D01*
X172480025Y-97218884D01*
X172655405Y-97129524D01*
X172814646Y-97013828D01*
X172953828Y-96874646D01*
X173069524Y-96715405D01*
X173158884Y-96540025D01*
X173219709Y-96352826D01*
X173250500Y-96158422D01*
X173250500Y-95961577D01*
X173749500Y-95961577D01*
X173749500Y-96158422D01*
X173780290Y-96352826D01*
X173841117Y-96540029D01*
X173930476Y-96715405D01*
X174046172Y-96874646D01*
X174185354Y-97013828D01*
X174344595Y-97129524D01*
X174426262Y-97171135D01*
X174519970Y-97218882D01*
X174519972Y-97218882D01*
X174519975Y-97218884D01*
X174620317Y-97251487D01*
X174707173Y-97279709D01*
X174901578Y-97310500D01*
X174901583Y-97310500D01*
X175098422Y-97310500D01*
X175292826Y-97279709D01*
X175480025Y-97218884D01*
X175655405Y-97129524D01*
X175814646Y-97013828D01*
X175953828Y-96874646D01*
X176069524Y-96715405D01*
X176158884Y-96540025D01*
X176219709Y-96352826D01*
X176250500Y-96158422D01*
X176250500Y-95961577D01*
X176749500Y-95961577D01*
X176749500Y-96158422D01*
X176780290Y-96352826D01*
X176841117Y-96540029D01*
X176930476Y-96715405D01*
X177046172Y-96874646D01*
X177185354Y-97013828D01*
X177344595Y-97129524D01*
X177426262Y-97171135D01*
X177519970Y-97218882D01*
X177519972Y-97218882D01*
X177519975Y-97218884D01*
X177620317Y-97251487D01*
X177707173Y-97279709D01*
X177901578Y-97310500D01*
X177901583Y-97310500D01*
X178098422Y-97310500D01*
X178292826Y-97279709D01*
X178480025Y-97218884D01*
X178655405Y-97129524D01*
X178814646Y-97013828D01*
X178953828Y-96874646D01*
X179069524Y-96715405D01*
X179158884Y-96540025D01*
X179219709Y-96352826D01*
X179250500Y-96158422D01*
X179250500Y-95961577D01*
X179749500Y-95961577D01*
X179749500Y-96158422D01*
X179780290Y-96352826D01*
X179841117Y-96540029D01*
X179930476Y-96715405D01*
X180046172Y-96874646D01*
X180185354Y-97013828D01*
X180344595Y-97129524D01*
X180426262Y-97171135D01*
X180519970Y-97218882D01*
X180519972Y-97218882D01*
X180519975Y-97218884D01*
X180620317Y-97251487D01*
X180707173Y-97279709D01*
X180901578Y-97310500D01*
X180901583Y-97310500D01*
X181098422Y-97310500D01*
X181292826Y-97279709D01*
X181480025Y-97218884D01*
X181655405Y-97129524D01*
X181814646Y-97013828D01*
X181953828Y-96874646D01*
X182069524Y-96715405D01*
X182158884Y-96540025D01*
X182219709Y-96352826D01*
X182250500Y-96158422D01*
X182250500Y-95961577D01*
X182749500Y-95961577D01*
X182749500Y-96158422D01*
X182780290Y-96352826D01*
X182841117Y-96540029D01*
X182930476Y-96715405D01*
X183046172Y-96874646D01*
X183185354Y-97013828D01*
X183344595Y-97129524D01*
X183426262Y-97171135D01*
X183519970Y-97218882D01*
X183519972Y-97218882D01*
X183519975Y-97218884D01*
X183620317Y-97251487D01*
X183707173Y-97279709D01*
X183901578Y-97310500D01*
X183901583Y-97310500D01*
X184098422Y-97310500D01*
X184292826Y-97279709D01*
X184480025Y-97218884D01*
X184655405Y-97129524D01*
X184814646Y-97013828D01*
X184953828Y-96874646D01*
X185069524Y-96715405D01*
X185158884Y-96540025D01*
X185219709Y-96352826D01*
X185250500Y-96158422D01*
X185250500Y-95961577D01*
X185749500Y-95961577D01*
X185749500Y-96158422D01*
X185780290Y-96352826D01*
X185841117Y-96540029D01*
X185930476Y-96715405D01*
X186046172Y-96874646D01*
X186185354Y-97013828D01*
X186344595Y-97129524D01*
X186426262Y-97171135D01*
X186519970Y-97218882D01*
X186519972Y-97218882D01*
X186519975Y-97218884D01*
X186620317Y-97251487D01*
X186707173Y-97279709D01*
X186901578Y-97310500D01*
X186901583Y-97310500D01*
X187098422Y-97310500D01*
X187292826Y-97279709D01*
X187480025Y-97218884D01*
X187655405Y-97129524D01*
X187814646Y-97013828D01*
X187953828Y-96874646D01*
X188069524Y-96715405D01*
X188158884Y-96540025D01*
X188219709Y-96352826D01*
X188250500Y-96158422D01*
X188250500Y-95961577D01*
X188219709Y-95767173D01*
X188173636Y-95625376D01*
X188158884Y-95579975D01*
X188158882Y-95579972D01*
X188158882Y-95579970D01*
X188069523Y-95404594D01*
X187953828Y-95245354D01*
X187814646Y-95106172D01*
X187655405Y-94990476D01*
X187579554Y-94951828D01*
X187480029Y-94901117D01*
X187292826Y-94840290D01*
X187098422Y-94809500D01*
X187098417Y-94809500D01*
X186901583Y-94809500D01*
X186901578Y-94809500D01*
X186707173Y-94840290D01*
X186519970Y-94901117D01*
X186344594Y-94990476D01*
X186321634Y-95007158D01*
X186185354Y-95106172D01*
X186185352Y-95106174D01*
X186185351Y-95106174D01*
X186046174Y-95245351D01*
X186046174Y-95245352D01*
X186046172Y-95245354D01*
X186021156Y-95279786D01*
X185930476Y-95404594D01*
X185841117Y-95579970D01*
X185780290Y-95767173D01*
X185749500Y-95961577D01*
X185250500Y-95961577D01*
X185219709Y-95767173D01*
X185173636Y-95625376D01*
X185158884Y-95579975D01*
X185158882Y-95579972D01*
X185158882Y-95579970D01*
X185069523Y-95404594D01*
X184953828Y-95245354D01*
X184814646Y-95106172D01*
X184655405Y-94990476D01*
X184579554Y-94951828D01*
X184480029Y-94901117D01*
X184292826Y-94840290D01*
X184098422Y-94809500D01*
X184098417Y-94809500D01*
X183901583Y-94809500D01*
X183901578Y-94809500D01*
X183707173Y-94840290D01*
X183519970Y-94901117D01*
X183344594Y-94990476D01*
X183321634Y-95007158D01*
X183185354Y-95106172D01*
X183185352Y-95106174D01*
X183185351Y-95106174D01*
X183046174Y-95245351D01*
X183046174Y-95245352D01*
X183046172Y-95245354D01*
X183021156Y-95279786D01*
X182930476Y-95404594D01*
X182841117Y-95579970D01*
X182780290Y-95767173D01*
X182749500Y-95961577D01*
X182250500Y-95961577D01*
X182219709Y-95767173D01*
X182173636Y-95625376D01*
X182158884Y-95579975D01*
X182158882Y-95579972D01*
X182158882Y-95579970D01*
X182069523Y-95404594D01*
X181953828Y-95245354D01*
X181814646Y-95106172D01*
X181655405Y-94990476D01*
X181579554Y-94951828D01*
X181480029Y-94901117D01*
X181292826Y-94840290D01*
X181098422Y-94809500D01*
X181098417Y-94809500D01*
X180901583Y-94809500D01*
X180901578Y-94809500D01*
X180707173Y-94840290D01*
X180519970Y-94901117D01*
X180344594Y-94990476D01*
X180321634Y-95007158D01*
X180185354Y-95106172D01*
X180185352Y-95106174D01*
X180185351Y-95106174D01*
X180046174Y-95245351D01*
X180046174Y-95245352D01*
X180046172Y-95245354D01*
X180021156Y-95279786D01*
X179930476Y-95404594D01*
X179841117Y-95579970D01*
X179780290Y-95767173D01*
X179749500Y-95961577D01*
X179250500Y-95961577D01*
X179219709Y-95767173D01*
X179173636Y-95625376D01*
X179158884Y-95579975D01*
X179158882Y-95579972D01*
X179158882Y-95579970D01*
X179069523Y-95404594D01*
X178953828Y-95245354D01*
X178814646Y-95106172D01*
X178655405Y-94990476D01*
X178579554Y-94951828D01*
X178480029Y-94901117D01*
X178292826Y-94840290D01*
X178098422Y-94809500D01*
X178098417Y-94809500D01*
X177901583Y-94809500D01*
X177901578Y-94809500D01*
X177707173Y-94840290D01*
X177519970Y-94901117D01*
X177344594Y-94990476D01*
X177321634Y-95007158D01*
X177185354Y-95106172D01*
X177185352Y-95106174D01*
X177185351Y-95106174D01*
X177046174Y-95245351D01*
X177046174Y-95245352D01*
X177046172Y-95245354D01*
X177021156Y-95279786D01*
X176930476Y-95404594D01*
X176841117Y-95579970D01*
X176780290Y-95767173D01*
X176749500Y-95961577D01*
X176250500Y-95961577D01*
X176219709Y-95767173D01*
X176173636Y-95625376D01*
X176158884Y-95579975D01*
X176158882Y-95579972D01*
X176158882Y-95579970D01*
X176069523Y-95404594D01*
X175953828Y-95245354D01*
X175814646Y-95106172D01*
X175655405Y-94990476D01*
X175579554Y-94951828D01*
X175480029Y-94901117D01*
X175292826Y-94840290D01*
X175098422Y-94809500D01*
X175098417Y-94809500D01*
X174901583Y-94809500D01*
X174901578Y-94809500D01*
X174707173Y-94840290D01*
X174519970Y-94901117D01*
X174344594Y-94990476D01*
X174321634Y-95007158D01*
X174185354Y-95106172D01*
X174185352Y-95106174D01*
X174185351Y-95106174D01*
X174046174Y-95245351D01*
X174046174Y-95245352D01*
X174046172Y-95245354D01*
X174021156Y-95279786D01*
X173930476Y-95404594D01*
X173841117Y-95579970D01*
X173780290Y-95767173D01*
X173749500Y-95961577D01*
X173250500Y-95961577D01*
X173219709Y-95767173D01*
X173173636Y-95625376D01*
X173158884Y-95579975D01*
X173158882Y-95579972D01*
X173158882Y-95579970D01*
X173069523Y-95404594D01*
X172953828Y-95245354D01*
X172814646Y-95106172D01*
X172678364Y-95007156D01*
X172635699Y-94951828D01*
X172629634Y-94931034D01*
X172625501Y-94910256D01*
X172576465Y-94791873D01*
X172576464Y-94791870D01*
X172505277Y-94685331D01*
X172505271Y-94685324D01*
X165563660Y-87743713D01*
X167049500Y-87743713D01*
X167049500Y-88256286D01*
X167078793Y-88441239D01*
X167082754Y-88466243D01*
X167100288Y-88520208D01*
X167148444Y-88668414D01*
X167244951Y-88857820D01*
X167369890Y-89029786D01*
X167520213Y-89180109D01*
X167692179Y-89305048D01*
X167692181Y-89305049D01*
X167692184Y-89305051D01*
X167881588Y-89401557D01*
X168083757Y-89467246D01*
X168293713Y-89500500D01*
X168293714Y-89500500D01*
X168506286Y-89500500D01*
X168506287Y-89500500D01*
X168716243Y-89467246D01*
X168918412Y-89401557D01*
X169107816Y-89305051D01*
X169142230Y-89280048D01*
X169279786Y-89180109D01*
X169279788Y-89180106D01*
X169279792Y-89180104D01*
X169430104Y-89029792D01*
X169549683Y-88865204D01*
X169605011Y-88822540D01*
X169674624Y-88816561D01*
X169736420Y-88849166D01*
X169750313Y-88865199D01*
X169781279Y-88907820D01*
X169869896Y-89029792D01*
X170020213Y-89180109D01*
X170192179Y-89305048D01*
X170192181Y-89305049D01*
X170192184Y-89305051D01*
X170381588Y-89401557D01*
X170583757Y-89467246D01*
X170793713Y-89500500D01*
X170793714Y-89500500D01*
X171006286Y-89500500D01*
X171006287Y-89500500D01*
X171216243Y-89467246D01*
X171418412Y-89401557D01*
X171607816Y-89305051D01*
X171642230Y-89280048D01*
X171779786Y-89180109D01*
X171779788Y-89180106D01*
X171779792Y-89180104D01*
X171930104Y-89029792D01*
X171930106Y-89029788D01*
X171930109Y-89029786D01*
X172055048Y-88857820D01*
X172055047Y-88857820D01*
X172055051Y-88857816D01*
X172151557Y-88668412D01*
X172217246Y-88466243D01*
X172250500Y-88256287D01*
X172250500Y-87743713D01*
X172217246Y-87533757D01*
X172151557Y-87331588D01*
X172151555Y-87331585D01*
X172151554Y-87331580D01*
X172151553Y-87331579D01*
X172124320Y-87278131D01*
X172124318Y-87278129D01*
X172097239Y-87224983D01*
X174649500Y-87224983D01*
X174649500Y-88775001D01*
X174649501Y-88775018D01*
X174660000Y-88877796D01*
X174660001Y-88877799D01*
X174715185Y-89044331D01*
X174715187Y-89044336D01*
X174739502Y-89083757D01*
X174807288Y-89193656D01*
X174931344Y-89317712D01*
X175080666Y-89409814D01*
X175247203Y-89464999D01*
X175349991Y-89475500D01*
X176650008Y-89475499D01*
X176752797Y-89464999D01*
X176919334Y-89409814D01*
X177068656Y-89317712D01*
X177192712Y-89193656D01*
X177284814Y-89044334D01*
X177284814Y-89044331D01*
X177288178Y-89038879D01*
X177340126Y-88992154D01*
X177409088Y-88980931D01*
X177473170Y-89008774D01*
X177481398Y-89016294D01*
X177620213Y-89155109D01*
X177792179Y-89280048D01*
X177792181Y-89280049D01*
X177792184Y-89280051D01*
X177981588Y-89376557D01*
X178183757Y-89442246D01*
X178393713Y-89475500D01*
X178393714Y-89475500D01*
X178606286Y-89475500D01*
X178606287Y-89475500D01*
X178816243Y-89442246D01*
X179018412Y-89376557D01*
X179207816Y-89280051D01*
X179276556Y-89230109D01*
X179379786Y-89155109D01*
X179379788Y-89155106D01*
X179379792Y-89155104D01*
X179530104Y-89004792D01*
X179649683Y-88840204D01*
X179705011Y-88797540D01*
X179774624Y-88791561D01*
X179836420Y-88824166D01*
X179850313Y-88840199D01*
X179952560Y-88980931D01*
X179969896Y-89004792D01*
X180120213Y-89155109D01*
X180292179Y-89280048D01*
X180292181Y-89280049D01*
X180292184Y-89280051D01*
X180481588Y-89376557D01*
X180683757Y-89442246D01*
X180893713Y-89475500D01*
X180893714Y-89475500D01*
X181106286Y-89475500D01*
X181106287Y-89475500D01*
X181316243Y-89442246D01*
X181518412Y-89376557D01*
X181707816Y-89280051D01*
X181776556Y-89230109D01*
X181879786Y-89155109D01*
X181879788Y-89155106D01*
X181879792Y-89155104D01*
X182030104Y-89004792D01*
X182149683Y-88840204D01*
X182205011Y-88797540D01*
X182274624Y-88791561D01*
X182336420Y-88824166D01*
X182350313Y-88840199D01*
X182452560Y-88980931D01*
X182469896Y-89004792D01*
X182620213Y-89155109D01*
X182792179Y-89280048D01*
X182792181Y-89280049D01*
X182792184Y-89280051D01*
X182981588Y-89376557D01*
X183183757Y-89442246D01*
X183393713Y-89475500D01*
X183393714Y-89475500D01*
X183606286Y-89475500D01*
X183606287Y-89475500D01*
X183816243Y-89442246D01*
X184018412Y-89376557D01*
X184207816Y-89280051D01*
X184276556Y-89230109D01*
X184379786Y-89155109D01*
X184379788Y-89155106D01*
X184379792Y-89155104D01*
X184530104Y-89004792D01*
X184530106Y-89004788D01*
X184530109Y-89004786D01*
X184655048Y-88832820D01*
X184655047Y-88832820D01*
X184655051Y-88832816D01*
X184751557Y-88643412D01*
X184817246Y-88441243D01*
X184850500Y-88231287D01*
X184850500Y-88093713D01*
X186999500Y-88093713D01*
X186999500Y-88306286D01*
X187024834Y-88466243D01*
X187032754Y-88516243D01*
X187089919Y-88692179D01*
X187098444Y-88718414D01*
X187194951Y-88907820D01*
X187319890Y-89079786D01*
X187470209Y-89230105D01*
X187470214Y-89230109D01*
X187634793Y-89349682D01*
X187677459Y-89405011D01*
X187683438Y-89474625D01*
X187650833Y-89536420D01*
X187634793Y-89550318D01*
X187470214Y-89669890D01*
X187470209Y-89669894D01*
X187319890Y-89820213D01*
X187194951Y-89992179D01*
X187098444Y-90181585D01*
X187032753Y-90383760D01*
X187004273Y-90563580D01*
X186999500Y-90593713D01*
X186999500Y-90806287D01*
X187032754Y-91016243D01*
X187089919Y-91192179D01*
X187098444Y-91218414D01*
X187194951Y-91407820D01*
X187319890Y-91579786D01*
X187470213Y-91730109D01*
X187642179Y-91855048D01*
X187642181Y-91855049D01*
X187642184Y-91855051D01*
X187831588Y-91951557D01*
X188033757Y-92017246D01*
X188243713Y-92050500D01*
X188243714Y-92050500D01*
X188756286Y-92050500D01*
X188756287Y-92050500D01*
X188966243Y-92017246D01*
X189168412Y-91951557D01*
X189357816Y-91855051D01*
X189442241Y-91793713D01*
X189529786Y-91730109D01*
X189529788Y-91730106D01*
X189529792Y-91730104D01*
X189680104Y-91579792D01*
X189680106Y-91579788D01*
X189680109Y-91579786D01*
X189805048Y-91407820D01*
X189805047Y-91407820D01*
X189805051Y-91407816D01*
X189901557Y-91218412D01*
X189967246Y-91016243D01*
X190000500Y-90806287D01*
X190000500Y-90593713D01*
X189967246Y-90383757D01*
X189901557Y-90181588D01*
X189805051Y-89992184D01*
X189805049Y-89992181D01*
X189805048Y-89992179D01*
X189680109Y-89820213D01*
X189529792Y-89669896D01*
X189529784Y-89669890D01*
X189365204Y-89550316D01*
X189322540Y-89494989D01*
X189316561Y-89425376D01*
X189349166Y-89363580D01*
X189365199Y-89349686D01*
X189529792Y-89230104D01*
X189680104Y-89079792D01*
X189680106Y-89079788D01*
X189680109Y-89079786D01*
X189805048Y-88907820D01*
X189805047Y-88907820D01*
X189805051Y-88907816D01*
X189901557Y-88718412D01*
X189967246Y-88516243D01*
X190000500Y-88306287D01*
X190000500Y-88093713D01*
X192999500Y-88093713D01*
X192999500Y-88306286D01*
X193024834Y-88466243D01*
X193032754Y-88516243D01*
X193089919Y-88692179D01*
X193098444Y-88718414D01*
X193194951Y-88907820D01*
X193319890Y-89079786D01*
X193470209Y-89230105D01*
X193470214Y-89230109D01*
X193634793Y-89349682D01*
X193677459Y-89405011D01*
X193683438Y-89474625D01*
X193650833Y-89536420D01*
X193634793Y-89550318D01*
X193470214Y-89669890D01*
X193470209Y-89669894D01*
X193319890Y-89820213D01*
X193194951Y-89992179D01*
X193098444Y-90181585D01*
X193032753Y-90383760D01*
X193004273Y-90563580D01*
X192999500Y-90593713D01*
X192999500Y-90806287D01*
X193032754Y-91016243D01*
X193089919Y-91192179D01*
X193098444Y-91218414D01*
X193194951Y-91407820D01*
X193319890Y-91579786D01*
X193470213Y-91730109D01*
X193642179Y-91855048D01*
X193642181Y-91855049D01*
X193642184Y-91855051D01*
X193831588Y-91951557D01*
X194033757Y-92017246D01*
X194243713Y-92050500D01*
X194243714Y-92050500D01*
X194756286Y-92050500D01*
X194756287Y-92050500D01*
X194966243Y-92017246D01*
X195168412Y-91951557D01*
X195357816Y-91855051D01*
X195442241Y-91793713D01*
X195529786Y-91730109D01*
X195529788Y-91730106D01*
X195529792Y-91730104D01*
X195680104Y-91579792D01*
X195680106Y-91579788D01*
X195680109Y-91579786D01*
X195805048Y-91407820D01*
X195805047Y-91407820D01*
X195805051Y-91407816D01*
X195901557Y-91218412D01*
X195967246Y-91016243D01*
X196000500Y-90806287D01*
X196000500Y-90593713D01*
X195967246Y-90383757D01*
X195901557Y-90181588D01*
X195805051Y-89992184D01*
X195805049Y-89992181D01*
X195805048Y-89992179D01*
X195680109Y-89820213D01*
X195529792Y-89669896D01*
X195529784Y-89669890D01*
X195365204Y-89550316D01*
X195322540Y-89494989D01*
X195316561Y-89425376D01*
X195349166Y-89363580D01*
X195365199Y-89349686D01*
X195529792Y-89230104D01*
X195680104Y-89079792D01*
X195680106Y-89079788D01*
X195680109Y-89079786D01*
X195805048Y-88907820D01*
X195805047Y-88907820D01*
X195805051Y-88907816D01*
X195901557Y-88718412D01*
X195967246Y-88516243D01*
X196000500Y-88306287D01*
X196000500Y-88093713D01*
X195967246Y-87883757D01*
X195901557Y-87681588D01*
X195805051Y-87492184D01*
X195805049Y-87492181D01*
X195805048Y-87492179D01*
X195680109Y-87320213D01*
X195529786Y-87169890D01*
X195357820Y-87044951D01*
X195168414Y-86948444D01*
X195168413Y-86948443D01*
X195168412Y-86948443D01*
X194966243Y-86882754D01*
X194966241Y-86882753D01*
X194966240Y-86882753D01*
X194804957Y-86857208D01*
X194756287Y-86849500D01*
X194243713Y-86849500D01*
X194195042Y-86857208D01*
X194033760Y-86882753D01*
X193831585Y-86948444D01*
X193642179Y-87044951D01*
X193470213Y-87169890D01*
X193319890Y-87320213D01*
X193194951Y-87492179D01*
X193098444Y-87681585D01*
X193032753Y-87883760D01*
X192999500Y-88093713D01*
X190000500Y-88093713D01*
X189967246Y-87883757D01*
X189901557Y-87681588D01*
X189805051Y-87492184D01*
X189805049Y-87492181D01*
X189805048Y-87492179D01*
X189680109Y-87320213D01*
X189529786Y-87169890D01*
X189357820Y-87044951D01*
X189168414Y-86948444D01*
X189168413Y-86948443D01*
X189168412Y-86948443D01*
X188966243Y-86882754D01*
X188966241Y-86882753D01*
X188966240Y-86882753D01*
X188804957Y-86857208D01*
X188756287Y-86849500D01*
X188243713Y-86849500D01*
X188195042Y-86857208D01*
X188033760Y-86882753D01*
X187831585Y-86948444D01*
X187642179Y-87044951D01*
X187470213Y-87169890D01*
X187319890Y-87320213D01*
X187194951Y-87492179D01*
X187098444Y-87681585D01*
X187032753Y-87883760D01*
X186999500Y-88093713D01*
X184850500Y-88093713D01*
X184850500Y-87768713D01*
X184817246Y-87558757D01*
X184751557Y-87356588D01*
X184655051Y-87167184D01*
X184655049Y-87167181D01*
X184655048Y-87167179D01*
X184530109Y-86995213D01*
X184379786Y-86844890D01*
X184207820Y-86719951D01*
X184018414Y-86623444D01*
X184018413Y-86623443D01*
X184018412Y-86623443D01*
X183816243Y-86557754D01*
X183816241Y-86557753D01*
X183816240Y-86557753D01*
X183654957Y-86532208D01*
X183606287Y-86524500D01*
X183393713Y-86524500D01*
X183345042Y-86532208D01*
X183183760Y-86557753D01*
X182981585Y-86623444D01*
X182792179Y-86719951D01*
X182620213Y-86844890D01*
X182469894Y-86995209D01*
X182469890Y-86995214D01*
X182350318Y-87159793D01*
X182294989Y-87202459D01*
X182225375Y-87208438D01*
X182163580Y-87175833D01*
X182149682Y-87159793D01*
X182030109Y-86995214D01*
X182030105Y-86995209D01*
X181879786Y-86844890D01*
X181707820Y-86719951D01*
X181518414Y-86623444D01*
X181518413Y-86623443D01*
X181518412Y-86623443D01*
X181316243Y-86557754D01*
X181316241Y-86557753D01*
X181316240Y-86557753D01*
X181154957Y-86532208D01*
X181106287Y-86524500D01*
X180893713Y-86524500D01*
X180845042Y-86532208D01*
X180683760Y-86557753D01*
X180481585Y-86623444D01*
X180292179Y-86719951D01*
X180120213Y-86844890D01*
X179969894Y-86995209D01*
X179969890Y-86995214D01*
X179850318Y-87159793D01*
X179794989Y-87202459D01*
X179725375Y-87208438D01*
X179663580Y-87175833D01*
X179649682Y-87159793D01*
X179530109Y-86995214D01*
X179530105Y-86995209D01*
X179379786Y-86844890D01*
X179207820Y-86719951D01*
X179018414Y-86623444D01*
X179018413Y-86623443D01*
X179018412Y-86623443D01*
X178816243Y-86557754D01*
X178816241Y-86557753D01*
X178816240Y-86557753D01*
X178654957Y-86532208D01*
X178606287Y-86524500D01*
X178393713Y-86524500D01*
X178345042Y-86532208D01*
X178183760Y-86557753D01*
X177981585Y-86623444D01*
X177792179Y-86719951D01*
X177620215Y-86844889D01*
X177481398Y-86983706D01*
X177420075Y-87017190D01*
X177350383Y-87012206D01*
X177294450Y-86970334D01*
X177288178Y-86961120D01*
X177192712Y-86806344D01*
X177068657Y-86682289D01*
X177068656Y-86682288D01*
X176973253Y-86623443D01*
X176919336Y-86590187D01*
X176919331Y-86590185D01*
X176917862Y-86589698D01*
X176752797Y-86535001D01*
X176752795Y-86535000D01*
X176650010Y-86524500D01*
X175349998Y-86524500D01*
X175349981Y-86524501D01*
X175247203Y-86535000D01*
X175247200Y-86535001D01*
X175080668Y-86590185D01*
X175080663Y-86590187D01*
X174931342Y-86682289D01*
X174807289Y-86806342D01*
X174715187Y-86955663D01*
X174715185Y-86955668D01*
X174710365Y-86970214D01*
X174660001Y-87122203D01*
X174660001Y-87122204D01*
X174660000Y-87122204D01*
X174649500Y-87224983D01*
X172097239Y-87224983D01*
X172088809Y-87208438D01*
X172055051Y-87142184D01*
X172055049Y-87142181D01*
X172055048Y-87142179D01*
X171930109Y-86970213D01*
X171779786Y-86819890D01*
X171607820Y-86694951D01*
X171418414Y-86598444D01*
X171418413Y-86598443D01*
X171418412Y-86598443D01*
X171216243Y-86532754D01*
X171216241Y-86532753D01*
X171216240Y-86532753D01*
X171054957Y-86507208D01*
X171006287Y-86499500D01*
X170793713Y-86499500D01*
X170745042Y-86507208D01*
X170583760Y-86532753D01*
X170381585Y-86598444D01*
X170192179Y-86694951D01*
X170020213Y-86819890D01*
X169869894Y-86970209D01*
X169869890Y-86970214D01*
X169750318Y-87134793D01*
X169694989Y-87177459D01*
X169625375Y-87183438D01*
X169563580Y-87150833D01*
X169549682Y-87134793D01*
X169430109Y-86970214D01*
X169430105Y-86970209D01*
X169279786Y-86819890D01*
X169107820Y-86694951D01*
X168918414Y-86598444D01*
X168918413Y-86598443D01*
X168918412Y-86598443D01*
X168716243Y-86532754D01*
X168716241Y-86532753D01*
X168716240Y-86532753D01*
X168554957Y-86507208D01*
X168506287Y-86499500D01*
X168293713Y-86499500D01*
X168245042Y-86507208D01*
X168083760Y-86532753D01*
X167881585Y-86598444D01*
X167692179Y-86694951D01*
X167520213Y-86819890D01*
X167369890Y-86970213D01*
X167244951Y-87142179D01*
X167148444Y-87331585D01*
X167082753Y-87533760D01*
X167049500Y-87743713D01*
X165563660Y-87743713D01*
X165314673Y-87494726D01*
X165310869Y-87492184D01*
X165208127Y-87423535D01*
X165089744Y-87374499D01*
X165089738Y-87374497D01*
X164964071Y-87349500D01*
X164964069Y-87349500D01*
X164636671Y-87349500D01*
X164569632Y-87329815D01*
X164526186Y-87281795D01*
X164488809Y-87208438D01*
X164455051Y-87142184D01*
X164455049Y-87142181D01*
X164455048Y-87142179D01*
X164330109Y-86970213D01*
X164179786Y-86819890D01*
X164007820Y-86694951D01*
X163818414Y-86598444D01*
X163818413Y-86598443D01*
X163818412Y-86598443D01*
X163616243Y-86532754D01*
X163616241Y-86532753D01*
X163616240Y-86532753D01*
X163454957Y-86507208D01*
X163406287Y-86499500D01*
X163193713Y-86499500D01*
X163145042Y-86507208D01*
X162983760Y-86532753D01*
X162781585Y-86598444D01*
X162592179Y-86694951D01*
X162420213Y-86819890D01*
X162269894Y-86970209D01*
X162269890Y-86970214D01*
X162150318Y-87134793D01*
X162094989Y-87177459D01*
X162025375Y-87183438D01*
X161963580Y-87150833D01*
X161949682Y-87134793D01*
X161830109Y-86970214D01*
X161830105Y-86970209D01*
X161679786Y-86819890D01*
X161507820Y-86694951D01*
X161318414Y-86598444D01*
X161318413Y-86598443D01*
X161318412Y-86598443D01*
X161116243Y-86532754D01*
X161116241Y-86532753D01*
X161116240Y-86532753D01*
X160954957Y-86507208D01*
X160906287Y-86499500D01*
X160693713Y-86499500D01*
X160645042Y-86507208D01*
X160483760Y-86532753D01*
X160281585Y-86598444D01*
X160092179Y-86694951D01*
X159920213Y-86819890D01*
X159769890Y-86970213D01*
X159644951Y-87142179D01*
X159548444Y-87331585D01*
X159482753Y-87533760D01*
X159449500Y-87743713D01*
X157050500Y-87743713D01*
X157017246Y-87533757D01*
X156951557Y-87331588D01*
X156855051Y-87142184D01*
X156855049Y-87142181D01*
X156855048Y-87142179D01*
X156730109Y-86970213D01*
X156579786Y-86819890D01*
X156407820Y-86694951D01*
X156218414Y-86598444D01*
X156218413Y-86598443D01*
X156218412Y-86598443D01*
X156016243Y-86532754D01*
X156016241Y-86532753D01*
X156016240Y-86532753D01*
X155854957Y-86507208D01*
X155806287Y-86499500D01*
X155593713Y-86499500D01*
X155545042Y-86507208D01*
X155383760Y-86532753D01*
X155181585Y-86598444D01*
X154992179Y-86694951D01*
X154820213Y-86819890D01*
X154669894Y-86970209D01*
X154669890Y-86970214D01*
X154550318Y-87134793D01*
X154494989Y-87177459D01*
X154425375Y-87183438D01*
X154363580Y-87150833D01*
X154349682Y-87134793D01*
X154230109Y-86970214D01*
X154230105Y-86970209D01*
X154079786Y-86819890D01*
X153907820Y-86694951D01*
X153718414Y-86598444D01*
X153718413Y-86598443D01*
X153718412Y-86598443D01*
X153516243Y-86532754D01*
X153516241Y-86532753D01*
X153516240Y-86532753D01*
X153354957Y-86507208D01*
X153306287Y-86499500D01*
X153093713Y-86499500D01*
X153045042Y-86507208D01*
X152883760Y-86532753D01*
X152681585Y-86598444D01*
X152492179Y-86694951D01*
X152320213Y-86819890D01*
X152169890Y-86970213D01*
X152044951Y-87142179D01*
X151948444Y-87331585D01*
X151882753Y-87533760D01*
X151849500Y-87743713D01*
X143300500Y-87743713D01*
X143300500Y-82522635D01*
X143320185Y-82455596D01*
X143372989Y-82409841D01*
X143442147Y-82399897D01*
X143505703Y-82428922D01*
X143539061Y-82475183D01*
X143571590Y-82553717D01*
X143571593Y-82553722D01*
X143571595Y-82553726D01*
X143683052Y-82746774D01*
X143683057Y-82746780D01*
X143683058Y-82746782D01*
X143818751Y-82923622D01*
X143818757Y-82923629D01*
X143976370Y-83081242D01*
X143976376Y-83081247D01*
X144153226Y-83216948D01*
X144346274Y-83328405D01*
X144552219Y-83413710D01*
X144767537Y-83471404D01*
X144988543Y-83500500D01*
X144988550Y-83500500D01*
X145211450Y-83500500D01*
X145211457Y-83500500D01*
X145432463Y-83471404D01*
X145647781Y-83413710D01*
X145853726Y-83328405D01*
X146046774Y-83216948D01*
X146223624Y-83081247D01*
X146381247Y-82923624D01*
X146516948Y-82746774D01*
X146628405Y-82553726D01*
X146713710Y-82347781D01*
X146730225Y-82286142D01*
X146766590Y-82226483D01*
X146829437Y-82195954D01*
X146898812Y-82204249D01*
X146952690Y-82248734D01*
X146969773Y-82286141D01*
X146986290Y-82347780D01*
X146986293Y-82347790D01*
X147071591Y-82553717D01*
X147071595Y-82553726D01*
X147183052Y-82746774D01*
X147183057Y-82746780D01*
X147183058Y-82746782D01*
X147318751Y-82923622D01*
X147318757Y-82923629D01*
X147476370Y-83081242D01*
X147476376Y-83081247D01*
X147653226Y-83216948D01*
X147846274Y-83328405D01*
X148052219Y-83413710D01*
X148267537Y-83471404D01*
X148488543Y-83500500D01*
X148488550Y-83500500D01*
X148711450Y-83500500D01*
X148711457Y-83500500D01*
X148932463Y-83471404D01*
X149147781Y-83413710D01*
X149353726Y-83328405D01*
X149546774Y-83216948D01*
X149723624Y-83081247D01*
X149881247Y-82923624D01*
X150016948Y-82746774D01*
X150128405Y-82553726D01*
X150213710Y-82347781D01*
X150271404Y-82132463D01*
X150300500Y-81911457D01*
X150300500Y-81688549D01*
X157699500Y-81688549D01*
X157699500Y-81911450D01*
X157699501Y-81911466D01*
X157728594Y-82132452D01*
X157728595Y-82132457D01*
X157728596Y-82132463D01*
X157786290Y-82347780D01*
X157786293Y-82347790D01*
X157871591Y-82553717D01*
X157871595Y-82553726D01*
X157983052Y-82746774D01*
X157983057Y-82746780D01*
X157983058Y-82746782D01*
X158118751Y-82923622D01*
X158118757Y-82923629D01*
X158276370Y-83081242D01*
X158276376Y-83081247D01*
X158453226Y-83216948D01*
X158646274Y-83328405D01*
X158852219Y-83413710D01*
X159067537Y-83471404D01*
X159288543Y-83500500D01*
X159288550Y-83500500D01*
X159511450Y-83500500D01*
X159511457Y-83500500D01*
X159732463Y-83471404D01*
X159947781Y-83413710D01*
X160153726Y-83328405D01*
X160346774Y-83216948D01*
X160523624Y-83081247D01*
X160681247Y-82923624D01*
X160816948Y-82746774D01*
X160928405Y-82553726D01*
X161013710Y-82347781D01*
X161030225Y-82286142D01*
X161066590Y-82226483D01*
X161129437Y-82195954D01*
X161198812Y-82204249D01*
X161252690Y-82248734D01*
X161269773Y-82286141D01*
X161286290Y-82347780D01*
X161286293Y-82347790D01*
X161371591Y-82553717D01*
X161371595Y-82553726D01*
X161483052Y-82746774D01*
X161483057Y-82746780D01*
X161483058Y-82746782D01*
X161618751Y-82923622D01*
X161618757Y-82923629D01*
X161776370Y-83081242D01*
X161776376Y-83081247D01*
X161953226Y-83216948D01*
X162146274Y-83328405D01*
X162352219Y-83413710D01*
X162567537Y-83471404D01*
X162788543Y-83500500D01*
X162788550Y-83500500D01*
X163011450Y-83500500D01*
X163011457Y-83500500D01*
X163232463Y-83471404D01*
X163447781Y-83413710D01*
X163653726Y-83328405D01*
X163846774Y-83216948D01*
X164023624Y-83081247D01*
X164181247Y-82923624D01*
X164316948Y-82746774D01*
X164428405Y-82553726D01*
X164513710Y-82347781D01*
X164571404Y-82132463D01*
X164600500Y-81911457D01*
X164600500Y-81688543D01*
X164571404Y-81467537D01*
X164513710Y-81252219D01*
X164511327Y-81246467D01*
X164428406Y-81046277D01*
X164428405Y-81046274D01*
X164316948Y-80853226D01*
X164277867Y-80802294D01*
X164181248Y-80676377D01*
X164181242Y-80676370D01*
X164023629Y-80518757D01*
X164023622Y-80518751D01*
X163917364Y-80437217D01*
X163846782Y-80383058D01*
X163846780Y-80383057D01*
X163846774Y-80383052D01*
X163778637Y-80343713D01*
X167049500Y-80343713D01*
X167049500Y-80856286D01*
X167079591Y-81046277D01*
X167082754Y-81066243D01*
X167143178Y-81252209D01*
X167148444Y-81268414D01*
X167244951Y-81457820D01*
X167369890Y-81629786D01*
X167520213Y-81780109D01*
X167692179Y-81905048D01*
X167692181Y-81905049D01*
X167692184Y-81905051D01*
X167881588Y-82001557D01*
X168083757Y-82067246D01*
X168293713Y-82100500D01*
X168293714Y-82100500D01*
X168506286Y-82100500D01*
X168506287Y-82100500D01*
X168716243Y-82067246D01*
X168918412Y-82001557D01*
X169107816Y-81905051D01*
X169183588Y-81850000D01*
X169279786Y-81780109D01*
X169279788Y-81780106D01*
X169279792Y-81780104D01*
X169430104Y-81629792D01*
X169549683Y-81465204D01*
X169605011Y-81422540D01*
X169674624Y-81416561D01*
X169736420Y-81449166D01*
X169750313Y-81465199D01*
X169834397Y-81580931D01*
X169869896Y-81629792D01*
X170020213Y-81780109D01*
X170192179Y-81905048D01*
X170192181Y-81905049D01*
X170192184Y-81905051D01*
X170381588Y-82001557D01*
X170583757Y-82067246D01*
X170793713Y-82100500D01*
X170793714Y-82100500D01*
X171006286Y-82100500D01*
X171006287Y-82100500D01*
X171216243Y-82067246D01*
X171418412Y-82001557D01*
X171607816Y-81905051D01*
X171683588Y-81850000D01*
X171779786Y-81780109D01*
X171779788Y-81780106D01*
X171779792Y-81780104D01*
X171930104Y-81629792D01*
X171930106Y-81629788D01*
X171930109Y-81629786D01*
X172047988Y-81467537D01*
X172055051Y-81457816D01*
X172151557Y-81268412D01*
X172217246Y-81066243D01*
X172250500Y-80856287D01*
X172250500Y-80343713D01*
X172217246Y-80133757D01*
X172151557Y-79931588D01*
X172151555Y-79931585D01*
X172151554Y-79931580D01*
X172151553Y-79931579D01*
X172124320Y-79878131D01*
X172124318Y-79878129D01*
X172097239Y-79824983D01*
X174649500Y-79824983D01*
X174649500Y-81375001D01*
X174649501Y-81375018D01*
X174660000Y-81477796D01*
X174660001Y-81477799D01*
X174705894Y-81616294D01*
X174715186Y-81644334D01*
X174807288Y-81793656D01*
X174931344Y-81917712D01*
X175080666Y-82009814D01*
X175247203Y-82064999D01*
X175349991Y-82075500D01*
X176650008Y-82075499D01*
X176752797Y-82064999D01*
X176919334Y-82009814D01*
X177068656Y-81917712D01*
X177192712Y-81793656D01*
X177284814Y-81644334D01*
X177284814Y-81644331D01*
X177288178Y-81638879D01*
X177340126Y-81592154D01*
X177409088Y-81580931D01*
X177473170Y-81608774D01*
X177481398Y-81616294D01*
X177620213Y-81755109D01*
X177792179Y-81880048D01*
X177792181Y-81880049D01*
X177792184Y-81880051D01*
X177981588Y-81976557D01*
X178183757Y-82042246D01*
X178393713Y-82075500D01*
X178393714Y-82075500D01*
X178606286Y-82075500D01*
X178606287Y-82075500D01*
X178816243Y-82042246D01*
X179018412Y-81976557D01*
X179207816Y-81880051D01*
X179249178Y-81850000D01*
X179379786Y-81755109D01*
X179379788Y-81755106D01*
X179379792Y-81755104D01*
X179530104Y-81604792D01*
X179649683Y-81440204D01*
X179705011Y-81397540D01*
X179774624Y-81391561D01*
X179836420Y-81424166D01*
X179850313Y-81440199D01*
X179879079Y-81479792D01*
X179969896Y-81604792D01*
X180120213Y-81755109D01*
X180292179Y-81880048D01*
X180292181Y-81880049D01*
X180292184Y-81880051D01*
X180481588Y-81976557D01*
X180683757Y-82042246D01*
X180893713Y-82075500D01*
X180893714Y-82075500D01*
X181106286Y-82075500D01*
X181106287Y-82075500D01*
X181316243Y-82042246D01*
X181518412Y-81976557D01*
X181707816Y-81880051D01*
X181749178Y-81850000D01*
X181879786Y-81755109D01*
X181879788Y-81755106D01*
X181879792Y-81755104D01*
X182030104Y-81604792D01*
X182149683Y-81440204D01*
X182205011Y-81397540D01*
X182274624Y-81391561D01*
X182336420Y-81424166D01*
X182350313Y-81440199D01*
X182379079Y-81479792D01*
X182469896Y-81604792D01*
X182620213Y-81755109D01*
X182792179Y-81880048D01*
X182792181Y-81880049D01*
X182792184Y-81880051D01*
X182981588Y-81976557D01*
X183183757Y-82042246D01*
X183393713Y-82075500D01*
X183393714Y-82075500D01*
X183606286Y-82075500D01*
X183606287Y-82075500D01*
X183816243Y-82042246D01*
X184018412Y-81976557D01*
X184207816Y-81880051D01*
X184249178Y-81850000D01*
X184379786Y-81755109D01*
X184379788Y-81755106D01*
X184379792Y-81755104D01*
X184530104Y-81604792D01*
X184530106Y-81604788D01*
X184530109Y-81604786D01*
X184655048Y-81432820D01*
X184655047Y-81432820D01*
X184655051Y-81432816D01*
X184751557Y-81243412D01*
X184817246Y-81041243D01*
X184850500Y-80831287D01*
X184850500Y-80493713D01*
X187099500Y-80493713D01*
X187099500Y-80706286D01*
X187123257Y-80856286D01*
X187132754Y-80916243D01*
X187181492Y-81066243D01*
X187198444Y-81118414D01*
X187294951Y-81307820D01*
X187419890Y-81479786D01*
X187570209Y-81630105D01*
X187570214Y-81630109D01*
X187734793Y-81749682D01*
X187777459Y-81805011D01*
X187783438Y-81874625D01*
X187750833Y-81936420D01*
X187734793Y-81950318D01*
X187570214Y-82069890D01*
X187570209Y-82069894D01*
X187419890Y-82220213D01*
X187294951Y-82392179D01*
X187198444Y-82581585D01*
X187132753Y-82783760D01*
X187110601Y-82923622D01*
X187099500Y-82993713D01*
X187099500Y-83206287D01*
X187101189Y-83216948D01*
X187132352Y-83413710D01*
X187132754Y-83416243D01*
X187160130Y-83500498D01*
X187198444Y-83618414D01*
X187294951Y-83807820D01*
X187419890Y-83979786D01*
X187570213Y-84130109D01*
X187742179Y-84255048D01*
X187742181Y-84255049D01*
X187742184Y-84255051D01*
X187931588Y-84351557D01*
X188133757Y-84417246D01*
X188343713Y-84450500D01*
X188343714Y-84450500D01*
X188856286Y-84450500D01*
X188856287Y-84450500D01*
X189066243Y-84417246D01*
X189268412Y-84351557D01*
X189457816Y-84255051D01*
X189479789Y-84239086D01*
X189629786Y-84130109D01*
X189629788Y-84130106D01*
X189629792Y-84130104D01*
X189780104Y-83979792D01*
X189780106Y-83979788D01*
X189780109Y-83979786D01*
X189905048Y-83807820D01*
X189905047Y-83807820D01*
X189905051Y-83807816D01*
X190001557Y-83618412D01*
X190067246Y-83416243D01*
X190100500Y-83206287D01*
X190100500Y-82993713D01*
X190067246Y-82783757D01*
X190001557Y-82581588D01*
X189905051Y-82392184D01*
X189905049Y-82392181D01*
X189905048Y-82392179D01*
X189780109Y-82220213D01*
X189629792Y-82069896D01*
X189623050Y-82064998D01*
X189465204Y-81950316D01*
X189422540Y-81894989D01*
X189416561Y-81825376D01*
X189449166Y-81763580D01*
X189465199Y-81749686D01*
X189629792Y-81630104D01*
X189780104Y-81479792D01*
X189780106Y-81479788D01*
X189780109Y-81479786D01*
X189905048Y-81307820D01*
X189905047Y-81307820D01*
X189905051Y-81307816D01*
X190001557Y-81118412D01*
X190067246Y-80916243D01*
X190100500Y-80706287D01*
X190100500Y-80493713D01*
X192999500Y-80493713D01*
X192999500Y-80706286D01*
X193023257Y-80856286D01*
X193032754Y-80916243D01*
X193081492Y-81066243D01*
X193098444Y-81118414D01*
X193194951Y-81307820D01*
X193319890Y-81479786D01*
X193470209Y-81630105D01*
X193470214Y-81630109D01*
X193634793Y-81749682D01*
X193677459Y-81805011D01*
X193683438Y-81874625D01*
X193650833Y-81936420D01*
X193634793Y-81950318D01*
X193470214Y-82069890D01*
X193470209Y-82069894D01*
X193319890Y-82220213D01*
X193194951Y-82392179D01*
X193098444Y-82581585D01*
X193032753Y-82783760D01*
X193010601Y-82923622D01*
X192999500Y-82993713D01*
X192999500Y-83206287D01*
X193001189Y-83216948D01*
X193032352Y-83413710D01*
X193032754Y-83416243D01*
X193060130Y-83500498D01*
X193098444Y-83618414D01*
X193194951Y-83807820D01*
X193319890Y-83979786D01*
X193470213Y-84130109D01*
X193642179Y-84255048D01*
X193642181Y-84255049D01*
X193642184Y-84255051D01*
X193831588Y-84351557D01*
X194033757Y-84417246D01*
X194243713Y-84450500D01*
X194243714Y-84450500D01*
X194756286Y-84450500D01*
X194756287Y-84450500D01*
X194966243Y-84417246D01*
X195168412Y-84351557D01*
X195357816Y-84255051D01*
X195379789Y-84239086D01*
X195529786Y-84130109D01*
X195529788Y-84130106D01*
X195529792Y-84130104D01*
X195680104Y-83979792D01*
X195680106Y-83979788D01*
X195680109Y-83979786D01*
X195805048Y-83807820D01*
X195805047Y-83807820D01*
X195805051Y-83807816D01*
X195901557Y-83618412D01*
X195967246Y-83416243D01*
X196000500Y-83206287D01*
X196000500Y-82993713D01*
X195967246Y-82783757D01*
X195901557Y-82581588D01*
X195805051Y-82392184D01*
X195805049Y-82392181D01*
X195805048Y-82392179D01*
X195680109Y-82220213D01*
X195529792Y-82069896D01*
X195523050Y-82064998D01*
X195365204Y-81950316D01*
X195322540Y-81894989D01*
X195316561Y-81825376D01*
X195349166Y-81763580D01*
X195365199Y-81749686D01*
X195529792Y-81630104D01*
X195680104Y-81479792D01*
X195680106Y-81479788D01*
X195680109Y-81479786D01*
X195805048Y-81307820D01*
X195805047Y-81307820D01*
X195805051Y-81307816D01*
X195901557Y-81118412D01*
X195967246Y-80916243D01*
X196000500Y-80706287D01*
X196000500Y-80493713D01*
X195967246Y-80283757D01*
X195901557Y-80081588D01*
X195805051Y-79892184D01*
X195805049Y-79892181D01*
X195805048Y-79892179D01*
X195680109Y-79720213D01*
X195529786Y-79569890D01*
X195357820Y-79444951D01*
X195168414Y-79348444D01*
X195168413Y-79348443D01*
X195168412Y-79348443D01*
X194966243Y-79282754D01*
X194966241Y-79282753D01*
X194966240Y-79282753D01*
X194804957Y-79257208D01*
X194756287Y-79249500D01*
X194243713Y-79249500D01*
X194195042Y-79257208D01*
X194033760Y-79282753D01*
X193831585Y-79348444D01*
X193642179Y-79444951D01*
X193470213Y-79569890D01*
X193319890Y-79720213D01*
X193194951Y-79892179D01*
X193098444Y-80081585D01*
X193032753Y-80283760D01*
X192999500Y-80493713D01*
X190100500Y-80493713D01*
X190067246Y-80283757D01*
X190001557Y-80081588D01*
X189905051Y-79892184D01*
X189905049Y-79892181D01*
X189905048Y-79892179D01*
X189780109Y-79720213D01*
X189629786Y-79569890D01*
X189457820Y-79444951D01*
X189268414Y-79348444D01*
X189268413Y-79348443D01*
X189268412Y-79348443D01*
X189066243Y-79282754D01*
X189066241Y-79282753D01*
X189066240Y-79282753D01*
X188904957Y-79257208D01*
X188856287Y-79249500D01*
X188343713Y-79249500D01*
X188295042Y-79257208D01*
X188133760Y-79282753D01*
X187931585Y-79348444D01*
X187742179Y-79444951D01*
X187570213Y-79569890D01*
X187419890Y-79720213D01*
X187294951Y-79892179D01*
X187198444Y-80081585D01*
X187132753Y-80283760D01*
X187099500Y-80493713D01*
X184850500Y-80493713D01*
X184850500Y-80368713D01*
X184817246Y-80158757D01*
X184751557Y-79956588D01*
X184655051Y-79767184D01*
X184655049Y-79767181D01*
X184655048Y-79767179D01*
X184530109Y-79595213D01*
X184379786Y-79444890D01*
X184207820Y-79319951D01*
X184018414Y-79223444D01*
X184018413Y-79223443D01*
X184018412Y-79223443D01*
X183816243Y-79157754D01*
X183816241Y-79157753D01*
X183816240Y-79157753D01*
X183654957Y-79132208D01*
X183606287Y-79124500D01*
X183393713Y-79124500D01*
X183345042Y-79132208D01*
X183183760Y-79157753D01*
X182981585Y-79223444D01*
X182792179Y-79319951D01*
X182620213Y-79444890D01*
X182469894Y-79595209D01*
X182469890Y-79595214D01*
X182350318Y-79759793D01*
X182294989Y-79802459D01*
X182225375Y-79808438D01*
X182163580Y-79775833D01*
X182149682Y-79759793D01*
X182030109Y-79595214D01*
X182030105Y-79595209D01*
X181879786Y-79444890D01*
X181707820Y-79319951D01*
X181518414Y-79223444D01*
X181518413Y-79223443D01*
X181518412Y-79223443D01*
X181316243Y-79157754D01*
X181316241Y-79157753D01*
X181316240Y-79157753D01*
X181154957Y-79132208D01*
X181106287Y-79124500D01*
X180893713Y-79124500D01*
X180845042Y-79132208D01*
X180683760Y-79157753D01*
X180481585Y-79223444D01*
X180292179Y-79319951D01*
X180120213Y-79444890D01*
X179969894Y-79595209D01*
X179969890Y-79595214D01*
X179850318Y-79759793D01*
X179794989Y-79802459D01*
X179725375Y-79808438D01*
X179663580Y-79775833D01*
X179649682Y-79759793D01*
X179530109Y-79595214D01*
X179530105Y-79595209D01*
X179379786Y-79444890D01*
X179207820Y-79319951D01*
X179018414Y-79223444D01*
X179018413Y-79223443D01*
X179018412Y-79223443D01*
X178816243Y-79157754D01*
X178816241Y-79157753D01*
X178816240Y-79157753D01*
X178654957Y-79132208D01*
X178606287Y-79124500D01*
X178393713Y-79124500D01*
X178345042Y-79132208D01*
X178183760Y-79157753D01*
X177981585Y-79223444D01*
X177792179Y-79319951D01*
X177620215Y-79444889D01*
X177481398Y-79583706D01*
X177420075Y-79617190D01*
X177350383Y-79612206D01*
X177294450Y-79570334D01*
X177288178Y-79561120D01*
X177192712Y-79406344D01*
X177068657Y-79282289D01*
X177068656Y-79282288D01*
X176973253Y-79223443D01*
X176919336Y-79190187D01*
X176919331Y-79190185D01*
X176917862Y-79189698D01*
X176752797Y-79135001D01*
X176752795Y-79135000D01*
X176650010Y-79124500D01*
X175349998Y-79124500D01*
X175349981Y-79124501D01*
X175247203Y-79135000D01*
X175247200Y-79135001D01*
X175080668Y-79190185D01*
X175080663Y-79190187D01*
X174931342Y-79282289D01*
X174807289Y-79406342D01*
X174715187Y-79555663D01*
X174715185Y-79555668D01*
X174710365Y-79570214D01*
X174660001Y-79722203D01*
X174660001Y-79722204D01*
X174660000Y-79722204D01*
X174649500Y-79824983D01*
X172097239Y-79824983D01*
X172088809Y-79808438D01*
X172055051Y-79742184D01*
X172055049Y-79742181D01*
X172055048Y-79742179D01*
X171930109Y-79570213D01*
X171779786Y-79419890D01*
X171607820Y-79294951D01*
X171418414Y-79198444D01*
X171418413Y-79198443D01*
X171418412Y-79198443D01*
X171216243Y-79132754D01*
X171216241Y-79132753D01*
X171216240Y-79132753D01*
X171054957Y-79107208D01*
X171006287Y-79099500D01*
X170793713Y-79099500D01*
X170745042Y-79107208D01*
X170583760Y-79132753D01*
X170381585Y-79198444D01*
X170192179Y-79294951D01*
X170020213Y-79419890D01*
X169869894Y-79570209D01*
X169869890Y-79570214D01*
X169750318Y-79734793D01*
X169694989Y-79777459D01*
X169625375Y-79783438D01*
X169563580Y-79750833D01*
X169549682Y-79734793D01*
X169430109Y-79570214D01*
X169430105Y-79570209D01*
X169279786Y-79419890D01*
X169107820Y-79294951D01*
X168918414Y-79198444D01*
X168918413Y-79198443D01*
X168918412Y-79198443D01*
X168716243Y-79132754D01*
X168716241Y-79132753D01*
X168716240Y-79132753D01*
X168554957Y-79107208D01*
X168506287Y-79099500D01*
X168293713Y-79099500D01*
X168245042Y-79107208D01*
X168083760Y-79132753D01*
X167881585Y-79198444D01*
X167692179Y-79294951D01*
X167520213Y-79419890D01*
X167369890Y-79570213D01*
X167244951Y-79742179D01*
X167148444Y-79931585D01*
X167082753Y-80133760D01*
X167049500Y-80343713D01*
X163778637Y-80343713D01*
X163653726Y-80271595D01*
X163653722Y-80271593D01*
X163447790Y-80186293D01*
X163447783Y-80186291D01*
X163447781Y-80186290D01*
X163232463Y-80128596D01*
X163232457Y-80128595D01*
X163232452Y-80128594D01*
X163011466Y-80099501D01*
X163011463Y-80099500D01*
X163011457Y-80099500D01*
X162788543Y-80099500D01*
X162788537Y-80099500D01*
X162788533Y-80099501D01*
X162567547Y-80128594D01*
X162567540Y-80128595D01*
X162567537Y-80128596D01*
X162548276Y-80133757D01*
X162352219Y-80186290D01*
X162352209Y-80186293D01*
X162146277Y-80271593D01*
X162146273Y-80271595D01*
X161953226Y-80383052D01*
X161953217Y-80383058D01*
X161776377Y-80518751D01*
X161776370Y-80518757D01*
X161618757Y-80676370D01*
X161618751Y-80676377D01*
X161483058Y-80853217D01*
X161483052Y-80853226D01*
X161371595Y-81046273D01*
X161371593Y-81046277D01*
X161286293Y-81252209D01*
X161286291Y-81252216D01*
X161286290Y-81252219D01*
X161269774Y-81313857D01*
X161233410Y-81373516D01*
X161170563Y-81404045D01*
X161101187Y-81395750D01*
X161047309Y-81351265D01*
X161030226Y-81313858D01*
X161013710Y-81252219D01*
X161011327Y-81246467D01*
X160928406Y-81046277D01*
X160928405Y-81046274D01*
X160816948Y-80853226D01*
X160777867Y-80802294D01*
X160681248Y-80676377D01*
X160681242Y-80676370D01*
X160523629Y-80518757D01*
X160523622Y-80518751D01*
X160346782Y-80383058D01*
X160346780Y-80383057D01*
X160346774Y-80383052D01*
X160153726Y-80271595D01*
X160153722Y-80271593D01*
X159947790Y-80186293D01*
X159947783Y-80186291D01*
X159947781Y-80186290D01*
X159732463Y-80128596D01*
X159732457Y-80128595D01*
X159732452Y-80128594D01*
X159511466Y-80099501D01*
X159511463Y-80099500D01*
X159511457Y-80099500D01*
X159288543Y-80099500D01*
X159288537Y-80099500D01*
X159288533Y-80099501D01*
X159067547Y-80128594D01*
X159067540Y-80128595D01*
X159067537Y-80128596D01*
X159048276Y-80133757D01*
X158852219Y-80186290D01*
X158852209Y-80186293D01*
X158646277Y-80271593D01*
X158646273Y-80271595D01*
X158453226Y-80383052D01*
X158453217Y-80383058D01*
X158276377Y-80518751D01*
X158276370Y-80518757D01*
X158118757Y-80676370D01*
X158118751Y-80676377D01*
X157983058Y-80853217D01*
X157983052Y-80853226D01*
X157871595Y-81046273D01*
X157871593Y-81046277D01*
X157786293Y-81252209D01*
X157786291Y-81252216D01*
X157786290Y-81252219D01*
X157733519Y-81449166D01*
X157728597Y-81467534D01*
X157728594Y-81467547D01*
X157699501Y-81688533D01*
X157699500Y-81688549D01*
X150300500Y-81688549D01*
X150300500Y-81688543D01*
X150271404Y-81467537D01*
X150213710Y-81252219D01*
X150211327Y-81246467D01*
X150128406Y-81046277D01*
X150128405Y-81046274D01*
X150016948Y-80853226D01*
X149977867Y-80802294D01*
X149881248Y-80676377D01*
X149881242Y-80676370D01*
X149723629Y-80518757D01*
X149723622Y-80518751D01*
X149546782Y-80383058D01*
X149546780Y-80383057D01*
X149546774Y-80383052D01*
X149353726Y-80271595D01*
X149353722Y-80271593D01*
X149147790Y-80186293D01*
X149147783Y-80186291D01*
X149147781Y-80186290D01*
X148932463Y-80128596D01*
X148932457Y-80128595D01*
X148932452Y-80128594D01*
X148711466Y-80099501D01*
X148711463Y-80099500D01*
X148711457Y-80099500D01*
X148488543Y-80099500D01*
X148488537Y-80099500D01*
X148488533Y-80099501D01*
X148267547Y-80128594D01*
X148267540Y-80128595D01*
X148267537Y-80128596D01*
X148248276Y-80133757D01*
X148052219Y-80186290D01*
X148052209Y-80186293D01*
X147846277Y-80271593D01*
X147846273Y-80271595D01*
X147653226Y-80383052D01*
X147653217Y-80383058D01*
X147476377Y-80518751D01*
X147476370Y-80518757D01*
X147318757Y-80676370D01*
X147318751Y-80676377D01*
X147183058Y-80853217D01*
X147183052Y-80853226D01*
X147071595Y-81046273D01*
X147071593Y-81046277D01*
X146986293Y-81252209D01*
X146986291Y-81252216D01*
X146986290Y-81252219D01*
X146969774Y-81313857D01*
X146933410Y-81373516D01*
X146870563Y-81404045D01*
X146801187Y-81395750D01*
X146747309Y-81351265D01*
X146730226Y-81313858D01*
X146713710Y-81252219D01*
X146711327Y-81246467D01*
X146628406Y-81046277D01*
X146628405Y-81046274D01*
X146516948Y-80853226D01*
X146477867Y-80802294D01*
X146381248Y-80676377D01*
X146381242Y-80676370D01*
X146223629Y-80518757D01*
X146223622Y-80518751D01*
X146046782Y-80383058D01*
X146046780Y-80383057D01*
X146046774Y-80383052D01*
X145853726Y-80271595D01*
X145853722Y-80271593D01*
X145647790Y-80186293D01*
X145647783Y-80186291D01*
X145647781Y-80186290D01*
X145432463Y-80128596D01*
X145432457Y-80128595D01*
X145432452Y-80128594D01*
X145211466Y-80099501D01*
X145211463Y-80099500D01*
X145211457Y-80099500D01*
X144988543Y-80099500D01*
X144988537Y-80099500D01*
X144988533Y-80099501D01*
X144767547Y-80128594D01*
X144767540Y-80128595D01*
X144767537Y-80128596D01*
X144748276Y-80133757D01*
X144552219Y-80186290D01*
X144552209Y-80186293D01*
X144346277Y-80271593D01*
X144346273Y-80271595D01*
X144153226Y-80383052D01*
X144153217Y-80383058D01*
X143976377Y-80518751D01*
X143976370Y-80518757D01*
X143818757Y-80676370D01*
X143818751Y-80676377D01*
X143683058Y-80853217D01*
X143683052Y-80853226D01*
X143571595Y-81046273D01*
X143571593Y-81046277D01*
X143539061Y-81124817D01*
X143495220Y-81179220D01*
X143428926Y-81201285D01*
X143361226Y-81184006D01*
X143313616Y-81132868D01*
X143300500Y-81077364D01*
X143300500Y-78624500D01*
X143320185Y-78557461D01*
X143372989Y-78511706D01*
X143424500Y-78500500D01*
X197675500Y-78500500D01*
X197742539Y-78520185D01*
G37*
%TD.AperFunction*%
%TD*%
M02*
